# Blender v3.4.1 OBJ File: 'Tiny_Treats_Bubbly_Bathroom_1.1_ASSETS_EXPORT.blend'
# www.blender.org
mtllib bin.mtl
o bin
v 0.046930 0.370000 -0.235932
v 0.133644 0.370000 -0.200013
v 0.200013 0.370000 -0.133645
v 0.235932 0.370000 -0.046930
v 0.235932 0.370000 0.046930
v 0.200013 0.370000 0.133645
v 0.133644 0.370000 0.200013
v 0.046930 0.370000 0.235932
v -0.046930 0.370000 0.235932
v -0.133645 0.370000 0.200013
v -0.200014 0.370000 0.133645
v -0.235932 0.370000 0.046930
v -0.235932 0.370000 -0.046930
v -0.200014 0.370000 -0.133645
v -0.133645 0.370000 -0.200013
v -0.046930 0.370000 -0.235932
v -0.000000 0.030000 0.000000
v 0.000000 -0.000960 0.000000
v 0.039282 0.020828 -0.197484
v 0.111866 0.020828 -0.167419
v 0.167419 0.020828 -0.111866
v 0.197485 0.020828 -0.039282
v 0.197485 0.020828 0.039282
v 0.167419 0.020828 0.111866
v 0.111866 0.020828 0.167419
v 0.039282 0.020828 0.197484
v -0.039282 0.020828 0.197484
v -0.111866 0.020828 0.167419
v -0.167419 0.020828 0.111866
v -0.197484 0.020828 0.039282
v -0.197484 0.020828 -0.039282
v -0.167419 0.020828 -0.111866
v -0.111866 0.020828 -0.167419
v -0.039282 0.020828 -0.197484
v 0.113896 0.480000 -0.170458
v 0.127172 0.500000 -0.190327
v 0.044656 0.500000 -0.224506
v 0.039995 0.480000 -0.201069
v 0.052448 0.388232 -0.263671
v 0.170458 0.480000 -0.113896
v 0.190326 0.500000 -0.127172
v 0.201069 0.480000 -0.039995
v 0.224505 0.500000 -0.044657
v 0.201069 0.480000 0.039996
v 0.224505 0.500000 0.044657
v 0.170458 0.480000 0.113897
v 0.190326 0.500000 0.127173
v 0.113896 0.480000 0.170459
v 0.127172 0.500000 0.190327
v 0.039995 0.480000 0.201070
v 0.044656 0.500000 0.224506
v -0.039996 0.480000 0.201070
v -0.044658 0.500000 0.224506
v -0.113897 0.480000 0.170459
v -0.127173 0.500000 0.190327
v -0.170459 0.480000 0.113897
v -0.190328 0.500000 0.127173
v -0.201070 0.480000 0.039996
v -0.224507 0.500000 0.044657
v -0.201070 0.480000 -0.039995
v -0.224507 0.500000 -0.044657
v -0.170459 0.480000 -0.113896
v -0.190328 0.500000 -0.127172
v -0.113897 0.480000 -0.170458
v -0.127173 0.500000 -0.190327
v -0.039996 0.480000 -0.201069
v -0.044658 0.500000 -0.224506
v 0.149358 0.388232 -0.223530
v 0.223530 0.388232 -0.149358
v 0.263672 0.388232 -0.052447
v 0.263672 0.388232 0.052448
v 0.223530 0.388232 0.149358
v 0.149358 0.388232 0.223531
v 0.052448 0.388232 0.263672
v -0.052448 0.388232 0.263672
v -0.149358 0.388232 0.223531
v -0.223530 0.388232 0.149358
v -0.263672 0.388232 0.052448
v -0.263672 0.388232 -0.052447
v -0.223530 0.388232 -0.149358
v -0.149358 0.388232 -0.223530
v -0.052448 0.388232 -0.263671
v 0.144446 0.500000 -0.216178
v 0.155775 0.480000 -0.233133
v 0.054701 0.480000 -0.275000
v 0.050723 0.500000 -0.255000
v 0.216179 0.500000 -0.144445
v 0.233134 0.480000 -0.155775
v 0.255000 0.500000 -0.050722
v 0.275000 0.480000 -0.054700
v 0.255000 0.500000 0.050723
v 0.275000 0.480000 0.054701
v 0.216179 0.500000 0.144446
v 0.233134 0.480000 0.155775
v 0.144446 0.500000 0.216179
v 0.155775 0.480000 0.233134
v 0.050723 0.500000 0.255000
v 0.054701 0.480000 0.275000
v -0.050723 0.500000 0.255000
v -0.054701 0.480000 0.275000
v -0.144446 0.500000 0.216179
v -0.155775 0.480000 0.233134
v -0.216179 0.500000 0.144446
v -0.233134 0.480000 0.155775
v -0.255000 0.500000 0.050723
v -0.275000 0.480000 0.054701
v -0.255000 0.500000 -0.050722
v -0.275000 0.480000 -0.054700
v -0.216179 0.500000 -0.144446
v -0.233134 0.480000 -0.155775
v -0.144446 0.500000 -0.216178
v -0.155775 0.480000 -0.233133
v -0.050723 0.500000 -0.255000
v -0.054701 0.480000 -0.275000
v 0.095355 0.030000 -0.142709
v 0.033484 0.030000 -0.168337
v 0.142709 0.030000 -0.095355
v 0.168337 0.030000 -0.033484
v 0.168337 0.030000 0.033485
v 0.142709 0.030000 0.095356
v 0.095355 0.030000 0.142709
v 0.033484 0.030000 0.168337
v -0.033485 0.030000 0.168337
v -0.095356 0.030000 0.142710
v -0.142710 0.030000 0.095356
v -0.168337 0.030000 0.033485
v -0.168337 0.030000 -0.033484
v -0.142710 0.030000 -0.095355
v -0.095356 0.030000 -0.142709
v -0.033485 0.030000 -0.168337
v 0.097680 -0.000960 -0.146188
v 0.034301 -0.000960 -0.172441
v 0.146188 -0.000960 -0.097680
v 0.172441 -0.000960 -0.034301
v 0.172441 -0.000960 0.034301
v 0.146188 -0.000960 0.097680
v 0.097680 -0.000960 0.146188
v 0.034301 -0.000960 0.172441
v -0.034301 -0.000960 0.172441
v -0.097680 -0.000960 0.146188
v -0.146188 -0.000960 0.097680
v -0.172441 -0.000960 0.034301
v -0.172441 -0.000960 -0.034301
v -0.146188 -0.000960 -0.097680
v -0.097680 -0.000960 -0.146188
v -0.034301 -0.000960 -0.172441
vt 0.317926 0.823863
vt 0.317926 0.833917
vt 0.307074 0.833917
vt 0.307074 0.823863
vt 0.329521 0.833917
vt 0.326930 0.833917
vt 0.326930 0.829608
vt 0.329521 0.829608
vt 0.317926 0.823863
vt 0.317926 0.833917
vt 0.327952 0.833917
vt 0.327952 0.823863
vt 0.297048 0.833917
vt 0.297048 0.823863
vt 0.335626 0.833917
vt 0.335626 0.823863
vt 0.289374 0.833917
vt 0.289374 0.823863
vt 0.339779 0.833917
vt 0.339779 0.823863
vt 0.285221 0.833917
vt 0.285221 0.823863
vt 0.339779 0.833917
vt 0.339779 0.823863
vt 0.285221 0.833917
vt 0.285221 0.823863
vt 0.335626 0.833917
vt 0.335626 0.823863
vt 0.289374 0.833917
vt 0.289374 0.823863
vt 0.327952 0.833917
vt 0.327952 0.823863
vt 0.297048 0.833917
vt 0.297048 0.823863
vt 0.307074 0.833917
vt 0.307074 0.823863
vt 0.433958 0.579055
vt 0.433268 0.614992
vt 0.441732 0.614992
vt 0.441042 0.579055
vt 0.447588 0.579055
vt 0.449552 0.614992
vt 0.455537 0.614992
vt 0.452598 0.579055
vt 0.322141 0.833917
vt 0.315886 0.833917
vt 0.315886 0.829608
vt 0.322141 0.829608
vt 0.427412 0.579055
vt 0.425448 0.614992
vt 0.422402 0.579055
vt 0.419463 0.614992
vt 0.419691 0.579055
vt 0.416224 0.614992
vt 0.419691 0.579055
vt 0.416224 0.614992
vt 0.422402 0.579055
vt 0.419463 0.614992
vt 0.427412 0.579055
vt 0.425448 0.614992
vt 0.433958 0.579055
vt 0.433268 0.614992
vt 0.441042 0.579055
vt 0.441732 0.614992
vt 0.447588 0.579055
vt 0.449552 0.614992
vt 0.452598 0.579055
vt 0.455537 0.614992
vt 0.455309 0.579055
vt 0.458776 0.614992
vt 0.455309 0.579055
vt 0.458776 0.614992
vt 0.327952 0.808238
vt 0.335626 0.808238
vt 0.330537 0.786867
vt 0.324552 0.786867
vt 0.339779 0.808238
vt 0.333776 0.786867
vt 0.339779 0.808238
vt 0.333776 0.786867
vt 0.335626 0.808238
vt 0.330537 0.786867
vt 0.327952 0.808238
vt 0.324552 0.786867
vt 0.317926 0.808238
vt 0.316732 0.786867
vt 0.307074 0.808238
vt 0.308268 0.786867
vt 0.297048 0.808238
vt 0.300448 0.786867
vt 0.289374 0.808238
vt 0.294463 0.786867
vt 0.285221 0.808238
vt 0.291224 0.786867
vt 0.285221 0.808238
vt 0.291224 0.786867
vt 0.289374 0.808238
vt 0.294463 0.786867
vt 0.297048 0.808238
vt 0.300448 0.786867
vt 0.309114 0.833917
vt 0.309114 0.829608
vt 0.316280 0.868040
vt 0.323265 0.868040
vt 0.326828 0.868040
vt 0.317531 0.868040
vt 0.329521 0.833917
vt 0.329521 0.829608
vt 0.326930 0.833917
vt 0.326930 0.829608
vt 0.322141 0.833917
vt 0.322141 0.829608
vt 0.315886 0.833917
vt 0.315886 0.829608
vt 0.309114 0.833917
vt 0.309114 0.829608
vt 0.302858 0.833917
vt 0.302858 0.829608
vt 0.298070 0.833917
vt 0.298070 0.829608
vt 0.295479 0.833917
vt 0.295479 0.829608
vt 0.295479 0.833917
vt 0.295479 0.829608
vt 0.298070 0.833917
vt 0.298070 0.829608
vt 0.302858 0.833917
vt 0.302858 0.829608
vt 0.317926 0.808238
vt 0.316732 0.786867
vt 0.307074 0.808238
vt 0.308268 0.786867
vt 0.301735 0.868040
vt 0.296389 0.868040
vt 0.291056 0.868040
vt 0.298171 0.868040
vt 0.328611 0.868040
vt 0.331505 0.868040
vt 0.337795 0.868040
vt 0.333944 0.868040
vt 0.293495 0.868040
vt 0.287205 0.868040
vt 0.331505 0.868040
vt 0.337795 0.868040
vt 0.293495 0.868040
vt 0.287205 0.868040
vt 0.328611 0.868040
vt 0.333944 0.868040
vt 0.296389 0.868040
vt 0.291056 0.868040
vt 0.323265 0.868040
vt 0.326828 0.868040
vt 0.301735 0.868040
vt 0.298171 0.868040
vt 0.316280 0.868040
vt 0.317531 0.868040
vt 0.308720 0.868040
vt 0.307468 0.868040
vt 0.308720 0.868040
vt 0.307468 0.868040
vt 0.441042 0.563430
vt 0.447588 0.563430
vt 0.446309 0.560585
vt 0.440593 0.560585
vt 0.452598 0.563430
vt 0.450683 0.560585
vt 0.455309 0.563430
vt 0.453050 0.560585
vt 0.455309 0.563430
vt 0.453050 0.560585
vt 0.452598 0.563430
vt 0.450683 0.560585
vt 0.447588 0.563430
vt 0.446309 0.560585
vt 0.441042 0.563430
vt 0.440593 0.560585
vt 0.433958 0.563430
vt 0.434407 0.560585
vt 0.427412 0.563430
vt 0.428691 0.560585
vt 0.422402 0.563430
vt 0.424317 0.560585
vt 0.419691 0.563430
vt 0.421950 0.560585
vt 0.419691 0.563430
vt 0.421950 0.560585
vt 0.422402 0.563430
vt 0.424317 0.560585
vt 0.427412 0.563430
vt 0.428691 0.560585
vt 0.433958 0.563430
vt 0.434407 0.560585
vt 0.327952 0.880792
vt 0.317926 0.880792
vt 0.317531 0.883665
vt 0.326828 0.883665
vt 0.335626 0.880792
vt 0.333944 0.883665
vt 0.339779 0.880792
vt 0.337795 0.883665
vt 0.339779 0.880792
vt 0.337795 0.883665
vt 0.335626 0.880792
vt 0.333944 0.883665
vt 0.327952 0.880792
vt 0.326828 0.883665
vt 0.317926 0.880792
vt 0.317531 0.883665
vt 0.307074 0.880792
vt 0.307468 0.883665
vt 0.297048 0.880792
vt 0.298171 0.883665
vt 0.289374 0.880792
vt 0.291056 0.883665
vt 0.285221 0.880792
vt 0.287205 0.883665
vt 0.285221 0.880792
vt 0.287205 0.883665
vt 0.289374 0.880792
vt 0.291056 0.883665
vt 0.297048 0.880792
vt 0.298171 0.883665
vt 0.307074 0.880792
vt 0.307468 0.883665
vt 0.323265 0.883665
vt 0.316280 0.883665
vt 0.315886 0.880792
vt 0.322141 0.880792
vt 0.328611 0.883665
vt 0.326930 0.880792
vt 0.331505 0.883665
vt 0.329521 0.880792
vt 0.331505 0.883665
vt 0.329521 0.880792
vt 0.328611 0.883665
vt 0.326930 0.880792
vt 0.323265 0.883665
vt 0.322141 0.880792
vt 0.316280 0.883665
vt 0.315886 0.880792
vt 0.308720 0.883665
vt 0.309114 0.880792
vt 0.301735 0.883665
vt 0.302858 0.880792
vt 0.296389 0.883665
vt 0.298070 0.880792
vt 0.293495 0.883665
vt 0.295479 0.880792
vt 0.293495 0.883665
vt 0.295479 0.880792
vt 0.296389 0.883665
vt 0.298070 0.880792
vt 0.301735 0.883665
vt 0.302858 0.880792
vt 0.308720 0.883665
vt 0.309114 0.880792
vt 0.312500 0.829608
vt 0.437500 0.544960
vt 0.440593 0.544960
vt 0.446309 0.544960
vt 0.450683 0.544960
vt 0.453050 0.544960
vt 0.453050 0.544960
vt 0.450683 0.544960
vt 0.446309 0.544960
vt 0.440593 0.544960
vt 0.434407 0.544960
vt 0.428691 0.544960
vt 0.424317 0.544960
vt 0.421950 0.544960
vt 0.421950 0.544960
vt 0.424317 0.544960
vt 0.428691 0.544960
vt 0.434407 0.544960
vn 0.1678 -0.5102 0.8435
vn 0.1936 -0.1249 0.9731
vn -0.1936 -0.1249 0.9731
vn -0.1678 -0.5102 0.8435
vn -0.8619 0.4773 0.1714
vn -0.7307 0.4773 0.4882
vn -0.8292 0.0740 0.5540
vn -0.9781 0.0740 0.1946
vn 0.1678 -0.5102 -0.8435
vn 0.1936 -0.1249 -0.9731
vn 0.5512 -0.1249 -0.8250
vn 0.4778 -0.5102 -0.7151
vn -0.5512 -0.1249 0.8250
vn -0.4778 -0.5102 0.7151
vn 0.8250 -0.1249 -0.5512
vn 0.7151 -0.5102 -0.4778
vn -0.8250 -0.1249 0.5512
vn -0.7151 -0.5102 0.4778
vn 0.9731 -0.1249 -0.1936
vn 0.8435 -0.5102 -0.1678
vn -0.9731 -0.1249 0.1936
vn -0.8435 -0.5102 0.1678
vn 0.9731 -0.1249 0.1936
vn 0.8435 -0.5102 0.1678
vn -0.9731 -0.1249 -0.1936
vn -0.8435 -0.5102 -0.1678
vn 0.8250 -0.1249 0.5512
vn 0.7151 -0.5102 0.4778
vn -0.8250 -0.1249 -0.5512
vn -0.7151 -0.5102 -0.4778
vn 0.5512 -0.1249 0.8250
vn 0.4778 -0.5102 0.7151
vn -0.5512 -0.1249 -0.8250
vn -0.4778 -0.5102 -0.7151
vn -0.1936 -0.1249 -0.9731
vn -0.1678 -0.5102 -0.8435
vn -0.1741 -0.4510 -0.8754
vn -0.1939 -0.1116 -0.9747
vn 0.1939 -0.1116 -0.9747
vn 0.1741 -0.4510 -0.8754
vn 0.4959 -0.4510 -0.7421
vn 0.5521 -0.1116 -0.8263
vn 0.8263 -0.1116 -0.5521
vn 0.7421 -0.4510 -0.4959
vn -0.4882 0.4773 0.7307
vn -0.1714 0.4773 0.8619
vn -0.1946 0.0740 0.9781
vn -0.5540 0.0740 0.8292
vn -0.4959 -0.4510 -0.7421
vn -0.5521 -0.1116 -0.8263
vn -0.7421 -0.4510 -0.4959
vn -0.8263 -0.1116 -0.5521
vn -0.8754 -0.4510 -0.1741
vn -0.9747 -0.1116 -0.1939
vn -0.8754 -0.4510 0.1741
vn -0.9747 -0.1116 0.1939
vn -0.7421 -0.4510 0.4959
vn -0.8263 -0.1116 0.5521
vn -0.4959 -0.4510 0.7421
vn -0.5521 -0.1116 0.8263
vn -0.1741 -0.4510 0.8754
vn -0.1939 -0.1116 0.9747
vn 0.1741 -0.4510 0.8754
vn 0.1939 -0.1116 0.9747
vn 0.4959 -0.4510 0.7421
vn 0.5521 -0.1116 0.8263
vn 0.7421 -0.4510 0.4959
vn 0.8263 -0.1116 0.5521
vn 0.8754 -0.4510 0.1741
vn 0.9747 -0.1116 0.1939
vn 0.8754 -0.4510 -0.1741
vn 0.9747 -0.1116 -0.1939
vn 0.4505 -0.8405 -0.3010
vn 0.3010 -0.8405 -0.4505
vn 0.5314 -0.8405 -0.1057
vn 0.5314 -0.8405 0.1057
vn 0.4505 -0.8405 0.3010
vn 0.3010 -0.8405 0.4505
vn 0.1057 -0.8405 0.5314
vn -0.1057 -0.8405 0.5314
vn -0.3010 -0.8405 0.4505
vn -0.4505 -0.8405 0.3010
vn -0.5314 -0.8405 0.1057
vn -0.5314 -0.8405 -0.1057
vn -0.4505 -0.8405 -0.3010
vn -0.3010 -0.8405 -0.4505
vn 0.1714 0.4773 0.8619
vn 0.1946 0.0740 0.9781
vn -0.0591 0.9531 0.2969
vn -0.1682 0.9531 0.2517
vn 0.2318 0.9088 -0.3469
vn 0.0814 0.9088 -0.4092
vn -0.8619 0.4773 -0.1714
vn -0.9781 0.0740 -0.1946
vn -0.7307 0.4773 -0.4882
vn -0.8292 0.0740 -0.5540
vn -0.4882 0.4773 -0.7307
vn -0.5540 0.0740 -0.8292
vn -0.1714 0.4773 -0.8619
vn -0.1946 0.0740 -0.9781
vn 0.1714 0.4773 -0.8619
vn 0.1946 0.0740 -0.9781
vn 0.4882 0.4773 -0.7307
vn 0.5540 0.0740 -0.8292
vn 0.7307 0.4773 -0.4882
vn 0.8292 0.0740 -0.5540
vn 0.8619 0.4773 -0.1714
vn 0.9781 0.0740 -0.1946
vn 0.8619 0.4773 0.1714
vn 0.9781 0.0740 0.1946
vn 0.7307 0.4773 0.4882
vn 0.8292 0.0740 0.5540
vn 0.4882 0.4773 0.7307
vn 0.5540 0.0740 0.8292
vn 0.1057 -0.8405 -0.5314
vn -0.1057 -0.8405 -0.5314
vn 0.1682 0.9531 -0.2517
vn 0.2517 0.9531 -0.1682
vn -0.3469 0.9088 0.2318
vn -0.2318 0.9088 0.3469
vn -0.2517 0.9531 0.1682
vn -0.2969 0.9531 0.0591
vn 0.4092 0.9088 -0.0814
vn 0.3469 0.9088 -0.2318
vn 0.2969 0.9531 -0.0591
vn -0.4092 0.9088 0.0814
vn -0.2969 0.9531 -0.0591
vn 0.4092 0.9088 0.0814
vn 0.2969 0.9531 0.0591
vn -0.4092 0.9088 -0.0814
vn -0.2517 0.9531 -0.1682
vn 0.3469 0.9088 0.2318
vn 0.2517 0.9531 0.1682
vn -0.3469 0.9088 -0.2318
vn -0.1682 0.9531 -0.2517
vn 0.2318 0.9088 0.3469
vn 0.1682 0.9531 0.2517
vn -0.2318 0.9088 -0.3469
vn -0.0591 0.9531 -0.2969
vn 0.0814 0.9088 0.4092
vn 0.0591 0.9531 0.2969
vn -0.0814 0.9088 -0.4092
vn 0.0591 0.9531 -0.2969
vn -0.0814 0.9088 0.4092
vn 0.2127 -0.9238 -0.3183
vn 0.0747 -0.9238 -0.3754
vn 0.3183 -0.9238 -0.2127
vn 0.3754 -0.9238 -0.0747
vn 0.3754 -0.9238 0.0747
vn 0.3183 -0.9238 0.2127
vn 0.2127 -0.9238 0.3183
vn 0.0747 -0.9238 0.3754
vn -0.0747 -0.9238 0.3754
vn -0.2127 -0.9238 0.3183
vn -0.3183 -0.9238 0.2127
vn -0.3754 -0.9238 0.0747
vn -0.3754 -0.9238 -0.0747
vn -0.3183 -0.9238 -0.2127
vn -0.2127 -0.9238 -0.3183
vn -0.0747 -0.9238 -0.3754
vn 0.3890 0.7139 -0.5822
vn 0.1366 0.7139 -0.6868
vn 0.5822 0.7139 -0.3890
vn 0.6868 0.7139 -0.1366
vn 0.6868 0.7139 0.1366
vn 0.5822 0.7139 0.3890
vn 0.3890 0.7139 0.5822
vn 0.1366 0.7139 0.6868
vn -0.1366 0.7139 0.6868
vn -0.3890 0.7139 0.5822
vn -0.5822 0.7139 0.3890
vn -0.6868 0.7139 0.1366
vn -0.6868 0.7139 -0.1366
vn -0.5822 0.7139 -0.3890
vn -0.3890 0.7139 -0.5822
vn -0.1366 0.7139 -0.6868
vn -0.0000 1.0000 0.0000
vn 0.0000 -1.0000 -0.0000
usemtl tiny_treats_1
s 1
f 74/1/1 98/2/2 100/3/3 75/4/4
f 42/5/5 40/6/6 117/7/7 118/8/8
f 39/9/9 85/10/10 84/11/11 68/12/12
f 75/4/4 100/3/3 102/13/13 76/14/14
f 68/12/12 84/11/11 88/15/15 69/16/16
f 76/14/14 102/13/13 104/17/17 77/18/18
f 69/16/16 88/15/15 90/19/19 70/20/20
f 77/18/18 104/17/17 106/21/21 78/22/22
f 70/20/20 90/19/19 92/23/23 71/24/24
f 78/22/22 106/21/21 108/25/25 79/26/26
f 71/24/24 92/23/23 94/27/27 72/28/28
f 79/26/26 108/25/25 110/29/29 80/30/30
f 72/28/28 94/27/27 96/31/31 73/32/32
f 80/30/30 110/29/29 112/33/33 81/34/34
f 73/32/32 96/31/31 98/2/2 74/1/1
f 81/34/34 112/33/33 114/35/35 82/36/36
f 34/37/37 16/38/38 1/39/39 19/40/40
f 20/41/41 2/42/42 3/43/43 21/44/44
f 35/45/45 38/46/46 116/47/47 115/48/48
f 33/49/49 15/50/50 16/38/38 34/37/37
f 32/51/51 14/52/52 15/50/50 33/49/49
f 31/53/53 13/54/54 14/52/52 32/51/51
f 30/55/55 12/56/56 13/54/54 31/53/53
f 29/57/57 11/58/58 12/56/56 30/55/55
f 28/59/59 10/60/60 11/58/58 29/57/57
f 27/61/61 9/62/62 10/60/60 28/59/59
f 26/63/63 8/64/64 9/62/62 27/61/61
f 25/65/65 7/66/66 8/64/64 26/63/63
f 24/67/67 6/68/68 7/66/66 25/65/65
f 23/69/69 5/70/70 6/68/68 24/67/67
f 22/71/71 4/72/72 5/70/70 23/69/69
f 21/44/44 3/43/43 4/72/72 22/71/71
f 82/36/36 114/35/35 85/10/10 39/9/9
f 68/73/12 69/74/16 3/75/73 2/76/74
f 69/74/16 70/77/20 4/78/75 3/75/73
f 70/77/20 71/79/24 5/80/76 4/78/75
f 71/79/24 72/81/28 6/82/77 5/80/76
f 72/81/28 73/83/32 7/84/78 6/82/77
f 73/83/32 74/85/1 8/86/79 7/84/78
f 74/85/1 75/87/4 9/88/80 8/86/79
f 75/87/4 76/89/14 10/90/81 9/88/80
f 76/89/14 77/91/18 11/92/82 10/90/81
f 77/91/18 78/93/22 12/94/83 11/92/82
f 78/93/22 79/95/26 13/96/84 12/94/83
f 79/95/26 80/97/30 14/98/85 13/96/84
f 80/97/30 81/99/34 15/100/86 14/98/85
f 38/46/46 66/101/87 130/102/88 116/47/47
f 40/6/6 35/45/45 115/48/48 117/7/7
f 37/103/89 36/104/90 83/105/91 86/106/92
f 44/107/93 42/5/5 118/8/8 119/108/94
f 46/109/95 44/107/93 119/108/94 120/110/96
f 48/111/97 46/109/95 120/110/96 121/112/98
f 50/113/99 48/111/97 121/112/98 122/114/100
f 52/115/101 50/113/99 122/114/100 123/116/102
f 54/117/103 52/115/101 123/116/102 124/118/104
f 56/119/105 54/117/103 124/118/104 125/120/106
f 58/121/107 56/119/105 125/120/106 126/122/108
f 60/123/109 58/121/107 126/122/108 127/124/110
f 62/125/111 60/123/109 127/124/110 128/126/112
f 64/127/113 62/125/111 128/126/112 129/128/114
f 66/101/87 64/127/113 129/128/114 130/102/88
f 39/129/9 68/73/12 2/76/74 1/130/115
f 81/99/34 82/131/36 16/132/116 15/100/86
f 55/133/117 57/134/118 103/135/119 101/136/120
f 41/137/121 43/138/122 89/139/123 87/140/124
f 57/134/118 59/141/125 105/142/126 103/135/119
f 43/138/122 45/143/127 91/144/128 89/139/123
f 59/141/125 61/145/129 107/146/130 105/142/126
f 45/143/127 47/147/131 93/148/132 91/144/128
f 61/145/129 63/149/133 109/150/134 107/146/130
f 47/147/131 49/151/135 95/152/136 93/148/132
f 63/149/133 65/153/137 111/154/138 109/150/134
f 49/151/135 51/155/139 97/156/140 95/152/136
f 65/153/137 67/157/141 113/158/142 111/154/138
f 51/155/139 53/159/143 99/160/144 97/156/140
f 36/104/90 41/137/121 87/140/124 83/105/91
f 67/157/141 37/103/89 86/106/92 113/158/142
f 53/159/143 55/133/117 101/136/120 99/160/144
f 19/161/40 20/162/41 131/163/145 132/164/146
f 20/162/41 21/165/44 133/166/147 131/163/145
f 21/165/44 22/167/71 134/168/148 133/166/147
f 22/167/71 23/169/69 135/170/149 134/168/148
f 23/169/69 24/171/67 136/172/150 135/170/149
f 24/171/67 25/173/65 137/174/151 136/172/150
f 25/173/65 26/175/63 138/176/152 137/174/151
f 26/175/63 27/177/61 139/178/153 138/176/152
f 27/177/61 28/179/59 140/180/154 139/178/153
f 28/179/59 29/181/57 141/182/155 140/180/154
f 29/181/57 30/183/55 142/184/156 141/182/155
f 30/183/55 31/185/53 143/186/157 142/184/156
f 31/185/53 32/187/51 144/188/158 143/186/157
f 32/187/51 33/189/49 145/190/159 144/188/158
f 33/189/49 34/191/37 146/192/160 145/190/159
f 34/191/37 19/161/40 132/164/146 146/192/160
f 84/193/161 85/194/162 86/195/92 83/196/91
f 88/197/163 84/193/161 83/196/91 87/198/124
f 90/199/164 88/197/163 87/198/124 89/200/123
f 92/201/165 90/199/164 89/200/123 91/202/128
f 94/203/166 92/201/165 91/202/128 93/204/132
f 96/205/167 94/203/166 93/204/132 95/206/136
f 98/207/168 96/205/167 95/206/136 97/208/140
f 100/209/169 98/207/168 97/208/140 99/210/144
f 102/211/170 100/209/169 99/210/144 101/212/120
f 104/213/171 102/211/170 101/212/120 103/214/119
f 106/215/172 104/213/171 103/214/119 105/216/126
f 108/217/173 106/215/172 105/216/126 107/218/130
f 110/219/174 108/217/173 107/218/130 109/220/134
f 112/221/175 110/219/174 109/220/134 111/222/138
f 114/223/176 112/221/175 111/222/138 113/224/142
f 85/194/162 114/223/176 113/224/142 86/195/92
f 36/225/90 37/226/89 38/227/46 35/228/45
f 41/229/121 36/225/90 35/228/45 40/230/6
f 43/231/122 41/229/121 40/230/6 42/232/5
f 45/233/127 43/231/122 42/232/5 44/234/93
f 47/235/131 45/233/127 44/234/93 46/236/95
f 49/237/135 47/235/131 46/236/95 48/238/97
f 51/239/139 49/237/135 48/238/97 50/240/99
f 53/241/143 51/239/139 50/240/99 52/242/101
f 55/243/117 53/241/143 52/242/101 54/244/103
f 57/245/118 55/243/117 54/244/103 56/246/105
f 59/247/125 57/245/118 56/246/105 58/248/107
f 61/249/129 59/247/125 58/248/107 60/250/109
f 63/251/133 61/249/129 60/250/109 62/252/111
f 65/253/137 63/251/133 62/252/111 64/254/113
f 67/255/141 65/253/137 64/254/113 66/256/87
f 37/226/89 67/255/141 66/256/87 38/227/46
f 19/40/40 1/39/39 2/42/42 20/41/41
f 17/257/177 115/48/177 116/47/177
f 17/257/177 117/7/177 115/48/177
f 17/257/177 118/8/177 117/7/177
f 17/257/177 119/108/177 118/8/177
f 17/257/177 120/110/177 119/108/177
f 17/257/177 121/112/177 120/110/177
f 17/257/177 122/114/177 121/112/177
f 17/257/177 123/116/177 122/114/177
f 17/257/177 124/118/177 123/116/177
f 17/257/177 125/120/177 124/118/177
f 17/257/177 126/122/177 125/120/177
f 17/257/177 127/124/177 126/122/177
f 17/257/177 128/126/177 127/124/177
f 17/257/177 129/128/177 128/126/177
f 17/257/177 130/102/177 129/128/177
f 17/257/177 116/47/177 130/102/177
f 18/258/178 132/259/146 131/260/145
f 18/258/178 131/260/145 133/261/147
f 18/258/178 133/261/147 134/262/148
f 18/258/178 134/262/148 135/263/149
f 18/258/178 135/263/149 136/264/150
f 18/258/178 136/264/150 137/265/151
f 18/258/178 137/265/151 138/266/152
f 18/258/178 138/266/152 139/267/153
f 18/258/178 139/267/153 140/268/154
f 18/258/178 140/268/154 141/269/155
f 18/258/178 141/269/155 142/270/156
f 18/258/178 142/270/156 143/271/157
f 18/258/178 143/271/157 144/272/158
f 18/258/178 144/272/158 145/273/159
f 18/258/178 145/273/159 146/274/160
f 18/258/178 146/274/160 132/259/146
f 82/131/36 39/129/9 1/130/115 16/132/116
