# Blender v3.4.1 OBJ File: 'Tiny_Treats_Bubbly_Bathroom_1.1_ASSETS_EXPORT.blend'
# www.blender.org
mtllib door_modular.mtl
o door_modular
v 1.600000 0.000000 -0.100000
v 1.600000 -0.000000 0.100000
v -0.000000 0.000000 -0.100000
v 0.000000 -0.000000 0.100000
v 1.600000 2.800000 -0.100000
v 1.600000 2.800000 0.100000
v -0.000000 2.800000 -0.100000
v 0.000000 2.800000 0.100000
v 0.000000 1.120000 0.100000
v -0.000000 1.120000 -0.100000
v 1.600000 1.120000 0.100000
v 1.600000 1.120000 -0.100000
v 0.250000 1.370000 0.100000
v 0.150000 1.270000 0.100000
v 0.203310 1.323310 0.057296
v 1.450000 1.270000 0.100000
v 1.350000 1.370000 0.100000
v 1.396691 1.323310 0.057296
v 1.450000 2.650000 0.100000
v 1.350000 2.550000 0.100000
v 1.396691 2.596690 0.057297
v 0.250000 2.550000 0.100000
v 0.150000 2.650000 0.100000
v 0.203310 2.596690 0.057297
v 0.250000 0.870000 -0.100000
v 0.150000 0.970000 -0.100000
v 0.203309 0.916690 -0.057296
v 1.450000 0.970000 -0.100000
v 1.350000 0.870000 -0.100000
v 1.396690 0.916690 -0.057296
v 1.450000 0.150000 -0.100000
v 1.350000 0.250000 -0.100000
v 1.396690 0.203310 -0.057296
v 0.250000 0.250000 -0.100000
v 0.150000 0.150000 -0.100000
v 0.203310 0.203310 -0.057296
v 0.250000 2.550000 -0.100000
v 0.150000 2.650000 -0.100000
v 0.203309 2.596690 -0.057296
v 1.450000 2.650000 -0.100000
v 1.350000 2.550000 -0.100000
v 1.396690 2.596690 -0.057296
v 1.450000 1.270000 -0.100000
v 1.350000 1.370000 -0.100000
v 1.396690 1.323310 -0.057296
v 0.250000 1.370000 -0.100000
v 0.150000 1.270000 -0.100000
v 0.203309 1.323310 -0.057296
v 0.250000 0.250000 0.100000
v 0.150000 0.150000 0.100000
v 0.203310 0.203310 0.057296
v 1.450000 0.150000 0.100000
v 1.350000 0.250000 0.100000
v 1.396691 0.203310 0.057296
v 1.450000 0.970000 0.100000
v 1.350000 0.870000 0.100000
v 1.396691 0.916690 0.057296
v 0.250000 0.870000 0.100000
v 0.150000 0.970000 0.100000
v 0.203310 0.916690 0.057296
v 1.449706 1.240000 0.100000
v 1.520000 1.169706 0.100000
v 1.520000 1.070294 0.100000
v 1.449706 1.000000 0.100000
v 1.350295 1.000000 0.100000
v 1.280000 1.070294 0.100000
v 1.280000 1.169706 0.100000
v 1.350295 1.240000 0.100000
v 1.439765 1.216000 0.160000
v 1.449706 1.240000 0.136000
v 1.496000 1.159765 0.160000
v 1.520000 1.169706 0.136000
v 1.496000 1.080236 0.160000
v 1.520000 1.070294 0.136000
v 1.439765 1.024000 0.160000
v 1.449706 1.000000 0.136000
v 1.360236 1.024000 0.160000
v 1.350295 1.000000 0.136000
v 1.304000 1.080236 0.160000
v 1.280000 1.070294 0.136000
v 1.304000 1.159765 0.160000
v 1.280000 1.169706 0.136000
v 1.360236 1.216000 0.160000
v 1.350295 1.240000 0.136000
v 1.400000 1.120000 0.160000
v 1.364002 1.060000 0.240059
v 1.330061 1.060000 0.274000
v 1.316002 1.084000 0.250000
v 1.340002 1.084000 0.226000
v 1.316002 1.156000 0.250000
v 1.330061 1.180000 0.274000
v 1.364002 1.180000 0.240059
v 1.340002 1.156000 0.226000
v 1.364002 1.060000 0.130000
v 1.340002 1.084000 0.130000
v 1.364002 1.180000 0.130000
v 1.340002 1.156000 0.130000
v 1.436002 1.060000 0.130000
v 1.460002 1.084000 0.130000
v 1.436002 1.180000 0.130000
v 1.460002 1.156000 0.130000
v 1.436002 1.156000 0.370000
v 1.460002 1.156000 0.346000
v 1.436002 1.180000 0.312059
v 1.402061 1.180000 0.346000
v 1.436002 1.084000 0.370000
v 1.402061 1.060000 0.346000
v 1.436002 1.060000 0.312059
v 1.460002 1.084000 0.346000
v 1.124002 1.084000 0.250000
v 1.124002 1.060000 0.274000
v 1.100002 1.084000 0.274000
v 1.124002 1.156000 0.250000
v 1.100002 1.156000 0.274000
v 1.124002 1.180000 0.274000
v 1.124002 1.084000 0.370000
v 1.100002 1.084000 0.346000
v 1.124002 1.060000 0.346000
v 1.124002 1.156000 0.370000
v 1.124002 1.180000 0.346000
v 1.100002 1.156000 0.346000
v 1.449706 1.240000 -0.099999
v 1.520000 1.169706 -0.099999
v 1.520000 1.070294 -0.099999
v 1.449706 1.000000 -0.100000
v 1.350295 1.000000 -0.100000
v 1.280000 1.070294 -0.099999
v 1.280000 1.169706 -0.099999
v 1.350295 1.240000 -0.099999
v 1.439765 1.216000 -0.159999
v 1.449706 1.240000 -0.135999
v 1.496000 1.159765 -0.159999
v 1.520000 1.169706 -0.135999
v 1.496000 1.080236 -0.159999
v 1.520000 1.070294 -0.135999
v 1.439765 1.024000 -0.159999
v 1.449706 1.000000 -0.136000
v 1.360236 1.024000 -0.159999
v 1.350295 1.000000 -0.136000
v 1.304000 1.080236 -0.159999
v 1.280000 1.070294 -0.135999
v 1.304000 1.159765 -0.159999
v 1.280000 1.169706 -0.135999
v 1.360236 1.216000 -0.159999
v 1.350295 1.240000 -0.135999
v 1.400000 1.120000 -0.159999
v 1.364002 1.060000 -0.240058
v 1.330061 1.060000 -0.274000
v 1.316002 1.084000 -0.249999
v 1.340002 1.084000 -0.225999
v 1.316002 1.156000 -0.249999
v 1.330061 1.180000 -0.273999
v 1.364002 1.180000 -0.240058
v 1.340002 1.156000 -0.225999
v 1.364002 1.060000 -0.130000
v 1.340002 1.084000 -0.129999
v 1.364002 1.180000 -0.129999
v 1.340002 1.156000 -0.129999
v 1.436002 1.060000 -0.130000
v 1.460002 1.084000 -0.129999
v 1.436002 1.180000 -0.129999
v 1.460002 1.156000 -0.129999
v 1.436002 1.156000 -0.369999
v 1.460002 1.156000 -0.346000
v 1.436002 1.180000 -0.312058
v 1.402061 1.180000 -0.346000
v 1.436002 1.084000 -0.370000
v 1.402061 1.060000 -0.346000
v 1.436002 1.060000 -0.312058
v 1.460002 1.084000 -0.346000
v 1.124002 1.084000 -0.249999
v 1.124002 1.060000 -0.274000
v 1.100002 1.084000 -0.274000
v 1.124002 1.156000 -0.249999
v 1.100002 1.156000 -0.273999
v 1.124002 1.180000 -0.273999
v 1.124002 1.084000 -0.370000
v 1.100002 1.084000 -0.346000
v 1.124002 1.060000 -0.346000
v 1.124002 1.156000 -0.369999
v 1.124002 1.180000 -0.346000
v 1.100002 1.156000 -0.346000
vt 0.923263 0.895264
vt 0.923263 0.937096
vt 0.923263 0.937096
vt 0.923263 0.895264
vt 0.963142 0.895264
vt 0.963142 0.895264
vt 0.963142 0.937096
vt 0.963142 0.937096
vt 0.963142 0.867376
vt 0.923263 0.867376
vt 0.923263 0.867376
vt 0.963142 0.867376
vt 0.927001 0.898999
vt 0.927001 0.933361
vt 0.927001 0.891529
vt 0.927001 0.871111
vt 0.927001 0.933361
vt 0.927001 0.898999
vt 0.927001 0.871111
vt 0.927001 0.891529
vt 0.929494 0.901489
vt 0.956911 0.901489
vt 0.956911 0.930871
vt 0.929494 0.930871
vt 0.959403 0.933361
vt 0.959403 0.891529
vt 0.959403 0.898999
vt 0.929494 0.889039
vt 0.956911 0.889039
vt 0.956911 0.873601
vt 0.929494 0.873601
vt 0.959403 0.871111
vt 0.959403 0.933361
vt 0.929494 0.930871
vt 0.956911 0.930871
vt 0.956911 0.901489
vt 0.929494 0.901489
vt 0.959403 0.898999
vt 0.959403 0.871111
vt 0.929494 0.873601
vt 0.956911 0.873601
vt 0.956911 0.889039
vt 0.929494 0.889039
vt 0.959403 0.891529
vt 0.928330 0.900327
vt 0.958075 0.900327
vt 0.928330 0.932034
vt 0.958075 0.932034
vt 0.928330 0.890202
vt 0.958075 0.890202
vt 0.928330 0.872438
vt 0.958075 0.872438
vt 0.928330 0.932034
vt 0.958075 0.932034
vt 0.928330 0.900327
vt 0.958075 0.900327
vt 0.928330 0.872438
vt 0.958075 0.872438
vt 0.928330 0.890202
vt 0.958075 0.890202
vt 0.185529 0.424073
vt 0.185529 0.424073
vt 0.200309 0.424073
vt 0.200309 0.424073
vt 0.210760 0.336367
vt 0.210760 0.336367
vt 0.200309 0.325927
vt 0.200309 0.325927
vt 0.185529 0.325927
vt 0.185529 0.325927
vt 0.175078 0.336367
vt 0.175078 0.336367
vt 0.175078 0.367617
vt 0.175078 0.367617
vt 0.175078 0.382383
vt 0.175078 0.382383
vt 0.175078 0.413633
vt 0.175078 0.413633
vt 0.210760 0.413633
vt 0.210760 0.413633
vt 0.210760 0.382383
vt 0.210760 0.382383
vt 0.210760 0.367617
vt 0.210760 0.367617
vt 0.210760 0.429258
vt 0.200309 0.439698
vt 0.198831 0.436134
vt 0.207192 0.427781
vt 0.207192 0.380906
vt 0.207192 0.369094
vt 0.200309 0.341552
vt 0.210760 0.351992
vt 0.207192 0.353469
vt 0.198831 0.345116
vt 0.185529 0.341552
vt 0.187007 0.345116
vt 0.175078 0.351992
vt 0.178647 0.353469
vt 0.178647 0.369094
vt 0.178647 0.380906
vt 0.185529 0.439698
vt 0.175078 0.429258
vt 0.178647 0.427781
vt 0.187007 0.436134
vt 0.198831 0.389259
vt 0.192919 0.375000
vt 0.187007 0.389259
vt 0.187007 0.360741
vt 0.198831 0.360741
vt 0.180431 0.380347
vt 0.180431 0.369653
vt 0.151886 0.369653
vt 0.151886 0.380347
vt 0.201840 0.380347
vt 0.201840 0.380347
vt 0.201840 0.369653
vt 0.201840 0.369653
vt 0.183999 0.369653
vt 0.183999 0.380347
vt 0.183999 0.380347
vt 0.183999 0.369653
vt 0.193225 0.334838
vt 0.151886 0.334838
vt 0.151886 0.334838
vt 0.182521 0.334838
vt 0.182521 0.415162
vt 0.151886 0.415162
vt 0.151886 0.415162
vt 0.193225 0.415162
vt 0.148318 0.380347
vt 0.148318 0.369653
vt 0.148318 0.369653
vt 0.148318 0.380347
vt 0.187567 0.415162
vt 0.198272 0.415162
vt 0.198272 0.415162
vt 0.187567 0.415162
vt 0.198272 0.380347
vt 0.151886 0.380347
vt 0.151886 0.369653
vt 0.198272 0.369653
vt 0.187567 0.350463
vt 0.182521 0.350463
vt 0.180431 0.354028
vt 0.183999 0.354028
vt 0.180431 0.427222
vt 0.182521 0.430787
vt 0.187567 0.430787
vt 0.183999 0.427222
vt 0.198272 0.427222
vt 0.201840 0.427222
vt 0.198272 0.430787
vt 0.193225 0.430787
vt 0.198272 0.354028
vt 0.193225 0.350463
vt 0.198272 0.350463
vt 0.201840 0.354028
vt 0.151886 0.354028
vt 0.151886 0.350463
vt 0.148318 0.354028
vt 0.151886 0.427222
vt 0.148318 0.427222
vt 0.151886 0.430787
vt 0.151886 0.354028
vt 0.148318 0.354028
vt 0.151886 0.350463
vt 0.151886 0.427222
vt 0.151886 0.430787
vt 0.148318 0.427222
vt 0.187567 0.350463
vt 0.183999 0.354028
vt 0.187567 0.430787
vt 0.183999 0.427222
vt 0.201840 0.354028
vt 0.198272 0.350463
vt 0.201840 0.427222
vt 0.198272 0.430787
vt 0.148318 0.385278
vt 0.148318 0.395972
vt 0.151886 0.395972
vt 0.151886 0.385278
vt 0.151886 0.385278
vt 0.151886 0.395972
vt 0.148318 0.395972
vt 0.148318 0.385278
vt 0.187567 0.334838
vt 0.198272 0.334838
vt 0.198272 0.334838
vt 0.187567 0.334838
vt 0.185529 0.424073
vt 0.200309 0.424073
vt 0.200309 0.424073
vt 0.185529 0.424073
vt 0.210760 0.336367
vt 0.200309 0.325927
vt 0.200309 0.325927
vt 0.210760 0.336367
vt 0.185529 0.325927
vt 0.185529 0.325927
vt 0.175078 0.336367
vt 0.175078 0.336367
vt 0.175078 0.367617
vt 0.175078 0.382383
vt 0.175078 0.382383
vt 0.175078 0.367617
vt 0.175078 0.413633
vt 0.175078 0.413633
vt 0.210760 0.413633
vt 0.210760 0.413633
vt 0.210760 0.382383
vt 0.210760 0.367617
vt 0.210760 0.367617
vt 0.210760 0.382383
vt 0.210760 0.429258
vt 0.207192 0.427781
vt 0.198831 0.436134
vt 0.200309 0.439698
vt 0.207192 0.369094
vt 0.207192 0.380906
vt 0.200309 0.341552
vt 0.198831 0.345116
vt 0.207192 0.353469
vt 0.210760 0.351992
vt 0.185529 0.341552
vt 0.187007 0.345116
vt 0.175078 0.351992
vt 0.178647 0.353469
vt 0.178647 0.380906
vt 0.178647 0.369094
vt 0.185529 0.439698
vt 0.187007 0.436134
vt 0.178647 0.427781
vt 0.175078 0.429258
vt 0.192919 0.375000
vt 0.198831 0.389259
vt 0.187007 0.389259
vt 0.187007 0.360741
vt 0.198831 0.360741
vt 0.180431 0.380347
vt 0.151886 0.380347
vt 0.151886 0.369653
vt 0.180431 0.369653
vt 0.201840 0.380347
vt 0.201840 0.369653
vt 0.201840 0.369653
vt 0.201840 0.380347
vt 0.183999 0.369653
vt 0.183999 0.369653
vt 0.183999 0.380347
vt 0.183999 0.380347
vt 0.193225 0.334838
vt 0.182521 0.334838
vt 0.151886 0.334838
vt 0.151886 0.334838
vt 0.182521 0.415162
vt 0.193225 0.415162
vt 0.151886 0.415162
vt 0.151886 0.415162
vt 0.148318 0.380347
vt 0.148318 0.380347
vt 0.148318 0.369653
vt 0.148318 0.369653
vt 0.187567 0.415162
vt 0.187567 0.415162
vt 0.198272 0.415162
vt 0.198272 0.415162
vt 0.198272 0.380347
vt 0.198272 0.369653
vt 0.151886 0.369653
vt 0.151886 0.380347
vt 0.187567 0.350463
vt 0.183999 0.354028
vt 0.180431 0.354028
vt 0.182521 0.350463
vt 0.180431 0.427222
vt 0.183999 0.427222
vt 0.187567 0.430787
vt 0.182521 0.430787
vt 0.198272 0.427222
vt 0.193225 0.430787
vt 0.198272 0.430787
vt 0.201840 0.427222
vt 0.198272 0.354028
vt 0.201840 0.354028
vt 0.198272 0.350463
vt 0.193225 0.350463
vt 0.151886 0.354028
vt 0.148318 0.354028
vt 0.151886 0.350463
vt 0.151886 0.427222
vt 0.151886 0.430787
vt 0.148318 0.427222
vt 0.151886 0.354028
vt 0.151886 0.350463
vt 0.148318 0.354028
vt 0.151886 0.427222
vt 0.148318 0.427222
vt 0.151886 0.430787
vt 0.187567 0.350463
vt 0.183999 0.354028
vt 0.183999 0.427222
vt 0.187567 0.430787
vt 0.201840 0.354028
vt 0.198272 0.350463
vt 0.198272 0.430787
vt 0.201840 0.427222
vt 0.148318 0.385278
vt 0.151886 0.385278
vt 0.151886 0.395972
vt 0.148318 0.395972
vt 0.151886 0.385278
vt 0.148318 0.385278
vt 0.148318 0.395972
vt 0.151886 0.395972
vt 0.187567 0.334838
vt 0.198272 0.334838
vt 0.198272 0.334838
vt 0.187567 0.334838
vn -1.0000 -0.0000 0.0000
vn 1.0000 0.0000 -0.0000
vn 0.0000 1.0000 0.0000
vn 0.0000 -1.0000 -0.0000
vn 0.0000 -0.0000 1.0000
vn 0.0918 0.0918 0.9915
vn 0.0918 -0.0918 0.9915
vn 0.0000 0.0000 -1.0000
vn 0.0918 -0.0918 -0.9915
vn 0.0918 0.0918 -0.9915
vn -0.2828 -0.2828 0.9166
vn 0.2828 -0.2828 0.9166
vn 0.2828 0.2828 0.9166
vn -0.2828 0.2828 0.9166
vn -0.0918 -0.0918 0.9915
vn -0.0918 -0.0918 -0.9915
vn -0.0918 0.0918 0.9915
vn -0.2828 0.2828 -0.9166
vn 0.2828 0.2828 -0.9166
vn 0.2828 -0.2828 -0.9166
vn -0.2828 -0.2828 -0.9166
vn -0.0918 0.0918 -0.9915
vn 0.0000 -0.6749 0.7379
vn 0.0000 0.6252 0.7805
vn 0.6252 -0.0000 0.7805
vn -0.6749 -0.0000 0.7379
vn 0.6749 -0.0000 0.7379
vn -0.6252 -0.0000 0.7805
vn 0.0000 -0.6252 0.7805
vn 0.0000 0.6749 0.7379
vn 0.0000 0.6749 -0.7379
vn 0.0000 -0.6252 -0.7805
vn 0.6252 0.0000 -0.7805
vn -0.6749 0.0000 -0.7379
vn 0.6749 0.0000 -0.7379
vn -0.6252 0.0000 -0.7805
vn 0.0000 0.6252 -0.7805
vn 0.0000 -0.6749 -0.7379
vn -0.3827 0.9239 0.0000
vn 0.9239 -0.3827 0.0000
vn 0.3557 -0.8587 0.3689
vn 0.3827 -0.9239 0.0000
vn -0.3557 -0.8587 0.3689
vn -0.7071 -0.7071 0.0000
vn -0.8587 -0.3557 0.3689
vn -0.9239 -0.3827 0.0000
vn -0.7071 0.7071 0.0000
vn 0.7071 0.7071 0.0000
vn 0.9239 0.3827 0.0000
vn 0.6269 0.2597 0.7345
vn 0.2597 0.6269 0.7345
vn 0.1675 0.4044 0.8991
vn 0.4044 0.1675 0.8991
vn 0.6269 -0.2597 0.7345
vn 0.4044 -0.1675 0.8991
vn 0.1675 -0.4044 0.8991
vn -0.2597 -0.6269 0.7345
vn -0.4044 -0.1675 0.8991
vn -0.6269 0.2597 0.7345
vn -0.4044 0.1675 0.8991
vn -0.2597 0.6269 0.7345
vn -0.1675 0.4044 0.8991
vn -0.3827 0.0000 -0.9239
vn 0.8218 0.4349 0.3681
vn 0.9239 -0.0000 0.3827
vn -0.8013 -0.5719 -0.1755
vn -0.8013 0.5719 -0.1755
vn -0.9239 0.3827 0.0000
vn 0.0892 -0.9202 0.3812
vn -0.3416 -0.8756 -0.3416
vn -0.1079 -0.9631 -0.2465
vn -0.1079 0.9631 -0.2465
vn -0.3416 0.8756 -0.3416
vn -0.3416 0.8756 0.3416
vn 0.0892 0.9202 0.3812
vn -0.8756 0.3416 -0.3416
vn -0.8756 -0.3416 -0.3416
vn -0.8756 -0.3416 0.3416
vn -0.8756 0.3416 0.3416
vn -0.2465 0.9631 -0.1079
vn 0.3812 0.9202 0.0892
vn -0.3416 -0.3416 0.8756
vn 0.1770 -0.5873 0.7898
vn -0.2465 -0.9631 -0.1079
vn -0.2308 -0.7523 -0.6171
vn -0.2308 0.7523 -0.6171
vn 0.2528 0.8391 0.4816
vn 0.3812 -0.9202 0.0892
vn 0.4816 -0.8391 0.2528
vn -0.4606 -0.4606 -0.7588
vn -0.4606 0.4606 -0.7588
vn -0.4606 -0.7588 0.4606
vn -0.4606 0.4606 0.7588
vn -0.7071 0.0000 -0.7071
vn 0.7071 -0.0000 0.7071
vn 0.7071 -0.7071 0.0000
vn 0.3827 0.9239 0.0000
vn 0.3557 0.8587 -0.3689
vn -0.3557 0.8587 -0.3689
vn -0.3827 -0.9239 0.0000
vn -0.3557 -0.8587 -0.3689
vn 0.1752 -0.8508 -0.4954
vn -0.7255 -0.4778 -0.4954
vn 0.6269 0.2597 -0.7345
vn 0.4044 0.1675 -0.8991
vn 0.1675 0.4044 -0.8991
vn 0.6269 -0.2597 -0.7345
vn 0.4044 -0.1675 -0.8991
vn 0.1675 -0.4044 -0.8991
vn -0.2597 -0.6269 -0.7345
vn -0.4044 -0.1675 -0.8991
vn -0.6269 0.2597 -0.7345
vn -0.4044 0.1675 -0.8991
vn -0.1675 0.4044 -0.8991
vn -0.3827 0.0000 0.9239
vn 0.8218 -0.4349 -0.3681
vn 0.9239 0.0000 -0.3827
vn -0.8013 0.5719 0.1755
vn 0.0892 -0.9202 -0.3812
vn -0.1079 -0.9631 0.2465
vn -0.3416 -0.8756 0.3416
vn -0.1079 0.9631 0.2465
vn 0.0892 0.9202 -0.3812
vn -0.2465 0.9631 0.1079
vn 0.3812 0.9202 -0.0892
vn -0.2465 -0.9631 0.1079
vn -0.6171 -0.7523 0.2308
vn -0.2308 -0.7523 0.6171
vn -0.2308 0.7523 0.6171
vn 0.2528 0.8391 -0.4816
vn 0.4816 0.8391 -0.2528
vn 0.2528 -0.8391 -0.4816
vn 0.3812 -0.9202 -0.0892
vn -0.4606 -0.4606 0.7588
vn -0.4606 -0.7588 -0.4606
vn -0.7071 0.0000 0.7071
vn 0.7071 0.0000 -0.7071
usemtl tiny_treats_1
s 1
f 9/1/1 8/2/1 7/3/1 10/4/1
f 11/5/2 12/6/2 5/7/2 6/8/2
f 6/8/3 5/7/3 7/3/3 8/2/3
f 2/9/4 4/10/4 3/11/4 1/12/4
f 8/2/5 9/1/5 14/13/6 23/14/7
f 3/11/8 10/4/8 26/15/9 35/16/10
f 10/4/8 7/3/8 38/17/9 47/18/10
f 9/1/5 4/10/5 50/19/6 59/20/7
f 2/9/2 1/12/2 12/6/2 11/5/2
f 4/10/1 9/1/1 10/4/1 3/11/1
f 13/21/11 17/22/12 20/23/13 22/24/14
f 6/8/5 8/2/5 23/14/7 19/25/15
f 10/4/8 12/6/8 28/26/16 26/15/9
f 11/5/5 6/8/5 19/25/15 16/27/17
f 25/28/18 29/29/19 32/30/20 34/31/21
f 1/12/8 3/11/8 35/16/10 31/32/22
f 7/3/8 5/7/8 40/33/16 38/17/9
f 12/6/8 1/12/8 31/32/22 28/26/16
f 37/34/18 41/35/19 44/36/20 46/37/21
f 12/6/8 10/4/8 47/18/10 43/38/22
f 4/10/5 2/9/5 52/39/17 50/19/6
f 5/7/8 12/6/8 43/38/22 40/33/16
f 49/40/11 53/41/12 56/42/13 58/43/14
f 11/5/5 9/1/5 59/20/7 55/44/15
f 2/9/5 11/5/5 55/44/15 52/39/17
f 17/22/12 13/21/11 15/45/23 18/46/23
f 18/46/24 15/45/24 14/13/6 16/27/17
f 23/14/7 14/13/6 15/45/25 24/47/25
f 24/47/26 15/45/26 13/21/11 22/24/14
f 20/23/13 17/22/12 18/46/27 21/48/27
f 21/48/28 18/46/28 16/27/17 19/25/15
f 19/25/15 23/14/7 24/47/29 21/48/29
f 21/48/30 24/47/30 22/24/14 20/23/13
f 29/29/19 25/28/18 27/49/31 30/50/31
f 30/50/32 27/49/32 26/15/9 28/26/16
f 35/16/10 26/15/9 27/49/33 36/51/33
f 36/51/34 27/49/34 25/28/18 34/31/21
f 32/30/20 29/29/19 30/50/35 33/52/35
f 33/52/36 30/50/36 28/26/16 31/32/22
f 31/32/22 35/16/10 36/51/37 33/52/37
f 33/52/38 36/51/38 34/31/21 32/30/20
f 41/35/19 37/34/18 39/53/31 42/54/31
f 42/54/32 39/53/32 38/17/9 40/33/16
f 47/18/10 38/17/9 39/53/33 48/55/33
f 48/55/34 39/53/34 37/34/18 46/37/21
f 44/36/20 41/35/19 42/54/35 45/56/35
f 45/56/36 42/54/36 40/33/16 43/38/22
f 43/38/22 47/18/10 48/55/37 45/56/37
f 45/56/38 48/55/38 46/37/21 44/36/20
f 53/41/12 49/40/11 51/57/23 54/58/23
f 54/58/24 51/57/24 50/19/6 52/39/17
f 59/20/7 50/19/6 51/57/25 60/59/25
f 60/59/26 51/57/26 49/40/11 58/43/14
f 56/42/13 53/41/12 54/58/27 57/60/27
f 57/60/28 54/58/28 52/39/17 55/44/15
f 55/44/15 59/20/7 60/59/29 57/60/29
f 57/60/30 60/59/30 58/43/14 56/42/13
f 9/1/5 11/5/5 16/27/17 14/13/6
f 68/61/39 84/62/39 70/63/3 61/64/3
f 63/65/40 74/66/40 76/67/41 64/68/42
f 64/68/42 76/67/41 78/69/43 65/70/4
f 65/70/44 78/69/43 80/71/45 66/72/46
f 66/73/46 80/74/45 82/75/1 67/76/1
f 67/77/47 82/78/47 84/62/39 68/61/39
f 61/64/48 70/63/48 72/79/49 62/80/49
f 62/81/49 72/82/49 74/83/40 63/84/40
f 72/85/50 70/86/51 69/87/52 71/88/53
f 74/83/54 72/82/50 71/89/53 73/90/55
f 76/91/41 74/92/54 73/93/55 75/94/56
f 78/95/43 76/91/41 75/94/56 77/96/57
f 80/97/45 78/95/43 77/96/57 79/98/58
f 82/75/59 80/74/45 79/99/58 81/100/60
f 84/101/61 82/102/59 81/103/60 83/104/62
f 70/86/51 84/101/61 83/104/62 69/87/52
f 71/89/53 69/105/52 85/106/5
f 69/105/52 83/107/62 85/106/5
f 83/107/62 81/100/60 85/106/5
f 81/100/60 79/99/58 85/106/5
f 79/99/58 77/108/5 85/106/5
f 77/108/5 75/109/56 85/106/5
f 75/109/56 73/90/55 85/106/5
f 73/90/55 71/89/53 85/106/5
f 90/110/63 88/111/63 110/112/8 113/113/8
f 101/114/49 103/115/64 109/116/65 99/117/2
f 89/118/66 93/119/67 97/120/68 95/121/46
f 107/122/69 118/123/4 111/124/70 87/125/71
f 91/126/72 115/127/73 120/128/74 105/129/75
f 114/130/76 112/131/77 117/132/78 121/133/79
f 92/134/80 104/135/81 100/136/3 96/137/3
f 102/138/5 119/139/5 116/140/82 106/141/83
f 86/142/84 87/143/71 88/144/85 89/145/66
f 90/146/86 91/147/72 92/148/80 93/149/67
f 102/150/87 103/151/64 104/152/81 105/153/75
f 106/154/83 107/155/69 108/156/88 109/157/89
f 110/158/90 111/159/70 112/160/77
f 113/161/91 114/162/76 115/163/73
f 116/164/82 117/165/78 118/166/92
f 119/167/93 120/168/74 121/169/79
f 94/170/44 86/142/84 89/145/66 95/171/46
f 88/111/63 90/110/63 93/119/94 89/118/94
f 92/148/80 96/172/47 97/173/68 93/149/67
f 102/138/95 106/141/95 109/116/65 103/115/64
f 99/174/96 109/157/89 108/156/88 98/175/42
f 103/151/64 101/176/49 100/177/48 104/152/81
f 112/178/77 114/179/76 113/180/91 110/181/90
f 116/182/82 119/183/93 121/184/79 117/185/78
f 111/159/70 118/166/92 117/165/78 112/160/77
f 120/168/74 115/163/73 114/162/76 121/169/79
f 87/143/71 111/159/70 110/158/90 88/144/85
f 115/163/73 91/147/72 90/146/86 113/161/91
f 105/153/75 120/168/74 119/167/93 102/150/87
f 118/166/92 107/155/69 106/154/83 116/164/82
f 91/126/72 105/129/75 104/135/81 92/134/80
f 86/186/84 108/187/88 107/122/69 87/125/71
f 98/188/42 108/187/88 86/186/84 94/189/4
f 129/190/39 122/191/97 131/192/98 145/193/99
f 124/194/40 125/195/96 137/196/96 135/197/40
f 125/195/4 126/198/100 139/199/101 137/196/102
f 126/198/100 127/200/44 141/201/103 139/199/101
f 127/202/1 128/203/1 143/204/1 141/205/1
f 128/206/47 129/190/39 145/193/99 143/207/47
f 122/191/97 123/208/48 133/209/48 131/192/98
f 123/210/2 124/211/40 135/212/40 133/213/2
f 133/214/104 132/215/105 130/216/106 131/217/98
f 135/212/107 134/218/108 132/219/105 133/213/104
f 137/220/102 136/221/109 134/222/108 135/223/107
f 139/224/101 138/225/110 136/221/109 137/220/102
f 141/226/103 140/227/111 138/225/110 139/224/101
f 143/204/112 142/228/113 140/229/111 141/205/103
f 145/230/99 144/231/114 142/232/113 143/233/112
f 131/217/98 130/216/106 144/231/114 145/230/99
f 132/219/105 146/234/8 130/235/106
f 130/235/106 146/234/8 144/236/114
f 144/236/114 146/234/8 142/228/113
f 142/228/113 146/234/8 140/229/111
f 140/229/111 146/234/8 138/237/8
f 138/237/8 146/234/8 136/238/109
f 136/238/109 146/234/8 134/218/108
f 134/218/108 146/234/8 132/219/105
f 151/239/115 174/240/5 171/241/5 149/242/115
f 162/243/2 160/244/40 170/245/116 164/246/117
f 150/247/1 156/248/1 158/249/68 154/250/118
f 168/251/119 148/252/120 172/253/121 179/254/4
f 152/255/122 166/256/123 181/257/73 176/258/74
f 175/259/79 182/260/76 178/261/77 173/262/78
f 153/263/124 157/264/3 161/265/3 165/266/125
f 163/267/8 167/268/8 177/269/8 180/270/8
f 147/271/126 150/272/127 149/273/128 148/274/120
f 151/275/129 154/276/118 153/277/124 152/278/122
f 163/279/130 166/280/123 165/281/125 164/282/131
f 167/283/132 170/284/116 169/285/133 168/286/119
f 171/287/134 173/288/78 172/289/121
f 174/290/93 176/291/74 175/292/79
f 177/293/90 179/294/135 178/295/77
f 180/296/91 182/297/76 181/298/73
f 155/299/100 156/300/44 150/272/127 147/271/126
f 149/242/115 150/247/136 154/250/136 151/239/115
f 153/277/124 154/276/118 158/301/68 157/302/47
f 163/267/137 164/246/117 170/245/116 167/268/137
f 160/303/40 159/304/96 169/285/133 170/284/116
f 164/282/131 165/281/125 161/305/48 162/306/48
f 173/307/78 171/308/134 174/309/93 175/310/79
f 177/311/90 178/312/77 182/313/76 180/314/91
f 172/289/121 173/288/78 178/295/77 179/294/135
f 181/298/73 182/297/76 175/292/79 176/291/74
f 148/274/120 149/273/128 171/287/134 172/289/121
f 176/291/74 174/290/93 151/275/129 152/278/122
f 166/280/123 163/279/130 180/296/91 181/298/73
f 179/294/135 177/293/90 167/283/132 168/286/119
f 152/255/122 153/263/124 165/266/125 166/256/123
f 147/315/126 148/252/120 168/251/119 169/316/133
f 159/317/4 155/318/100 147/315/126 169/316/133
