# Blender v3.4.1 OBJ File: 'Tiny_Treats_Bubbly_Bathroom_1.1_ASSETS_EXPORT.blend'
# www.blender.org
mtllib toilet_lid.mtl
o toilet_lid
v -0.003155 0.785163 0.420859
v 0.092676 0.415833 0.430983
v 0.091013 0.425357 0.452458
v 0.187400 0.420762 0.430983
v 0.184138 0.430293 0.452458
v 0.266572 0.438398 0.430983
v 0.262122 0.447838 0.452458
v 0.323813 0.470736 0.430983
v 0.318702 0.480130 0.452458
v 0.354564 0.654109 0.430983
v 0.347977 0.656242 0.452458
v 0.356400 0.788618 0.430983
v 0.349414 0.788030 0.452458
v 0.329177 0.928816 0.430983
v 0.322518 0.925401 0.452458
v 0.275039 1.051862 0.430983
v 0.269357 1.045992 0.452458
v 0.198293 1.141391 0.430983
v 0.194098 1.133761 0.452458
v 0.105114 1.194164 0.430983
v 0.102838 1.185460 0.452458
v -0.003414 1.213730 0.430983
v -0.003410 1.204623 0.452458
v 0.003069 0.416582 0.430983
v 0.002960 0.426066 0.452458
v -0.099504 0.415833 0.430983
v -0.097834 0.425357 0.452458
v -0.194227 0.420762 0.430983
v -0.190959 0.430292 0.452458
v -0.273399 0.438398 0.430983
v -0.268944 0.447837 0.452458
v -0.330640 0.470736 0.430983
v -0.325524 0.480129 0.452458
v -0.361391 0.654109 0.430983
v -0.354800 0.656242 0.452458
v -0.363227 0.788618 0.430983
v -0.356237 0.788030 0.452458
v -0.336004 0.928816 0.430983
v -0.329341 0.925402 0.452458
v -0.281866 1.051862 0.430983
v -0.276179 1.045994 0.452458
v -0.205120 1.141391 0.430983
v -0.200919 1.133763 0.452458
v -0.111941 1.194164 0.430983
v -0.109658 1.185461 0.452458
v 0.086997 0.448351 0.360119
v 0.091013 0.425357 0.369014
v 0.176262 0.453301 0.360119
v 0.184138 0.430293 0.369014
v 0.251380 0.470628 0.360119
v 0.262122 0.447838 0.369014
v 0.306363 0.502810 0.360119
v 0.318702 0.480130 0.369014
v 0.332074 0.661393 0.360119
v 0.347977 0.656242 0.369014
v 0.332548 0.786610 0.360119
v 0.349414 0.788030 0.369014
v 0.306443 0.917157 0.360119
v 0.322518 0.925401 0.369014
v 0.255641 1.031821 0.360119
v 0.269357 1.045992 0.369015
v 0.183972 1.115340 0.360119
v 0.194098 1.133761 0.369014
v 0.097344 1.164448 0.360119
v 0.102838 1.185460 0.369014
v -0.003401 1.182637 0.360119
v -0.003410 1.204623 0.369014
v -0.003155 0.785985 0.360119
v 0.002696 0.448961 0.360119
v 0.002960 0.426066 0.369014
v -0.093804 0.448350 0.360119
v -0.097834 0.425357 0.369014
v -0.183069 0.453299 0.360119
v -0.190959 0.430292 0.369014
v -0.258189 0.470625 0.360119
v -0.268944 0.447837 0.369014
v -0.313174 0.502807 0.360119
v -0.325524 0.480129 0.369014
v -0.338886 0.661390 0.360119
v -0.354800 0.656242 0.369014
v -0.339361 0.786611 0.360119
v -0.356237 0.788030 0.369014
v -0.313255 0.917161 0.360119
v -0.329341 0.925402 0.369014
v -0.262449 1.031826 0.360119
v -0.276179 1.045994 0.369015
v -0.190777 1.115346 0.360119
v -0.200919 1.133763 0.369014
v -0.104147 1.164451 0.360119
v -0.109658 1.185461 0.369014
v 0.121665 0.562795 0.360119
v 0.059751 0.554357 0.360119
v 0.172602 0.587761 0.360119
v 0.208584 0.632537 0.360119
v 0.237406 0.692052 0.360119
v 0.238981 0.778735 0.360119
v 0.220630 0.873150 0.360119
v 0.184172 0.957980 0.360119
v 0.132694 1.022062 0.360119
v 0.069898 1.059474 0.360119
v -0.003358 1.072526 0.360119
v 0.000902 0.554702 0.360119
v -0.066459 0.554359 0.360119
v -0.128373 0.562798 0.360119
v -0.179307 0.587765 0.360119
v -0.215288 0.632541 0.360119
v -0.244109 0.692055 0.360119
v -0.245684 0.778734 0.360119
v -0.227335 0.873145 0.360119
v -0.190880 0.957973 0.360119
v -0.139406 1.022055 0.360119
v -0.076612 1.059470 0.360119
v 0.066048 0.532902 0.416810
v 0.074137 0.500798 0.465402
v 0.149563 0.511039 0.465402
v 0.134220 0.542083 0.416810
v 0.210368 0.540716 0.465402
v 0.190359 0.569471 0.416810
v 0.252433 0.592765 0.465402
v 0.230036 0.618730 0.416810
v 0.291760 0.673611 0.465402
v 0.261809 0.684263 0.416810
v 0.293740 0.781333 0.465402
v 0.263583 0.779739 0.416810
v 0.271131 0.897047 0.465402
v 0.243463 0.883784 0.416810
v 0.226503 1.000342 0.465402
v 0.203417 0.977393 0.416810
v 0.163698 1.078147 0.465402
v 0.146756 1.048244 0.416810
v 0.086679 1.123828 0.465402
v 0.077500 1.089683 0.416810
v -0.003390 1.139812 0.465402
v -0.003380 1.104151 0.416810
v -0.072799 0.532901 0.416810
v -0.080913 0.500800 0.465402
v 0.001842 0.501228 0.465402
v 0.001307 0.533322 0.416810
v -0.140972 0.542081 0.416810
v -0.156336 0.511044 0.465402
v -0.197113 0.569468 0.416810
v -0.217138 0.540722 0.465402
v -0.236791 0.618728 0.416810
v -0.259200 0.592771 0.465402
v -0.268565 0.684262 0.416810
v -0.298525 0.673615 0.465402
v -0.270339 0.779737 0.416810
v -0.300505 0.781331 0.465402
v -0.250220 0.883783 0.416810
v -0.277899 0.897040 0.465402
v -0.210175 0.977392 0.416810
v -0.233275 1.000333 0.465402
v -0.153514 1.048243 0.416810
v -0.170474 1.078139 0.465402
v -0.084259 1.089682 0.416810
v -0.093459 1.123824 0.465402
vt 0.437529 0.908583
vt 0.429755 0.909035
vt 0.438027 0.909035
vt 0.454576 0.934861
vt 0.458435 0.936306
vt 0.467141 0.936306
vt 0.461364 0.934861
vt 0.416566 0.914370
vt 0.426961 0.914370
vt 0.426774 0.907453
vt 0.416201 0.907453
vt 0.462509 0.915363
vt 0.458439 0.915363
vt 0.466417 0.915363
vt 0.472088 0.915363
vt 0.445684 0.915363
vt 0.437506 0.915363
vt 0.437502 0.915363
vt 0.448747 0.915363
vt 0.429329 0.915363
vt 0.426256 0.915363
vt 0.438182 0.915363
vt 0.437982 0.915363
vt 0.444551 0.915363
vt 0.447592 0.915363
vt 0.457148 0.915363
vt 0.461164 0.915363
vt 0.472079 0.915363
vt 0.465941 0.915363
vt 0.464382 0.915363
vt 0.474949 0.915363
vt 0.464557 0.915363
vt 0.475002 0.915363
vt 0.452693 0.915363
vt 0.458417 0.915363
vt 0.451462 0.915363
vt 0.457556 0.915363
vt 0.412505 0.915363
vt 0.402914 0.915363
vt 0.408585 0.915363
vt 0.416574 0.915363
vt 0.427410 0.915363
vt 0.430463 0.915363
vt 0.417446 0.915363
vt 0.423552 0.915363
vt 0.409061 0.915363
vt 0.417866 0.915363
vt 0.402923 0.915363
vt 0.413850 0.915363
vt 0.400053 0.915363
vt 0.410633 0.915363
vt 0.400000 0.915363
vt 0.410457 0.915363
vt 0.422320 0.915363
vt 0.416586 0.915363
vt 0.467106 0.909035
vt 0.467304 0.909035
vt 0.465058 0.909035
vt 0.473456 0.914370
vt 0.476724 0.914370
vt 0.477459 0.907453
vt 0.474027 0.907453
vt 0.460588 0.909035
vt 0.422145 0.909035
vt 0.476884 0.914370
vt 0.477664 0.907453
vt 0.454263 0.909035
vt 0.428849 0.934861
vt 0.420430 0.934861
vt 0.416566 0.936306
vt 0.426961 0.936306
vt 0.473882 0.914370
vt 0.474626 0.907453
vt 0.446532 0.909035
vt 0.411450 0.909035
vt 0.415879 0.909035
vt 0.467948 0.914370
vt 0.468582 0.907453
vt 0.407861 0.914370
vt 0.407363 0.907453
vt 0.437504 0.909035
vt 0.407903 0.909035
vt 0.459547 0.914370
vt 0.460016 0.907453
vt 0.401545 0.914370
vt 0.400974 0.907453
vt 0.428476 0.909035
vt 0.407705 0.909035
vt 0.449361 0.914370
vt 0.449615 0.907453
vt 0.398277 0.914370
vt 0.397541 0.907453
vt 0.409951 0.909035
vt 0.437501 0.914370
vt 0.437500 0.907453
vt 0.398116 0.914370
vt 0.397336 0.907453
vt 0.414421 0.909035
vt 0.438212 0.914370
vt 0.438224 0.907453
vt 0.401119 0.914370
vt 0.400375 0.907453
vt 0.420745 0.909035
vt 0.448041 0.914370
vt 0.448226 0.907453
vt 0.407053 0.914370
vt 0.406418 0.907453
vt 0.445254 0.909035
vt 0.415454 0.914370
vt 0.414985 0.907453
vt 0.467141 0.914370
vt 0.467637 0.907453
vt 0.459130 0.909035
vt 0.463559 0.909035
vt 0.425641 0.914370
vt 0.425386 0.907453
vt 0.458435 0.914370
vt 0.458800 0.907453
vt 0.448226 0.938703
vt 0.458800 0.938703
vt 0.448041 0.936306
vt 0.467637 0.938703
vt 0.473456 0.936306
vt 0.466059 0.934861
vt 0.474027 0.938703
vt 0.476724 0.936306
vt 0.470449 0.934861
vt 0.477459 0.938703
vt 0.476884 0.936306
vt 0.470670 0.934861
vt 0.477664 0.938703
vt 0.473882 0.936306
vt 0.468146 0.934861
vt 0.474626 0.938703
vt 0.467948 0.936306
vt 0.463165 0.934861
vt 0.468582 0.938703
vt 0.459547 0.936306
vt 0.456154 0.934861
vt 0.460016 0.938703
vt 0.449361 0.936306
vt 0.447557 0.934861
vt 0.449615 0.938703
vt 0.437501 0.936306
vt 0.437503 0.934861
vt 0.437500 0.938703
vt 0.438212 0.936306
vt 0.438087 0.934861
vt 0.426774 0.938703
vt 0.438224 0.938703
vt 0.413643 0.934861
vt 0.407861 0.936306
vt 0.416201 0.938703
vt 0.408948 0.934861
vt 0.401545 0.936306
vt 0.407363 0.938703
vt 0.404559 0.934861
vt 0.398277 0.936306
vt 0.400974 0.938703
vt 0.404337 0.934861
vt 0.398116 0.936306
vt 0.397541 0.938703
vt 0.406861 0.934861
vt 0.401119 0.936306
vt 0.397336 0.938703
vt 0.411842 0.934861
vt 0.407053 0.936306
vt 0.400375 0.938703
vt 0.418852 0.934861
vt 0.415454 0.936306
vt 0.406418 0.938703
vt 0.427449 0.934861
vt 0.425641 0.936306
vt 0.414985 0.938703
vt 0.425386 0.938703
vt 0.446157 0.934861
vt 0.437529 0.915363
vt 0.452864 0.909035
vt 0.446157 0.919236
vt 0.454576 0.919236
vt 0.452864 0.924660
vt 0.445254 0.924660
vt 0.461364 0.919236
vt 0.459130 0.924660
vt 0.466059 0.919236
vt 0.463559 0.924660
vt 0.470449 0.919236
vt 0.467106 0.924660
vt 0.470670 0.919236
vt 0.467304 0.924660
vt 0.468146 0.919236
vt 0.465058 0.924660
vt 0.463165 0.919236
vt 0.460588 0.924660
vt 0.456154 0.919236
vt 0.454263 0.924660
vt 0.447557 0.919236
vt 0.446532 0.924660
vt 0.437503 0.919236
vt 0.437504 0.924660
vt 0.428849 0.919236
vt 0.438087 0.919236
vt 0.438027 0.924660
vt 0.429755 0.924660
vt 0.420430 0.919236
vt 0.422145 0.924660
vt 0.413643 0.919236
vt 0.415879 0.924660
vt 0.408948 0.919236
vt 0.411450 0.924660
vt 0.404559 0.919236
vt 0.407903 0.924660
vt 0.404337 0.919236
vt 0.407705 0.924660
vt 0.406861 0.919236
vt 0.409951 0.924660
vt 0.411842 0.919236
vt 0.414421 0.924660
vt 0.418852 0.919236
vt 0.420745 0.924660
vt 0.427449 0.919236
vt 0.428476 0.924660
vn 0.0000 -0.0007 1.0000
vn -0.0011 -0.0157 0.9999
vn -0.0000 -0.0161 0.9999
vn 0.0278 -0.1437 0.9892
vn 0.0875 -0.6078 0.7892
vn 0.2260 -0.5646 0.7938
vn 0.0587 -0.1033 0.9929
vn -0.1326 -0.9785 -0.1578
vn -0.0219 -0.9880 -0.1527
vn -0.0232 -0.9910 0.1320
vn -0.1375 -0.9813 0.1345
vn -0.0000 0.0000 -1.0000
vn 0.2029 0.1214 -0.9717
vn 0.2357 0.0712 -0.9692
vn 0.0000 0.2117 -0.9773
vn 0.0748 0.2003 -0.9769
vn -0.0748 0.2003 -0.9769
vn -0.0001 -0.1832 -0.9831
vn 0.0038 -0.1862 -0.9825
vn 0.2324 -0.1042 -0.9670
vn 0.0661 -0.1725 -0.9828
vn 0.2572 -0.0196 -0.9661
vn 0.2540 0.0237 -0.9669
vn 0.1462 0.1698 -0.9746
vn 0.0239 -0.1853 -0.9824
vn -0.2356 0.0711 -0.9692
vn -0.2028 0.1213 -0.9717
vn -0.0039 -0.1861 -0.9825
vn -0.0239 -0.1853 -0.9824
vn -0.0661 -0.1725 -0.9828
vn -0.2323 -0.1042 -0.9670
vn -0.2571 -0.0195 -0.9662
vn -0.2539 0.0237 -0.9669
vn -0.1461 0.1698 -0.9746
vn 0.0139 -0.0036 0.9999
vn 0.0152 0.0012 0.9999
vn 0.0146 0.0046 0.9999
vn 0.6721 -0.4711 -0.5713
vn 0.8340 -0.0755 -0.5465
vn 0.9911 -0.0906 0.0972
vn 0.7941 -0.5946 0.1263
vn 0.0124 0.0077 0.9999
vn -0.0046 -0.0141 0.9999
vn 0.8321 0.0757 -0.5495
vn 0.9910 0.0894 0.0994
vn 0.0087 0.0104 0.9999
vn -0.0059 -0.1647 0.9863
vn -0.0278 -0.1437 0.9892
vn -0.0875 -0.6078 0.7892
vn -0.0155 -0.6169 0.7869
vn 0.7903 0.2496 -0.5596
vn 0.9483 0.2998 0.1041
vn 0.0044 0.0121 0.9999
vn -0.0119 -0.0076 0.9999
vn -0.0088 -0.0109 0.9999
vn 0.6940 0.4397 -0.5701
vn 0.8384 0.5337 0.1107
vn -0.3540 -0.9204 -0.1661
vn -0.3582 -0.9233 0.1385
vn -0.0000 0.0127 0.9999
vn -0.0139 -0.0035 0.9999
vn 0.5158 0.6294 -0.5812
vn 0.6274 0.7698 0.1176
vn -0.6721 -0.4711 -0.5713
vn -0.7941 -0.5945 0.1264
vn -0.0044 0.0121 0.9999
vn -0.0152 0.0012 0.9999
vn 0.2737 0.7593 -0.5904
vn 0.3352 0.9342 0.1222
vn -0.8340 -0.0754 -0.5466
vn -0.9911 -0.0906 0.0973
vn -0.0146 0.0046 0.9999
vn -0.0000 0.8059 -0.5920
vn -0.0000 0.9923 0.1236
vn -0.8320 0.0756 -0.5496
vn -0.9910 0.0894 0.0995
vn -0.0124 0.0077 0.9999
vn -0.0005 -0.9885 -0.1515
vn -0.0005 -0.9913 0.1320
vn -0.7903 0.2495 -0.5597
vn -0.9483 0.2998 0.1041
vn -0.0087 0.0104 0.9999
vn 0.0214 -0.9880 -0.1527
vn 0.0227 -0.9910 0.1320
vn -0.6939 0.4397 -0.5702
vn -0.8384 0.5337 0.1107
vn 0.0011 -0.0157 0.9999
vn -0.5158 0.6294 -0.5813
vn -0.6274 0.7698 0.1176
vn 0.3540 -0.9204 -0.1661
vn 0.3582 -0.9233 0.1385
vn 0.0088 -0.0109 0.9999
vn 0.0119 -0.0076 0.9999
vn -0.2737 0.7593 -0.5904
vn -0.3352 0.9342 0.1222
vn 0.1326 -0.9785 -0.1578
vn 0.1375 -0.9813 0.1345
vn 0.0152 -0.6170 0.7868
vn 0.5752 -0.3541 0.7374
vn 0.1299 -0.0581 0.9898
vn 0.6764 -0.0636 0.7338
vn 0.1950 -0.0226 0.9805
vn 0.6893 0.0624 0.7218
vn 0.2234 0.0196 0.9745
vn 0.6553 0.2043 0.7272
vn 0.2119 0.0627 0.9753
vn 0.5772 0.3596 0.7331
vn 0.1832 0.1069 0.9772
vn 0.4296 0.5162 0.7409
vn 0.1347 0.1524 0.9791
vn 0.2269 0.6228 0.7488
vn 0.0703 0.1855 0.9801
vn 0.0000 0.6614 0.7501
vn 0.0000 0.1963 0.9806
vn -0.0003 -0.6136 0.7896
vn -0.0001 -0.1695 0.9855
vn -0.0587 -0.1033 0.9929
vn -0.2260 -0.5646 0.7938
vn -0.1298 -0.0580 0.9898
vn -0.5752 -0.3541 0.7374
vn -0.1948 -0.0226 0.9806
vn -0.6763 -0.0636 0.7339
vn -0.2231 0.0196 0.9746
vn -0.6891 0.0624 0.7220
vn -0.2117 0.0626 0.9753
vn -0.6551 0.2043 0.7274
vn -0.1831 0.1068 0.9773
vn -0.5771 0.3595 0.7332
vn -0.1347 0.1523 0.9791
vn -0.4295 0.5162 0.7410
vn -0.0703 0.1855 0.9801
vn -0.2269 0.6227 0.7488
vn 0.0058 -0.1647 0.9863
vn 0.0512 -0.3440 -0.9376
vn 0.0093 -0.3588 -0.9334
vn 0.1228 -0.3091 -0.9431
vn -0.0002 -0.3617 -0.9323
vn -0.0094 -0.3587 -0.9334
vn -0.0512 -0.3440 -0.9376
vn -0.1228 -0.3090 -0.9431
vn 0.0046 -0.0141 0.9999
vn -0.0569 0.8287 0.5568
vn -0.2440 0.7803 0.5758
vn -0.2291 0.7857 0.5746
vn -0.0493 0.8296 0.5562
vn -0.5028 0.6369 0.5844
vn -0.5096 0.6317 0.5842
vn -0.6938 0.4516 0.5610
vn -0.7061 0.4356 0.5583
vn -0.8138 0.2013 0.5452
vn -0.8173 0.1883 0.5445
vn -0.8467 -0.0727 0.5270
vn -0.8466 -0.0748 0.5270
vn -0.8094 -0.2542 0.5294
vn -0.8124 -0.2455 0.5290
vn -0.7132 -0.4396 0.5460
vn -0.7241 -0.4237 0.5442
vn -0.5311 -0.6262 0.5708
vn -0.5482 -0.6130 0.5690
vn -0.2782 -0.7600 0.5874
vn -0.2879 -0.7566 0.5870
vn 0.0000 -0.8057 0.5923
vn 0.0572 0.8287 0.5568
vn 0.0004 0.8346 0.5509
vn 0.0003 0.8346 0.5509
vn 0.0497 0.8296 0.5562
vn 0.2441 0.7803 0.5758
vn 0.2290 0.7857 0.5746
vn 0.5028 0.6369 0.5845
vn 0.5096 0.6317 0.5842
vn 0.6938 0.4515 0.5611
vn 0.7061 0.4356 0.5584
vn 0.8137 0.2013 0.5453
vn 0.8173 0.1883 0.5446
vn 0.8467 -0.0727 0.5271
vn 0.8465 -0.0748 0.5271
vn 0.8093 -0.2541 0.5295
vn 0.8123 -0.2455 0.5291
vn 0.7132 -0.4396 0.5461
vn 0.7240 -0.4237 0.5443
vn 0.5311 -0.6261 0.5708
vn 0.5481 -0.6129 0.5691
vn 0.2782 -0.7599 0.5874
vn 0.2879 -0.7566 0.5871
usemtl tiny_treats_1
s 1
f 1/1/1 135/2/2 138/3/3
f 115/4/4 5/5/5 7/6/6 117/7/7
f 74/8/8 72/9/9 26/10/10 28/11/11
f 97/12/12 98/13/12 60/14/13 58/15/14
f 100/16/12 101/17/12 66/18/15 64/19/16
f 112/20/12 89/21/17 66/18/15 101/17/12
f 69/22/18 102/23/12 92/24/12 46/25/19
f 93/26/12 94/27/12 52/28/20 50/29/21
f 94/27/12 95/30/12 54/31/22 52/28/20
f 95/30/12 96/32/12 56/33/23 54/31/22
f 96/32/12 97/12/12 58/15/14 56/33/23
f 99/34/12 100/16/12 64/19/16 62/35/24
f 98/13/12 99/34/12 62/35/24 60/14/13
f 91/36/12 93/26/12 50/29/21 48/37/25
f 109/38/12 83/39/26 85/40/27 110/41/12
f 102/23/12 69/22/18 71/42/28 103/43/12
f 103/43/12 71/42/28 73/44/29 104/45/12
f 104/45/12 73/44/29 75/46/30 105/47/12
f 105/47/12 75/46/30 77/48/31 106/49/12
f 106/49/12 77/48/31 79/50/32 107/51/12
f 107/51/12 79/50/32 81/52/33 108/53/12
f 108/53/12 81/52/33 83/39/26 109/38/12
f 111/54/12 87/55/34 89/21/17 112/20/12
f 110/41/12 85/40/27 87/55/34 111/54/12
f 1/1/1 122/56/35 124/57/36
f 92/24/12 91/36/12 48/37/25 46/25/19
f 1/1/1 124/57/36 126/58/37
f 53/59/38 55/60/39 10/61/40 8/62/41
f 1/1/1 126/58/37 128/63/42
f 1/1/1 139/64/43 135/2/2
f 55/60/39 57/65/44 12/66/45 10/61/40
f 1/1/1 128/63/42 130/67/46
f 136/68/47 140/69/48 29/70/49 27/71/50
f 57/65/44 59/72/51 14/73/52 12/66/45
f 1/1/1 130/67/46 132/74/53
f 1/1/1 143/75/54 141/76/55
f 59/72/51 61/77/56 16/78/57 14/73/52
f 76/79/58 74/8/8 28/11/11 30/80/59
f 1/1/1 132/74/53 134/81/60
f 1/1/1 145/82/61 143/75/54
f 61/77/56 63/83/62 18/84/63 16/78/57
f 78/85/64 76/79/58 30/80/59 32/86/65
f 1/1/1 134/81/60 155/87/66
f 1/1/1 147/88/67 145/82/61
f 63/83/62 65/89/68 20/90/69 18/84/63
f 80/91/70 78/85/64 32/86/65 34/92/71
f 1/1/1 149/93/72 147/88/67
f 65/89/68 67/94/73 22/95/74 20/90/69
f 82/96/75 80/91/70 34/92/71 36/97/76
f 1/1/1 151/98/77 149/93/72
f 72/9/9 70/99/78 24/100/79 26/10/10
f 84/101/80 82/96/75 36/97/76 38/102/81
f 1/1/1 153/103/82 151/98/77
f 70/99/78 47/104/83 2/105/84 24/100/79
f 86/106/85 84/101/80 38/102/81 40/107/86
f 1/1/1 155/87/66 153/103/82
f 1/1/1 138/3/3 113/108/87
f 88/109/88 86/106/85 40/107/86 42/110/89
f 51/111/90 53/59/38 8/62/41 6/112/91
f 1/1/1 118/113/92 120/114/93
f 90/115/94 88/109/88 42/110/89 44/116/95
f 49/117/96 51/111/90 6/112/91 4/118/97
f 1/1/1 120/114/93 122/56/35
f 67/94/73 90/115/94 44/116/95 22/95/74
f 2/119/84 4/120/97 5/5/5 3/121/98
f 4/120/97 6/122/91 7/6/6 5/5/5
f 117/7/7 7/6/6 9/123/99 119/124/100
f 6/122/91 8/125/41 9/123/99 7/6/6
f 119/124/100 9/123/99 11/126/101 121/127/102
f 8/125/41 10/128/40 11/126/101 9/123/99
f 121/127/102 11/126/101 13/129/103 123/130/104
f 10/128/40 12/131/45 13/129/103 11/126/101
f 123/130/104 13/129/103 15/132/105 125/133/106
f 12/131/45 14/134/52 15/132/105 13/129/103
f 125/133/106 15/132/105 17/135/107 127/136/108
f 14/134/52 16/137/57 17/135/107 15/132/105
f 127/136/108 17/135/107 19/138/109 129/139/110
f 16/137/57 18/140/63 19/138/109 17/135/107
f 129/139/110 19/138/109 21/141/111 131/142/112
f 18/140/63 20/143/69 21/141/111 19/138/109
f 131/142/112 21/141/111 23/144/113 133/145/114
f 20/143/69 22/146/74 23/144/113 21/141/111
f 27/71/50 25/147/115 137/148/116 136/68/47
f 25/147/115 27/71/50 26/149/10 24/150/79
f 140/69/48 142/151/117 31/152/118 29/70/49
f 27/71/50 29/70/49 28/153/11 26/149/10
f 142/151/117 144/154/119 33/155/120 31/152/118
f 29/70/49 31/152/118 30/156/59 28/153/11
f 144/154/119 146/157/121 35/158/122 33/155/120
f 31/152/118 33/155/120 32/159/65 30/156/59
f 146/157/121 148/160/123 37/161/124 35/158/122
f 33/155/120 35/158/122 34/162/71 32/159/65
f 148/160/123 150/163/125 39/164/126 37/161/124
f 35/158/122 37/161/124 36/165/76 34/162/71
f 150/163/125 152/166/127 41/167/128 39/164/126
f 37/161/124 39/164/126 38/168/81 36/165/76
f 152/166/127 154/169/129 43/170/130 41/167/128
f 39/164/126 41/167/128 40/171/86 38/168/81
f 154/169/129 156/172/131 45/173/132 43/170/130
f 41/167/128 43/170/130 42/174/89 40/171/86
f 156/172/131 133/145/114 23/144/113 45/173/132
f 43/170/130 45/173/132 44/175/95 42/174/89
f 3/121/98 114/176/133 137/148/116 25/147/115
f 45/173/132 23/144/113 22/146/74 44/175/95
f 24/150/79 2/119/84 3/121/98 25/147/115
f 46/25/19 48/37/25 49/117/134 47/104/135
f 48/37/25 50/29/21 51/111/136 49/117/134
f 50/29/21 52/28/20 53/59/38 51/111/136
f 52/28/20 54/31/22 55/60/39 53/59/38
f 54/31/22 56/33/23 57/65/44 55/60/39
f 56/33/23 58/15/14 59/72/51 57/65/44
f 58/15/14 60/14/13 61/77/56 59/72/51
f 60/14/13 62/35/24 63/83/62 61/77/56
f 62/35/24 64/19/16 65/89/68 63/83/62
f 64/19/16 66/18/15 67/94/73 65/89/68
f 70/99/137 72/9/138 71/42/28 69/22/18
f 72/9/138 74/8/139 73/44/29 71/42/28
f 74/8/139 76/79/140 75/46/30 73/44/29
f 76/79/140 78/85/64 77/48/31 75/46/30
f 78/85/64 80/91/70 79/50/32 77/48/31
f 80/91/70 82/96/75 81/52/33 79/50/32
f 82/96/75 84/101/80 83/39/26 81/52/33
f 84/101/80 86/106/85 85/40/27 83/39/26
f 86/106/85 88/109/88 87/55/34 85/40/27
f 88/109/88 90/115/94 89/21/17 87/55/34
f 90/115/94 67/94/73 66/18/15 89/21/17
f 69/22/18 46/25/19 47/104/135 70/99/137
f 68/177/12 91/36/12 92/24/12
f 68/177/12 93/26/12 91/36/12
f 68/177/12 94/27/12 93/26/12
f 68/177/12 95/30/12 94/27/12
f 68/177/12 96/32/12 95/30/12
f 68/177/12 97/12/12 96/32/12
f 68/177/12 98/13/12 97/12/12
f 68/177/12 99/34/12 98/13/12
f 68/177/12 100/16/12 99/34/12
f 68/177/12 101/17/12 100/16/12
f 68/177/12 102/23/12 103/43/12
f 68/177/12 103/43/12 104/45/12
f 68/177/12 104/45/12 105/47/12
f 68/177/12 105/47/12 106/49/12
f 68/177/12 106/49/12 107/51/12
f 68/177/12 107/51/12 108/53/12
f 68/177/12 108/53/12 109/38/12
f 68/177/12 109/38/12 110/41/12
f 68/177/12 110/41/12 111/54/12
f 68/177/12 111/54/12 112/20/12
f 68/177/12 112/20/12 101/17/12
f 68/177/12 92/24/12 102/23/12
f 1/1/1 141/76/55 139/64/43
f 1/1/1 116/178/141 118/113/92
f 114/179/142 115/180/143 116/181/144 113/182/145
f 115/180/143 117/183/146 118/184/147 116/181/144
f 117/183/146 119/185/148 120/186/149 118/184/147
f 119/185/148 121/187/150 122/188/151 120/186/149
f 121/187/150 123/189/152 124/190/153 122/188/151
f 123/189/152 125/191/154 126/192/155 124/190/153
f 125/191/154 127/193/156 128/194/157 126/192/155
f 127/193/156 129/195/158 130/196/159 128/194/157
f 129/195/158 131/197/160 132/198/161 130/196/159
f 131/197/160 133/199/162 134/200/162 132/198/161
f 136/201/163 137/202/164 138/203/165 135/204/166
f 140/205/167 136/201/163 135/204/166 139/206/168
f 142/207/169 140/205/167 139/206/168 141/208/170
f 144/209/171 142/207/169 141/208/170 143/210/172
f 146/211/173 144/209/171 143/210/172 145/212/174
f 148/213/175 146/211/173 145/212/174 147/214/176
f 150/215/177 148/213/175 147/214/176 149/216/178
f 152/217/179 150/215/177 149/216/178 151/218/180
f 154/219/181 152/217/179 151/218/180 153/220/182
f 156/221/183 154/219/181 153/220/182 155/222/184
f 133/199/162 156/221/183 155/222/184 134/200/162
f 1/1/1 113/108/87 116/178/141
f 3/121/98 5/5/5 115/4/4 114/176/133
f 47/104/83 49/117/96 4/118/97 2/105/84
f 137/202/164 114/179/142 113/182/145 138/203/165
