# Blender v3.4.1 OBJ File: 'Tiny_Treats_Bubbly_Bathroom_1.1_ASSETS_EXPORT.blend'
# www.blender.org
mtllib toilet_roll_holder.mtl
o toilet_roll_holder
v -0.000000 0.000000 -0.000000
v 0.000000 0.000374 0.080976
v 0.000000 0.117342 0.064668
v -0.068468 0.095499 0.064668
v -0.111661 0.037638 0.064668
v -0.112583 -0.035124 0.064668
v -0.069898 -0.094698 0.064668
v 0.000000 -0.117529 0.064668
v 0.069898 -0.094698 0.064668
v 0.112583 -0.035124 0.064668
v 0.111661 0.037638 0.064668
v 0.068468 0.095499 0.064668
v -0.058588 0.081838 0.080976
v 0.000000 0.100466 0.080976
v -0.096579 -0.029845 0.080976
v -0.095649 0.032431 0.080976
v 0.000000 -0.100600 0.080976
v -0.060036 -0.080972 0.080976
v 0.096579 -0.029845 0.080976
v 0.060036 -0.080972 0.080976
v 0.058588 0.081838 0.080975
v 0.095650 0.032431 0.080976
v 0.036072 0.029433 0.211814
v 0.019925 0.044599 0.227876
v 0.019925 -0.043655 0.227876
v 0.036072 -0.028489 0.211814
v 0.036072 -0.026433 0.080172
v 0.019925 -0.042969 0.080172
v 0.019925 0.043913 0.080172
v 0.036072 0.027377 0.080172
v -0.020343 -0.042856 0.080171
v -0.035654 -0.026167 0.080171
v -0.035654 0.027111 0.080171
v -0.020343 0.043800 0.080171
v -0.020528 0.043712 0.240340
v -0.035373 0.027269 0.249120
v -0.000814 0.027227 0.284299
v 0.004468 0.043731 0.268483
v -0.011714 0.043714 0.261467
v -0.024825 0.027340 0.273462
v 0.004468 -0.042787 0.268483
v -0.000813 -0.026283 0.284299
v -0.035373 -0.026325 0.249120
v -0.020528 -0.042768 0.240340
v -0.011714 -0.042770 0.261467
v -0.024825 -0.026395 0.273462
v 0.421150 0.029433 0.211814
v 0.437297 0.044599 0.227876
v 0.437297 -0.043655 0.227876
v 0.421150 -0.028489 0.211814
v 0.443246 -0.017434 0.145402
v 0.446578 -0.020847 0.145402
v 0.446578 0.021791 0.145402
v 0.443246 0.018379 0.145402
v 0.467825 -0.020787 0.145401
v 0.470780 -0.017567 0.145401
v 0.470780 0.018511 0.145401
v 0.467825 0.021731 0.145401
v 0.477749 0.043712 0.240340
v 0.492595 0.027269 0.249120
v 0.458035 0.027227 0.284299
v 0.452754 0.043731 0.268483
v 0.468936 0.043714 0.261467
v 0.482047 0.027340 0.273462
v 0.452754 -0.042787 0.268483
v 0.458035 -0.026283 0.284299
v 0.492594 -0.026325 0.249120
v 0.477749 -0.042768 0.240340
v 0.468935 -0.042770 0.261467
v 0.482047 -0.026395 0.273462
v 0.421150 -0.026433 0.161710
v 0.437297 -0.042969 0.161710
v 0.437297 0.043913 0.161710
v 0.421150 0.027377 0.161710
v 0.492876 0.027111 0.161709
v 0.477565 0.043800 0.161709
v 0.477565 -0.042856 0.161709
v 0.492876 -0.026167 0.161709
v 0.373897 0.000472 0.248119
v 0.083325 0.000472 0.248119
v 0.083325 -0.097707 0.148053
v 0.098226 -0.108615 0.136934
v 0.358996 -0.108615 0.136934
v 0.373897 -0.097706 0.148053
v 0.098226 -0.148544 0.207422
v 0.083325 -0.133642 0.211492
v 0.373897 -0.133642 0.211492
v 0.358996 -0.148544 0.207422
v 0.098226 -0.148544 0.288815
v 0.083325 -0.133642 0.284746
v 0.373897 -0.133642 0.284745
v 0.358996 -0.148544 0.288815
v 0.098226 -0.108615 0.359303
v 0.083325 -0.097707 0.348185
v 0.373897 -0.097707 0.348185
v 0.358996 -0.108615 0.359303
v 0.098226 -0.039457 0.400000
v 0.083325 -0.035464 0.384812
v 0.373897 -0.035464 0.384811
v 0.358996 -0.039457 0.400000
v 0.098226 0.040401 0.400000
v 0.083325 0.036408 0.384812
v 0.373897 0.036408 0.384811
v 0.358996 0.040401 0.400000
v 0.098226 0.109559 0.359303
v 0.083325 0.098651 0.348185
v 0.373897 0.098651 0.348185
v 0.358996 0.109559 0.359303
v 0.098226 0.149488 0.288815
v 0.083325 0.134587 0.284746
v 0.373897 0.134587 0.284745
v 0.358996 0.149488 0.288815
v 0.098226 0.149488 0.207422
v 0.083325 0.134587 0.211492
v 0.373897 0.134587 0.211492
v 0.358996 0.149488 0.207422
v 0.098226 0.109559 0.136934
v 0.083325 0.098651 0.148053
v 0.373897 0.098651 0.148053
v 0.358996 0.109559 0.136934
v 0.098226 0.040401 0.096238
v 0.083325 0.036408 0.111426
v 0.373897 0.036408 0.111426
v 0.358996 0.040401 0.096238
v 0.098226 -0.039457 0.096238
v 0.083325 -0.035464 0.111426
v 0.373897 -0.035464 0.111426
v 0.358996 -0.039457 0.096238
v 0.098226 -0.257631 0.359303
v 0.358996 -0.257631 0.359303
v 0.098226 -0.188473 0.400000
v 0.358996 -0.188473 0.400000
v 0.098226 -0.260306 0.288815
v 0.098226 -0.278933 0.321698
v 0.358996 -0.278933 0.321698
v 0.358996 -0.260306 0.288815
v 0.112294 -0.036142 -0.000000
v 0.069495 -0.095293 -0.000000
v -0.069074 0.095360 -0.000000
v 0.000000 0.117683 -0.000000
v 0.069074 0.095359 -0.000000
v -0.112022 0.036713 -0.000000
v -0.000000 -0.117908 -0.000000
v -0.069495 -0.095292 -0.000000
v 0.112022 0.036713 -0.000000
v -0.112294 -0.036142 -0.000000
vt 0.321390 0.839074
vt 0.321440 0.839074
vt 0.321425 0.835651
vt 0.321410 0.835651
vt 0.309343 0.839074
vt 0.311673 0.839074
vt 0.311641 0.835651
vt 0.309324 0.835651
vt 0.315367 0.839074
vt 0.315367 0.835651
vt 0.309294 0.839074
vt 0.309309 0.835651
vt 0.319138 0.839074
vt 0.315367 0.839074
vt 0.315367 0.835651
vt 0.319116 0.835651
vt 0.311596 0.839074
vt 0.311618 0.835651
vt 0.319060 0.839074
vt 0.319093 0.835651
vt 0.315367 0.885949
vt 0.311673 0.885949
vt 0.312206 0.886812
vt 0.315367 0.886812
vt 0.309343 0.885949
vt 0.309294 0.885949
vt 0.310157 0.886812
vt 0.310207 0.886812
vt 0.311596 0.885949
vt 0.315367 0.885949
vt 0.315367 0.886812
vt 0.312128 0.886812
vt 0.319138 0.885949
vt 0.321440 0.885949
vt 0.320577 0.886812
vt 0.318606 0.886812
vt 0.321390 0.885949
vt 0.319060 0.885949
vt 0.318527 0.886812
vt 0.320527 0.886812
vt 0.315367 0.871187
vt 0.315367 0.871187
vt 0.312206 0.871187
vt 0.310207 0.871187
vt 0.310157 0.871187
vt 0.312128 0.871187
vt 0.315367 0.871187
vt 0.318606 0.871187
vt 0.320577 0.871187
vt 0.320527 0.871187
vt 0.318527 0.871187
vt 0.289046 0.851273
vt 0.289046 0.847020
vt 0.289318 0.847171
vt 0.289318 0.851122
vt 0.283915 0.851103
vt 0.283915 0.847190
vt 0.283936 0.847179
vt 0.283936 0.851114
vt 0.287889 0.814656
vt 0.286862 0.814720
vt 0.285674 0.814721
vt 0.285040 0.814715
vt 0.288104 0.814707
vt 0.285026 0.814721
vt 0.284711 0.847174
vt 0.284711 0.851120
vt 0.286474 0.847182
vt 0.286474 0.851111
vt 0.287889 0.883637
vt 0.285026 0.883572
vt 0.285674 0.883572
vt 0.286474 0.847182
vt 0.286474 0.851111
vt 0.287889 0.814656
vt 0.286862 0.814720
vt 0.287889 0.883637
vt 0.289046 0.882523
vt 0.289046 0.882523
vt 0.289318 0.815921
vt 0.289046 0.815770
vt 0.288104 0.883587
vt 0.289318 0.882372
vt 0.283936 0.882364
vt 0.284711 0.882370
vt 0.284711 0.815924
vt 0.283936 0.815929
vt 0.286862 0.883573
vt 0.286474 0.882361
vt 0.286474 0.815932
vt 0.283915 0.882353
vt 0.285040 0.883578
vt 0.283915 0.815940
vt 0.286474 0.882361
vt 0.286862 0.883573
vt 0.289046 0.815770
vt 0.289046 0.851273
vt 0.289046 0.847020
vt 0.289318 0.851122
vt 0.289318 0.847171
vt 0.283915 0.851103
vt 0.283936 0.851114
vt 0.283936 0.847179
vt 0.283915 0.847190
vt 0.285674 0.814721
vt 0.285040 0.814715
vt 0.285026 0.814721
vt 0.288104 0.814707
vt 0.284711 0.851120
vt 0.284711 0.847174
vt 0.285674 0.883572
vt 0.285026 0.883572
vt 0.289318 0.815921
vt 0.288104 0.883587
vt 0.289318 0.882372
vt 0.284711 0.882370
vt 0.283936 0.882364
vt 0.283936 0.815929
vt 0.284711 0.815924
vt 0.286474 0.815932
vt 0.283915 0.882353
vt 0.285040 0.883578
vt 0.283915 0.815940
vt 0.287650 0.861308
vt 0.287398 0.864803
vt 0.285793 0.870290
vt 0.285572 0.869079
vt 0.287650 0.841000
vt 0.287398 0.837783
vt 0.285793 0.839020
vt 0.285572 0.842835
vt 0.418764 0.914847
vt 0.456235 0.914847
vt 0.456235 0.910803
vt 0.418764 0.910803
vt 0.417892 0.940590
vt 0.417892 0.940590
vt 0.417892 0.917182
vt 0.417892 0.942691
vt 0.417892 0.946331
vt 0.417892 0.950534
vt 0.417892 0.954174
vt 0.417892 0.956275
vt 0.417892 0.956275
vt 0.417892 0.954174
vt 0.417892 0.950534
vt 0.417892 0.946331
vt 0.417892 0.942691
vt 0.457107 0.942691
vt 0.457107 0.946331
vt 0.457107 0.917182
vt 0.418764 0.877218
vt 0.456235 0.877218
vt 0.456235 0.877218
vt 0.418764 0.877218
vt 0.418764 0.919517
vt 0.456235 0.919517
vt 0.418764 0.923562
vt 0.456235 0.923562
vt 0.418764 0.925897
vt 0.456235 0.925897
vt 0.418764 0.925897
vt 0.456235 0.925897
vt 0.418764 0.923562
vt 0.456235 0.923562
vt 0.418764 0.919517
vt 0.456235 0.919517
vt 0.418764 0.914847
vt 0.456235 0.914847
vt 0.456235 0.901932
vt 0.456235 0.902089
vt 0.456235 0.900843
vt 0.418764 0.879553
vt 0.456235 0.879553
vt 0.457107 0.940590
vt 0.457107 0.940590
vt 0.457107 0.942691
vt 0.457107 0.946331
vt 0.457107 0.950534
vt 0.457107 0.954174
vt 0.457107 0.956275
vt 0.457107 0.956275
vt 0.457107 0.954174
vt 0.457107 0.950534
vt 0.418764 0.908468
vt 0.417892 0.909340
vt 0.417892 0.911441
vt 0.456235 0.908468
vt 0.457107 0.911441
vt 0.457107 0.909340
vt 0.418764 0.908468
vt 0.417892 0.909340
vt 0.456235 0.908468
vt 0.457107 0.909340
vt 0.418764 0.939718
vt 0.418764 0.942053
vt 0.456235 0.942053
vt 0.456235 0.939718
vt 0.418764 0.946097
vt 0.456235 0.946097
vt 0.418764 0.950767
vt 0.456235 0.950767
vt 0.418764 0.954812
vt 0.456235 0.954812
vt 0.418764 0.957147
vt 0.456235 0.957147
vt 0.418764 0.957147
vt 0.456235 0.957147
vt 0.418764 0.954812
vt 0.456235 0.954812
vt 0.418764 0.950767
vt 0.456235 0.950767
vt 0.418764 0.946097
vt 0.456235 0.946097
vt 0.418764 0.942053
vt 0.456235 0.942053
vt 0.418764 0.870839
vt 0.456235 0.870839
vt 0.456235 0.874883
vt 0.418764 0.874883
vt 0.456235 0.839432
vt 0.418764 0.839432
vt 0.418764 0.902089
vt 0.418764 0.901932
vt 0.418764 0.900843
vt 0.456235 0.906133
vt 0.418764 0.906133
vt 0.456235 0.869593
vt 0.418764 0.869593
vt 0.418764 0.870682
vt 0.456235 0.870682
vt 0.317894 0.835651
vt 0.313811 0.835651
vt 0.315367 0.835651
vt 0.312846 0.835651
vt 0.316932 0.835651
vn 0.8820 0.2978 0.3653
vn 0.8877 -0.2796 0.3659
vn 0.9520 -0.3062 0.0018
vn 0.9494 0.3140 0.0008
vn -0.8820 0.2978 0.3653
vn -0.5409 0.7572 0.3661
vn -0.5844 0.8115 0.0021
vn -0.9494 0.3140 0.0008
vn 0.0000 0.9303 0.3668
vn 0.0000 1.0000 0.0031
vn -0.8877 -0.2796 0.3659
vn -0.9520 -0.3062 0.0018
vn 0.5496 -0.7500 0.3679
vn -0.0000 -0.9294 0.3690
vn -0.0000 -1.0000 0.0065
vn 0.5882 -0.8087 0.0048
vn -0.5496 -0.7500 0.3679
vn -0.5882 -0.8087 0.0048
vn 0.5409 0.7572 0.3661
vn 0.5844 0.8115 0.0021
vn -0.2520 0.3548 0.9003
vn 0.0000 0.4347 0.9006
vn -0.4164 -0.1295 0.8999
vn -0.4125 0.1412 0.8999
vn -0.0000 -0.4348 0.9005
vn -0.2580 -0.3506 0.9003
vn 0.4164 -0.1295 0.8999
vn 0.2580 -0.3506 0.9003
vn 0.2520 0.3548 0.9003
vn 0.4125 0.1412 0.8999
vn 0.0000 -0.0000 1.0000
vn 0.8909 0.4543 -0.0045
vn 0.8909 -0.4543 -0.0045
vn 0.9230 -0.3848 -0.0038
vn 0.9230 0.3848 -0.0038
vn -0.9327 0.3606 0.0009
vn -0.9327 -0.3606 0.0009
vn -0.9094 -0.3659 0.1978
vn -0.9094 0.3659 0.1978
vn 0.1011 -0.9900 -0.0984
vn -0.0844 -0.9021 0.4233
vn -0.3113 -0.8977 0.3119
vn -0.4098 -0.9122 -0.0010
vn 0.3718 -0.9283 -0.0049
vn -0.4280 -0.9009 0.0721
vn -0.6622 -0.3730 0.6499
vn -0.6622 0.3730 0.6499
vn -0.1978 -0.3656 0.9095
vn -0.1978 0.3656 0.9095
vn 0.1011 0.9900 -0.0984
vn -0.4280 0.9009 0.0721
vn -0.3113 0.8977 0.3119
vn 0.1978 -0.3656 0.9095
vn 0.1978 0.3656 0.9095
vn -0.1002 -0.9899 -0.1005
vn 0.0844 -0.9021 0.4233
vn -0.1002 0.9899 -0.1005
vn 0.0000 0.4609 -0.8874
vn 0.3718 0.9283 -0.0049
vn -0.0844 0.9021 0.4233
vn -0.4098 0.9122 -0.0010
vn 0.0844 0.9021 0.4233
vn 0.0000 -0.4609 -0.8874
vn -0.8876 0.4605 -0.0109
vn -0.9245 0.3810 -0.0090
vn -0.9245 -0.3810 -0.0090
vn -0.8876 -0.4605 -0.0109
vn 0.9328 0.3603 0.0018
vn 0.9092 0.3660 0.1983
vn 0.9092 -0.3660 0.1983
vn 0.9328 -0.3603 0.0018
vn 0.3113 -0.8977 0.3119
vn 0.4096 -0.9123 -0.0022
vn 0.4282 -0.9008 0.0716
vn -0.3704 -0.9288 -0.0114
vn 0.6622 0.3730 0.6499
vn 0.6622 -0.3730 0.6499
vn 0.3113 0.8977 0.3119
vn 0.4282 0.9008 0.0716
vn -0.3704 0.9288 -0.0114
vn 0.4096 0.9123 -0.0022
vn -0.3321 0.1352 -0.9335
vn -0.1390 0.3312 -0.9333
vn 0.1452 0.3291 -0.9331
vn 0.3333 0.1297 -0.9338
vn -0.3321 -0.1352 -0.9335
vn -0.1390 -0.3312 -0.9333
vn -0.2175 -0.5184 -0.8270
vn -0.5226 -0.2128 -0.8256
vn -0.5226 0.2128 -0.8256
vn -0.2175 0.5184 -0.8270
vn 0.2261 0.5124 -0.8285
vn 0.5281 0.2055 -0.8239
vn 0.1452 -0.3291 -0.9331
vn 0.3333 -0.1297 -0.9338
vn 0.5281 -0.2055 -0.8239
vn 0.2261 -0.5124 -0.8285
vn -0.3726 -0.2436 -0.8954
vn 0.3726 -0.2436 -0.8954
vn 0.3712 -0.6615 -0.6516
vn -0.3712 -0.6615 -0.6516
vn -0.9054 -0.4108 -0.1077
vn -0.9054 -0.4108 0.1077
vn -1.0000 -0.0000 0.0000
vn -0.9060 -0.3026 0.2961
vn -0.9066 -0.1115 0.4071
vn -0.9066 0.1115 0.4071
vn -0.9060 0.3026 0.2961
vn -0.9054 0.4108 0.1077
vn -0.9054 0.4108 -0.1077
vn -0.9060 0.3026 -0.2961
vn -0.9066 0.1115 -0.4071
vn -0.9066 -0.1115 -0.4071
vn -0.9060 -0.3026 -0.2961
vn 0.9060 -0.3026 -0.2961
vn 0.9066 -0.1115 -0.4071
vn 1.0000 0.0000 -0.0000
vn -0.3698 -0.8983 -0.2371
vn 0.3698 -0.8983 -0.2371
vn 0.7625 -0.6405 0.0912
vn -0.7625 -0.6405 0.0912
vn -0.3726 0.2436 -0.8954
vn 0.3726 0.2436 -0.8954
vn -0.3712 0.6615 -0.6516
vn 0.3712 0.6615 -0.6516
vn -0.3698 0.8983 -0.2371
vn 0.3698 0.8983 -0.2371
vn -0.3698 0.8983 0.2371
vn 0.3698 0.8983 0.2371
vn -0.3712 0.6615 0.6516
vn 0.3712 0.6615 0.6516
vn -0.3726 0.2436 0.8954
vn 0.3726 0.2436 0.8954
vn -0.4494 -0.0879 0.8890
vn 0.4494 -0.0879 0.8890
vn 0.9054 -0.4108 0.1077
vn 0.9054 -0.4108 -0.1077
vn 0.9060 -0.3026 0.2961
vn 0.9066 -0.1115 0.4071
vn 0.9066 0.1115 0.4071
vn 0.9060 0.3026 0.2961
vn 0.9054 0.4108 0.1077
vn 0.9054 0.4108 -0.1077
vn 0.9060 0.3026 -0.2961
vn 0.9066 0.1115 -0.4071
vn -0.9485 -0.2254 0.2225
vn 0.9485 -0.2254 0.2225
vn 0.0000 -0.7129 0.7013
vn 0.0000 -0.2628 0.9648
vn -0.0000 -0.0000 -1.0000
vn 0.0000 -0.8701 -0.4929
vn 0.0000 -0.8701 0.4929
usemtl tiny_treats_1
s 1
f 11/1/1 10/2/2 137/3/3 145/4/4
f 5/5/5 4/6/6 139/7/7 142/8/8
f 4/6/6 3/9/9 140/10/10 139/7/7
f 6/11/11 5/5/5 142/8/8 146/12/12
f 9/13/13 8/14/14 143/15/15 138/16/16
f 10/2/2 9/13/13 138/16/16 137/3/3
f 7/17/17 6/11/11 146/12/12 144/18/18
f 8/14/14 7/17/17 144/18/18 143/15/15
f 12/19/19 11/1/1 145/4/4 141/20/20
f 3/9/9 12/19/19 141/20/20 140/10/10
f 3/21/9 4/22/6 13/23/21 14/24/22
f 5/25/5 6/26/11 15/27/23 16/28/24
f 7/29/17 8/30/14 17/31/25 18/32/26
f 9/33/13 10/34/2 19/35/27 20/36/28
f 11/37/1 12/38/19 21/39/29 22/40/30
f 4/22/6 5/25/5 16/28/24 13/23/21
f 6/26/11 7/29/17 18/32/26 15/27/23
f 8/30/14 9/33/13 20/36/28 17/31/25
f 10/34/2 11/37/1 22/40/30 19/35/27
f 14/24/22 21/39/29 12/38/19 3/21/9
f 2/41/31 14/42/22 13/43/21
f 2/41/31 16/44/24 15/45/23
f 2/41/31 18/46/26 17/47/25
f 2/41/31 20/48/28 19/49/27
f 2/41/31 22/50/30 21/51/29
f 2/41/31 13/43/21 16/44/24
f 2/41/31 15/45/23 18/46/26
f 2/41/31 17/47/25 20/48/28
f 2/41/31 19/49/27 22/50/30
f 2/41/31 21/51/29 14/42/22
f 23/52/32 26/53/33 27/54/34 30/55/35
f 33/56/36 32/57/37 43/58/38 36/59/39
f 25/60/40 41/61/41 45/62/42
f 31/63/43 28/64/44 25/60/40 44/65/45
f 36/59/39 43/58/38 46/66/46 40/67/47
f 40/67/47 46/66/46 42/68/48 37/69/49
f 24/70/50 35/71/51 39/72/52
f 66/73/53 61/74/54 37/69/49 42/68/48
f 25/60/40 49/75/55 65/76/56 41/61/41
f 24/70/50 48/77/57 47/78/58 23/79/58
f 25/60/40 28/64/44 27/80/34 26/81/33
f 29/82/59 24/70/50 23/79/32 30/83/35
f 39/72/52 35/71/51 36/84/39 40/85/47
f 44/65/45 45/62/42 46/86/46 43/87/38
f 38/88/60 39/72/52 40/85/47 37/89/49
f 45/62/42 41/61/41 42/90/48 46/86/46
f 33/91/36 36/84/39 35/71/51 34/92/61
f 31/63/43 44/65/45 43/87/38 32/93/37
f 24/70/50 29/82/59 34/92/61 35/71/51
f 61/94/54 62/95/62 38/88/60 37/89/49
f 26/81/63 50/96/63 49/75/55 25/60/40
f 47/97/58 50/98/63 26/53/63 23/52/58
f 62/95/62 48/77/57 24/70/50 38/88/60
f 38/88/60 24/70/50 39/72/52
f 44/65/45 25/60/40 45/62/42
f 47/97/64 74/99/65 71/100/66 50/98/67
f 75/101/68 60/102/69 67/103/70 78/104/71
f 49/75/55 69/105/72 65/76/56
f 77/106/73 68/107/74 49/75/55 72/108/75
f 60/102/69 64/109/76 70/110/77 67/103/70
f 64/109/76 61/74/54 66/73/53 70/110/77
f 48/77/57 63/111/78 59/112/79
f 49/75/55 50/96/67 71/113/66 72/108/75
f 73/114/80 74/115/65 47/78/64 48/77/57
f 63/111/78 64/116/76 60/117/69 59/112/79
f 68/107/74 67/118/70 70/119/77 69/105/72
f 62/95/62 61/94/54 64/116/76 63/111/78
f 69/105/72 70/119/77 66/120/53 65/76/56
f 75/121/68 76/122/81 59/112/79 60/117/69
f 77/106/73 78/123/71 67/118/70 68/107/74
f 48/77/57 59/112/79 76/122/81 73/114/80
f 62/95/62 63/111/78 48/77/57
f 68/107/74 69/105/72 49/75/55
f 65/76/56 66/120/53 42/90/48 41/61/41
f 54/124/82 53/125/83 58/126/84 57/127/85
f 51/128/86 52/129/87 72/108/88 71/100/89
f 53/125/83 54/124/82 74/99/90 73/114/91
f 57/127/85 58/126/84 76/122/92 75/121/93
f 55/130/94 56/131/95 78/104/96 77/106/97
f 58/126/84 53/125/83 73/114/91 76/122/92
f 54/124/82 51/128/86 71/100/89 74/99/90
f 52/129/87 55/130/94 77/106/97 72/108/88
f 56/131/95 57/127/85 75/121/93 78/104/96
f 51/128/86 54/124/82 57/127/85 56/131/95
f 52/129/87 51/128/86 56/131/95 55/130/94
f 125/132/98 128/133/99 83/134/100 82/135/101
f 86/136/102 90/137/103 80/138/104
f 90/137/103 94/139/105 80/138/104
f 94/139/105 98/140/106 80/138/104
f 98/140/106 102/141/107 80/138/104
f 102/141/107 106/142/108 80/138/104
f 106/142/108 110/143/109 80/138/104
f 110/143/109 114/144/110 80/138/104
f 114/144/110 118/145/111 80/138/104
f 118/145/111 122/146/112 80/138/104
f 122/146/112 126/147/113 80/138/104
f 126/147/113 81/148/114 80/138/104
f 84/149/115 127/150/116 79/151/117
f 85/152/118 88/153/119 92/154/120 89/155/121
f 121/156/122 124/157/123 128/133/99 125/132/98
f 117/158/124 120/159/125 124/157/123 121/156/122
f 113/160/126 116/161/127 120/159/125 117/158/124
f 109/162/128 112/163/129 116/161/127 113/160/126
f 105/164/130 108/165/131 112/163/129 109/162/128
f 101/166/132 104/167/133 108/165/131 105/164/130
f 97/168/134 100/169/135 104/167/133 101/166/132
f 136/170/117 130/171/117 135/172/117
f 82/173/101 83/174/100 88/153/119 85/152/118
f 91/175/136 87/176/137 79/151/117
f 95/177/138 91/175/136 79/151/117
f 99/178/139 95/177/138 79/151/117
f 103/179/140 99/178/139 79/151/117
f 107/180/141 103/179/140 79/151/117
f 111/181/142 107/180/141 79/151/117
f 115/182/143 111/181/142 79/151/117
f 119/183/144 115/182/143 79/151/117
f 123/184/145 119/183/144 79/151/117
f 127/150/116 123/184/145 79/151/117
f 87/176/137 84/149/115 79/151/117
f 82/135/101 85/185/118 86/186/102 81/187/114
f 88/188/119 83/134/100 84/189/115 87/190/137
f 85/185/118 89/191/121 90/192/103 86/186/102
f 92/193/120 88/188/119 87/190/137 91/194/136
f 89/195/121 93/196/146 94/139/105 90/137/103
f 96/197/147 92/198/120 91/175/136 95/177/138
f 93/196/146 97/199/134 98/140/106 94/139/105
f 100/200/135 96/197/147 95/177/138 99/178/139
f 97/199/134 101/201/132 102/141/107 98/140/106
f 104/202/133 100/200/135 99/178/139 103/179/140
f 101/201/132 105/203/130 106/142/108 102/141/107
f 108/204/131 104/202/133 103/179/140 107/180/141
f 105/203/130 109/205/128 110/143/109 106/142/108
f 112/206/129 108/204/131 107/180/141 111/181/142
f 109/205/128 113/207/126 114/144/110 110/143/109
f 116/208/127 112/206/129 111/181/142 115/182/143
f 113/207/126 117/209/124 118/145/111 114/144/110
f 120/210/125 116/208/127 115/182/143 119/183/144
f 117/209/124 121/211/122 122/146/112 118/145/111
f 124/212/123 120/210/125 119/183/144 123/184/145
f 121/211/122 125/213/98 126/147/113 122/146/112
f 128/214/99 124/212/123 123/184/145 127/150/116
f 125/213/98 82/215/101 81/148/114 126/147/113
f 83/216/100 128/214/99 127/150/116 84/149/115
f 81/148/114 86/136/102 80/138/104
f 129/217/148 130/218/148 132/219/149 131/220/149
f 89/155/150 92/154/150 136/221/150 133/222/150
f 100/169/135 97/168/134 131/220/149 132/219/149
f 129/223/104 133/224/104 134/225/104
f 96/197/147 100/200/135 132/226/117
f 93/196/146 129/223/104 131/227/104
f 135/228/151 134/229/151 133/230/151 136/231/151
f 134/229/152 135/228/152 130/218/148 129/217/148
f 93/196/146 89/195/121 133/224/104 129/223/104
f 92/198/120 96/197/147 130/171/117 136/170/117
f 97/199/134 93/196/146 131/227/104
f 130/171/117 96/197/147 132/226/117
f 1/232/150 137/3/150 138/16/150
f 1/233/150 139/7/150 140/10/150
f 1/234/150 140/10/150 141/20/150
f 1/235/150 142/8/150 139/7/150
f 1/234/150 143/15/150 144/18/150
f 1/236/150 138/16/150 143/15/150
f 1/236/150 141/20/150 145/4/150
f 1/235/150 146/12/150 142/8/150
f 1/233/150 144/18/150 146/12/150
f 1/232/150 145/4/150 137/3/150
