# Blender v3.4.1 OBJ File: 'Tiny_Treats_Bubbly_Bathroom_1.1_ASSETS_EXPORT.blend'
# www.blender.org
mtllib wall_tiled_window_full_center_open.mtl
o wall_tiled_window_full_center_open
v -1.000000 -0.000000 0.200807
v -1.000000 4.000000 0.200806
v 1.000000 0.000000 0.200806
v 1.000000 4.000000 0.200806
v -1.000000 3.500000 0.200806
v 1.000000 3.500000 0.200806
v -1.000000 0.500000 0.200806
v 1.000000 0.500000 0.200806
v 1.000000 4.000000 0.250806
v -1.000000 4.000000 0.250806
v -1.000000 3.500000 0.250806
v 1.000000 3.500000 0.250806
v -1.000000 -0.000000 0.200807
v 0.936283 0.063717 0.250807
v 1.000000 -0.000000 0.200807
v 0.936283 0.436283 0.250807
v 1.000000 0.500000 0.200807
v 0.563717 0.063717 0.250807
v 0.500000 -0.000000 0.200807
v 0.563717 0.436283 0.250807
v 0.500000 0.500000 0.200807
v 0.436283 0.063717 0.250807
v 0.436283 0.436283 0.250807
v 0.063717 0.063717 0.250807
v 0.063717 0.436283 0.250807
v -0.063717 0.063717 0.250807
v 0.000000 -0.000000 0.200807
v -0.063717 0.436283 0.250807
v -0.436283 0.063717 0.250807
v -0.500000 -0.000000 0.200807
v -0.436283 0.436283 0.250807
v -0.500000 0.500000 0.200807
v 0.000000 0.500000 0.200807
v -0.563717 0.063717 0.250807
v -0.563717 0.436283 0.250807
v -0.936283 0.063717 0.250807
v -0.936283 0.436283 0.250807
v -1.000000 0.500000 0.200807
v -1.000000 0.000000 -0.249194
v -1.000000 4.000000 -0.249194
v 1.000000 4.000000 -0.249194
v 1.000000 0.000000 -0.249194
v -1.000000 3.500000 -0.249194
v 1.000000 3.500000 -0.249194
v -1.000000 0.500000 -0.249194
v 1.000000 0.500000 -0.249194
v 1.000000 0.475000 0.450806
v 1.000000 0.525000 0.500806
v 1.000000 0.675000 0.500806
v 1.000000 0.725000 0.450806
v 1.000000 0.475000 -0.449194
v 1.000000 0.525000 -0.499194
v 1.000000 0.725000 -0.449194
v 1.000000 0.675000 -0.499194
v -1.000000 0.475000 0.450806
v -1.000000 0.525000 0.500806
v -1.000000 0.725000 0.450806
v -1.000000 0.675000 0.500806
v -1.000000 0.475000 -0.449194
v -1.000000 0.525000 -0.499194
v -1.000000 0.725000 -0.449194
v -1.000000 0.675000 -0.499194
v 0.900000 1.790320 0.070806
v 0.900000 1.820320 0.100806
v 0.900000 1.960319 0.100806
v 0.900000 1.990320 0.070806
v 0.900000 1.790320 -0.069194
v 0.900000 1.820320 -0.099194
v 0.900000 1.990320 -0.069194
v 0.900000 1.960319 -0.099194
v -0.900000 1.790320 0.070806
v -0.900000 1.820320 0.100806
v -0.900000 1.990320 0.070806
v -0.900000 1.960319 0.100806
v -0.900000 1.790320 -0.069194
v -0.900000 1.820320 -0.099194
v -0.900000 1.990320 -0.069194
v -0.900000 1.960319 -0.099194
v -0.999999 1.890320 0.000806
v 1.000000 1.890320 0.000806
v -0.999999 3.390320 0.000806
v 1.000000 3.390320 0.000806
v -0.999999 3.390320 -0.049194
v -0.999999 1.890320 -0.049194
v 1.000000 1.890320 -0.049194
v 1.000000 3.390320 -0.049194
v -1.000000 3.500000 0.150806
v 1.000000 3.500000 0.150806
v -1.000000 3.300000 0.150806
v 1.000000 3.300000 0.150806
v -1.000000 3.500000 -0.149194
v 1.000000 3.500000 -0.149194
v -1.000000 3.300000 -0.149194
v 1.000000 3.300000 -0.149194
v 0.900000 0.699999 0.150806
v 0.900000 3.500000 0.150806
v 1.000000 0.699999 0.150806
v 1.000000 3.500000 0.150806
v 0.900000 0.699999 -0.149194
v 0.900000 3.500000 -0.149194
v 1.000000 0.699999 -0.149194
v 1.000000 3.500000 -0.149194
v -0.900000 0.699999 0.150806
v -0.900000 3.500000 0.150806
v -1.000000 0.699999 0.150806
v -1.000000 3.500000 0.150806
v -0.900000 0.699999 -0.149194
v -0.900000 3.500000 -0.149194
v -1.000000 0.699999 -0.149194
v -1.000000 3.500000 -0.149194
v -0.172549 1.864296 0.207301
v -0.172549 1.935704 0.207301
v 0.172549 1.864296 0.207301
v 0.172549 1.935704 0.207301
v 0.119608 1.864296 0.141125
v -0.119608 1.864296 0.141125
v -0.119608 1.935704 0.141125
v 0.119608 1.935704 0.141125
v -0.258823 1.935704 0.041247
v -0.258823 1.864296 0.041247
v -0.179412 1.864296 0.041247
v 0.179412 1.935704 0.041247
v 0.258824 1.935704 0.041247
v 0.258824 1.864296 0.041247
v 0.179412 1.864296 0.041247
v -0.179412 1.935704 0.041247
v -0.182475 1.900000 0.219709
v 0.182476 1.900000 0.219709
v 0.000000 1.864296 0.156107
v 0.000000 1.935704 0.156107
v 0.000000 1.864296 0.232209
v 0.000000 1.935704 0.232209
v -0.109681 1.900000 0.128717
v 0.109681 1.900000 0.128717
v -0.273713 1.900000 0.041247
v -0.219118 1.850907 0.041247
v 0.219118 1.949093 0.041247
v 0.273713 1.900000 0.041247
v 0.219118 1.850907 0.041247
v -0.219118 1.949093 0.041247
v -0.164522 1.900000 0.041247
v 0.164522 1.900000 0.041247
v 0.171936 1.864296 0.098677
v 0.248039 1.864296 0.136728
v 0.248039 1.935704 0.136728
v -0.171936 1.864296 0.098677
v -0.171936 1.935704 0.098677
v -0.248039 1.864296 0.136728
v 0.171936 1.935704 0.098677
v -0.248039 1.935704 0.136728
v -0.146078 1.949093 0.174213
v -0.146078 1.850907 0.174213
v 0.146078 1.949093 0.174213
v 0.146078 1.850907 0.174213
v -0.209988 1.850907 0.117703
v 0.209988 1.850907 0.117703
v -0.209988 1.949093 0.117703
v 0.000000 1.949093 0.194158
v 0.000000 1.850907 0.194158
v 0.000000 1.900000 0.246479
v 0.000000 1.900000 0.141837
v -0.157667 1.900000 0.091542
v 0.157667 1.900000 0.091542
v 0.209988 1.949093 0.117703
v 0.262309 1.900000 0.143863
v -0.262308 1.900000 0.143863
vt 0.409246 0.819082
vt 0.409246 0.854734
vt 0.462062 0.854734
vt 0.462062 0.819082
vt 0.462062 0.917234
vt 0.462062 0.917234
vt 0.409246 0.917234
vt 0.409246 0.917234
vt 0.163245 0.402077
vt 0.209376 0.402077
vt 0.203610 0.379034
vt 0.169473 0.379034
vt 0.169473 0.379034
vt 0.203610 0.379034
vt 0.209376 0.402077
vt 0.163245 0.402077
vt 0.461876 0.850622
vt 0.413123 0.850622
vt 0.413123 0.899375
vt 0.461876 0.899375
vt 0.413123 0.819372
vt 0.404785 0.811034
vt 0.404785 0.876463
vt 0.413123 0.868125
vt 0.461876 0.883750
vt 0.470214 0.892088
vt 0.470214 0.826659
vt 0.461876 0.834997
vt 0.404785 0.795409
vt 0.413123 0.803747
vt 0.461876 0.803747
vt 0.470214 0.795409
vt 0.470214 0.938963
vt 0.461876 0.930625
vt 0.413123 0.930625
vt 0.404785 0.938963
vt 0.461876 0.850622
vt 0.413123 0.850622
vt 0.413123 0.899375
vt 0.461876 0.899375
vt 0.413123 0.819372
vt 0.404785 0.811034
vt 0.404785 0.876463
vt 0.413123 0.868125
vt 0.461876 0.883750
vt 0.470214 0.892088
vt 0.470214 0.826659
vt 0.461876 0.834997
vt 0.404785 0.795409
vt 0.413123 0.803747
vt 0.461876 0.803747
vt 0.470214 0.795409
vt 0.470214 0.938963
vt 0.461876 0.930625
vt 0.413123 0.930625
vt 0.404785 0.938963
vt 0.461876 0.850622
vt 0.413123 0.850622
vt 0.413123 0.899375
vt 0.461876 0.899375
vt 0.413123 0.819372
vt 0.404785 0.811034
vt 0.404785 0.876463
vt 0.413123 0.868125
vt 0.461876 0.883750
vt 0.470214 0.892088
vt 0.470214 0.826659
vt 0.461876 0.834997
vt 0.404785 0.795409
vt 0.413123 0.803747
vt 0.461876 0.803747
vt 0.470214 0.795409
vt 0.470214 0.938963
vt 0.461876 0.930625
vt 0.413123 0.930625
vt 0.404785 0.938963
vt 0.461876 0.850622
vt 0.413123 0.850622
vt 0.413123 0.899375
vt 0.461876 0.899375
vt 0.413123 0.819372
vt 0.404785 0.811034
vt 0.404785 0.876463
vt 0.413123 0.868125
vt 0.461876 0.883750
vt 0.470214 0.892088
vt 0.470214 0.826659
vt 0.461876 0.834997
vt 0.404785 0.795409
vt 0.413123 0.803747
vt 0.461876 0.803747
vt 0.470214 0.795409
vt 0.470214 0.938963
vt 0.461876 0.930625
vt 0.413123 0.930625
vt 0.404785 0.938963
vt 0.209376 0.402077
vt 0.163245 0.402077
vt 0.203379 0.379034
vt 0.169242 0.379034
vt 0.462062 0.819082
vt 0.471802 0.815299
vt 0.471802 0.815299
vt 0.420115 0.815299
vt 0.420115 0.815299
vt 0.462062 0.854734
vt 0.409246 0.854734
vt 0.409246 0.819082
vt 0.982823 0.877541
vt 0.892177 0.877541
vt 0.892177 0.892785
vt 0.982823 0.892785
vt 0.982823 0.929116
vt 0.982823 0.929116
vt 0.892177 0.929116
vt 0.892177 0.929116
vt 0.892177 0.877541
vt 0.982823 0.877541
vt 0.982823 0.892785
vt 0.892177 0.892785
vt 0.982823 0.856834
vt 0.982823 0.861916
vt 0.892177 0.861916
vt 0.892177 0.856834
vt 0.892177 0.944741
vt 0.892177 0.939660
vt 0.982823 0.939660
vt 0.982823 0.944741
vt 0.982823 0.841209
vt 0.982823 0.939660
vt 0.892177 0.856834
vt 0.892177 0.861916
vt 0.982823 0.861916
vt 0.982823 0.856834
vt 0.982823 0.944741
vt 0.892177 0.939660
vt 0.892177 0.944741
vt 0.892177 0.841209
vt 0.892177 0.841209
vt 0.982823 0.841209
vt 0.484964 0.867836
vt 0.390036 0.867836
vt 0.390036 0.885395
vt 0.484964 0.885395
vt 0.484964 0.920408
vt 0.484964 0.920408
vt 0.390036 0.920408
vt 0.390036 0.920408
vt 0.390036 0.867836
vt 0.484964 0.867836
vt 0.484964 0.885395
vt 0.390036 0.885395
vt 0.484964 0.848448
vt 0.484964 0.852211
vt 0.390036 0.852211
vt 0.390036 0.848448
vt 0.390036 0.936033
vt 0.390036 0.932270
vt 0.484964 0.932270
vt 0.484964 0.936033
vt 0.390036 0.848449
vt 0.390036 0.852211
vt 0.484964 0.852211
vt 0.484964 0.848449
vt 0.484964 0.936033
vt 0.484964 0.932270
vt 0.390036 0.932270
vt 0.390036 0.936033
vt 0.390036 0.832823
vt 0.390036 0.832824
vt 0.484964 0.832824
vt 0.484964 0.832823
vt 0.411345 0.937821
vt 0.463655 0.937821
vt 0.458424 0.932595
vt 0.416576 0.932595
vt 0.411345 0.937821
vt 0.416576 0.932595
vt 0.458424 0.932595
vt 0.463655 0.937821
vt 0.416576 0.901345
vt 0.458424 0.901345
vt 0.458424 0.901345
vt 0.416576 0.901345
vt 0.411345 0.937821
vt 0.411345 0.885562
vt 0.416576 0.890788
vt 0.416576 0.932595
vt 0.411345 0.937821
vt 0.416576 0.932595
vt 0.416576 0.890788
vt 0.411345 0.885562
vt 0.416576 0.901345
vt 0.416576 0.901345
vt 0.416576 0.859538
vt 0.416576 0.859538
vt 0.411345 0.937821
vt 0.416576 0.932595
vt 0.416576 0.890788
vt 0.411345 0.885562
vt 0.411345 0.937821
vt 0.411345 0.885562
vt 0.416576 0.890788
vt 0.416576 0.932595
vt 0.416576 0.901345
vt 0.416576 0.859538
vt 0.416576 0.859538
vt 0.416576 0.901345
vt 0.410321 0.774357
vt 0.398430 0.774357
vt 0.404424 0.771772
vt 0.414491 0.771772
vt 0.396732 0.774357
vt 0.402986 0.771772
vt 0.409240 0.774357
vt 0.410418 0.774357
vt 0.418660 0.774357
vt 0.456340 0.774357
vt 0.464582 0.774357
vt 0.470576 0.771772
vt 0.460509 0.771772
vt 0.465760 0.774357
vt 0.472014 0.771772
vt 0.478268 0.774357
vt 0.476570 0.774357
vt 0.464679 0.774357
vt 0.418660 0.850643
vt 0.410418 0.850643
vt 0.404424 0.853228
vt 0.414491 0.853228
vt 0.409240 0.850643
vt 0.402986 0.853228
vt 0.396732 0.850643
vt 0.398430 0.850643
vt 0.410321 0.850643
vt 0.456340 0.850643
vt 0.437500 0.850643
vt 0.437500 0.853228
vt 0.460509 0.853228
vt 0.437500 0.850643
vt 0.464679 0.850643
vt 0.437500 0.774357
vt 0.437500 0.771772
vt 0.437500 0.774357
vt 0.464679 0.819393
vt 0.437500 0.819393
vt 0.437500 0.812500
vt 0.466242 0.812500
vt 0.410321 0.819393
vt 0.408758 0.812500
vt 0.410321 0.805607
vt 0.437500 0.805607
vt 0.464679 0.805607
vt 0.418660 0.805607
vt 0.420224 0.812500
vt 0.437500 0.812500
vt 0.437500 0.805607
vt 0.418660 0.819393
vt 0.437500 0.819393
vt 0.456340 0.819393
vt 0.454776 0.812500
vt 0.456340 0.805607
vt 0.412665 0.812500
vt 0.410418 0.819393
vt 0.410418 0.805607
vt 0.409240 0.805607
vt 0.411585 0.812500
vt 0.409240 0.819393
vt 0.462335 0.812500
vt 0.464582 0.805607
vt 0.464582 0.819393
vt 0.465760 0.819393
vt 0.463415 0.812500
vt 0.465760 0.805607
vt 0.476570 0.850643
vt 0.470576 0.853228
vt 0.478268 0.850643
vt 0.472014 0.853228
vt 0.465760 0.850643
vt 0.464582 0.850643
vt 0.478817 0.812500
vt 0.476570 0.819393
vt 0.476570 0.805607
vt 0.478268 0.805607
vt 0.480614 0.812500
vt 0.478268 0.819393
vt 0.398430 0.819393
vt 0.396183 0.812500
vt 0.396732 0.819393
vt 0.394386 0.812500
vt 0.396732 0.805607
vt 0.398430 0.805607
vt 0.764993 0.014993
vt 0.985007 0.014993
vt 0.985007 0.235007
vt 0.764993 0.235007
vt 0.764993 0.014993
vt 0.764993 0.235007
vt 0.985007 0.235007
vt 0.985007 0.014993
vn 0.0000 0.0000 1.0000
vn 0.0000 1.0000 0.0000
vn 0.0000 -1.0000 0.0000
vn -0.2533 -0.2533 0.9336
vn 0.2533 -0.2533 0.9336
vn 0.2533 0.2533 0.9336
vn -0.2533 0.2533 0.9336
vn 0.6173 0.0000 0.7867
vn -0.6173 0.0000 0.7867
vn 0.0000 -0.6173 0.7867
vn 0.0000 0.6173 0.7867
vn -1.0000 -0.0000 -0.0000
vn -0.0000 0.0000 -1.0000
vn 0.0000 -0.3827 0.9239
vn 0.0000 0.3827 0.9239
vn 0.0000 -0.3827 -0.9239
vn 0.0000 0.3827 -0.9239
vn 0.0000 -0.7071 -0.7071
vn 0.0000 0.7071 -0.7071
vn 0.0000 -0.7071 0.7071
vn 0.0000 0.7071 0.7071
vn 0.0000 -0.9239 -0.3827
vn 0.0000 -0.9239 0.3827
vn 1.0000 0.0000 0.0000
vn -0.1425 -0.9508 0.2752
vn -0.2650 -0.9549 0.1338
vn -0.0619 -0.9976 0.0298
vn -0.0137 -0.9982 0.0592
vn -0.3173 -0.9476 0.0368
vn -0.0243 -0.9997 0.0015
vn 0.3168 -0.9477 -0.0393
vn 0.2600 -0.9552 -0.1416
vn 0.1127 -0.9486 -0.2958
vn -0.1127 -0.9486 -0.2958
vn -0.2600 -0.9552 -0.1416
vn 0.0619 -0.9976 0.0298
vn 0.0137 -0.9982 0.0592
vn -0.3168 -0.9477 -0.0393
vn 0.0243 -0.9997 0.0015
vn 0.3173 -0.9476 0.0368
vn 0.2650 -0.9549 0.1338
vn 0.1425 -0.9508 0.2752
vn 0.1127 0.9486 -0.2958
vn 0.2600 0.9552 -0.1416
vn -0.0619 0.9976 0.0298
vn -0.0137 0.9982 0.0592
vn 0.3168 0.9477 -0.0393
vn -0.0243 0.9997 0.0015
vn -0.3173 0.9476 0.0368
vn -0.2650 0.9549 0.1338
vn -0.1425 0.9508 0.2752
vn -0.1127 0.9486 -0.2958
vn -0.0000 0.9412 -0.3378
vn -0.0000 0.9996 0.0286
vn 0.0137 0.9982 0.0592
vn 0.0000 0.9416 0.3368
vn 0.1425 0.9508 0.2752
vn 0.0000 -0.9412 -0.3378
vn 0.0000 -0.9996 0.0286
vn 0.0000 -0.9416 0.3368
vn 0.3843 0.3944 0.8347
vn 0.0000 0.3664 0.9304
vn 0.4499 0.0000 0.8931
vn -0.3843 0.3944 0.8347
vn -0.4499 0.0000 0.8931
vn -0.3843 -0.3944 0.8347
vn 0.0000 -0.3664 0.9304
vn 0.3843 -0.3944 0.8347
vn 0.3713 -0.3899 -0.8427
vn 0.3671 0.0000 -0.9302
vn -0.0000 -0.3639 -0.9315
vn 0.3713 0.3899 -0.8427
vn -0.0000 0.3639 -0.9315
vn -0.3713 0.3899 -0.8427
vn -0.3671 0.0000 -0.9302
vn -0.3713 -0.3899 -0.8427
vn 0.7896 0.4138 -0.4531
vn 0.7943 0.4138 -0.4449
vn 0.7943 -0.4138 -0.4449
vn 0.7896 -0.4138 -0.4531
vn 0.9146 -0.3856 -0.1217
vn 0.9146 0.3856 -0.1217
vn -0.7896 -0.4138 -0.4531
vn -0.7943 -0.4138 -0.4449
vn -0.7943 0.4138 -0.4449
vn -0.7896 0.4138 -0.4531
vn -0.9146 0.3856 -0.1217
vn -0.9146 -0.3856 -0.1217
vn 0.2650 0.9549 0.1338
vn 0.0619 0.9976 0.0298
vn 0.3173 0.9476 0.0368
vn 0.0243 0.9997 0.0015
vn -0.3168 0.9477 -0.0393
vn -0.2600 0.9552 -0.1416
vn 0.8155 0.4118 0.4066
vn 0.8156 0.4118 0.4065
vn 0.8156 -0.4118 0.4065
vn 0.8155 -0.4118 0.4066
vn 0.9173 -0.3848 0.1027
vn 0.9173 0.3848 0.1027
vn -0.8156 0.4118 0.4065
vn -0.8155 0.4118 0.4066
vn -0.9173 0.3848 0.1027
vn -0.8155 -0.4118 0.4066
vn -0.9173 -0.3848 0.1027
vn -0.8156 -0.4118 0.4065
usemtl tiny_treats_1
s 1
f 3/1/1 8/2/1 7/3/1 1/4/1
f 45/5/2 7/6/2 8/7/2 46/8/2
f 9/9/1 10/10/1 11/11/1 12/12/1
f 6/13/3 12/12/3 11/11/3 5/14/3
f 2/15/2 10/10/2 9/9/2 4/16/2
f 18/17/4 14/18/5 16/19/6 20/20/7
f 14/21/5 15/22/8 17/23/8 16/24/6
f 20/25/7 21/26/9 19/27/9 18/28/4
f 15/29/10 14/30/5 18/31/4 19/32/10
f 21/33/11 20/34/7 16/35/6 17/36/11
f 24/37/4 22/38/5 23/39/6 25/40/7
f 22/41/5 19/42/8 21/43/8 23/44/6
f 25/45/7 33/46/9 27/47/9 24/48/4
f 19/49/10 22/50/5 24/51/4 27/52/10
f 33/53/11 25/54/7 23/55/6 21/56/11
f 29/57/4 26/58/5 28/59/6 31/60/7
f 26/61/5 27/62/8 33/63/8 28/64/6
f 31/65/7 32/66/9 30/67/9 29/68/4
f 27/69/10 26/70/5 29/71/4 30/72/10
f 32/73/11 31/74/7 28/75/6 33/76/11
f 36/77/4 34/78/5 35/79/6 37/80/7
f 34/81/5 30/82/8 32/83/8 35/84/6
f 37/85/7 38/86/9 13/87/9 36/88/4
f 30/89/10 34/90/5 36/91/4 13/92/10
f 38/93/11 37/94/7 35/95/6 32/96/11
f 40/97/2 2/15/2 4/16/2 41/98/2
f 43/99/3 44/100/3 6/13/3 5/14/3
f 7/6/12 45/5/12 39/101/12 1/102/12
f 40/97/13 41/98/13 44/100/13 43/99/13
f 39/103/3 42/104/3 3/105/3 1/102/3
f 39/101/13 45/106/13 46/107/13 42/108/13
f 40/97/12 43/99/12 5/14/12 2/15/12
f 10/10/12 2/15/12 5/14/12 11/11/12
f 56/109/14 48/110/14 49/111/15 58/112/15
f 61/113/2 57/114/2 50/115/2 53/116/2
f 52/117/16 60/118/16 62/119/17 54/120/17
f 59/121/18 60/122/16 52/123/16 51/124/18
f 53/125/19 54/126/17 62/127/17 61/128/19
f 56/109/12 60/118/12 59/121/12 55/129/12
f 60/118/12 56/109/12 58/112/12 62/127/12
f 57/114/12 61/113/12 62/127/12 58/130/12
f 47/131/20 48/132/14 56/133/14 55/134/20
f 57/135/21 58/130/15 49/136/15 50/137/21
f 51/138/3 47/139/3 55/129/3 59/140/3
f 72/141/1 64/142/1 65/143/15 74/144/15
f 77/145/2 73/146/2 66/147/2 69/148/2
f 68/149/13 76/150/13 78/151/17 70/152/17
f 75/153/22 76/154/18 68/155/18 67/156/22
f 69/157/19 70/158/17 78/159/17 77/160/19
f 63/161/23 64/162/20 72/163/20 71/164/23
f 73/165/21 74/166/15 65/167/15 66/168/21
f 67/169/22 63/170/23 71/171/23 75/172/22
f 88/173/1 87/174/1 89/175/1 90/176/1
f 92/177/13 94/178/13 93/179/13 91/180/13
f 88/173/24 90/181/24 94/178/24 92/177/24
f 87/174/12 91/180/12 93/179/12 89/182/12
f 93/183/3 94/184/3 90/181/3 89/182/3
f 49/136/24 54/126/24 53/125/24 50/115/24
f 48/110/24 52/117/24 54/120/24 49/136/24
f 47/139/24 51/138/24 52/123/24 48/110/24
f 8/7/24 3/105/24 42/108/24 46/8/24
f 6/13/24 4/16/24 9/9/24 12/12/24
f 41/98/24 4/16/24 6/13/24 44/100/24
f 96/185/1 95/186/1 97/187/1 98/188/1
f 100/189/13 102/190/13 101/191/13 99/192/13
f 102/193/24 98/194/24 97/195/24 101/196/24
f 95/186/12 96/185/12 100/189/12 99/192/12
f 104/197/1 106/198/1 105/199/1 103/200/1
f 108/201/13 107/202/13 109/203/13 110/204/13
f 110/205/12 109/206/12 105/207/12 106/208/12
f 103/200/24 107/202/24 108/201/24 104/197/24
f 111/209/25 148/210/26 155/211/27 152/212/28
f 148/210/26 120/213/29 136/214/30 155/211/27
f 155/211/27 136/214/30 121/215/31 146/216/32
f 152/212/28 155/211/27 146/216/32 116/217/33
f 115/218/34 143/219/35 156/220/36 154/221/37
f 143/219/35 125/222/38 139/223/39 156/220/36
f 156/220/36 139/223/39 124/224/40 144/225/41
f 154/221/37 156/220/36 144/225/41 113/226/42
f 117/227/43 147/228/44 157/229/45 151/230/46
f 147/228/44 126/231/47 140/232/48 157/229/45
f 157/229/45 140/232/48 119/233/49 150/234/50
f 151/230/46 157/229/45 150/234/50 112/235/51
f 118/236/52 130/237/53 158/238/54 153/239/55
f 130/237/53 117/227/43 151/230/46 158/238/54
f 158/238/54 151/230/46 112/235/51 132/240/56
f 153/239/55 158/238/54 132/240/56 114/241/57
f 116/217/33 129/242/58 159/243/59 152/212/28
f 129/242/58 115/218/34 154/221/37 159/243/59
f 159/243/59 154/221/37 113/226/42 131/244/60
f 152/212/28 159/243/59 131/244/60 111/209/25
f 114/245/61 132/246/62 160/247/1 128/248/63
f 132/246/62 112/249/64 127/250/65 160/247/1
f 160/247/1 127/250/65 111/251/66 131/252/67
f 128/248/63 160/247/1 131/252/67 113/253/68
f 116/254/69 133/255/70 161/256/13 129/257/71
f 133/255/70 117/258/72 130/259/73 161/256/13
f 161/256/13 130/259/73 118/260/74 134/261/75
f 129/257/71 161/256/13 134/261/75 115/262/76
f 117/258/72 133/255/70 162/263/77 147/264/78
f 133/255/70 116/254/69 146/265/79 162/263/80
f 162/263/80 146/265/79 121/266/81 141/267/81
f 147/264/78 162/263/77 141/267/82 126/268/82
f 115/262/76 134/261/75 163/269/83 143/270/84
f 134/261/75 118/260/74 149/271/85 163/269/86
f 163/269/86 149/271/85 122/272/87 142/273/87
f 143/270/84 163/269/83 142/273/88 125/274/88
f 114/241/57 145/275/89 164/276/90 153/239/55
f 145/275/89 123/277/91 137/278/92 164/276/90
f 164/276/90 137/278/92 122/279/93 149/280/94
f 153/239/55 164/276/90 149/280/94 118/236/52
f 114/245/61 128/248/63 165/281/95 145/282/96
f 128/248/63 113/253/68 144/283/97 165/281/98
f 165/281/98 144/283/97 124/284/99 138/285/99
f 145/282/96 165/281/95 138/285/100 123/286/100
f 112/249/64 150/287/101 166/288/102 127/250/65
f 150/287/101 119/289/103 135/290/103 166/288/102
f 166/288/104 135/290/105 120/291/105 148/292/106
f 127/250/65 166/288/104 148/292/106 111/251/66
usemtl tiny_treats_1_GLASS
f 79/293/1 80/294/1 82/295/1 81/296/1
f 84/297/13 83/298/13 86/299/13 85/300/13
