# Blender v3.4.1 OBJ File: 'Tiny_Treats_Bubbly_Bathroom_1.1_ASSETS_EXPORT.blend'
# www.blender.org
mtllib wall_modular_tiled_straight_A.mtl
o wall_modular_tiled_straight_A
v -1.000000 -0.000000 0.200696
v -1.000000 4.000000 0.200696
v 1.000000 -0.000000 0.200695
v 1.000000 4.000000 0.200696
v -0.936283 0.063717 0.249419
v -1.000000 -0.000000 0.200696
v -0.936283 0.436283 0.249420
v -1.000000 0.500000 0.200696
v -0.563717 0.063717 0.249419
v -0.500000 -0.000000 0.200696
v -0.563717 0.436283 0.249420
v -0.500000 0.500000 0.200696
v -0.936283 0.563717 0.249420
v -0.936283 0.936283 0.249420
v -1.000000 1.000000 0.200696
v -0.563717 0.563717 0.249420
v -0.563717 0.936283 0.249420
v -0.936283 1.063717 0.249420
v -0.936283 1.436283 0.249420
v -1.000000 1.500000 0.200696
v -0.563717 1.063717 0.249420
v -0.500000 1.000000 0.200696
v -0.563717 1.436283 0.249420
v -0.500000 1.500000 0.200696
v -0.436283 0.063717 0.249419
v -0.436283 0.436283 0.249420
v -0.063717 0.063717 0.249419
v -0.063717 0.436283 0.249420
v -0.436283 0.563717 0.249420
v -0.436283 0.936283 0.249420
v -0.063717 0.563717 0.249420
v -0.063717 0.936283 0.249420
v -0.436283 1.063717 0.249420
v -0.436283 1.436283 0.249420
v -0.063717 1.063717 0.249420
v -0.063717 1.436283 0.249420
v -0.000000 1.500000 0.200696
v 0.063717 0.063717 0.249419
v -0.000000 -0.000000 0.200696
v 0.063717 0.436283 0.249420
v 0.436283 0.063717 0.249419
v 0.500000 -0.000000 0.200696
v 0.436283 0.436283 0.249420
v 0.500000 0.500000 0.200696
v 0.063717 0.563717 0.249420
v -0.000000 0.500000 0.200696
v 0.063717 0.936283 0.249420
v -0.000000 1.000000 0.200696
v 0.436283 0.563717 0.249420
v 0.436283 0.936283 0.249420
v 0.063717 1.063717 0.249420
v 0.063717 1.436283 0.249420
v 0.436283 1.063717 0.249420
v 0.436283 1.436283 0.249420
v 0.563717 0.063717 0.249419
v 0.563717 0.436283 0.249420
v 0.936283 0.063717 0.249419
v 1.000000 -0.000000 0.200696
v 0.936283 0.436283 0.249420
v 0.563717 0.563717 0.249420
v 0.563717 0.936283 0.249420
v 0.500000 1.000000 0.200696
v 0.936283 0.563717 0.249420
v 1.000000 0.500000 0.200696
v 0.936283 0.936283 0.249420
v 0.563717 1.063717 0.249420
v 0.563717 1.436283 0.249420
v 0.500000 1.500000 0.200696
v 0.936283 1.063717 0.249420
v 1.000000 1.000000 0.200696
v 0.936283 1.436283 0.249420
v 1.000000 1.500000 0.200696
v -1.000000 4.000000 0.250580
v 1.000000 4.000000 0.250580
v -1.000000 1.500000 0.200696
v -1.000000 1.560000 0.250580
v 1.000000 1.560000 0.250580
v 1.000000 1.500000 0.200696
v 1.000000 0.000000 -0.000000
v -1.000000 -0.000000 0.000000
v 1.000000 1.500000 -0.000000
v -1.000000 4.000000 0.000001
v 1.000000 4.000000 -0.000000
v -1.000000 1.500000 0.000001
vt 0.165575 0.402077
vt 0.165575 0.344470
vt 0.165575 0.344470
vt 0.165575 0.402077
vt 0.471186 0.818830
vt 0.471186 0.872099
vt 0.400090 0.872099
vt 0.400090 0.818830
vt 0.211706 0.402077
vt 0.211706 0.402077
vt 0.211706 0.344470
vt 0.211706 0.344470
vt 0.461876 0.850622
vt 0.461876 0.899375
vt 0.413123 0.899375
vt 0.413123 0.850622
vt 0.413123 0.819372
vt 0.413123 0.868125
vt 0.404785 0.876463
vt 0.404785 0.811034
vt 0.461876 0.883750
vt 0.461876 0.834997
vt 0.470214 0.826659
vt 0.470214 0.892088
vt 0.404785 0.795409
vt 0.470214 0.795409
vt 0.461876 0.803747
vt 0.413123 0.803747
vt 0.470214 0.938963
vt 0.404785 0.938963
vt 0.413123 0.930625
vt 0.461876 0.930625
vt 0.461876 0.850622
vt 0.461876 0.899375
vt 0.413123 0.899375
vt 0.413123 0.850622
vt 0.413123 0.819372
vt 0.413123 0.868125
vt 0.404785 0.876463
vt 0.404785 0.811034
vt 0.461876 0.883750
vt 0.461876 0.834997
vt 0.470214 0.826659
vt 0.470214 0.892088
vt 0.404785 0.795409
vt 0.470214 0.795409
vt 0.461876 0.803747
vt 0.413123 0.803747
vt 0.470214 0.938963
vt 0.404785 0.938963
vt 0.413123 0.930625
vt 0.461876 0.930625
vt 0.461876 0.850622
vt 0.461876 0.899375
vt 0.413123 0.899375
vt 0.413123 0.850622
vt 0.413123 0.819372
vt 0.413123 0.868125
vt 0.404785 0.876463
vt 0.404785 0.811034
vt 0.461876 0.883750
vt 0.461876 0.834997
vt 0.470214 0.826659
vt 0.470214 0.892088
vt 0.404785 0.795409
vt 0.470214 0.795409
vt 0.461876 0.803747
vt 0.413123 0.803747
vt 0.470214 0.938963
vt 0.404785 0.938963
vt 0.413123 0.930625
vt 0.461876 0.930625
vt 0.461876 0.850622
vt 0.461876 0.899375
vt 0.413123 0.899375
vt 0.413123 0.850622
vt 0.413123 0.819372
vt 0.413123 0.868125
vt 0.404785 0.876463
vt 0.404785 0.811034
vt 0.461876 0.883750
vt 0.461876 0.834997
vt 0.470214 0.826659
vt 0.470214 0.892088
vt 0.404785 0.795409
vt 0.470214 0.795409
vt 0.461876 0.803747
vt 0.413123 0.803747
vt 0.470214 0.938963
vt 0.404785 0.938963
vt 0.413123 0.930625
vt 0.461876 0.930625
vt 0.461876 0.850622
vt 0.461876 0.899375
vt 0.413123 0.899375
vt 0.413123 0.850622
vt 0.413123 0.819372
vt 0.413123 0.868125
vt 0.404785 0.876463
vt 0.404785 0.811034
vt 0.461876 0.883750
vt 0.461876 0.834997
vt 0.470214 0.826659
vt 0.470214 0.892088
vt 0.404785 0.795409
vt 0.470214 0.795409
vt 0.461876 0.803747
vt 0.413123 0.803747
vt 0.470214 0.938963
vt 0.404785 0.938963
vt 0.413123 0.930625
vt 0.461876 0.930625
vt 0.461876 0.850622
vt 0.461876 0.899375
vt 0.413123 0.899375
vt 0.413123 0.850622
vt 0.413123 0.819372
vt 0.413123 0.868125
vt 0.404785 0.876463
vt 0.404785 0.811034
vt 0.461876 0.883750
vt 0.461876 0.834997
vt 0.470214 0.826659
vt 0.470214 0.892088
vt 0.404785 0.795409
vt 0.470214 0.795409
vt 0.461876 0.803747
vt 0.413123 0.803747
vt 0.470214 0.938963
vt 0.404785 0.938963
vt 0.413123 0.930625
vt 0.461876 0.930625
vt 0.461876 0.850622
vt 0.461876 0.899375
vt 0.413123 0.899375
vt 0.413123 0.850622
vt 0.413123 0.819372
vt 0.413123 0.868125
vt 0.404785 0.876463
vt 0.404785 0.811034
vt 0.461876 0.883750
vt 0.461876 0.834997
vt 0.470214 0.826659
vt 0.470214 0.892088
vt 0.404785 0.795409
vt 0.470214 0.795409
vt 0.461876 0.803747
vt 0.413123 0.803747
vt 0.470214 0.938963
vt 0.404785 0.938963
vt 0.413123 0.930625
vt 0.461876 0.930625
vt 0.461876 0.850622
vt 0.461876 0.899375
vt 0.413123 0.899375
vt 0.413123 0.850622
vt 0.413123 0.819372
vt 0.413123 0.868125
vt 0.404785 0.876463
vt 0.404785 0.811034
vt 0.461876 0.883750
vt 0.461876 0.834997
vt 0.470214 0.826659
vt 0.470214 0.892088
vt 0.404785 0.795409
vt 0.470214 0.795409
vt 0.461876 0.803747
vt 0.413123 0.803747
vt 0.470214 0.938963
vt 0.404785 0.938963
vt 0.413123 0.930625
vt 0.461876 0.930625
vt 0.461876 0.850622
vt 0.461876 0.899375
vt 0.413123 0.899375
vt 0.413123 0.850622
vt 0.413123 0.819372
vt 0.413123 0.868125
vt 0.404785 0.876463
vt 0.404785 0.811034
vt 0.461876 0.883750
vt 0.461876 0.834997
vt 0.470214 0.826659
vt 0.470214 0.892088
vt 0.404785 0.795409
vt 0.470214 0.795409
vt 0.461876 0.803747
vt 0.413123 0.803747
vt 0.470214 0.938963
vt 0.404785 0.938963
vt 0.413123 0.930625
vt 0.461876 0.930625
vt 0.461876 0.850622
vt 0.461876 0.899375
vt 0.413123 0.899375
vt 0.413123 0.850622
vt 0.413123 0.819372
vt 0.413123 0.868125
vt 0.404785 0.876463
vt 0.404785 0.811034
vt 0.461876 0.883750
vt 0.461876 0.834997
vt 0.470214 0.826659
vt 0.470214 0.892088
vt 0.404785 0.795409
vt 0.470214 0.795409
vt 0.461876 0.803747
vt 0.413123 0.803747
vt 0.470214 0.938963
vt 0.404785 0.938963
vt 0.413123 0.930625
vt 0.461876 0.930625
vt 0.461876 0.850622
vt 0.461876 0.899375
vt 0.413123 0.899375
vt 0.413123 0.850622
vt 0.413123 0.819372
vt 0.413123 0.868125
vt 0.404785 0.876463
vt 0.404785 0.811034
vt 0.461876 0.883750
vt 0.461876 0.834997
vt 0.470214 0.826659
vt 0.470214 0.892088
vt 0.404785 0.795409
vt 0.470214 0.795409
vt 0.461876 0.803747
vt 0.413123 0.803747
vt 0.470214 0.938963
vt 0.404785 0.938963
vt 0.413123 0.930625
vt 0.461876 0.930625
vt 0.461876 0.850622
vt 0.461876 0.899375
vt 0.413123 0.899375
vt 0.413123 0.850622
vt 0.413123 0.819372
vt 0.413123 0.868125
vt 0.404785 0.876463
vt 0.404785 0.811034
vt 0.461876 0.883750
vt 0.461876 0.834997
vt 0.470214 0.826659
vt 0.470214 0.892088
vt 0.404785 0.795409
vt 0.470214 0.795409
vt 0.461876 0.803747
vt 0.413123 0.803747
vt 0.470214 0.938963
vt 0.404785 0.938963
vt 0.413123 0.930625
vt 0.461876 0.930625
vt 0.211706 0.345852
vt 0.211706 0.402077
vt 0.165575 0.402077
vt 0.165575 0.345852
vt 0.211706 0.314602
vt 0.165575 0.314602
vt 0.165575 0.313220
vt 0.211706 0.313220
vt 0.471186 0.818830
vt 0.471186 0.872099
vt 0.400090 0.872099
vt 0.400090 0.818830
vt 0.478768 0.815443
vt 0.411944 0.815443
vt 0.411944 0.815443
vt 0.478768 0.815443
vn -1.0000 0.0000 -0.0000
vn 0.0000 -0.0000 1.0000
vn 0.0000 -0.3399 0.9405
vn 1.0000 0.0000 0.0000
vn 0.2484 -0.2484 0.9363
vn 0.2484 0.2484 0.9363
vn -0.2484 0.2484 0.9363
vn -0.2484 -0.2484 0.9363
vn -0.6074 -0.0000 0.7944
vn 0.6074 -0.0000 0.7944
vn 0.0000 -0.6074 0.7944
vn 0.0000 0.6074 0.7944
vn 0.0000 1.0000 0.0000
vn 0.0000 -0.6393 0.7690
vn -0.0000 -1.0000 -0.0000
usemtl tiny_treats_1
s 1
f 82/1/1 84/2/1 75/3/1 2/4/1
f 3/5/2 78/6/3 75/7/3 1/8/2
f 83/9/4 4/10/4 78/11/4 81/12/4
f 9/13/5 11/14/6 7/15/7 5/16/8
f 5/17/8 7/18/7 8/19/9 6/20/9
f 11/21/6 9/22/5 10/23/10 12/24/10
f 6/25/11 10/26/11 9/27/5 5/28/8
f 12/29/12 8/30/12 7/31/7 11/32/6
f 16/33/5 17/34/6 14/35/7 13/36/8
f 13/37/8 14/38/7 15/39/9 8/40/9
f 17/41/6 16/42/5 12/43/10 22/44/10
f 8/45/11 12/46/11 16/47/5 13/48/8
f 22/49/12 15/50/12 14/51/7 17/52/6
f 21/53/5 23/54/6 19/55/7 18/56/8
f 18/57/8 19/58/7 20/59/9 15/60/9
f 23/61/6 21/62/5 22/63/10 24/64/10
f 15/65/11 22/66/11 21/67/5 18/68/8
f 24/69/12 20/70/12 19/71/7 23/72/6
f 27/73/5 28/74/6 26/75/7 25/76/8
f 25/77/8 26/78/7 12/79/9 10/80/9
f 28/81/6 27/82/5 39/83/10 46/84/10
f 10/85/11 39/86/11 27/87/5 25/88/8
f 46/89/12 12/90/12 26/91/7 28/92/6
f 31/93/5 32/94/6 30/95/7 29/96/8
f 29/97/8 30/98/7 22/99/9 12/100/9
f 32/101/6 31/102/5 46/103/10 48/104/10
f 12/105/11 46/106/11 31/107/5 29/108/8
f 48/109/12 22/110/12 30/111/7 32/112/6
f 35/113/5 36/114/6 34/115/7 33/116/8
f 33/117/8 34/118/7 24/119/9 22/120/9
f 36/121/6 35/122/5 48/123/10 37/124/10
f 22/125/11 48/126/11 35/127/5 33/128/8
f 37/129/12 24/130/12 34/131/7 36/132/6
f 41/133/5 43/134/6 40/135/7 38/136/8
f 38/137/8 40/138/7 46/139/9 39/140/9
f 43/141/6 41/142/5 42/143/10 44/144/10
f 39/145/11 42/146/11 41/147/5 38/148/8
f 44/149/12 46/150/12 40/151/7 43/152/6
f 49/153/5 50/154/6 47/155/7 45/156/8
f 45/157/8 47/158/7 48/159/9 46/160/9
f 50/161/6 49/162/5 44/163/10 62/164/10
f 46/165/11 44/166/11 49/167/5 45/168/8
f 62/169/12 48/170/12 47/171/7 50/172/6
f 53/173/5 54/174/6 52/175/7 51/176/8
f 51/177/8 52/178/7 37/179/9 48/180/9
f 54/181/6 53/182/5 62/183/10 68/184/10
f 48/185/11 62/186/11 53/187/5 51/188/8
f 68/189/12 37/190/12 52/191/7 54/192/6
f 57/193/5 59/194/6 56/195/7 55/196/8
f 55/197/8 56/198/7 44/199/9 42/200/9
f 59/201/6 57/202/5 58/203/10 64/204/10
f 42/205/11 58/206/11 57/207/5 55/208/8
f 64/209/12 44/210/12 56/211/7 59/212/6
f 63/213/5 65/214/6 61/215/7 60/216/8
f 60/217/8 61/218/7 62/219/9 44/220/9
f 65/221/6 63/222/5 64/223/10 70/224/10
f 44/225/11 64/226/11 63/227/5 60/228/8
f 70/229/12 62/230/12 61/231/7 65/232/6
f 69/233/5 71/234/6 67/235/7 66/236/8
f 66/237/8 67/238/7 68/239/9 62/240/9
f 71/241/6 69/242/5 70/243/10 72/244/10
f 62/245/11 70/246/11 69/247/5 66/248/8
f 72/249/12 68/250/12 67/251/7 71/252/6
f 77/253/2 74/254/2 73/255/2 76/256/2
f 4/10/13 2/4/13 73/255/13 74/254/13
f 78/11/4 4/10/4 74/254/4 77/253/4
f 77/257/14 76/258/14 75/259/3 78/260/3
f 2/4/1 75/3/1 76/256/1 73/255/1
f 3/5/4 79/261/4 81/262/4 78/6/4
f 1/8/1 75/7/1 84/263/1 80/264/1
f 2/4/13 4/10/13 83/9/13 82/1/13
f 3/265/15 1/266/15 80/267/15 79/268/15
