# Blender v3.4.1 OBJ File: 'Tiny_Treats_Bubbly_Bathroom_1.1_ASSETS_EXPORT.blend'
# www.blender.org
mtllib wall_modular_tiled_doorway.mtl
o wall_modular_tiled_doorway
v 1.000000 4.000000 0.250000
v -1.000000 4.000000 0.250000
v 1.000000 3.000000 0.250000
v -1.000000 3.000000 0.250000
v 1.000000 -0.000000 0.150000
v -1.000000 -0.000000 0.150000
v 1.000000 3.000000 0.150000
v -1.000000 3.000000 0.150000
v 0.800000 -0.000000 0.150000
v -0.800000 -0.000000 0.150000
v 0.800000 2.800000 0.150000
v -0.800000 2.800000 0.150000
v 1.000000 3.000000 0.000000
v -1.000000 3.000000 0.000000
v 1.000000 4.000000 0.000000
v -1.000000 4.000000 0.000000
v 1.000000 3.000000 0.000000
v -1.000000 3.000000 0.000000
v 1.000000 0.000000 0.000000
v -1.000000 0.000000 -0.000000
v 0.800000 0.000000 0.000000
v -0.800000 0.000000 -0.000000
v 0.800000 2.800000 0.000000
v -0.800000 2.800000 0.000000
vt 0.961794 0.937180
vt 0.956892 0.933371
vt 0.956892 0.880044
vt 0.961794 0.880044
vt 0.912776 0.937180
vt 0.912776 0.880044
vt 0.917678 0.880044
vt 0.917678 0.933371
vt 0.956892 0.880044
vt 0.961794 0.880044
vt 0.912776 0.880044
vt 0.917678 0.880044
vt 0.956892 0.892011
vt 0.917678 0.892011
vt 0.917678 0.892011
vt 0.956892 0.892011
vt 0.956892 0.859364
vt 0.956892 0.912691
vt 0.956892 0.912691
vt 0.956892 0.859364
vt 0.917678 0.859364
vt 0.917678 0.859364
vt 0.917678 0.912691
vt 0.917678 0.912691
vt 0.912776 0.937180
vt 0.961794 0.937180
vt 0.208009 0.382566
vt 0.208009 0.382566
vt 0.169332 0.382566
vt 0.169332 0.382566
vt 0.208009 0.401886
vt 0.169332 0.401886
vt 0.169332 0.401886
vt 0.208009 0.401886
vn -0.0000 -0.0000 1.0000
vn 0.0000 -1.0000 -0.0000
vn -1.0000 0.0000 0.0000
vn 1.0000 0.0000 -0.0000
vn 0.0000 1.0000 0.0000
usemtl tiny_treats_1
s off
f 7/1/1 11/2/1 9/3/1 5/4/1
f 8/5/1 6/6/1 10/7/1 12/8/1
f 8/5/1 12/8/1 11/2/1 7/1/1
f 5/4/2 9/3/2 21/9/2 19/10/2
f 6/6/2 20/11/2 22/12/2 10/7/2
f 11/13/2 12/14/2 24/15/2 23/16/2
f 9/17/3 11/18/3 23/19/3 21/20/3
f 10/21/4 22/22/4 24/23/4 12/24/4
f 8/5/3 18/25/3 20/11/3 6/6/3
f 7/1/4 5/4/4 19/10/4 17/26/4
s 1
f 13/27/2 3/28/2 4/29/2 14/30/2
f 15/31/5 16/32/5 2/33/5 1/34/5
f 2/33/1 4/29/1 3/28/1 1/34/1
f 3/28/4 13/27/4 15/31/4 1/34/4
f 4/29/3 2/33/3 16/32/3 14/30/3
