# Blender v3.4.1 OBJ File: 'Tiny_Treats_Bubbly_Bathroom_1.1_ASSETS_EXPORT.blend'
# www.blender.org
mtllib wall_modular_tiled_window_full_center_A.mtl
o wall_modular_tiled_window_full_center_A
v -1.000000 -0.000000 0.200807
v -1.000000 4.000000 0.200806
v 1.000000 0.000000 0.200806
v 1.000000 4.000000 0.200806
v -1.000000 3.500000 0.200806
v 1.000000 3.500000 0.200806
v -1.000000 0.500000 0.200806
v 1.000000 0.500000 0.200806
v 1.000000 4.000000 0.250806
v -1.000000 4.000000 0.250806
v -1.000000 3.500000 0.250806
v 1.000000 3.500000 0.250806
v -1.000000 -0.000000 0.200807
v 0.936283 0.063717 0.250807
v 1.000000 -0.000000 0.200807
v 0.936283 0.436283 0.250807
v 1.000000 0.500000 0.200807
v 0.563717 0.063717 0.250807
v 0.500000 -0.000000 0.200807
v 0.563717 0.436283 0.250807
v 0.500000 0.500000 0.200807
v 0.436283 0.063717 0.250807
v 0.436283 0.436283 0.250807
v 0.063717 0.063717 0.250807
v 0.063717 0.436283 0.250807
v -0.063717 0.063717 0.250807
v 0.000000 -0.000000 0.200807
v -0.063717 0.436283 0.250807
v -0.436283 0.063717 0.250807
v -0.500000 -0.000000 0.200807
v -0.436283 0.436283 0.250807
v -0.500000 0.500000 0.200807
v 0.000000 0.500000 0.200807
v -0.563717 0.063717 0.250807
v -0.563717 0.436283 0.250807
v -0.936283 0.063717 0.250807
v -0.936283 0.436283 0.250807
v -1.000000 0.500000 0.200807
v 1.000000 3.500000 0.000000
v -1.000000 4.000000 0.000000
v -1.000000 3.500000 0.000000
v 1.000000 4.000000 0.000000
v 1.000000 0.000000 0.000000
v -1.000000 -0.000000 0.000000
v -1.000000 0.500000 0.000000
v 1.000000 0.500000 0.000000
vt 0.409246 0.819082
vt 0.409246 0.854734
vt 0.462062 0.854734
vt 0.462062 0.819082
vt 0.462062 0.917234
vt 0.462062 0.917234
vt 0.409246 0.917234
vt 0.409246 0.917234
vt 0.163245 0.402077
vt 0.209376 0.402077
vt 0.203610 0.379034
vt 0.169473 0.379034
vt 0.169473 0.379034
vt 0.203610 0.379034
vt 0.209376 0.402077
vt 0.163245 0.402077
vt 0.461876 0.850622
vt 0.413123 0.850622
vt 0.413123 0.899375
vt 0.461876 0.899375
vt 0.413123 0.819372
vt 0.404785 0.811034
vt 0.404785 0.876463
vt 0.413123 0.868125
vt 0.461876 0.883750
vt 0.470214 0.892088
vt 0.470214 0.826659
vt 0.461876 0.834997
vt 0.404785 0.795409
vt 0.413123 0.803747
vt 0.461876 0.803747
vt 0.470214 0.795409
vt 0.470214 0.938963
vt 0.461876 0.930625
vt 0.413123 0.930625
vt 0.404785 0.938963
vt 0.461876 0.850622
vt 0.413123 0.850622
vt 0.413123 0.899375
vt 0.461876 0.899375
vt 0.413123 0.819372
vt 0.404785 0.811034
vt 0.404785 0.876463
vt 0.413123 0.868125
vt 0.461876 0.883750
vt 0.470214 0.892088
vt 0.470214 0.826659
vt 0.461876 0.834997
vt 0.404785 0.795409
vt 0.413123 0.803747
vt 0.461876 0.803747
vt 0.470214 0.795409
vt 0.470214 0.938963
vt 0.461876 0.930625
vt 0.413123 0.930625
vt 0.404785 0.938963
vt 0.461876 0.850622
vt 0.413123 0.850622
vt 0.413123 0.899375
vt 0.461876 0.899375
vt 0.413123 0.819372
vt 0.404785 0.811034
vt 0.404785 0.876463
vt 0.413123 0.868125
vt 0.461876 0.883750
vt 0.470214 0.892088
vt 0.470214 0.826659
vt 0.461876 0.834997
vt 0.404785 0.795409
vt 0.413123 0.803747
vt 0.461876 0.803747
vt 0.470214 0.795409
vt 0.470214 0.938963
vt 0.461876 0.930625
vt 0.413123 0.930625
vt 0.404785 0.938963
vt 0.461876 0.850622
vt 0.413123 0.850622
vt 0.413123 0.899375
vt 0.461876 0.899375
vt 0.413123 0.819372
vt 0.404785 0.811034
vt 0.404785 0.876463
vt 0.413123 0.868125
vt 0.461876 0.883750
vt 0.470214 0.892088
vt 0.470214 0.826659
vt 0.461876 0.834997
vt 0.404785 0.795409
vt 0.413123 0.803747
vt 0.461876 0.803747
vt 0.470214 0.795409
vt 0.470214 0.938963
vt 0.461876 0.930625
vt 0.413123 0.930625
vt 0.404785 0.938963
vt 0.209376 0.402077
vt 0.163245 0.402077
vt 0.203495 0.379034
vt 0.169358 0.379034
vt 0.471802 0.815299
vt 0.420115 0.815299
vt 0.420115 0.815299
vt 0.471802 0.815299
vt 0.414681 0.817191
vt 0.466932 0.817191
vn 0.0000 0.0000 1.0000
vn 0.0000 1.0000 0.0000
vn 0.0000 -1.0000 0.0000
vn -0.2533 -0.2533 0.9336
vn 0.2533 -0.2533 0.9336
vn 0.2533 0.2533 0.9336
vn -0.2533 0.2533 0.9336
vn 0.6173 0.0000 0.7867
vn -0.6173 0.0000 0.7867
vn 0.0000 -0.6173 0.7867
vn 0.0000 0.6173 0.7867
vn -1.0000 0.0000 -0.0000
vn 1.0000 0.0000 0.0000
usemtl tiny_treats_1
s 1
f 3/1/1 8/2/1 7/3/1 1/4/1
f 45/5/2 7/6/2 8/7/2 46/8/2
f 9/9/1 10/10/1 11/11/1 12/12/1
f 6/13/3 12/12/3 11/11/3 5/14/3
f 2/15/2 10/10/2 9/9/2 4/16/2
f 18/17/4 14/18/5 16/19/6 20/20/7
f 14/21/5 15/22/8 17/23/8 16/24/6
f 20/25/7 21/26/9 19/27/9 18/28/4
f 15/29/10 14/30/5 18/31/4 19/32/10
f 21/33/11 20/34/7 16/35/6 17/36/11
f 24/37/4 22/38/5 23/39/6 25/40/7
f 22/41/5 19/42/8 21/43/8 23/44/6
f 25/45/7 33/46/9 27/47/9 24/48/4
f 19/49/10 22/50/5 24/51/4 27/52/10
f 33/53/11 25/54/7 23/55/6 21/56/11
f 29/57/4 26/58/5 28/59/6 31/60/7
f 26/61/5 27/62/8 33/63/8 28/64/6
f 31/65/7 32/66/9 30/67/9 29/68/4
f 27/69/10 26/70/5 29/71/4 30/72/10
f 32/73/11 31/74/7 28/75/6 33/76/11
f 36/77/4 34/78/5 35/79/6 37/80/7
f 34/81/5 30/82/8 32/83/8 35/84/6
f 37/85/7 38/86/9 13/87/9 36/88/4
f 30/89/10 34/90/5 36/91/4 13/92/10
f 38/93/11 37/94/7 35/95/6 32/96/11
f 40/97/2 2/15/2 4/16/2 42/98/2
f 41/99/3 39/100/3 6/13/3 5/14/3
f 44/101/3 43/102/3 3/103/3 1/104/3
f 40/97/12 41/99/12 5/14/12 2/15/12
f 10/10/12 2/15/12 5/14/12 11/11/12
f 6/13/13 4/16/13 9/9/13 12/12/13
f 42/98/13 4/16/13 6/13/13 39/100/13
f 8/7/13 3/103/13 43/105/13 46/8/13
f 7/6/12 45/5/12 44/106/12 1/104/12
