# Blender v3.4.1 OBJ File: 'Tiny_Treats_Bubbly_Bathroom_1.1_ASSETS_EXPORT.blend'
# www.blender.org
mtllib wall_tiled_window_large.mtl
o wall_tiled_window_large
v 1.000000 -0.000000 0.200807
v 1.000000 4.000000 0.200807
v -1.000000 -0.000000 0.200806
v -1.000000 4.000000 0.200807
v 0.750000 3.500000 0.200807
v -0.750000 3.500000 0.200807
v 0.750000 0.500000 0.200806
v -0.750000 0.500000 0.200806
v 0.750000 1.500000 0.200806
v -0.750000 1.500000 0.200806
v 1.000000 1.500000 0.200806
v -1.000000 1.500000 0.200806
v -1.000000 4.000000 0.250807
v 1.000000 4.000000 0.250807
v 0.750000 3.500000 0.250807
v -0.750000 3.500000 0.250807
v 0.750000 1.560000 0.250806
v -0.750000 1.560000 0.250806
v -1.000000 1.560000 0.250806
v 1.000000 1.560000 0.250806
v 1.000000 -0.000000 0.200807
v -0.936283 0.063717 0.250807
v -1.000000 -0.000000 0.200807
v -0.936283 0.436283 0.250807
v -1.000000 0.500000 0.200807
v -0.563717 0.063717 0.250807
v -0.500000 -0.000000 0.200807
v -0.563717 0.436283 0.250807
v -0.500000 0.500000 0.200807
v -0.436283 0.063717 0.250807
v -0.436283 0.436283 0.250807
v -0.063717 0.063717 0.250807
v -0.063717 0.436283 0.250807
v 0.063717 0.063717 0.250807
v -0.000000 -0.000000 0.200807
v 0.063717 0.436283 0.250807
v 0.436283 0.063717 0.250807
v 0.500000 -0.000000 0.200807
v 0.436283 0.436283 0.250807
v 0.500000 0.500000 0.200807
v -0.000000 0.500000 0.200807
v 0.563717 0.063717 0.250807
v 0.563717 0.436283 0.250807
v 0.936283 0.063717 0.250807
v 0.936283 0.436283 0.250807
v 1.000000 0.500000 0.200807
v 1.000000 0.000000 -0.249194
v 1.000000 4.000000 -0.249193
v -1.000000 4.000000 -0.249194
v -1.000000 0.000000 -0.249194
v 0.750000 3.500000 -0.249193
v -0.750000 3.500000 -0.249194
v 0.750000 0.500000 -0.249194
v -0.750000 0.500000 -0.249194
v 0.750000 1.500000 -0.249194
v -0.750000 1.500000 -0.249194
v 1.000000 1.500000 -0.249193
v -1.000000 1.500000 -0.249194
v -0.800000 0.475000 0.450806
v -0.800000 0.525000 0.500806
v -0.850000 0.525000 0.450806
v -0.800000 0.675000 0.500806
v -0.800000 0.725000 0.450806
v -0.850000 0.675000 0.450806
v -0.800000 0.475000 -0.449194
v -0.850000 0.525000 -0.449194
v -0.800000 0.525000 -0.499194
v -0.800000 0.725000 -0.449194
v -0.800000 0.675000 -0.499194
v -0.850000 0.675000 -0.449194
v 0.800000 0.475000 0.450806
v 0.850000 0.525000 0.450806
v 0.800000 0.525000 0.500806
v 0.800000 0.725000 0.450806
v 0.800000 0.675000 0.500806
v 0.850000 0.675000 0.450806
v 0.800000 0.475000 -0.449194
v 0.800000 0.525000 -0.499194
v 0.850000 0.525000 -0.449194
v 0.800000 0.725000 -0.449194
v 0.850000 0.675000 -0.449194
v 0.800000 0.675000 -0.499194
v -0.620000 1.790320 0.070806
v -0.620000 1.820320 0.100806
v -0.620000 1.960319 0.100806
v -0.620000 1.990320 0.070806
v -0.620000 1.790320 -0.069194
v -0.620000 1.820320 -0.099194
v -0.620000 1.990320 -0.069194
v -0.620000 1.960319 -0.099194
v 0.620000 1.790320 0.070806
v 0.620000 1.820320 0.100806
v 0.620000 1.990320 0.070806
v 0.620000 1.960319 0.100806
v 0.620000 1.790320 -0.069194
v 0.620000 1.820320 -0.099194
v 0.620000 1.990320 -0.069194
v 0.620000 1.960319 -0.099194
v -0.172549 1.864296 0.207302
v -0.172549 1.935704 0.207302
v 0.172549 1.864296 0.207302
v 0.172549 1.935704 0.207302
v 0.119608 1.864296 0.141125
v -0.119608 1.864296 0.141125
v -0.119608 1.935704 0.141125
v 0.119608 1.935704 0.141125
v -0.258823 1.935704 0.041248
v -0.258823 1.864296 0.041248
v -0.179412 1.864296 0.041248
v 0.179412 1.935704 0.041248
v 0.258824 1.935704 0.041248
v 0.258824 1.864296 0.041248
v 0.179412 1.864296 0.041248
v -0.179412 1.935704 0.041248
v -0.182475 1.900000 0.219710
v 0.182476 1.900000 0.219710
v 0.000000 1.864296 0.156107
v 0.000000 1.935704 0.156107
v 0.000000 1.864296 0.232210
v 0.000000 1.935704 0.232210
v -0.109681 1.900000 0.128717
v 0.109681 1.900000 0.128717
v -0.273713 1.900000 0.041248
v -0.219118 1.850907 0.041248
v 0.219118 1.949093 0.041248
v 0.273713 1.900000 0.041248
v 0.219118 1.850907 0.041248
v -0.219118 1.949093 0.041248
v -0.164522 1.900000 0.041248
v 0.164522 1.900000 0.041248
v 0.171936 1.864296 0.098677
v 0.248039 1.864296 0.136729
v 0.248039 1.935704 0.136729
v -0.171936 1.864296 0.098677
v -0.171936 1.935704 0.098677
v -0.248039 1.864296 0.136729
v 0.171936 1.935704 0.098677
v -0.248039 1.935704 0.136729
v -0.146078 1.949093 0.174213
v -0.146078 1.850907 0.174213
v 0.146078 1.949093 0.174213
v 0.146078 1.850907 0.174213
v -0.209988 1.850907 0.117703
v 0.209988 1.850907 0.117703
v -0.209988 1.949093 0.117703
v 0.000000 1.949093 0.194158
v 0.000000 1.850907 0.194158
v 0.000000 1.900000 0.246479
v 0.000000 1.900000 0.141837
v -0.157667 1.900000 0.091543
v 0.157667 1.900000 0.091543
v 0.209988 1.949093 0.117703
v 0.262309 1.900000 0.143863
v -0.262308 1.900000 0.143863
v -0.700000 1.890320 0.000806
v 0.700000 1.890320 0.000806
v -0.700000 3.390320 0.000807
v 0.700000 3.390320 0.000807
v -0.700000 3.390320 -0.049193
v -0.700000 1.890320 -0.049194
v 0.700000 1.890320 -0.049194
v 0.700000 3.390320 -0.049193
v 0.750000 0.699999 0.150806
v -0.750000 0.699999 0.150806
v 0.750000 3.500000 0.150807
v -0.750000 3.500000 0.150807
v 0.540000 0.699999 0.150806
v -0.540000 0.699999 0.150806
v 0.540000 3.300000 0.150807
v -0.540000 3.300000 0.150807
v 0.750000 0.699999 -0.149194
v -0.750000 0.699999 -0.149194
v 0.750000 3.500000 -0.149193
v -0.750000 3.500000 -0.149193
v 0.540000 0.699999 -0.149194
v -0.540000 0.699999 -0.149194
v 0.540000 3.300000 -0.149193
v -0.540000 3.300000 -0.149193
vt 0.409246 0.819082
vt 0.462062 0.819082
vt 0.462062 0.854734
vt 0.409246 0.854734
vt 0.409246 0.872560
vt 0.399968 0.872560
vt 0.471340 0.872560
vt 0.471340 0.819082
vt 0.471340 0.819082
vt 0.471340 0.872560
vt 0.203610 0.379034
vt 0.203379 0.344470
vt 0.203379 0.345852
vt 0.203610 0.379034
vt 0.409246 0.854734
vt 0.409246 0.872560
vt 0.462062 0.872560
vt 0.462062 0.917234
vt 0.409246 0.917234
vt 0.409246 0.917234
vt 0.462062 0.917234
vt 0.203379 0.379034
vt 0.203379 0.344470
vt 0.163245 0.402077
vt 0.163245 0.344470
vt 0.163245 0.345852
vt 0.163245 0.402077
vt 0.169242 0.344470
vt 0.169473 0.379034
vt 0.169473 0.379034
vt 0.169242 0.345852
vt 0.209376 0.402077
vt 0.209376 0.345852
vt 0.163245 0.313220
vt 0.169242 0.313220
vt 0.169242 0.314602
vt 0.163245 0.314602
vt 0.203379 0.313220
vt 0.209376 0.313220
vt 0.209376 0.314602
vt 0.203379 0.314602
vt 0.165575 0.344470
vt 0.165575 0.402077
vt 0.165575 0.402077
vt 0.165575 0.345852
vt 0.209376 0.402077
vt 0.461876 0.850622
vt 0.461876 0.899375
vt 0.413123 0.899375
vt 0.413123 0.850622
vt 0.413123 0.819372
vt 0.413123 0.868125
vt 0.404785 0.876463
vt 0.404785 0.811034
vt 0.461876 0.883750
vt 0.461876 0.834997
vt 0.470214 0.826659
vt 0.470214 0.892088
vt 0.404785 0.795409
vt 0.470214 0.795409
vt 0.461876 0.803747
vt 0.413123 0.803747
vt 0.470214 0.938963
vt 0.404785 0.938963
vt 0.413123 0.930625
vt 0.461876 0.930625
vt 0.461876 0.850622
vt 0.461876 0.899375
vt 0.413123 0.899375
vt 0.413123 0.850622
vt 0.413123 0.819372
vt 0.413123 0.868125
vt 0.404785 0.876463
vt 0.404785 0.811034
vt 0.461876 0.883750
vt 0.461876 0.834997
vt 0.470214 0.826659
vt 0.470214 0.892088
vt 0.404785 0.795409
vt 0.470214 0.795409
vt 0.461876 0.803747
vt 0.413123 0.803747
vt 0.470214 0.938963
vt 0.404785 0.938963
vt 0.413123 0.930625
vt 0.461876 0.930625
vt 0.461876 0.850622
vt 0.461876 0.899375
vt 0.413123 0.899375
vt 0.413123 0.850622
vt 0.413123 0.819372
vt 0.413123 0.868125
vt 0.404785 0.876463
vt 0.404785 0.811034
vt 0.461876 0.883750
vt 0.461876 0.834997
vt 0.470214 0.826659
vt 0.470214 0.892088
vt 0.404785 0.795409
vt 0.470214 0.795409
vt 0.461876 0.803747
vt 0.413123 0.803747
vt 0.470214 0.938963
vt 0.404785 0.938963
vt 0.413123 0.930625
vt 0.461876 0.930625
vt 0.461876 0.850622
vt 0.461876 0.899375
vt 0.413123 0.899375
vt 0.413123 0.850622
vt 0.413123 0.819372
vt 0.413123 0.868125
vt 0.404785 0.876463
vt 0.404785 0.811034
vt 0.461876 0.883750
vt 0.461876 0.834997
vt 0.470214 0.826659
vt 0.470214 0.892088
vt 0.404785 0.795409
vt 0.470214 0.795409
vt 0.461876 0.803747
vt 0.413123 0.803747
vt 0.470214 0.938963
vt 0.404785 0.938963
vt 0.413123 0.930625
vt 0.461876 0.930625
vt 0.209376 0.402077
vt 0.163245 0.402077
vt 0.399968 0.935060
vt 0.399968 0.881582
vt 0.399968 0.881582
vt 0.399968 0.935060
vt 0.169242 0.379034
vt 0.462062 0.872560
vt 0.462062 0.854734
vt 0.209376 0.344470
vt 0.169242 0.344470
vt 0.163245 0.344470
vt 0.471802 0.815299
vt 0.471802 0.815299
vt 0.420115 0.815299
vt 0.420115 0.815299
vt 0.462062 0.819082
vt 0.409246 0.819082
vt 0.399968 0.819082
vt 0.399968 0.872560
vt 0.165575 0.344470
vt 0.165575 0.402077
vt 0.982823 0.877541
vt 0.982823 0.892785
vt 0.892177 0.892785
vt 0.892177 0.877541
vt 0.986060 0.877541
vt 0.986060 0.892785
vt 0.986060 0.892785
vt 0.986060 0.877541
vt 0.982823 0.929116
vt 0.892177 0.929116
vt 0.892177 0.929116
vt 0.982823 0.929116
vt 0.888940 0.877541
vt 0.888940 0.892785
vt 0.888940 0.892785
vt 0.888940 0.877541
vt 0.892177 0.877541
vt 0.892177 0.892785
vt 0.982823 0.892785
vt 0.982823 0.877541
vt 0.892177 0.856834
vt 0.892177 0.861916
vt 0.888940 0.861916
vt 0.892177 0.939660
vt 0.892177 0.944741
vt 0.888940 0.939660
vt 0.892177 0.856834
vt 0.888940 0.861916
vt 0.892177 0.861916
vt 0.892177 0.944741
vt 0.892177 0.939660
vt 0.888940 0.939660
vt 0.982823 0.856834
vt 0.986060 0.861916
vt 0.982823 0.861916
vt 0.982823 0.944741
vt 0.982823 0.939660
vt 0.986060 0.939660
vt 0.982823 0.856834
vt 0.982823 0.861916
vt 0.986060 0.861916
vt 0.982823 0.944741
vt 0.986060 0.939660
vt 0.982823 0.939660
vt 0.892177 0.893166
vt 0.892177 0.908410
vt 0.888940 0.908410
vt 0.888940 0.893166
vt 0.892177 0.908410
vt 0.892177 0.893166
vt 0.888940 0.893166
vt 0.888940 0.908410
vt 0.986060 0.908410
vt 0.986060 0.893166
vt 0.982823 0.893166
vt 0.982823 0.908410
vt 0.982823 0.908410
vt 0.982823 0.893166
vt 0.986060 0.893166
vt 0.986060 0.908410
vt 0.892177 0.841209
vt 0.982823 0.841209
vt 0.982823 0.841209
vt 0.892177 0.841209
vt 0.484964 0.867836
vt 0.484964 0.885395
vt 0.390036 0.885395
vt 0.390036 0.867836
vt 0.484964 0.920408
vt 0.390036 0.920408
vt 0.390036 0.920408
vt 0.484964 0.920408
vt 0.390036 0.867836
vt 0.390036 0.885395
vt 0.484964 0.885395
vt 0.484964 0.867836
vt 0.484964 0.848448
vt 0.390036 0.848448
vt 0.390036 0.852211
vt 0.484964 0.852211
vt 0.390036 0.936033
vt 0.484964 0.936033
vt 0.484964 0.932270
vt 0.390036 0.932270
vt 0.390036 0.848449
vt 0.484964 0.848449
vt 0.484964 0.852211
vt 0.390036 0.852211
vt 0.484964 0.936033
vt 0.390036 0.936033
vt 0.390036 0.932270
vt 0.484964 0.932270
vt 0.390036 0.832823
vt 0.484964 0.832823
vt 0.484964 0.832824
vt 0.390036 0.832824
vt 0.410321 0.774357
vt 0.398430 0.774357
vt 0.404424 0.771772
vt 0.414491 0.771772
vt 0.396732 0.774357
vt 0.402986 0.771772
vt 0.409240 0.774357
vt 0.410418 0.774357
vt 0.418660 0.774357
vt 0.456340 0.774357
vt 0.464582 0.774357
vt 0.470576 0.771772
vt 0.460509 0.771772
vt 0.465760 0.774357
vt 0.472014 0.771772
vt 0.478268 0.774357
vt 0.476570 0.774357
vt 0.464679 0.774357
vt 0.418660 0.850643
vt 0.410418 0.850643
vt 0.404424 0.853228
vt 0.414491 0.853228
vt 0.409240 0.850643
vt 0.402986 0.853228
vt 0.396732 0.850643
vt 0.398430 0.850643
vt 0.410321 0.850643
vt 0.456340 0.850643
vt 0.437500 0.850643
vt 0.437500 0.853228
vt 0.460509 0.853228
vt 0.437500 0.850643
vt 0.464679 0.850643
vt 0.437500 0.774357
vt 0.437500 0.771772
vt 0.437500 0.774357
vt 0.464679 0.819393
vt 0.437500 0.819393
vt 0.437500 0.812500
vt 0.466242 0.812500
vt 0.410321 0.819393
vt 0.408758 0.812500
vt 0.410321 0.805607
vt 0.437500 0.805607
vt 0.464679 0.805607
vt 0.418660 0.805607
vt 0.420224 0.812500
vt 0.437500 0.812500
vt 0.437500 0.805607
vt 0.418660 0.819393
vt 0.437500 0.819393
vt 0.456340 0.819393
vt 0.454776 0.812500
vt 0.456340 0.805607
vt 0.412665 0.812500
vt 0.410418 0.819393
vt 0.410418 0.805607
vt 0.409240 0.805607
vt 0.411585 0.812500
vt 0.409240 0.819393
vt 0.462335 0.812500
vt 0.464582 0.805607
vt 0.464582 0.819393
vt 0.465760 0.819393
vt 0.463415 0.812500
vt 0.465760 0.805607
vt 0.476570 0.850643
vt 0.470576 0.853228
vt 0.478268 0.850643
vt 0.472014 0.853228
vt 0.465760 0.850643
vt 0.464582 0.850643
vt 0.478817 0.812500
vt 0.476570 0.819393
vt 0.476570 0.805607
vt 0.478268 0.805607
vt 0.480614 0.812500
vt 0.478268 0.819393
vt 0.398430 0.819393
vt 0.396183 0.812500
vt 0.396732 0.819393
vt 0.394386 0.812500
vt 0.396732 0.805607
vt 0.398430 0.805607
vt 0.463655 0.937821
vt 0.458424 0.932595
vt 0.458424 0.890788
vt 0.463655 0.885562
vt 0.411345 0.937821
vt 0.411345 0.885562
vt 0.416576 0.890788
vt 0.416576 0.932595
vt 0.463655 0.937821
vt 0.463655 0.885562
vt 0.458424 0.890788
vt 0.458424 0.932595
vt 0.411345 0.937821
vt 0.416576 0.932595
vt 0.416576 0.890788
vt 0.411345 0.885562
vt 0.416576 0.901345
vt 0.416576 0.901345
vt 0.416576 0.859538
vt 0.416576 0.859538
vt 0.458424 0.859538
vt 0.458424 0.859538
vt 0.458424 0.901345
vt 0.458424 0.901345
vt 0.764993 0.014993
vt 0.985007 0.014993
vt 0.985007 0.235007
vt 0.764993 0.235007
vt 0.764993 0.014993
vt 0.764993 0.235007
vt 0.985007 0.235007
vt 0.985007 0.014993
vn -0.0000 0.0000 1.0000
vn 0.0000 -0.3404 0.9403
vn 1.0000 -0.0000 -0.0000
vn -1.0000 0.0000 0.0000
vn -0.0000 1.0000 0.0000
vn 0.0000 -0.6402 0.7682
vn 0.0000 -1.0000 -0.0000
vn 0.2533 -0.2533 0.9336
vn 0.2533 0.2533 0.9336
vn -0.2533 0.2533 0.9336
vn -0.2533 -0.2533 0.9336
vn -0.6173 -0.0000 0.7867
vn 0.6173 -0.0000 0.7867
vn 0.0000 -0.6173 0.7867
vn 0.0000 0.6173 0.7867
vn 0.0000 0.0000 -1.0000
vn 0.3416 -0.3416 0.8756
vn 0.3416 0.3416 0.8756
vn -0.3416 0.3416 0.8756
vn -0.3416 -0.3416 0.8756
vn 0.8756 -0.3416 -0.3416
vn 0.8756 0.3416 -0.3416
vn 0.8756 0.3416 0.3416
vn 0.8756 -0.3416 0.3416
vn -0.3416 0.8756 -0.3416
vn -0.3416 0.8756 0.3416
vn -0.8756 -0.3416 0.3416
vn -0.8756 -0.3416 -0.3416
vn -0.3416 -0.3416 -0.8756
vn -0.3416 0.3416 -0.8756
vn 0.3416 0.3416 -0.8756
vn 0.3416 -0.3416 -0.8756
vn -0.3416 -0.8756 0.3416
vn -0.7588 0.4606 0.4606
vn -0.3416 -0.8756 -0.3416
vn -0.7588 0.4606 -0.4606
vn 0.4606 -0.7588 0.4606
vn 0.4606 0.7588 0.4606
vn 0.4606 -0.7588 -0.4606
vn 0.4606 0.7588 -0.4606
vn 0.0000 0.3827 0.9239
vn 0.0000 0.3827 -0.9239
vn 0.0000 -0.9239 -0.3827
vn 0.0000 -0.7071 -0.7071
vn 0.0000 0.7071 -0.7071
vn 0.0000 -0.9239 0.3827
vn 0.0000 -0.7071 0.7071
vn 0.0000 0.7071 0.7071
vn -0.1425 -0.9508 0.2752
vn -0.2650 -0.9549 0.1338
vn -0.0619 -0.9976 0.0298
vn -0.0137 -0.9982 0.0592
vn -0.3173 -0.9476 0.0368
vn -0.0243 -0.9997 0.0015
vn 0.3168 -0.9477 -0.0393
vn 0.2600 -0.9552 -0.1416
vn 0.1127 -0.9486 -0.2958
vn -0.1127 -0.9486 -0.2958
vn -0.2600 -0.9552 -0.1416
vn 0.0619 -0.9976 0.0298
vn 0.0137 -0.9982 0.0592
vn -0.3168 -0.9477 -0.0393
vn 0.0243 -0.9997 0.0015
vn 0.3173 -0.9476 0.0368
vn 0.2650 -0.9549 0.1338
vn 0.1425 -0.9508 0.2752
vn 0.1127 0.9486 -0.2958
vn 0.2600 0.9552 -0.1416
vn -0.0619 0.9976 0.0298
vn -0.0137 0.9982 0.0592
vn 0.3168 0.9477 -0.0393
vn -0.0243 0.9997 0.0015
vn -0.3173 0.9476 0.0368
vn -0.2650 0.9549 0.1338
vn -0.1425 0.9508 0.2752
vn -0.1127 0.9486 -0.2958
vn -0.0000 0.9412 -0.3378
vn -0.0000 0.9996 0.0286
vn 0.0137 0.9982 0.0592
vn -0.0000 0.9416 0.3368
vn 0.1425 0.9508 0.2752
vn 0.0000 -0.9412 -0.3378
vn 0.0000 -0.9996 0.0286
vn 0.0000 -0.9416 0.3368
vn 0.3843 0.3944 0.8347
vn 0.0000 0.3664 0.9304
vn 0.4499 0.0000 0.8931
vn -0.3843 0.3944 0.8347
vn -0.4499 0.0000 0.8931
vn -0.3843 -0.3944 0.8347
vn 0.0000 -0.3664 0.9304
vn 0.3843 -0.3944 0.8347
vn 0.3713 -0.3899 -0.8427
vn 0.3671 0.0000 -0.9302
vn -0.0000 -0.3639 -0.9315
vn 0.3713 0.3899 -0.8427
vn -0.0000 0.3639 -0.9315
vn -0.3713 0.3899 -0.8427
vn -0.3671 0.0000 -0.9302
vn -0.3713 -0.3899 -0.8427
vn 0.7896 0.4138 -0.4531
vn 0.7943 0.4138 -0.4449
vn 0.7943 -0.4138 -0.4449
vn 0.7896 -0.4138 -0.4531
vn 0.9146 -0.3856 -0.1217
vn 0.9146 0.3856 -0.1217
vn -0.7896 -0.4138 -0.4531
vn -0.7943 -0.4138 -0.4449
vn -0.7943 0.4138 -0.4449
vn -0.7896 0.4138 -0.4531
vn -0.9146 0.3856 -0.1217
vn -0.9146 -0.3856 -0.1217
vn 0.2650 0.9549 0.1338
vn 0.0619 0.9976 0.0298
vn 0.3173 0.9476 0.0368
vn 0.0243 0.9997 0.0015
vn -0.3168 0.9477 -0.0393
vn -0.2600 0.9552 -0.1416
vn 0.8155 0.4118 0.4066
vn 0.8156 0.4118 0.4065
vn 0.8156 -0.4118 0.4065
vn 0.8155 -0.4118 0.4066
vn 0.9173 -0.3848 0.1027
vn 0.9173 0.3848 0.1027
vn -0.8156 0.4118 0.4065
vn -0.8155 0.4118 0.4066
vn -0.9173 0.3848 0.1027
vn -0.8155 -0.4118 0.4066
vn -0.9173 -0.3848 0.1027
vn -0.8156 -0.4118 0.4065
usemtl tiny_treats_1
s 1
f 3/1/1 1/2/1 7/3/1 8/4/1
f 3/1/1 8/4/1 10/5/2 12/6/2
f 11/7/3 1/8/3 47/9/3 57/10/3
f 5/11/4 9/12/4 17/13/4 15/14/4
f 8/4/3 54/15/3 56/16/3 10/5/3
f 1/8/1 11/7/2 9/17/2 7/3/1
f 53/18/5 54/19/5 8/20/5 7/21/5
f 5/11/4 51/22/4 55/23/4 9/12/4
f 4/24/4 12/25/4 19/26/4 13/27/4
f 10/28/3 6/29/3 16/30/3 18/31/3
f 13/27/1 16/30/1 15/14/1 14/32/1
f 14/32/1 15/14/1 17/13/1 20/33/1
f 13/27/1 19/26/1 18/31/1 16/30/1
f 12/34/2 10/35/2 18/36/6 19/37/6
f 6/29/7 5/11/7 15/14/7 16/30/7
f 9/38/2 11/39/2 20/40/6 17/41/6
f 11/42/3 2/43/3 14/44/3 20/45/3
f 2/46/5 4/24/5 13/27/5 14/32/5
f 26/47/8 28/48/9 24/49/10 22/50/11
f 22/51/11 24/52/10 25/53/12 23/54/12
f 28/55/9 26/56/8 27/57/13 29/58/13
f 23/59/14 27/60/14 26/61/8 22/62/11
f 29/63/15 25/64/15 24/65/10 28/66/9
f 32/67/8 33/68/9 31/69/10 30/70/11
f 30/71/11 31/72/10 29/73/12 27/74/12
f 33/75/9 32/76/8 35/77/13 41/78/13
f 27/79/14 35/80/14 32/81/8 30/82/11
f 41/83/15 29/84/15 31/85/10 33/86/9
f 37/87/8 39/88/9 36/89/10 34/90/11
f 34/91/11 36/92/10 41/93/12 35/94/12
f 39/95/9 37/96/8 38/97/13 40/98/13
f 35/99/14 38/100/14 37/101/8 34/102/11
f 40/103/15 41/104/15 36/105/10 39/106/9
f 44/107/8 45/108/9 43/109/10 42/110/11
f 42/111/11 43/112/10 40/113/12 38/114/12
f 45/115/9 44/116/8 21/117/13 46/118/13
f 38/119/14 21/120/14 44/121/8 42/122/11
f 46/123/15 40/124/15 43/125/10 45/126/9
f 48/127/5 49/128/5 4/24/5 2/46/5
f 58/129/4 50/130/4 3/131/4 12/132/4
f 51/22/7 5/11/7 6/29/7 52/133/7
f 9/17/4 55/134/4 53/135/4 7/3/4
f 48/127/16 57/136/16 55/23/16 51/22/16
f 48/127/16 51/22/16 52/133/16 49/128/16
f 10/28/3 56/137/3 52/133/3 6/29/3
f 49/128/16 52/133/16 56/137/16 58/138/16
f 47/139/7 1/140/7 3/141/7 50/142/7
f 47/143/16 50/144/16 54/15/16 53/135/16
f 50/145/16 58/146/16 56/16/16 54/15/16
f 47/143/16 53/135/16 55/134/16 57/10/16
f 57/147/3 48/148/3 2/43/3 11/42/3
f 4/24/4 49/128/4 58/138/4 12/25/4
f 73/149/17 75/150/18 62/151/19 60/152/20
f 79/153/21 81/154/22 76/155/23 72/156/24
f 80/157/5 68/158/25 63/159/26 74/160/5
f 61/161/27 64/162/4 70/163/4 66/164/28
f 67/165/29 69/166/30 82/167/31 78/168/32
f 59/169/33 60/170/20 61/171/27
f 62/172/19 63/173/26 64/174/34
f 65/175/35 66/176/28 67/177/29
f 68/178/25 69/179/30 70/180/36
f 71/181/37 72/182/24 73/183/17
f 74/184/38 75/185/18 76/186/23
f 77/187/39 78/188/32 79/189/21
f 80/190/40 81/191/22 82/192/31
f 65/175/35 59/169/33 61/171/27 66/176/28
f 60/193/20 62/194/19 64/195/34 61/196/27
f 63/173/26 68/178/25 70/180/36 64/174/34
f 69/197/30 67/198/29 66/199/28 70/200/36
f 77/187/39 65/175/35 67/177/29 78/188/32
f 68/178/25 80/190/40 82/192/31 69/179/30
f 81/201/22 79/202/21 78/203/32 82/204/31
f 71/181/37 77/187/39 79/189/21 72/182/24
f 80/190/40 74/184/38 76/186/23 81/191/22
f 75/205/18 73/206/17 72/207/24 76/208/23
f 59/169/33 71/181/37 73/183/17 60/170/20
f 74/184/38 63/173/26 62/172/19 75/185/18
f 65/209/35 77/210/7 71/211/7 59/212/33
f 92/213/1 94/214/41 85/215/41 84/216/1
f 97/217/5 89/218/5 86/219/5 93/220/5
f 88/221/16 90/222/42 98/223/42 96/224/16
f 95/225/43 87/226/43 88/227/44 96/228/44
f 89/229/45 97/230/45 98/231/42 90/232/42
f 83/233/46 91/234/46 92/235/47 84/236/47
f 93/237/48 86/238/48 85/239/41 94/240/41
f 87/241/43 95/242/43 91/243/46 83/244/46
f 99/245/49 136/246/50 143/247/51 140/248/52
f 136/246/50 108/249/53 124/250/54 143/247/51
f 143/247/51 124/250/54 109/251/55 134/252/56
f 140/248/52 143/247/51 134/252/56 104/253/57
f 103/254/58 131/255/59 144/256/60 142/257/61
f 131/255/59 113/258/62 127/259/63 144/256/60
f 144/256/60 127/259/63 112/260/64 132/261/65
f 142/257/61 144/256/60 132/261/65 101/262/66
f 105/263/67 135/264/68 145/265/69 139/266/70
f 135/264/68 114/267/71 128/268/72 145/265/69
f 145/265/69 128/268/72 107/269/73 138/270/74
f 139/266/70 145/265/69 138/270/74 100/271/75
f 106/272/76 118/273/77 146/274/78 141/275/79
f 118/273/77 105/263/67 139/266/70 146/274/78
f 146/274/78 139/266/70 100/271/75 120/276/80
f 141/275/79 146/274/78 120/276/80 102/277/81
f 104/253/57 117/278/82 147/279/83 140/248/52
f 117/278/82 103/254/58 142/257/61 147/279/83
f 147/279/83 142/257/61 101/262/66 119/280/84
f 140/248/52 147/279/83 119/280/84 99/245/49
f 102/281/85 120/282/86 148/283/1 116/284/87
f 120/282/86 100/285/88 115/286/89 148/283/1
f 148/283/1 115/286/89 99/287/90 119/288/91
f 116/284/87 148/283/1 119/288/91 101/289/92
f 104/290/93 121/291/94 149/292/16 117/293/95
f 121/291/94 105/294/96 118/295/97 149/292/16
f 149/292/16 118/295/97 106/296/98 122/297/99
f 117/293/95 149/292/16 122/297/99 103/298/100
f 105/294/96 121/291/94 150/299/101 135/300/102
f 121/291/94 104/290/93 134/301/103 150/299/104
f 150/299/104 134/301/103 109/302/105 129/303/105
f 135/300/102 150/299/101 129/303/106 114/304/106
f 103/298/100 122/297/99 151/305/107 131/306/108
f 122/297/99 106/296/98 137/307/109 151/305/110
f 151/305/110 137/307/109 110/308/111 130/309/111
f 131/306/108 151/305/107 130/309/112 113/310/112
f 102/277/81 133/311/113 152/312/114 141/275/79
f 133/311/113 111/313/115 125/314/116 152/312/114
f 152/312/114 125/314/116 110/315/117 137/316/118
f 141/275/79 152/312/114 137/316/118 106/272/76
f 102/281/85 116/284/87 153/317/119 133/318/120
f 116/284/87 101/289/92 132/319/121 153/317/122
f 153/317/122 132/319/121 112/320/123 126/321/123
f 133/318/120 153/317/119 126/321/124 111/322/124
f 100/285/88 138/323/125 154/324/126 115/286/89
f 138/323/125 107/325/127 123/326/127 154/324/126
f 154/324/128 123/326/129 108/327/129 136/328/130
f 115/286/89 154/324/128 136/328/130 99/287/90
f 165/329/1 169/330/1 167/331/1 163/332/1
f 166/333/1 164/334/1 168/335/1 170/336/1
f 166/333/1 170/336/1 169/330/1 165/329/1
f 173/337/16 171/338/16 175/339/16 177/340/16
f 174/341/16 178/342/16 176/343/16 172/344/16
f 174/341/16 173/337/16 177/340/16 178/342/16
f 178/345/3 170/346/3 168/347/3 176/348/3
f 175/349/4 167/350/4 169/351/4 177/352/4
f 177/352/7 169/351/7 170/346/7 178/345/7
usemtl tiny_treats_1_GLASS
f 155/353/1 156/354/1 158/355/1 157/356/1
f 160/357/16 159/358/16 162/359/16 161/360/16
