# Blender v3.4.1 OBJ File: 'Tiny_Treats_Bubbly_Bathroom_1.1_ASSETS_EXPORT.blend'
# www.blender.org
mtllib wall_modular_tiled_window_full_center_B.mtl
o wall_modular_tiled_window_full_center_B
v -1.000000 0.000000 -0.249194
v -1.000000 4.000000 -0.249194
v 1.000000 4.000000 -0.249194
v 1.000000 0.000000 -0.249194
v -1.000000 3.500000 -0.249194
v 1.000000 3.500000 -0.249194
v -1.000000 0.500000 -0.249194
v 1.000000 0.500000 -0.249194
v 1.000000 3.500000 0.000000
v -1.000000 4.000000 0.000000
v -1.000000 3.500000 0.000000
v 1.000000 4.000000 0.000000
v 1.000000 0.000000 0.000000
v -1.000000 -0.000000 0.000000
v -1.000000 0.500000 0.000000
v 1.000000 0.500000 0.000000
vt 0.462062 0.917234
vt 0.462062 0.917234
vt 0.462062 0.819082
vt 0.466932 0.817191
vt 0.209376 0.402077
vt 0.163245 0.402077
vt 0.169242 0.379034
vt 0.203379 0.379034
vt 0.462062 0.854734
vt 0.409246 0.854734
vt 0.409246 0.819082
vt 0.409246 0.917234
vt 0.414681 0.817191
vt 0.409246 0.917234
vt 0.163245 0.402077
vt 0.169358 0.379034
vt 0.203495 0.379034
vt 0.209376 0.402077
vt 0.471802 0.815299
vt 0.420115 0.815299
vt 0.420115 0.815299
vt 0.471802 0.815299
vn -1.0000 -0.0000 -0.0000
vn -0.0000 0.0000 -1.0000
vn 1.0000 -0.0000 0.0000
vn 0.0000 -1.0000 0.0000
vn 0.0000 1.0000 -0.0000
usemtl tiny_treats_1
s 1
f 15/1/1 7/2/1 1/3/1 14/4/1
f 2/5/2 3/6/2 6/7/2 5/8/2
f 1/3/2 7/9/2 8/10/2 4/11/2
f 16/12/3 13/13/3 4/11/3 8/14/3
f 3/6/3 12/15/3 9/16/3 6/7/3
f 2/5/1 5/8/1 11/17/1 10/18/1
f 5/8/4 6/7/4 9/16/4 11/17/4
f 2/5/5 10/18/5 12/15/5 3/6/5
f 1/19/4 4/20/4 13/21/4 14/22/4
f 7/2/5 15/1/5 16/12/5 8/14/5
