# Blender v3.4.1 OBJ File: 'Tiny_Treats_Bubbly_Bathroom_1.1_ASSETS_EXPORT.blend'
# www.blender.org
mtllib wall_modular_tiled_half_corner_outer_A.mtl
o wall_modular_tiled_half_corner_outer_A
v -0.199000 0.000000 -0.200000
v -0.199000 4.000000 -0.199999
v -0.198998 -0.000000 1.000000
v -0.198998 4.000000 1.000001
v -0.199000 1.500000 -0.200000
v -0.248999 0.063717 0.063717
v -0.248999 0.436283 0.063717
v -0.248999 0.063717 0.436283
v -0.198999 -0.000000 0.500000
v -0.248999 0.436283 0.436284
v -0.198999 0.500000 0.500000
v -0.248999 0.563717 0.063717
v -0.248999 0.936283 0.063717
v -0.248999 0.563717 0.436284
v -0.248999 0.936283 0.436284
v -0.248999 1.063717 0.063717
v -0.248999 1.436283 0.063717
v -0.248999 1.063717 0.436284
v -0.198999 1.000000 0.500000
v -0.248999 1.436283 0.436284
v -0.198999 1.500000 0.500000
v -0.248999 0.063717 0.563717
v -0.248999 0.436283 0.563717
v -0.248999 0.063717 0.936283
v -0.248999 0.436283 0.936283
v -0.248999 0.563717 0.563717
v -0.248999 0.936283 0.563717
v -0.248999 0.563717 0.936283
v -0.248999 0.936283 0.936283
v -0.248999 1.063717 0.563717
v -0.248999 1.436283 0.563717
v -0.248999 1.063717 0.936283
v -0.248999 1.436283 0.936283
v -0.198999 1.500000 1.000000
v -0.198999 -0.000000 1.000000
v -0.198999 0.500000 1.000000
v -0.198999 1.000000 1.000000
v -0.248999 4.000000 1.000001
v -0.249000 1.560000 -0.250000
v -0.248999 1.560000 1.000000
v -0.198998 1.500000 1.000000
v -0.062715 0.936283 -0.250000
v -0.062715 0.563717 -0.250000
v 1.001002 0.000000 -0.200001
v 1.001002 4.000000 -0.200000
v 1.001002 1.500000 -0.200000
v -0.062715 0.436283 -0.250000
v 1.001001 1.500000 -0.200000
v 0.937285 0.063717 -0.250000
v 1.001001 -0.000000 -0.200000
v 0.937285 0.436283 -0.250000
v 0.564718 0.063717 -0.250000
v 0.501002 -0.000000 -0.200000
v 0.564718 0.436283 -0.250000
v 0.501002 0.500000 -0.200000
v 0.937285 0.563717 -0.250000
v 1.001001 0.500000 -0.200000
v 0.937285 0.936283 -0.250000
v 1.001001 1.000000 -0.200000
v 0.564718 0.563717 -0.250000
v 0.564718 0.936283 -0.250000
v 0.937285 1.063717 -0.250000
v 0.937285 1.436283 -0.250000
v 0.564718 1.063717 -0.250000
v 0.564718 1.436283 -0.250000
v 0.437285 0.063717 -0.250000
v 0.437285 0.436283 -0.250000
v 0.064718 0.063717 -0.250000
v 0.001002 -0.000000 -0.200000
v 0.064718 0.436283 -0.250000
v 0.437285 0.563717 -0.250000
v 0.437285 0.936283 -0.250000
v 0.501002 1.000000 -0.200000
v 0.064718 0.563717 -0.250000
v 0.001002 0.500000 -0.200000
v 0.064718 0.936283 -0.250000
v 0.437285 1.063717 -0.250000
v 0.437285 1.436283 -0.250000
v 0.501002 1.500000 -0.200000
v 0.064718 1.063717 -0.250000
v 0.001002 1.000000 -0.200000
v 0.064718 1.436283 -0.250000
v 0.001002 1.500000 -0.200000
v 1.001002 4.000000 -0.250000
v -0.248998 4.000000 -0.249999
v -0.062715 0.063717 -0.250000
v 1.001002 1.560000 -0.250000
v -0.062715 1.063717 -0.250000
v -0.062715 1.436283 -0.250000
v -0.198998 0.500000 -0.200000
v -0.198998 1.000000 -0.200000
v -0.248999 0.063717 -0.063716
v -0.198999 -0.000000 0.000000
v -0.248999 0.436283 -0.063716
v -0.198999 0.500000 0.000000
v -0.248998 0.063717 -0.250000
v -0.248998 0.436283 -0.250000
v -0.248998 0.563717 -0.250000
v -0.248999 0.563717 -0.063716
v -0.248999 0.936283 -0.063716
v -0.248998 0.936283 -0.250000
v -0.248998 1.063717 -0.250000
v -0.248998 1.436283 -0.250000
v -0.248999 1.063717 -0.063716
v -0.198999 1.000000 0.000000
v -0.248999 1.436283 -0.063716
v -0.198999 1.500000 0.000000
v -0.198999 -0.000000 -0.200000
v -0.198999 1.500000 -0.200000
v -0.000000 -0.000000 1.000000
v 1.001002 0.000000 0.000000
v 1.001002 4.000000 0.000000
v -0.000000 1.500000 1.000000
v -0.000000 -0.000000 0.000000
v -0.000001 4.000000 1.000001
v -0.000000 4.000000 0.000001
v 1.001002 1.500000 0.000000
vt 0.413123 0.819372
vt 0.413123 0.868125
vt 0.404785 0.876463
vt 0.404785 0.811034
vt 0.471186 0.818830
vt 0.471186 0.872099
vt 0.400090 0.872099
vt 0.400090 0.818830
vt 0.211706 0.402077
vt 0.211706 0.402077
vt 0.211706 0.344470
vt 0.211706 0.344470
vt 0.461876 0.850622
vt 0.461876 0.899375
vt 0.413123 0.899375
vt 0.413123 0.850622
vt 0.413123 0.819372
vt 0.413123 0.868125
vt 0.404785 0.876463
vt 0.404785 0.811034
vt 0.461876 0.883750
vt 0.461876 0.834997
vt 0.470214 0.826659
vt 0.470214 0.892088
vt 0.404785 0.795409
vt 0.470214 0.795409
vt 0.461876 0.803747
vt 0.413123 0.803747
vt 0.470214 0.938963
vt 0.404785 0.938963
vt 0.413123 0.930625
vt 0.461876 0.930625
vt 0.461876 0.850622
vt 0.461876 0.899375
vt 0.413123 0.899375
vt 0.413123 0.850622
vt 0.413123 0.819372
vt 0.413123 0.868125
vt 0.404785 0.876463
vt 0.404785 0.811034
vt 0.461876 0.883750
vt 0.461876 0.834997
vt 0.470214 0.826659
vt 0.470214 0.892088
vt 0.404785 0.795409
vt 0.470214 0.795409
vt 0.461876 0.803747
vt 0.413123 0.803747
vt 0.470214 0.938963
vt 0.404785 0.938963
vt 0.413123 0.930625
vt 0.461876 0.930625
vt 0.461876 0.850622
vt 0.461876 0.899375
vt 0.413123 0.899375
vt 0.413123 0.850622
vt 0.413123 0.819372
vt 0.413123 0.868125
vt 0.404785 0.876463
vt 0.404785 0.811034
vt 0.461876 0.883750
vt 0.461876 0.834997
vt 0.470214 0.826659
vt 0.470214 0.892088
vt 0.404785 0.795409
vt 0.470214 0.795409
vt 0.461876 0.803747
vt 0.413123 0.803747
vt 0.470214 0.938963
vt 0.404785 0.938963
vt 0.413123 0.930625
vt 0.461876 0.930625
vt 0.461876 0.850622
vt 0.461876 0.899375
vt 0.413123 0.899375
vt 0.413123 0.850622
vt 0.413123 0.819372
vt 0.413123 0.868125
vt 0.404785 0.876463
vt 0.404785 0.811034
vt 0.461876 0.883750
vt 0.461876 0.834997
vt 0.470214 0.826659
vt 0.470214 0.892088
vt 0.404785 0.795409
vt 0.470214 0.795409
vt 0.461876 0.803747
vt 0.413123 0.803747
vt 0.470214 0.938963
vt 0.404785 0.938963
vt 0.413123 0.930625
vt 0.461876 0.930625
vt 0.461876 0.850622
vt 0.461876 0.899375
vt 0.413123 0.899375
vt 0.413123 0.850622
vt 0.413123 0.819372
vt 0.413123 0.868125
vt 0.404785 0.876463
vt 0.404785 0.811034
vt 0.461876 0.883750
vt 0.461876 0.834997
vt 0.470214 0.826659
vt 0.470214 0.892088
vt 0.404785 0.795409
vt 0.470214 0.795409
vt 0.461876 0.803747
vt 0.413123 0.803747
vt 0.470214 0.938963
vt 0.404785 0.938963
vt 0.413123 0.930625
vt 0.461876 0.930625
vt 0.461876 0.850622
vt 0.461876 0.899375
vt 0.413123 0.899375
vt 0.413123 0.850622
vt 0.413123 0.819372
vt 0.413123 0.868125
vt 0.404785 0.876463
vt 0.404785 0.811034
vt 0.461876 0.883750
vt 0.461876 0.834997
vt 0.470214 0.826659
vt 0.470214 0.892088
vt 0.404785 0.795409
vt 0.470214 0.795409
vt 0.461876 0.803747
vt 0.413123 0.803747
vt 0.470214 0.938963
vt 0.404785 0.938963
vt 0.413123 0.930625
vt 0.461876 0.930625
vt 0.211706 0.345852
vt 0.211706 0.402077
vt 0.165575 0.402077
vt 0.165575 0.345852
vt 0.165575 0.402077
vt 0.211706 0.314602
vt 0.165575 0.314602
vt 0.165575 0.313220
vt 0.211706 0.313220
vt 0.437500 0.850622
vt 0.437500 0.899375
vt 0.413123 0.899375
vt 0.413123 0.850622
vt 0.165575 0.402077
vt 0.165575 0.344470
vt 0.165575 0.344470
vt 0.165575 0.402077
vt 0.471186 0.818830
vt 0.471186 0.872099
vt 0.400090 0.872099
vt 0.400090 0.818830
vt 0.413123 0.819372
vt 0.413123 0.868125
vt 0.404785 0.876463
vt 0.404785 0.811034
vt 0.461876 0.850622
vt 0.461876 0.899375
vt 0.413123 0.899375
vt 0.413123 0.850622
vt 0.413123 0.819372
vt 0.413123 0.868125
vt 0.404785 0.876463
vt 0.404785 0.811034
vt 0.461876 0.883750
vt 0.461876 0.834997
vt 0.470214 0.826659
vt 0.470214 0.892088
vt 0.404785 0.795409
vt 0.470214 0.795409
vt 0.461876 0.803747
vt 0.413123 0.803747
vt 0.470214 0.938963
vt 0.404785 0.938963
vt 0.413123 0.930625
vt 0.461876 0.930625
vt 0.461876 0.850622
vt 0.461876 0.899375
vt 0.413123 0.899375
vt 0.413123 0.850622
vt 0.413123 0.819372
vt 0.413123 0.868125
vt 0.404785 0.876463
vt 0.404785 0.811034
vt 0.461876 0.883750
vt 0.461876 0.834997
vt 0.470214 0.826659
vt 0.470214 0.892088
vt 0.404785 0.795409
vt 0.470214 0.795409
vt 0.461876 0.803747
vt 0.413123 0.803747
vt 0.470214 0.938963
vt 0.404785 0.938963
vt 0.413123 0.930625
vt 0.461876 0.930625
vt 0.461876 0.850622
vt 0.461876 0.899375
vt 0.413123 0.899375
vt 0.413123 0.850622
vt 0.413123 0.819372
vt 0.413123 0.868125
vt 0.404785 0.876463
vt 0.404785 0.811034
vt 0.461876 0.883750
vt 0.461876 0.834997
vt 0.470214 0.826659
vt 0.470214 0.892088
vt 0.404785 0.795409
vt 0.470214 0.795409
vt 0.461876 0.803747
vt 0.413123 0.803747
vt 0.470214 0.938963
vt 0.404785 0.938963
vt 0.413123 0.930625
vt 0.461876 0.930625
vt 0.461876 0.850622
vt 0.461876 0.899375
vt 0.413123 0.899375
vt 0.413123 0.850622
vt 0.413123 0.819372
vt 0.413123 0.868125
vt 0.404785 0.876463
vt 0.404785 0.811034
vt 0.461876 0.883750
vt 0.461876 0.834997
vt 0.470214 0.826659
vt 0.470214 0.892088
vt 0.404785 0.795409
vt 0.470214 0.795409
vt 0.461876 0.803747
vt 0.413123 0.803747
vt 0.470214 0.938963
vt 0.404785 0.938963
vt 0.413123 0.930625
vt 0.461876 0.930625
vt 0.461876 0.850622
vt 0.461876 0.899375
vt 0.413123 0.899375
vt 0.413123 0.850622
vt 0.413123 0.819372
vt 0.413123 0.868125
vt 0.404785 0.876463
vt 0.404785 0.811034
vt 0.461876 0.883750
vt 0.461876 0.834997
vt 0.470214 0.826659
vt 0.470214 0.892088
vt 0.404785 0.795409
vt 0.470214 0.795409
vt 0.461876 0.803747
vt 0.413123 0.803747
vt 0.470214 0.938963
vt 0.404785 0.938963
vt 0.413123 0.930625
vt 0.461876 0.930625
vt 0.461876 0.850622
vt 0.461876 0.899375
vt 0.413123 0.899375
vt 0.413123 0.850622
vt 0.413123 0.819372
vt 0.413123 0.868125
vt 0.404785 0.876463
vt 0.404785 0.811034
vt 0.461876 0.883750
vt 0.461876 0.834997
vt 0.470214 0.826659
vt 0.470214 0.892088
vt 0.404785 0.795409
vt 0.470214 0.795409
vt 0.461876 0.803747
vt 0.413123 0.803747
vt 0.470214 0.938963
vt 0.404785 0.938963
vt 0.413123 0.930625
vt 0.461876 0.930625
vt 0.437500 0.850622
vt 0.437500 0.899375
vt 0.413123 0.899375
vt 0.413123 0.850622
vt 0.437499 0.938963
vt 0.404785 0.938963
vt 0.413123 0.930625
vt 0.437500 0.930625
vt 0.211706 0.345852
vt 0.211706 0.402077
vt 0.165575 0.402077
vt 0.165575 0.345852
vt 0.211706 0.402077
vt 0.211706 0.314602
vt 0.165575 0.314602
vt 0.165575 0.313220
vt 0.211706 0.313220
vt 0.437499 0.938963
vt 0.404785 0.938963
vt 0.413123 0.930625
vt 0.437500 0.930625
vt 0.437500 0.850622
vt 0.437500 0.899375
vt 0.413123 0.899375
vt 0.413123 0.850622
vt 0.413123 0.819372
vt 0.413123 0.868125
vt 0.404785 0.876463
vt 0.404785 0.811034
vt 0.437499 0.938963
vt 0.404785 0.938963
vt 0.413123 0.930625
vt 0.437500 0.930625
vt 0.461876 0.883750
vt 0.461876 0.834997
vt 0.470214 0.826659
vt 0.470214 0.892088
vt 0.437499 0.795409
vt 0.470214 0.795409
vt 0.461876 0.803747
vt 0.437500 0.803747
vt 0.461876 0.883750
vt 0.461876 0.834997
vt 0.470214 0.826659
vt 0.470214 0.892088
vt 0.437499 0.795409
vt 0.470214 0.795409
vt 0.461876 0.803747
vt 0.437500 0.803747
vt 0.404785 0.795409
vt 0.413123 0.803747
vt 0.404785 0.795409
vt 0.413123 0.803747
vt 0.461876 0.883750
vt 0.461876 0.834997
vt 0.470214 0.826659
vt 0.470214 0.892088
vt 0.437499 0.795409
vt 0.470214 0.795409
vt 0.461876 0.803747
vt 0.437500 0.803747
vt 0.470214 0.938963
vt 0.461876 0.930625
vt 0.461876 0.850622
vt 0.461876 0.899375
vt 0.470214 0.938963
vt 0.461876 0.930625
vt 0.404785 0.795409
vt 0.413123 0.803747
vt 0.461876 0.850622
vt 0.461876 0.899375
vt 0.470214 0.938963
vt 0.461876 0.930625
vt 0.461876 0.850622
vt 0.461876 0.899375
vt 0.400090 0.872099
vt 0.400090 0.818830
vt 0.211706 0.402077
vt 0.478768 0.815443
vt 0.411944 0.815443
vt 0.411944 0.815443
vt 0.478768 0.815443
vt 0.471186 0.818830
vt 0.471186 0.872099
vt 0.165575 0.402077
vt 0.478768 0.815443
vt 0.411944 0.815443
vt 0.411944 0.815443
vt 0.478768 0.815443
vn 0.2533 -0.2533 -0.9336
vn 0.2533 0.2533 -0.9336
vn 0.6173 0.0000 -0.7867
vn -1.0000 0.0000 0.0000
vn -0.9403 -0.3404 0.0000
vn -0.9199 -0.3921 0.0000
vn 0.0000 -0.0000 1.0000
vn -0.9336 -0.2533 0.2533
vn -0.9336 0.2533 0.2533
vn -0.9336 0.2533 -0.2533
vn -0.9336 -0.2533 -0.2533
vn -0.7867 0.0000 -0.6173
vn -0.7867 -0.0000 0.6173
vn -0.7867 -0.6173 0.0000
vn -0.7867 0.6173 0.0000
vn -0.0000 1.0000 0.0000
vn -0.7682 -0.6402 0.0000
vn -0.0000 -0.2561 -0.9666
vn -0.0000 0.2561 -0.9666
vn 1.0000 -0.0000 0.0000
vn -0.0000 0.0000 -1.0000
vn -0.0000 -0.3921 -0.9199
vn -0.0000 -0.3404 -0.9403
vn -0.2533 -0.2533 -0.9336
vn -0.2533 0.2533 -0.9336
vn -0.6173 0.0000 -0.7867
vn -0.0000 -0.6173 -0.7867
vn -0.0000 0.6173 -0.7867
vn -0.0000 -0.2561 -0.9667
vn -0.0000 -0.6402 -0.7682
vn -0.9667 -0.2561 -0.0000
vn -0.9666 -0.2561 -0.0000
vn -0.9667 0.2561 -0.0000
vn -0.9666 0.2561 -0.0000
vn 0.0000 -1.0000 -0.0000
usemtl tiny_treats_1
s 1
f 86/1/1 47/2/2 75/3/3 69/4/3
f 3/5/4 41/6/5 5/7/6 1/8/4
f 115/9/7 4/10/7 41/11/7 113/12/7
f 8/13/8 10/14/9 7/15/10 6/16/11
f 6/17/11 7/18/10 95/19/12 93/20/12
f 10/21/9 8/22/8 9/23/13 11/24/13
f 93/25/14 9/26/14 8/27/8 6/28/11
f 11/29/15 95/30/15 7/31/10 10/32/9
f 14/33/8 15/34/9 13/35/10 12/36/11
f 12/37/11 13/38/10 105/39/12 95/40/12
f 15/41/9 14/42/8 11/43/13 19/44/13
f 95/45/14 11/46/14 14/47/8 12/48/11
f 19/49/15 105/50/15 13/51/10 15/52/9
f 18/53/8 20/54/9 17/55/10 16/56/11
f 16/57/11 17/58/10 107/59/12 105/60/12
f 20/61/9 18/62/8 19/63/13 21/64/13
f 105/65/14 19/66/14 18/67/8 16/68/11
f 21/69/15 107/70/15 17/71/10 20/72/9
f 24/73/8 25/74/9 23/75/10 22/76/11
f 22/77/11 23/78/10 11/79/12 9/80/12
f 25/81/9 24/82/8 35/83/13 36/84/13
f 9/85/14 35/86/14 24/87/8 22/88/11
f 36/89/15 11/90/15 23/91/10 25/92/9
f 28/93/8 29/94/9 27/95/10 26/96/11
f 26/97/11 27/98/10 19/99/12 11/100/12
f 29/101/9 28/102/8 36/103/13 37/104/13
f 11/105/14 36/106/14 28/107/8 26/108/11
f 37/109/15 19/110/15 27/111/10 29/112/9
f 32/113/8 33/114/9 31/115/10 30/116/11
f 30/117/11 31/118/10 21/119/12 19/120/12
f 33/121/9 32/122/8 37/123/13 34/124/13
f 19/125/14 37/126/14 32/127/8 30/128/11
f 34/129/15 21/130/15 31/131/10 33/132/9
f 40/133/4 38/134/4 85/135/4 39/136/4
f 4/10/16 2/137/16 85/135/16 38/134/16
f 41/11/7 4/10/7 38/134/7 40/133/7
f 40/138/17 39/139/17 5/140/6 41/141/5
f 96/142/18 97/143/19 47/144/2 86/145/1
f 112/146/20 117/147/20 46/148/20 45/149/20
f 1/150/21 5/151/22 46/152/23 44/153/21
f 43/154/1 42/155/2 81/156/3 75/157/3
f 52/158/24 54/159/25 51/160/2 49/161/1
f 49/162/1 51/163/2 57/164/3 50/165/3
f 54/166/25 52/167/24 53/168/26 55/169/26
f 50/170/27 53/171/27 52/172/24 49/173/1
f 55/174/28 57/175/28 51/176/2 54/177/25
f 60/178/24 61/179/25 58/180/2 56/181/1
f 56/182/1 58/183/2 59/184/3 57/185/3
f 61/186/25 60/187/24 55/188/26 73/189/26
f 57/190/27 55/191/27 60/192/24 56/193/1
f 73/194/28 59/195/28 58/196/2 61/197/25
f 64/198/24 65/199/25 63/200/2 62/201/1
f 62/202/1 63/203/2 48/204/3 59/205/3
f 65/206/25 64/207/24 73/208/26 79/209/26
f 59/210/27 73/211/27 64/212/24 62/213/1
f 79/214/28 48/215/28 63/216/2 65/217/25
f 68/218/24 70/219/25 67/220/2 66/221/1
f 66/222/1 67/223/2 55/224/3 53/225/3
f 70/226/25 68/227/24 69/228/26 75/229/26
f 53/230/27 69/231/27 68/232/24 66/233/1
f 75/234/28 55/235/28 67/236/2 70/237/25
f 74/238/24 76/239/25 72/240/2 71/241/1
f 71/242/1 72/243/2 73/244/3 55/245/3
f 76/246/25 74/247/24 75/248/26 81/249/26
f 55/250/27 75/251/27 74/252/24 71/253/1
f 81/254/28 73/255/28 72/256/2 76/257/25
f 80/258/24 82/259/25 78/260/2 77/261/1
f 77/262/1 78/263/2 79/264/3 73/265/3
f 82/266/25 80/267/24 81/268/26 83/269/26
f 73/270/27 81/271/27 80/272/24 77/273/1
f 83/274/28 79/275/28 78/276/2 82/277/25
f 98/278/29 101/279/19 42/280/2 43/281/1
f 90/282/28 75/283/28 47/284/2 97/285/19
f 39/286/21 85/287/21 84/288/21 87/289/21
f 2/290/16 45/149/16 84/288/16 85/287/16
f 39/291/30 87/292/30 46/293/23 5/294/22
f 45/149/20 46/148/20 87/289/20 84/288/20
f 91/295/28 81/296/28 42/297/2 101/298/19
f 102/299/29 103/300/19 89/301/2 88/302/1
f 88/303/1 89/304/2 83/305/3 81/306/3
f 109/307/28 83/308/28 89/309/2 103/310/19
f 94/311/9 92/312/8 93/313/13 95/314/13
f 108/315/14 93/316/14 92/317/8 96/318/31
f 100/319/9 99/320/8 95/321/13 105/322/13
f 90/323/14 95/324/14 99/325/8 98/326/32
f 69/327/27 108/315/27 96/318/18 86/328/1
f 75/329/27 90/323/27 98/326/29 43/330/1
f 106/331/9 104/332/8 105/333/13 107/334/13
f 91/335/14 105/336/14 104/337/8 102/338/32
f 107/339/15 109/307/15 103/310/33 106/340/9
f 104/341/8 106/342/9 103/300/33 102/299/32
f 105/343/15 91/295/15 101/298/34 100/344/9
f 81/345/27 91/335/27 102/338/29 88/346/1
f 99/347/8 100/348/9 101/279/34 98/278/32
f 95/349/15 90/282/15 97/285/34 94/350/9
f 92/351/8 94/352/9 97/143/34 96/142/31
f 44/153/20 46/152/20 117/353/20 111/354/20
f 45/149/16 2/290/16 116/355/16 112/146/16
f 1/356/35 44/357/35 111/358/35 114/359/35
f 3/5/7 110/360/7 113/361/7 41/6/7
f 2/137/16 4/10/16 115/9/16 116/362/16
f 3/363/35 1/364/35 114/365/35 110/366/35
