# Blender v3.4.1 OBJ File: 'Tiny_Treats_Bubbly_Bathroom_1.1_ASSETS_EXPORT.blend'
# www.blender.org
mtllib wall_tiled_doorway_wall_tiled_door.mtl
o wall_tiled_door
v 0.800000 0.000001 -0.100000
v 0.800000 0.000001 0.100000
v -0.800000 0.000001 -0.100000
v -0.800000 0.000001 0.100000
v 0.800000 2.800001 -0.100000
v 0.800000 2.800001 0.100000
v -0.800000 2.800001 -0.100000
v -0.800000 2.800001 0.100000
v -0.800000 1.120001 0.100000
v -0.800000 1.120001 -0.100000
v 0.800000 1.120001 0.100000
v 0.800000 1.120001 -0.100000
v -0.550000 1.370001 0.100000
v -0.650000 1.270001 0.100000
v -0.596690 1.323310 0.057296
v 0.650000 1.270001 0.100000
v 0.550000 1.370001 0.100000
v 0.596691 1.323310 0.057296
v 0.650000 2.650001 0.100000
v 0.550000 2.550001 0.100000
v 0.596691 2.596691 0.057297
v -0.550000 2.550001 0.100000
v -0.650000 2.650001 0.100000
v -0.596690 2.596691 0.057297
v -0.550000 0.870001 -0.100000
v -0.650000 0.970001 -0.100000
v -0.596691 0.916691 -0.057296
v 0.650000 0.970001 -0.100000
v 0.549999 0.870001 -0.100000
v 0.596690 0.916691 -0.057296
v 0.650000 0.150001 -0.100000
v 0.550000 0.250001 -0.100000
v 0.596690 0.203310 -0.057296
v -0.550000 0.250001 -0.100000
v -0.650000 0.150001 -0.100000
v -0.596691 0.203310 -0.057296
v -0.550000 2.550001 -0.100000
v -0.650000 2.650001 -0.100000
v -0.596691 2.596691 -0.057296
v 0.650000 2.650001 -0.100000
v 0.550000 2.550001 -0.100000
v 0.596690 2.596691 -0.057296
v 0.650000 1.270001 -0.100000
v 0.550000 1.370001 -0.100000
v 0.596690 1.323310 -0.057296
v -0.550000 1.370001 -0.100000
v -0.650000 1.270001 -0.100000
v -0.596691 1.323310 -0.057296
v -0.550000 0.250001 0.100000
v -0.650000 0.150001 0.100000
v -0.596690 0.203310 0.057296
v 0.650000 0.150001 0.100000
v 0.550000 0.250001 0.100000
v 0.596690 0.203310 0.057296
v 0.650000 0.970001 0.100000
v 0.550000 0.870001 0.100000
v 0.596691 0.916691 0.057296
v -0.550000 0.870001 0.100000
v -0.650000 0.970001 0.100000
v -0.596690 0.916691 0.057296
v 0.649706 1.240001 0.100000
v 0.720000 1.169706 0.100000
v 0.720000 1.070295 0.100000
v 0.649706 1.000001 0.100000
v 0.550295 1.000001 0.100000
v 0.480000 1.070295 0.100000
v 0.480000 1.169706 0.100000
v 0.550295 1.240001 0.100000
v 0.639765 1.216001 0.160000
v 0.649706 1.240001 0.136000
v 0.696000 1.159765 0.160000
v 0.720000 1.169706 0.136000
v 0.696000 1.080236 0.160000
v 0.720000 1.070295 0.136000
v 0.639765 1.024001 0.160000
v 0.649706 1.000001 0.136000
v 0.560236 1.024001 0.160000
v 0.550295 1.000001 0.136000
v 0.504000 1.080236 0.160000
v 0.480000 1.070295 0.136000
v 0.504000 1.159765 0.160000
v 0.480000 1.169706 0.136000
v 0.560236 1.216001 0.160000
v 0.550295 1.240001 0.136000
v 0.600000 1.120001 0.160000
v 0.564002 1.060001 0.240059
v 0.530061 1.060001 0.274000
v 0.516002 1.084001 0.250000
v 0.540002 1.084001 0.226000
v 0.516002 1.156001 0.250000
v 0.530061 1.180001 0.274000
v 0.564002 1.180001 0.240059
v 0.540002 1.156001 0.226000
v 0.564002 1.060001 0.130000
v 0.540002 1.084001 0.130000
v 0.564002 1.180001 0.130000
v 0.540002 1.156001 0.130000
v 0.636002 1.060001 0.130000
v 0.660002 1.084001 0.130000
v 0.636002 1.180001 0.130000
v 0.660002 1.156001 0.130000
v 0.636002 1.156001 0.370000
v 0.660002 1.156001 0.346000
v 0.636002 1.180001 0.312059
v 0.602061 1.180001 0.346000
v 0.636002 1.084001 0.370000
v 0.602061 1.060001 0.346000
v 0.636002 1.060001 0.312059
v 0.660002 1.084001 0.346000
v 0.324002 1.084001 0.250000
v 0.324002 1.060001 0.274000
v 0.300002 1.084001 0.274000
v 0.324002 1.156001 0.250000
v 0.300002 1.156001 0.274000
v 0.324002 1.180001 0.274000
v 0.324002 1.084001 0.370000
v 0.300002 1.084001 0.346000
v 0.324002 1.060001 0.346000
v 0.324002 1.156001 0.370000
v 0.324002 1.180001 0.346000
v 0.300002 1.156001 0.346000
v 0.649706 1.240001 -0.099999
v 0.720000 1.169706 -0.099999
v 0.720000 1.070295 -0.099999
v 0.649706 1.000001 -0.100000
v 0.550295 1.000001 -0.100000
v 0.480000 1.070295 -0.099999
v 0.480000 1.169706 -0.099999
v 0.550295 1.240001 -0.099999
v 0.639765 1.216001 -0.159999
v 0.649706 1.240001 -0.135999
v 0.696000 1.159765 -0.159999
v 0.720000 1.169706 -0.135999
v 0.696000 1.080236 -0.159999
v 0.720000 1.070295 -0.135999
v 0.639765 1.024001 -0.159999
v 0.649706 1.000001 -0.136000
v 0.560236 1.024001 -0.159999
v 0.550295 1.000001 -0.136000
v 0.504000 1.080236 -0.159999
v 0.480000 1.070295 -0.135999
v 0.504000 1.159765 -0.159999
v 0.480000 1.169706 -0.135999
v 0.560236 1.216001 -0.159999
v 0.550295 1.240001 -0.135999
v 0.600000 1.120001 -0.159999
v 0.564002 1.060001 -0.240058
v 0.530061 1.060001 -0.274000
v 0.516002 1.084001 -0.249999
v 0.540002 1.084001 -0.225999
v 0.516002 1.156001 -0.249999
v 0.530061 1.180001 -0.273999
v 0.564002 1.180001 -0.240058
v 0.540002 1.156001 -0.225999
v 0.564002 1.060001 -0.130000
v 0.540002 1.084001 -0.129999
v 0.564002 1.180001 -0.129999
v 0.540002 1.156001 -0.129999
v 0.636002 1.060001 -0.130000
v 0.660002 1.084001 -0.129999
v 0.636002 1.180001 -0.129999
v 0.660002 1.156001 -0.129999
v 0.636002 1.156001 -0.369999
v 0.660002 1.156001 -0.346000
v 0.636002 1.180001 -0.312058
v 0.602061 1.180001 -0.346000
v 0.636002 1.084001 -0.370000
v 0.602061 1.060001 -0.346000
v 0.636002 1.060001 -0.312058
v 0.660002 1.084001 -0.346000
v 0.324002 1.084001 -0.249999
v 0.324002 1.060001 -0.274000
v 0.300002 1.084001 -0.274000
v 0.324002 1.156001 -0.249999
v 0.300002 1.156001 -0.273999
v 0.324002 1.180001 -0.273999
v 0.324002 1.084001 -0.370000
v 0.300002 1.084001 -0.346000
v 0.324002 1.060001 -0.346000
v 0.324002 1.156001 -0.369999
v 0.324002 1.180001 -0.346000
v 0.300002 1.156001 -0.346000
vt 0.923263 0.895264
vt 0.923263 0.937096
vt 0.923263 0.937096
vt 0.923263 0.895264
vt 0.963142 0.895264
vt 0.963142 0.895264
vt 0.963142 0.937096
vt 0.963142 0.937096
vt 0.963142 0.867376
vt 0.923263 0.867376
vt 0.923263 0.867376
vt 0.963142 0.867376
vt 0.927001 0.898999
vt 0.927001 0.933361
vt 0.927001 0.891529
vt 0.927001 0.871111
vt 0.927001 0.933361
vt 0.927001 0.898999
vt 0.927001 0.871111
vt 0.927001 0.891529
vt 0.929494 0.901489
vt 0.956911 0.901489
vt 0.956911 0.930871
vt 0.929494 0.930871
vt 0.959403 0.933361
vt 0.959403 0.891529
vt 0.959403 0.898999
vt 0.929494 0.889039
vt 0.956911 0.889039
vt 0.956911 0.873601
vt 0.929494 0.873601
vt 0.959403 0.871111
vt 0.959403 0.933361
vt 0.929494 0.930871
vt 0.956911 0.930871
vt 0.956911 0.901489
vt 0.929494 0.901489
vt 0.959403 0.898999
vt 0.959403 0.871111
vt 0.929494 0.873601
vt 0.956911 0.873601
vt 0.956911 0.889039
vt 0.929494 0.889039
vt 0.959403 0.891529
vt 0.928330 0.900327
vt 0.958075 0.900327
vt 0.928330 0.932034
vt 0.958075 0.932034
vt 0.928330 0.890202
vt 0.958075 0.890202
vt 0.928330 0.872438
vt 0.958075 0.872438
vt 0.928330 0.932034
vt 0.958075 0.932034
vt 0.928330 0.900327
vt 0.958075 0.900327
vt 0.928330 0.872438
vt 0.958075 0.872438
vt 0.928330 0.890202
vt 0.958075 0.890202
vt 0.185529 0.424073
vt 0.185529 0.424073
vt 0.200309 0.424073
vt 0.200309 0.424073
vt 0.210760 0.336367
vt 0.210760 0.336367
vt 0.200309 0.325927
vt 0.200309 0.325927
vt 0.185529 0.325927
vt 0.185529 0.325927
vt 0.175078 0.336367
vt 0.175078 0.336367
vt 0.175078 0.367617
vt 0.175078 0.367617
vt 0.175078 0.382383
vt 0.175078 0.382383
vt 0.175078 0.413633
vt 0.175078 0.413633
vt 0.210760 0.413633
vt 0.210760 0.413633
vt 0.210760 0.382383
vt 0.210760 0.382383
vt 0.210760 0.367617
vt 0.210760 0.367617
vt 0.210760 0.429258
vt 0.200309 0.439698
vt 0.198831 0.436134
vt 0.207192 0.427781
vt 0.207192 0.380906
vt 0.207192 0.369094
vt 0.200309 0.341552
vt 0.210760 0.351992
vt 0.207192 0.353469
vt 0.198831 0.345116
vt 0.185529 0.341552
vt 0.187007 0.345116
vt 0.175078 0.351992
vt 0.178647 0.353469
vt 0.178647 0.369094
vt 0.178647 0.380906
vt 0.185529 0.439698
vt 0.175078 0.429258
vt 0.178647 0.427781
vt 0.187007 0.436134
vt 0.198831 0.389259
vt 0.192919 0.375000
vt 0.187007 0.389259
vt 0.187007 0.360741
vt 0.198831 0.360741
vt 0.180431 0.380347
vt 0.180431 0.369653
vt 0.151886 0.369653
vt 0.151886 0.380347
vt 0.201840 0.380347
vt 0.201840 0.380347
vt 0.201840 0.369653
vt 0.201840 0.369653
vt 0.183999 0.369653
vt 0.183999 0.380347
vt 0.183999 0.380347
vt 0.183999 0.369653
vt 0.193225 0.334838
vt 0.151886 0.334838
vt 0.151886 0.334838
vt 0.182521 0.334838
vt 0.182521 0.415162
vt 0.151886 0.415162
vt 0.151886 0.415162
vt 0.193225 0.415162
vt 0.148318 0.380347
vt 0.148318 0.369653
vt 0.148318 0.369653
vt 0.148318 0.380347
vt 0.187567 0.415162
vt 0.198272 0.415162
vt 0.198272 0.415162
vt 0.187567 0.415162
vt 0.198272 0.380347
vt 0.151886 0.380347
vt 0.151886 0.369653
vt 0.198272 0.369653
vt 0.187567 0.350463
vt 0.182521 0.350463
vt 0.180431 0.354028
vt 0.183999 0.354028
vt 0.180431 0.427222
vt 0.182521 0.430787
vt 0.187567 0.430787
vt 0.183999 0.427222
vt 0.198272 0.427222
vt 0.201840 0.427222
vt 0.198272 0.430787
vt 0.193225 0.430787
vt 0.198272 0.354028
vt 0.193225 0.350463
vt 0.198272 0.350463
vt 0.201840 0.354028
vt 0.151886 0.354028
vt 0.151886 0.350463
vt 0.148318 0.354028
vt 0.151886 0.427222
vt 0.148318 0.427222
vt 0.151886 0.430787
vt 0.151886 0.354028
vt 0.148318 0.354028
vt 0.151886 0.350463
vt 0.151886 0.427222
vt 0.151886 0.430787
vt 0.148318 0.427222
vt 0.187567 0.350463
vt 0.183999 0.354028
vt 0.187567 0.430787
vt 0.183999 0.427222
vt 0.201840 0.354028
vt 0.198272 0.350463
vt 0.201840 0.427222
vt 0.198272 0.430787
vt 0.148318 0.385278
vt 0.148318 0.395972
vt 0.151886 0.395972
vt 0.151886 0.385278
vt 0.151886 0.385278
vt 0.151886 0.395972
vt 0.148318 0.395972
vt 0.148318 0.385278
vt 0.187567 0.334838
vt 0.198272 0.334838
vt 0.198272 0.334838
vt 0.187567 0.334838
vt 0.185529 0.424073
vt 0.200309 0.424073
vt 0.200309 0.424073
vt 0.185529 0.424073
vt 0.210760 0.336367
vt 0.200309 0.325927
vt 0.200309 0.325927
vt 0.210760 0.336367
vt 0.185529 0.325927
vt 0.185529 0.325927
vt 0.175078 0.336367
vt 0.175078 0.336367
vt 0.175078 0.367617
vt 0.175078 0.382383
vt 0.175078 0.382383
vt 0.175078 0.367617
vt 0.175078 0.413633
vt 0.175078 0.413633
vt 0.210760 0.413633
vt 0.210760 0.413633
vt 0.210760 0.382383
vt 0.210760 0.367617
vt 0.210760 0.367617
vt 0.210760 0.382383
vt 0.210760 0.429258
vt 0.207192 0.427781
vt 0.198831 0.436134
vt 0.200309 0.439698
vt 0.207192 0.369094
vt 0.207192 0.380906
vt 0.200309 0.341552
vt 0.198831 0.345116
vt 0.207192 0.353469
vt 0.210760 0.351992
vt 0.185529 0.341552
vt 0.187007 0.345116
vt 0.175078 0.351992
vt 0.178647 0.353469
vt 0.178647 0.380906
vt 0.178647 0.369094
vt 0.185529 0.439698
vt 0.187007 0.436134
vt 0.178647 0.427781
vt 0.175078 0.429258
vt 0.192919 0.375000
vt 0.198831 0.389259
vt 0.187007 0.389259
vt 0.187007 0.360741
vt 0.198831 0.360741
vt 0.180431 0.380347
vt 0.151886 0.380347
vt 0.151886 0.369653
vt 0.180431 0.369653
vt 0.201840 0.380347
vt 0.201840 0.369653
vt 0.201840 0.369653
vt 0.201840 0.380347
vt 0.183999 0.369653
vt 0.183999 0.369653
vt 0.183999 0.380347
vt 0.183999 0.380347
vt 0.193225 0.334838
vt 0.182521 0.334838
vt 0.151886 0.334838
vt 0.151886 0.334838
vt 0.182521 0.415162
vt 0.193225 0.415162
vt 0.151886 0.415162
vt 0.151886 0.415162
vt 0.148318 0.380347
vt 0.148318 0.380347
vt 0.148318 0.369653
vt 0.148318 0.369653
vt 0.187567 0.415162
vt 0.187567 0.415162
vt 0.198272 0.415162
vt 0.198272 0.415162
vt 0.198272 0.380347
vt 0.198272 0.369653
vt 0.151886 0.369653
vt 0.151886 0.380347
vt 0.187567 0.350463
vt 0.183999 0.354028
vt 0.180431 0.354028
vt 0.182521 0.350463
vt 0.180431 0.427222
vt 0.183999 0.427222
vt 0.187567 0.430787
vt 0.182521 0.430787
vt 0.198272 0.427222
vt 0.193225 0.430787
vt 0.198272 0.430787
vt 0.201840 0.427222
vt 0.198272 0.354028
vt 0.201840 0.354028
vt 0.198272 0.350463
vt 0.193225 0.350463
vt 0.151886 0.354028
vt 0.148318 0.354028
vt 0.151886 0.350463
vt 0.151886 0.427222
vt 0.151886 0.430787
vt 0.148318 0.427222
vt 0.151886 0.354028
vt 0.151886 0.350463
vt 0.148318 0.354028
vt 0.151886 0.427222
vt 0.148318 0.427222
vt 0.151886 0.430787
vt 0.187567 0.350463
vt 0.183999 0.354028
vt 0.183999 0.427222
vt 0.187567 0.430787
vt 0.201840 0.354028
vt 0.198272 0.350463
vt 0.198272 0.430787
vt 0.201840 0.427222
vt 0.148318 0.385278
vt 0.151886 0.385278
vt 0.151886 0.395972
vt 0.148318 0.395972
vt 0.151886 0.385278
vt 0.148318 0.385278
vt 0.148318 0.395972
vt 0.151886 0.395972
vt 0.187567 0.334838
vt 0.198272 0.334838
vt 0.198272 0.334838
vt 0.187567 0.334838
vn -1.0000 -0.0000 0.0000
vn 1.0000 0.0000 -0.0000
vn 0.0000 1.0000 0.0000
vn -0.0000 -1.0000 -0.0000
vn 0.0000 -0.0000 1.0000
vn 0.0918 0.0918 0.9915
vn 0.0918 -0.0918 0.9915
vn 0.0000 0.0000 -1.0000
vn 0.0918 -0.0918 -0.9915
vn 0.0918 0.0918 -0.9915
vn -0.2828 -0.2828 0.9166
vn 0.2828 -0.2828 0.9166
vn 0.2828 0.2828 0.9166
vn -0.2828 0.2828 0.9166
vn -0.0918 -0.0918 0.9915
vn -0.0918 -0.0918 -0.9915
vn -0.0918 0.0918 0.9915
vn -0.2828 0.2828 -0.9166
vn 0.2828 0.2828 -0.9166
vn 0.2828 -0.2828 -0.9166
vn -0.2828 -0.2828 -0.9166
vn -0.0918 0.0918 -0.9915
vn 0.0000 -0.6749 0.7379
vn 0.0000 0.6252 0.7805
vn 0.6252 -0.0000 0.7805
vn -0.6749 -0.0000 0.7379
vn 0.6749 -0.0000 0.7379
vn -0.6252 -0.0000 0.7805
vn 0.0000 -0.6252 0.7805
vn 0.0000 0.6749 0.7379
vn 0.0000 0.6749 -0.7379
vn 0.0000 -0.6252 -0.7805
vn 0.6252 0.0000 -0.7805
vn -0.6749 0.0000 -0.7379
vn 0.6749 0.0000 -0.7379
vn -0.6252 0.0000 -0.7805
vn 0.0000 0.6252 -0.7805
vn 0.0000 -0.6749 -0.7379
vn 0.7071 -0.7071 0.0000
vn 0.3557 -0.8587 0.3689
vn 0.3827 -0.9239 0.0000
vn -0.3557 -0.8587 0.3689
vn -0.3827 -0.9239 0.0000
vn -0.7071 -0.7071 0.0000
vn -0.9239 0.3827 0.0000
vn -0.7071 0.7071 0.0000
vn 0.7071 0.7071 0.0000
vn 0.9239 0.3827 0.0000
vn 0.6269 0.2597 0.7345
vn 0.2597 0.6269 0.7345
vn 0.1675 0.4044 0.8991
vn 0.4044 0.1675 0.8991
vn 0.6269 -0.2597 0.7345
vn 0.4044 -0.1675 0.8991
vn 0.1675 -0.4044 0.8991
vn -0.1675 -0.4044 0.8991
vn -0.6269 -0.2597 0.7345
vn -0.4044 -0.1675 0.8991
vn -0.6269 0.2597 0.7345
vn -0.4044 0.1675 0.8991
vn -0.2597 0.6269 0.7345
vn -0.1675 0.4044 0.8991
vn -0.3827 0.0000 -0.9239
vn 0.9239 -0.0000 0.3827
vn -0.8013 -0.5719 -0.1755
vn -0.8013 0.5719 -0.1755
vn -0.9239 -0.3827 0.0000
vn 0.0892 -0.9202 0.3812
vn -0.3416 -0.8756 0.3416
vn -0.1079 -0.9631 -0.2465
vn -0.1079 0.9631 -0.2465
vn -0.3416 0.8756 -0.3416
vn -0.3416 0.8756 0.3416
vn 0.0892 0.9202 0.3812
vn -0.8756 0.3416 -0.3416
vn -0.8756 -0.3416 -0.3416
vn -0.8756 -0.3416 0.3416
vn -0.8756 0.3416 0.3416
vn -0.2465 0.9631 -0.1079
vn 0.3812 0.9202 0.0892
vn 0.3827 0.9239 0.0000
vn -0.2465 -0.9631 -0.1079
vn -0.2308 -0.7523 -0.6171
vn -0.2308 0.7523 -0.6171
vn 0.2528 0.8391 0.4816
vn 0.4816 0.8391 0.2528
vn 0.2528 -0.8391 0.4816
vn 0.3812 -0.9202 0.0892
vn 0.4816 -0.8391 0.2528
vn -0.4606 -0.4606 -0.7588
vn -0.4606 -0.7588 -0.4606
vn -0.4606 0.4606 -0.7588
vn -0.4606 -0.4606 0.7588
vn -0.4606 0.4606 0.7588
vn -0.7071 0.0000 -0.7071
vn 0.7071 -0.0000 0.7071
vn -0.3827 0.9239 0.0000
vn 0.9239 -0.3827 0.0000
vn 0.6269 0.2597 -0.7345
vn 0.4044 0.1675 -0.8991
vn 0.1675 0.4044 -0.8991
vn 0.2597 0.6269 -0.7345
vn 0.6269 -0.2597 -0.7345
vn 0.4044 -0.1675 -0.8991
vn 0.2597 -0.6269 -0.7345
vn 0.1675 -0.4044 -0.8991
vn -0.2597 -0.6269 -0.7345
vn -0.1675 -0.4044 -0.8991
vn -0.6269 -0.2597 -0.7345
vn -0.4044 -0.1675 -0.8991
vn -0.6269 0.2597 -0.7345
vn -0.4044 0.1675 -0.8991
vn -0.2597 0.6269 -0.7345
vn -0.1675 0.4044 -0.8991
vn -0.3827 0.0000 0.9239
vn 0.8218 -0.4349 -0.3681
vn 0.9239 0.0000 -0.3827
vn -0.8013 -0.5719 0.1755
vn -0.8013 0.5719 0.1755
vn 0.0892 -0.9202 -0.3812
vn -0.1079 -0.9631 0.2465
vn -0.3416 -0.8756 -0.3416
vn -0.1079 0.9631 0.2465
vn 0.0892 0.9202 -0.3812
vn -0.2465 0.9631 0.1079
vn 0.3812 0.9202 -0.0892
vn 0.1770 0.5873 -0.7898
vn -0.3416 0.3416 -0.8756
vn -0.2465 -0.9631 0.1079
vn -0.2308 -0.7523 0.6171
vn -0.2308 0.7523 0.6171
vn 0.4816 0.8391 -0.2528
vn 0.2528 -0.8391 -0.4816
vn 0.3812 -0.9202 -0.0892
vn -0.7071 0.0000 0.7071
vn 0.7071 0.0000 -0.7071
usemtl tiny_treats_1
s 1
f 9/1/1 8/2/1 7/3/1 10/4/1
f 11/5/2 12/6/2 5/7/2 6/8/2
f 6/8/3 5/7/3 7/3/3 8/2/3
f 2/9/4 4/10/4 3/11/4 1/12/4
f 8/2/5 9/1/5 14/13/6 23/14/7
f 3/11/8 10/4/8 26/15/9 35/16/10
f 10/4/8 7/3/8 38/17/9 47/18/10
f 9/1/5 4/10/5 50/19/6 59/20/7
f 2/9/2 1/12/2 12/6/2 11/5/2
f 4/10/1 9/1/1 10/4/1 3/11/1
f 13/21/11 17/22/12 20/23/13 22/24/14
f 6/8/5 8/2/5 23/14/7 19/25/15
f 10/4/8 12/6/8 28/26/16 26/15/9
f 11/5/5 6/8/5 19/25/15 16/27/17
f 25/28/18 29/29/19 32/30/20 34/31/21
f 1/12/8 3/11/8 35/16/10 31/32/22
f 7/3/8 5/7/8 40/33/16 38/17/9
f 12/6/8 1/12/8 31/32/22 28/26/16
f 37/34/18 41/35/19 44/36/20 46/37/21
f 12/6/8 10/4/8 47/18/10 43/38/22
f 4/10/5 2/9/5 52/39/17 50/19/6
f 5/7/8 12/6/8 43/38/22 40/33/16
f 49/40/11 53/41/12 56/42/13 58/43/14
f 11/5/5 9/1/5 59/20/7 55/44/15
f 2/9/5 11/5/5 55/44/15 52/39/17
f 17/22/12 13/21/11 15/45/23 18/46/23
f 18/46/24 15/45/24 14/13/6 16/27/17
f 23/14/7 14/13/6 15/45/25 24/47/25
f 24/47/26 15/45/26 13/21/11 22/24/14
f 20/23/13 17/22/12 18/46/27 21/48/27
f 21/48/28 18/46/28 16/27/17 19/25/15
f 19/25/15 23/14/7 24/47/29 21/48/29
f 21/48/30 24/47/30 22/24/14 20/23/13
f 29/29/19 25/28/18 27/49/31 30/50/31
f 30/50/32 27/49/32 26/15/9 28/26/16
f 35/16/10 26/15/9 27/49/33 36/51/33
f 36/51/34 27/49/34 25/28/18 34/31/21
f 32/30/20 29/29/19 30/50/35 33/52/35
f 33/52/36 30/50/36 28/26/16 31/32/22
f 31/32/22 35/16/10 36/51/37 33/52/37
f 33/52/38 36/51/38 34/31/21 32/30/20
f 41/35/19 37/34/18 39/53/31 42/54/31
f 42/54/32 39/53/32 38/17/9 40/33/16
f 47/18/10 38/17/9 39/53/33 48/55/33
f 48/55/34 39/53/34 37/34/18 46/37/21
f 44/36/20 41/35/19 42/54/35 45/56/35
f 45/56/36 42/54/36 40/33/16 43/38/22
f 43/38/22 47/18/10 48/55/37 45/56/37
f 45/56/38 48/55/38 46/37/21 44/36/20
f 53/41/12 49/40/11 51/57/23 54/58/23
f 54/58/24 51/57/24 50/19/6 52/39/17
f 59/20/7 50/19/6 51/57/25 60/59/25
f 60/59/26 51/57/26 49/40/11 58/43/14
f 56/42/13 53/41/12 54/58/27 57/60/27
f 57/60/28 54/58/28 52/39/17 55/44/15
f 55/44/15 59/20/7 60/59/29 57/60/29
f 57/60/30 60/59/30 58/43/14 56/42/13
f 9/1/5 11/5/5 16/27/17 14/13/6
f 68/61/3 84/62/3 70/63/3 61/64/3
f 63/65/39 74/66/39 76/67/40 64/68/41
f 64/68/41 76/67/40 78/69/42 65/70/43
f 65/70/43 78/69/42 80/71/44 66/72/44
f 66/73/1 80/74/1 82/75/45 67/76/45
f 67/77/45 82/78/45 84/62/46 68/61/46
f 61/64/47 70/63/47 72/79/48 62/80/48
f 62/81/48 72/82/48 74/83/2 63/84/2
f 72/85/49 70/86/50 69/87/51 71/88/52
f 74/83/53 72/82/49 71/89/52 73/90/54
f 76/91/40 74/92/53 73/93/54 75/94/55
f 78/95/42 76/91/40 75/94/55 77/96/56
f 80/97/57 78/95/42 77/96/56 79/98/58
f 82/75/59 80/74/57 79/99/58 81/100/60
f 84/101/61 82/102/59 81/103/60 83/104/62
f 70/86/50 84/101/61 83/104/62 69/87/51
f 71/89/52 69/105/51 85/106/5
f 69/105/51 83/107/62 85/106/5
f 83/107/62 81/100/60 85/106/5
f 81/100/60 79/99/58 85/106/5
f 79/99/58 77/108/56 85/106/5
f 77/108/56 75/109/55 85/106/5
f 75/109/55 73/90/54 85/106/5
f 73/90/54 71/89/52 85/106/5
f 90/110/63 88/111/63 110/112/8 113/113/8
f 101/114/2 103/115/64 109/116/64 99/117/2
f 89/118/65 93/119/66 97/120/45 95/121/67
f 107/122/68 118/123/69 111/124/4 87/125/70
f 91/126/71 115/127/72 120/128/73 105/129/74
f 114/130/75 112/131/76 117/132/77 121/133/78
f 92/134/79 104/135/80 100/136/81 96/137/3
f 102/138/5 119/139/5 116/140/5 106/141/5
f 86/142/82 87/143/70 88/144/83 89/145/65
f 90/146/84 91/147/71 92/148/79 93/149/66
f 102/150/85 103/151/86 104/152/80 105/153/74
f 106/154/87 107/155/68 108/156/88 109/157/89
f 110/158/90 111/159/91 112/160/76
f 113/161/92 114/162/75 115/163/72
f 116/164/93 117/165/77 118/166/69
f 119/167/94 120/168/73 121/169/78
f 94/170/44 86/142/82 89/145/65 95/171/67
f 88/111/63 90/110/63 93/119/95 89/118/95
f 92/148/79 96/172/46 97/173/45 93/149/66
f 102/138/96 106/141/96 109/116/64 103/115/64
f 99/174/39 109/157/89 108/156/88 98/175/41
f 103/151/86 101/176/47 100/177/81 104/152/80
f 112/178/76 114/179/75 113/180/92 110/181/90
f 116/182/93 119/183/94 121/184/78 117/185/77
f 111/159/91 118/166/69 117/165/77 112/160/76
f 120/168/73 115/163/72 114/162/75 121/169/78
f 87/143/70 111/159/91 110/158/90 88/144/83
f 115/163/72 91/147/71 90/146/84 113/161/92
f 105/153/74 120/168/73 119/167/94 102/150/85
f 118/166/69 107/155/68 106/154/87 116/164/93
f 91/126/71 105/129/74 104/135/80 92/134/79
f 86/186/82 108/187/88 107/122/68 87/125/70
f 98/188/41 108/187/88 86/186/82 94/189/4
f 129/190/97 122/191/81 131/192/81 145/193/97
f 124/194/98 125/195/39 137/196/39 135/197/98
f 125/195/4 126/198/4 139/199/4 137/196/4
f 126/198/44 127/200/67 141/201/67 139/199/44
f 127/202/67 128/203/1 143/204/1 141/205/67
f 128/206/46 129/190/97 145/193/97 143/207/46
f 122/191/81 123/208/47 133/209/47 131/192/81
f 123/210/2 124/211/98 135/212/98 133/213/2
f 133/214/99 132/215/100 130/216/101 131/217/102
f 135/212/103 134/218/104 132/219/100 133/213/99
f 137/220/105 136/221/106 134/222/104 135/223/103
f 139/224/107 138/225/108 136/221/106 137/220/105
f 141/226/109 140/227/110 138/225/108 139/224/107
f 143/204/111 142/228/112 140/229/110 141/205/109
f 145/230/113 144/231/114 142/232/112 143/233/111
f 131/217/102 130/216/101 144/231/114 145/230/113
f 132/219/100 146/234/8 130/235/101
f 130/235/101 146/234/8 144/236/114
f 144/236/114 146/234/8 142/228/112
f 142/228/112 146/234/8 140/229/110
f 140/229/110 146/234/8 138/237/108
f 138/237/108 146/234/8 136/238/106
f 136/238/106 146/234/8 134/218/104
f 134/218/104 146/234/8 132/219/100
f 151/239/115 174/240/5 171/241/5 149/242/115
f 162/243/2 160/244/98 170/245/116 164/246/117
f 150/247/118 156/248/67 158/249/45 154/250/119
f 168/251/120 148/252/121 172/253/69 179/254/122
f 152/255/123 166/256/124 181/257/72 176/258/73
f 175/259/78 182/260/75 178/261/76 173/262/77
f 153/263/125 157/264/3 161/265/81 165/266/126
f 163/267/127 167/268/8 177/269/8 180/270/128
f 147/271/129 150/272/118 149/273/130 148/274/121
f 151/275/131 154/276/119 153/277/125 152/278/123
f 163/279/127 166/280/124 165/281/126 164/282/132
f 167/283/133 170/284/116 169/285/134 168/286/120
f 171/287/93 173/288/77 172/289/69
f 174/290/94 176/291/73 175/292/78
f 177/293/90 179/294/122 178/295/76
f 180/296/128 182/297/75 181/298/72
f 155/299/44 156/300/67 150/272/118 147/271/129
f 149/242/115 150/247/135 154/250/135 151/239/115
f 153/277/125 154/276/119 158/301/45 157/302/46
f 163/267/136 164/246/117 170/245/116 167/268/136
f 160/303/98 159/304/39 169/285/134 170/284/116
f 164/282/132 165/281/126 161/305/81 162/306/47
f 173/307/77 171/308/93 174/309/94 175/310/78
f 177/311/90 178/312/76 182/313/75 180/314/128
f 172/289/69 173/288/77 178/295/76 179/294/122
f 181/298/72 182/297/75 175/292/78 176/291/73
f 148/274/121 149/273/130 171/287/93 172/289/69
f 176/291/73 174/290/94 151/275/131 152/278/123
f 166/280/124 163/279/127 180/296/128 181/298/72
f 179/294/122 177/293/90 167/283/133 168/286/120
f 152/255/123 153/263/125 165/266/126 166/256/124
f 147/315/129 148/252/121 168/251/120 169/316/134
f 159/317/4 155/318/4 147/315/129 169/316/134
