# Blender v3.4.1 OBJ File: 'Tiny_Treats_Bubbly_Bathroom_1.1_ASSETS_EXPORT.blend'
# www.blender.org
mtllib wall_tiled_window_full_left_open.mtl
o wall_tiled_window_full_left_open
v 1.000000 -0.000000 0.200807
v 1.000000 4.000000 0.200806
v -1.000000 0.000000 0.200806
v -1.000000 4.000000 0.200806
v 1.000000 3.500000 0.200806
v -0.750000 3.500000 0.200806
v 1.000000 0.500000 0.200806
v -0.750000 0.500000 0.200806
v -0.750000 1.500000 0.200806
v -1.000000 1.500000 0.200806
v -1.000000 4.000000 0.250806
v 1.000000 4.000000 0.250806
v 1.000000 3.500000 0.250806
v -0.750000 3.500000 0.250806
v -0.750000 1.560000 0.250806
v -1.000000 1.560000 0.250806
v 1.000000 -0.000000 0.200807
v -0.936283 0.063717 0.250807
v -1.000000 -0.000000 0.200807
v -0.936283 0.436283 0.250807
v -1.000000 0.500000 0.200807
v -0.563717 0.063717 0.250807
v -0.500000 -0.000000 0.200807
v -0.563717 0.436283 0.250807
v -0.500000 0.500000 0.200807
v -0.436283 0.063717 0.250807
v -0.436283 0.436283 0.250807
v -0.063717 0.063717 0.250807
v -0.063717 0.436283 0.250807
v 0.063717 0.063717 0.250807
v -0.000000 -0.000000 0.200807
v 0.063717 0.436283 0.250807
v 0.436283 0.063717 0.250807
v 0.500000 -0.000000 0.200807
v 0.436283 0.436283 0.250807
v 0.500000 0.500000 0.200807
v -0.000000 0.500000 0.200807
v 0.563717 0.063717 0.250807
v 0.563717 0.436283 0.250807
v 0.936283 0.063717 0.250807
v 0.936283 0.436283 0.250807
v 1.000000 0.500000 0.200807
v 1.000000 0.000000 -0.249194
v 1.000000 4.000000 -0.249194
v -1.000000 4.000000 -0.249194
v -1.000000 0.000000 -0.249194
v 1.000000 3.500000 -0.249194
v -0.750000 3.500000 -0.249194
v 1.000000 0.500000 -0.249194
v -0.750000 0.500000 -0.249194
v -0.750000 1.500000 -0.249194
v -1.000000 1.500000 -0.249194
v -0.800000 0.475000 0.450806
v -0.800000 0.525000 0.500806
v -0.850000 0.525000 0.450806
v -0.800000 0.675000 0.500806
v -0.800000 0.725000 0.450806
v -0.850000 0.675000 0.450806
v -0.800000 0.475000 -0.449194
v -0.850000 0.525000 -0.449194
v -0.800000 0.525000 -0.499194
v -0.800000 0.725000 -0.449194
v -0.800000 0.675000 -0.499194
v -0.850000 0.675000 -0.449194
v 1.000000 0.475000 0.450806
v 1.000000 0.525000 0.500806
v 1.000000 0.725000 0.450806
v 1.000000 0.675000 0.500806
v 1.000000 0.475000 -0.449194
v 1.000000 0.525000 -0.499194
v 1.000000 0.725000 -0.449194
v 1.000000 0.675000 -0.499194
v -0.620000 1.790320 0.070806
v -0.620000 1.820320 0.100806
v -0.620000 1.960319 0.100806
v -0.620000 1.990320 0.070806
v -0.620000 1.790320 -0.069194
v -0.620000 1.820320 -0.099194
v -0.620000 1.990320 -0.069194
v -0.620000 1.960319 -0.099194
v 0.900000 1.790320 0.070806
v 0.900000 1.820320 0.100806
v 0.900000 1.990320 0.070806
v 0.900000 1.960319 0.100806
v 0.900000 1.790320 -0.069194
v 0.900000 1.820320 -0.099194
v 0.900000 1.990320 -0.069194
v 0.900000 1.960319 -0.099194
v -0.700000 1.890320 0.000806
v 1.000000 1.890320 0.000806
v -0.700000 3.390320 0.000806
v 1.000000 3.390320 0.000806
v -0.700000 3.390320 -0.049194
v -0.700000 1.890320 -0.049194
v 1.000000 1.890320 -0.049194
v 1.000000 3.390320 -0.049194
v -0.750000 0.699999 0.150806
v 1.000000 3.500000 0.150806
v -0.750000 3.500000 0.150806
v -0.540000 0.699999 0.150806
v 1.000000 3.300000 0.150806
v -0.540000 3.300000 0.150806
v -0.750000 0.699999 -0.149194
v 1.000000 3.500000 -0.149194
v -0.750000 3.500000 -0.149194
v -0.540000 0.699999 -0.149194
v 1.000000 3.300000 -0.149194
v -0.540000 3.300000 -0.149194
v 0.900000 0.699999 0.150806
v 0.900000 3.500000 0.150806
v 1.000000 0.699999 0.150806
v 1.000000 3.500000 0.150806
v 0.900000 0.699999 -0.149194
v 0.900000 3.500000 -0.149194
v 1.000000 0.699999 -0.149194
v 1.000000 3.500000 -0.149194
v -0.032549 1.864296 0.207301
v -0.032549 1.935704 0.207301
v 0.312549 1.864296 0.207301
v 0.312549 1.935704 0.207301
v 0.259608 1.864296 0.141125
v 0.020392 1.864296 0.141125
v 0.020392 1.935704 0.141125
v 0.259608 1.935704 0.141125
v -0.118823 1.935704 0.041247
v -0.118823 1.864296 0.041247
v -0.039412 1.864296 0.041247
v 0.319412 1.935704 0.041247
v 0.398824 1.935704 0.041247
v 0.398824 1.864296 0.041247
v 0.319412 1.864296 0.041247
v -0.039412 1.935704 0.041247
v -0.042475 1.900000 0.219709
v 0.322476 1.900000 0.219709
v 0.140000 1.864296 0.156106
v 0.140000 1.935704 0.156106
v 0.140000 1.864296 0.232209
v 0.140000 1.935704 0.232209
v 0.030319 1.900000 0.128716
v 0.249681 1.900000 0.128716
v -0.133713 1.900000 0.041247
v -0.079118 1.850907 0.041247
v 0.359118 1.949093 0.041247
v 0.413713 1.900000 0.041247
v 0.359118 1.850907 0.041247
v -0.079118 1.949093 0.041247
v -0.024522 1.900000 0.041247
v 0.304522 1.900000 0.041247
v 0.311936 1.864296 0.098677
v 0.388039 1.864296 0.136728
v 0.388039 1.935704 0.136728
v -0.031936 1.864296 0.098677
v -0.031936 1.935704 0.098677
v -0.108039 1.864296 0.136728
v 0.311936 1.935704 0.098677
v -0.108039 1.935704 0.136728
v -0.006078 1.949093 0.174213
v -0.006078 1.850907 0.174213
v 0.286079 1.949093 0.174213
v 0.286078 1.850907 0.174213
v -0.069988 1.850907 0.117702
v 0.349988 1.850907 0.117702
v -0.069988 1.949093 0.117702
v 0.140000 1.949093 0.194158
v 0.140000 1.850907 0.194158
v 0.140000 1.900000 0.246478
v 0.140000 1.900000 0.141837
v -0.017667 1.900000 0.091542
v 0.297667 1.900000 0.091542
v 0.349988 1.949093 0.117702
v 0.402309 1.900000 0.143863
v -0.122308 1.900000 0.143863
vt 0.409246 0.819082
vt 0.462062 0.819082
vt 0.462062 0.854734
vt 0.409246 0.854734
vt 0.409246 0.872560
vt 0.399968 0.872560
vt 0.409246 0.854734
vt 0.409246 0.872560
vt 0.462062 0.917234
vt 0.409246 0.917234
vt 0.409246 0.917234
vt 0.462062 0.917234
vt 0.163245 0.402077
vt 0.163245 0.344470
vt 0.163245 0.345852
vt 0.163245 0.402077
vt 0.169242 0.344470
vt 0.169473 0.379034
vt 0.169473 0.379034
vt 0.169242 0.345852
vt 0.203610 0.379034
vt 0.209376 0.402077
vt 0.163245 0.313220
vt 0.169242 0.313220
vt 0.169242 0.314602
vt 0.163245 0.314602
vt 0.203610 0.379034
vt 0.209376 0.402077
vt 0.461876 0.850622
vt 0.461876 0.899375
vt 0.413123 0.899375
vt 0.413123 0.850622
vt 0.413123 0.819372
vt 0.413123 0.868125
vt 0.404785 0.876463
vt 0.404785 0.811034
vt 0.461876 0.883750
vt 0.461876 0.834997
vt 0.470214 0.826659
vt 0.470214 0.892088
vt 0.404785 0.795409
vt 0.470214 0.795409
vt 0.461876 0.803747
vt 0.413123 0.803747
vt 0.470214 0.938963
vt 0.404785 0.938963
vt 0.413123 0.930625
vt 0.461876 0.930625
vt 0.461876 0.850622
vt 0.461876 0.899375
vt 0.413123 0.899375
vt 0.413123 0.850622
vt 0.413123 0.819372
vt 0.413123 0.868125
vt 0.404785 0.876463
vt 0.404785 0.811034
vt 0.461876 0.883750
vt 0.461876 0.834997
vt 0.470214 0.826659
vt 0.470214 0.892088
vt 0.404785 0.795409
vt 0.470214 0.795409
vt 0.461876 0.803747
vt 0.413123 0.803747
vt 0.470214 0.938963
vt 0.404785 0.938963
vt 0.413123 0.930625
vt 0.461876 0.930625
vt 0.461876 0.850622
vt 0.461876 0.899375
vt 0.413123 0.899375
vt 0.413123 0.850622
vt 0.413123 0.819372
vt 0.413123 0.868125
vt 0.404785 0.876463
vt 0.404785 0.811034
vt 0.461876 0.883750
vt 0.461876 0.834997
vt 0.470214 0.826659
vt 0.470214 0.892088
vt 0.404785 0.795409
vt 0.470214 0.795409
vt 0.461876 0.803747
vt 0.413123 0.803747
vt 0.470214 0.938963
vt 0.404785 0.938963
vt 0.413123 0.930625
vt 0.461876 0.930625
vt 0.461876 0.850622
vt 0.461876 0.899375
vt 0.413123 0.899375
vt 0.413123 0.850622
vt 0.413123 0.819372
vt 0.413123 0.868125
vt 0.404785 0.876463
vt 0.404785 0.811034
vt 0.461876 0.883750
vt 0.461876 0.834997
vt 0.470214 0.826659
vt 0.470214 0.892088
vt 0.404785 0.795409
vt 0.470214 0.795409
vt 0.461876 0.803747
vt 0.413123 0.803747
vt 0.470214 0.938963
vt 0.404785 0.938963
vt 0.413123 0.930625
vt 0.461876 0.930625
vt 0.209376 0.402077
vt 0.163245 0.402077
vt 0.399968 0.935060
vt 0.399968 0.881582
vt 0.399968 0.881582
vt 0.399968 0.935060
vt 0.203379 0.379034
vt 0.169242 0.379034
vt 0.471802 0.815299
vt 0.462062 0.819082
vt 0.169242 0.344470
vt 0.163245 0.344470
vt 0.471802 0.815299
vt 0.420115 0.815299
vt 0.420115 0.815299
vt 0.409246 0.819082
vt 0.462062 0.854734
vt 0.399968 0.819082
vt 0.399968 0.872560
vt 0.982823 0.877541
vt 0.982823 0.892785
vt 0.892177 0.892785
vt 0.892177 0.877541
vt 0.982823 0.929116
vt 0.892177 0.929116
vt 0.892177 0.929116
vt 0.982823 0.929116
vt 0.888940 0.877541
vt 0.888940 0.892785
vt 0.888940 0.892785
vt 0.888940 0.877541
vt 0.892177 0.877541
vt 0.892177 0.892785
vt 0.982823 0.892785
vt 0.982823 0.877541
vt 0.892177 0.856834
vt 0.892177 0.861916
vt 0.888940 0.861916
vt 0.892177 0.939660
vt 0.892177 0.944741
vt 0.888940 0.939660
vt 0.892177 0.856834
vt 0.888940 0.861916
vt 0.892177 0.861916
vt 0.892177 0.944741
vt 0.892177 0.939660
vt 0.888940 0.939660
vt 0.892177 0.893166
vt 0.892177 0.908410
vt 0.888940 0.908410
vt 0.888940 0.893166
vt 0.892177 0.908410
vt 0.892177 0.893166
vt 0.888940 0.893166
vt 0.888940 0.908410
vt 0.982823 0.856834
vt 0.982823 0.861916
vt 0.982823 0.944741
vt 0.982823 0.939660
vt 0.982823 0.841209
vt 0.982823 0.939660
vt 0.982823 0.856834
vt 0.982823 0.861916
vt 0.982823 0.944741
vt 0.892177 0.841209
vt 0.982823 0.841209
vt 0.892177 0.841209
vt 0.484964 0.867836
vt 0.484964 0.885395
vt 0.390036 0.885395
vt 0.390036 0.867836
vt 0.484964 0.920408
vt 0.390036 0.920408
vt 0.390036 0.920408
vt 0.484964 0.920408
vt 0.390036 0.867836
vt 0.390036 0.885395
vt 0.484964 0.885395
vt 0.484964 0.867836
vt 0.484964 0.848448
vt 0.390036 0.848448
vt 0.390036 0.852211
vt 0.484964 0.852211
vt 0.390036 0.936033
vt 0.484964 0.936033
vt 0.484964 0.932270
vt 0.390036 0.932270
vt 0.390036 0.848449
vt 0.484964 0.848449
vt 0.484964 0.852211
vt 0.390036 0.852211
vt 0.484964 0.936033
vt 0.390036 0.936033
vt 0.390036 0.932270
vt 0.484964 0.932270
vt 0.390036 0.832823
vt 0.484964 0.832823
vt 0.484964 0.832824
vt 0.390036 0.832824
vt 0.411345 0.937821
vt 0.411345 0.885562
vt 0.416576 0.890788
vt 0.416576 0.932595
vt 0.458424 0.932595
vt 0.463655 0.937821
vt 0.411345 0.937821
vt 0.416576 0.932595
vt 0.416576 0.890788
vt 0.411345 0.885562
vt 0.463655 0.937821
vt 0.458424 0.932595
vt 0.416576 0.901345
vt 0.416576 0.901345
vt 0.416576 0.859538
vt 0.416576 0.859538
vt 0.458424 0.901345
vt 0.458424 0.901345
vt 0.411345 0.937821
vt 0.411345 0.885562
vt 0.416576 0.890788
vt 0.416576 0.932595
vt 0.411345 0.937821
vt 0.416576 0.932595
vt 0.416576 0.890788
vt 0.411345 0.885562
vt 0.416576 0.901345
vt 0.416576 0.901345
vt 0.416576 0.859538
vt 0.416576 0.859538
vt 0.410321 0.774357
vt 0.398430 0.774357
vt 0.404424 0.771772
vt 0.414491 0.771772
vt 0.396732 0.774357
vt 0.402986 0.771772
vt 0.409240 0.774357
vt 0.410418 0.774357
vt 0.418660 0.774357
vt 0.456340 0.774357
vt 0.464582 0.774357
vt 0.470576 0.771772
vt 0.460509 0.771772
vt 0.465760 0.774357
vt 0.472014 0.771772
vt 0.478268 0.774357
vt 0.476570 0.774357
vt 0.464679 0.774357
vt 0.418660 0.850643
vt 0.410418 0.850643
vt 0.404424 0.853228
vt 0.414491 0.853228
vt 0.409240 0.850643
vt 0.402986 0.853228
vt 0.396732 0.850643
vt 0.398430 0.850643
vt 0.410321 0.850643
vt 0.456340 0.850643
vt 0.437500 0.850643
vt 0.437500 0.853228
vt 0.460509 0.853228
vt 0.437500 0.850643
vt 0.464679 0.850643
vt 0.437500 0.774357
vt 0.437500 0.771772
vt 0.437500 0.774357
vt 0.464679 0.819393
vt 0.437500 0.819393
vt 0.437500 0.812500
vt 0.466242 0.812500
vt 0.410321 0.819393
vt 0.408758 0.812500
vt 0.410321 0.805607
vt 0.437500 0.805607
vt 0.464679 0.805607
vt 0.418660 0.805607
vt 0.420224 0.812500
vt 0.437500 0.812500
vt 0.437500 0.805607
vt 0.418660 0.819393
vt 0.437500 0.819393
vt 0.456340 0.819393
vt 0.454776 0.812500
vt 0.456340 0.805607
vt 0.412665 0.812500
vt 0.410418 0.819393
vt 0.410418 0.805607
vt 0.409240 0.805607
vt 0.411585 0.812500
vt 0.409240 0.819393
vt 0.462335 0.812500
vt 0.464582 0.805607
vt 0.464582 0.819393
vt 0.465760 0.819393
vt 0.463415 0.812500
vt 0.465760 0.805607
vt 0.476570 0.850643
vt 0.470576 0.853228
vt 0.478268 0.850643
vt 0.472014 0.853228
vt 0.465760 0.850643
vt 0.464582 0.850643
vt 0.478817 0.812500
vt 0.476570 0.819393
vt 0.476570 0.805607
vt 0.478268 0.805607
vt 0.480614 0.812500
vt 0.478268 0.819393
vt 0.398430 0.819393
vt 0.396183 0.812500
vt 0.396732 0.819393
vt 0.394386 0.812500
vt 0.396732 0.805607
vt 0.398430 0.805607
vt 0.764993 0.014993
vt 0.985007 0.014993
vt 0.985007 0.235007
vt 0.764993 0.235007
vt 0.764993 0.014993
vt 0.764993 0.235007
vt 0.985007 0.235007
vt 0.985007 0.014993
vn -0.0000 0.0000 1.0000
vn -0.0000 -0.3404 0.9403
vn 1.0000 0.0000 0.0000
vn 0.0000 1.0000 0.0000
vn -1.0000 0.0000 0.0000
vn 0.0000 -0.6402 0.7682
vn 0.0000 -1.0000 -0.0000
vn 0.2533 -0.2533 0.9336
vn 0.2533 0.2533 0.9336
vn -0.2533 0.2533 0.9336
vn -0.2533 -0.2533 0.9336
vn -0.6173 0.0000 0.7867
vn 0.6173 0.0000 0.7867
vn 0.0000 -0.6173 0.7867
vn 0.0000 0.6173 0.7867
vn 0.0000 0.0000 -1.0000
vn 0.0000 -0.3827 0.9239
vn 0.0000 0.3827 0.9239
vn -0.3416 0.3416 0.8756
vn -0.3416 -0.3416 0.8756
vn -0.3416 0.8756 -0.3416
vn -0.3416 0.8756 0.3416
vn -0.3416 -0.3416 -0.8756
vn -0.3416 0.3416 -0.8756
vn 0.0000 0.3827 -0.9239
vn 0.0000 -0.3827 -0.9239
vn -0.3416 -0.8756 0.3416
vn -0.7588 -0.4606 0.4606
vn -0.7588 0.4606 0.4606
vn -0.3416 -0.8756 -0.3416
vn -0.7588 -0.4606 -0.4606
vn -0.7588 0.4606 -0.4606
vn 0.0000 -0.7071 -0.7071
vn 0.0000 0.7071 -0.7071
vn 0.0000 -0.7071 0.7071
vn 0.0000 0.7071 0.7071
vn -0.1425 -0.9508 0.2752
vn -0.2650 -0.9549 0.1338
vn -0.0619 -0.9976 0.0298
vn -0.0137 -0.9982 0.0592
vn -0.3173 -0.9476 0.0368
vn -0.0243 -0.9997 0.0015
vn 0.3168 -0.9477 -0.0393
vn 0.2600 -0.9552 -0.1416
vn 0.1127 -0.9486 -0.2958
vn -0.1127 -0.9486 -0.2958
vn -0.2600 -0.9552 -0.1416
vn 0.0619 -0.9976 0.0298
vn 0.0137 -0.9982 0.0592
vn -0.3168 -0.9477 -0.0393
vn 0.0243 -0.9997 0.0015
vn 0.3173 -0.9476 0.0368
vn 0.2650 -0.9549 0.1338
vn 0.1425 -0.9508 0.2752
vn 0.1127 0.9486 -0.2958
vn 0.2600 0.9552 -0.1416
vn -0.0619 0.9976 0.0298
vn -0.0137 0.9982 0.0592
vn 0.3168 0.9477 -0.0393
vn -0.0243 0.9997 0.0015
vn -0.3173 0.9476 0.0368
vn -0.2650 0.9549 0.1338
vn -0.1425 0.9508 0.2752
vn -0.1127 0.9486 -0.2958
vn -0.0000 0.9412 -0.3378
vn -0.0000 0.9996 0.0286
vn 0.0137 0.9982 0.0592
vn 0.0000 0.9416 0.3368
vn 0.1425 0.9508 0.2752
vn 0.0000 -0.9412 -0.3378
vn 0.0000 -0.9996 0.0286
vn 0.0000 -0.9416 0.3368
vn 0.3843 0.3944 0.8347
vn -0.0000 0.3664 0.9304
vn 0.4499 0.0000 0.8931
vn -0.3843 0.3944 0.8347
vn -0.4499 0.0000 0.8931
vn -0.3843 -0.3944 0.8347
vn 0.0000 -0.3664 0.9304
vn 0.3843 -0.3944 0.8347
vn 0.3713 -0.3899 -0.8427
vn 0.3671 0.0000 -0.9302
vn -0.0000 -0.3639 -0.9315
vn 0.3713 0.3899 -0.8427
vn -0.0000 0.3639 -0.9315
vn -0.3713 0.3899 -0.8427
vn -0.3671 0.0000 -0.9302
vn -0.3713 -0.3899 -0.8427
vn 0.7896 0.4138 -0.4531
vn 0.7943 0.4138 -0.4449
vn 0.7943 -0.4138 -0.4449
vn 0.7896 -0.4138 -0.4531
vn 0.9146 -0.3856 -0.1217
vn 0.9146 0.3856 -0.1217
vn -0.7896 -0.4138 -0.4531
vn -0.7943 -0.4138 -0.4449
vn -0.7943 0.4138 -0.4449
vn -0.7896 0.4138 -0.4531
vn -0.9146 0.3856 -0.1217
vn -0.9146 -0.3856 -0.1217
vn 0.2650 0.9549 0.1338
vn 0.0619 0.9976 0.0298
vn 0.3173 0.9476 0.0368
vn 0.0243 0.9997 0.0015
vn -0.3168 0.9477 -0.0393
vn -0.2600 0.9552 -0.1416
vn 0.8155 0.4118 0.4066
vn 0.8156 0.4118 0.4065
vn 0.8156 -0.4118 0.4065
vn 0.8155 -0.4118 0.4066
vn 0.9173 -0.3848 0.1027
vn 0.9173 0.3848 0.1027
vn -0.8156 0.4118 0.4065
vn -0.8155 0.4118 0.4066
vn -0.9173 0.3848 0.1027
vn -0.8155 -0.4118 0.4066
vn -0.9173 -0.3848 0.1027
vn -0.8156 -0.4118 0.4065
usemtl tiny_treats_1
s 1
f 3/1/1 1/2/1 7/3/1 8/4/1
f 3/1/1 8/4/1 9/5/2 10/6/2
f 8/4/3 50/7/3 51/8/3 9/5/3
f 49/9/4 50/10/4 8/11/4 7/12/4
f 4/13/5 10/14/5 16/15/5 11/16/5
f 9/17/3 6/18/3 14/19/3 15/20/3
f 11/16/1 14/19/1 13/21/1 12/22/1
f 11/16/1 16/15/1 15/20/1 14/19/1
f 10/23/2 9/24/2 15/25/6 16/26/6
f 6/18/7 5/27/7 13/21/7 14/19/7
f 2/28/4 4/13/4 11/16/4 12/22/4
f 22/29/8 24/30/9 20/31/10 18/32/11
f 18/33/11 20/34/10 21/35/12 19/36/12
f 24/37/9 22/38/8 23/39/13 25/40/13
f 19/41/14 23/42/14 22/43/8 18/44/11
f 25/45/15 21/46/15 20/47/10 24/48/9
f 28/49/8 29/50/9 27/51/10 26/52/11
f 26/53/11 27/54/10 25/55/12 23/56/12
f 29/57/9 28/58/8 31/59/13 37/60/13
f 23/61/14 31/62/14 28/63/8 26/64/11
f 37/65/15 25/66/15 27/67/10 29/68/9
f 33/69/8 35/70/9 32/71/10 30/72/11
f 30/73/11 32/74/10 37/75/12 31/76/12
f 35/77/9 33/78/8 34/79/13 36/80/13
f 31/81/14 34/82/14 33/83/8 30/84/11
f 36/85/15 37/86/15 32/87/10 35/88/9
f 40/89/8 41/90/9 39/91/10 38/92/11
f 38/93/11 39/94/10 36/95/12 34/96/12
f 41/97/9 40/98/8 17/99/13 42/100/13
f 34/101/14 17/102/14 40/103/8 38/104/11
f 42/105/15 36/106/15 39/107/10 41/108/9
f 44/109/4 45/110/4 4/13/4 2/28/4
f 52/111/5 46/112/5 3/113/5 10/114/5
f 47/115/7 5/27/7 6/18/7 48/116/7
f 7/12/3 1/117/3 43/118/3 49/9/3
f 44/109/16 47/115/16 48/116/16 45/110/16
f 9/17/3 51/119/3 48/116/3 6/18/3
f 45/110/16 48/116/16 51/119/16 52/120/16
f 43/121/7 1/117/7 3/122/7 46/123/7
f 43/118/16 46/124/16 50/7/16 49/125/16
f 46/126/16 52/127/16 51/8/16 50/7/16
f 44/109/3 2/28/3 5/27/3 47/115/3
f 12/22/3 13/21/3 5/27/3 2/28/3
f 4/13/5 45/110/5 52/120/5 10/14/5
f 66/128/17 68/129/18 56/130/19 54/131/20
f 71/132/4 62/133/21 57/134/22 67/135/4
f 55/136/5 58/137/5 64/138/5 60/139/5
f 61/140/23 63/141/24 72/142/25 70/143/26
f 53/144/27 54/145/20 55/146/28
f 56/147/19 57/148/22 58/149/29
f 59/150/30 60/151/31 61/152/23
f 62/153/21 63/154/24 64/155/32
f 59/150/30 53/144/27 55/146/28 60/151/31
f 54/156/20 56/157/19 58/158/29 55/159/28
f 57/148/22 62/153/21 64/155/32 58/149/29
f 63/160/24 61/161/23 60/162/31 64/163/32
f 69/164/33 59/150/30 61/152/23 70/165/26
f 62/153/21 71/166/34 72/167/25 63/154/24
f 66/128/3 65/168/3 69/164/3 70/143/3
f 70/143/3 72/167/3 68/129/3 66/128/3
f 67/135/3 68/169/3 72/167/3 71/132/3
f 53/144/27 65/170/35 66/171/17 54/145/20
f 67/172/36 57/148/22 56/147/19 68/169/18
f 59/173/30 69/174/7 65/168/7 53/175/27
f 82/176/17 84/177/18 75/178/18 74/179/17
f 87/180/4 79/181/4 76/182/4 83/183/4
f 78/184/26 80/185/25 88/186/25 86/187/26
f 85/188/33 77/189/33 78/190/26 86/191/26
f 79/192/34 87/193/34 88/194/25 80/195/25
f 73/196/35 81/197/35 82/198/17 74/199/17
f 83/200/36 76/201/36 75/202/18 84/203/18
f 77/204/7 85/205/7 81/206/7 73/207/7
f 99/208/1 97/209/1 100/210/1 102/211/1
f 99/208/1 102/211/1 101/212/1 98/213/1
f 105/214/16 108/215/16 106/216/16 103/217/16
f 105/214/16 104/218/16 107/219/16 108/215/16
f 108/220/3 102/221/3 100/222/3 106/223/3
f 98/213/3 101/224/3 107/219/3 104/218/3
f 107/225/7 101/224/7 102/221/7 108/220/7
f 110/226/1 109/227/1 111/228/1 112/229/1
f 114/230/16 116/231/16 115/232/16 113/233/16
f 116/234/3 112/235/3 111/236/3 115/237/3
f 109/227/5 110/226/5 114/230/5 113/233/5
f 117/238/37 154/239/38 161/240/39 158/241/40
f 154/239/38 126/242/41 142/243/42 161/240/39
f 161/240/39 142/243/42 127/244/43 152/245/44
f 158/241/40 161/240/39 152/245/44 122/246/45
f 121/247/46 149/248/47 162/249/48 160/250/49
f 149/248/47 131/251/50 145/252/51 162/249/48
f 162/249/48 145/252/51 130/253/52 150/254/53
f 160/250/49 162/249/48 150/254/53 119/255/54
f 123/256/55 153/257/56 163/258/57 157/259/58
f 153/257/56 132/260/59 146/261/60 163/258/57
f 163/258/57 146/261/60 125/262/61 156/263/62
f 157/259/58 163/258/57 156/263/62 118/264/63
f 124/265/64 136/266/65 164/267/66 159/268/67
f 136/266/65 123/256/55 157/259/58 164/267/66
f 164/267/66 157/259/58 118/264/63 138/269/68
f 159/268/67 164/267/66 138/269/68 120/270/69
f 122/246/45 135/271/70 165/272/71 158/241/40
f 135/271/70 121/247/46 160/250/49 165/272/71
f 165/272/71 160/250/49 119/255/54 137/273/72
f 158/241/40 165/272/71 137/273/72 117/238/37
f 120/274/73 138/275/74 166/276/1 134/277/75
f 138/275/74 118/278/76 133/279/77 166/276/1
f 166/276/1 133/279/77 117/280/78 137/281/79
f 134/277/75 166/276/1 137/281/79 119/282/80
f 122/283/81 139/284/82 167/285/16 135/286/83
f 139/284/82 123/287/84 136/288/85 167/285/16
f 167/285/16 136/288/85 124/289/86 140/290/87
f 135/286/83 167/285/16 140/290/87 121/291/88
f 123/287/84 139/284/82 168/292/89 153/293/90
f 139/284/82 122/283/81 152/294/91 168/292/92
f 168/292/92 152/294/91 127/295/93 147/296/93
f 153/293/90 168/292/89 147/296/94 132/297/94
f 121/291/88 140/290/87 169/298/95 149/299/96
f 140/290/87 124/289/86 155/300/97 169/298/98
f 169/298/98 155/300/97 128/301/99 148/302/99
f 149/299/96 169/298/95 148/302/100 131/303/100
f 120/270/69 151/304/101 170/305/102 159/268/67
f 151/304/101 129/306/103 143/307/104 170/305/102
f 170/305/102 143/307/104 128/308/105 155/309/106
f 159/268/67 170/305/102 155/309/106 124/265/64
f 120/274/73 134/277/75 171/310/107 151/311/108
f 134/277/75 119/282/80 150/312/109 171/310/110
f 171/310/110 150/312/109 130/313/111 144/314/111
f 151/311/108 171/310/107 144/314/112 129/315/112
f 118/278/76 156/316/113 172/317/114 133/279/77
f 156/316/113 125/318/115 141/319/115 172/317/114
f 172/317/116 141/319/117 126/320/117 154/321/118
f 133/279/77 172/317/116 154/321/118 117/280/78
usemtl tiny_treats_1_GLASS
f 89/322/1 90/323/1 92/324/1 91/325/1
f 94/326/16 93/327/16 96/328/16 95/329/16
