# Blender v3.4.1 OBJ File: 'Tiny_Treats_Bubbly_Bathroom_1.1_ASSETS_EXPORT.blend'
# www.blender.org
mtllib window_full_left_open_modular.mtl
o window_full_left_open_modular
v -0.800000 0.475000 0.450806
v -0.800000 0.525000 0.500806
v -0.850000 0.525000 0.450806
v -0.800000 0.675000 0.500806
v -0.800000 0.725000 0.450806
v -0.850000 0.675000 0.450806
v -0.800000 0.475000 -0.449194
v -0.850000 0.525000 -0.449194
v -0.800000 0.525000 -0.499194
v -0.800000 0.725000 -0.449194
v -0.800000 0.675000 -0.499194
v -0.850000 0.675000 -0.449194
v 1.000000 0.475000 0.450806
v 1.000000 0.525000 0.500806
v 1.000000 0.725000 0.450806
v 1.000000 0.675000 0.500806
v 1.000000 0.475000 -0.449194
v 1.000000 0.525000 -0.499194
v 1.000000 0.725000 -0.449194
v 1.000000 0.675000 -0.499194
v -0.620000 1.790320 0.070806
v -0.620000 1.820320 0.100806
v -0.620000 1.960319 0.100806
v -0.620000 1.990320 0.070806
v -0.620000 1.790320 -0.069194
v -0.620000 1.820320 -0.099194
v -0.620000 1.990320 -0.069194
v -0.620000 1.960319 -0.099194
v 0.900000 1.790320 0.070806
v 0.900000 1.820320 0.100806
v 0.900000 1.990320 0.070806
v 0.900000 1.960319 0.100806
v 0.900000 1.790320 -0.069194
v 0.900000 1.820320 -0.099194
v 0.900000 1.990320 -0.069194
v 0.900000 1.960319 -0.099194
v -0.700000 1.890320 0.000806
v 1.000000 1.890320 0.000806
v -0.700000 3.390320 0.000806
v 1.000000 3.390320 0.000806
v -0.700000 3.390320 -0.049194
v -0.700000 1.890320 -0.049194
v 1.000000 1.890320 -0.049194
v 1.000000 3.390320 -0.049194
v -0.750000 0.699999 0.150806
v 1.000000 3.500000 0.150806
v -0.750000 3.500000 0.150806
v -0.540000 0.699999 0.150806
v 1.000000 3.300000 0.150806
v -0.540000 3.300000 0.150806
v -0.750000 0.699999 -0.149194
v 1.000000 3.500000 -0.149194
v -0.750000 3.500000 -0.149194
v -0.540000 0.699999 -0.149194
v 1.000000 3.300000 -0.149194
v -0.540000 3.300000 -0.149194
v 0.900000 0.699999 0.150806
v 0.900000 3.500000 0.150806
v 1.000000 0.699999 0.150806
v 1.000000 3.500000 0.150806
v 0.900000 0.699999 -0.149194
v 0.900000 3.500000 -0.149194
v 1.000000 0.699999 -0.149194
v 1.000000 3.500000 -0.149194
v -0.032549 1.864296 0.207301
v -0.032549 1.935704 0.207301
v 0.312549 1.864296 0.207301
v 0.312549 1.935704 0.207301
v 0.259608 1.864296 0.141125
v 0.020392 1.864296 0.141125
v 0.020392 1.935704 0.141125
v 0.259608 1.935704 0.141125
v -0.118823 1.935704 0.041247
v -0.118823 1.864296 0.041247
v -0.039412 1.864296 0.041247
v 0.319412 1.935704 0.041247
v 0.398824 1.935704 0.041247
v 0.398824 1.864296 0.041247
v 0.319412 1.864296 0.041247
v -0.039412 1.935704 0.041247
v -0.042475 1.900000 0.219709
v 0.322476 1.900000 0.219709
v 0.140000 1.864296 0.156106
v 0.140000 1.935704 0.156106
v 0.140000 1.864296 0.232209
v 0.140000 1.935704 0.232209
v 0.030319 1.900000 0.128716
v 0.249681 1.900000 0.128716
v -0.133713 1.900000 0.041247
v -0.079118 1.850907 0.041247
v 0.359118 1.949093 0.041247
v 0.413713 1.900000 0.041247
v 0.359118 1.850907 0.041247
v -0.079118 1.949093 0.041247
v -0.024522 1.900000 0.041247
v 0.304522 1.900000 0.041247
v 0.311936 1.864296 0.098677
v 0.388039 1.864296 0.136728
v 0.388039 1.935704 0.136728
v -0.031936 1.864296 0.098677
v -0.031936 1.935704 0.098677
v -0.108039 1.864296 0.136728
v 0.311936 1.935704 0.098677
v -0.108039 1.935704 0.136728
v -0.006078 1.949093 0.174213
v -0.006078 1.850907 0.174213
v 0.286079 1.949093 0.174213
v 0.286078 1.850907 0.174213
v -0.069988 1.850907 0.117702
v 0.349988 1.850907 0.117702
v -0.069988 1.949093 0.117702
v 0.140000 1.949093 0.194158
v 0.140000 1.850907 0.194158
v 0.140000 1.900000 0.246478
v 0.140000 1.900000 0.141837
v -0.017667 1.900000 0.091542
v 0.297667 1.900000 0.091542
v 0.349988 1.949093 0.117702
v 0.402309 1.900000 0.143863
v -0.122308 1.900000 0.143863
vt 0.982823 0.877541
vt 0.982823 0.892785
vt 0.892177 0.892785
vt 0.892177 0.877541
vt 0.982823 0.929116
vt 0.892177 0.929116
vt 0.892177 0.929116
vt 0.982823 0.929116
vt 0.888940 0.877541
vt 0.888940 0.892785
vt 0.888940 0.892785
vt 0.888940 0.877541
vt 0.892177 0.877541
vt 0.892177 0.892785
vt 0.982823 0.892785
vt 0.982823 0.877541
vt 0.892177 0.856834
vt 0.892177 0.861916
vt 0.888940 0.861916
vt 0.892177 0.939660
vt 0.892177 0.944741
vt 0.888940 0.939660
vt 0.892177 0.856834
vt 0.888940 0.861916
vt 0.892177 0.861916
vt 0.892177 0.944741
vt 0.892177 0.939660
vt 0.888940 0.939660
vt 0.892177 0.893166
vt 0.892177 0.908410
vt 0.888940 0.908410
vt 0.888940 0.893166
vt 0.892177 0.908410
vt 0.892177 0.893166
vt 0.888940 0.893166
vt 0.888940 0.908410
vt 0.982823 0.856834
vt 0.982823 0.861916
vt 0.982823 0.944741
vt 0.982823 0.939660
vt 0.982823 0.841209
vt 0.982823 0.939660
vt 0.982823 0.856834
vt 0.982823 0.861916
vt 0.982823 0.944741
vt 0.892177 0.841209
vt 0.982823 0.841209
vt 0.892177 0.841209
vt 0.484964 0.867836
vt 0.484964 0.885395
vt 0.390036 0.885395
vt 0.390036 0.867836
vt 0.484964 0.920408
vt 0.390036 0.920408
vt 0.390036 0.920408
vt 0.484964 0.920408
vt 0.390036 0.867836
vt 0.390036 0.885395
vt 0.484964 0.885395
vt 0.484964 0.867836
vt 0.484964 0.848448
vt 0.390036 0.848448
vt 0.390036 0.852211
vt 0.484964 0.852211
vt 0.390036 0.936033
vt 0.484964 0.936033
vt 0.484964 0.932270
vt 0.390036 0.932270
vt 0.390036 0.848449
vt 0.484964 0.848449
vt 0.484964 0.852211
vt 0.390036 0.852211
vt 0.484964 0.936033
vt 0.390036 0.936033
vt 0.390036 0.932270
vt 0.484964 0.932270
vt 0.390036 0.832823
vt 0.484964 0.832823
vt 0.484964 0.832824
vt 0.390036 0.832824
vt 0.411345 0.937821
vt 0.411345 0.885562
vt 0.416576 0.890788
vt 0.416576 0.932595
vt 0.458424 0.932595
vt 0.463655 0.937821
vt 0.411345 0.937821
vt 0.416576 0.932595
vt 0.416576 0.890788
vt 0.411345 0.885562
vt 0.463655 0.937821
vt 0.458424 0.932595
vt 0.416576 0.901345
vt 0.416576 0.901345
vt 0.416576 0.859538
vt 0.416576 0.859538
vt 0.458424 0.901345
vt 0.458424 0.901345
vt 0.411345 0.937821
vt 0.411345 0.885562
vt 0.416576 0.890788
vt 0.416576 0.932595
vt 0.411345 0.937821
vt 0.416576 0.932595
vt 0.416576 0.890788
vt 0.411345 0.885562
vt 0.416576 0.901345
vt 0.416576 0.901345
vt 0.416576 0.859538
vt 0.416576 0.859538
vt 0.410321 0.774357
vt 0.398430 0.774357
vt 0.404424 0.771772
vt 0.414491 0.771772
vt 0.396732 0.774357
vt 0.402986 0.771772
vt 0.409240 0.774357
vt 0.410418 0.774357
vt 0.418660 0.774357
vt 0.456340 0.774357
vt 0.464582 0.774357
vt 0.470576 0.771772
vt 0.460509 0.771772
vt 0.465760 0.774357
vt 0.472014 0.771772
vt 0.478268 0.774357
vt 0.476570 0.774357
vt 0.464679 0.774357
vt 0.418660 0.850643
vt 0.410418 0.850643
vt 0.404424 0.853228
vt 0.414491 0.853228
vt 0.409240 0.850643
vt 0.402986 0.853228
vt 0.396732 0.850643
vt 0.398430 0.850643
vt 0.410321 0.850643
vt 0.456340 0.850643
vt 0.437500 0.850643
vt 0.437500 0.853228
vt 0.460509 0.853228
vt 0.437500 0.850643
vt 0.464679 0.850643
vt 0.437500 0.774357
vt 0.437500 0.771772
vt 0.437500 0.774357
vt 0.464679 0.819393
vt 0.437500 0.819393
vt 0.437500 0.812500
vt 0.466242 0.812500
vt 0.410321 0.819393
vt 0.408758 0.812500
vt 0.410321 0.805607
vt 0.437500 0.805607
vt 0.464679 0.805607
vt 0.418660 0.805607
vt 0.420224 0.812500
vt 0.437500 0.812500
vt 0.437500 0.805607
vt 0.418660 0.819393
vt 0.437500 0.819393
vt 0.456340 0.819393
vt 0.454776 0.812500
vt 0.456340 0.805607
vt 0.412665 0.812500
vt 0.410418 0.819393
vt 0.410418 0.805607
vt 0.409240 0.805607
vt 0.411585 0.812500
vt 0.409240 0.819393
vt 0.462335 0.812500
vt 0.464582 0.805607
vt 0.464582 0.819393
vt 0.465760 0.819393
vt 0.463415 0.812500
vt 0.465760 0.805607
vt 0.476570 0.850643
vt 0.470576 0.853228
vt 0.478268 0.850643
vt 0.472014 0.853228
vt 0.465760 0.850643
vt 0.464582 0.850643
vt 0.478817 0.812500
vt 0.476570 0.819393
vt 0.476570 0.805607
vt 0.478268 0.805607
vt 0.480614 0.812500
vt 0.478268 0.819393
vt 0.398430 0.819393
vt 0.396183 0.812500
vt 0.396732 0.819393
vt 0.394386 0.812500
vt 0.396732 0.805607
vt 0.398430 0.805607
vt 0.764993 0.014993
vt 0.985007 0.014993
vt 0.985007 0.235007
vt 0.764993 0.235007
vt 0.764993 0.014993
vt 0.764993 0.235007
vt 0.985007 0.235007
vt 0.985007 0.014993
vn 0.0000 -0.3827 0.9239
vn 0.0000 0.3827 0.9239
vn -0.3416 0.3416 0.8756
vn -0.3416 -0.3416 0.8756
vn 0.0000 1.0000 0.0000
vn -0.3416 0.8756 -0.3416
vn -0.3416 0.8756 0.3416
vn -1.0000 0.0000 0.0000
vn -0.3416 -0.3416 -0.8756
vn -0.3416 0.3416 -0.8756
vn 0.0000 0.3827 -0.9239
vn 0.0000 -0.3827 -0.9239
vn -0.3416 -0.8756 0.3416
vn -0.7588 -0.4606 0.4606
vn -0.7588 0.4606 0.4606
vn -0.3416 -0.8756 -0.3416
vn -0.7588 -0.4606 -0.4606
vn -0.7588 0.4606 -0.4606
vn 0.0000 -0.7071 -0.7071
vn 0.0000 0.7071 -0.7071
vn 1.0000 0.0000 0.0000
vn 0.0000 -0.7071 0.7071
vn 0.0000 0.7071 0.7071
vn 0.0000 -1.0000 0.0000
vn 0.0000 0.0000 1.0000
vn 0.0000 0.0000 -1.0000
vn -0.1425 -0.9508 0.2752
vn -0.2650 -0.9549 0.1338
vn -0.0619 -0.9976 0.0298
vn -0.0137 -0.9982 0.0592
vn -0.3173 -0.9476 0.0368
vn -0.0243 -0.9997 0.0015
vn 0.3168 -0.9477 -0.0393
vn 0.2600 -0.9552 -0.1416
vn 0.1127 -0.9486 -0.2958
vn -0.1127 -0.9486 -0.2958
vn -0.2600 -0.9552 -0.1416
vn 0.0619 -0.9976 0.0298
vn 0.0137 -0.9982 0.0592
vn -0.3168 -0.9477 -0.0393
vn 0.0243 -0.9997 0.0015
vn 0.3173 -0.9476 0.0368
vn 0.2650 -0.9549 0.1338
vn 0.1425 -0.9508 0.2752
vn 0.1127 0.9486 -0.2958
vn 0.2600 0.9552 -0.1416
vn -0.0619 0.9976 0.0298
vn -0.0137 0.9982 0.0592
vn 0.3168 0.9477 -0.0393
vn -0.0243 0.9997 0.0015
vn -0.3173 0.9476 0.0368
vn -0.2650 0.9549 0.1338
vn -0.1425 0.9508 0.2752
vn -0.1127 0.9486 -0.2958
vn -0.0000 0.9412 -0.3378
vn -0.0000 0.9996 0.0286
vn 0.0137 0.9982 0.0592
vn 0.0000 0.9416 0.3368
vn 0.1425 0.9508 0.2752
vn 0.0000 -0.9412 -0.3378
vn 0.0000 -0.9996 0.0286
vn 0.0000 -0.9416 0.3368
vn 0.3843 0.3944 0.8347
vn -0.0000 0.3664 0.9304
vn 0.4499 0.0000 0.8931
vn -0.3843 0.3944 0.8347
vn -0.4499 0.0000 0.8931
vn -0.3843 -0.3944 0.8347
vn 0.0000 -0.3664 0.9304
vn 0.3843 -0.3944 0.8347
vn 0.3713 -0.3899 -0.8427
vn 0.3671 0.0000 -0.9302
vn -0.0000 -0.3639 -0.9315
vn 0.3713 0.3899 -0.8427
vn -0.0000 0.3639 -0.9315
vn -0.3713 0.3899 -0.8427
vn -0.3671 0.0000 -0.9302
vn -0.3713 -0.3899 -0.8427
vn 0.7896 0.4138 -0.4531
vn 0.7943 0.4138 -0.4449
vn 0.7943 -0.4138 -0.4449
vn 0.7896 -0.4138 -0.4531
vn 0.9146 -0.3856 -0.1217
vn 0.9146 0.3856 -0.1217
vn -0.7896 -0.4138 -0.4531
vn -0.7943 -0.4138 -0.4449
vn -0.7943 0.4138 -0.4449
vn -0.7896 0.4138 -0.4531
vn -0.9146 0.3856 -0.1217
vn -0.9146 -0.3856 -0.1217
vn 0.2650 0.9549 0.1338
vn 0.0619 0.9976 0.0298
vn 0.3173 0.9476 0.0368
vn 0.0243 0.9997 0.0015
vn -0.3168 0.9477 -0.0393
vn -0.2600 0.9552 -0.1416
vn 0.8155 0.4118 0.4066
vn 0.8156 0.4118 0.4065
vn 0.8156 -0.4118 0.4065
vn 0.8155 -0.4118 0.4066
vn 0.9173 -0.3848 0.1027
vn 0.9173 0.3848 0.1027
vn -0.8156 0.4118 0.4065
vn -0.8155 0.4118 0.4066
vn -0.9173 0.3848 0.1027
vn -0.8155 -0.4118 0.4066
vn -0.9173 -0.3848 0.1027
vn -0.8156 -0.4118 0.4065
usemtl tiny_treats_1
s 1
f 14/1/1 16/2/2 4/3/3 2/4/4
f 19/5/5 10/6/6 5/7/7 15/8/5
f 3/9/8 6/10/8 12/11/8 8/12/8
f 9/13/9 11/14/10 20/15/11 18/16/12
f 1/17/13 2/18/4 3/19/14
f 4/20/3 5/21/7 6/22/15
f 7/23/16 8/24/17 9/25/9
f 10/26/6 11/27/10 12/28/18
f 7/23/16 1/17/13 3/19/14 8/24/17
f 2/29/4 4/30/3 6/31/15 3/32/14
f 5/21/7 10/26/6 12/28/18 6/22/15
f 11/33/10 9/34/9 8/35/17 12/36/18
f 17/37/19 7/23/16 9/25/9 18/38/12
f 10/26/6 19/39/20 20/40/11 11/27/10
f 14/1/21 13/41/21 17/37/21 18/16/21
f 18/16/21 20/40/21 16/2/21 14/1/21
f 15/8/21 16/42/21 20/40/21 19/5/21
f 1/17/13 13/43/22 14/44/1 2/18/4
f 15/45/23 5/21/7 4/20/3 16/42/2
f 7/46/16 17/47/24 13/41/24 1/48/13
f 30/49/1 32/50/2 23/51/2 22/52/1
f 35/53/5 27/54/5 24/55/5 31/56/5
f 26/57/12 28/58/11 36/59/11 34/60/12
f 33/61/19 25/62/19 26/63/12 34/64/12
f 27/65/20 35/66/20 36/67/11 28/68/11
f 21/69/22 29/70/22 30/71/1 22/72/1
f 31/73/23 24/74/23 23/75/2 32/76/2
f 25/77/24 33/78/24 29/79/24 21/80/24
f 47/81/25 45/82/25 48/83/25 50/84/25
f 47/81/25 50/84/25 49/85/25 46/86/25
f 53/87/26 56/88/26 54/89/26 51/90/26
f 53/87/26 52/91/26 55/92/26 56/88/26
f 56/93/21 50/94/21 48/95/21 54/96/21
f 46/86/21 49/97/21 55/92/21 52/91/21
f 55/98/24 49/97/24 50/94/24 56/93/24
f 58/99/25 57/100/25 59/101/25 60/102/25
f 62/103/26 64/104/26 63/105/26 61/106/26
f 64/107/21 60/108/21 59/109/21 63/110/21
f 57/100/8 58/99/8 62/103/8 61/106/8
f 65/111/27 102/112/28 109/113/29 106/114/30
f 102/112/28 74/115/31 90/116/32 109/113/29
f 109/113/29 90/116/32 75/117/33 100/118/34
f 106/114/30 109/113/29 100/118/34 70/119/35
f 69/120/36 97/121/37 110/122/38 108/123/39
f 97/121/37 79/124/40 93/125/41 110/122/38
f 110/122/38 93/125/41 78/126/42 98/127/43
f 108/123/39 110/122/38 98/127/43 67/128/44
f 71/129/45 101/130/46 111/131/47 105/132/48
f 101/130/46 80/133/49 94/134/50 111/131/47
f 111/131/47 94/134/50 73/135/51 104/136/52
f 105/132/48 111/131/47 104/136/52 66/137/53
f 72/138/54 84/139/55 112/140/56 107/141/57
f 84/139/55 71/129/45 105/132/48 112/140/56
f 112/140/56 105/132/48 66/137/53 86/142/58
f 107/141/57 112/140/56 86/142/58 68/143/59
f 70/119/35 83/144/60 113/145/61 106/114/30
f 83/144/60 69/120/36 108/123/39 113/145/61
f 113/145/61 108/123/39 67/128/44 85/146/62
f 106/114/30 113/145/61 85/146/62 65/111/27
f 68/147/63 86/148/64 114/149/25 82/150/65
f 86/148/64 66/151/66 81/152/67 114/149/25
f 114/149/25 81/152/67 65/153/68 85/154/69
f 82/150/65 114/149/25 85/154/69 67/155/70
f 70/156/71 87/157/72 115/158/26 83/159/73
f 87/157/72 71/160/74 84/161/75 115/158/26
f 115/158/26 84/161/75 72/162/76 88/163/77
f 83/159/73 115/158/26 88/163/77 69/164/78
f 71/160/74 87/157/72 116/165/79 101/166/80
f 87/157/72 70/156/71 100/167/81 116/165/82
f 116/165/82 100/167/81 75/168/83 95/169/83
f 101/166/80 116/165/79 95/169/84 80/170/84
f 69/164/78 88/163/77 117/171/85 97/172/86
f 88/163/77 72/162/76 103/173/87 117/171/88
f 117/171/88 103/173/87 76/174/89 96/175/89
f 97/172/86 117/171/85 96/175/90 79/176/90
f 68/143/59 99/177/91 118/178/92 107/141/57
f 99/177/91 77/179/93 91/180/94 118/178/92
f 118/178/92 91/180/94 76/181/95 103/182/96
f 107/141/57 118/178/92 103/182/96 72/138/54
f 68/147/63 82/150/65 119/183/97 99/184/98
f 82/150/65 67/155/70 98/185/99 119/183/100
f 119/183/100 98/185/99 78/186/101 92/187/101
f 99/184/98 119/183/97 92/187/102 77/188/102
f 66/151/66 104/189/103 120/190/104 81/152/67
f 104/189/103 73/191/105 89/192/105 120/190/104
f 120/190/106 89/192/107 74/193/107 102/194/108
f 81/152/67 120/190/106 102/194/108 65/153/68
usemtl tiny_treats_1_GLASS
f 37/195/25 38/196/25 40/197/25 39/198/25
f 42/199/26 41/200/26 44/201/26 43/202/26
