# Blender v3.4.1 OBJ File: 'Tiny_Treats_Charming_Kitchen_1.1_ASSETS_EXPORT.blend'
# www.blender.org
mtllib wall_modular_tiles_kitchen_window_large_B.mtl
o wall_modular_tiles_kitchen_window_large_B
v 1.000000 0.000000 -0.249194
v 1.000000 4.000000 -0.249193
v -1.000000 4.000000 -0.249194
v -1.000000 0.000000 -0.249194
v 0.750000 3.500000 -0.249193
v -0.750000 3.500000 -0.249194
v 0.750000 0.500000 -0.249194
v -0.750000 0.500000 -0.249194
v 0.750000 2.100000 -0.249194
v -0.750000 2.100000 -0.249194
v 1.000000 2.100000 -0.249193
v -1.000000 2.100000 -0.249194
v 1.000000 4.000000 0.000001
v 1.000000 -0.000000 0.000000
v 1.000000 2.100000 0.000000
v -0.750000 3.500000 0.000000
v 0.750000 2.100000 0.000000
v -0.750000 2.100000 0.000000
v -1.000000 -0.000000 -0.000000
v -1.000000 4.000000 0.000000
v 0.750000 3.500000 0.000001
v -0.750000 0.500000 0.000000
v 0.750000 0.500000 0.000000
v -1.000000 2.100000 0.000000
vt 0.597889 0.912447
vt 0.597889 0.846542
vt 0.588870 0.846542
vt 0.588870 0.877760
vt 0.537533 0.877760
vt 0.528515 0.912447
vt 0.827006 0.358287
vt 0.827006 0.358287
vt 0.827006 0.333465
vt 0.827006 0.333465
vt 0.793969 0.358287
vt 0.793969 0.333465
vt 0.793969 0.333465
vt 0.793969 0.358287
vt 0.588870 0.877760
vt 0.588870 0.846542
vt 0.537533 0.877760
vt 0.537533 0.846542
vt 0.537533 0.846542
vt 0.528515 0.846542
vt 0.597889 0.912447
vt 0.597889 0.846542
vt 0.832809 0.379386
vt 0.832809 0.332263
vt 0.832809 0.332263
vt 0.832809 0.379386
vt 0.827006 0.332325
vt 0.793969 0.332325
vt 0.793969 0.354625
vt 0.827006 0.354625
vt 0.528515 0.846542
vt 0.528515 0.912447
vt 0.788165 0.332325
vt 0.788165 0.379447
vt 0.793969 0.379447
vt 0.827006 0.379447
vt 0.788165 0.332295
vt 0.788165 0.379417
vt 0.597889 0.943697
vt 0.528515 0.943697
vt 0.528515 0.943697
vt 0.597889 0.943697
vt 0.800768 0.340590
vt 0.833098 0.340590
vt 0.833098 0.340590
vt 0.800768 0.340590
vt 0.827006 0.372559
vt 0.793969 0.372559
vt 0.793969 0.372559
vt 0.827006 0.372559
vt 0.588870 0.846510
vt 0.588870 0.846510
vt 0.537533 0.846510
vt 0.537533 0.846510
vn 0.0000 0.0000 -1.0000
vn -1.0000 -0.0000 0.0000
vn 1.0000 0.0000 0.0000
vn 0.0000 1.0000 0.0000
vn 0.0000 -1.0000 -0.0000
usemtl tiny_treats_1
s 1
f 2/1/1 11/2/1 9/3/1 5/4/1
f 2/1/1 5/4/1 6/5/1 3/6/1
f 17/7/2 9/8/2 7/9/2 23/10/2
f 18/11/3 22/12/3 8/13/3 10/14/3
f 21/15/2 5/4/2 9/3/2 17/16/2
f 16/17/3 18/18/3 10/19/3 6/5/3
f 3/6/1 6/5/1 10/19/1 12/20/1
f 13/21/3 15/22/3 11/2/3 2/1/3
f 15/23/3 14/24/3 1/25/3 11/26/3
f 1/27/1 4/28/1 8/29/1 7/30/1
f 24/31/2 20/32/2 3/6/2 12/20/2
f 4/33/1 12/34/1 10/35/1 8/29/1
f 1/27/1 7/30/1 9/36/1 11/26/1
f 12/34/2 4/33/2 19/37/2 24/38/2
f 2/39/4 3/40/4 20/41/4 13/42/4
f 4/43/5 1/44/5 14/45/5 19/46/5
f 7/47/4 8/48/4 22/49/4 23/50/4
f 5/51/5 21/52/5 16/53/5 6/54/5
