# Blender v3.4.1 OBJ File: 'Tiny_Treats_Charming_Kitchen_1.1_ASSETS_EXPORT.blend'
# www.blender.org
mtllib wall_plain_kitchen_window_full_center.mtl
o wall_plain_kitchen_window_full_center
v -1.000000 -0.000000 0.200807
v -1.000000 4.000000 0.200806
v 1.000000 0.000000 0.200806
v 1.000000 4.000000 0.200806
v -1.000000 3.500000 0.200806
v 1.000000 3.500000 0.200806
v -1.000000 0.500000 0.200806
v 1.000000 0.500000 0.200806
v 1.000000 4.000000 0.250806
v -1.000000 4.000000 0.250806
v -1.000000 3.500000 0.250806
v 1.000000 3.500000 0.250806
v -1.000000 0.000000 -0.249194
v -1.000000 4.000000 -0.249194
v 1.000000 4.000000 -0.249194
v 1.000000 0.000000 -0.249194
v -1.000000 3.500000 -0.249194
v 1.000000 3.500000 -0.249194
v -1.000000 0.500000 -0.249194
v 1.000000 0.500000 -0.249194
v 1.000000 0.475000 0.250806
v 1.000000 0.525000 0.300806
v 1.000000 0.675000 0.300806
v 1.000000 0.725000 0.250806
v 1.000000 0.475000 -0.249194
v 1.000000 0.525000 -0.299194
v 1.000000 0.725000 -0.249194
v 1.000000 0.675000 -0.299194
v -1.000000 0.475000 0.250806
v -1.000000 0.525000 0.300806
v -1.000000 0.725000 0.250806
v -1.000000 0.675000 0.300806
v -1.000000 0.475000 -0.249194
v -1.000000 0.525000 -0.299194
v -1.000000 0.725000 -0.249194
v -1.000000 0.675000 -0.299194
v -1.000000 3.500000 0.150806
v 1.000000 3.500000 0.150806
v -1.000000 3.300000 0.150806
v 1.000000 3.300000 0.150806
v -1.000000 3.500000 -0.149194
v 1.000000 3.500000 -0.149194
v -1.000000 3.300000 -0.149194
v 1.000000 3.300000 -0.149194
v 1.000000 0.690320 0.070806
v 1.000000 0.720320 0.100806
v 1.000000 0.860319 0.100806
v 1.000000 0.890320 0.070806
v 1.000000 0.690320 -0.069194
v 1.000000 0.720320 -0.099194
v 1.000000 0.890320 -0.069194
v 1.000000 0.860319 -0.099194
v -1.000000 0.690320 0.070806
v -1.000000 0.720320 0.100806
v -1.000000 0.890320 0.070806
v -1.000000 0.860319 0.100806
v -1.000000 0.690320 -0.069194
v -1.000000 0.720320 -0.099194
v -1.000000 0.890320 -0.069194
v -1.000000 0.860319 -0.099194
v 1.000000 2.000320 0.030806
v 1.000000 2.030319 0.060806
v 1.000000 2.170319 0.060806
v 1.000000 2.200320 0.030806
v 1.000000 2.000320 -0.029194
v 1.000000 2.030319 -0.059194
v 1.000000 2.200320 -0.029194
v 1.000000 2.170319 -0.059194
v -1.000000 2.000320 0.030806
v -1.000000 2.030319 0.060806
v -1.000000 2.200320 0.030806
v -1.000000 2.170319 0.060806
v -1.000000 2.000320 -0.029194
v -1.000000 2.030319 -0.059194
v -1.000000 2.200320 -0.029194
v -1.000000 2.170319 -0.059194
v 0.100000 3.320319 0.030806
v 0.070000 3.320319 0.060806
v -0.070000 3.320319 0.060806
v -0.100000 3.320319 0.030806
v 0.100000 3.320319 -0.029194
v 0.070000 3.320319 -0.059194
v -0.100000 3.320319 -0.029194
v -0.070000 3.320319 -0.059194
v 0.100000 0.880319 0.030806
v 0.070000 0.880319 0.060806
v -0.100000 0.880319 0.030806
v -0.070000 0.880319 0.060806
v 0.100000 0.880319 -0.029194
v 0.070000 0.880319 -0.059194
v -0.100000 0.880319 -0.029194
v -0.070000 0.880319 -0.059194
v -0.100000 2.000320 -0.029194
v 0.100000 2.000320 -0.029194
v -0.070000 2.030319 -0.059194
v 0.100000 2.200320 -0.029194
v -0.100000 2.200320 -0.029194
v -0.070000 2.170319 -0.059194
v 0.100000 2.000320 0.030806
v -0.100000 2.000320 0.030806
v -0.070000 2.030319 0.060806
v 0.070000 2.030319 0.060806
v -0.100000 2.200320 0.030806
v 0.070000 2.170319 -0.059194
v 0.070000 2.030319 -0.059194
v 0.100000 2.200319 0.030806
v 0.070000 2.170319 0.060806
v -0.070000 2.170319 0.060806
v -1.000001 2.000000 -0.050001
v -1.000001 0.700000 -0.050001
v 1.000000 0.700000 -0.050001
v 1.000000 2.000000 -0.050001
v -1.000001 2.000000 -0.000001
v 1.000000 2.000000 -0.000001
v -1.000001 0.700000 -0.000001
v 1.000000 0.700000 -0.000001
v -0.999998 2.000000 -0.000001
v 1.000003 2.000000 -0.000001
v -0.999998 3.300000 -0.000001
v 1.000003 3.300000 -0.000001
v 1.000000 3.300000 -0.050001
v 1.000000 2.000000 -0.050001
v -1.000001 2.000000 -0.050001
v -1.000001 3.300000 -0.050001
vt 0.543969 0.811706
vt 0.543969 0.834006
vt 0.577006 0.834006
vt 0.577006 0.811706
vt 0.577006 0.873101
vt 0.577006 0.873101
vt 0.543969 0.873101
vt 0.543969 0.873101
vt 0.550768 0.778090
vt 0.550768 0.778090
vt 0.583098 0.778090
vt 0.583098 0.778090
vt 0.528515 0.912447
vt 0.597889 0.912447
vt 0.588870 0.877760
vt 0.537533 0.877760
vt 0.537533 0.846510
vt 0.537533 0.846510
vt 0.588870 0.846510
vt 0.588870 0.846510
vt 0.597889 0.943697
vt 0.597889 0.943697
vt 0.528515 0.943697
vt 0.528515 0.943697
vt 0.543969 0.811706
vt 0.597889 0.912447
vt 0.528515 0.912447
vt 0.537533 0.877760
vt 0.588870 0.877760
vt 0.528515 0.943697
vt 0.537533 0.846510
vt 0.577006 0.811706
vt 0.577006 0.834006
vt 0.543969 0.834006
vt 0.588870 0.846510
vt 0.597889 0.943697
vt 0.482823 0.877541
vt 0.392177 0.877541
vt 0.392177 0.892785
vt 0.482823 0.892785
vt 0.482823 0.929116
vt 0.482823 0.929116
vt 0.392177 0.929116
vt 0.392177 0.929116
vt 0.392177 0.877541
vt 0.482823 0.877541
vt 0.482823 0.892785
vt 0.392177 0.892785
vt 0.390036 0.852211
vt 0.390036 0.848449
vt 0.390036 0.832823
vt 0.390036 0.852211
vt 0.390036 0.867836
vt 0.390036 0.885395
vt 0.390036 0.932270
vt 0.390036 0.867836
vt 0.390036 0.932270
vt 0.390036 0.936033
vt 0.390036 0.920408
vt 0.390036 0.852211
vt 0.390036 0.848449
vt 0.390036 0.832823
vt 0.390036 0.852211
vt 0.392177 0.841209
vt 0.392177 0.841209
vt 0.392177 0.861916
vt 0.392177 0.939660
vt 0.392177 0.939660
vt 0.392177 0.944741
vt 0.482823 0.856834
vt 0.482823 0.861916
vt 0.392177 0.856834
vt 0.482823 0.939660
vt 0.482823 0.944741
vt 0.482823 0.841209
vt 0.482823 0.939660
vt 0.392177 0.856834
vt 0.392177 0.861916
vt 0.482823 0.861916
vt 0.482823 0.856834
vt 0.482823 0.944741
vt 0.392177 0.944741
vt 0.482823 0.841209
vt 0.390036 0.867836
vt 0.390036 0.885395
vt 0.390036 0.932270
vt 0.390036 0.867836
vt 0.411345 0.937821
vt 0.463655 0.937821
vt 0.458424 0.932595
vt 0.416576 0.932595
vt 0.390036 0.932270
vt 0.390036 0.936033
vt 0.390036 0.920408
vt 0.411345 0.937821
vt 0.416576 0.932595
vt 0.458424 0.932595
vt 0.463655 0.937821
vt 0.416576 0.901345
vt 0.458424 0.901345
vt 0.458424 0.901345
vt 0.416576 0.901345
vt 0.484964 0.867836
vt 0.390036 0.885395
vt 0.484964 0.885395
vt 0.484964 0.920408
vt 0.484964 0.920408
vt 0.390036 0.920408
vt 0.484964 0.867836
vt 0.484964 0.885395
vt 0.484964 0.848448
vt 0.484964 0.852211
vt 0.390036 0.848448
vt 0.484964 0.932270
vt 0.484964 0.936033
vt 0.484964 0.852211
vt 0.484964 0.848449
vt 0.484964 0.936033
vt 0.484964 0.932270
vt 0.390036 0.936033
vt 0.390036 0.832824
vt 0.484964 0.832824
vt 0.484964 0.832823
vt 0.421679 0.867836
vt 0.390036 0.885395
vt 0.421679 0.885395
vt 0.421679 0.920408
vt 0.421679 0.920408
vt 0.390036 0.920408
vt 0.453321 0.867836
vt 0.484964 0.867836
vt 0.484964 0.885395
vt 0.453321 0.885395
vt 0.421679 0.848448
vt 0.421679 0.852211
vt 0.390036 0.848448
vt 0.453321 0.936033
vt 0.453321 0.932270
vt 0.484964 0.932270
vt 0.484964 0.936033
vt 0.453321 0.848449
vt 0.453321 0.852211
vt 0.484964 0.852211
vt 0.484964 0.848449
vt 0.421679 0.936033
vt 0.421679 0.932270
vt 0.390036 0.936033
vt 0.453321 0.832823
vt 0.453321 0.832824
vt 0.484964 0.832824
vt 0.484964 0.832823
vt 0.421679 0.867836
vt 0.390036 0.867836
vt 0.390036 0.885395
vt 0.421679 0.885395
vt 0.421679 0.920408
vt 0.421679 0.920408
vt 0.390036 0.920408
vt 0.390036 0.920408
vt 0.453321 0.867836
vt 0.484964 0.867836
vt 0.484964 0.885395
vt 0.453321 0.885395
vt 0.421679 0.848448
vt 0.421679 0.852211
vt 0.390036 0.852211
vt 0.390036 0.848448
vt 0.453321 0.936033
vt 0.453321 0.932270
vt 0.484964 0.932270
vt 0.484964 0.936033
vt 0.453321 0.848449
vt 0.453321 0.852211
vt 0.484964 0.852211
vt 0.484964 0.848449
vt 0.421679 0.936033
vt 0.421679 0.932270
vt 0.390036 0.932270
vt 0.390036 0.936033
vt 0.453321 0.832823
vt 0.453321 0.832824
vt 0.484964 0.832824
vt 0.484964 0.832823
vt 0.390036 0.832824
vt 0.421679 0.832824
vt 0.421679 0.832823
vt 0.484964 0.936033
vt 0.484964 0.932270
vt 0.453321 0.932270
vt 0.453321 0.936033
vt 0.421679 0.852211
vt 0.421679 0.848448
vt 0.421679 0.932270
vt 0.421679 0.936033
vt 0.484964 0.848448
vt 0.484964 0.852211
vt 0.453321 0.852211
vt 0.453321 0.848448
vt 0.421679 0.867836
vt 0.421679 0.885395
vt 0.484964 0.920408
vt 0.484964 0.920408
vt 0.453321 0.920408
vt 0.453321 0.920408
vt 0.484964 0.867836
vt 0.453321 0.867836
vt 0.453321 0.885395
vt 0.484964 0.885395
vt 0.390036 0.832823
vt 0.390036 0.832824
vt 0.421679 0.832824
vt 0.421679 0.832823
vt 0.484964 0.936033
vt 0.484964 0.932270
vt 0.453321 0.932270
vt 0.453321 0.936033
vt 0.390036 0.848449
vt 0.390036 0.852211
vt 0.421679 0.852211
vt 0.421679 0.848448
vt 0.390036 0.936033
vt 0.390036 0.932270
vt 0.421679 0.932270
vt 0.421679 0.936033
vt 0.484964 0.848448
vt 0.484964 0.852211
vt 0.453321 0.852211
vt 0.453321 0.848448
vt 0.390036 0.867836
vt 0.421679 0.867836
vt 0.421679 0.885395
vt 0.390036 0.885395
vt 0.484964 0.920408
vt 0.484964 0.920408
vt 0.453321 0.920408
vt 0.453321 0.920408
vt 0.484964 0.867836
vt 0.453321 0.867836
vt 0.453321 0.885395
vt 0.484964 0.885395
vt 0.993800 0.006200
vt 0.756200 0.006200
vt 0.756200 0.243800
vt 0.993800 0.243800
vt 0.993800 0.006200
vt 0.993800 0.243800
vt 0.756200 0.243800
vt 0.756200 0.006200
vt 0.756200 0.006200
vt 0.993800 0.006200
vt 0.993800 0.243800
vt 0.756200 0.243800
vt 0.993800 0.006200
vt 0.756200 0.006200
vt 0.756200 0.243800
vt 0.993800 0.243800
vn 0.0000 0.0000 1.0000
vn 0.0000 1.0000 0.0000
vn 0.0000 -1.0000 -0.0000
vn 1.0000 -0.0000 0.0000
vn -0.0000 0.0000 -1.0000
vn -1.0000 -0.0000 0.0000
vn 0.0000 -0.3827 0.9239
vn 0.0000 0.3827 0.9239
vn 0.0000 -0.3827 -0.9239
vn 0.0000 0.3827 -0.9239
vn 0.0000 -0.7071 -0.7071
vn 0.0000 0.7071 -0.7071
vn 0.0000 -0.7071 0.7071
vn 0.0000 0.7071 0.7071
vn 0.0000 -0.9239 -0.3827
vn 0.0000 -0.9239 0.3827
vn -0.0000 0.8959 0.4444
vn -0.0000 0.9239 0.3827
vn -0.1244 0.0000 -0.9922
vn -0.1100 0.1101 -0.9878
vn 0.0000 -0.8959 -0.4443
vn 0.0000 -0.8959 0.4444
vn 0.0000 -0.8959 -0.4444
vn -0.3827 -0.0000 0.9239
vn -0.1100 0.1100 0.9878
vn -0.3827 0.0000 -0.9239
vn 0.7071 0.0000 -0.7071
vn -0.7071 0.0000 -0.7071
vn 0.8959 -0.0000 0.4444
vn 0.7071 -0.0000 0.7071
vn 0.9239 -0.0000 0.3827
vn -0.7071 -0.0000 0.7071
vn 0.8959 -0.0000 -0.4444
vn 0.9239 -0.0000 -0.3827
vn 0.0000 0.1244 -0.9922
vn -0.1244 -0.0000 0.9922
usemtl tiny_treats_1
s 1
f 3/1/1 8/2/1 7/3/1 1/4/1
f 19/5/2 7/6/2 8/7/2 20/8/2
f 16/9/3 3/10/3 1/11/3 13/12/3
f 9/13/1 10/14/1 11/15/1 12/16/1
f 6/17/3 12/18/3 11/19/3 5/20/3
f 2/21/2 10/22/2 9/23/2 4/24/2
f 8/7/4 3/10/4 16/25/4 20/8/4
f 14/26/5 15/27/5 18/28/5 17/29/5
f 15/30/4 4/24/4 6/17/4 18/31/4
f 13/32/5 19/33/5 20/34/5 16/25/5
f 6/17/4 4/24/4 9/23/4 12/16/4
f 17/35/3 18/31/3 6/17/3 5/20/3
f 14/36/2 2/21/2 4/24/2 15/30/2
f 10/22/6 2/21/6 5/20/6 11/19/6
f 14/36/6 17/35/6 5/20/6 2/21/6
f 7/6/6 19/5/6 13/32/6 1/11/6
f 30/37/7 22/38/7 23/39/8 32/40/8
f 35/41/2 31/42/2 24/43/2 27/44/2
f 26/45/9 34/46/9 36/47/10 28/48/10
f 62/49/4 61/50/4 65/51/4 66/52/4
f 66/53/4 68/54/4 63/55/4 62/56/4
f 68/57/4 67/58/4 64/59/4 63/55/4
f 46/60/4 45/61/4 49/62/4 50/63/4
f 21/64/4 25/65/4 26/66/4 22/38/4
f 22/38/4 26/45/4 28/48/4 23/67/4
f 23/67/4 28/68/4 27/69/4 24/43/4
f 33/70/11 34/71/9 26/66/9 25/72/11
f 27/69/12 28/68/10 36/73/10 35/74/12
f 30/37/6 34/46/6 33/70/6 29/75/6
f 34/46/6 30/37/6 32/40/6 36/73/6
f 31/42/6 35/41/6 36/73/6 32/76/6
f 21/77/13 22/78/7 30/79/7 29/80/13
f 31/81/14 32/76/8 23/67/8 24/82/14
f 25/65/3 21/64/3 29/75/3 33/83/3
f 50/84/4 52/85/4 47/86/4 46/87/4
f 38/88/1 37/89/1 39/90/1 40/91/1
f 52/92/4 51/93/4 48/94/4 47/86/4
f 42/95/5 44/96/5 43/97/5 41/98/5
f 38/88/4 40/99/4 44/96/4 42/95/4
f 37/89/6 41/98/6 43/97/6 39/100/6
f 43/101/3 44/102/3 40/99/3 39/100/3
f 54/103/1 46/87/1 47/104/8 56/105/8
f 59/106/2 55/107/2 48/94/2 51/108/2
f 50/84/5 58/109/5 60/110/10 52/85/10
f 57/111/15 58/112/11 50/63/11 49/113/15
f 51/93/12 52/92/10 60/114/10 59/115/12
f 45/61/16 46/60/13 54/116/13 53/117/16
f 55/118/14 56/119/8 47/86/8 48/120/14
f 49/62/15 45/121/16 53/122/16 57/123/15
f 102/124/1 62/56/1 63/125/1 107/126/1
f 96/127/2 106/128/17 64/59/18 67/129/2
f 95/130/19 74/131/5 76/132/10 98/133/20
f 94/134/21 105/135/11 66/52/11 65/136/15
f 97/137/12 98/138/20 76/139/10 75/140/12
f 100/141/22 101/142/13 70/143/13 69/144/16
f 106/145/17 107/146/14 63/55/14 64/147/18
f 93/148/23 100/149/22 69/150/16 73/151/15
f 107/152/1 78/153/1 79/154/24 108/155/25
f 97/156/6 103/157/6 80/158/6 83/159/6
f 105/160/5 90/161/5 92/162/26 95/163/19
f 96/164/27 104/165/27 82/166/27 81/167/27
f 93/168/28 95/169/19 92/170/26 91/171/28
f 99/172/29 102/173/30 86/174/30 85/175/31
f 103/176/32 108/177/25 79/178/24 80/179/32
f 94/180/33 99/181/29 85/182/31 89/183/34
f 65/51/15 61/184/16 99/185/22 94/186/21
f 71/187/14 72/188/8 108/189/25 103/190/14
f 61/50/16 62/49/13 102/191/13 99/192/22
f 67/58/12 68/57/10 104/193/35 96/194/12
f 73/195/15 74/196/11 95/197/11 93/198/23
f 66/53/5 105/199/5 104/200/35 68/54/10
f 105/199/5 95/130/19 98/133/20 104/200/35
f 75/201/2 71/202/2 103/203/2 97/204/2
f 70/205/1 101/206/36 108/207/25 72/208/8
f 101/206/36 102/124/1 107/126/1 108/207/25
f 81/209/4 77/210/31 106/211/29 96/212/4
f 87/213/32 88/214/24 101/215/36 100/216/32
f 77/217/31 78/218/30 107/219/30 106/220/29
f 83/221/28 84/222/26 98/223/20 97/224/28
f 89/225/34 90/226/27 105/227/27 94/228/33
f 82/229/5 104/230/35 98/231/20 84/232/26
f 91/233/6 87/234/6 100/235/6 93/236/6
f 86/237/1 102/238/1 101/239/36 88/240/24
f 71/202/6 75/201/6 76/139/6 72/188/6
f 74/131/6 70/205/6 72/208/6 76/139/6
f 70/205/6 74/131/6 73/195/6 69/150/6
f 55/107/6 59/106/6 60/114/6 56/119/6
f 58/109/6 54/103/6 56/105/6 60/114/6
f 54/103/6 58/109/6 57/111/6 53/122/6
usemtl tiny_treats_1_GLASS
f 111/241/5 110/242/5 109/243/5 112/244/5
f 116/245/1 114/246/1 113/247/1 115/248/1
f 117/249/1 118/250/1 120/251/1 119/252/1
f 122/253/5 123/254/5 124/255/5 121/256/5
