# Blender v3.4.1 OBJ File: 'Tiny_Treats_Charming_Kitchen_1.1_ASSETS_EXPORT.blend'
# www.blender.org
mtllib wall_modular_plain_kitchen_half_corner_inner_A.mtl
o wall_modular_plain_kitchen_half_corner_inner_A
v 1.000000 0.000000 -0.249420
v 1.000000 4.000000 -0.249420
v -0.249710 0.000000 -0.249709
v -0.249710 4.000000 -0.249709
v -0.249710 2.100000 -0.249709
v 1.000000 2.100000 -0.249420
v -0.249419 -0.000000 1.000000
v -0.249419 4.000000 1.000000
v -0.249419 2.100000 1.000000
v 1.000000 -0.000000 0.000000
v -0.000174 4.000000 0.000174
v 1.000000 4.000000 0.000000
v 1.000000 2.100000 0.000000
v 0.000000 -0.000000 1.000000
v 0.000000 4.000000 1.000000
v 0.000000 2.100000 1.000000
v -0.000173 -0.000000 0.000174
vt 0.592756 0.783053
vt 0.544638 0.783053
vt 0.544638 0.783053
vt 0.592756 0.783053
vt 0.587296 0.845333
vt 0.587296 0.801116
vt 0.536103 0.801116
vt 0.536103 0.845333
vt 0.528515 0.943697
vt 0.597889 0.943697
vt 0.597889 0.943697
vt 0.528515 0.943697
vt 0.597889 0.912447
vt 0.597889 0.846542
vt 0.528515 0.846542
vt 0.528515 0.912447
vt 0.587296 0.801116
vt 0.587296 0.845333
vt 0.592756 0.783053
vt 0.544638 0.783053
vt 0.544638 0.783053
vt 0.592756 0.783053
vt 0.587296 0.845333
vt 0.587296 0.801116
vt 0.536103 0.801116
vt 0.536103 0.845333
vt 0.528515 0.943697
vt 0.597889 0.943697
vt 0.597889 0.943697
vt 0.528515 0.943697
vt 0.536103 0.801116
vt 0.536103 0.845333
vt 0.597889 0.912447
vt 0.597889 0.846542
vt 0.528515 0.846542
vt 0.528515 0.912447
vt 0.528515 0.846542
vt 0.528515 0.912447
vt 0.597889 0.912447
vt 0.597889 0.846542
vn 0.0000 -1.0000 -0.0000
vn 0.0002 0.0000 -1.0000
vn 0.0000 1.0000 0.0000
vn 1.0000 0.0000 0.0000
vn -1.0000 -0.0000 0.0002
vn -0.0000 -0.0000 1.0000
usemtl tiny_treats_1
s 1
f 10/1/1 17/2/1 3/3/1 1/4/1
f 6/5/2 1/6/2 3/7/2 5/8/2
f 11/9/3 12/10/3 2/11/3 4/12/3
f 2/13/2 6/14/2 5/15/2 4/16/2
f 10/17/4 1/6/4 6/5/4 13/18/4
f 17/19/1 14/20/1 7/21/1 3/22/1
f 5/23/5 3/24/5 7/25/5 9/26/5
f 15/27/3 11/28/3 4/29/3 8/30/3
f 14/31/6 16/32/6 9/26/6 7/25/6
f 4/33/5 5/34/5 9/35/5 8/36/5
f 8/36/6 9/35/6 16/37/6 15/38/6
f 2/13/4 12/39/4 13/40/4 6/14/4
