# Blender v3.4.1 OBJ File: 'Tiny_Treats_Charming_Kitchen_1.1_ASSETS_EXPORT.blend'
# www.blender.org
mtllib wall_cabinet_corner.mtl
o wall_cabinet_corner
v 0.739131 -0.000000 1.699666
v 0.790783 0.050000 1.699666
v 0.739131 0.050000 1.749666
v 0.790783 0.950000 1.699666
v 0.739131 1.000000 1.699666
v 0.739131 0.950000 1.749666
v -0.001217 -0.000000 1.699666
v -0.001217 0.050000 1.749666
v -0.001217 1.000000 1.699666
v -0.001217 0.950000 1.749666
v 0.740348 -0.000000 0.743000
v 0.792000 0.050000 0.793000
v 0.740348 1.000000 0.743000
v 0.792000 0.950000 0.793000
v 0.000000 0.000000 0.000000
v 0.000000 1.000000 0.000000
v 0.863096 0.099998 1.619665
v 0.894087 0.129998 1.619665
v 0.863096 0.129998 1.649665
v 0.894087 0.869998 1.619665
v 0.863096 0.899998 1.619665
v 0.863096 0.869998 1.649665
v 0.790783 0.099998 1.619665
v 0.790783 0.129998 1.649665
v 0.790783 0.869998 1.649665
v 0.790783 0.899998 1.619665
v 0.863096 0.099998 0.979665
v 0.863096 0.129998 0.949665
v 0.894087 0.129998 0.979665
v 0.863096 0.899998 0.979665
v 0.894087 0.869998 0.979665
v 0.863096 0.869998 0.949665
v 0.790783 0.129998 0.949665
v 0.790783 0.899998 0.979665
v 0.790783 0.869998 0.949665
v 0.790783 0.099998 0.979665
v 0.972881 0.227148 1.278096
v 0.972881 0.272849 1.278096
v 0.972881 0.227148 1.121234
v 0.972881 0.272849 1.121234
v 0.929129 0.227148 1.155116
v 0.929129 0.227148 1.244214
v 0.929129 0.272849 1.244214
v 0.929129 0.272849 1.155116
v 0.894086 0.272849 1.333312
v 0.894086 0.227148 1.333312
v 0.894086 0.227148 1.282489
v 0.894086 0.272849 1.116842
v 0.894086 0.272849 1.066018
v 0.894086 0.227148 1.066018
v 0.894086 0.227148 1.116842
v 0.894086 0.272849 1.282489
v 0.981085 0.249998 1.284449
v 0.981085 0.249998 1.114881
v 0.939034 0.227148 1.199665
v 0.939034 0.272849 1.199665
v 0.989349 0.227148 1.199665
v 0.989349 0.272849 1.199665
v 0.920925 0.249998 1.237861
v 0.920925 0.249998 1.161469
v 0.894086 0.249998 1.342842
v 0.894086 0.218579 1.307900
v 0.894086 0.281418 1.091430
v 0.894086 0.249998 1.056489
v 0.894086 0.218579 1.091430
v 0.894086 0.281418 1.307900
v 0.894086 0.249998 1.272959
v 0.894086 0.249998 1.126371
v 0.901064 0.227148 1.121626
v 0.926222 0.227148 1.072920
v 0.926222 0.272849 1.072920
v 0.901064 0.227148 1.277704
v 0.901064 0.272849 1.277704
v 0.926222 0.227148 1.326410
v 0.901064 0.272849 1.121626
v 0.926222 0.272849 1.326410
v 0.951005 0.281418 1.261155
v 0.951005 0.218579 1.261155
v 0.951005 0.281418 1.138175
v 0.951005 0.218579 1.138175
v 0.913643 0.218579 1.302057
v 0.913643 0.218579 1.097273
v 0.913643 0.281418 1.302057
v 0.964191 0.281418 1.199665
v 0.964191 0.218579 1.199665
v 0.998783 0.249998 1.199665
v 0.929600 0.249998 1.199665
v 0.896347 0.249998 1.268572
v 0.896347 0.249998 1.130758
v 0.913643 0.281418 1.097273
v 0.930939 0.249998 1.063788
v 0.930939 0.249998 1.335542
v 1.698783 -0.000000 0.740014
v 1.748783 0.050000 0.740014
v 1.698783 0.050000 0.791666
v 1.698783 1.000000 0.740014
v 1.698783 0.950000 0.791666
v 1.748783 0.950000 0.740014
v 1.698783 0.000000 -0.000334
v 1.748783 0.050000 -0.000334
v 1.698783 1.000000 -0.000334
v 1.748783 0.950000 -0.000334
v 1.618782 0.099998 0.863979
v 1.618782 0.129998 0.894970
v 1.648782 0.129998 0.863979
v 1.618782 0.869998 0.894970
v 1.618782 0.899998 0.863979
v 1.648782 0.869998 0.863979
v 1.618782 0.099998 0.791666
v 1.648782 0.129998 0.791666
v 1.648782 0.869998 0.791666
v 1.618782 0.899998 0.791666
v 0.978782 0.099998 0.863979
v 0.948782 0.129998 0.863979
v 0.978782 0.129998 0.894970
v 0.978782 0.899998 0.863979
v 0.978782 0.869998 0.894970
v 0.948782 0.869998 0.863979
v 0.948782 0.129998 0.791666
v 0.978782 0.899998 0.791666
v 0.948782 0.869998 0.791666
v 0.978782 0.099998 0.791666
v 1.227213 0.227148 0.973764
v 1.227213 0.272849 0.973764
v 1.070351 0.227148 0.973764
v 1.070351 0.272849 0.973764
v 1.104233 0.227148 0.930012
v 1.193331 0.227148 0.930012
v 1.193331 0.272849 0.930012
v 1.104233 0.272849 0.930012
v 1.282429 0.272849 0.894969
v 1.282429 0.227148 0.894969
v 1.231606 0.227148 0.894969
v 1.065958 0.272849 0.894969
v 1.015135 0.272849 0.894969
v 1.015135 0.227148 0.894969
v 1.065958 0.227148 0.894969
v 1.231606 0.272849 0.894969
v 1.233566 0.249998 0.981968
v 1.063998 0.249998 0.981968
v 1.148782 0.227148 0.939917
v 1.148782 0.272849 0.939917
v 1.148782 0.227148 0.990232
v 1.148782 0.272849 0.990232
v 1.186978 0.249998 0.921808
v 1.110586 0.249998 0.921808
v 1.291958 0.249998 0.894969
v 1.257017 0.218579 0.894969
v 1.040547 0.281418 0.894969
v 1.005605 0.249998 0.894969
v 1.040547 0.218579 0.894969
v 1.257017 0.281418 0.894969
v 1.222076 0.249998 0.894969
v 1.075488 0.249998 0.894969
v 1.070743 0.227148 0.901947
v 1.022037 0.227148 0.927105
v 1.022037 0.272849 0.927105
v 1.226821 0.227148 0.901947
v 1.226821 0.272849 0.901947
v 1.275527 0.227148 0.927105
v 1.070743 0.272849 0.901947
v 1.275527 0.272849 0.927105
v 1.210272 0.281418 0.951888
v 1.210272 0.218579 0.951888
v 1.087292 0.281418 0.951888
v 1.087292 0.218579 0.951888
v 1.251174 0.218579 0.914526
v 1.046390 0.218579 0.914526
v 1.251174 0.281418 0.914526
v 1.148782 0.281418 0.965074
v 1.148782 0.218579 0.965074
v 1.148782 0.249998 0.999666
v 1.148782 0.249998 0.930483
v 1.217689 0.249998 0.897230
v 1.079875 0.249998 0.897230
v 1.046390 0.281418 0.914526
v 1.012905 0.249998 0.931822
v 1.284659 0.249998 0.931822
vt 0.722412 0.858463
vt 0.722412 0.891537
vt 0.652588 0.891537
vt 0.652588 0.858463
vt 0.722412 0.924625
vt 0.652588 0.924625
vt 0.652588 0.924625
vt 0.722412 0.924625
vt 0.650751 0.858463
vt 0.650751 0.891537
vt 0.650751 0.891537
vt 0.650751 0.858463
vt 0.652588 0.825376
vt 0.652588 0.827213
vt 0.650751 0.827213
vt 0.652588 0.922787
vt 0.650751 0.922787
vt 0.722412 0.825376
vt 0.652588 0.825376
vt 0.650751 0.827213
vt 0.650751 0.922787
vt 0.724249 0.891537
vt 0.724249 0.827213
vt 0.722412 0.825376
vt 0.722412 0.924625
vt 0.722412 0.825376
vt 0.722412 0.827213
vt 0.722412 0.922787
vt 0.459069 0.880938
vt 0.459069 0.893263
vt 0.415930 0.893263
vt 0.415930 0.880938
vt 0.459069 0.915388
vt 0.415930 0.915388
vt 0.415930 0.915388
vt 0.459069 0.915388
vt 0.414389 0.880938
vt 0.414389 0.893263
vt 0.414389 0.893263
vt 0.414389 0.880938
vt 0.460610 0.880938
vt 0.460610 0.893263
vt 0.460610 0.893263
vt 0.460610 0.880938
vt 0.415930 0.858814
vt 0.415930 0.860354
vt 0.414389 0.860354
vt 0.415930 0.913847
vt 0.414389 0.913847
vt 0.459069 0.858814
vt 0.460610 0.860354
vt 0.459069 0.860354
vt 0.459069 0.913847
vt 0.460610 0.913847
vt 0.415930 0.858814
vt 0.414389 0.860354
vt 0.414389 0.913847
vt 0.459069 0.858814
vt 0.460610 0.860354
vt 0.460610 0.913847
vt 0.285321 0.852482
vt 0.273430 0.852482
vt 0.279424 0.849897
vt 0.289491 0.849897
vt 0.271732 0.852482
vt 0.277986 0.849897
vt 0.284240 0.852482
vt 0.285418 0.852482
vt 0.293660 0.852482
vt 0.331340 0.852482
vt 0.339582 0.852482
vt 0.345576 0.849897
vt 0.335509 0.849897
vt 0.340760 0.852482
vt 0.347014 0.849897
vt 0.353268 0.852482
vt 0.351570 0.852482
vt 0.339679 0.852482
vt 0.293660 0.928768
vt 0.285418 0.928768
vt 0.279424 0.931353
vt 0.289491 0.931353
vt 0.284240 0.928768
vt 0.277986 0.931353
vt 0.271732 0.928768
vt 0.273430 0.928768
vt 0.285321 0.928768
vt 0.331340 0.928768
vt 0.312500 0.928768
vt 0.312500 0.931353
vt 0.335509 0.931353
vt 0.312500 0.928768
vt 0.339679 0.928768
vt 0.312500 0.852482
vt 0.312500 0.849897
vt 0.312500 0.852482
vt 0.339679 0.897518
vt 0.312500 0.897518
vt 0.312500 0.890625
vt 0.341242 0.890625
vt 0.285321 0.897518
vt 0.283758 0.890625
vt 0.285321 0.883732
vt 0.312500 0.883732
vt 0.339679 0.883732
vt 0.293660 0.883732
vt 0.295224 0.890625
vt 0.312500 0.890625
vt 0.312500 0.883732
vt 0.293660 0.897518
vt 0.312500 0.897518
vt 0.331340 0.897518
vt 0.329776 0.890625
vt 0.331340 0.883732
vt 0.287665 0.890625
vt 0.285418 0.897518
vt 0.285418 0.883732
vt 0.284240 0.883732
vt 0.286585 0.890625
vt 0.284240 0.897518
vt 0.337335 0.890625
vt 0.339582 0.883732
vt 0.339582 0.897518
vt 0.340760 0.897518
vt 0.338415 0.890625
vt 0.340760 0.883732
vt 0.351570 0.928768
vt 0.345576 0.931353
vt 0.353268 0.928768
vt 0.347014 0.931353
vt 0.340760 0.928768
vt 0.339582 0.928768
vt 0.353817 0.890625
vt 0.351570 0.897518
vt 0.351570 0.883732
vt 0.353268 0.883732
vt 0.355614 0.890625
vt 0.353268 0.897518
vt 0.273430 0.897518
vt 0.271183 0.890625
vt 0.271732 0.897518
vt 0.269386 0.890625
vt 0.271732 0.883732
vt 0.273430 0.883732
vt 0.722412 0.858463
vt 0.722412 0.891537
vt 0.652588 0.891537
vt 0.652588 0.858463
vt 0.724249 0.858463
vt 0.724249 0.891537
vt 0.724249 0.858463
vt 0.652588 0.924625
vt 0.652588 0.924625
vt 0.722412 0.924625
vt 0.722412 0.825376
vt 0.724249 0.827213
vt 0.722412 0.827213
vt 0.722412 0.922787
vt 0.724249 0.922787
vt 0.652588 0.825376
vt 0.724249 0.922787
vt 0.652588 0.825376
vt 0.652588 0.827213
vt 0.652588 0.922787
vt 0.459069 0.880938
vt 0.415930 0.880938
vt 0.415930 0.893263
vt 0.459069 0.893263
vt 0.459069 0.915388
vt 0.459069 0.915388
vt 0.415930 0.915388
vt 0.415930 0.915388
vt 0.414389 0.880938
vt 0.414389 0.880938
vt 0.414389 0.893263
vt 0.414389 0.893263
vt 0.460610 0.880938
vt 0.460610 0.880938
vt 0.460610 0.893263
vt 0.460610 0.893263
vt 0.415930 0.858814
vt 0.414389 0.860354
vt 0.415930 0.860354
vt 0.415930 0.913847
vt 0.414389 0.913847
vt 0.459069 0.858814
vt 0.459069 0.860354
vt 0.460610 0.860354
vt 0.460610 0.913847
vt 0.459069 0.913847
vt 0.415930 0.858814
vt 0.414389 0.860354
vt 0.414389 0.913847
vt 0.460610 0.860354
vt 0.459069 0.858814
vt 0.460610 0.913847
vt 0.285321 0.852482
vt 0.289491 0.849897
vt 0.279424 0.849897
vt 0.273430 0.852482
vt 0.277986 0.849897
vt 0.271732 0.852482
vt 0.285418 0.852482
vt 0.284240 0.852482
vt 0.293660 0.852482
vt 0.331340 0.852482
vt 0.335509 0.849897
vt 0.345576 0.849897
vt 0.339582 0.852482
vt 0.347014 0.849897
vt 0.340760 0.852482
vt 0.351570 0.852482
vt 0.353268 0.852482
vt 0.339679 0.852482
vt 0.293660 0.928768
vt 0.289491 0.931353
vt 0.279424 0.931353
vt 0.285418 0.928768
vt 0.277986 0.931353
vt 0.284240 0.928768
vt 0.273430 0.928768
vt 0.271732 0.928768
vt 0.285321 0.928768
vt 0.331340 0.928768
vt 0.335509 0.931353
vt 0.312500 0.931353
vt 0.312500 0.928768
vt 0.312500 0.928768
vt 0.339679 0.928768
vt 0.312500 0.849897
vt 0.312500 0.852482
vt 0.312500 0.852482
vt 0.339679 0.897518
vt 0.341242 0.890625
vt 0.312500 0.890625
vt 0.312500 0.897518
vt 0.283758 0.890625
vt 0.285321 0.897518
vt 0.312500 0.883732
vt 0.285321 0.883732
vt 0.339679 0.883732
vt 0.293660 0.883732
vt 0.312500 0.883732
vt 0.312500 0.890625
vt 0.295224 0.890625
vt 0.312500 0.897518
vt 0.293660 0.897518
vt 0.329776 0.890625
vt 0.331340 0.897518
vt 0.331340 0.883732
vt 0.285418 0.897518
vt 0.287665 0.890625
vt 0.285418 0.883732
vt 0.286585 0.890625
vt 0.284240 0.883732
vt 0.284240 0.897518
vt 0.339582 0.883732
vt 0.337335 0.890625
vt 0.339582 0.897518
vt 0.338415 0.890625
vt 0.340760 0.897518
vt 0.340760 0.883732
vt 0.345576 0.931353
vt 0.351570 0.928768
vt 0.347014 0.931353
vt 0.353268 0.928768
vt 0.339582 0.928768
vt 0.340760 0.928768
vt 0.351570 0.897518
vt 0.353817 0.890625
vt 0.351570 0.883732
vt 0.355614 0.890625
vt 0.353268 0.883732
vt 0.353268 0.897518
vt 0.271183 0.890625
vt 0.273430 0.897518
vt 0.269386 0.890625
vt 0.271732 0.897518
vt 0.273430 0.883732
vt 0.271732 0.883732
vn 1.0000 -0.0000 0.0013
vn -0.0000 1.0000 0.0000
vn -0.0000 0.9238 0.3828
vn 0.3347 0.8778 0.3427
vn 0.1093 0.9882 0.1076
vn 0.3350 -0.3425 0.8778
vn 0.3350 0.3425 0.8778
vn 0.0000 -0.0000 1.0000
vn 0.0000 -0.3827 0.9239
vn 0.3347 -0.8778 0.3427
vn 0.7491 -0.4684 0.4685
vn 0.7491 0.4684 0.4685
vn -1.0000 0.0000 -0.0005
vn -1.0000 0.0000 -0.0007
vn 0.0000 -0.7071 0.7071
vn 0.0000 0.7071 0.7071
vn 0.0000 0.0000 -1.0000
vn -0.0001 0.0000 -1.0000
vn 0.1093 -0.9882 0.1076
vn 0.6953 -0.7187 0.0009
vn 0.6953 0.7187 0.0009
vn 0.0000 -1.0000 -0.0000
vn 1.0000 -0.0000 -0.0000
vn 0.3350 0.8778 0.3425
vn 0.3350 0.8778 -0.3425
vn 0.0000 0.3827 0.9239
vn 0.0000 -0.3827 -0.9239
vn 0.0000 0.3827 -0.9239
vn 0.3350 0.3425 -0.8778
vn 0.3350 -0.3425 -0.8778
vn 0.3350 -0.8778 0.3425
vn 0.7493 -0.4683 0.4683
vn 0.7493 0.4683 0.4683
vn 0.3350 -0.8778 -0.3425
vn 0.7493 -0.4683 -0.4683
vn 0.7493 0.4683 -0.4683
vn 0.0000 -0.7071 -0.7071
vn 0.0000 0.7071 -0.7071
vn 0.2661 -0.9525 0.1481
vn 0.1481 -0.9540 0.2606
vn 0.0180 -0.9988 0.0459
vn 0.0496 -0.9986 0.0165
vn 0.0758 -0.9485 0.3075
vn -0.0047 -0.9981 0.0614
vn -0.1187 -0.9477 -0.2964
vn -0.1832 -0.9525 -0.2433
vn -0.2805 -0.9511 -0.1294
vn -0.2805 -0.9511 0.1294
vn -0.1832 -0.9525 0.2433
vn 0.0180 -0.9988 -0.0459
vn 0.0496 -0.9986 -0.0165
vn -0.1187 -0.9477 0.2964
vn -0.0047 -0.9981 -0.0614
vn 0.0758 -0.9485 -0.3075
vn 0.1481 -0.9540 -0.2606
vn 0.2661 -0.9525 -0.1481
vn -0.2805 0.9511 -0.1294
vn -0.1832 0.9525 -0.2433
vn 0.0180 0.9988 0.0459
vn 0.0496 0.9986 0.0165
vn -0.1187 0.9477 -0.2964
vn -0.0047 0.9981 0.0614
vn 0.0758 0.9485 0.3075
vn 0.1481 0.9540 0.2606
vn 0.2661 0.9525 0.1481
vn -0.2805 0.9511 0.1294
vn -0.3201 0.9474 0.0000
vn 0.0433 0.9991 0.0000
vn 0.0496 0.9986 -0.0165
vn 0.3207 0.9472 0.0000
vn 0.2661 0.9525 -0.1481
vn -0.3201 -0.9474 -0.0000
vn 0.0433 -0.9991 -0.0000
vn 0.3207 -0.9472 -0.0000
vn 0.8139 0.4022 -0.4193
vn 0.9236 0.3833 -0.0000
vn 0.8772 -0.0000 -0.4802
vn 0.8139 0.4022 0.4193
vn 0.8772 0.0000 0.4802
vn 0.8139 -0.4022 0.4193
vn 0.9236 -0.3833 -0.0000
vn 0.8139 -0.4022 -0.4193
vn -0.8201 -0.3970 -0.4121
vn -0.9045 -0.0000 -0.4265
vn -1.0000 -0.0000 -0.0000
vn -0.9229 -0.3850 0.0000
vn -0.8201 0.3970 -0.4121
vn -0.9229 0.3850 -0.0000
vn -0.8201 0.3970 0.4121
vn -0.9045 -0.0000 0.4265
vn -0.8201 -0.3970 0.4121
vn -0.7440 0.0000 -0.6682
vn -0.6854 0.3679 -0.6284
vn -0.6854 -0.3679 -0.6284
vn -0.6623 -0.3408 -0.6672
vn -0.7045 0.0000 -0.7097
vn -0.6623 0.3408 -0.6672
vn -0.7440 -0.0000 0.6682
vn -0.6854 -0.3679 0.6284
vn -0.6854 0.3679 0.6284
vn -0.6623 0.3408 0.6672
vn -0.7045 0.0000 0.7097
vn -0.6623 -0.3408 0.6672
vn 0.1481 0.9540 -0.2606
vn 0.0180 0.9988 -0.0459
vn 0.0758 0.9485 -0.3075
vn -0.0047 0.9981 -0.0614
vn -0.1187 0.9477 0.2964
vn -0.1832 0.9525 0.2433
vn 0.4359 0.4100 -0.8012
vn 0.4389 0.4101 -0.7995
vn 0.4389 -0.4101 -0.7995
vn 0.4359 -0.4100 -0.8012
vn 0.1858 -0.3878 -0.9028
vn 0.1858 0.3878 -0.9028
vn 0.4389 0.4101 0.7995
vn 0.4359 0.4100 0.8012
vn 0.1858 0.3878 0.9028
vn 0.4359 -0.4100 0.8012
vn 0.1858 -0.3878 0.9028
vn 0.4389 -0.4101 0.7995
vn 0.0015 -0.0000 1.0000
vn 0.9239 -0.3827 -0.0000
vn 0.9239 0.3827 0.0000
vn 0.8778 0.3425 0.3350
vn 0.8778 -0.3425 0.3350
vn 0.3432 0.8769 0.3365
vn 0.3432 -0.8769 0.3365
vn 0.4684 -0.4657 0.7508
vn 0.4684 0.4657 0.7508
vn -0.0002 0.0000 -1.0000
vn 0.7071 -0.7071 -0.0000
vn 0.7071 0.7071 0.0000
vn 0.0016 -0.7133 0.7009
vn 0.0016 0.7133 0.7009
vn -0.3425 0.8778 0.3350
vn 0.3425 0.8778 0.3350
vn 0.3827 0.9239 0.0000
vn -0.9239 -0.3827 -0.0000
vn -0.8778 -0.3425 0.3350
vn -0.8778 0.3425 0.3350
vn -0.9239 0.3827 0.0000
vn 0.3425 -0.8778 0.3350
vn 0.4683 -0.4683 0.7493
vn 0.4683 0.4683 0.7493
vn -0.3425 -0.8778 0.3350
vn -0.4683 -0.4683 0.7493
vn -0.4683 0.4683 0.7493
vn -0.7071 -0.7071 -0.0000
vn -0.7071 0.7071 0.0000
vn 0.1481 -0.9525 0.2661
vn 0.0165 -0.9986 0.0496
vn 0.0459 -0.9988 0.0180
vn 0.2606 -0.9540 0.1481
vn 0.0614 -0.9981 -0.0047
vn 0.3075 -0.9485 0.0758
vn -0.2433 -0.9525 -0.1832
vn -0.2964 -0.9477 -0.1187
vn -0.1294 -0.9511 -0.2805
vn 0.1294 -0.9511 -0.2805
vn -0.0165 -0.9986 0.0496
vn -0.0459 -0.9988 0.0180
vn 0.2433 -0.9525 -0.1832
vn -0.0614 -0.9981 -0.0047
vn 0.2964 -0.9477 -0.1187
vn -0.2606 -0.9540 0.1481
vn -0.3075 -0.9485 0.0758
vn -0.1481 -0.9525 0.2661
vn -0.1294 0.9511 -0.2805
vn 0.0165 0.9986 0.0496
vn 0.0459 0.9988 0.0180
vn -0.2433 0.9525 -0.1832
vn 0.0614 0.9981 -0.0047
vn -0.2964 0.9477 -0.1187
vn 0.2606 0.9540 0.1481
vn 0.3075 0.9485 0.0758
vn 0.1481 0.9525 0.2661
vn 0.1294 0.9511 -0.2805
vn -0.0165 0.9986 0.0496
vn -0.0000 0.9991 0.0433
vn -0.0000 0.9474 -0.3201
vn 0.0000 0.9472 0.3207
vn -0.1481 0.9525 0.2661
vn 0.0000 -0.9991 0.0433
vn 0.0000 -0.9474 -0.3201
vn 0.0000 -0.9472 0.3207
vn -0.4193 0.4022 0.8139
vn -0.4802 -0.0000 0.8772
vn 0.0000 0.3833 0.9236
vn 0.4802 -0.0000 0.8772
vn 0.4193 0.4022 0.8139
vn 0.0000 -0.3833 0.9236
vn 0.4193 -0.4022 0.8139
vn -0.4193 -0.4022 0.8139
vn -0.4121 -0.3970 -0.8201
vn 0.0000 -0.3850 -0.9229
vn -0.4265 0.0000 -0.9045
vn -0.0000 0.3850 -0.9229
vn -0.4121 0.3970 -0.8201
vn 0.4265 0.0000 -0.9045
vn 0.4121 0.3970 -0.8201
vn 0.4121 -0.3970 -0.8201
vn -0.6284 0.3679 -0.6854
vn -0.6682 0.0000 -0.7440
vn -0.6284 -0.3679 -0.6854
vn -0.7097 0.0000 -0.7045
vn -0.6672 -0.3408 -0.6623
vn -0.6672 0.3408 -0.6623
vn 0.6284 -0.3679 -0.6854
vn 0.6682 0.0000 -0.7440
vn 0.6284 0.3679 -0.6854
vn 0.7097 0.0000 -0.7045
vn 0.6672 0.3408 -0.6623
vn 0.6672 -0.3408 -0.6623
vn -0.0459 0.9988 0.0180
vn -0.2606 0.9540 0.1481
vn -0.0614 0.9981 -0.0047
vn -0.3075 0.9485 0.0758
vn 0.2433 0.9525 -0.1832
vn 0.2964 0.9477 -0.1187
vn -0.7995 0.4101 0.4389
vn -0.8012 0.4100 0.4359
vn -0.8012 -0.4100 0.4359
vn -0.7995 -0.4101 0.4389
vn -0.9028 -0.3878 0.1858
vn -0.9028 0.3878 0.1858
vn 0.8012 0.4100 0.4359
vn 0.7995 0.4101 0.4389
vn 0.9028 0.3878 0.1858
vn 0.8012 -0.4100 0.4359
vn 0.7995 -0.4101 0.4389
vn 0.9028 -0.3878 0.1858
usemtl tiny_treats_1
s 1
f 12/1/1 14/2/1 4/3/1 2/4/1
f 16/5/2 9/6/3 5/7/4 13/8/5
f 3/9/6 6/10/7 10/11/8 8/12/9
f 1/13/10 2/14/11 3/15/6
f 4/16/12 5/7/4 6/17/7
f 9/6/13 16/5/14 15/18/14 7/19/13
f 7/19/15 1/13/10 3/15/6 8/20/9
f 2/4/11 4/3/12 6/10/7 3/9/6
f 5/7/4 9/6/3 10/21/16 6/17/7
f 102/22/17 100/23/17 99/24/18 101/25/18
f 1/13/10 11/26/19 12/27/20 2/14/11
f 13/8/5 5/7/4 4/16/12 14/28/21
f 7/19/22 15/18/22 11/26/19 1/13/10
f 29/29/23 31/30/23 20/31/23 18/32/23
f 34/33/2 26/34/2 21/35/24 30/36/25
f 19/37/6 22/38/7 25/39/26 24/40/9
f 33/41/27 35/42/28 32/43/29 28/44/30
f 17/45/31 18/46/32 19/47/6
f 20/48/33 21/35/24 22/49/7
f 27/50/34 28/51/30 29/52/35
f 30/36/25 31/53/36 32/54/29
f 23/55/15 17/45/31 19/47/6 24/56/9
f 18/32/32 20/31/33 22/38/7 19/37/6
f 21/35/24 26/34/16 25/57/26 22/49/7
f 27/50/34 36/58/37 33/59/27 28/51/30
f 34/33/38 30/36/25 32/54/29 35/60/28
f 31/30/36 29/29/35 28/44/30 32/43/29
f 17/45/31 27/50/34 29/52/35 18/46/32
f 30/36/25 21/35/24 20/48/33 31/53/36
f 23/55/22 36/58/22 27/50/34 17/45/31
f 37/61/39 74/62/40 81/63/41 78/64/42
f 74/62/40 46/65/43 62/66/44 81/63/41
f 81/63/41 62/66/44 47/67/45 72/68/46
f 78/64/42 81/63/41 72/68/46 42/69/47
f 41/70/48 69/71/49 82/72/50 80/73/51
f 69/71/49 51/74/52 65/75/53 82/72/50
f 82/72/50 65/75/53 50/76/54 70/77/55
f 80/73/51 82/72/50 70/77/55 39/78/56
f 43/79/57 73/80/58 83/81/59 77/82/60
f 73/80/58 52/83/61 66/84/62 83/81/59
f 83/81/59 66/84/62 45/85/63 76/86/64
f 77/82/60 83/81/59 76/86/64 38/87/65
f 44/88/66 56/89/67 84/90/68 79/91/69
f 56/89/67 43/79/57 77/82/60 84/90/68
f 84/90/68 77/82/60 38/87/65 58/92/70
f 79/91/69 84/90/68 58/92/70 40/93/71
f 42/69/47 55/94/72 85/95/73 78/64/42
f 55/94/72 41/70/48 80/73/51 85/95/73
f 85/95/73 80/73/51 39/78/56 57/96/74
f 78/64/42 85/95/73 57/96/74 37/61/39
f 40/97/75 58/98/76 86/99/23 54/100/77
f 58/98/76 38/101/78 53/102/79 86/99/23
f 86/99/23 53/102/79 37/103/80 57/104/81
f 54/100/77 86/99/23 57/104/81 39/105/82
f 42/106/83 59/107/84 87/108/85 55/109/86
f 59/107/84 43/110/87 56/111/88 87/108/85
f 87/108/85 56/111/88 44/112/89 60/113/90
f 55/109/86 87/108/85 60/113/90 41/114/91
f 43/110/87 59/107/84 88/115/92 73/116/93
f 59/107/84 42/106/83 72/117/94 88/115/92
f 88/115/92 72/117/94 47/118/95 67/119/96
f 73/116/93 88/115/92 67/119/96 52/120/97
f 41/114/91 60/113/90 89/121/98 69/122/99
f 60/113/90 44/112/89 75/123/100 89/121/98
f 89/121/98 75/123/100 48/124/101 68/125/102
f 69/122/99 89/121/98 68/125/102 51/126/103
f 40/93/71 71/127/104 90/128/105 79/91/69
f 71/127/104 49/129/106 63/130/107 90/128/105
f 90/128/105 63/130/107 48/131/108 75/132/109
f 79/91/69 90/128/105 75/132/109 44/88/66
f 40/97/75 54/100/77 91/133/110 71/134/111
f 54/100/77 39/105/82 70/135/112 91/133/113
f 91/133/113 70/135/112 50/136/114 64/137/114
f 71/134/111 91/133/110 64/137/115 49/138/115
f 38/101/78 76/139/116 92/140/117 53/102/79
f 76/139/116 45/141/118 61/142/118 92/140/117
f 92/140/119 61/142/120 46/143/120 74/144/121
f 53/102/79 92/140/119 74/144/121 37/103/80
f 25/39/85 26/34/85 34/33/85 35/60/85
f 24/40/85 25/39/85 35/60/85 33/41/85
f 23/55/85 24/40/85 33/41/85 36/58/85
f 95/145/122 97/146/122 14/147/122 12/148/122
f 100/149/123 102/22/124 98/150/125 94/151/126
f 101/25/2 16/152/2 13/153/5 96/154/127
f 9/6/13 7/19/13 8/12/85 10/21/85
f 93/155/128 94/156/126 95/157/129
f 96/154/127 97/158/130 98/159/125
f 16/152/131 101/25/18 99/24/18 15/160/131
f 93/155/128 99/24/132 100/23/123 94/156/126
f 101/25/133 96/154/127 98/159/125 102/161/124
f 97/146/130 95/145/129 94/151/126 98/150/125
f 11/162/19 93/155/128 95/157/129 12/163/134
f 96/154/127 13/153/5 14/164/135 97/158/130
f 15/160/22 99/24/22 93/155/128 11/162/19
f 115/165/8 104/166/8 106/167/8 117/168/8
f 120/169/2 116/170/136 107/171/137 112/172/138
f 105/173/126 110/174/123 111/175/23 108/176/125
f 119/177/139 114/178/140 118/179/141 121/180/142
f 103/181/143 105/182/126 104/183/144
f 106/184/145 108/185/125 107/171/137
f 113/186/146 115/187/147 114/188/140
f 116/170/136 118/189/141 117/190/148
f 109/191/132 110/192/123 105/182/126 103/181/143
f 104/166/144 105/173/126 108/176/125 106/167/145
f 107/171/137 108/185/125 111/193/133 112/172/138
f 113/186/146 114/188/140 119/194/139 122/195/149
f 120/169/150 121/196/142 118/189/141 116/170/136
f 117/168/148 118/179/141 114/178/140 115/165/147
f 103/181/143 104/183/144 115/187/147 113/186/146
f 116/170/136 117/190/148 106/184/145 107/171/137
f 109/191/22 103/181/143 113/186/146 122/195/22
f 123/197/151 164/198/152 167/199/153 160/200/154
f 160/200/154 167/199/153 148/201/155 132/202/156
f 167/199/153 158/203/157 133/204/158 148/201/155
f 164/198/152 128/205/159 158/203/157 167/199/153
f 127/206/160 166/207/161 168/208/162 155/209/163
f 155/209/163 168/208/162 151/210/164 137/211/165
f 168/208/162 156/212/166 136/213/167 151/210/164
f 166/207/161 125/214/168 156/212/166 168/208/162
f 129/215/169 163/216/170 169/217/171 159/218/172
f 159/218/172 169/217/171 152/219/173 138/220/174
f 169/217/171 162/221/175 131/222/176 152/219/173
f 163/216/170 124/223/177 162/221/175 169/217/171
f 130/224/178 165/225/179 170/226/180 142/227/181
f 142/227/181 170/226/180 163/216/170 129/215/169
f 170/226/180 144/228/182 124/223/177 163/216/170
f 165/225/179 126/229/183 144/228/182 170/226/180
f 128/205/159 164/198/152 171/230/184 141/231/185
f 141/231/185 171/230/184 166/207/161 127/206/160
f 171/230/184 143/232/186 125/214/168 166/207/161
f 164/198/152 123/197/151 143/232/186 171/230/184
f 126/233/187 140/234/188 172/235/8 144/236/189
f 144/236/189 172/235/8 139/237/190 124/238/191
f 172/235/8 143/239/192 123/240/193 139/237/190
f 140/234/188 125/241/194 143/239/192 172/235/8
f 128/242/195 141/243/196 173/244/17 145/245/197
f 145/245/197 173/244/17 142/246/198 129/247/199
f 173/244/17 146/248/200 130/249/201 142/246/198
f 141/243/196 127/250/202 146/248/200 173/244/17
f 129/247/199 159/251/203 174/252/204 145/245/197
f 145/245/197 174/252/204 158/253/205 128/242/195
f 174/252/204 153/254/206 133/255/207 158/253/205
f 159/251/203 138/256/208 153/254/206 174/252/204
f 127/250/202 155/257/209 175/258/210 146/248/200
f 146/248/200 175/258/210 161/259/211 130/249/201
f 175/258/210 154/260/212 134/261/213 161/259/211
f 155/257/209 137/262/214 154/260/212 175/258/210
f 126/229/183 165/225/179 176/263/215 157/264/216
f 157/264/216 176/263/215 149/265/217 135/266/218
f 176/263/215 161/267/219 134/268/220 149/265/217
f 165/225/179 130/224/178 161/267/219 176/263/215
f 126/233/187 157/269/221 177/270/222 140/234/188
f 140/234/188 177/270/223 156/271/224 125/241/194
f 177/270/223 150/272/225 136/273/225 156/271/224
f 157/269/221 135/274/226 150/272/226 177/270/222
f 124/238/191 139/237/190 178/275/227 162/276/228
f 162/276/228 178/275/227 147/277/229 131/278/229
f 178/275/230 160/279/231 132/280/232 147/277/232
f 139/237/190 123/240/193 160/279/231 178/275/230
f 111/175/17 121/196/17 120/169/17 112/172/17
f 110/174/17 119/177/17 121/196/17 111/175/17
f 109/191/17 122/195/17 119/177/17 110/174/17
