# Blender v3.4.1 OBJ File: 'Tiny_Treats_Charming_Kitchen_1.1_ASSETS_EXPORT.blend'
# www.blender.org
mtllib wall_modular_tiles_kitchen_corner_outer_B.mtl
o wall_modular_tiles_kitchen_corner_outer_B
v 0.249420 -0.000000 2.000000
v 0.249420 4.000000 2.000000
v 0.249709 -0.000000 0.249710
v 0.249709 4.000000 0.249711
v 0.249709 2.100000 0.249711
v 0.249420 2.100000 2.000000
v 2.000000 -0.000000 0.249418
v 2.000000 4.000000 0.249419
v 2.000000 2.100000 0.249419
v 0.000000 2.100000 2.000000
v 0.000000 4.000000 0.000000
v -0.000000 -0.000000 2.000000
v -0.000000 4.000000 2.000000
v 2.000000 0.000000 -0.000000
v 2.000000 4.000000 0.000000
v 2.000000 2.100000 0.000000
v 0.000000 -0.000000 0.000000
vt 0.842756 0.314303
vt 0.794638 0.314303
vt 0.794638 0.314303
vt 0.842756 0.314303
vt 0.837296 0.376583
vt 0.837296 0.332366
vt 0.786103 0.332366
vt 0.786103 0.376583
vt 0.528515 0.943697
vt 0.597889 0.943697
vt 0.597889 0.943697
vt 0.528515 0.943697
vt 0.597889 0.912447
vt 0.597889 0.846542
vt 0.528515 0.846542
vt 0.528515 0.912447
vt 0.837296 0.332366
vt 0.837296 0.376583
vt 0.842756 0.314303
vt 0.794638 0.314303
vt 0.794638 0.314303
vt 0.842756 0.314303
vt 0.837296 0.376583
vt 0.837296 0.332366
vt 0.786103 0.332366
vt 0.786103 0.376583
vt 0.528515 0.943697
vt 0.597889 0.943697
vt 0.597889 0.943697
vt 0.528515 0.943697
vt 0.786103 0.332366
vt 0.786103 0.376583
vt 0.597889 0.912447
vt 0.597889 0.846542
vt 0.528515 0.846542
vt 0.528515 0.912447
vt 0.528515 0.846542
vt 0.528515 0.912447
vt 0.597889 0.912447
vt 0.597889 0.846542
vn 0.0000 -1.0000 -0.0000
vn 1.0000 0.0000 0.0002
vn -0.0000 1.0000 0.0000
vn 0.0000 -0.0000 1.0000
vn 0.0002 -0.0000 1.0000
vn 1.0000 0.0000 -0.0000
usemtl tiny_treats_1
s 1
f 12/1/1 17/2/1 3/3/1 1/4/1
f 6/5/2 1/6/2 3/7/2 5/8/2
f 11/9/3 13/10/3 2/11/3 4/12/3
f 2/13/2 6/14/2 5/15/2 4/16/2
f 12/17/4 1/6/4 6/5/4 10/18/4
f 17/19/1 14/20/1 7/21/1 3/22/1
f 5/23/5 3/24/5 7/25/5 9/26/5
f 15/27/3 11/28/3 4/29/3 8/30/3
f 14/31/6 16/32/6 9/26/6 7/25/6
f 4/33/5 5/34/5 9/35/5 8/36/5
f 8/36/6 9/35/6 16/37/6 15/38/6
f 2/13/4 13/39/4 10/40/4 6/14/4
