# Blender v3.4.1 OBJ File: 'Tiny_Treats_Charming_Kitchen_1.1_ASSETS_EXPORT.blend'
# www.blender.org
mtllib wall_modular_tiles_kitchen_window_full_right_A.mtl
o wall_modular_tiles_kitchen_window_full_right_A
v -1.000000 -0.000000 0.200807
v -1.000000 4.000000 0.200806
v 1.000000 0.000000 0.200806
v 1.000000 4.000000 0.200806
v -1.000000 3.500000 0.200806
v 0.750000 3.500000 0.200806
v -1.000000 0.500000 0.200806
v 0.750000 0.500000 0.200806
v 0.750000 2.100000 0.200806
v 1.000000 2.100000 0.200806
v 1.000000 4.000000 0.250806
v -1.000000 4.000000 0.250806
v -1.000000 3.500000 0.250806
v 0.750000 3.500000 0.250806
v 0.750000 2.160000 0.250806
v 1.000000 2.160000 0.250806
v 1.000000 0.600000 0.200696
v 1.000000 1.200000 0.200696
v 1.000000 0.000000 0.200696
v 1.000000 0.236283 0.249419
v 1.000000 0.063717 0.249419
v -0.750000 0.300000 0.200696
v -0.686283 0.236283 0.249419
v -0.750000 0.000000 0.200696
v -0.686283 0.063717 0.249419
v -0.250000 0.300000 0.200696
v -0.313717 0.236283 0.249419
v 0.813717 0.836283 0.249419
v 0.750000 0.600000 0.200696
v 0.813717 0.663717 0.249419
v 1.000000 0.663717 0.249419
v 1.000000 0.836283 0.249419
v 0.750000 0.963717 0.249419
v 0.750000 1.200000 0.200696
v 0.750000 1.136283 0.249419
v 0.750000 0.900000 0.200696
v 0.936283 1.136283 0.249419
v 0.936283 0.963717 0.249419
v 1.000000 0.900000 0.200696
v 1.000000 1.500000 0.200696
v 0.936283 1.563717 0.249419
v 0.936283 1.736283 0.249419
v -1.000000 0.600000 0.200696
v 1.000000 0.600000 0.200696
v -0.063717 0.536283 0.249419
v -0.063717 0.363717 0.249419
v 0.000000 0.300000 0.200696
v 0.000000 0.600000 0.200696
v 0.063717 0.536283 0.249419
v 0.063717 0.363717 0.249419
v 0.436283 0.536283 0.249419
v 0.436283 0.363717 0.249419
v 0.500000 0.600000 0.200696
v 0.563717 0.536283 0.249419
v 0.500000 0.300000 0.200696
v 0.563717 0.363717 0.249419
v 0.936283 0.536283 0.249419
v 0.936283 0.363717 0.249419
v 1.000000 0.300000 0.200696
v -0.436283 0.363717 0.249419
v -0.436283 0.536283 0.249419
v -0.500000 0.300000 0.200696
v -0.563717 0.363717 0.249419
v -0.563717 0.536283 0.249419
v -0.500000 0.600000 0.200696
v -0.936283 0.363717 0.249419
v -1.000000 0.300000 0.200696
v -0.936283 0.536283 0.249419
v 0.750000 1.500000 0.200696
v 0.750000 1.736283 0.249419
v 0.750000 1.800000 0.200696
v 0.750000 1.563717 0.249419
v 1.000000 1.436283 0.249419
v 1.000000 1.263717 0.249419
v 0.813717 1.263717 0.249419
v 0.813717 1.436283 0.249419
v 0.750000 2.100000 0.200696
v 0.813717 2.036283 0.249419
v 0.813717 1.863717 0.249419
v 1.000000 1.863717 0.249419
v 1.000000 2.036283 0.249419
v 1.000000 1.800000 0.200696
v 1.000000 2.100000 0.200696
v -0.813717 0.236283 0.249419
v -0.813717 0.063717 0.249419
v -1.000000 0.063717 0.249419
v -1.000000 0.236283 0.249419
v 0.186283 0.236283 0.249419
v 0.186283 0.063717 0.249419
v 0.250000 0.000000 0.200696
v 0.250000 0.300000 0.200696
v 0.313717 0.236283 0.249419
v 0.313717 0.063717 0.249419
v 0.686283 0.236283 0.249419
v 0.686283 0.063717 0.249419
v 0.750000 0.300000 0.200696
v 0.813717 0.236283 0.249419
v 0.750000 0.000000 0.200696
v 0.813717 0.063717 0.249419
v -0.186283 0.063717 0.249419
v -0.186283 0.236283 0.249419
v -0.250000 0.000000 0.200696
v -0.313717 0.063717 0.249419
v -1.000000 0.000000 0.200696
v 1.000000 4.000000 0.000000
v -1.000000 3.500000 0.000000
v 0.750000 3.500000 0.000000
v 0.750000 0.500000 0.000000
v 1.000000 0.000000 0.000000
v 1.000000 2.100000 0.000000
v -1.000000 0.500000 0.000000
v 0.750000 2.100000 0.000000
v -1.000000 4.000000 0.000000
v -1.000000 0.000000 0.000000
vt 0.828125 0.359375
vt 0.828125 0.359375
vt 0.828125 0.359375
vt 0.828125 0.359375
vt 0.828125 0.359375
vt 0.828125 0.359375
vt 0.828125 0.359375
vt 0.828125 0.359375
vt 0.828125 0.359375
vt 0.828125 0.359375
vt 0.597889 0.943697
vt 0.597889 0.943697
vt 0.528515 0.943697
vt 0.528515 0.943697
vt 0.793969 0.374206
vt 0.793969 0.396506
vt 0.827006 0.396506
vt 0.827006 0.374206
vt 0.788165 0.421328
vt 0.793969 0.421328
vt 0.528515 0.912447
vt 0.528515 0.912447
vt 0.528515 0.848623
vt 0.528515 0.846542
vt 0.537533 0.846542
vt 0.537533 0.848623
vt 0.537533 0.877760
vt 0.537533 0.877760
vt 0.597889 0.912447
vt 0.588870 0.877760
vt 0.528515 0.815292
vt 0.528515 0.817373
vt 0.537533 0.817373
vt 0.537533 0.815292
vt 0.537533 0.846510
vt 0.537533 0.846510
vt 0.588870 0.846510
vt 0.588870 0.846510
vt 0.597889 0.943697
vt 0.528515 0.943697
vt 0.789483 0.315502
vt 0.795487 0.321505
vt 0.830593 0.321505
vt 0.836596 0.315502
vt 0.830593 0.355258
vt 0.795487 0.355258
vt 0.795487 0.390364
vt 0.830593 0.390364
vt 0.830593 0.379113
vt 0.836596 0.385117
vt 0.836596 0.338004
vt 0.830593 0.344007
vt 0.813040 0.355258
vt 0.795487 0.355258
vt 0.795487 0.390364
vt 0.813040 0.390364
vt 0.795487 0.332756
vt 0.789483 0.326753
vt 0.789483 0.373866
vt 0.795487 0.367862
vt 0.836596 0.418870
vt 0.830593 0.412866
vt 0.795487 0.412866
vt 0.789483 0.418870
vt 0.789483 0.315502
vt 0.795487 0.321505
vt 0.813040 0.321505
vt 0.813040 0.315502
vt 0.795487 0.332756
vt 0.789483 0.326753
vt 0.789483 0.373866
vt 0.795487 0.367862
vt 0.830593 0.355258
vt 0.795487 0.355258
vt 0.795487 0.390364
vt 0.830593 0.390364
vt 0.795462 0.329499
vt 0.795462 0.326600
vt 0.795462 0.376522
vt 0.795462 0.373622
vt 0.813040 0.418870
vt 0.813040 0.412866
vt 0.795487 0.412866
vt 0.789483 0.418870
vt 0.813040 0.315502
vt 0.813040 0.321505
vt 0.830593 0.321505
vt 0.836596 0.315502
vt 0.836596 0.418870
vt 0.830593 0.412866
vt 0.795487 0.412866
vt 0.789483 0.418870
vt 0.813040 0.390364
vt 0.813040 0.418870
vt 0.813040 0.315502
vt 0.813040 0.355258
vt 0.836596 0.418870
vt 0.830593 0.412866
vt 0.795487 0.412866
vt 0.789483 0.418870
vt 0.813040 0.315502
vt 0.813040 0.321505
vt 0.830593 0.321505
vt 0.836596 0.315502
vt 0.830593 0.379113
vt 0.836596 0.385117
vt 0.836596 0.338004
vt 0.830593 0.344007
vt 0.830593 0.355258
vt 0.795487 0.355258
vt 0.795487 0.390364
vt 0.830593 0.390364
vt 0.789483 0.315502
vt 0.795487 0.321505
vt 0.813040 0.321505
vt 0.836596 0.418870
vt 0.830593 0.412866
vt 0.813040 0.412866
vt 0.813040 0.418870
vt 0.830593 0.355258
vt 0.813040 0.355258
vt 0.813040 0.390364
vt 0.830593 0.390364
vt 0.813040 0.355258
vt 0.795487 0.355258
vt 0.795487 0.390364
vt 0.813040 0.390364
vt 0.795487 0.332756
vt 0.789483 0.326753
vt 0.789483 0.373866
vt 0.795487 0.367862
vt 0.813040 0.418870
vt 0.813040 0.412866
vt 0.795487 0.412866
vt 0.789483 0.418870
vt 0.789483 0.315502
vt 0.795487 0.321505
vt 0.830593 0.321505
vt 0.836596 0.315502
vt 0.836596 0.418870
vt 0.830593 0.412866
vt 0.795487 0.412866
vt 0.789483 0.418870
vt 0.836596 0.418870
vt 0.830593 0.412866
vt 0.795487 0.412866
vt 0.789483 0.418870
vt 0.830593 0.355258
vt 0.795487 0.355258
vt 0.795487 0.390364
vt 0.830593 0.390364
vt 0.830593 0.379113
vt 0.836596 0.385117
vt 0.836596 0.338004
vt 0.830593 0.344007
vt 0.795487 0.332756
vt 0.789483 0.326753
vt 0.789483 0.373866
vt 0.795487 0.367862
vt 0.795487 0.332756
vt 0.789483 0.326753
vt 0.789483 0.373866
vt 0.795487 0.367862
vt 0.830593 0.355258
vt 0.795487 0.355258
vt 0.795487 0.390364
vt 0.830593 0.390364
vt 0.836596 0.418870
vt 0.830593 0.412866
vt 0.795487 0.412866
vt 0.789483 0.418870
vt 0.789483 0.315502
vt 0.795487 0.321505
vt 0.830593 0.321505
vt 0.836596 0.315502
vt 0.795487 0.332756
vt 0.789483 0.326753
vt 0.789483 0.373866
vt 0.795487 0.367862
vt 0.789483 0.315502
vt 0.795487 0.321505
vt 0.830593 0.321505
vt 0.836596 0.315502
vt 0.830593 0.379113
vt 0.836596 0.385117
vt 0.836596 0.338004
vt 0.830593 0.344007
vt 0.836596 0.418870
vt 0.830593 0.412866
vt 0.795487 0.412866
vt 0.789483 0.418870
vt 0.795487 0.332756
vt 0.789483 0.326753
vt 0.789483 0.373866
vt 0.795487 0.367862
vt 0.789483 0.315502
vt 0.795487 0.321505
vt 0.830593 0.321505
vt 0.836596 0.315502
vt 0.830593 0.379113
vt 0.836596 0.385117
vt 0.836596 0.338004
vt 0.830593 0.344007
vt 0.830593 0.355258
vt 0.795487 0.355258
vt 0.795487 0.390364
vt 0.830593 0.390364
vt 0.830593 0.355258
vt 0.795487 0.355258
vt 0.795487 0.390364
vt 0.830593 0.390364
vt 0.830593 0.379113
vt 0.836596 0.385117
vt 0.836596 0.338004
vt 0.830593 0.344007
vt 0.830593 0.355258
vt 0.813040 0.355258
vt 0.813040 0.390364
vt 0.830593 0.390364
vt 0.836596 0.418870
vt 0.830593 0.412866
vt 0.813040 0.412866
vt 0.813040 0.418870
vt 0.789483 0.315502
vt 0.795487 0.321505
vt 0.813040 0.321505
vt 0.813040 0.315502
vt 0.830593 0.379113
vt 0.836596 0.385117
vt 0.836596 0.338004
vt 0.830593 0.344007
vt 0.813040 0.315502
vt 0.813040 0.321505
vt 0.830593 0.321505
vt 0.836596 0.315502
vt 0.795462 0.329499
vt 0.795462 0.326600
vt 0.795462 0.376522
vt 0.795462 0.373622
vt 0.813040 0.315502
vt 0.813040 0.321505
vt 0.830593 0.321505
vt 0.836596 0.315502
vt 0.830593 0.379113
vt 0.836596 0.385117
vt 0.836596 0.338004
vt 0.830593 0.344007
vt 0.830593 0.355258
vt 0.813040 0.355258
vt 0.813040 0.390364
vt 0.830593 0.390364
vt 0.836596 0.418870
vt 0.830593 0.412866
vt 0.813040 0.412866
vt 0.813040 0.418870
vt 0.789483 0.315502
vt 0.795487 0.321505
vt 0.830593 0.321505
vt 0.836596 0.315502
vt 0.836596 0.418870
vt 0.830593 0.412866
vt 0.813040 0.412866
vt 0.813040 0.418870
vt 0.830593 0.355258
vt 0.813040 0.355258
vt 0.813040 0.390364
vt 0.830593 0.390364
vt 0.830593 0.379113
vt 0.836596 0.385117
vt 0.836596 0.338004
vt 0.830593 0.344007
vt 0.830593 0.379113
vt 0.836596 0.385117
vt 0.836596 0.338004
vt 0.830593 0.344007
vt 0.789483 0.315502
vt 0.795487 0.321505
vt 0.830593 0.321505
vt 0.836596 0.315502
vt 0.795487 0.332756
vt 0.789483 0.326753
vt 0.789483 0.373866
vt 0.795487 0.367862
vt 0.795487 0.332756
vt 0.789483 0.326753
vt 0.789483 0.373866
vt 0.795487 0.367862
vt 0.830593 0.379113
vt 0.836596 0.385117
vt 0.836596 0.338004
vt 0.830593 0.344007
vt 0.795462 0.329499
vt 0.795462 0.326600
vt 0.795462 0.376522
vt 0.795462 0.373622
vt 0.813040 0.412866
vt 0.795487 0.412866
vt 0.789483 0.418870
vt 0.795487 0.332756
vt 0.789483 0.326753
vt 0.789483 0.373866
vt 0.795487 0.367862
vt 0.795462 0.376522
vt 0.795462 0.326600
vt 0.795462 0.329499
vt 0.795462 0.362755
vt 0.795462 0.373622
vt 0.795462 0.329499
vt 0.795462 0.326600
vt 0.795462 0.376522
vt 0.793969 0.372559
vt 0.827006 0.372559
vt 0.827006 0.372559
vt 0.793969 0.372559
vt 0.793969 0.333465
vt 0.793969 0.333465
vt 0.793969 0.358287
vt 0.793969 0.358287
vt 0.800768 0.340590
vt 0.800768 0.340590
vt 0.833098 0.340590
vt 0.833098 0.340590
vt 0.795487 0.355258
vt 0.795487 0.390364
vt 0.788165 0.332295
vt 0.788165 0.379417
vt 0.788165 0.379417
vt 0.788165 0.332295
vt 0.588870 0.846510
vt 0.537533 0.846510
vt 0.537533 0.877760
vt 0.537533 0.846542
vt 0.528515 0.846542
vt 0.528515 0.912447
vt 0.830052 0.336457
vn 0.0000 0.0000 -1.0000
vn 0.0000 1.0000 -0.0000
vn 0.0000 0.0000 1.0000
vn 0.0000 -0.3404 0.9403
vn 1.0000 0.0000 0.0000
vn -1.0000 0.0000 -0.0000
vn 0.0000 -0.6402 0.7682
vn 0.0000 -1.0000 -0.0000
vn 0.0000 -0.6074 0.7944
vn 0.2484 -0.2484 0.9363
vn -0.2484 -0.2484 0.9363
vn 0.2484 0.2484 0.9363
vn -0.2484 0.2484 0.9363
vn -0.6074 0.0000 0.7944
vn 0.0000 -0.3207 0.9472
vn 0.0000 0.3207 0.9472
vn 0.6074 0.0000 0.7944
vn 0.0000 0.6074 0.7944
usemtl tiny_treats_1
s off
f 43/1/1 65/2/1 62/3/1 67/4/1
f 65/2/1 48/5/1 47/6/1 62/3/1
f 48/5/1 53/7/1 55/8/1 47/6/1
f 55/8/1 53/7/1 17/9/1 59/10/1
s 1
f 113/11/2 2/12/2 4/13/2 105/14/2
f 3/15/3 8/16/3 7/17/3 1/18/3
f 3/15/3 10/19/4 9/20/4 8/16/3
f 4/21/5 11/22/5 16/23/5 10/24/5
f 9/25/6 15/26/6 14/27/6 6/28/6
f 11/22/3 12/29/3 13/30/3 14/27/3
f 11/22/3 14/27/3 15/26/3 16/23/3
f 10/31/4 16/32/7 15/33/7 9/34/4
f 6/35/8 14/36/8 13/37/8 5/38/8
f 2/12/2 12/39/2 11/40/2 4/13/2
f 98/41/9 95/42/10 93/43/11 90/44/9
f 100/45/11 89/46/10 88/47/12 101/48/13
f 23/49/13 22/50/14 24/51/14 25/52/11
f 86/53/15 85/54/10 84/55/12 87/56/16
f 103/57/10 102/58/17 26/59/17 27/60/12
f 26/61/18 101/62/13 88/63/12 91/64/18
f 24/65/9 85/66/10 86/67/15 104/68/9
f 85/69/10 24/70/17 22/71/17 84/72/12
f 93/73/11 95/74/10 94/75/12 92/76/13
f 31/77/5 44/78/5 39/79/5 32/80/5
f 67/81/18 87/82/16 84/83/12 22/84/18
f 19/85/9 21/86/15 99/87/11 98/88/9
f 91/89/18 92/90/13 94/91/12 96/92/18
f 35/93/6 34/94/6 36/95/6 33/96/6
f 22/97/18 23/98/13 27/99/12 26/100/18
f 44/101/9 31/102/15 30/103/11 29/104/9
f 28/105/13 36/106/14 29/107/14 30/108/11
f 25/109/11 103/110/10 27/111/12 23/112/13
f 39/113/9 38/114/10 33/115/15 36/95/9
f 36/116/18 28/117/13 32/118/16 39/119/18
f 30/120/11 31/121/15 32/122/16 28/123/13
f 72/124/15 41/125/10 42/126/12 70/127/16
f 41/128/10 40/129/17 82/130/17 42/131/12
f 71/132/18 70/133/16 42/134/12 82/135/18
f 55/136/9 52/137/10 50/138/11 47/139/9
f 43/140/18 68/141/13 64/142/12 65/143/18
f 48/144/18 49/145/13 51/146/12 53/147/18
f 66/148/11 63/149/10 64/150/12 68/151/13
f 68/152/13 43/153/14 67/154/14 66/155/11
f 58/156/10 59/157/17 17/158/17 57/159/12
f 46/160/10 47/161/17 48/162/17 45/163/12
f 60/164/11 46/165/10 45/166/12 61/167/13
f 65/168/18 61/169/13 45/170/12 48/171/18
f 62/172/9 63/173/10 66/174/11 67/175/9
f 63/176/10 62/177/17 65/178/17 64/179/12
f 59/180/9 58/181/10 56/182/11 55/183/9
f 54/184/13 53/185/14 55/186/14 56/187/11
f 53/188/18 54/189/13 57/190/12 17/191/18
f 52/192/10 55/193/17 53/194/17 51/195/12
f 47/196/9 46/197/10 60/198/11 62/199/9
f 61/200/13 65/201/14 62/202/14 60/203/11
f 56/204/11 58/205/10 57/206/12 54/207/13
f 50/208/11 52/209/10 51/210/12 49/211/13
f 49/212/13 48/213/14 47/214/14 50/215/11
f 75/216/11 74/217/15 73/218/16 76/219/13
f 69/220/18 76/221/13 73/222/16 40/223/18
f 40/224/9 41/225/10 72/226/15 69/227/9
f 76/228/13 69/229/14 34/230/14 75/231/11
f 18/232/9 74/233/15 75/234/11 34/235/9
f 70/127/6 71/132/6 69/227/6 72/124/6
f 74/236/5 18/237/5 40/238/5 73/239/5
f 82/240/9 80/241/15 79/242/11 71/243/9
f 78/244/13 77/245/14 71/246/14 79/247/11
f 79/248/11 80/249/15 81/250/16 78/251/13
f 77/252/18 78/253/13 81/254/16 83/255/18
f 90/256/9 89/257/10 100/258/11 102/259/9
f 96/260/18 97/261/13 20/262/16 59/263/18
f 99/264/11 21/265/15 20/266/16 97/267/13
f 92/268/13 91/269/14 90/270/14 93/271/11
f 101/272/13 26/273/14 102/274/14 100/275/11
f 102/276/9 103/277/10 25/278/11 24/279/9
f 89/280/10 90/281/17 91/282/17 88/283/12
f 95/284/10 98/285/17 96/286/17 94/287/12
f 97/288/13 96/289/14 98/290/14 99/291/11
f 80/292/5 82/293/5 83/294/5 81/295/5
f 34/94/18 35/296/16 37/297/12 18/298/18
f 38/299/10 39/300/17 18/301/17 37/302/12
f 67/303/6 104/304/6 86/305/6 87/306/6
f 20/307/5 21/308/5 19/309/5 59/310/5
f 108/311/2 111/312/2 7/313/2 8/314/2
f 108/315/6 8/316/6 9/317/6 112/318/6
f 109/319/8 3/320/8 1/321/8 114/322/8
f 33/96/15 38/323/10 37/324/12 35/93/16
f 109/325/5 110/326/5 10/327/5 3/328/5
f 113/11/6 106/329/6 5/38/6 2/12/6
f 106/329/8 107/330/8 6/35/8 5/38/8
f 12/39/6 2/12/6 5/38/6 13/37/6
f 9/25/6 6/28/6 107/331/6 112/332/6
f 10/24/5 110/333/5 105/334/5 4/21/5
f 7/313/6 111/312/6 114/335/6 1/321/6
