# Blender v3.4.1 OBJ File: 'Tiny_Treats_Charming_Kitchen_1.1_ASSETS_EXPORT.blend'
# www.blender.org
mtllib wall_modular_plain_kitchen_window_full_left_B.mtl
o wall_modular_plain_kitchen_window_full_left_B
v 1.000000 0.000000 -0.249194
v 1.000000 4.000000 -0.249194
v -1.000000 4.000000 -0.249194
v -1.000000 0.000000 -0.249194
v 1.000000 3.500000 -0.249194
v -0.750000 3.500000 -0.249194
v 1.000000 0.500000 -0.249194
v -0.750000 0.500000 -0.249194
v -0.750000 2.100000 -0.249194
v -1.000000 2.100000 -0.249194
v -1.000000 4.000000 0.000000
v 1.000000 4.000000 0.000000
v 1.000000 0.000000 0.000000
v -0.750000 0.500000 0.000000
v -0.750000 3.500000 0.000000
v -1.000000 2.100000 0.000000
v -0.750000 2.100000 0.000000
v 1.000000 0.500000 0.000000
v 1.000000 3.500000 0.000000
v -1.000000 0.000000 0.000000
vt 0.528515 0.912447
vt 0.528515 0.912447
vt 0.528515 0.846542
vt 0.528515 0.846542
vt 0.543969 0.834006
vt 0.543969 0.834006
vt 0.543969 0.858828
vt 0.543969 0.858828
vt 0.597889 0.912447
vt 0.588870 0.877760
vt 0.537533 0.877760
vt 0.537533 0.846542
vt 0.577006 0.811706
vt 0.543969 0.811706
vt 0.577006 0.834006
vt 0.538165 0.811706
vt 0.538165 0.858828
vt 0.577006 0.873101
vt 0.580052 0.794898
vt 0.577006 0.873101
vt 0.543969 0.873101
vt 0.543969 0.873101
vt 0.550768 0.778090
vt 0.583098 0.778090
vt 0.583098 0.778090
vt 0.550768 0.778090
vt 0.537533 0.877760
vt 0.537533 0.846542
vt 0.538165 0.850800
vt 0.538165 0.850800
vt 0.538165 0.897923
vt 0.538165 0.897923
vt 0.588870 0.846510
vt 0.588870 0.846510
vt 0.537533 0.846510
vt 0.537533 0.846510
vt 0.597889 0.943697
vt 0.528515 0.943697
vt 0.528515 0.943697
vt 0.597889 0.943697
vn -1.0000 0.0000 0.0000
vn 1.0000 0.0000 0.0000
vn 0.0000 0.0000 -1.0000
vn 0.0000 1.0000 0.0000
vn 0.0000 -1.0000 0.0000
usemtl tiny_treats_1
s 1
f 11/1/1 3/2/1 10/3/1 16/4/1
f 14/5/2 8/6/2 9/7/2 17/8/2
f 2/9/3 5/10/3 6/11/3 3/2/3
f 3/2/3 6/11/3 9/12/3 10/3/3
f 1/13/3 4/14/3 8/6/3 7/15/3
f 4/16/3 10/17/3 9/7/3 8/6/3
f 18/18/2 13/19/2 1/13/2 7/20/2
f 7/20/4 8/21/4 14/22/4 18/18/4
f 4/23/5 1/24/5 13/25/5 20/26/5
f 9/12/2 6/11/2 15/27/2 17/28/2
f 4/29/1 20/30/1 16/31/1 10/32/1
f 5/33/5 19/34/5 15/35/5 6/36/5
f 2/37/4 3/38/4 11/39/4 12/40/4
f 2/37/2 12/40/2 19/34/2 5/33/2
