# Blender v3.4.1 OBJ File: 'Tiny_Treats_Charming_Kitchen_1.1_ASSETS_EXPORT.blend'
# www.blender.org
mtllib wall_modular_plain_kitchen_half_corner_outer_B.mtl
o wall_modular_plain_kitchen_half_corner_outer_B
v 0.249420 -0.000000 1.000000
v 0.249420 4.000000 1.000000
v 0.249709 -0.000000 0.249710
v 0.249709 4.000000 0.249711
v 1.000000 -0.000000 0.249418
v 1.000000 4.000000 0.249419
v 0.000000 0.000000 0.000000
v -0.000000 4.000000 0.000000
v 1.000000 0.000000 0.000000
v 1.000000 4.000000 0.000000
v -0.000000 -0.000000 1.000000
v -0.000000 4.000000 1.000000
vt 0.592756 0.783053
vt 0.544638 0.783053
vt 0.544638 0.783053
vt 0.592756 0.783053
vt 0.597889 0.912447
vt 0.587296 0.801116
vt 0.536103 0.801116
vt 0.528515 0.912447
vt 0.528515 0.943697
vt 0.597889 0.943697
vt 0.597889 0.943697
vt 0.528515 0.943697
vt 0.592756 0.783053
vt 0.544638 0.783053
vt 0.544638 0.783053
vt 0.592756 0.783053
vt 0.536103 0.801116
vt 0.528515 0.912447
vt 0.528515 0.943697
vt 0.597889 0.943697
vt 0.597889 0.943697
vt 0.528515 0.943697
vt 0.597889 0.912447
vt 0.597889 0.912447
vt 0.587296 0.801116
vt 0.587296 0.801116
vt 0.536103 0.801116
vt 0.528515 0.912447
vn 0.0000 -1.0000 -0.0000
vn 0.0004 -0.0000 1.0000
vn -0.0000 1.0000 0.0000
vn 1.0000 0.0000 0.0000
vn 0.0000 -0.0000 1.0000
vn 1.0000 0.0000 0.0004
usemtl tiny_treats_1
s 1
f 11/1/1 7/2/1 3/3/1 1/4/1
f 4/5/2 3/6/2 5/7/2 6/8/2
f 8/9/3 12/10/3 2/11/3 4/12/3
f 7/13/1 9/14/1 5/15/1 3/16/1
f 6/8/4 5/7/4 9/17/4 10/18/4
f 10/19/3 8/20/3 4/21/3 6/22/3
f 2/23/5 12/24/5 11/25/5 1/26/5
f 2/23/6 1/26/6 3/27/6 4/28/6
