# Blender v3.4.1 OBJ File: 'Tiny_Treats_Charming_Kitchen_1.1_ASSETS_EXPORT.blend'
# www.blender.org
mtllib wall_modular_plain_kitchen_window_full_center_A.mtl
o wall_modular_plain_kitchen_window_full_center_A
v -1.000000 -0.000000 0.200807
v -1.000000 4.000000 0.200806
v 1.000000 0.000000 0.200806
v 1.000000 4.000000 0.200806
v -1.000000 3.500000 0.200806
v 1.000000 3.500000 0.200806
v -1.000000 0.500000 0.200806
v 1.000000 0.500000 0.200806
v 1.000000 4.000000 0.250806
v -1.000000 4.000000 0.250806
v -1.000000 3.500000 0.250806
v 1.000000 3.500000 0.250806
v 1.000000 0.000000 0.000000
v -1.000000 0.500000 0.000000
v 1.000000 0.500000 0.000000
v -1.000000 -0.000000 0.000000
v -1.000000 3.500000 0.000000
v 1.000000 3.500000 0.000000
v -1.000000 4.000000 0.000000
v 1.000000 4.000000 0.000000
vt 0.543969 0.811706
vt 0.543969 0.834006
vt 0.577006 0.834006
vt 0.577006 0.811706
vt 0.577006 0.873101
vt 0.577006 0.873101
vt 0.543969 0.873101
vt 0.543969 0.873101
vt 0.550768 0.778090
vt 0.550768 0.778090
vt 0.583098 0.778090
vt 0.583098 0.778090
vt 0.528515 0.912447
vt 0.597889 0.912447
vt 0.588870 0.877760
vt 0.537533 0.877760
vt 0.537533 0.846510
vt 0.537533 0.846510
vt 0.588870 0.846510
vt 0.588870 0.846510
vt 0.597889 0.943697
vt 0.597889 0.943697
vt 0.528515 0.943697
vt 0.528515 0.943697
vt 0.528515 0.943697
vt 0.537533 0.846510
vt 0.588870 0.846510
vt 0.597889 0.943697
vt 0.580052 0.794898
vt 0.547369 0.794898
vn 0.0000 0.0000 1.0000
vn 0.0000 1.0000 0.0000
vn 0.0000 -1.0000 -0.0000
vn 1.0000 0.0000 0.0000
vn -1.0000 -0.0000 0.0000
usemtl tiny_treats_1
s 1
f 3/1/1 8/2/1 7/3/1 1/4/1
f 14/5/2 7/6/2 8/7/2 15/8/2
f 13/9/3 3/10/3 1/11/3 16/12/3
f 9/13/1 10/14/1 11/15/1 12/16/1
f 6/17/3 12/18/3 11/19/3 5/20/3
f 2/21/2 10/22/2 9/23/2 4/24/2
f 20/25/4 4/24/4 6/17/4 18/26/4
f 6/17/4 4/24/4 9/23/4 12/16/4
f 17/27/3 18/26/3 6/17/3 5/20/3
f 19/28/2 2/21/2 4/24/2 20/25/2
f 10/22/5 2/21/5 5/20/5 11/19/5
f 19/28/5 17/27/5 5/20/5 2/21/5
f 7/6/5 14/5/5 16/29/5 1/11/5
f 8/7/4 3/10/4 13/30/4 15/8/4
