# Blender v3.4.1 OBJ File: 'Tiny_Treats_Charming_Kitchen_1.1_ASSETS_EXPORT.blend'
# www.blender.org
mtllib wall_modular_tiles_kitchen_window_full_center_A.mtl
o wall_modular_tiles_kitchen_window_full_center_A
v -1.000000 -0.000000 0.200807
v -1.000000 4.000000 0.200806
v 1.000000 0.000000 0.200806
v 1.000000 4.000000 0.200806
v -1.000000 3.500000 0.200806
v 1.000000 3.500000 0.200806
v -1.000000 0.500000 0.200806
v 1.000000 0.500000 0.200806
v 1.000000 4.000000 0.250806
v -1.000000 4.000000 0.250806
v -1.000000 3.500000 0.250806
v 1.000000 3.500000 0.250806
v 1.000000 0.600000 0.200696
v 1.000000 0.000000 0.200696
v 1.000000 0.236283 0.249419
v 1.000000 0.063717 0.249419
v -0.750000 0.300000 0.200696
v -0.686283 0.236283 0.249419
v -0.750000 0.000000 0.200696
v -0.686283 0.063717 0.249419
v -0.250000 0.300000 0.200696
v -0.313717 0.236283 0.249419
v -1.000000 0.600000 0.200696
v -0.063717 0.536283 0.249419
v -0.063717 0.363717 0.249419
v 0.000000 0.300000 0.200696
v 0.000000 0.600000 0.200696
v 0.063717 0.536283 0.249419
v 0.063717 0.363717 0.249419
v 0.436283 0.536283 0.249419
v 0.436283 0.363717 0.249419
v 0.500000 0.600000 0.200696
v 0.563717 0.536283 0.249419
v 0.500000 0.300000 0.200696
v 0.563717 0.363717 0.249419
v 0.936283 0.536283 0.249419
v 0.936283 0.363717 0.249419
v 1.000000 0.300000 0.200696
v -0.436283 0.363717 0.249419
v -0.436283 0.536283 0.249419
v -0.500000 0.300000 0.200696
v -0.563717 0.363717 0.249419
v -0.563717 0.536283 0.249419
v -0.500000 0.600000 0.200696
v -0.936283 0.363717 0.249419
v -1.000000 0.300000 0.200696
v -0.936283 0.536283 0.249419
v -0.813717 0.236283 0.249419
v -0.813717 0.063717 0.249419
v -1.000000 0.063717 0.249419
v -1.000000 0.236283 0.249419
v 0.186283 0.236283 0.249419
v 0.186283 0.063717 0.249419
v 0.250000 0.000000 0.200696
v 0.250000 0.300000 0.200696
v 0.313717 0.236283 0.249419
v 0.313717 0.063717 0.249419
v 0.686283 0.236283 0.249419
v 0.686283 0.063717 0.249419
v 0.750000 0.300000 0.200696
v 0.813717 0.236283 0.249419
v 0.750000 0.000000 0.200696
v 0.813717 0.063717 0.249419
v -0.186283 0.063717 0.249419
v -0.186283 0.236283 0.249419
v -0.250000 0.000000 0.200696
v -0.313717 0.063717 0.249419
v -1.000000 0.000000 0.200696
v 1.000000 0.500000 0.000000
v 1.000000 0.000000 0.000000
v -1.000000 0.500000 0.000000
v -1.000000 -0.000000 0.000000
v 1.000000 4.000000 0.000000
v -1.000000 3.500000 0.000000
v 1.000000 3.500000 0.000000
v -1.000000 4.000000 0.000000
vt 0.828125 0.359375
vt 0.828125 0.359375
vt 0.828125 0.359375
vt 0.828125 0.359375
vt 0.828125 0.359375
vt 0.828125 0.359375
vt 0.828125 0.359375
vt 0.828125 0.359375
vt 0.828125 0.359375
vt 0.828125 0.359375
vt 0.597889 0.943697
vt 0.597889 0.943697
vt 0.528515 0.943697
vt 0.528515 0.943697
vt 0.793969 0.374206
vt 0.793969 0.396506
vt 0.827006 0.396506
vt 0.827006 0.374206
vt 0.528515 0.912447
vt 0.597889 0.912447
vt 0.588870 0.877760
vt 0.537533 0.877760
vt 0.537533 0.846510
vt 0.537533 0.846510
vt 0.588870 0.846510
vt 0.588870 0.846510
vt 0.597889 0.943697
vt 0.528515 0.943697
vt 0.789483 0.315502
vt 0.795487 0.321505
vt 0.830593 0.321505
vt 0.836596 0.315502
vt 0.830593 0.355258
vt 0.795487 0.355258
vt 0.795487 0.390364
vt 0.830593 0.390364
vt 0.830593 0.379113
vt 0.836596 0.385117
vt 0.836596 0.338004
vt 0.830593 0.344007
vt 0.813040 0.355258
vt 0.795487 0.355258
vt 0.795487 0.390364
vt 0.813040 0.390364
vt 0.795487 0.332756
vt 0.789483 0.326753
vt 0.789483 0.373866
vt 0.795487 0.367862
vt 0.836596 0.418870
vt 0.830593 0.412866
vt 0.795487 0.412866
vt 0.789483 0.418870
vt 0.789483 0.315502
vt 0.795487 0.321505
vt 0.813040 0.321505
vt 0.813040 0.315502
vt 0.795487 0.332756
vt 0.789483 0.326753
vt 0.789483 0.373866
vt 0.795487 0.367862
vt 0.830593 0.355258
vt 0.795487 0.355258
vt 0.795487 0.390364
vt 0.830593 0.390364
vt 0.813040 0.418870
vt 0.813040 0.412866
vt 0.795487 0.412866
vt 0.789483 0.418870
vt 0.813040 0.315502
vt 0.813040 0.321505
vt 0.830593 0.321505
vt 0.836596 0.315502
vt 0.836596 0.418870
vt 0.830593 0.412866
vt 0.795487 0.412866
vt 0.789483 0.418870
vt 0.836596 0.418870
vt 0.830593 0.412866
vt 0.795487 0.412866
vt 0.789483 0.418870
vt 0.830593 0.355258
vt 0.795487 0.355258
vt 0.795487 0.390364
vt 0.830593 0.390364
vt 0.789483 0.315502
vt 0.795487 0.321505
vt 0.830593 0.321505
vt 0.836596 0.315502
vt 0.836596 0.418870
vt 0.830593 0.412866
vt 0.795487 0.412866
vt 0.789483 0.418870
vt 0.836596 0.418870
vt 0.830593 0.412866
vt 0.795487 0.412866
vt 0.789483 0.418870
vt 0.830593 0.355258
vt 0.795487 0.355258
vt 0.795487 0.390364
vt 0.830593 0.390364
vt 0.830593 0.379113
vt 0.836596 0.385117
vt 0.836596 0.338004
vt 0.830593 0.344007
vt 0.795487 0.332756
vt 0.789483 0.326753
vt 0.789483 0.373866
vt 0.795487 0.367862
vt 0.795487 0.332756
vt 0.789483 0.326753
vt 0.789483 0.373866
vt 0.795487 0.367862
vt 0.830593 0.355258
vt 0.795487 0.355258
vt 0.795487 0.390364
vt 0.830593 0.390364
vt 0.836596 0.418870
vt 0.830593 0.412866
vt 0.795487 0.412866
vt 0.789483 0.418870
vt 0.789483 0.315502
vt 0.795487 0.321505
vt 0.830593 0.321505
vt 0.836596 0.315502
vt 0.795487 0.332756
vt 0.789483 0.326753
vt 0.789483 0.373866
vt 0.795487 0.367862
vt 0.789483 0.315502
vt 0.795487 0.321505
vt 0.830593 0.321505
vt 0.836596 0.315502
vt 0.830593 0.379113
vt 0.836596 0.385117
vt 0.836596 0.338004
vt 0.830593 0.344007
vt 0.836596 0.418870
vt 0.830593 0.412866
vt 0.795487 0.412866
vt 0.789483 0.418870
vt 0.795487 0.332756
vt 0.789483 0.326753
vt 0.789483 0.373866
vt 0.795487 0.367862
vt 0.789483 0.315502
vt 0.795487 0.321505
vt 0.830593 0.321505
vt 0.836596 0.315502
vt 0.830593 0.379113
vt 0.836596 0.385117
vt 0.836596 0.338004
vt 0.830593 0.344007
vt 0.830593 0.355258
vt 0.795487 0.355258
vt 0.795487 0.390364
vt 0.830593 0.390364
vt 0.830593 0.355258
vt 0.795487 0.355258
vt 0.795487 0.390364
vt 0.830593 0.390364
vt 0.830593 0.379113
vt 0.836596 0.385117
vt 0.836596 0.338004
vt 0.830593 0.344007
vt 0.789483 0.315502
vt 0.795487 0.321505
vt 0.830593 0.321505
vt 0.836596 0.315502
vt 0.836596 0.418870
vt 0.830593 0.412866
vt 0.813040 0.412866
vt 0.813040 0.418870
vt 0.830593 0.355258
vt 0.813040 0.355258
vt 0.813040 0.390364
vt 0.830593 0.390364
vt 0.830593 0.379113
vt 0.836596 0.385117
vt 0.836596 0.338004
vt 0.830593 0.344007
vt 0.830593 0.379113
vt 0.836596 0.385117
vt 0.836596 0.338004
vt 0.830593 0.344007
vt 0.789483 0.315502
vt 0.795487 0.321505
vt 0.830593 0.321505
vt 0.836596 0.315502
vt 0.795487 0.332756
vt 0.789483 0.326753
vt 0.789483 0.373866
vt 0.795487 0.367862
vt 0.795487 0.332756
vt 0.789483 0.326753
vt 0.789483 0.373866
vt 0.795487 0.367862
vt 0.830593 0.379113
vt 0.836596 0.385117
vt 0.836596 0.338004
vt 0.830593 0.344007
vt 0.795462 0.376522
vt 0.795462 0.326600
vt 0.795462 0.329499
vt 0.795462 0.362755
vt 0.795462 0.373622
vt 0.795462 0.329499
vt 0.795462 0.326600
vt 0.795462 0.376522
vt 0.793969 0.372559
vt 0.827006 0.372559
vt 0.827006 0.372559
vt 0.793969 0.372559
vt 0.800768 0.340590
vt 0.800768 0.340590
vt 0.833098 0.340590
vt 0.833098 0.340590
vt 0.588870 0.846510
vt 0.537533 0.846510
vt 0.797369 0.336457
vt 0.830052 0.336457
vn 0.0000 0.0000 -1.0000
vn 0.0000 1.0000 -0.0000
vn 0.0000 0.0000 1.0000
vn 0.0000 -1.0000 -0.0000
vn 0.0000 -0.6074 0.7944
vn 0.2484 -0.2484 0.9363
vn -0.2484 -0.2484 0.9363
vn 0.2484 0.2484 0.9363
vn -0.2484 0.2484 0.9363
vn -0.6074 0.0000 0.7944
vn 0.0000 -0.3207 0.9472
vn 0.0000 0.3207 0.9472
vn 0.6074 0.0000 0.7944
vn 0.0000 0.6074 0.7944
vn -1.0000 0.0000 0.0000
vn 1.0000 0.0000 -0.0000
usemtl tiny_treats_1
s off
f 23/1/1 44/2/1 41/3/1 46/4/1
f 44/2/1 27/5/1 26/6/1 41/3/1
f 27/5/1 32/7/1 34/8/1 26/6/1
f 34/8/1 32/7/1 13/9/1 38/10/1
s 1
f 76/11/2 2/12/2 4/13/2 73/14/2
f 3/15/3 8/16/3 7/17/3 1/18/3
f 9/19/3 10/20/3 11/21/3 12/22/3
f 6/23/4 12/24/4 11/25/4 5/26/4
f 2/12/2 10/27/2 9/28/2 4/13/2
f 62/29/5 59/30/6 57/31/7 54/32/5
f 64/33/7 53/34/6 52/35/8 65/36/9
f 18/37/9 17/38/10 19/39/10 20/40/7
f 50/41/11 49/42/6 48/43/8 51/44/12
f 67/45/6 66/46/13 21/47/13 22/48/8
f 21/49/14 65/50/9 52/51/8 55/52/14
f 19/53/5 49/54/6 50/55/11 68/56/5
f 49/57/6 19/58/13 17/59/13 48/60/8
f 57/61/7 59/62/6 58/63/8 56/64/9
f 46/65/14 51/66/12 48/67/8 17/68/14
f 14/69/5 16/70/11 63/71/7 62/72/5
f 55/73/14 56/74/9 58/75/8 60/76/14
f 17/77/14 18/78/9 22/79/8 21/80/14
f 20/81/7 67/82/6 22/83/8 18/84/9
f 34/85/5 31/86/6 29/87/7 26/88/5
f 23/89/14 47/90/9 43/91/8 44/92/14
f 27/93/14 28/94/9 30/95/8 32/96/14
f 45/97/7 42/98/6 43/99/8 47/100/9
f 47/101/9 23/102/10 46/103/10 45/104/7
f 37/105/6 38/106/13 13/107/13 36/108/8
f 25/109/6 26/110/13 27/111/13 24/112/8
f 39/113/7 25/114/6 24/115/8 40/116/9
f 44/117/14 40/118/9 24/119/8 27/120/14
f 41/121/5 42/122/6 45/123/7 46/124/5
f 42/125/6 41/126/13 44/127/13 43/128/8
f 38/129/5 37/130/6 35/131/7 34/132/5
f 33/133/9 32/134/10 34/135/10 35/136/7
f 32/137/14 33/138/9 36/139/8 13/140/14
f 31/141/6 34/142/13 32/143/13 30/144/8
f 26/145/5 25/146/6 39/147/7 41/148/5
f 40/149/9 44/150/10 41/151/10 39/152/7
f 35/153/7 37/154/6 36/155/8 33/156/9
f 29/157/7 31/158/6 30/159/8 28/160/9
f 28/161/9 27/162/10 26/163/10 29/164/7
f 54/165/5 53/166/6 64/167/7 66/168/5
f 60/169/14 61/170/9 15/171/12 38/172/14
f 63/173/7 16/174/11 15/175/12 61/176/9
f 56/177/9 55/178/10 54/179/10 57/180/7
f 65/181/9 21/182/10 66/183/10 64/184/7
f 66/185/5 67/186/6 20/187/7 19/188/5
f 53/189/6 54/190/13 55/191/13 52/192/8
f 59/193/6 62/194/13 60/195/13 58/196/8
f 61/197/9 60/198/10 62/199/10 63/200/7
f 46/201/15 68/202/15 50/203/15 51/204/15
f 15/205/16 16/206/16 14/207/16 38/208/16
f 69/209/2 71/210/2 7/211/2 8/212/2
f 70/213/4 3/214/4 1/215/4 72/216/4
f 76/11/15 74/217/15 5/26/15 2/12/15
f 74/217/4 75/218/4 6/23/4 5/26/4
f 73/14/16 4/13/16 6/23/16 75/218/16
f 6/23/16 4/13/16 9/28/16 12/22/16
f 10/27/15 2/12/15 5/26/15 11/25/15
f 8/212/16 3/214/16 70/219/16 69/209/16
f 7/211/15 71/210/15 72/220/15 1/215/15
