# Blender v3.4.1 OBJ File: 'Tiny_Treats_Charming_Kitchen_1.1_ASSETS_EXPORT.blend'
# www.blender.org
mtllib wall_plain_kitchen_window_full_right.mtl
o wall_plain_kitchen_window_full_right
v -1.000000 -0.000000 0.200807
v -1.000000 4.000000 0.200806
v 1.000000 0.000000 0.200806
v 1.000000 4.000000 0.200806
v -1.000000 3.500000 0.200806
v 0.750000 3.500000 0.200806
v -1.000000 0.500000 0.200806
v 0.750000 0.500000 0.200806
v 0.750000 2.100000 0.200806
v 1.000000 2.100000 0.200806
v 1.000000 4.000000 0.250806
v -1.000000 4.000000 0.250806
v -1.000000 3.500000 0.250806
v 0.750000 3.500000 0.250806
v 0.750000 2.160000 0.250806
v 1.000000 2.160000 0.250806
v -1.000000 0.000000 -0.249194
v -1.000000 4.000000 -0.249194
v 1.000000 4.000000 -0.249194
v 1.000000 0.000000 -0.249194
v -1.000000 3.500000 -0.249194
v 0.750000 3.500000 -0.249194
v -1.000000 0.500000 -0.249194
v 0.750000 0.500000 -0.249194
v 0.750000 2.100000 -0.249194
v 1.000000 2.100000 -0.249194
v 0.800000 0.475000 0.250806
v 0.800000 0.525000 0.300806
v 0.850000 0.525000 0.250806
v 0.800000 0.675000 0.300806
v 0.800000 0.725000 0.250806
v 0.850000 0.675000 0.250806
v 0.800000 0.475000 -0.249194
v 0.850000 0.525000 -0.249194
v 0.800000 0.525000 -0.299194
v 0.800000 0.725000 -0.249194
v 0.800000 0.675000 -0.299194
v 0.850000 0.675000 -0.249194
v -1.000000 0.475000 0.250806
v -1.000000 0.525000 0.300806
v -1.000000 0.725000 0.250806
v -1.000000 0.675000 0.300806
v -1.000000 0.475000 -0.249194
v -1.000000 0.525000 -0.299194
v -1.000000 0.725000 -0.249194
v -1.000000 0.675000 -0.299194
v 0.750000 0.699999 0.150806
v -1.000000 3.500000 0.150806
v 0.750000 3.500000 0.150806
v 0.540000 0.699999 0.150806
v -1.000000 3.300000 0.150806
v 0.540000 3.300000 0.150806
v 0.750000 0.699999 -0.149194
v -1.000000 3.500000 -0.149194
v 0.750000 3.500000 -0.149194
v 0.540000 0.699999 -0.149194
v -1.000000 3.300000 -0.149194
v 0.540000 3.300000 -0.149194
v 0.620000 0.690320 0.070806
v 0.620000 0.720320 0.100806
v 0.620000 0.860319 0.100806
v 0.620000 0.890320 0.070806
v 0.620000 0.690320 -0.069194
v 0.620000 0.720320 -0.099194
v 0.620000 0.890320 -0.069194
v 0.620000 0.860319 -0.099194
v -1.000000 0.690320 0.070806
v -1.000000 0.720320 0.100806
v -1.000000 0.890320 0.070806
v -1.000000 0.860319 0.100806
v -1.000000 0.690320 -0.069194
v -1.000000 0.720320 -0.099194
v -1.000000 0.890320 -0.069194
v -1.000000 0.860319 -0.099194
v 0.540000 2.000320 0.030806
v 0.540000 2.030319 0.060806
v 0.540000 2.170319 0.060806
v 0.540000 2.200320 0.030806
v 0.540000 2.000320 -0.029194
v 0.540000 2.030319 -0.059194
v 0.540000 2.200320 -0.029194
v 0.540000 2.170319 -0.059194
v -1.000000 2.000320 0.030806
v -1.000000 2.030319 0.060806
v -1.000000 2.200320 0.030806
v -1.000000 2.170319 0.060806
v -1.000000 2.000320 -0.029194
v -1.000000 2.030319 -0.059194
v -1.000000 2.200320 -0.029194
v -1.000000 2.170319 -0.059194
v 0.100000 3.320319 0.030806
v 0.070000 3.320319 0.060806
v -0.070000 3.320319 0.060806
v -0.100000 3.320319 0.030806
v 0.100000 3.320319 -0.029194
v 0.070000 3.320319 -0.059194
v -0.100000 3.320319 -0.029194
v -0.070000 3.320319 -0.059194
v 0.100000 0.880319 0.030806
v 0.070000 0.880319 0.060806
v -0.100000 0.880319 0.030806
v -0.070000 0.880319 0.060806
v 0.100000 0.880319 -0.029194
v 0.070000 0.880319 -0.059194
v -0.100000 0.880319 -0.029194
v -0.070000 0.880319 -0.059194
v -0.100000 2.000320 -0.029194
v 0.100000 2.000320 -0.029194
v -0.070000 2.030319 -0.059194
v 0.100000 2.200320 -0.029194
v -0.100000 2.200320 -0.029194
v -0.070000 2.170319 -0.059194
v 0.100000 2.000320 0.030806
v -0.100000 2.000320 0.030806
v -0.070000 2.030319 0.060806
v 0.070000 2.030319 0.060806
v -0.100000 2.200320 0.030806
v 0.070000 2.170319 -0.059194
v 0.070000 2.030319 -0.059194
v 0.100000 2.200319 0.030806
v 0.070000 2.170319 0.060806
v -0.070000 2.170319 0.060806
v 0.550000 2.000000 -0.050001
v 0.550000 0.700000 -0.050001
v -1.000000 0.700000 -0.050001
v -1.000000 2.000000 -0.050001
v 0.550000 2.000000 -0.000001
v -1.000000 2.000000 -0.000001
v 0.550000 0.700000 -0.000001
v -1.000000 0.700000 -0.000001
v -1.000000 2.000000 -0.000001
v 0.550000 2.000000 -0.000001
v -1.000000 3.300000 -0.000001
v 0.550000 3.300000 -0.000001
v -1.000000 3.300000 -0.050001
v -1.000000 2.000000 -0.050001
v 0.550000 2.000000 -0.050001
v 0.550000 3.300000 -0.050001
vt 0.528515 0.912447
vt 0.528515 0.846542
vt 0.528515 0.846542
vt 0.528515 0.912447
vt 0.543969 0.811706
vt 0.543969 0.834006
vt 0.577006 0.834006
vt 0.577006 0.811706
vt 0.538165 0.858828
vt 0.543969 0.858828
vt 0.538165 0.850800
vt 0.538165 0.897923
vt 0.538165 0.897923
vt 0.538165 0.850800
vt 0.577006 0.873101
vt 0.577006 0.873101
vt 0.543969 0.873101
vt 0.543969 0.873101
vt 0.550768 0.778090
vt 0.550768 0.778090
vt 0.583098 0.778090
vt 0.583098 0.778090
vt 0.528515 0.912447
vt 0.528515 0.848623
vt 0.537533 0.846542
vt 0.537533 0.848623
vt 0.537533 0.877760
vt 0.537533 0.877760
vt 0.597889 0.912447
vt 0.588870 0.877760
vt 0.528515 0.815292
vt 0.528515 0.817373
vt 0.537533 0.817373
vt 0.537533 0.815292
vt 0.537533 0.846510
vt 0.537533 0.846510
vt 0.588870 0.846510
vt 0.588870 0.846510
vt 0.597889 0.943697
vt 0.597889 0.943697
vt 0.528515 0.943697
vt 0.528515 0.943697
vt 0.543969 0.858828
vt 0.543969 0.834006
vt 0.537533 0.846542
vt 0.537533 0.877760
vt 0.597889 0.912447
vt 0.588870 0.877760
vt 0.577006 0.811706
vt 0.577006 0.834006
vt 0.543969 0.811706
vt 0.538165 0.811706
vt 0.538165 0.858828
vt 0.588870 0.846510
vt 0.537533 0.846510
vt 0.597889 0.943697
vt 0.528515 0.943697
vt 0.482823 0.877541
vt 0.392177 0.877541
vt 0.392177 0.892785
vt 0.482823 0.892785
vt 0.482823 0.929116
vt 0.482823 0.929116
vt 0.392177 0.929116
vt 0.392177 0.929116
vt 0.388940 0.877541
vt 0.388940 0.877541
vt 0.388940 0.892785
vt 0.388940 0.892785
vt 0.392177 0.877541
vt 0.482823 0.877541
vt 0.482823 0.892785
vt 0.392177 0.892785
vt 0.392177 0.856834
vt 0.388940 0.861916
vt 0.392177 0.861916
vt 0.392177 0.939660
vt 0.388940 0.939660
vt 0.392177 0.944741
vt 0.392177 0.856834
vt 0.392177 0.861916
vt 0.388940 0.861916
vt 0.392177 0.944741
vt 0.388940 0.939660
vt 0.392177 0.939660
vt 0.392177 0.893166
vt 0.388940 0.893166
vt 0.388940 0.908410
vt 0.392177 0.908410
vt 0.392177 0.908410
vt 0.388940 0.908410
vt 0.388940 0.893166
vt 0.392177 0.893166
vt 0.482823 0.856834
vt 0.482823 0.861916
vt 0.482823 0.939660
vt 0.482823 0.944741
vt 0.482823 0.841209
vt 0.482823 0.939660
vt 0.482823 0.861916
vt 0.482823 0.856834
vt 0.482823 0.944741
vt 0.392177 0.841209
vt 0.392177 0.841209
vt 0.482823 0.841209
vt 0.411345 0.937821
vt 0.416576 0.932595
vt 0.416576 0.890788
vt 0.411345 0.885562
vt 0.463655 0.937821
vt 0.458424 0.932595
vt 0.411345 0.937821
vt 0.411345 0.885562
vt 0.416576 0.890788
vt 0.416576 0.932595
vt 0.458424 0.932595
vt 0.463655 0.937821
vt 0.416576 0.901345
vt 0.416576 0.859538
vt 0.416576 0.859538
vt 0.416576 0.901345
vt 0.458424 0.901345
vt 0.458424 0.901345
vt 0.484964 0.867836
vt 0.390036 0.867836
vt 0.390036 0.885395
vt 0.484964 0.885395
vt 0.484964 0.920408
vt 0.484964 0.920408
vt 0.390036 0.920408
vt 0.390036 0.920408
vt 0.390036 0.867836
vt 0.484964 0.867836
vt 0.484964 0.885395
vt 0.390036 0.885395
vt 0.484964 0.848448
vt 0.484964 0.852211
vt 0.390036 0.852211
vt 0.390036 0.848448
vt 0.390036 0.936033
vt 0.390036 0.932270
vt 0.484964 0.932270
vt 0.484964 0.936033
vt 0.390036 0.848449
vt 0.390036 0.852211
vt 0.484964 0.852211
vt 0.484964 0.848449
vt 0.484964 0.936033
vt 0.484964 0.932270
vt 0.390036 0.932270
vt 0.390036 0.936033
vt 0.390036 0.832823
vt 0.390036 0.832824
vt 0.484964 0.832824
vt 0.484964 0.832823
vt 0.421679 0.867836
vt 0.390036 0.867836
vt 0.390036 0.885395
vt 0.421679 0.885395
vt 0.421679 0.920408
vt 0.421679 0.920408
vt 0.390036 0.920408
vt 0.390036 0.920408
vt 0.453321 0.867836
vt 0.484964 0.867836
vt 0.484964 0.885395
vt 0.453321 0.885395
vt 0.421679 0.848448
vt 0.421679 0.852211
vt 0.390036 0.852211
vt 0.390036 0.848448
vt 0.453321 0.936033
vt 0.453321 0.932270
vt 0.484964 0.932270
vt 0.484964 0.936033
vt 0.453321 0.848449
vt 0.453321 0.852211
vt 0.484964 0.852211
vt 0.484964 0.848449
vt 0.421679 0.936033
vt 0.421679 0.932270
vt 0.390036 0.932270
vt 0.390036 0.936033
vt 0.453321 0.832823
vt 0.453321 0.832824
vt 0.484964 0.832824
vt 0.484964 0.832823
vt 0.421679 0.867836
vt 0.390036 0.867836
vt 0.390036 0.885395
vt 0.421679 0.885395
vt 0.421679 0.920408
vt 0.421679 0.920408
vt 0.390036 0.920408
vt 0.390036 0.920408
vt 0.453321 0.867836
vt 0.484964 0.867836
vt 0.484964 0.885395
vt 0.453321 0.885395
vt 0.421679 0.848448
vt 0.421679 0.852211
vt 0.390036 0.852211
vt 0.390036 0.848448
vt 0.453321 0.936033
vt 0.453321 0.932270
vt 0.484964 0.932270
vt 0.484964 0.936033
vt 0.453321 0.848449
vt 0.453321 0.852211
vt 0.484964 0.852211
vt 0.484964 0.848449
vt 0.421679 0.936033
vt 0.421679 0.932270
vt 0.390036 0.932270
vt 0.390036 0.936033
vt 0.453321 0.832823
vt 0.453321 0.832824
vt 0.484964 0.832824
vt 0.484964 0.832823
vt 0.390036 0.832823
vt 0.390036 0.832824
vt 0.421679 0.832824
vt 0.421679 0.832823
vt 0.484964 0.936033
vt 0.484964 0.932270
vt 0.453321 0.932270
vt 0.453321 0.936033
vt 0.390036 0.848449
vt 0.390036 0.852211
vt 0.421679 0.852211
vt 0.421679 0.848448
vt 0.390036 0.936033
vt 0.390036 0.932270
vt 0.421679 0.932270
vt 0.421679 0.936033
vt 0.484964 0.848448
vt 0.484964 0.852211
vt 0.453321 0.852211
vt 0.453321 0.848448
vt 0.390036 0.867836
vt 0.421679 0.867836
vt 0.421679 0.885395
vt 0.390036 0.885395
vt 0.484964 0.920408
vt 0.484964 0.920408
vt 0.453321 0.920408
vt 0.453321 0.920408
vt 0.484964 0.867836
vt 0.453321 0.867836
vt 0.453321 0.885395
vt 0.484964 0.885395
vt 0.390036 0.832823
vt 0.390036 0.832824
vt 0.421679 0.832824
vt 0.421679 0.832823
vt 0.484964 0.936033
vt 0.484964 0.932270
vt 0.453321 0.932270
vt 0.453321 0.936033
vt 0.390036 0.848449
vt 0.390036 0.852211
vt 0.421679 0.852211
vt 0.421679 0.848448
vt 0.390036 0.936033
vt 0.390036 0.932270
vt 0.421679 0.932270
vt 0.421679 0.936033
vt 0.484964 0.848448
vt 0.484964 0.852211
vt 0.453321 0.852211
vt 0.453321 0.848448
vt 0.390036 0.867836
vt 0.421679 0.867836
vt 0.421679 0.885395
vt 0.390036 0.885395
vt 0.484964 0.920408
vt 0.484964 0.920408
vt 0.453321 0.920408
vt 0.453321 0.920408
vt 0.484964 0.867836
vt 0.453321 0.867836
vt 0.453321 0.885395
vt 0.484964 0.885395
vt 0.755000 0.005000
vt 0.755000 0.245000
vt 0.995000 0.245000
vt 0.995000 0.005000
vt 0.755000 0.005000
vt 0.995000 0.005000
vt 0.995000 0.245000
vt 0.755000 0.245000
vt 0.755000 0.005000
vt 0.995000 0.005000
vt 0.995000 0.245000
vt 0.755000 0.245000
vt 0.755000 0.005000
vt 0.755000 0.245000
vt 0.995000 0.245000
vt 0.995000 0.005000
vn 1.0000 0.0000 0.0000
vn 0.0000 0.0000 1.0000
vn 0.0000 -0.3404 0.9403
vn 0.0000 1.0000 0.0000
vn 0.0000 -1.0000 -0.0000
vn -1.0000 0.0000 0.0000
vn 0.0000 -0.6402 0.7682
vn -0.0000 0.0000 -1.0000
vn 0.0000 -0.3827 0.9239
vn 0.3416 -0.3416 0.8756
vn 0.3416 0.3416 0.8756
vn 0.0000 0.3827 0.9239
vn 0.3416 0.8756 0.3416
vn 0.3416 0.8756 -0.3416
vn 0.8756 -0.3416 0.3416
vn 0.8756 -0.3416 -0.3416
vn 0.8756 0.3416 -0.3416
vn 0.8756 0.3416 0.3416
vn 0.3416 -0.3416 -0.8756
vn 0.0000 -0.3827 -0.9239
vn 0.0000 0.3827 -0.9239
vn 0.3416 0.3416 -0.8756
vn 0.3416 -0.8756 0.3416
vn 0.3416 -0.8756 -0.3416
vn 0.0000 -0.7071 -0.7071
vn 0.0000 0.7071 -0.7071
vn 0.0000 -0.7071 0.7071
vn 0.0000 0.7071 0.7071
vn 0.0000 -0.9239 -0.3827
vn 0.0000 -0.9239 0.3827
vn -0.0000 0.8959 0.4444
vn -0.0000 0.9239 0.3827
vn -0.1244 0.0000 -0.9922
vn -0.1100 0.1101 -0.9878
vn 0.0000 -0.8959 -0.4444
vn 0.0000 -0.8959 0.4444
vn -0.3827 -0.0000 0.9239
vn -0.1100 0.1100 0.9878
vn -0.3827 0.0000 -0.9239
vn 0.7071 0.0000 -0.7071
vn -0.7071 0.0000 -0.7071
vn 0.8959 -0.0000 0.4444
vn 0.7071 -0.0000 0.7071
vn 0.9239 -0.0000 0.3827
vn -0.7071 -0.0000 0.7071
vn 0.8959 -0.0000 -0.4444
vn 0.9239 -0.0000 -0.3827
vn 0.0000 0.1244 -0.9922
vn -0.1244 -0.0000 0.9922
usemtl tiny_treats_1
s 1
f 4/1/1 10/2/1 26/3/1 19/4/1
f 3/5/2 8/6/2 7/7/2 1/8/2
f 3/5/2 10/9/3 9/10/3 8/6/2
f 20/11/1 26/12/1 10/13/1 3/14/1
f 23/15/4 7/16/4 8/17/4 24/18/4
f 20/19/5 3/20/5 1/21/5 17/22/5
f 4/1/1 11/23/1 16/24/1 10/2/1
f 9/25/6 15/26/6 14/27/6 6/28/6
f 11/23/2 12/29/2 13/30/2 14/27/2
f 11/23/2 14/27/2 15/26/2 16/24/2
f 10/31/3 16/32/7 15/33/7 9/34/3
f 6/35/5 14/36/5 13/37/5 5/38/5
f 2/39/4 12/40/4 11/41/4 4/42/4
f 8/6/6 9/10/6 25/43/6 24/44/6
f 25/45/6 9/25/6 6/28/6 22/46/6
f 18/47/8 19/4/8 22/46/8 21/48/8
f 19/4/8 26/3/8 25/45/8 22/46/8
f 17/49/8 23/50/8 24/44/8 20/51/8
f 20/52/8 24/44/8 25/43/8 26/53/8
f 21/54/5 22/55/5 6/35/5 5/38/5
f 18/56/4 2/39/4 4/42/4 19/57/4
f 12/40/6 2/39/6 5/38/6 13/37/6
f 18/56/6 21/54/6 5/38/6 2/39/6
f 7/16/6 23/15/6 17/49/6 1/21/6
f 40/58/9 28/59/10 30/60/11 42/61/12
f 45/62/4 41/63/4 31/64/13 36/65/14
f 29/66/15 34/67/16 38/68/17 32/69/18
f 35/70/19 44/71/20 46/72/21 37/73/22
f 27/74/23 29/75/15 28/76/10
f 30/77/11 32/78/18 31/79/13
f 33/80/24 35/81/19 34/82/16
f 36/83/14 38/84/17 37/85/22
f 33/80/24 34/82/16 29/75/15 27/74/23
f 28/86/10 29/87/15 32/88/18 30/89/11
f 31/79/13 32/78/18 38/84/17 36/83/14
f 37/90/22 38/91/17 34/92/16 35/93/19
f 43/94/25 44/95/20 35/81/19 33/80/24
f 36/83/14 37/85/22 46/96/21 45/97/26
f 40/58/6 44/71/6 43/94/6 39/98/6
f 44/71/6 40/58/6 42/61/6 46/96/6
f 41/63/6 45/62/6 46/96/6 42/99/6
f 27/74/23 28/76/10 40/100/9 39/101/27
f 41/102/28 42/99/12 30/77/11 31/79/13
f 33/103/24 27/104/23 39/98/5 43/105/5
f 49/106/2 52/107/2 50/108/2 47/109/2
f 49/106/2 48/110/2 51/111/2 52/107/2
f 55/112/8 53/113/8 56/114/8 58/115/8
f 55/112/8 58/115/8 57/116/8 54/117/8
f 58/118/6 56/119/6 50/120/6 52/121/6
f 48/110/6 54/117/6 57/116/6 51/122/6
f 57/123/5 58/118/5 52/121/5 51/122/5
f 68/124/2 60/125/2 61/126/12 70/127/12
f 73/128/4 69/129/4 62/130/4 65/131/4
f 64/132/8 72/133/8 74/134/21 66/135/21
f 71/136/29 72/137/25 64/138/25 63/139/29
f 65/140/26 66/141/21 74/142/21 73/143/26
f 59/144/30 60/145/27 68/146/27 67/147/30
f 69/148/28 70/149/12 61/150/12 62/151/28
f 63/152/29 59/153/30 67/154/30 71/155/29
f 116/156/2 76/157/2 77/158/2 121/159/2
f 110/160/4 120/161/31 78/162/32 81/163/4
f 109/164/33 88/165/8 90/166/21 112/167/34
f 108/168/35 119/169/25 80/170/25 79/171/29
f 111/172/26 112/173/34 90/174/21 89/175/26
f 114/176/36 115/177/27 84/178/27 83/179/30
f 120/180/31 121/181/28 77/182/28 78/183/32
f 107/184/35 114/185/36 83/186/30 87/187/29
f 121/188/2 92/189/2 93/190/37 122/191/38
f 111/192/6 117/193/6 94/194/6 97/195/6
f 119/196/8 104/197/8 106/198/39 109/199/33
f 110/200/40 118/201/40 96/202/40 95/203/40
f 107/204/41 109/205/33 106/206/39 105/207/41
f 113/208/42 116/209/43 100/210/43 99/211/44
f 117/212/45 122/213/38 93/214/37 94/215/45
f 108/216/46 113/217/42 99/218/44 103/219/47
f 79/220/29 75/221/30 113/222/36 108/223/35
f 85/224/28 86/225/12 122/226/38 117/227/28
f 75/228/30 76/229/27 116/230/27 113/231/36
f 81/232/26 82/233/21 118/234/48 110/235/26
f 87/236/29 88/237/25 109/238/25 107/239/35
f 80/240/8 119/241/8 118/242/48 82/243/21
f 119/241/8 109/164/33 112/167/34 118/242/48
f 89/244/4 85/245/4 117/246/4 111/247/4
f 84/248/2 115/249/49 122/250/38 86/251/12
f 115/249/49 116/156/2 121/159/2 122/250/38
f 95/252/1 91/253/44 120/254/42 110/255/1
f 101/256/45 102/257/37 115/258/49 114/259/45
f 91/260/44 92/261/43 121/262/43 120/263/42
f 97/264/41 98/265/39 112/266/34 111/267/41
f 103/268/47 104/269/40 119/270/40 108/271/46
f 96/272/8 118/273/48 112/274/34 98/275/39
f 105/276/6 101/277/6 114/278/6 107/279/6
f 100/280/2 116/281/2 115/282/49 102/283/37
f 85/245/6 89/244/6 90/174/6 86/225/6
f 88/165/6 84/248/6 86/251/6 90/174/6
f 84/248/6 88/165/6 87/236/6 83/186/6
f 69/129/6 73/128/6 74/142/6 70/149/6
f 72/133/6 68/124/6 70/127/6 74/142/6
f 68/124/6 72/133/6 71/136/6 67/154/6
usemtl tiny_treats_1_GLASS
f 125/284/8 126/285/8 123/286/8 124/287/8
f 130/288/2 129/289/2 127/290/2 128/291/2
f 131/292/2 132/293/2 134/294/2 133/295/2
f 136/296/8 135/297/8 138/298/8 137/299/8
