# Blender v3.4.1 OBJ File: 'Tiny_Treats_Charming_Kitchen_1.1_ASSETS_EXPORT.blend'
# www.blender.org
mtllib wall_modular_plain_kitchen_window_large_B.mtl
o wall_modular_plain_kitchen_window_large_B
v 1.000000 0.000000 -0.249194
v 1.000000 4.000000 -0.249193
v -1.000000 4.000000 -0.249194
v -1.000000 0.000000 -0.249194
v 0.750000 3.500000 -0.249193
v -0.750000 3.500000 -0.249194
v 0.750000 0.500000 -0.249194
v -0.750000 0.500000 -0.249194
v 0.750000 2.100000 -0.249194
v -0.750000 2.100000 -0.249194
v 1.000000 2.100000 -0.249193
v -1.000000 2.100000 -0.249194
v -0.750000 2.100000 0.000000
v -0.750000 0.500000 0.000000
v -0.750000 3.500000 0.000000
v 1.000000 -0.000000 0.000000
v 1.000000 4.000000 0.000001
v -1.000000 -0.000000 -0.000000
v -1.000000 4.000000 0.000000
v 0.750000 3.500000 0.000001
v 0.750000 0.500000 0.000000
v 0.750000 2.100000 0.000001
v -1.000000 2.100000 0.000000
v 1.000000 2.100000 0.000001
vt 0.597889 0.912447
vt 0.597889 0.846542
vt 0.588870 0.846542
vt 0.588870 0.877760
vt 0.537533 0.877760
vt 0.528515 0.912447
vt 0.577006 0.858828
vt 0.577006 0.858828
vt 0.577006 0.834006
vt 0.577006 0.834006
vt 0.543969 0.858828
vt 0.543969 0.834006
vt 0.543969 0.834006
vt 0.543969 0.858828
vt 0.588870 0.877760
vt 0.588870 0.846542
vt 0.537533 0.877760
vt 0.537533 0.846542
vt 0.537533 0.846542
vt 0.528515 0.846542
vt 0.597889 0.912447
vt 0.597889 0.846542
vt 0.582809 0.858828
vt 0.582809 0.811706
vt 0.582809 0.811706
vt 0.582809 0.858828
vt 0.577006 0.811706
vt 0.543969 0.811706
vt 0.528515 0.846542
vt 0.528515 0.912447
vt 0.538165 0.811706
vt 0.538165 0.858828
vt 0.550768 0.778090
vt 0.583098 0.778090
vt 0.583098 0.778090
vt 0.550768 0.778090
vt 0.597889 0.943697
vt 0.528515 0.943697
vt 0.528515 0.943697
vt 0.597889 0.943697
vt 0.588870 0.846510
vt 0.588870 0.846510
vt 0.537533 0.846510
vt 0.537533 0.846510
vt 0.538165 0.897923
vt 0.538165 0.850800
vt 0.538165 0.850800
vt 0.538165 0.897923
vt 0.577006 0.873101
vt 0.543969 0.873101
vt 0.543969 0.873101
vt 0.577006 0.873101
vn 0.0000 0.0000 -1.0000
vn -1.0000 0.0000 0.0000
vn 1.0000 0.0000 0.0000
vn 0.0000 -1.0000 -0.0000
vn 0.0000 1.0000 0.0000
usemtl tiny_treats_1
s 1
f 2/1/1 11/2/1 9/3/1 5/4/1
f 2/1/1 5/4/1 6/5/1 3/6/1
f 22/7/2 9/8/2 7/9/2 21/10/2
f 13/11/3 14/12/3 8/13/3 10/14/3
f 20/15/2 5/4/2 9/3/2 22/16/2
f 15/17/3 13/18/3 10/19/3 6/5/3
f 3/6/1 6/5/1 10/19/1 12/20/1
f 17/21/3 24/22/3 11/2/3 2/1/3
f 24/23/3 16/24/3 1/25/3 11/26/3
f 1/27/1 4/28/1 8/13/1 7/9/1
f 23/29/2 19/30/2 3/6/2 12/20/2
f 4/31/1 12/32/1 10/14/1 8/13/1
f 1/27/1 7/9/1 9/8/1 11/26/1
f 4/33/4 1/34/4 16/35/4 18/36/4
f 2/37/5 3/38/5 19/39/5 17/40/5
f 5/41/4 20/42/4 15/43/4 6/44/4
f 12/45/2 4/46/2 18/47/2 23/48/2
f 7/49/5 8/50/5 14/51/5 21/52/5
