# Blender v3.4.1 OBJ File: 'Tiny_Treats_Charming_Kitchen_1.1_ASSETS_EXPORT.blend'
# www.blender.org
mtllib wall_modular_tiles_kitchen_straight_B.mtl
o wall_modular_tiles_kitchen_straight_B
v 1.000000 0.000000 -0.249420
v 1.000000 4.000000 -0.249420
v -1.000000 0.000000 -0.249419
v -1.000000 4.000000 -0.249418
v -1.000000 2.100000 -0.249418
v 1.000000 2.100000 -0.249420
v -1.000000 -0.000000 0.000000
v 1.000000 2.100000 -0.000000
v -1.000000 4.000000 0.000001
v 1.000000 0.000000 -0.000001
v 1.000000 4.000000 -0.000000
v -1.000000 2.100000 0.000001
vt 0.842756 0.314303
vt 0.794638 0.314303
vt 0.794638 0.314303
vt 0.842756 0.314303
vt 0.837296 0.376583
vt 0.837296 0.332366
vt 0.786103 0.332366
vt 0.786103 0.376583
vt 0.528515 0.943697
vt 0.597889 0.943697
vt 0.597889 0.943697
vt 0.528515 0.943697
vt 0.786103 0.332366
vt 0.786103 0.376583
vt 0.597889 0.912447
vt 0.597889 0.846542
vt 0.528515 0.846542
vt 0.528515 0.912447
vt 0.837296 0.332366
vt 0.837296 0.376583
vt 0.597889 0.912447
vt 0.597889 0.846542
vt 0.528515 0.846542
vt 0.528515 0.912447
vn 0.0000 -1.0000 -0.0000
vn -0.0000 0.0000 -1.0000
vn 0.0000 1.0000 0.0000
vn -1.0000 0.0000 -0.0000
vn 1.0000 0.0000 0.0000
usemtl tiny_treats_1
s 1
f 10/1/1 7/2/1 3/3/1 1/4/1
f 6/5/2 1/6/2 3/7/2 5/8/2
f 9/9/3 11/10/3 2/11/3 4/12/3
f 7/13/4 12/14/4 5/8/4 3/7/4
f 2/15/2 6/16/2 5/17/2 4/18/2
f 10/19/5 1/6/5 6/5/5 8/20/5
f 2/15/5 11/21/5 8/22/5 6/16/5
f 4/18/4 5/17/4 12/23/4 9/24/4
