# Blender v3.4.1 OBJ File: 'Tiny_Treats_Charming_Kitchen_1.1_ASSETS_EXPORT.blend'
# www.blender.org
mtllib wall_modular_tiles_kitchen_half_straight_A.mtl
o wall_modular_tiles_kitchen_half_straight_A
v -0.500000 -0.000000 0.200696
v -0.500000 4.000000 0.200696
v 0.500000 -0.000000 0.200695
v 0.500000 4.000000 0.200696
v -0.500000 2.100000 0.200696
v -0.500000 0.663717 0.249420
v -0.500000 0.836283 0.249420
v -0.500000 0.600000 0.200696
v -0.500000 0.900000 0.200696
v -0.436283 0.963717 0.249420
v -0.436283 1.136283 0.249420
v -0.500000 1.200000 0.200696
v -0.063717 0.963717 0.249420
v -0.000000 0.900000 0.200696
v -0.063717 1.136283 0.249420
v -0.000000 1.200000 0.200696
v 0.063717 0.963717 0.249420
v 0.063717 1.136283 0.249420
v 0.436283 0.963717 0.249420
v 0.436283 1.136283 0.249420
v 0.500000 1.200000 0.200696
v 0.500000 0.900000 0.200696
v -0.500000 0.300000 0.200696
v -0.500000 -0.000000 0.200696
v -0.500000 0.236283 0.249419
v -0.500000 0.063717 0.249419
v 0.313717 0.836283 0.249420
v 0.313717 0.663717 0.249420
v 0.250000 0.600000 0.200696
v 0.250000 0.900000 0.200696
v 0.186283 0.836283 0.249420
v 0.186283 0.663717 0.249420
v -0.186283 0.836283 0.249420
v -0.186283 0.663717 0.249420
v -0.250000 0.900000 0.200696
v -0.313717 0.836283 0.249420
v -0.250000 0.600000 0.200696
v -0.313717 0.663717 0.249420
v -0.500000 4.000000 0.250580
v 0.500000 4.000000 0.250580
v -0.500000 2.160000 0.250580
v 0.500000 2.160000 0.250580
v 0.500000 2.100000 0.200696
v -0.500000 1.500000 0.200696
v -0.436283 1.563717 0.249420
v -0.436283 1.736283 0.249420
v -0.500000 1.800000 0.200696
v -0.063717 1.563717 0.249420
v -0.000000 1.500000 0.200696
v -0.063717 1.736283 0.249420
v -0.000000 1.800000 0.200696
v 0.063717 1.563717 0.249420
v 0.063717 1.736283 0.249420
v 0.436283 1.563717 0.249420
v 0.436283 1.736283 0.249420
v 0.500000 1.800000 0.200696
v 0.500000 1.500000 0.200696
v 0.500000 0.300000 0.200696
v 0.500000 0.600000 0.200696
v 0.436283 0.536283 0.249420
v 0.436283 0.363717 0.249420
v 0.063717 0.536283 0.249420
v 0.063717 0.363717 0.249420
v -0.000000 0.600000 0.200696
v -0.063717 0.536283 0.249420
v -0.000000 0.300000 0.200696
v -0.063717 0.363717 0.249420
v -0.436283 0.536283 0.249420
v -0.436283 0.363717 0.249420
v -0.500000 1.436283 0.249420
v -0.500000 1.263717 0.249420
v -0.313717 1.263717 0.249420
v -0.250000 1.200000 0.200696
v -0.313717 1.436283 0.249420
v -0.250000 1.500000 0.200696
v -0.186283 1.263717 0.249420
v -0.186283 1.436283 0.249420
v 0.186283 1.263717 0.249420
v 0.186283 1.436283 0.249420
v 0.250000 1.500000 0.200696
v 0.250000 1.200000 0.200696
v 0.313717 1.263717 0.249420
v 0.313717 1.436283 0.249420
v 0.313717 2.036283 0.249420
v 0.313717 1.863717 0.249420
v 0.250000 1.800000 0.200696
v 0.250000 2.100000 0.200696
v 0.186283 2.036283 0.249420
v 0.186283 1.863717 0.249420
v -0.186283 2.036283 0.249420
v -0.186283 1.863717 0.249420
v -0.250000 2.100000 0.200696
v -0.313717 2.036283 0.249420
v -0.250000 1.800000 0.200696
v -0.313717 1.863717 0.249420
v -0.500000 1.863717 0.249420
v -0.500000 2.036283 0.249420
v -0.500000 2.100000 0.200696
v 0.313717 0.236283 0.249419
v 0.313717 0.063717 0.249419
v 0.250000 -0.000000 0.200696
v 0.250000 0.300000 0.200696
v 0.186283 0.236283 0.249419
v 0.186283 0.063717 0.249419
v -0.186283 0.236283 0.249419
v -0.186283 0.063717 0.249419
v -0.250000 0.300000 0.200696
v -0.313717 0.236283 0.249419
v -0.250000 -0.000000 0.200696
v -0.313717 0.063717 0.249419
v 0.500000 0.000000 -0.000000
v -0.500000 -0.000000 0.000000
v 0.500000 2.100000 -0.000000
v -0.500000 2.100000 0.000001
v 0.500000 4.000000 -0.000001
v -0.500000 4.000000 0.000001
v 0.500000 1.863717 0.249420
v 0.500000 1.800000 0.200696
v 0.500000 2.036283 0.249420
v 0.500000 2.100000 0.200696
v 0.500000 1.263717 0.249420
v 0.500000 1.436283 0.249420
v 0.500000 1.500000 0.200696
v 0.500000 1.200000 0.200696
v 0.500000 0.836283 0.249420
v 0.500000 0.900000 0.200696
v 0.500000 0.663717 0.249420
v 0.500000 0.600000 0.200696
v 0.500000 0.236283 0.249419
v 0.500000 0.300000 0.200696
v 0.500000 0.063717 0.249419
v 0.500000 -0.000000 0.200696
vt 0.528515 0.912447
vt 0.528515 0.846542
vt 0.528515 0.846542
vt 0.528515 0.912447
vt 0.837296 0.332366
vt 0.837296 0.376583
vt 0.786103 0.376583
vt 0.786103 0.332366
vt 0.597889 0.912447
vt 0.597889 0.912447
vt 0.597889 0.846542
vt 0.597889 0.846542
vt 0.830593 0.355258
vt 0.830593 0.390364
vt 0.795487 0.390364
vt 0.795487 0.355258
vt 0.813040 0.315502
vt 0.836596 0.315502
vt 0.830593 0.321505
vt 0.813040 0.321505
vt 0.813040 0.418870
vt 0.789483 0.418870
vt 0.795487 0.412866
vt 0.813040 0.412866
vt 0.789483 0.315502
vt 0.836596 0.315502
vt 0.830593 0.321505
vt 0.795487 0.321505
vt 0.836596 0.418870
vt 0.789483 0.418870
vt 0.795487 0.412866
vt 0.830593 0.412866
vt 0.813040 0.355258
vt 0.813040 0.390364
vt 0.795487 0.390364
vt 0.795487 0.355258
vt 0.830593 0.379113
vt 0.830593 0.344007
vt 0.836596 0.338004
vt 0.836596 0.385117
vt 0.795487 0.332756
vt 0.795487 0.367862
vt 0.789483 0.373866
vt 0.789483 0.326753
vt 0.836596 0.418870
vt 0.813040 0.418870
vt 0.813040 0.412866
vt 0.830593 0.412866
vt 0.789483 0.315502
vt 0.836596 0.315502
vt 0.830593 0.321505
vt 0.795487 0.321505
vt 0.830593 0.355258
vt 0.830593 0.390364
vt 0.813040 0.390364
vt 0.813040 0.355258
vt 0.836596 0.418870
vt 0.789483 0.418870
vt 0.795487 0.412866
vt 0.830593 0.412866
vt 0.795487 0.332756
vt 0.795487 0.367862
vt 0.789483 0.373866
vt 0.789483 0.326753
vt 0.830593 0.379113
vt 0.830593 0.344007
vt 0.836596 0.338004
vt 0.836596 0.385117
vt 0.830593 0.355258
vt 0.830593 0.390364
vt 0.795487 0.390364
vt 0.795487 0.355258
vt 0.830593 0.355258
vt 0.830593 0.390364
vt 0.795487 0.390364
vt 0.795487 0.355258
vt 0.836596 0.418870
vt 0.789483 0.418870
vt 0.795487 0.412866
vt 0.830593 0.412866
vt 0.789483 0.315502
vt 0.836596 0.315502
vt 0.830593 0.321505
vt 0.795487 0.321505
vt 0.813040 0.355258
vt 0.813040 0.390364
vt 0.795487 0.390364
vt 0.795487 0.355258
vt 0.813040 0.418870
vt 0.789483 0.418870
vt 0.795487 0.412866
vt 0.813040 0.412866
vt 0.789483 0.315502
vt 0.836596 0.315502
vt 0.830593 0.321505
vt 0.795487 0.321505
vt 0.830593 0.355258
vt 0.830593 0.390364
vt 0.795487 0.390364
vt 0.795487 0.355258
vt 0.813040 0.315502
vt 0.836596 0.315502
vt 0.830593 0.321505
vt 0.813040 0.321505
vt 0.836596 0.418870
vt 0.789483 0.418870
vt 0.795487 0.412866
vt 0.830593 0.412866
vt 0.830593 0.379113
vt 0.830593 0.344007
vt 0.836596 0.338004
vt 0.836596 0.385117
vt 0.795487 0.332756
vt 0.795487 0.367862
vt 0.789483 0.373866
vt 0.789483 0.326753
vt 0.795487 0.332756
vt 0.795487 0.367862
vt 0.789483 0.373866
vt 0.789483 0.326753
vt 0.830593 0.379113
vt 0.830593 0.344007
vt 0.836596 0.338004
vt 0.836596 0.385117
vt 0.597889 0.848623
vt 0.597889 0.912447
vt 0.528515 0.912447
vt 0.528515 0.848623
vt 0.597889 0.943697
vt 0.528515 0.943697
vt 0.528515 0.943697
vt 0.597889 0.943697
vt 0.597889 0.817373
vt 0.528515 0.817373
vt 0.528515 0.815292
vt 0.597889 0.815292
vt 0.830593 0.355258
vt 0.830593 0.390364
vt 0.795487 0.390364
vt 0.795487 0.355258
vt 0.795487 0.332756
vt 0.795487 0.367862
vt 0.789483 0.373866
vt 0.789483 0.326753
vt 0.830593 0.379113
vt 0.830593 0.344007
vt 0.836596 0.338004
vt 0.836596 0.385117
vt 0.789483 0.315502
vt 0.836596 0.315502
vt 0.830593 0.321505
vt 0.795487 0.321505
vt 0.836596 0.418870
vt 0.789483 0.418870
vt 0.795487 0.412866
vt 0.830593 0.412866
vt 0.830593 0.355258
vt 0.830593 0.390364
vt 0.795487 0.390364
vt 0.795487 0.355258
vt 0.795487 0.332756
vt 0.795487 0.367862
vt 0.789483 0.373866
vt 0.789483 0.326753
vt 0.830593 0.379113
vt 0.830593 0.344007
vt 0.836596 0.338004
vt 0.836596 0.385117
vt 0.789483 0.315502
vt 0.836596 0.315502
vt 0.830593 0.321505
vt 0.795487 0.321505
vt 0.836596 0.418870
vt 0.789483 0.418870
vt 0.795487 0.412866
vt 0.830593 0.412866
vt 0.789483 0.315502
vt 0.836596 0.315502
vt 0.830593 0.321505
vt 0.795487 0.321505
vt 0.836596 0.418870
vt 0.789483 0.418870
vt 0.795487 0.412866
vt 0.830593 0.412866
vt 0.795487 0.332756
vt 0.795487 0.367862
vt 0.789483 0.373866
vt 0.789483 0.326753
vt 0.789483 0.315502
vt 0.836596 0.315502
vt 0.830593 0.321505
vt 0.795487 0.321505
vt 0.830593 0.379113
vt 0.830593 0.344007
vt 0.836596 0.338004
vt 0.836596 0.385117
vt 0.836596 0.418870
vt 0.789483 0.418870
vt 0.795487 0.412866
vt 0.830593 0.412866
vt 0.795487 0.332756
vt 0.795487 0.367862
vt 0.789483 0.373866
vt 0.789483 0.326753
vt 0.830593 0.355258
vt 0.830593 0.390364
vt 0.795487 0.390364
vt 0.795487 0.355258
vt 0.830593 0.355258
vt 0.830593 0.390364
vt 0.795487 0.390364
vt 0.795487 0.355258
vt 0.830593 0.379113
vt 0.830593 0.344007
vt 0.836596 0.338004
vt 0.836596 0.385117
vt 0.830593 0.355258
vt 0.830593 0.390364
vt 0.795487 0.390364
vt 0.795487 0.355258
vt 0.836596 0.418870
vt 0.789483 0.418870
vt 0.795487 0.412866
vt 0.830593 0.412866
vt 0.789483 0.315502
vt 0.836596 0.315502
vt 0.830593 0.321505
vt 0.795487 0.321505
vt 0.813040 0.355258
vt 0.813040 0.390364
vt 0.795487 0.390364
vt 0.795487 0.355258
vt 0.836596 0.418870
vt 0.813040 0.418870
vt 0.813040 0.412866
vt 0.830593 0.412866
vt 0.830593 0.355258
vt 0.830593 0.390364
vt 0.813040 0.390364
vt 0.813040 0.355258
vt 0.813040 0.418870
vt 0.789483 0.418870
vt 0.795487 0.412866
vt 0.813040 0.412866
vt 0.813040 0.315502
vt 0.836596 0.315502
vt 0.830593 0.321505
vt 0.813040 0.321505
vt 0.830593 0.379113
vt 0.830593 0.344007
vt 0.836596 0.338004
vt 0.836596 0.385117
vt 0.830593 0.379113
vt 0.830593 0.344007
vt 0.836596 0.338004
vt 0.836596 0.385117
vt 0.795487 0.332756
vt 0.795487 0.367862
vt 0.789483 0.373866
vt 0.789483 0.326753
vt 0.795487 0.332756
vt 0.795487 0.367862
vt 0.789483 0.373866
vt 0.789483 0.326753
vt 0.789483 0.315502
vt 0.836596 0.315502
vt 0.830593 0.321505
vt 0.795487 0.321505
vt 0.836596 0.418870
vt 0.789483 0.418870
vt 0.795487 0.412866
vt 0.830593 0.412866
vt 0.795487 0.332756
vt 0.795487 0.367862
vt 0.789483 0.373866
vt 0.789483 0.326753
vt 0.813040 0.355258
vt 0.813040 0.390364
vt 0.795487 0.390364
vt 0.795487 0.355258
vt 0.813040 0.418870
vt 0.789483 0.418870
vt 0.795487 0.412866
vt 0.813040 0.412866
vt 0.813040 0.315502
vt 0.836596 0.315502
vt 0.830593 0.321505
vt 0.813040 0.321505
vt 0.830593 0.379113
vt 0.830593 0.344007
vt 0.836596 0.338004
vt 0.836596 0.385117
vt 0.795487 0.332756
vt 0.795487 0.367862
vt 0.789483 0.373866
vt 0.789483 0.326753
vt 0.830593 0.355258
vt 0.830593 0.390364
vt 0.795487 0.390364
vt 0.795487 0.355258
vt 0.830593 0.379113
vt 0.830593 0.344007
vt 0.836596 0.338004
vt 0.836596 0.385117
vt 0.830593 0.355258
vt 0.830593 0.390364
vt 0.813040 0.390364
vt 0.813040 0.355258
vt 0.836596 0.418870
vt 0.813040 0.418870
vt 0.813040 0.412866
vt 0.830593 0.412866
vt 0.836596 0.418870
vt 0.813040 0.418870
vt 0.813040 0.412866
vt 0.830593 0.412866
vt 0.830593 0.355258
vt 0.830593 0.390364
vt 0.813040 0.390364
vt 0.813040 0.355258
vt 0.830593 0.379113
vt 0.830593 0.344007
vt 0.836596 0.338004
vt 0.836596 0.385117
vt 0.795487 0.332756
vt 0.795487 0.367862
vt 0.789483 0.373866
vt 0.789483 0.326753
vt 0.795487 0.332756
vt 0.795487 0.367862
vt 0.789483 0.373866
vt 0.789483 0.326753
vt 0.830593 0.379113
vt 0.830593 0.344007
vt 0.836596 0.338004
vt 0.836596 0.385117
vt 0.795462 0.329499
vt 0.795462 0.373622
vt 0.795462 0.376522
vt 0.795462 0.326600
vt 0.795462 0.373622
vt 0.795462 0.376522
vt 0.795462 0.326600
vt 0.795462 0.329499
vt 0.795462 0.373622
vt 0.795462 0.376522
vt 0.795462 0.326600
vt 0.795462 0.329499
vt 0.795462 0.373622
vt 0.795462 0.376522
vt 0.795462 0.326600
vt 0.795462 0.329499
vt 0.837296 0.332366
vt 0.837296 0.376583
vt 0.786103 0.376583
vt 0.786103 0.332366
vt 0.597889 0.943697
vt 0.528515 0.943697
vt 0.842756 0.314303
vt 0.794638 0.314303
vt 0.794638 0.314303
vt 0.842756 0.314303
vt 0.789483 0.315502
vt 0.813040 0.315502
vt 0.813040 0.321505
vt 0.795487 0.321505
vt 0.789483 0.315502
vt 0.813040 0.315502
vt 0.813040 0.321505
vt 0.795487 0.321505
vt 0.789483 0.315502
vt 0.813040 0.315502
vt 0.813040 0.321505
vt 0.795487 0.321505
vt 0.813040 0.315502
vt 0.813040 0.321505
vt 0.789483 0.315502
vt 0.795487 0.321505
vn -1.0000 0.0000 -0.0000
vn 0.0000 -0.0000 1.0000
vn 0.0000 -0.3399 0.9405
vn 1.0000 -0.0000 0.0000
vn 0.2484 -0.2484 0.9363
vn 0.2484 0.2484 0.9363
vn -0.2484 0.2484 0.9363
vn -0.2484 -0.2484 0.9363
vn 0.0000 -0.6074 0.7944
vn 0.0000 -0.3207 0.9472
vn 0.0000 0.6074 0.7944
vn 0.0000 0.3207 0.9472
vn 0.6074 -0.0000 0.7944
vn -0.6074 -0.0000 0.7944
vn 0.0000 1.0000 0.0000
vn 0.0000 -0.6393 0.7690
vn -0.0000 -1.0000 -0.0000
usemtl tiny_treats_1
s 1
f 116/1/1 114/2/1 5/3/1 2/4/1
f 3/5/2 43/6/3 5/7/3 1/8/2
f 115/9/4 4/10/4 43/11/4 113/12/4
f 32/13/5 31/14/6 33/15/7 34/16/8
f 8/17/9 37/18/9 38/19/5 6/20/10
f 126/21/11 30/22/11 27/23/7 125/24/12
f 37/25/9 29/26/9 32/27/5 34/28/8
f 30/29/11 35/30/11 33/31/7 31/32/6
f 127/33/10 125/34/12 27/35/7 28/36/8
f 15/37/6 13/38/5 14/39/13 16/40/13
f 17/41/8 18/42/7 16/43/14 14/44/14
f 35/45/11 9/46/11 7/47/12 36/48/6
f 9/49/9 14/50/9 13/51/5 10/52/8
f 38/53/5 36/54/6 7/55/12 6/56/10
f 16/57/11 12/58/11 11/59/7 15/60/6
f 10/61/8 11/62/7 12/63/14 9/64/14
f 20/65/6 19/66/5 22/67/13 21/68/13
f 13/69/5 15/70/6 11/71/7 10/72/8
f 19/73/5 20/74/6 18/75/7 17/76/8
f 21/77/11 16/78/11 18/79/7 20/80/6
f 109/81/9 101/82/9 104/83/5 106/84/8
f 131/85/10 129/86/12 99/87/7 100/88/8
f 130/89/11 102/90/11 99/91/7 129/92/12
f 14/93/9 22/94/9 19/95/5 17/96/8
f 104/97/5 103/98/6 105/99/7 106/100/8
f 24/101/9 109/102/9 110/103/5 26/104/10
f 102/105/11 107/106/11 105/107/7 103/108/6
f 31/109/6 32/110/5 29/111/13 30/112/13
f 28/113/8 27/114/7 30/115/14 29/116/14
f 34/117/8 33/118/7 35/119/14 37/120/14
f 36/121/6 38/122/5 37/123/13 35/124/13
f 42/125/2 40/126/2 39/127/2 41/128/2
f 4/129/15 2/130/15 39/131/15 40/132/15
f 43/11/4 4/10/4 40/126/4 42/125/4
f 42/133/16 41/134/16 5/135/3 43/136/3
f 2/4/1 5/3/1 41/128/1 39/127/1
f 48/137/5 50/138/6 46/139/7 45/140/8
f 45/141/8 46/142/7 47/143/14 44/144/14
f 50/145/6 48/146/5 49/147/13 51/148/13
f 44/149/9 49/150/9 48/151/5 45/152/8
f 51/153/11 47/154/11 46/155/7 50/156/6
f 54/157/5 55/158/6 53/159/7 52/160/8
f 52/161/8 53/162/7 51/163/14 49/164/14
f 55/165/6 54/166/5 57/167/13 56/168/13
f 49/169/9 57/170/9 54/171/5 52/172/8
f 56/173/11 51/174/11 53/175/7 55/176/6
f 66/177/9 58/178/9 61/179/5 63/180/8
f 59/181/11 64/182/11 62/183/7 60/184/6
f 69/185/8 68/186/7 8/187/14 23/188/14
f 23/189/9 66/190/9 67/191/5 69/192/8
f 65/193/6 67/194/5 66/195/13 64/196/13
f 64/197/11 8/198/11 68/199/7 65/200/6
f 63/201/8 62/202/7 64/203/14 66/204/14
f 67/205/5 65/206/6 68/207/7 69/208/8
f 61/209/5 60/210/6 62/211/7 63/212/8
f 60/213/6 61/214/5 58/215/13 59/216/13
f 78/217/5 79/218/6 77/219/7 76/220/8
f 80/221/11 75/222/11 77/223/7 79/224/6
f 73/225/9 81/226/9 78/227/5 76/228/8
f 121/229/10 122/230/12 83/231/7 82/232/8
f 75/233/11 44/234/11 70/235/12 74/236/6
f 72/237/5 74/238/6 70/239/12 71/240/10
f 123/241/11 80/242/11 83/243/7 122/244/12
f 12/245/9 73/246/9 72/247/5 71/248/10
f 74/249/6 72/250/5 73/251/13 75/252/13
f 79/253/6 78/254/5 81/255/13 80/256/13
f 82/257/8 83/258/7 80/259/14 81/260/14
f 76/261/8 77/262/7 75/263/14 73/264/14
f 94/265/9 86/266/9 89/267/5 91/268/8
f 87/269/11 92/270/11 90/271/7 88/272/6
f 85/273/8 84/274/7 87/275/14 86/276/14
f 117/277/10 119/278/12 84/279/7 85/280/8
f 120/281/11 87/282/11 84/283/7 119/284/12
f 47/285/9 94/286/9 95/287/5 96/288/10
f 93/289/6 95/290/5 94/291/13 92/292/13
f 91/293/8 90/294/7 92/295/14 94/296/14
f 89/297/5 88/298/6 90/299/7 91/300/8
f 88/301/6 89/302/5 86/303/13 87/304/13
f 95/305/5 93/306/6 97/307/12 96/308/10
f 92/309/11 98/310/11 97/311/12 93/312/6
f 107/313/11 23/314/11 25/315/12 108/316/6
f 110/317/5 108/318/6 25/319/12 26/320/10
f 103/321/6 104/322/5 101/323/13 102/324/13
f 100/325/8 99/326/7 102/327/14 101/328/14
f 106/329/8 105/330/7 107/331/14 109/332/14
f 108/333/6 110/334/5 109/335/13 107/336/13
f 96/337/1 97/338/1 98/339/1 47/340/1
f 70/341/1 44/342/1 12/343/1 71/344/1
f 7/345/1 9/346/1 8/347/1 6/348/1
f 25/349/1 23/350/1 24/351/1 26/352/1
f 3/5/4 111/353/4 113/354/4 43/6/4
f 1/8/1 5/7/1 114/355/1 112/356/1
f 2/130/15 4/129/15 115/357/15 116/358/15
f 3/359/17 1/360/17 112/361/17 111/362/17
f 86/363/9 118/364/9 117/365/10 85/366/8
f 81/367/9 124/368/9 121/369/10 82/370/8
f 29/371/9 128/372/9 127/373/10 28/374/8
f 132/375/4 130/89/4 129/86/4 131/376/4
f 128/372/4 126/21/4 125/34/4 127/373/4
f 101/377/9 132/375/9 131/376/10 100/378/8
f 122/230/4 121/229/4 124/368/4 123/241/4
f 117/277/4 118/364/4 120/281/4 119/278/4
