# Blender v3.4.1 OBJ File: 'Tiny_Treats_Charming_Kitchen_1.1_ASSETS_EXPORT.blend'
# www.blender.org
mtllib window_full_right_modular.mtl
o window_full_right_modular
v 0.800000 0.475000 0.250806
v 0.800000 0.525000 0.300806
v 0.850000 0.525000 0.250806
v 0.800000 0.675000 0.300806
v 0.800000 0.725000 0.250806
v 0.850000 0.675000 0.250806
v 0.800000 0.475000 -0.249194
v 0.850000 0.525000 -0.249194
v 0.800000 0.525000 -0.299194
v 0.800000 0.725000 -0.249194
v 0.800000 0.675000 -0.299194
v 0.850000 0.675000 -0.249194
v -1.000000 0.475000 0.250806
v -1.000000 0.525000 0.300806
v -1.000000 0.725000 0.250806
v -1.000000 0.675000 0.300806
v -1.000000 0.475000 -0.249194
v -1.000000 0.525000 -0.299194
v -1.000000 0.725000 -0.249194
v -1.000000 0.675000 -0.299194
v 0.750000 0.699999 0.150806
v -1.000000 3.500000 0.150806
v 0.750000 3.500000 0.150806
v 0.540000 0.699999 0.150806
v -1.000000 3.300000 0.150806
v 0.540000 3.300000 0.150806
v 0.750000 0.699999 -0.149194
v -1.000000 3.500000 -0.149194
v 0.750000 3.500000 -0.149194
v 0.540000 0.699999 -0.149194
v -1.000000 3.300000 -0.149194
v 0.540000 3.300000 -0.149194
v 0.620000 0.690320 0.070806
v 0.620000 0.720320 0.100806
v 0.620000 0.860319 0.100806
v 0.620000 0.890320 0.070806
v 0.620000 0.690320 -0.069194
v 0.620000 0.720320 -0.099194
v 0.620000 0.890320 -0.069194
v 0.620000 0.860319 -0.099194
v -1.000000 0.690320 0.070806
v -1.000000 0.720320 0.100806
v -1.000000 0.890320 0.070806
v -1.000000 0.860319 0.100806
v -1.000000 0.690320 -0.069194
v -1.000000 0.720320 -0.099194
v -1.000000 0.890320 -0.069194
v -1.000000 0.860319 -0.099194
v 0.540000 2.000320 0.030806
v 0.540000 2.030319 0.060806
v 0.540000 2.170319 0.060806
v 0.540000 2.200320 0.030806
v 0.540000 2.000320 -0.029194
v 0.540000 2.030319 -0.059194
v 0.540000 2.200320 -0.029194
v 0.540000 2.170319 -0.059194
v -1.000000 2.000320 0.030806
v -1.000000 2.030319 0.060806
v -1.000000 2.200320 0.030806
v -1.000000 2.170319 0.060806
v -1.000000 2.000320 -0.029194
v -1.000000 2.030319 -0.059194
v -1.000000 2.200320 -0.029194
v -1.000000 2.170319 -0.059194
v 0.100000 3.320319 0.030806
v 0.070000 3.320319 0.060806
v -0.070000 3.320319 0.060806
v -0.100000 3.320319 0.030806
v 0.100000 3.320319 -0.029194
v 0.070000 3.320319 -0.059194
v -0.100000 3.320319 -0.029194
v -0.070000 3.320319 -0.059194
v 0.100000 0.880319 0.030806
v 0.070000 0.880319 0.060806
v -0.100000 0.880319 0.030806
v -0.070000 0.880319 0.060806
v 0.100000 0.880319 -0.029194
v 0.070000 0.880319 -0.059194
v -0.100000 0.880319 -0.029194
v -0.070000 0.880319 -0.059194
v -0.100000 2.000320 -0.029194
v 0.100000 2.000320 -0.029194
v -0.070000 2.030319 -0.059194
v 0.100000 2.200320 -0.029194
v -0.100000 2.200320 -0.029194
v -0.070000 2.170319 -0.059194
v 0.100000 2.000320 0.030806
v -0.100000 2.000320 0.030806
v -0.070000 2.030319 0.060806
v 0.070000 2.030319 0.060806
v -0.100000 2.200320 0.030806
v 0.070000 2.170319 -0.059194
v 0.070000 2.030319 -0.059194
v 0.100000 2.200319 0.030806
v 0.070000 2.170319 0.060806
v -0.070000 2.170319 0.060806
v 0.550000 2.000000 -0.050001
v 0.550000 0.700000 -0.050001
v -1.000000 0.700000 -0.050001
v -1.000000 2.000000 -0.050001
v 0.550000 2.000000 -0.000001
v -1.000000 2.000000 -0.000001
v 0.550000 0.700000 -0.000001
v -1.000000 0.700000 -0.000001
v -1.000000 2.000000 -0.000001
v 0.550000 2.000000 -0.000001
v -1.000000 3.300000 -0.000001
v 0.550000 3.300000 -0.000001
v -1.000000 3.300000 -0.050001
v -1.000000 2.000000 -0.050001
v 0.550000 2.000000 -0.050001
v 0.550000 3.300000 -0.050001
vt 0.482823 0.877541
vt 0.392177 0.877541
vt 0.392177 0.892785
vt 0.482823 0.892785
vt 0.482823 0.929116
vt 0.482823 0.929116
vt 0.392177 0.929116
vt 0.392177 0.929116
vt 0.388940 0.877541
vt 0.388940 0.877541
vt 0.388940 0.892785
vt 0.388940 0.892785
vt 0.392177 0.877541
vt 0.482823 0.877541
vt 0.482823 0.892785
vt 0.392177 0.892785
vt 0.392177 0.856834
vt 0.388940 0.861916
vt 0.392177 0.861916
vt 0.392177 0.939660
vt 0.388940 0.939660
vt 0.392177 0.944741
vt 0.392177 0.856834
vt 0.392177 0.861916
vt 0.388940 0.861916
vt 0.392177 0.944741
vt 0.388940 0.939660
vt 0.392177 0.939660
vt 0.392177 0.893166
vt 0.388940 0.893166
vt 0.388940 0.908410
vt 0.392177 0.908410
vt 0.392177 0.908410
vt 0.388940 0.908410
vt 0.388940 0.893166
vt 0.392177 0.893166
vt 0.482823 0.856834
vt 0.482823 0.861916
vt 0.482823 0.939660
vt 0.482823 0.944741
vt 0.482823 0.841209
vt 0.482823 0.939660
vt 0.482823 0.861916
vt 0.482823 0.856834
vt 0.482823 0.944741
vt 0.392177 0.841209
vt 0.392177 0.841209
vt 0.482823 0.841209
vt 0.411345 0.937821
vt 0.416576 0.932595
vt 0.416576 0.890788
vt 0.411345 0.885562
vt 0.463655 0.937821
vt 0.458424 0.932595
vt 0.411345 0.937821
vt 0.411345 0.885562
vt 0.416576 0.890788
vt 0.416576 0.932595
vt 0.458424 0.932595
vt 0.463655 0.937821
vt 0.416576 0.901345
vt 0.416576 0.859538
vt 0.416576 0.859538
vt 0.416576 0.901345
vt 0.458424 0.901345
vt 0.458424 0.901345
vt 0.484964 0.867836
vt 0.390036 0.867836
vt 0.390036 0.885395
vt 0.484964 0.885395
vt 0.484964 0.920408
vt 0.484964 0.920408
vt 0.390036 0.920408
vt 0.390036 0.920408
vt 0.390036 0.867836
vt 0.484964 0.867836
vt 0.484964 0.885395
vt 0.390036 0.885395
vt 0.484964 0.848448
vt 0.484964 0.852211
vt 0.390036 0.852211
vt 0.390036 0.848448
vt 0.390036 0.936033
vt 0.390036 0.932270
vt 0.484964 0.932270
vt 0.484964 0.936033
vt 0.390036 0.848449
vt 0.390036 0.852211
vt 0.484964 0.852211
vt 0.484964 0.848449
vt 0.484964 0.936033
vt 0.484964 0.932270
vt 0.390036 0.932270
vt 0.390036 0.936033
vt 0.390036 0.832823
vt 0.390036 0.832824
vt 0.484964 0.832824
vt 0.484964 0.832823
vt 0.421679 0.867836
vt 0.390036 0.867836
vt 0.390036 0.885395
vt 0.421679 0.885395
vt 0.421679 0.920408
vt 0.421679 0.920408
vt 0.390036 0.920408
vt 0.390036 0.920408
vt 0.453321 0.867836
vt 0.484964 0.867836
vt 0.484964 0.885395
vt 0.453321 0.885395
vt 0.421679 0.848448
vt 0.421679 0.852211
vt 0.390036 0.852211
vt 0.390036 0.848448
vt 0.453321 0.936033
vt 0.453321 0.932270
vt 0.484964 0.932270
vt 0.484964 0.936033
vt 0.453321 0.848449
vt 0.453321 0.852211
vt 0.484964 0.852211
vt 0.484964 0.848449
vt 0.421679 0.936033
vt 0.421679 0.932270
vt 0.390036 0.932270
vt 0.390036 0.936033
vt 0.453321 0.832823
vt 0.453321 0.832824
vt 0.484964 0.832824
vt 0.484964 0.832823
vt 0.421679 0.867836
vt 0.390036 0.867836
vt 0.390036 0.885395
vt 0.421679 0.885395
vt 0.421679 0.920408
vt 0.421679 0.920408
vt 0.390036 0.920408
vt 0.390036 0.920408
vt 0.453321 0.867836
vt 0.484964 0.867836
vt 0.484964 0.885395
vt 0.453321 0.885395
vt 0.421679 0.848448
vt 0.421679 0.852211
vt 0.390036 0.852211
vt 0.390036 0.848448
vt 0.453321 0.936033
vt 0.453321 0.932270
vt 0.484964 0.932270
vt 0.484964 0.936033
vt 0.453321 0.848449
vt 0.453321 0.852211
vt 0.484964 0.852211
vt 0.484964 0.848449
vt 0.421679 0.936033
vt 0.421679 0.932270
vt 0.390036 0.932270
vt 0.390036 0.936033
vt 0.453321 0.832823
vt 0.453321 0.832824
vt 0.484964 0.832824
vt 0.484964 0.832823
vt 0.390036 0.832823
vt 0.390036 0.832824
vt 0.421679 0.832824
vt 0.421679 0.832823
vt 0.484964 0.936033
vt 0.484964 0.932270
vt 0.453321 0.932270
vt 0.453321 0.936033
vt 0.390036 0.848449
vt 0.390036 0.852211
vt 0.421679 0.852211
vt 0.421679 0.848448
vt 0.390036 0.936033
vt 0.390036 0.932270
vt 0.421679 0.932270
vt 0.421679 0.936033
vt 0.484964 0.848448
vt 0.484964 0.852211
vt 0.453321 0.852211
vt 0.453321 0.848448
vt 0.390036 0.867836
vt 0.421679 0.867836
vt 0.421679 0.885395
vt 0.390036 0.885395
vt 0.484964 0.920408
vt 0.484964 0.920408
vt 0.453321 0.920408
vt 0.453321 0.920408
vt 0.484964 0.867836
vt 0.453321 0.867836
vt 0.453321 0.885395
vt 0.484964 0.885395
vt 0.390036 0.832823
vt 0.390036 0.832824
vt 0.421679 0.832824
vt 0.421679 0.832823
vt 0.484964 0.936033
vt 0.484964 0.932270
vt 0.453321 0.932270
vt 0.453321 0.936033
vt 0.390036 0.848449
vt 0.390036 0.852211
vt 0.421679 0.852211
vt 0.421679 0.848448
vt 0.390036 0.936033
vt 0.390036 0.932270
vt 0.421679 0.932270
vt 0.421679 0.936033
vt 0.484964 0.848448
vt 0.484964 0.852211
vt 0.453321 0.852211
vt 0.453321 0.848448
vt 0.390036 0.867836
vt 0.421679 0.867836
vt 0.421679 0.885395
vt 0.390036 0.885395
vt 0.484964 0.920408
vt 0.484964 0.920408
vt 0.453321 0.920408
vt 0.453321 0.920408
vt 0.484964 0.867836
vt 0.453321 0.867836
vt 0.453321 0.885395
vt 0.484964 0.885395
vt 0.755000 0.005000
vt 0.755000 0.245000
vt 0.995000 0.245000
vt 0.995000 0.005000
vt 0.755000 0.005000
vt 0.995000 0.005000
vt 0.995000 0.245000
vt 0.755000 0.245000
vt 0.755000 0.005000
vt 0.995000 0.005000
vt 0.995000 0.245000
vt 0.755000 0.245000
vt 0.755000 0.005000
vt 0.755000 0.245000
vt 0.995000 0.245000
vt 0.995000 0.005000
vn 0.0000 -0.3827 0.9239
vn 0.3416 -0.3416 0.8756
vn 0.3416 0.3416 0.8756
vn 0.0000 0.3827 0.9239
vn 0.0000 1.0000 0.0000
vn 0.3416 0.8756 0.3416
vn 0.3416 0.8756 -0.3416
vn 0.8756 -0.3416 0.3416
vn 0.8756 -0.3416 -0.3416
vn 0.8756 0.3416 -0.3416
vn 0.8756 0.3416 0.3416
vn 0.3416 -0.3416 -0.8756
vn 0.0000 -0.3827 -0.9239
vn 0.0000 0.3827 -0.9239
vn 0.3416 0.3416 -0.8756
vn 0.3416 -0.8756 0.3416
vn 0.3416 -0.8756 -0.3416
vn 0.0000 -0.7071 -0.7071
vn 0.0000 0.7071 -0.7071
vn -1.0000 0.0000 0.0000
vn 0.0000 -0.7071 0.7071
vn 0.0000 0.7071 0.7071
vn 0.0000 -1.0000 0.0000
vn 0.0000 0.0000 1.0000
vn 0.0000 0.0000 -1.0000
vn 0.0000 -0.9239 -0.3827
vn 0.0000 -0.9239 0.3827
vn -0.0000 0.8959 0.4444
vn -0.0000 0.9239 0.3827
vn -0.1244 0.0000 -0.9922
vn -0.1100 0.1101 -0.9878
vn 0.0000 -0.8959 -0.4444
vn 0.0000 -0.8959 0.4444
vn -0.3827 -0.0000 0.9239
vn -0.1100 0.1100 0.9878
vn -0.3827 0.0000 -0.9239
vn 0.7071 0.0000 -0.7071
vn -0.7071 0.0000 -0.7071
vn 0.8959 -0.0000 0.4444
vn 0.7071 -0.0000 0.7071
vn 0.9239 -0.0000 0.3827
vn -0.7071 -0.0000 0.7071
vn 0.8959 -0.0000 -0.4444
vn 0.9239 -0.0000 -0.3827
vn 0.0000 0.1244 -0.9922
vn -0.1244 -0.0000 0.9922
vn 1.0000 0.0000 0.0000
usemtl tiny_treats_1
s 1
f 14/1/1 2/2/2 4/3/3 16/4/4
f 19/5/5 15/6/5 5/7/6 10/8/7
f 3/9/8 8/10/9 12/11/10 6/12/11
f 9/13/12 18/14/13 20/15/14 11/16/15
f 1/17/16 3/18/8 2/19/2
f 4/20/3 6/21/11 5/22/6
f 7/23/17 9/24/12 8/25/9
f 10/26/7 12/27/10 11/28/15
f 7/23/17 8/25/9 3/18/8 1/17/16
f 2/29/2 3/30/8 6/31/11 4/32/3
f 5/22/6 6/21/11 12/27/10 10/26/7
f 11/33/15 12/34/10 8/35/9 9/36/12
f 17/37/18 18/38/13 9/24/12 7/23/17
f 10/26/7 11/28/15 20/39/14 19/40/19
f 14/1/20 18/14/20 17/37/20 13/41/20
f 18/14/20 14/1/20 16/4/20 20/39/20
f 15/6/20 19/5/20 20/39/20 16/42/20
f 1/17/16 2/19/2 14/43/1 13/44/21
f 15/45/22 16/42/4 4/20/3 5/22/6
f 7/46/17 1/47/16 13/41/23 17/48/23
f 23/49/24 26/50/24 24/51/24 21/52/24
f 23/49/24 22/53/24 25/54/24 26/50/24
f 29/55/25 27/56/25 30/57/25 32/58/25
f 29/55/25 32/58/25 31/59/25 28/60/25
f 32/61/20 30/62/20 24/63/20 26/64/20
f 22/53/20 28/60/20 31/59/20 25/65/20
f 31/66/23 32/61/23 26/64/23 25/65/23
f 42/67/24 34/68/24 35/69/4 44/70/4
f 47/71/5 43/72/5 36/73/5 39/74/5
f 38/75/25 46/76/25 48/77/14 40/78/14
f 45/79/26 46/80/18 38/81/18 37/82/26
f 39/83/19 40/84/14 48/85/14 47/86/19
f 33/87/27 34/88/21 42/89/21 41/90/27
f 43/91/22 44/92/4 35/93/4 36/94/22
f 37/95/26 33/96/27 41/97/27 45/98/26
f 90/99/24 50/100/24 51/101/24 95/102/24
f 84/103/5 94/104/28 52/105/29 55/106/5
f 83/107/30 62/108/25 64/109/14 86/110/31
f 82/111/32 93/112/18 54/113/18 53/114/26
f 85/115/19 86/116/31 64/117/14 63/118/19
f 88/119/33 89/120/21 58/121/21 57/122/27
f 94/123/28 95/124/22 51/125/22 52/126/29
f 81/127/32 88/128/33 57/129/27 61/130/26
f 95/131/24 66/132/24 67/133/34 96/134/35
f 85/135/20 91/136/20 68/137/20 71/138/20
f 93/139/25 78/140/25 80/141/36 83/142/30
f 84/143/37 92/144/37 70/145/37 69/146/37
f 81/147/38 83/148/30 80/149/36 79/150/38
f 87/151/39 90/152/40 74/153/40 73/154/41
f 91/155/42 96/156/35 67/157/34 68/158/42
f 82/159/43 87/160/39 73/161/41 77/162/44
f 53/163/26 49/164/27 87/165/33 82/166/32
f 59/167/22 60/168/4 96/169/35 91/170/22
f 49/171/27 50/172/21 90/173/21 87/174/33
f 55/175/19 56/176/14 92/177/45 84/178/19
f 61/179/26 62/180/18 83/181/18 81/182/32
f 54/183/25 93/184/25 92/185/45 56/186/14
f 93/184/25 83/107/30 86/110/31 92/185/45
f 63/187/5 59/188/5 91/189/5 85/190/5
f 58/191/24 89/192/46 96/193/35 60/194/4
f 89/192/46 90/99/24 95/102/24 96/193/35
f 69/195/47 65/196/41 94/197/39 84/198/47
f 75/199/42 76/200/34 89/201/46 88/202/42
f 65/203/41 66/204/40 95/205/40 94/206/39
f 71/207/38 72/208/36 86/209/31 85/210/38
f 77/211/44 78/212/37 93/213/37 82/214/43
f 70/215/25 92/216/45 86/217/31 72/218/36
f 79/219/20 75/220/20 88/221/20 81/222/20
f 74/223/24 90/224/24 89/225/46 76/226/34
f 59/188/20 63/187/20 64/117/20 60/168/20
f 62/108/20 58/191/20 60/194/20 64/117/20
f 58/191/20 62/108/20 61/179/20 57/129/20
f 43/72/20 47/71/20 48/85/20 44/92/20
f 46/76/20 42/67/20 44/70/20 48/85/20
f 42/67/20 46/76/20 45/79/20 41/97/20
usemtl tiny_treats_1_GLASS
f 99/227/25 100/228/25 97/229/25 98/230/25
f 104/231/24 103/232/24 101/233/24 102/234/24
f 105/235/24 106/236/24 108/237/24 107/238/24
f 110/239/25 109/240/25 112/241/25 111/242/25
