# Blender v3.4.1 OBJ File: 'Tiny_Treats_House_Plants_ASSETS_EXPORT.blend'
# www.blender.org
mtllib monstera_leaf_small_C.mtl
o monstera_leaf_small_C
v -0.000004 0.000000 -0.025000
v -0.000004 0.522205 0.389406
v 0.017674 0.000000 -0.017678
v 0.017674 0.515074 0.391070
v 0.024996 0.000000 0.000000
v 0.024996 0.497859 0.395086
v 0.017674 0.000000 0.017678
v 0.017674 0.480643 0.399102
v -0.000004 0.000000 0.025000
v -0.000004 0.473513 0.400765
v -0.017681 0.000000 0.017678
v -0.017681 0.480643 0.399102
v -0.025004 0.000000 0.000000
v -0.025004 0.497859 0.395086
v -0.017681 0.000000 -0.017678
v -0.017681 0.515074 0.391070
v -0.000004 0.176499 0.004880
v -0.000004 0.333328 0.091190
v -0.000004 0.453009 0.224310
v 0.017674 0.446823 0.228228
v 0.017674 0.328777 0.096925
v 0.017674 0.174089 0.011794
v 0.024996 0.431889 0.237687
v 0.024996 0.317788 0.110773
v 0.024996 0.168270 0.028487
v 0.017674 0.416955 0.247146
v 0.017674 0.306799 0.124620
v 0.017674 0.162452 0.045180
v -0.000004 0.410769 0.251063
v -0.000004 0.302247 0.130356
v -0.000004 0.160042 0.052094
v -0.017681 0.416955 0.247146
v -0.017681 0.306799 0.124620
v -0.017681 0.162452 0.045180
v -0.025004 0.431889 0.237687
v -0.025004 0.317788 0.110773
v -0.025004 0.168270 0.028487
v -0.017681 0.446823 0.228228
v -0.017681 0.328777 0.096925
v -0.017681 0.174089 0.011794
v 0.165552 0.356186 0.387246
v 0.114840 0.195193 0.406250
v 0.144165 0.268841 0.393123
v 0.048449 0.572639 0.368768
v -0.017727 0.540279 0.387843
v -0.097875 0.525839 0.383073
v -0.166398 0.457783 0.387473
v -0.138154 0.378004 0.400854
v -0.050437 0.280997 0.416208
v 0.037779 0.222185 0.412446
v 0.174054 0.472519 0.362979
v 0.130061 0.216034 0.400734
v 0.146191 0.559611 0.349358
v 0.103755 0.579554 0.354268
v -0.145395 0.499803 0.381754
v 0.089158 0.196004 0.409767
v 0.110065 0.208183 0.404112
v 0.094801 0.249420 0.402709
v 0.065105 0.324852 0.407181
v 0.025065 0.430955 0.398910
v -0.006684 0.512980 0.389582
v 0.173859 0.354938 0.403673
v 0.122376 0.184309 0.420811
v 0.152525 0.261913 0.408685
v 0.050274 0.585657 0.395765
v -0.018839 0.550972 0.414075
v -0.102517 0.536200 0.408268
v -0.173802 0.464420 0.409243
v -0.143415 0.378329 0.418754
v -0.051374 0.275423 0.430550
v 0.041763 0.212533 0.426868
v 0.182340 0.478413 0.383691
v 0.138135 0.206187 0.415581
v 0.152515 0.572301 0.374542
v 0.108021 0.593542 0.380874
v -0.152140 0.509109 0.405504
v 0.095656 0.185010 0.424240
v 0.118471 0.196250 0.420885
v 0.102119 0.239877 0.419972
v 0.069696 0.320808 0.425132
v 0.027205 0.433668 0.422092
v -0.007244 0.523320 0.418098
vt 0.162088 0.636271
vt 0.162088 0.663740
vt 0.164031 0.663740
vt 0.164031 0.636271
vt 0.164835 0.663740
vt 0.164835 0.636271
vt 0.164031 0.663740
vt 0.164031 0.636271
vt 0.162088 0.663740
vt 0.162088 0.636271
vt 0.160146 0.663740
vt 0.160146 0.636271
vt 0.159341 0.663740
vt 0.159341 0.636271
vt 0.160146 0.663740
vt 0.160146 0.636271
vt 0.160146 0.553862
vt 0.160146 0.581332
vt 0.162088 0.581332
vt 0.162088 0.553862
vt 0.160146 0.608801
vt 0.162088 0.608801
vt 0.159341 0.553862
vt 0.159341 0.581332
vt 0.159341 0.608801
vt 0.160146 0.553862
vt 0.160146 0.581332
vt 0.160146 0.608801
vt 0.162088 0.553862
vt 0.162088 0.581332
vt 0.162088 0.608801
vt 0.164031 0.553862
vt 0.164031 0.581332
vt 0.164031 0.608801
vt 0.164835 0.553862
vt 0.164835 0.581332
vt 0.164835 0.608801
vt 0.164031 0.553862
vt 0.164031 0.581332
vt 0.164031 0.608801
vt 0.186222 0.562766
vt 0.186246 0.560951
vt 0.189723 0.577994
vt 0.186222 0.578391
vt 0.183180 0.578831
vt 0.186246 0.576576
vt 0.186144 0.568739
vt 0.195930 0.582858
vt 0.186144 0.584364
vt 0.178413 0.584409
vt 0.186164 0.595072
vt 0.167190 0.592783
vt 0.186333 0.587996
vt 0.186164 0.579447
vt 0.210345 0.592169
vt 0.218530 0.597835
vt 0.157308 0.597182
vt 0.186333 0.603621
vt 0.186501 0.591019
vt 0.214620 0.602114
vt 0.186143 0.614288
vt 0.211545 0.626876
vt 0.196380 0.616957
vt 0.186124 0.602920
vt 0.159163 0.602318
vt 0.186501 0.606644
vt 0.186564 0.606981
vt 0.173838 0.605904
vt 0.208575 0.603874
vt 0.164930 0.604106
vt 0.186564 0.591356
vt 0.200552 0.605578
vt 0.186206 0.596578
vt 0.189871 0.611783
vt 0.186231 0.594652
vt 0.186206 0.612203
vt 0.186231 0.610277
vt 0.183021 0.612672
vt 0.186124 0.618545
vt 0.178018 0.618600
vt 0.186143 0.629913
vt 0.166215 0.627514
vt 0.186321 0.623365
vt 0.220179 0.632914
vt 0.155804 0.632211
vt 0.186321 0.638990
vt 0.186497 0.626575
vt 0.216076 0.637438
vt 0.157740 0.637652
vt 0.186497 0.642200
vt 0.173177 0.641423
vt 0.186564 0.642557
vt 0.209717 0.639287
vt 0.163806 0.639533
vt 0.186564 0.626932
vt 0.201278 0.641080
vt 0.155804 0.600961
vt 0.166215 0.596264
vt 0.157740 0.606402
vt 0.216076 0.606188
vt 0.209717 0.608037
vt 0.178018 0.587350
vt 0.183021 0.581422
vt 0.186231 0.579027
vt 0.163806 0.608283
vt 0.173177 0.610173
vt 0.186564 0.611307
vt 0.201278 0.609830
vt 0.186564 0.595682
vt 0.220179 0.601664
vt 0.211545 0.595626
vt 0.196380 0.585707
vt 0.189871 0.580533
vt 0.186231 0.563402
vn 0.0000 0.8448 -0.5351
vn 0.0000 0.9223 -0.3865
vn 0.6822 0.6744 -0.2826
vn 0.6873 0.6136 -0.3887
vn 0.9991 0.0382 -0.0160
vn 0.9992 0.0345 -0.0218
vn 0.7232 -0.6370 0.2670
vn 0.7281 -0.5791 0.3668
vn -0.0000 -0.9223 0.3865
vn -0.0000 -0.8448 0.5351
vn -0.7232 -0.6370 0.2670
vn -0.7281 -0.5791 0.3668
vn -0.9991 0.0382 -0.0160
vn -0.9992 0.0345 -0.0218
vn -0.6822 0.6744 -0.2826
vn -0.6873 0.6136 -0.3887
vn -0.6822 0.1221 -0.7209
vn -0.6873 0.2391 -0.6859
vn -0.0000 0.3292 -0.9443
vn -0.0000 0.1669 -0.9860
vn -0.6873 0.4515 -0.5690
vn -0.0000 0.6216 -0.7833
vn -0.9991 0.0069 -0.0408
vn -0.9992 0.0134 -0.0385
vn -0.9992 0.0254 -0.0320
vn -0.7232 -0.1153 0.6809
vn -0.7281 -0.2256 0.6473
vn -0.7281 -0.4261 0.5370
vn -0.0000 -0.1669 0.9860
vn -0.0000 -0.3292 0.9443
vn -0.0000 -0.6216 0.7833
vn 0.7232 -0.1153 0.6809
vn 0.7281 -0.2256 0.6473
vn 0.7281 -0.4261 0.5370
vn 0.9991 0.0069 -0.0408
vn 0.9992 0.0134 -0.0385
vn 0.9992 0.0254 -0.0320
vn 0.6822 0.1221 -0.7209
vn 0.6873 0.2391 -0.6859
vn 0.6873 0.4515 -0.5690
vn -0.1273 -0.1517 -0.9802
vn 0.1057 -0.5581 -0.8230
vn -0.2568 -0.5723 -0.7788
vn 0.3518 -0.2958 -0.8881
vn -0.1418 -0.0627 -0.9879
vn -0.1095 -0.0525 -0.9926
vn -0.1753 -0.0413 -0.9836
vn -0.1132 -0.0827 -0.9901
vn -0.1758 -0.1157 -0.9776
vn -0.0791 -0.1514 -0.9853
vn -0.0318 -0.0855 -0.9958
vn 0.0247 -0.1200 -0.9925
vn -0.1785 -0.1831 -0.9667
vn -0.0741 -0.1335 -0.9883
vn 0.0518 -0.1390 -0.9889
vn 0.1112 0.0491 0.9926
vn 0.0134 0.0398 0.9991
vn 0.0753 0.0186 0.9970
vn 0.1402 0.0394 0.9893
vn -0.1895 -0.1919 -0.9629
vn -0.0665 -0.0902 -0.9937
vn -0.2344 -0.1199 -0.9647
vn 0.0701 -0.1525 -0.9858
vn -0.2040 -0.1727 -0.9636
vn 0.0626 -0.0601 -0.9962
vn 0.1613 0.0634 0.9849
vn 0.0981 0.0610 0.9933
vn 0.1718 0.0500 0.9839
vn 0.2002 0.0786 0.9766
vn 0.2007 0.0320 0.9791
vn 0.1933 0.0845 0.9775
vn 0.0835 0.0963 0.9918
vn -0.0377 0.0579 0.9976
vn 0.2001 0.1337 0.9706
vn 0.0611 0.1243 0.9904
vn -0.0697 0.0811 0.9943
vn 0.2107 0.1483 0.9662
vn 0.2210 0.1418 0.9649
vn 0.0284 0.1556 0.9874
vn -0.0977 0.1205 0.9879
vn 0.2163 0.1559 0.9638
vn -0.0925 0.0734 0.9930
vn 0.9187 0.0458 -0.3922
vn 0.9179 0.0627 -0.3918
vn 0.8749 -0.1860 -0.4472
vn 0.8797 -0.1798 -0.4402
vn 0.6946 0.5460 -0.4685
vn 0.6258 0.6144 -0.4806
vn -0.6664 0.6120 -0.4259
vn -0.9446 -0.0151 -0.3280
vn -0.9378 0.0527 -0.3432
vn -0.6531 0.6256 -0.4267
vn 0.8135 -0.2487 -0.5258
vn 0.7996 -0.2593 -0.5417
vn 0.6222 -0.4544 -0.6375
vn 0.2154 -0.7275 -0.6514
vn 0.0679 0.8791 -0.4718
vn 0.0317 0.8835 -0.4674
vn -0.3573 0.8493 -0.3886
vn -0.3649 0.8470 -0.3867
vn -0.3215 0.8695 -0.3751
vn -0.3207 0.8697 -0.3752
vn -0.2832 0.8672 -0.4095
vn -0.2810 0.8681 -0.4092
vn -0.8191 -0.5210 -0.2403
vn -0.8250 -0.5118 -0.2398
vn -0.6338 -0.7161 -0.2923
vn -0.6092 -0.7309 -0.3076
vn -0.4958 -0.7830 -0.3757
vn -0.4665 -0.7918 -0.3943
vn -0.2206 -0.8241 -0.5218
usemtl tiny_treats_1
s 1
f 19/1/1 2/2/2 4/3/3 20/4/4
f 20/4/4 4/3/3 6/5/5 23/6/6
f 23/6/6 6/5/5 8/7/7 26/8/8
f 26/8/8 8/7/7 10/9/9 29/10/10
f 29/10/10 10/9/9 12/11/11 32/12/12
f 32/12/12 12/11/11 14/13/13 35/14/14
f 35/14/14 14/13/13 16/15/15 38/16/16
f 38/16/16 16/15/15 2/2/2 19/1/1
f 15/17/17 40/18/18 17/19/19 1/20/20
f 40/18/18 39/21/21 18/22/22 17/19/19
f 39/21/21 38/16/16 19/1/1 18/22/22
f 13/23/23 37/24/24 40/18/18 15/17/17
f 37/24/24 36/25/25 39/21/21 40/18/18
f 36/25/25 35/14/14 38/16/16 39/21/21
f 11/26/26 34/27/27 37/24/24 13/23/23
f 34/27/27 33/28/28 36/25/25 37/24/24
f 33/28/28 32/12/12 35/14/14 36/25/25
f 9/29/29 31/30/30 34/27/27 11/26/26
f 31/30/30 30/31/31 33/28/28 34/27/27
f 30/31/31 29/10/10 32/12/12 33/28/28
f 7/32/32 28/33/33 31/30/30 9/29/29
f 28/33/33 27/34/34 30/31/31 31/30/30
f 27/34/34 26/8/8 29/10/10 30/31/31
f 5/35/35 25/36/36 28/33/33 7/32/32
f 25/36/36 24/37/37 27/34/34 28/33/33
f 24/37/37 23/6/6 26/8/8 27/34/34
f 3/38/38 22/39/39 25/36/36 5/35/35
f 22/39/39 21/40/40 24/37/37 25/36/36
f 21/40/40 20/4/4 23/6/6 24/37/37
f 1/20/20 17/19/19 22/39/39 3/38/38
f 17/19/19 18/22/22 21/40/40 22/39/39
f 18/22/22 19/1/1 20/4/4 21/40/40
f 57/41/41 42/42/42 56/43/43
f 57/44/41 52/45/44 42/46/42
f 58/47/45 57/41/41 56/43/43 50/48/46
f 58/49/45 43/50/47 52/45/44 57/44/41
f 59/51/48 41/52/49 43/50/47 58/49/45
f 60/53/50 59/54/48 49/55/51 48/56/52
f 51/57/53 41/52/49 59/51/48 60/58/50
f 61/59/54 60/53/50 48/56/52 47/60/55
f 80/61/56 70/62/57 71/63/58 79/64/59
f 53/65/60 51/57/53 60/58/50 61/66/54
f 61/66/54 45/67/61 44/68/62
f 61/59/54 47/60/55 55/69/63
f 53/65/60 61/66/54 54/70/64
f 54/70/64 61/66/54 44/68/62
f 45/71/61 61/59/54 46/72/65
f 46/72/65 61/59/54 55/69/63
f 78/73/66 77/74/67 63/75/68
f 78/76/66 63/77/68 73/78/69
f 79/64/59 71/63/58 77/74/67 78/73/66
f 79/79/59 78/76/66 73/78/69 64/80/70
f 80/81/56 79/79/59 64/80/70 62/82/71
f 81/83/72 69/84/73 70/62/57 80/61/56
f 72/85/74 81/86/72 80/81/56 62/82/71
f 82/87/75 68/88/76 69/84/73 81/83/72
f 74/89/77 82/90/75 81/86/72 72/85/74
f 82/90/75 65/91/78 66/92/79
f 82/87/75 76/93/80 68/88/76
f 74/89/77 75/94/81 82/90/75
f 75/94/81 65/91/78 82/90/75
f 66/95/79 67/96/82 82/87/75
f 67/96/82 76/93/80 82/87/75
f 51/57/83 72/97/84 62/98/85 41/52/86
f 51/57/83 53/65/87 74/99/88 72/97/84
f 55/69/89 47/60/90 68/100/91 76/101/92
f 43/50/93 41/52/86 62/98/85 64/102/94
f 42/46/42 52/45/44 73/103/95 63/104/96
f 52/45/44 43/50/93 64/102/94 73/103/95
f 53/65/87 54/70/97 75/105/98 74/99/88
f 54/70/97 44/68/99 65/106/100 75/105/98
f 44/68/99 45/67/101 66/107/102 65/106/100
f 45/71/101 46/72/103 67/108/104 66/109/102
f 46/72/103 55/69/89 76/101/92 67/108/104
f 47/60/90 48/56/105 69/110/106 68/100/91
f 48/56/105 49/55/107 70/111/108 69/110/106
f 49/55/107 50/48/109 71/112/110 70/111/108
f 50/48/109 56/43/43 77/113/111 71/112/110
f 59/54/48 58/47/45 50/48/46 49/55/51
f 56/43/43 42/42/42 63/114/96 77/113/111
