# Blender v3.4.1 OBJ File: 'Tiny_Treats_House_Plants_ASSETS_EXPORT.blend'
# www.blender.org
mtllib monstera_leaf_small_B.mtl
o monstera_leaf_small_B
v -0.000004 0.000000 -0.025000
v -0.000004 0.681161 0.091309
v 0.017674 0.000000 -0.017678
v 0.017674 0.678731 0.098216
v 0.024996 0.000000 0.000000
v 0.024996 0.672865 0.114892
v 0.017674 0.000000 0.017678
v 0.017674 0.666999 0.131568
v -0.000004 0.000000 0.025000
v -0.000004 0.664570 0.138476
v -0.017681 0.000000 0.017678
v -0.017681 0.666999 0.131568
v -0.025004 0.000000 0.000000
v -0.025004 0.672865 0.114892
v -0.017681 0.000000 -0.017678
v -0.017681 0.678731 0.098216
v -0.000004 0.173374 -0.017665
v -0.000004 0.345510 0.004286
v -0.000004 0.515176 0.040697
v 0.017674 0.513338 0.047785
v 0.017674 0.344277 0.011504
v 0.017674 0.172756 -0.010369
v 0.024996 0.508902 0.064897
v 0.024996 0.341302 0.028929
v 0.024996 0.171263 0.007245
v 0.017674 0.504465 0.082009
v 0.017674 0.338327 0.046355
v 0.017674 0.169770 0.024860
v -0.000004 0.502628 0.089097
v -0.000004 0.337094 0.053573
v -0.000004 0.169152 0.032156
v -0.017681 0.504465 0.082009
v -0.017681 0.338327 0.046355
v -0.017681 0.169770 0.024860
v -0.025004 0.508902 0.064897
v -0.025004 0.341302 0.028929
v -0.025004 0.171263 0.007245
v -0.017681 0.513338 0.047785
v -0.017681 0.344277 0.011504
v -0.017681 0.172756 -0.010369
v 0.142810 0.569196 0.234437
v -0.039251 0.519382 0.339296
v 0.179082 0.609946 0.152501
v 0.078751 0.680909 0.059926
v 0.005122 0.682502 0.075203
v -0.070586 0.680661 0.048250
v -0.163285 0.656604 0.062572
v -0.004951 0.606469 0.231534
v 0.078772 0.552588 0.281241
v -0.006041 0.526083 0.326215
v 0.170256 0.648412 0.082515
v 0.134731 0.669995 0.055901
v -0.125049 0.669855 0.038892
v -0.181808 0.639416 0.126570
v -0.157884 0.609821 0.227667
v -0.112452 0.577821 0.283830
v -0.062949 0.533611 0.329983
v -0.034890 0.530874 0.325398
v -0.017968 0.572607 0.278117
v 0.002661 0.644269 0.155991
v 0.005191 0.669639 0.090533
v 0.152073 0.586591 0.247358
v -0.036123 0.531450 0.360098
v 0.188660 0.630890 0.161345
v 0.082231 0.706950 0.065527
v 0.005493 0.708414 0.081415
v -0.074061 0.706776 0.053310
v -0.170588 0.681567 0.067961
v -0.001492 0.629158 0.246970
v 0.085693 0.567275 0.298359
v -0.001716 0.538478 0.346282
v 0.178273 0.672464 0.088667
v 0.140676 0.695574 0.061172
v -0.131099 0.695569 0.043376
v -0.188713 0.663087 0.134849
v -0.161788 0.630720 0.241093
v -0.112892 0.594848 0.301803
v -0.060866 0.546755 0.350414
v -0.031134 0.545441 0.348619
v -0.013976 0.591072 0.298252
v 0.004747 0.670600 0.166894
v 0.005983 0.698423 0.098248
vt 0.162088 0.636271
vt 0.162088 0.663740
vt 0.164031 0.663740
vt 0.164031 0.636271
vt 0.164835 0.663740
vt 0.164835 0.636271
vt 0.164031 0.663740
vt 0.164031 0.636271
vt 0.162088 0.663740
vt 0.162088 0.636271
vt 0.160146 0.663740
vt 0.160146 0.636271
vt 0.159341 0.663740
vt 0.159341 0.636271
vt 0.160146 0.663740
vt 0.160146 0.636271
vt 0.160146 0.553862
vt 0.160146 0.581332
vt 0.162088 0.581332
vt 0.162088 0.553862
vt 0.160146 0.608801
vt 0.162088 0.608801
vt 0.159341 0.553862
vt 0.159341 0.581332
vt 0.159341 0.608801
vt 0.160146 0.553862
vt 0.160146 0.581332
vt 0.160146 0.608801
vt 0.162088 0.553862
vt 0.162088 0.581332
vt 0.162088 0.608801
vt 0.164031 0.553862
vt 0.164031 0.581332
vt 0.164031 0.608801
vt 0.164835 0.553862
vt 0.164835 0.581332
vt 0.164835 0.608801
vt 0.164031 0.553862
vt 0.164031 0.581332
vt 0.164031 0.608801
vt 0.192979 0.567358
vt 0.193620 0.566053
vt 0.196156 0.583638
vt 0.192979 0.582983
vt 0.190025 0.582543
vt 0.193620 0.581678
vt 0.190510 0.592793
vt 0.177990 0.589046
vt 0.188094 0.585633
vt 0.190510 0.577168
vt 0.205887 0.593568
vt 0.213843 0.600353
vt 0.164029 0.592683
vt 0.188094 0.601258
vt 0.157225 0.597362
vt 0.186650 0.605476
vt 0.189891 0.611921
vt 0.206054 0.628553
vt 0.195773 0.617938
vt 0.192441 0.601574
vt 0.186650 0.589851
vt 0.218439 0.601453
vt 0.186609 0.590817
vt 0.214504 0.602105
vt 0.159340 0.601732
vt 0.186609 0.606442
vt 0.186670 0.606875
vt 0.174099 0.606048
vt 0.208388 0.603519
vt 0.165074 0.604184
vt 0.186670 0.591250
vt 0.199945 0.605670
vt 0.193118 0.600204
vt 0.192441 0.617199
vt 0.193118 0.615829
vt 0.189345 0.616692
vt 0.189891 0.627546
vt 0.176761 0.623446
vt 0.187564 0.620867
vt 0.214686 0.635747
vt 0.162262 0.627250
vt 0.187564 0.636492
vt 0.155365 0.632290
vt 0.186322 0.640960
vt 0.155365 0.601040
vt 0.162262 0.596000
vt 0.186322 0.625335
vt 0.219933 0.636814
vt 0.186410 0.626360
vt 0.215978 0.637425
vt 0.157824 0.637004
vt 0.186410 0.641985
vt 0.173447 0.641577
vt 0.186585 0.642445
vt 0.209623 0.638889
vt 0.163951 0.639616
vt 0.186585 0.626820
vt 0.200709 0.641168
vt 0.176761 0.592196
vt 0.219933 0.605564
vt 0.215978 0.606175
vt 0.189345 0.585442
vt 0.193118 0.584579
vt 0.157824 0.605754
vt 0.163951 0.608366
vt 0.173447 0.610327
vt 0.186585 0.611195
vt 0.200709 0.609918
vt 0.186585 0.595570
vt 0.209623 0.607639
vt 0.214686 0.604497
vt 0.206054 0.597303
vt 0.195773 0.586688
vt 0.193118 0.568954
vn -0.0000 0.2510 -0.9680
vn 0.0000 0.2917 -0.9565
vn 0.7017 0.2078 -0.6815
vn 0.7020 0.1787 -0.6894
vn 0.9999 0.0030 -0.0099
vn 0.9999 0.0026 -0.0100
vn 0.7120 -0.2048 0.6717
vn 0.7123 -0.1761 0.6794
vn -0.0000 -0.2917 0.9565
vn -0.0000 -0.2510 0.9680
vn -0.7120 -0.2048 0.6717
vn -0.7123 -0.1761 0.6794
vn -0.9999 0.0030 -0.0099
vn -0.9999 0.0026 -0.0100
vn -0.7017 0.2078 -0.6815
vn -0.7020 0.1787 -0.6894
vn -0.7017 0.0301 -0.7119
vn -0.7020 0.0602 -0.7096
vn -0.0000 0.0845 -0.9964
vn 0.0000 0.0423 -0.9991
vn -0.7020 0.1199 -0.7020
vn -0.0000 0.1683 -0.9857
vn -0.9999 0.0004 -0.0103
vn -0.9999 0.0009 -0.0103
vn -0.9999 0.0017 -0.0102
vn -0.7120 -0.0297 0.7016
vn -0.7123 -0.0593 0.6994
vn -0.7123 -0.1181 0.6919
vn -0.0000 -0.0423 0.9991
vn -0.0000 -0.0845 0.9964
vn -0.0000 -0.1683 0.9857
vn 0.7120 -0.0297 0.7016
vn 0.7123 -0.0593 0.6994
vn 0.7123 -0.1181 0.6919
vn 0.9999 0.0004 -0.0103
vn 0.9999 0.0009 -0.0103
vn 0.9999 0.0017 -0.0102
vn 0.7017 0.0301 -0.7119
vn 0.7020 0.0602 -0.7096
vn 0.7020 0.1199 -0.7020
vn -0.1240 -0.7412 -0.6597
vn -0.1475 -0.7390 -0.6573
vn -0.1211 -0.7456 -0.6553
vn -0.1198 -0.7322 -0.6704
vn -0.1055 -0.7870 -0.6078
vn -0.1619 -0.7845 -0.5986
vn -0.0920 -0.8672 -0.4894
vn -0.0545 -0.8198 -0.5700
vn 0.0152 -0.9077 -0.4194
vn -0.1852 -0.8403 -0.5095
vn -0.1743 -0.8777 -0.4463
vn -0.0566 -0.9176 -0.3935
vn 0.1120 0.7666 0.6323
vn 0.0258 0.8084 0.5880
vn 0.0612 0.7102 0.7013
vn 0.1272 0.6600 0.7405
vn 0.0706 -0.9429 -0.3255
vn -0.0003 -0.8716 -0.4903
vn 0.1053 -0.9467 -0.3043
vn -0.1521 -0.8830 -0.4441
vn 0.0531 -0.7648 -0.6420
vn -0.1819 -0.6968 -0.6938
vn 0.1419 -0.9214 -0.3618
vn -0.1402 -0.8346 -0.5328
vn 0.2528 -0.7240 -0.6418
vn 0.1288 0.6011 0.7887
vn 0.1800 0.6682 0.7218
vn 0.1969 0.7586 0.6211
vn 0.0973 0.8570 0.5060
vn -0.0330 0.9004 0.4338
vn 0.2105 0.8253 0.5240
vn 0.1972 0.8674 0.4569
vn 0.0600 0.9121 0.4056
vn 0.7174 -0.6239 0.3099
vn 0.9142 -0.4005 -0.0624
vn 0.9194 -0.3815 -0.0961
vn 0.7324 -0.6141 0.2941
vn -0.0878 0.9375 0.3367
vn 0.0051 0.8982 0.4395
vn -0.1226 0.9439 0.3067
vn 0.1742 0.8773 0.4473
vn 0.1869 0.7525 0.6315
vn -0.0453 0.8585 0.5108
vn -0.1556 0.9272 0.3406
vn 0.1602 0.8406 0.5174
vn -0.2495 0.7698 0.5875
vn 0.5082 -0.7396 0.4412
vn 0.5077 -0.7401 0.4409
vn -0.7760 -0.0826 -0.6252
vn -0.9645 -0.2461 -0.0962
vn -0.9649 -0.2504 -0.0787
vn -0.7870 -0.0883 -0.6107
vn 0.4067 -0.8064 0.4293
vn 0.4123 -0.8039 0.4286
vn 0.3424 -0.8324 0.4358
vn 0.8228 -0.1469 -0.5490
vn 0.7933 -0.1210 -0.5967
vn 0.3167 0.1163 -0.9414
vn 0.2876 0.1253 -0.9495
vn -0.1118 0.2219 -0.9686
vn -0.1122 0.2220 -0.9686
vn 0.0715 0.2327 -0.9699
vn 0.0615 0.2329 -0.9705
vn 0.2244 0.2115 -0.9513
vn 0.2277 0.2118 -0.9504
vn -0.2158 0.1209 -0.9689
vn -0.2162 0.1208 -0.9688
vn -0.8916 -0.3639 0.2695
vn -0.8837 -0.3714 0.2848
vn -0.8011 -0.4439 0.4014
vn -0.7999 -0.4467 0.4008
vn -0.7065 -0.5564 0.4374
vn -0.6865 -0.5751 0.4450
vn -0.5863 -0.6560 0.4752
usemtl tiny_treats_1
s 1
f 19/1/1 2/2/2 4/3/3 20/4/4
f 20/4/4 4/3/3 6/5/5 23/6/6
f 23/6/6 6/5/5 8/7/7 26/8/8
f 26/8/8 8/7/7 10/9/9 29/10/10
f 29/10/10 10/9/9 12/11/11 32/12/12
f 32/12/12 12/11/11 14/13/13 35/14/14
f 35/14/14 14/13/13 16/15/15 38/16/16
f 38/16/16 16/15/15 2/2/2 19/1/1
f 15/17/17 40/18/18 17/19/19 1/20/20
f 40/18/18 39/21/21 18/22/22 17/19/19
f 39/21/21 38/16/16 19/1/1 18/22/22
f 13/23/23 37/24/24 40/18/18 15/17/17
f 37/24/24 36/25/25 39/21/21 40/18/18
f 36/25/25 35/14/14 38/16/16 39/21/21
f 11/26/26 34/27/27 37/24/24 13/23/23
f 34/27/27 33/28/28 36/25/25 37/24/24
f 33/28/28 32/12/12 35/14/14 36/25/25
f 9/29/29 31/30/30 34/27/27 11/26/26
f 31/30/30 30/31/31 33/28/28 34/27/27
f 30/31/31 29/10/10 32/12/12 33/28/28
f 7/32/32 28/33/33 31/30/30 9/29/29
f 28/33/33 27/34/34 30/31/31 31/30/30
f 27/34/34 26/8/8 29/10/10 30/31/31
f 5/35/35 25/36/36 28/33/33 7/32/32
f 25/36/36 24/37/37 27/34/34 28/33/33
f 24/37/37 23/6/6 26/8/8 27/34/34
f 3/38/38 22/39/39 25/36/36 5/35/35
f 22/39/39 21/40/40 24/37/37 25/36/36
f 21/40/40 20/4/4 23/6/6 24/37/37
f 1/20/20 17/19/19 22/39/39 3/38/38
f 17/19/19 18/22/22 21/40/40 22/39/39
f 18/22/22 19/1/1 20/4/4 21/40/40
f 58/41/41 42/42/42 57/43/43
f 58/44/41 50/45/44 42/46/42
f 59/47/45 49/48/46 50/45/44 58/44/41
f 48/49/47 59/50/45 56/51/48 55/52/49
f 41/53/50 49/48/46 59/47/45 48/54/47
f 43/55/51 41/53/50 48/54/47 60/56/52
f 80/57/53 77/58/54 78/59/55 79/60/56
f 60/61/52 48/49/47 55/52/49 54/62/57
f 61/63/58 60/61/52 54/62/57 47/64/59
f 51/65/60 43/55/51 60/56/52 61/66/58
f 61/66/58 45/67/61 44/68/62
f 61/63/58 47/64/59 53/69/63
f 51/65/60 61/66/58 52/70/64
f 52/70/64 61/66/58 44/68/62
f 45/71/61 61/63/58 46/72/65
f 46/72/65 61/63/58 53/69/63
f 79/60/56 78/59/55 63/73/66
f 79/74/56 63/75/66 71/76/67
f 80/77/53 79/74/56 71/76/67 70/78/68
f 69/79/69 76/80/70 77/58/54 80/57/53
f 62/81/71 69/82/69 80/77/53 70/78/68
f 64/83/72 81/84/73 69/82/69 62/81/71
f 41/53/74 43/55/75 64/85/76 62/86/77
f 81/87/73 75/88/78 76/80/70 69/79/69
f 82/89/79 68/90/80 75/88/78 81/87/73
f 72/91/81 82/92/79 81/84/73 64/83/72
f 82/92/79 65/93/82 66/94/83
f 82/89/79 74/95/84 68/90/80
f 72/91/81 73/96/85 82/92/79
f 73/96/85 65/93/82 82/92/79
f 66/97/83 67/98/86 82/89/79
f 67/98/86 74/95/84 82/89/79
f 41/53/74 62/86/77 70/99/87 49/48/88
f 47/64/89 54/62/90 75/100/91 68/101/92
f 49/48/88 70/99/87 71/102/93 50/45/94
f 42/46/95 50/45/94 71/102/93 63/103/95
f 43/55/75 51/65/96 72/104/97 64/85/76
f 51/65/96 52/70/98 73/105/99 72/104/97
f 52/70/98 44/68/100 65/106/101 73/105/99
f 44/68/100 45/67/102 66/107/103 65/106/101
f 45/71/102 46/72/104 67/108/105 66/109/103
f 46/72/104 53/69/106 74/110/107 67/108/105
f 53/69/106 47/64/89 68/101/92 74/110/107
f 54/62/90 55/52/108 76/111/109 75/100/91
f 55/52/108 56/51/110 77/112/111 76/111/109
f 56/51/110 57/43/112 78/113/113 77/112/111
f 59/50/45 58/41/41 57/43/43 56/51/48
f 57/43/112 42/42/114 63/114/114 78/113/113
