# Blender v3.4.1 OBJ File: 'Tiny_Treats_House_Plants_ASSETS_EXPORT.blend'
# www.blender.org
mtllib monstera_leaf_small_A.mtl
o monstera_leaf_small_A
v -0.000004 0.000000 -0.025000
v -0.000004 0.598088 0.301912
v 0.017674 0.000000 -0.017678
v 0.017674 0.591925 0.305865
v 0.024996 0.000000 0.000000
v 0.024996 0.577045 0.315410
v 0.017674 0.000000 0.017678
v 0.017674 0.562166 0.324955
v -0.000004 0.000000 0.025000
v -0.000004 0.556003 0.328908
v -0.017681 0.000000 0.017678
v -0.017681 0.562166 0.324955
v -0.025004 0.000000 0.000000
v -0.025004 0.577045 0.315410
v -0.017681 0.000000 -0.017678
v -0.017681 0.591925 0.305865
v -0.000004 0.175873 -0.002890
v -0.000004 0.340801 0.062062
v -0.000004 0.484521 0.165815
v 0.017674 0.479528 0.171171
v 0.017674 0.337289 0.068487
v 0.017674 0.174061 0.004204
v 0.024996 0.467474 0.184101
v 0.024996 0.328810 0.083999
v 0.024996 0.169685 0.021332
v 0.017674 0.455419 0.197032
v 0.017674 0.320332 0.099510
v 0.017674 0.165310 0.038459
v -0.000004 0.450426 0.202388
v -0.000004 0.316820 0.105935
v -0.000004 0.163497 0.045554
v -0.017681 0.455419 0.197032
v -0.017681 0.320332 0.099510
v -0.017681 0.165310 0.038459
v -0.025004 0.467474 0.184101
v -0.025004 0.328810 0.083999
v -0.025004 0.169685 0.021332
v -0.017681 0.479528 0.171171
v -0.017681 0.337289 0.068487
v -0.017681 0.174061 0.004204
v 0.173324 0.480901 0.379418
v 0.144177 0.419017 0.408568
v 0.091095 0.305903 0.433607
v 0.111373 0.358439 0.424991
v 0.176376 0.540193 0.341552
v 0.066172 0.619105 0.283835
v 0.004960 0.612695 0.298770
v -0.056928 0.626820 0.280403
v -0.140513 0.598584 0.281034
v -0.086292 0.378935 0.372062
v 0.015533 0.332782 0.411378
v 0.015687 0.472683 0.365476
v 0.101718 0.320191 0.432648
v 0.150463 0.588037 0.297995
v 0.113838 0.611471 0.279729
v -0.104475 0.624033 0.272705
v -0.162878 0.538831 0.304378
v -0.145809 0.447032 0.330297
v 0.068372 0.308221 0.428618
v 0.086545 0.314808 0.428255
v 0.065960 0.347585 0.417229
v 0.031723 0.405732 0.393613
v 0.008019 0.538006 0.343536
v 0.005478 0.596248 0.302833
v 0.174714 0.487351 0.398024
v 0.143354 0.420751 0.426638
v 0.089076 0.300523 0.450546
v 0.109468 0.355711 0.442361
v 0.180280 0.551927 0.359093
v 0.068584 0.636097 0.300550
v 0.004875 0.629153 0.315829
v -0.058869 0.644376 0.297353
v -0.146095 0.614838 0.296978
v -0.094193 0.379169 0.387118
v 0.010789 0.329031 0.427572
v 0.010058 0.480098 0.388485
v 0.099798 0.315391 0.449740
v 0.155283 0.603428 0.314535
v 0.118005 0.628301 0.296009
v -0.108121 0.641771 0.289226
v -0.170696 0.550789 0.319438
v -0.154960 0.452315 0.344839
v 0.065650 0.302967 0.445366
v 0.083523 0.308020 0.450846
v 0.061531 0.343052 0.439726
v 0.025654 0.407096 0.415961
v 0.004867 0.552877 0.366357
v 0.004797 0.616986 0.325514
vt 0.162088 0.636271
vt 0.162088 0.663740
vt 0.164031 0.663740
vt 0.164031 0.636271
vt 0.164835 0.663740
vt 0.164835 0.636271
vt 0.164031 0.663740
vt 0.164031 0.636271
vt 0.162088 0.663740
vt 0.162088 0.636271
vt 0.160146 0.663740
vt 0.160146 0.636271
vt 0.159341 0.663740
vt 0.159341 0.636271
vt 0.160146 0.663740
vt 0.160146 0.636271
vt 0.160146 0.553862
vt 0.160146 0.581332
vt 0.162088 0.581332
vt 0.162088 0.553862
vt 0.160146 0.608801
vt 0.162088 0.608801
vt 0.159341 0.553862
vt 0.159341 0.581332
vt 0.159341 0.608801
vt 0.160146 0.553862
vt 0.160146 0.581332
vt 0.160146 0.608801
vt 0.162088 0.553862
vt 0.162088 0.581332
vt 0.162088 0.608801
vt 0.164031 0.553862
vt 0.164031 0.581332
vt 0.164031 0.608801
vt 0.164835 0.553862
vt 0.164835 0.581332
vt 0.164835 0.608801
vt 0.164031 0.553862
vt 0.164031 0.581332
vt 0.164031 0.608801
vt 0.173846 0.565372
vt 0.173149 0.564303
vt 0.176640 0.579484
vt 0.173846 0.580997
vt 0.171601 0.582519
vt 0.173149 0.579928
vt 0.176660 0.569310
vt 0.183702 0.581174
vt 0.176660 0.584935
vt 0.170581 0.587800
vt 0.182760 0.594791
vt 0.163575 0.598184
vt 0.157937 0.603528
vt 0.158145 0.601530
vt 0.184815 0.600352
vt 0.186373 0.605554
vt 0.184815 0.584727
vt 0.182760 0.579166
vt 0.203029 0.585247
vt 0.211909 0.589126
vt 0.183693 0.613819
vt 0.204780 0.619018
vt 0.184567 0.614858
vt 0.177285 0.603372
vt 0.186373 0.589929
vt 0.215304 0.599717
vt 0.186613 0.591166
vt 0.210773 0.603553
vt 0.162842 0.603772
vt 0.186613 0.606791
vt 0.186742 0.606966
vt 0.176422 0.605983
vt 0.204974 0.605445
vt 0.168746 0.604534
vt 0.186742 0.591341
vt 0.197367 0.606507
vt 0.174260 0.599231
vt 0.177142 0.613189
vt 0.173503 0.598109
vt 0.174260 0.614856
vt 0.173503 0.613734
vt 0.171950 0.616525
vt 0.177285 0.618997
vt 0.170980 0.622178
vt 0.183693 0.629444
vt 0.163602 0.633410
vt 0.156827 0.639066
vt 0.186860 0.641012
vt 0.185683 0.635405
vt 0.157682 0.637061
vt 0.185683 0.619780
vt 0.213974 0.623212
vt 0.213974 0.591962
vt 0.217046 0.603546
vt 0.186860 0.625387
vt 0.217046 0.634796
vt 0.186800 0.626726
vt 0.212011 0.638964
vt 0.161644 0.639198
vt 0.186800 0.642351
vt 0.175761 0.641485
vt 0.186799 0.642541
vt 0.205767 0.640984
vt 0.167700 0.639952
vt 0.186799 0.626916
vt 0.197767 0.642080
vt 0.163602 0.602160
vt 0.170980 0.590928
vt 0.157682 0.605811
vt 0.184567 0.583608
vt 0.204780 0.587768
vt 0.171950 0.585275
vt 0.173503 0.582484
vt 0.161644 0.607948
vt 0.156827 0.607816
vt 0.167700 0.608702
vt 0.175761 0.610235
vt 0.186799 0.611291
vt 0.197767 0.610830
vt 0.186799 0.595666
vt 0.205767 0.609734
vt 0.212011 0.607714
vt 0.177142 0.581939
vt 0.173503 0.566859
vn 0.0000 0.6819 -0.7315
vn 0.0000 0.7678 -0.6407
vn 0.6894 0.5562 -0.4641
vn 0.6922 0.4921 -0.5279
vn 0.9995 0.0236 -0.0197
vn 0.9995 0.0208 -0.0223
vn 0.7199 -0.5329 0.4447
vn 0.7226 -0.4713 0.5056
vn -0.0000 -0.7678 0.6407
vn -0.0000 -0.6819 0.7315
vn -0.7199 -0.5329 0.4447
vn -0.7226 -0.4713 0.5056
vn -0.9995 0.0236 -0.0197
vn -0.9995 0.0208 -0.0223
vn -0.6894 0.5562 -0.4641
vn -0.6922 0.4921 -0.5279
vn -0.6894 0.0904 -0.7187
vn -0.6922 0.1786 -0.6992
vn 0.0000 0.2475 -0.9689
vn -0.0000 0.1247 -0.9922
vn -0.6922 0.3461 -0.6333
vn 0.0000 0.4796 -0.8775
vn -0.9995 0.0038 -0.0304
vn -0.9995 0.0075 -0.0295
vn -0.9995 0.0146 -0.0267
vn -0.7199 -0.0866 0.6886
vn -0.7226 -0.1711 0.6697
vn -0.7226 -0.3315 0.6065
vn -0.0000 -0.1247 0.9922
vn -0.0000 -0.2475 0.9689
vn -0.0000 -0.4796 0.8775
vn 0.7199 -0.0866 0.6886
vn 0.7226 -0.1711 0.6697
vn 0.7226 -0.3315 0.6065
vn 0.9995 0.0038 -0.0304
vn 0.9995 0.0075 -0.0295
vn 0.9995 0.0146 -0.0267
vn 0.6894 0.0904 -0.7187
vn 0.6922 0.1786 -0.6992
vn 0.6922 0.3461 -0.6333
vn 0.2287 -0.3169 -0.9205
vn 0.1493 -0.7098 -0.6884
vn -0.0346 -0.7270 -0.6858
vn 0.2772 -0.2415 -0.9300
vn 0.1957 -0.2717 -0.9423
vn 0.2063 -0.2742 -0.9393
vn 0.2041 -0.2783 -0.9386
vn 0.1953 -0.3351 -0.9217
vn 0.1472 -0.3804 -0.9130
vn 0.0132 -0.5215 -0.8531
vn 0.0815 -0.4241 -0.9020
vn 0.1652 -0.3583 -0.9189
vn 0.1061 -0.4513 -0.8860
vn 0.2410 -0.3197 -0.9164
vn 0.2360 -0.2813 -0.9301
vn -0.2019 0.2852 0.9370
vn -0.2852 0.2635 0.9216
vn -0.2742 0.1734 0.9459
vn -0.1947 0.2016 0.9599
vn 0.1962 -0.3741 -0.9064
vn 0.0384 -0.4434 -0.8955
vn 0.1497 -0.4835 -0.8624
vn -0.0375 -0.6383 -0.7688
vn 0.0231 -0.2391 -0.9707
vn -0.1463 -0.3731 -0.9162
vn 0.1297 -0.4467 -0.8852
vn -0.0729 -0.6407 -0.7643
vn 0.1745 -0.3256 -0.9293
vn -0.1407 0.0194 0.9899
vn -0.2710 0.0648 0.9604
vn -0.0566 -0.0817 0.9951
vn -0.0634 0.1834 0.9810
vn -0.1126 0.2674 0.9570
vn -0.1035 0.3503 0.9309
vn 0.0253 0.4995 0.8659
vn -0.1091 0.4289 0.8968
vn -0.1716 0.3258 0.9297
vn -0.0466 0.3959 0.9171
vn -0.2764 0.2493 0.9282
vn -0.8982 -0.0906 -0.4302
vn -0.7935 -0.5226 -0.3119
vn -0.8189 -0.4732 -0.3246
vn -0.8902 -0.0151 -0.4553
vn -0.2397 0.3460 0.9071
vn -0.0306 0.5728 0.8191
vn -0.1954 0.4704 0.8605
vn 0.0826 0.6283 0.7736
vn 0.1580 0.5466 0.8223
vn 0.0178 0.6226 0.7824
vn -0.1689 0.4860 0.8575
vn 0.1203 0.6807 0.7227
vn -0.1610 0.5003 0.8507
vn 0.9259 -0.3735 0.0569
vn 0.9038 -0.4228 0.0665
vn 0.8997 -0.4319 0.0636
vn 0.9467 -0.3170 0.0575
vn 0.9682 -0.2498 -0.0122
vn 0.9618 -0.2739 0.0016
vn -0.5046 -0.8272 -0.2473
vn -0.3262 -0.9048 -0.2737
vn -0.3248 -0.9032 -0.2807
vn -0.5078 -0.8252 -0.2474
vn 0.8016 -0.5919 -0.0843
vn 0.9280 -0.3726 0.0048
vn 0.8831 -0.4681 -0.0326
vn 0.9722 0.0242 -0.2329
vn 0.7882 0.3310 -0.5188
vn 0.8035 0.3151 -0.5051
vn 0.9755 0.0112 -0.2199
vn 0.3452 0.6131 -0.7106
vn 0.3535 0.6098 -0.7093
vn -0.0939 0.7028 -0.7051
vn -0.0999 0.7030 -0.7042
vn 0.0527 0.7175 -0.6946
vn 0.0640 0.7170 -0.6941
vn 0.2141 0.6896 -0.6918
vn 0.2168 0.6894 -0.6912
vn -0.2447 0.6303 -0.7367
vn -0.2094 0.6409 -0.7386
vn -0.7310 0.3187 -0.6034
vn -0.6851 0.3686 -0.6283
vn -0.1595 -0.9362 -0.3132
vn -0.0311 -0.9519 -0.3049
usemtl tiny_treats_1
s 1
f 19/1/1 2/2/2 4/3/3 20/4/4
f 20/4/4 4/3/3 6/5/5 23/6/6
f 23/6/6 6/5/5 8/7/7 26/8/8
f 26/8/8 8/7/7 10/9/9 29/10/10
f 29/10/10 10/9/9 12/11/11 32/12/12
f 32/12/12 12/11/11 14/13/13 35/14/14
f 35/14/14 14/13/13 16/15/15 38/16/16
f 38/16/16 16/15/15 2/2/2 19/1/1
f 15/17/17 40/18/18 17/19/19 1/20/20
f 40/18/18 39/21/21 18/22/22 17/19/19
f 39/21/21 38/16/16 19/1/1 18/22/22
f 13/23/23 37/24/24 40/18/18 15/17/17
f 37/24/24 36/25/25 39/21/21 40/18/18
f 36/25/25 35/14/14 38/16/16 39/21/21
f 11/26/26 34/27/27 37/24/24 13/23/23
f 34/27/27 33/28/28 36/25/25 37/24/24
f 33/28/28 32/12/12 35/14/14 36/25/25
f 9/29/29 31/30/30 34/27/27 11/26/26
f 31/30/30 30/31/31 33/28/28 34/27/27
f 30/31/31 29/10/10 32/12/12 33/28/28
f 7/32/32 28/33/33 31/30/30 9/29/29
f 28/33/33 27/34/34 30/31/31 31/30/30
f 27/34/34 26/8/8 29/10/10 30/31/31
f 5/35/35 25/36/36 28/33/33 7/32/32
f 25/36/36 24/37/37 27/34/34 28/33/33
f 24/37/37 23/6/6 26/8/8 27/34/34
f 3/38/38 22/39/39 25/36/36 5/35/35
f 22/39/39 21/40/40 24/37/37 25/36/36
f 21/40/40 20/4/4 23/6/6 24/37/37
f 1/20/20 17/19/19 22/39/39 3/38/38
f 17/19/19 18/22/22 21/40/40 22/39/39
f 18/22/22 19/1/1 20/4/4 21/40/40
f 60/41/41 43/42/42 59/43/43
f 60/44/41 53/45/44 43/46/42
f 61/47/45 60/41/41 59/43/43 51/48/46
f 61/49/45 44/50/47 53/45/44 60/44/41
f 62/51/48 42/52/49 44/50/47 61/49/45
f 45/53/50 41/54/51 52/55/52 63/56/53
f 52/57/52 62/58/48 50/59/54 58/60/55
f 41/54/51 42/52/49 62/51/48 52/55/52
f 86/61/56 74/62/57 75/63/58 85/64/59
f 63/65/53 52/57/52 58/60/55 57/66/60
f 64/67/61 63/65/53 57/66/60 49/68/62
f 54/69/63 45/53/50 63/56/53 64/70/61
f 64/70/61 47/71/64 46/72/65
f 64/67/61 49/68/62 56/73/66
f 54/69/63 64/70/61 55/74/67
f 55/74/67 64/70/61 46/72/65
f 47/75/64 64/67/61 48/76/68
f 48/76/68 64/67/61 56/73/66
f 84/77/69 83/78/70 67/79/71
f 84/80/69 67/81/71 77/82/72
f 85/64/59 75/63/58 83/78/70 84/77/69
f 85/83/59 84/80/69 77/82/72 68/84/73
f 86/85/56 85/83/59 68/84/73 66/86/74
f 69/87/75 87/88/76 76/89/77 65/90/78
f 76/91/77 82/92/79 74/62/57 86/61/56
f 65/90/78 76/89/77 86/85/56 66/86/74
f 57/66/80 58/60/81 82/93/82 81/94/83
f 87/95/76 81/96/84 82/92/79 76/91/77
f 88/97/85 73/98/86 81/96/84 87/95/76
f 78/99/87 88/100/85 87/88/76 69/87/75
f 88/100/85 70/101/88 71/102/89
f 88/97/85 80/103/90 73/98/86
f 78/99/87 79/104/91 88/100/85
f 79/104/91 70/101/88 88/100/85
f 71/105/89 72/106/92 88/97/85
f 72/106/92 80/103/90 88/97/85
f 62/58/48 61/47/45 51/48/46 50/59/54
f 44/50/93 42/52/94 66/107/95 68/108/96
f 42/52/94 41/54/97 65/109/98 66/107/95
f 50/59/99 51/48/100 75/110/101 74/111/102
f 43/46/103 53/45/104 77/112/105 67/113/103
f 53/45/104 44/50/93 68/108/96 77/112/105
f 45/53/106 54/69/107 78/114/108 69/115/109
f 54/69/107 55/74/110 79/116/111 78/114/108
f 55/74/110 46/72/112 70/117/113 79/116/111
f 46/72/112 47/71/114 71/118/115 70/117/113
f 47/75/114 48/76/116 72/119/117 71/120/115
f 48/76/116 56/73/118 80/121/119 72/119/117
f 56/73/118 49/68/120 73/122/121 80/121/119
f 49/68/120 57/66/80 81/94/83 73/122/121
f 41/54/97 45/53/106 69/115/109 65/109/98
f 58/60/81 50/59/99 74/111/102 82/93/82
f 51/48/100 59/43/43 83/123/122 75/110/101
f 59/43/43 43/42/42 67/124/123 83/123/122
