# Blender v3.4.1 OBJ File: 'Tiny_Treats_House_Plants_ASSETS_EXPORT.blend'
# www.blender.org
mtllib pot_A_small.mtl
o pot_A_small
v -0.000000 0.000401 -0.000000
v 0.145667 0.250251 -0.145667
v 0.198985 0.250251 -0.053318
v 0.198985 0.250251 0.053318
v 0.145667 0.250251 0.145667
v 0.053318 0.250251 0.198985
v -0.053318 0.250251 0.198985
v -0.145667 0.250251 0.145667
v -0.198985 0.250251 0.053318
v -0.198985 0.250251 -0.053318
v -0.145667 0.250251 -0.145667
v -0.053318 0.250251 -0.198985
v 0.053318 0.250251 -0.198985
v 0.178823 0.026593 -0.047916
v 0.178823 0.026593 0.047916
v 0.130908 0.026593 0.130908
v 0.047915 0.026593 0.178823
v -0.047916 0.026593 0.178823
v -0.130908 0.026593 0.130908
v -0.178823 0.026593 0.047916
v -0.178823 0.026593 -0.047916
v -0.130908 0.026593 -0.130908
v -0.047916 0.026593 -0.178823
v 0.047915 0.026593 -0.178823
v 0.130908 0.026593 -0.130908
v 0.178385 0.275276 -0.178385
v 0.243678 0.275276 -0.065293
v 0.243678 0.275276 0.065293
v 0.178385 0.275276 0.178385
v 0.065293 0.275276 0.243678
v -0.065293 0.275276 0.243678
v -0.178385 0.275276 0.178385
v -0.243678 0.275276 0.065293
v -0.243678 0.275276 -0.065293
v -0.178385 0.275276 -0.178385
v -0.065294 0.275276 -0.243678
v 0.065293 0.275276 -0.243678
v -0.000000 0.300301 0.000000
v 0.115100 0.000401 -0.115100
v 0.157229 0.000401 -0.042129
v 0.157229 0.000401 0.042129
v 0.115100 0.000401 0.115100
v 0.042129 0.000401 0.157229
v -0.042129 0.000401 0.157229
v -0.115100 0.000401 0.115100
v -0.157229 0.000401 0.042129
v -0.157229 0.000401 -0.042129
v -0.115100 0.000401 -0.115100
v -0.042129 0.000401 -0.157229
v 0.042129 0.000401 -0.157229
v 0.165113 0.300301 -0.044242
v 0.120871 0.300301 -0.120871
v 0.165113 0.300301 0.044242
v 0.120871 0.300301 0.120871
v 0.044242 0.300301 0.165113
v -0.044242 0.300301 0.165113
v -0.120871 0.300301 0.120871
v -0.165113 0.300301 0.044242
v -0.165113 0.300301 -0.044242
v -0.120871 0.300301 -0.120871
v -0.044242 0.300301 -0.165113
v 0.044242 0.300301 -0.165113
v 0.137744 0.400076 -0.137744
v 0.122599 0.380155 -0.122599
v 0.167474 0.380155 -0.044874
v 0.188161 0.400076 -0.050418
v 0.167474 0.380155 0.044875
v 0.188161 0.400076 0.050418
v 0.122599 0.380155 0.122599
v 0.137744 0.400076 0.137744
v 0.044874 0.380155 0.167474
v 0.050418 0.400076 0.188161
v -0.044875 0.380155 0.167474
v -0.050418 0.400076 0.188161
v -0.122599 0.380155 0.122599
v -0.137744 0.400076 0.137744
v -0.167474 0.380155 0.044874
v -0.188161 0.400076 0.050418
v -0.167474 0.380155 -0.044874
v -0.188161 0.400076 -0.050418
v -0.122599 0.380155 -0.122599
v -0.137744 0.400076 -0.137744
v -0.044875 0.380155 -0.167474
v -0.050418 0.400076 -0.188161
v 0.044874 0.380155 -0.167474
v 0.050418 0.400076 -0.188161
v 0.231110 0.399924 -0.061926
v 0.250000 0.379889 -0.066987
v 0.183013 0.379889 -0.183013
v 0.169184 0.399924 -0.169184
v 0.231110 0.399924 0.061926
v 0.250000 0.379889 0.066987
v 0.169184 0.399924 0.169184
v 0.183013 0.379889 0.183013
v 0.061926 0.399924 0.231110
v 0.066987 0.379889 0.250000
v -0.061926 0.399924 0.231110
v -0.066987 0.379889 0.250000
v -0.169184 0.399924 0.169184
v -0.183013 0.379889 0.183013
v -0.231110 0.399924 0.061926
v -0.250000 0.379889 0.066987
v -0.231110 0.399924 -0.061926
v -0.250000 0.379889 -0.066987
v -0.169184 0.399924 -0.169184
v -0.183013 0.379889 -0.183013
v -0.061926 0.399924 -0.231110
v -0.066987 0.379889 -0.250000
v 0.061926 0.399924 -0.231110
v 0.066987 0.379889 -0.250000
vt 0.721936 0.850114
vt 0.722608 0.855693
vt 0.715488 0.855694
vt 0.714996 0.850114
vt 0.703156 0.855693
vt 0.702976 0.850114
vt 0.689095 0.850114
vt 0.688915 0.855694
vt 0.676583 0.855694
vt 0.677075 0.850114
vt 0.669463 0.855693
vt 0.670135 0.850114
vt 0.669463 0.855693
vt 0.670135 0.850114
vt 0.676583 0.855693
vt 0.677075 0.850114
vt 0.688915 0.855694
vt 0.689095 0.850114
vt 0.703156 0.855694
vt 0.702976 0.850114
vt 0.721936 0.850114
vt 0.722608 0.855694
vt 0.701291 0.822649
vt 0.701703 0.847552
vt 0.711519 0.847552
vt 0.710394 0.822649
vt 0.690780 0.822649
vt 0.690368 0.847552
vt 0.681677 0.822649
vt 0.680552 0.847552
vt 0.676422 0.822649
vt 0.674885 0.847552
vt 0.676422 0.822649
vt 0.674885 0.847552
vt 0.681677 0.822649
vt 0.680552 0.847552
vt 0.690780 0.822649
vt 0.690368 0.847552
vt 0.701291 0.822649
vt 0.701703 0.847552
vt 0.710394 0.822649
vt 0.711519 0.847552
vt 0.715649 0.822649
vt 0.717186 0.847552
vt 0.715649 0.822649
vt 0.717186 0.847552
vt 0.708660 0.808249
vt 0.710394 0.811016
vt 0.715649 0.811016
vt 0.713281 0.808249
vt 0.715649 0.811016
vt 0.713281 0.808249
vt 0.710394 0.811016
vt 0.708660 0.808249
vt 0.701291 0.811016
vt 0.700656 0.808249
vt 0.690780 0.811016
vt 0.691415 0.808249
vt 0.681677 0.811016
vt 0.683411 0.808249
vt 0.676422 0.811016
vt 0.678790 0.808249
vt 0.676422 0.811016
vt 0.678790 0.808249
vt 0.681677 0.811016
vt 0.683411 0.808249
vt 0.690780 0.811016
vt 0.691415 0.808249
vt 0.701291 0.811016
vt 0.700656 0.808249
vt 0.701703 0.824286
vt 0.702976 0.826849
vt 0.714996 0.826849
vt 0.711519 0.824286
vt 0.690368 0.824286
vt 0.689095 0.826849
vt 0.680552 0.824286
vt 0.677075 0.826849
vt 0.674885 0.824286
vt 0.670135 0.826849
vt 0.674885 0.824286
vt 0.670135 0.826849
vt 0.680552 0.824286
vt 0.677075 0.826849
vt 0.690368 0.824286
vt 0.689095 0.826849
vt 0.701703 0.824286
vt 0.702976 0.826849
vt 0.711519 0.824286
vt 0.714996 0.826849
vt 0.717186 0.824286
vt 0.721936 0.826849
vt 0.717186 0.824286
vt 0.721936 0.826849
vt 0.715488 0.855693
vt 0.714996 0.850114
vt 0.720600 0.872443
vt 0.720600 0.872443
vt 0.716035 0.872572
vt 0.716035 0.872572
vt 0.714018 0.872443
vt 0.710676 0.872572
vt 0.702618 0.872443
vt 0.701394 0.872572
vt 0.689453 0.872443
vt 0.690677 0.872572
vt 0.678053 0.872443
vt 0.681395 0.872572
vt 0.671471 0.872443
vt 0.676036 0.872572
vt 0.671471 0.872443
vt 0.676036 0.872572
vt 0.678053 0.872443
vt 0.681395 0.872572
vt 0.689453 0.872443
vt 0.690677 0.872572
vt 0.702618 0.872443
vt 0.701394 0.872572
vt 0.709067 0.841130
vt 0.700805 0.841130
vt 0.700738 0.840126
vt 0.708883 0.840126
vt 0.696036 0.796616
vt 0.708660 0.796616
vt 0.713281 0.796616
vt 0.713281 0.796616
vt 0.708660 0.796616
vt 0.700656 0.796616
vt 0.691415 0.796616
vt 0.683411 0.796616
vt 0.678790 0.796616
vt 0.678790 0.796616
vt 0.683411 0.796616
vt 0.691415 0.796616
vt 0.700656 0.796616
vt 0.946036 0.668251
vt 0.963585 0.605751
vt 0.958883 0.605751
vt 0.963585 0.605751
vt 0.958883 0.605751
vt 0.950738 0.605751
vt 0.941333 0.605751
vt 0.933188 0.605751
vt 0.928486 0.605751
vt 0.928486 0.605751
vt 0.933188 0.605751
vt 0.941333 0.605751
vt 0.950738 0.605751
vt 0.713836 0.841130
vt 0.713836 0.841130
vt 0.713585 0.840126
vt 0.713585 0.840126
vt 0.709067 0.841130
vt 0.708883 0.840126
vt 0.700805 0.841130
vt 0.700738 0.840126
vt 0.691266 0.841130
vt 0.691333 0.840126
vt 0.683004 0.841130
vt 0.683188 0.840126
vt 0.678235 0.841130
vt 0.678486 0.840126
vt 0.678235 0.841130
vt 0.678486 0.840126
vt 0.683004 0.841130
vt 0.683188 0.840126
vt 0.691266 0.841130
vt 0.691333 0.840126
vt 0.714018 0.872443
vt 0.710676 0.872572
vt 0.722608 0.886943
vt 0.715488 0.886944
vt 0.715868 0.888008
vt 0.722450 0.888008
vt 0.722608 0.886943
vt 0.722736 0.888008
vt 0.722736 0.888008
vt 0.715488 0.886944
vt 0.722450 0.888008
vt 0.715868 0.888008
vt 0.703156 0.886943
vt 0.715086 0.888008
vt 0.703686 0.888008
vt 0.688915 0.886943
vt 0.702618 0.888008
vt 0.689453 0.888008
vt 0.676583 0.886944
vt 0.688385 0.888008
vt 0.676985 0.888008
vt 0.669463 0.886943
vt 0.676203 0.888008
vt 0.669621 0.888008
vt 0.669463 0.886943
vt 0.669335 0.888008
vt 0.669335 0.888008
vt 0.676583 0.886943
vt 0.669621 0.888008
vt 0.676203 0.888008
vt 0.688915 0.886944
vt 0.676985 0.888008
vt 0.688385 0.888008
vt 0.703156 0.886944
vt 0.689453 0.888008
vt 0.702618 0.888008
vt 0.703686 0.888008
vt 0.715086 0.888008
vt 0.709067 0.872380
vt 0.713836 0.872380
vt 0.713899 0.872632
vt 0.709113 0.872632
vt 0.713836 0.872380
vt 0.713899 0.872632
vt 0.709067 0.872380
vt 0.709113 0.872632
vt 0.700805 0.872380
vt 0.700822 0.872632
vt 0.691266 0.872380
vt 0.691249 0.872632
vt 0.683004 0.872380
vt 0.682958 0.872632
vt 0.678235 0.872380
vt 0.678172 0.872632
vt 0.678235 0.872380
vt 0.678172 0.872632
vt 0.683004 0.872380
vt 0.682958 0.872632
vt 0.691266 0.872380
vt 0.691249 0.872632
vt 0.700805 0.872380
vt 0.700822 0.872632
vn 0.9640 -0.0624 0.2583
vn 0.9125 0.3279 0.2445
vn 0.6680 0.3279 0.6680
vn 0.7057 -0.0624 0.7057
vn 0.2445 0.3279 0.9125
vn 0.2583 -0.0624 0.9640
vn -0.2583 -0.0624 0.9640
vn -0.2445 0.3279 0.9125
vn -0.6680 0.3279 0.6680
vn -0.7057 -0.0624 0.7057
vn -0.9125 0.3279 0.2445
vn -0.9640 -0.0624 0.2583
vn -0.9125 0.3279 -0.2445
vn -0.9640 -0.0624 -0.2583
vn -0.6680 0.3279 -0.6680
vn -0.7057 -0.0624 -0.7057
vn -0.2445 0.3279 -0.9125
vn -0.2583 -0.0624 -0.9640
vn 0.2445 0.3279 -0.9125
vn 0.2583 -0.0624 -0.9640
vn 0.9640 -0.0624 -0.2583
vn 0.9125 0.3279 -0.2445
vn 0.2402 -0.3724 -0.8964
vn 0.2577 -0.0929 -0.9617
vn 0.7040 -0.0929 -0.7040
vn 0.6562 -0.3724 -0.6562
vn -0.2402 -0.3724 -0.8964
vn -0.2577 -0.0929 -0.9617
vn -0.6562 -0.3724 -0.6562
vn -0.7040 -0.0929 -0.7040
vn -0.8964 -0.3724 -0.2402
vn -0.9617 -0.0929 -0.2577
vn -0.8964 -0.3724 0.2402
vn -0.9617 -0.0929 0.2577
vn -0.6562 -0.3724 0.6562
vn -0.7040 -0.0929 0.7040
vn -0.2402 -0.3724 0.8964
vn -0.2577 -0.0929 0.9617
vn 0.2402 -0.3724 0.8964
vn 0.2577 -0.0929 0.9617
vn 0.6562 -0.3724 0.6562
vn 0.7040 -0.0929 0.7040
vn 0.8964 -0.3724 0.2402
vn 0.9617 -0.0929 0.2577
vn 0.8964 -0.3724 -0.2402
vn 0.9617 -0.0929 -0.2577
vn 0.5378 -0.6492 -0.5378
vn 0.7347 -0.6492 -0.1969
vn 0.7347 -0.6492 0.1969
vn 0.5378 -0.6492 0.5378
vn 0.1969 -0.6492 0.7347
vn -0.1969 -0.6492 0.7347
vn -0.5378 -0.6492 0.5378
vn -0.7347 -0.6492 0.1969
vn -0.7347 -0.6492 -0.1969
vn -0.5378 -0.6492 -0.5378
vn -0.1969 -0.6492 -0.7347
vn 0.1969 -0.6492 -0.7347
vn 0.1231 -0.8796 -0.4595
vn 0.3364 -0.8796 -0.3364
vn -0.1231 -0.8796 -0.4595
vn -0.3364 -0.8796 -0.3364
vn -0.4595 -0.8796 -0.1231
vn -0.4595 -0.8796 0.1231
vn -0.3364 -0.8796 0.3364
vn -0.1231 -0.8796 0.4595
vn 0.1231 -0.8796 0.4595
vn 0.3364 -0.8796 0.3364
vn 0.4595 -0.8796 0.1231
vn 0.4595 -0.8796 -0.1231
vn 0.6680 0.3279 -0.6680
vn 0.7057 -0.0624 -0.7057
vn 0.4266 0.8972 0.1143
vn 0.4266 0.8972 -0.1143
vn -0.2985 0.9511 0.0800
vn -0.2985 0.9511 -0.0800
vn 0.3123 0.8972 0.3123
vn -0.2185 0.9511 -0.2185
vn 0.1143 0.8972 0.4266
vn -0.0800 0.9511 -0.2985
vn -0.1143 0.8972 0.4266
vn 0.0800 0.9511 -0.2985
vn -0.3123 0.8972 0.3123
vn 0.2185 0.9511 -0.2185
vn -0.4266 0.8972 0.1143
vn 0.2985 0.9511 -0.0800
vn -0.4266 0.8972 -0.1143
vn 0.2985 0.9511 0.0800
vn -0.3123 0.8972 -0.3123
vn 0.2185 0.9511 0.2185
vn -0.1143 0.8972 -0.4266
vn 0.0800 0.9511 0.2985
vn 0.1143 0.8972 -0.4266
vn -0.0800 0.9511 0.2985
vn -0.6352 0.4393 0.6352
vn -0.2325 0.4393 0.8677
vn -0.2587 0.0306 0.9655
vn -0.7068 0.0306 0.7068
vn 0.0000 -1.0000 -0.0000
vn 0.0000 1.0000 0.0000
vn -0.8677 0.4393 -0.2325
vn -0.8677 0.4393 0.2325
vn -0.9655 0.0306 0.2587
vn -0.9655 0.0306 -0.2587
vn -0.6352 0.4393 -0.6352
vn -0.7068 0.0306 -0.7068
vn -0.2325 0.4393 -0.8677
vn -0.2587 0.0306 -0.9655
vn 0.2325 0.4393 -0.8677
vn 0.2587 0.0306 -0.9655
vn 0.6352 0.4393 -0.6352
vn 0.7068 0.0306 -0.7068
vn 0.8677 0.4393 -0.2325
vn 0.9655 0.0306 -0.2587
vn 0.8677 0.4393 0.2325
vn 0.9655 0.0306 0.2587
vn 0.6352 0.4393 0.6352
vn 0.7068 0.0306 0.7068
vn 0.2325 0.4393 0.8677
vn 0.2587 0.0306 0.9655
vn 0.3123 0.8972 -0.3123
vn -0.2185 0.9511 0.2185
usemtl tiny_treats_1
s 1
f 28/1/1 92/2/2 94/3/3 29/4/4
f 29/4/4 94/3/3 96/5/5 30/6/6
f 31/7/7 98/8/8 100/9/9 32/10/10
f 32/10/10 100/9/9 102/11/11 33/12/12
f 33/12/12 102/11/11 104/13/13 34/14/14
f 34/14/14 104/13/13 106/15/15 35/16/16
f 35/16/16 106/15/15 108/17/17 36/18/18
f 36/18/18 108/17/17 110/19/19 37/20/20
f 27/21/21 88/22/22 92/2/2 28/1/1
f 30/6/6 96/5/5 98/8/8 31/7/7
f 24/23/23 13/24/24 2/25/25 25/26/26
f 23/27/27 12/28/28 13/24/24 24/23/23
f 22/29/29 11/30/30 12/28/28 23/27/27
f 21/31/31 10/32/32 11/30/30 22/29/29
f 20/33/33 9/34/34 10/32/32 21/31/31
f 19/35/35 8/36/36 9/34/34 20/33/33
f 18/37/37 7/38/38 8/36/36 19/35/35
f 17/39/39 6/40/40 7/38/38 18/37/37
f 16/41/41 5/42/42 6/40/40 17/39/39
f 15/43/43 4/44/44 5/42/42 16/41/41
f 14/45/45 3/46/46 4/44/44 15/43/43
f 25/26/26 2/25/25 3/46/46 14/45/45
f 39/47/47 25/48/26 14/49/45 40/50/48
f 40/50/48 14/49/45 15/51/43 41/52/49
f 41/52/49 15/51/43 16/53/41 42/54/50
f 42/54/50 16/53/41 17/55/39 43/56/51
f 43/56/51 17/55/39 18/57/37 44/58/52
f 44/58/52 18/57/37 19/59/35 45/60/53
f 45/60/53 19/59/35 20/61/33 46/62/54
f 46/62/54 20/61/33 21/63/31 47/64/55
f 47/64/55 21/63/31 22/65/29 48/66/56
f 48/66/56 22/65/29 23/67/27 49/68/57
f 49/68/57 23/67/27 24/69/23 50/70/58
f 50/70/58 24/69/23 25/48/26 39/47/47
f 13/71/59 37/72/59 26/73/60 2/74/60
f 12/75/61 36/76/61 37/72/59 13/71/59
f 11/77/62 35/78/62 36/76/61 12/75/61
f 10/79/63 34/80/63 35/78/62 11/77/62
f 9/81/64 33/82/64 34/80/63 10/79/63
f 8/83/65 32/84/65 33/82/64 9/81/64
f 7/85/66 31/86/66 32/84/65 8/83/65
f 6/87/67 30/88/67 31/86/66 7/85/66
f 5/89/68 29/90/68 30/88/67 6/87/67
f 4/91/69 28/92/69 29/90/68 5/89/68
f 3/93/70 27/94/70 28/92/69 4/91/69
f 2/74/60 26/73/60 27/94/70 3/93/70
f 37/20/20 110/19/19 89/95/71 26/96/72
f 91/97/73 87/98/74 66/99/75 68/100/76
f 93/101/77 91/97/73 68/100/76 70/102/78
f 95/103/79 93/101/77 70/102/78 72/104/80
f 97/105/81 95/103/79 72/104/80 74/106/82
f 99/107/83 97/105/81 74/106/82 76/108/84
f 101/109/85 99/107/83 76/108/84 78/110/86
f 103/111/87 101/109/85 78/110/86 80/112/88
f 105/113/89 103/111/87 80/112/88 82/114/90
f 107/115/91 105/113/89 82/114/90 84/116/92
f 109/117/93 107/115/91 84/116/92 86/118/94
f 26/96/72 89/95/71 88/22/22 27/21/21
f 64/119/95 85/120/96 62/121/97 52/122/98
f 1/123/99 39/124/99 40/125/99
f 1/123/99 40/125/99 41/126/99
f 1/123/99 41/126/99 42/127/99
f 1/123/99 42/127/99 43/128/99
f 1/123/99 43/128/99 44/129/99
f 1/123/99 44/129/99 45/130/99
f 1/123/99 45/130/99 46/131/99
f 1/123/99 46/131/99 47/132/99
f 1/123/99 47/132/99 48/133/99
f 1/123/99 48/133/99 49/134/99
f 1/123/99 49/134/99 50/135/99
f 1/123/99 50/135/99 39/124/99
f 38/136/100 51/137/100 52/138/100
f 38/136/100 53/139/100 51/137/100
f 38/136/100 54/140/100 53/139/100
f 38/136/100 55/141/100 54/140/100
f 38/136/100 56/142/100 55/141/100
f 38/136/100 57/143/100 56/142/100
f 38/136/100 58/144/100 57/143/100
f 38/136/100 59/145/100 58/144/100
f 38/136/100 60/146/100 59/145/100
f 38/136/100 61/147/100 60/146/100
f 38/136/100 62/148/100 61/147/100
f 38/136/100 52/138/100 62/148/100
f 67/149/101 65/150/102 51/151/103 53/152/104
f 69/153/105 67/149/101 53/152/104 54/154/106
f 71/155/107 69/153/105 54/154/106 55/156/108
f 73/157/109 71/155/107 55/156/108 56/158/110
f 75/159/111 73/157/109 56/158/110 57/160/112
f 77/161/113 75/159/111 57/160/112 58/162/114
f 79/163/115 77/161/113 58/162/114 59/164/116
f 81/165/117 79/163/115 59/164/116 60/166/118
f 83/167/119 81/165/117 60/166/118 61/168/120
f 85/120/96 83/167/119 61/168/120 62/121/97
f 87/98/74 90/169/121 63/170/122 66/99/75
f 90/169/121 109/117/93 86/118/94 63/170/122
f 88/171/22 89/172/71 90/173/121 87/174/74
f 92/175/2 88/171/22 87/176/74 91/177/73
f 94/178/3 92/175/2 91/179/73 93/180/77
f 96/181/5 94/178/3 93/182/77 95/183/79
f 98/184/8 96/181/5 95/185/79 97/186/81
f 100/187/9 98/184/8 97/188/81 99/189/83
f 102/190/11 100/187/9 99/191/83 101/192/85
f 104/193/13 102/190/11 101/194/85 103/195/87
f 106/196/15 104/193/13 103/197/87 105/198/89
f 108/199/17 106/196/15 105/200/89 107/201/91
f 110/202/19 108/199/17 107/203/91 109/204/93
f 89/172/71 110/202/19 109/205/93 90/206/121
f 64/207/95 65/208/102 66/209/75 63/210/122
f 65/208/102 67/211/101 68/212/76 66/209/75
f 67/211/101 69/213/105 70/214/78 68/212/76
f 69/213/105 71/215/107 72/216/80 70/214/78
f 71/215/107 73/217/109 74/218/82 72/216/80
f 73/217/109 75/219/111 76/220/84 74/218/82
f 75/219/111 77/221/113 78/222/86 76/220/84
f 77/221/113 79/223/115 80/224/88 78/222/86
f 79/223/115 81/225/117 82/226/90 80/224/88
f 81/225/117 83/227/119 84/228/92 82/226/90
f 83/227/119 85/229/96 86/230/94 84/228/92
f 85/229/96 64/207/95 63/210/122 86/230/94
f 65/150/102 64/119/95 52/122/98 51/151/103
