# Blender v3.4.1 OBJ File: 'Tiny_Treats_House_Plants_ASSETS_EXPORT.blend'
# www.blender.org
mtllib pot_B_large.mtl
o pot_B_large
v 0.000000 0.857142 0.000000
v 0.000000 0.000000 0.000000
v 0.113727 0.070098 -0.571744
v 0.323867 0.070098 -0.484702
v 0.484702 0.070098 -0.323867
v 0.571744 0.070098 -0.113727
v 0.571744 0.070098 0.113727
v 0.484702 0.070098 0.323867
v 0.323867 0.070098 0.484701
v 0.113727 0.070098 0.571744
v -0.113727 0.070098 0.571744
v -0.323867 0.070098 0.484701
v -0.484701 0.070098 0.323867
v -0.571744 0.070098 0.113727
v -0.571744 0.070098 -0.113727
v -0.484701 0.070098 -0.323867
v -0.323867 0.070098 -0.484701
v -0.113727 0.070098 -0.571744
v 0.309403 0.857143 -0.463053
v 0.108648 0.857143 -0.546209
v 0.463054 0.857143 -0.309402
v 0.546209 0.857142 -0.108648
v 0.546209 0.857142 0.108648
v 0.463054 0.857142 0.309403
v 0.309403 0.857142 0.463054
v 0.108648 0.857142 0.546209
v -0.108648 0.857142 0.546209
v -0.309402 0.857142 0.463054
v -0.463053 0.857142 0.309403
v -0.546209 0.857142 0.108648
v -0.546209 0.857142 -0.108648
v -0.463053 0.857143 -0.309403
v -0.309403 0.857143 -0.463053
v -0.108648 0.857143 -0.546209
v 0.272052 0.000000 -0.407155
v 0.095532 0.000000 -0.480272
v 0.407155 0.000000 -0.272052
v 0.480272 0.000000 -0.095532
v 0.480272 -0.000000 0.095532
v 0.407155 -0.000000 0.272052
v 0.272052 -0.000000 0.407155
v 0.095532 -0.000000 0.480272
v -0.095532 -0.000000 0.480272
v -0.272052 -0.000000 0.407155
v -0.407155 -0.000000 0.272053
v -0.480272 -0.000000 0.095532
v -0.480272 0.000000 -0.095532
v -0.407155 0.000000 -0.272052
v -0.272053 0.000000 -0.407155
v -0.095532 0.000000 -0.480272
v 0.114615 1.000000 -0.576209
v 0.108648 0.970000 -0.546209
v 0.309403 0.970000 -0.463053
v 0.326396 1.000000 -0.488486
v 0.463054 0.970000 -0.309402
v 0.488487 1.000000 -0.326396
v 0.546209 0.970000 -0.108648
v 0.576209 1.000000 -0.114615
v 0.546209 0.970000 0.108648
v 0.576209 1.000000 0.114615
v 0.463054 0.970000 0.309403
v 0.488487 1.000000 0.326396
v 0.309403 0.970000 0.463054
v 0.326396 1.000000 0.488486
v 0.108648 0.970000 0.546209
v 0.114615 1.000000 0.576209
v -0.108648 0.970000 0.546209
v -0.114615 1.000000 0.576209
v -0.309402 0.970000 0.463054
v -0.326396 1.000000 0.488486
v -0.463053 0.970000 0.309403
v -0.488486 1.000000 0.326396
v -0.546209 0.970000 0.108648
v -0.576209 1.000000 0.114615
v -0.546209 0.970000 -0.108648
v -0.576209 1.000000 -0.114615
v -0.463053 0.970000 -0.309403
v -0.488486 1.000000 -0.326396
v -0.309403 0.970000 -0.463053
v -0.326396 1.000000 -0.488486
v -0.108648 0.970000 -0.546209
v -0.114615 1.000000 -0.576209
v 0.407847 1.000000 -0.610386
v 0.421642 0.970536 -0.631031
v 0.148061 0.970536 -0.744352
v 0.143217 1.000000 -0.720000
v 0.610387 1.000000 -0.407847
v 0.631031 0.970536 -0.421641
v 0.720000 1.000000 -0.143217
v 0.744352 0.970536 -0.148061
v 0.720000 1.000000 0.143217
v 0.744352 0.970536 0.148061
v 0.610387 1.000000 0.407847
v 0.631031 0.970536 0.421642
v 0.407847 1.000000 0.610387
v 0.421642 0.970536 0.631031
v 0.143217 1.000000 0.720000
v 0.148061 0.970536 0.744352
v -0.143217 1.000000 0.720000
v -0.148061 0.970536 0.744352
v -0.407847 1.000000 0.610387
v -0.421641 0.970536 0.631031
v -0.610386 1.000000 0.407847
v -0.631031 0.970536 0.421642
v -0.720000 1.000000 0.143217
v -0.744352 0.970536 0.148061
v -0.720000 1.000000 -0.143217
v -0.744352 0.970536 -0.148061
v -0.610386 1.000000 -0.407847
v -0.631031 0.970536 -0.421642
v -0.407847 1.000000 -0.610386
v -0.421642 0.970536 -0.631031
v -0.143217 1.000000 -0.720000
v -0.148061 0.970536 -0.744352
vt 0.332839 0.839421
vt 0.340851 0.881216
vt 0.335591 0.881216
vt 0.328799 0.839421
vt 0.325872 0.881216
vt 0.321334 0.839421
vt 0.313173 0.881216
vt 0.311580 0.839421
vt 0.299429 0.881216
vt 0.301022 0.839421
vt 0.286730 0.881216
vt 0.291268 0.839421
vt 0.277011 0.881216
vt 0.283803 0.839421
vt 0.271751 0.881216
vt 0.279763 0.839421
vt 0.271751 0.881216
vt 0.279763 0.839421
vt 0.277011 0.881216
vt 0.283803 0.839421
vt 0.286730 0.881216
vt 0.291268 0.839421
vt 0.299429 0.881216
vt 0.301022 0.839421
vt 0.332839 0.839421
vt 0.340851 0.881216
vt 0.328799 0.839421
vt 0.335591 0.881216
vt 0.321334 0.839421
vt 0.325872 0.881216
vt 0.313173 0.881216
vt 0.311580 0.839421
vt 0.334633 0.898208
vt 0.325232 0.898208
vt 0.321451 0.898208
vt 0.328975 0.898208
vt 0.311580 0.823796
vt 0.321334 0.823796
vt 0.318929 0.820542
vt 0.310735 0.820542
vt 0.328799 0.823796
vt 0.325200 0.820542
vt 0.332839 0.823796
vt 0.328593 0.820542
vt 0.332839 0.823796
vt 0.328593 0.820542
vt 0.328799 0.823796
vt 0.325200 0.820542
vt 0.321334 0.823796
vt 0.318929 0.820542
vt 0.311580 0.823796
vt 0.310735 0.820542
vt 0.301022 0.823796
vt 0.301867 0.820542
vt 0.291268 0.823796
vt 0.293673 0.820542
vt 0.283803 0.823796
vt 0.287403 0.820542
vt 0.279763 0.823796
vt 0.284009 0.820542
vt 0.279763 0.823796
vt 0.284009 0.820542
vt 0.283803 0.823796
vt 0.287403 0.820542
vt 0.291268 0.823796
vt 0.293673 0.820542
vt 0.301022 0.823796
vt 0.301867 0.820542
vt 0.339721 0.898208
vt 0.333046 0.898208
vt 0.339721 0.898208
vt 0.333046 0.898208
vt 0.334633 0.898208
vt 0.328975 0.898208
vt 0.325232 0.898208
vt 0.321451 0.898208
vt 0.312949 0.898208
vt 0.311621 0.898208
vt 0.299653 0.898208
vt 0.300981 0.898208
vt 0.287370 0.898208
vt 0.291151 0.898208
vt 0.277969 0.898208
vt 0.283627 0.898208
vt 0.272881 0.898208
vt 0.279556 0.898208
vt 0.272881 0.898208
vt 0.279556 0.898208
vt 0.277969 0.898208
vt 0.283627 0.898208
vt 0.287370 0.898208
vt 0.291151 0.898208
vt 0.299653 0.898208
vt 0.300981 0.898208
vt 0.317593 0.897785
vt 0.307407 0.897785
vt 0.307407 0.893658
vt 0.317593 0.893658
vt 0.334205 0.897785
vt 0.327003 0.897785
vt 0.327003 0.893658
vt 0.334205 0.893658
vt 0.338103 0.897785
vt 0.338103 0.893658
vt 0.338103 0.897785
vt 0.338103 0.893658
vt 0.334205 0.897785
vt 0.334205 0.893658
vt 0.327003 0.897785
vt 0.327003 0.893658
vt 0.317593 0.897785
vt 0.317593 0.893658
vt 0.307407 0.897785
vt 0.307407 0.893658
vt 0.297997 0.897785
vt 0.297997 0.893658
vt 0.290795 0.897785
vt 0.290795 0.893658
vt 0.286897 0.897785
vt 0.286897 0.893658
vt 0.286897 0.897785
vt 0.286897 0.893658
vt 0.290795 0.897785
vt 0.290795 0.893658
vt 0.297997 0.897785
vt 0.297997 0.893658
vt 0.312949 0.898208
vt 0.311621 0.898208
vt 0.937500 0.721783
vt 0.952003 0.628033
vt 0.942593 0.628033
vt 0.959205 0.628033
vt 0.963103 0.628033
vt 0.963103 0.628033
vt 0.959205 0.628033
vt 0.952003 0.628033
vt 0.942593 0.628033
vt 0.932407 0.628033
vt 0.922997 0.628033
vt 0.915795 0.628033
vt 0.911897 0.628033
vt 0.911897 0.628033
vt 0.915795 0.628033
vt 0.922997 0.628033
vt 0.932407 0.628033
vt 0.306301 0.804917
vt 0.310735 0.804917
vt 0.318929 0.804917
vt 0.325200 0.804917
vt 0.328593 0.804917
vt 0.328593 0.804917
vt 0.325200 0.804917
vt 0.318929 0.804917
vt 0.310735 0.804917
vt 0.301867 0.804917
vt 0.293673 0.804917
vt 0.287403 0.804917
vt 0.284009 0.804917
vt 0.284009 0.804917
vt 0.287403 0.804917
vt 0.293673 0.804917
vt 0.301867 0.804917
vt 0.325872 0.912466
vt 0.313173 0.912466
vt 0.312949 0.913833
vt 0.325232 0.913833
vt 0.335591 0.912466
vt 0.334633 0.913833
vt 0.340851 0.912466
vt 0.339721 0.913833
vt 0.340851 0.912466
vt 0.339721 0.913833
vt 0.335591 0.912466
vt 0.334633 0.913833
vt 0.325872 0.912466
vt 0.325232 0.913833
vt 0.313173 0.912466
vt 0.312949 0.913833
vt 0.299429 0.912466
vt 0.299653 0.913833
vt 0.286730 0.912466
vt 0.287370 0.913833
vt 0.277011 0.912466
vt 0.277969 0.913833
vt 0.271751 0.912466
vt 0.272881 0.913833
vt 0.271751 0.912466
vt 0.272881 0.913833
vt 0.277011 0.912466
vt 0.277969 0.913833
vt 0.286730 0.912466
vt 0.287370 0.913833
vt 0.299429 0.912466
vt 0.299653 0.913833
vt 0.311344 0.912441
vt 0.320662 0.912441
vt 0.321451 0.913833
vt 0.311621 0.913833
vt 0.327794 0.912441
vt 0.328975 0.913833
vt 0.331654 0.912441
vt 0.333046 0.913833
vt 0.331654 0.912441
vt 0.333046 0.913833
vt 0.327794 0.912441
vt 0.328975 0.913833
vt 0.320662 0.912441
vt 0.321451 0.913833
vt 0.311344 0.912441
vt 0.311621 0.913833
vt 0.301258 0.912441
vt 0.300981 0.913833
vt 0.291940 0.912441
vt 0.291151 0.913833
vt 0.284808 0.912441
vt 0.283627 0.913833
vt 0.280948 0.912441
vt 0.279556 0.913833
vt 0.280948 0.912441
vt 0.279556 0.913833
vt 0.284808 0.912441
vt 0.283627 0.913833
vt 0.291940 0.912441
vt 0.291151 0.913833
vt 0.301258 0.912441
vt 0.300981 0.913833
vn 0.8426 -0.5117 0.1676
vn 0.9626 -0.1918 0.1915
vn 0.8160 -0.1918 0.5453
vn 0.7143 -0.5117 0.4773
vn 0.5453 -0.1918 0.8160
vn 0.4773 -0.5117 0.7143
vn 0.1915 -0.1918 0.9626
vn 0.1676 -0.5117 0.8426
vn -0.1915 -0.1918 0.9626
vn -0.1676 -0.5117 0.8426
vn -0.5453 -0.1918 0.8160
vn -0.4773 -0.5117 0.7143
vn -0.8160 -0.1918 0.5453
vn -0.7143 -0.5117 0.4773
vn -0.9626 -0.1918 0.1915
vn -0.8426 -0.5117 0.1676
vn -0.9626 -0.1918 -0.1915
vn -0.8426 -0.5117 -0.1676
vn -0.8160 -0.1918 -0.5453
vn -0.7143 -0.5117 -0.4773
vn -0.5453 -0.1918 -0.8160
vn -0.4773 -0.5117 -0.7143
vn -0.1915 -0.1918 -0.9626
vn -0.1676 -0.5117 -0.8426
vn 0.8426 -0.5117 -0.1676
vn 0.9626 -0.1918 -0.1915
vn 0.7143 -0.5117 -0.4773
vn 0.8160 -0.1918 -0.5453
vn 0.4773 -0.5117 -0.7143
vn 0.5453 -0.1918 -0.8160
vn 0.1915 -0.1918 -0.9626
vn 0.1676 -0.5117 -0.8426
vn 0.0000 1.0000 -0.0000
vn -0.1868 0.9417 0.2796
vn -0.2796 0.9417 0.1868
vn 0.1952 -0.9362 -0.2922
vn 0.0686 -0.9362 -0.3447
vn 0.2922 -0.9362 -0.1952
vn 0.3447 -0.9362 -0.0686
vn 0.3447 -0.9362 0.0686
vn 0.2922 -0.9362 0.1952
vn 0.1952 -0.9362 0.2922
vn 0.0686 -0.9362 0.3447
vn -0.0686 -0.9362 0.3447
vn -0.1952 -0.9362 0.2922
vn -0.2922 -0.9362 0.1952
vn -0.3447 -0.9362 0.0686
vn -0.3447 -0.9362 -0.0686
vn -0.2922 -0.9362 -0.1952
vn -0.1952 -0.9362 -0.2922
vn -0.0686 -0.9362 -0.3447
vn -0.3299 0.9417 0.0656
vn -0.3299 0.9417 -0.0656
vn -0.2796 0.9417 -0.1868
vn -0.1868 0.9417 -0.2796
vn -0.0656 0.9417 -0.3299
vn 0.0656 0.9417 -0.3299
vn 0.1868 0.9417 -0.2796
vn 0.2796 0.9417 -0.1868
vn 0.3299 0.9417 -0.0656
vn 0.3299 0.9417 0.0656
vn 0.2796 0.9417 0.1869
vn 0.1868 0.9417 0.2796
vn 0.0656 0.9417 0.3299
vn -0.1783 0.4055 0.8965
vn 0.1783 0.4055 0.8965
vn 0.1951 -0.0000 0.9808
vn -0.1951 -0.0000 0.9808
vn -0.7601 0.4055 0.5079
vn -0.5079 0.4055 0.7601
vn -0.5556 -0.0000 0.8315
vn -0.8315 -0.0000 0.5556
vn -0.8965 0.4055 0.1783
vn -0.9808 0.0000 0.1951
vn -0.8965 0.4055 -0.1783
vn -0.9808 0.0000 -0.1951
vn -0.7601 0.4055 -0.5079
vn -0.8315 0.0000 -0.5556
vn -0.5079 0.4055 -0.7601
vn -0.5556 0.0000 -0.8315
vn -0.1783 0.4055 -0.8965
vn -0.1951 0.0000 -0.9808
vn 0.1783 0.4055 -0.8965
vn 0.1951 0.0000 -0.9808
vn 0.5079 0.4055 -0.7601
vn 0.5556 0.0000 -0.8315
vn 0.7601 0.4055 -0.5079
vn 0.8315 0.0000 -0.5556
vn 0.8965 0.4055 -0.1783
vn 0.9808 -0.0000 -0.1951
vn 0.8965 0.4055 0.1783
vn 0.9808 0.0000 0.1951
vn 0.7601 0.4055 0.5079
vn 0.8315 -0.0000 0.5556
vn 0.5079 0.4055 0.7601
vn 0.5556 -0.0000 0.8315
vn -0.0656 0.9417 0.3299
vn 0.0000 -1.0000 -0.0000
vn 0.4248 0.6444 -0.6358
vn 0.1492 0.6444 -0.7500
vn 0.6358 0.6444 -0.4248
vn 0.7500 0.6444 -0.1492
vn 0.7500 0.6444 0.1492
vn 0.6358 0.6444 0.4248
vn 0.4248 0.6444 0.6358
vn 0.1492 0.6444 0.7500
vn -0.1492 0.6444 0.7500
vn -0.4248 0.6444 0.6358
vn -0.6358 0.6444 0.4248
vn -0.7500 0.6444 0.1492
vn -0.7500 0.6444 -0.1492
vn -0.6358 0.6444 -0.4248
vn -0.4248 0.6444 -0.6358
vn -0.1492 0.6444 -0.7500
usemtl tiny_treats_1
s 1
f 7/1/1 92/2/2 94/3/3 8/4/4
f 8/4/4 94/3/3 96/5/5 9/6/6
f 9/6/6 96/5/5 98/7/7 10/8/8
f 10/8/8 98/7/7 100/9/9 11/10/10
f 11/10/10 100/9/9 102/11/11 12/12/12
f 12/12/12 102/11/11 104/13/13 13/14/14
f 13/14/14 104/13/13 106/15/15 14/16/16
f 14/16/16 106/15/15 108/17/17 15/18/18
f 15/18/18 108/17/17 110/19/19 16/20/20
f 16/20/20 110/19/19 112/21/21 17/22/22
f 17/22/22 112/21/21 114/23/23 18/24/24
f 6/25/25 90/26/26 92/2/2 7/1/1
f 5/27/27 88/28/28 90/26/26 6/25/25
f 4/29/29 84/30/30 88/28/28 5/27/27
f 18/24/24 114/23/23 85/31/31 3/32/32
f 87/33/33 83/34/33 54/35/34 56/36/35
f 3/37/32 4/38/29 35/39/36 36/40/37
f 4/38/29 5/41/27 37/42/38 35/39/36
f 5/41/27 6/43/25 38/44/39 37/42/38
f 6/43/25 7/45/1 39/46/40 38/44/39
f 7/45/1 8/47/4 40/48/41 39/46/40
f 8/47/4 9/49/6 41/50/42 40/48/41
f 9/49/6 10/51/8 42/52/43 41/50/42
f 10/51/8 11/53/10 43/54/44 42/52/43
f 11/53/10 12/55/12 44/56/45 43/54/44
f 12/55/12 13/57/14 45/58/46 44/56/45
f 13/57/14 14/59/16 46/60/47 45/58/46
f 14/59/16 15/61/18 47/62/48 46/60/47
f 15/61/18 16/63/20 48/64/49 47/62/48
f 16/63/20 17/65/22 49/66/50 48/64/49
f 17/65/22 18/67/24 50/68/51 49/66/50
f 18/67/24 3/37/32 36/40/37 50/68/51
f 89/69/33 87/33/33 56/36/35 58/70/52
f 91/71/33 89/69/33 58/70/52 60/72/53
f 93/73/33 91/71/33 60/72/53 62/74/54
f 95/75/33 93/73/33 62/74/54 64/76/55
f 97/77/33 95/75/33 64/76/55 66/78/56
f 99/79/33 97/77/33 66/78/56 68/80/57
f 101/81/33 99/79/33 68/80/57 70/82/58
f 103/83/33 101/81/33 70/82/58 72/84/59
f 105/85/33 103/83/33 72/84/59 74/86/60
f 107/87/33 105/85/33 74/86/60 76/88/61
f 109/89/33 107/87/33 76/88/61 78/90/62
f 111/91/33 109/89/33 78/90/62 80/92/63
f 113/93/33 111/91/33 80/92/63 82/94/64
f 3/32/32 85/31/31 84/30/30 4/29/29
f 52/95/65 81/96/66 34/97/67 20/98/68
f 55/99/69 53/100/70 19/101/71 21/102/72
f 57/103/73 55/99/69 21/102/72 22/104/74
f 59/105/75 57/103/73 22/104/74 23/106/76
f 61/107/77 59/105/75 23/106/76 24/108/78
f 63/109/79 61/107/77 24/108/78 25/110/80
f 65/111/81 63/109/79 25/110/80 26/112/82
f 67/113/83 65/111/81 26/112/82 27/114/84
f 69/115/85 67/113/83 27/114/84 28/116/86
f 71/117/87 69/115/85 28/116/86 29/118/88
f 73/119/89 71/117/87 29/118/88 30/120/90
f 75/121/91 73/119/89 30/120/90 31/122/92
f 77/123/93 75/121/91 31/122/92 32/124/94
f 79/125/95 77/123/93 32/124/94 33/126/96
f 81/96/66 79/125/95 33/126/96 34/97/67
f 83/34/33 86/127/33 51/128/97 54/35/34
f 86/127/33 113/93/33 82/94/64 51/128/97
f 1/129/33 19/130/33 20/131/33
f 1/129/33 21/132/33 19/130/33
f 1/129/33 22/133/33 21/132/33
f 1/129/33 23/134/33 22/133/33
f 1/129/33 24/135/33 23/134/33
f 1/129/33 25/136/33 24/135/33
f 1/129/33 26/137/33 25/136/33
f 1/129/33 27/138/33 26/137/33
f 1/129/33 28/139/33 27/138/33
f 1/129/33 29/140/33 28/139/33
f 1/129/33 30/141/33 29/140/33
f 1/129/33 31/142/33 30/141/33
f 1/129/33 32/143/33 31/142/33
f 1/129/33 33/144/33 32/143/33
f 1/129/33 34/145/33 33/144/33
f 1/129/33 20/131/33 34/145/33
f 2/146/98 36/147/37 35/148/36
f 2/146/98 35/148/36 37/149/38
f 2/146/98 37/149/38 38/150/39
f 2/146/98 38/150/39 39/151/40
f 2/146/98 39/151/40 40/152/41
f 2/146/98 40/152/41 41/153/42
f 2/146/98 41/153/42 42/154/43
f 2/146/98 42/154/43 43/155/44
f 2/146/98 43/155/44 44/156/45
f 2/146/98 44/156/45 45/157/46
f 2/146/98 45/157/46 46/158/47
f 2/146/98 46/158/47 47/159/48
f 2/146/98 47/159/48 48/160/49
f 2/146/98 48/160/49 49/161/50
f 2/146/98 49/161/50 50/162/51
f 2/146/98 50/162/51 36/147/37
f 84/163/99 85/164/100 86/165/100 83/166/99
f 88/167/101 84/163/99 83/166/99 87/168/101
f 90/169/102 88/167/101 87/168/101 89/170/102
f 92/171/103 90/169/102 89/170/102 91/172/103
f 94/173/104 92/171/103 91/172/103 93/174/104
f 96/175/105 94/173/104 93/174/104 95/176/105
f 98/177/106 96/175/105 95/176/105 97/178/106
f 100/179/107 98/177/106 97/178/106 99/180/107
f 102/181/108 100/179/107 99/180/107 101/182/108
f 104/183/109 102/181/108 101/182/108 103/184/109
f 106/185/110 104/183/109 103/184/109 105/186/110
f 108/187/111 106/185/110 105/186/110 107/188/111
f 110/189/112 108/187/111 107/188/111 109/190/112
f 112/191/113 110/189/112 109/190/112 111/192/113
f 114/193/114 112/191/113 111/192/113 113/194/114
f 85/164/100 114/193/114 113/194/114 86/165/100
f 52/195/65 53/196/70 54/197/34 51/198/97
f 53/196/70 55/199/69 56/200/35 54/197/34
f 55/199/69 57/201/73 58/202/52 56/200/35
f 57/201/73 59/203/75 60/204/53 58/202/52
f 59/203/75 61/205/77 62/206/54 60/204/53
f 61/205/77 63/207/79 64/208/55 62/206/54
f 63/207/79 65/209/81 66/210/56 64/208/55
f 65/209/81 67/211/83 68/212/57 66/210/56
f 67/211/83 69/213/85 70/214/58 68/212/57
f 69/213/85 71/215/87 72/216/59 70/214/58
f 71/215/87 73/217/89 74/218/60 72/216/59
f 73/217/89 75/219/91 76/220/61 74/218/60
f 75/219/91 77/221/93 78/222/62 76/220/61
f 77/221/93 79/223/95 80/224/63 78/222/62
f 79/223/95 81/225/66 82/226/64 80/224/63
f 81/225/66 52/195/65 51/198/97 82/226/64
f 53/100/70 52/95/65 20/98/68 19/101/71
