# Blender v3.4.1 OBJ File: 'Tiny_Treats_House_Plants_ASSETS_EXPORT.blend'
# www.blender.org
mtllib pot_A_medium.mtl
o pot_A_medium
v -0.000000 0.000753 -0.000000
v 0.291357 0.469607 -0.291357
v 0.398000 0.469607 -0.106644
v 0.398001 0.469607 0.106644
v 0.291357 0.469607 0.291357
v 0.106644 0.469607 0.398001
v -0.106644 0.469607 0.398001
v -0.291357 0.469607 0.291357
v -0.398001 0.469607 0.106644
v -0.398001 0.469607 -0.106644
v -0.291357 0.469607 -0.291357
v -0.106644 0.469607 -0.398001
v 0.106644 0.469607 -0.398001
v 0.357674 0.049902 -0.095839
v 0.357674 0.049902 0.095839
v 0.261836 0.049902 0.261836
v 0.095838 0.049902 0.357675
v -0.095839 0.049902 0.357675
v -0.261836 0.049902 0.261836
v -0.357675 0.049902 0.095839
v -0.357675 0.049902 -0.095839
v -0.261836 0.049902 -0.261836
v -0.095839 0.049902 -0.357675
v 0.095838 0.049902 -0.357675
v 0.261836 0.049902 -0.261836
v 0.356798 0.516568 -0.356798
v 0.487395 0.516568 -0.130597
v 0.487395 0.516568 0.130597
v 0.356798 0.516568 0.356798
v 0.130597 0.516568 0.487395
v -0.130597 0.516568 0.487395
v -0.356798 0.516568 0.356798
v -0.487395 0.516568 0.130597
v -0.487395 0.516568 -0.130597
v -0.356798 0.516568 -0.356798
v -0.130597 0.516568 -0.487395
v 0.130597 0.516568 -0.487395
v -0.000000 0.563528 0.000000
v 0.230217 0.000753 -0.230217
v 0.314483 0.000753 -0.084265
v 0.314483 0.000753 0.084265
v 0.230217 0.000753 0.230217
v 0.084265 0.000753 0.314483
v -0.084266 0.000753 0.314483
v -0.230218 0.000753 0.230217
v -0.314483 0.000753 0.084265
v -0.314483 0.000753 -0.084265
v -0.230218 0.000753 -0.230217
v -0.084266 0.000753 -0.314483
v 0.084265 0.000753 -0.314483
v 0.330251 0.563528 -0.088491
v 0.241761 0.563528 -0.241761
v 0.330251 0.563528 0.088491
v 0.241761 0.563528 0.241761
v 0.088490 0.563528 0.330251
v -0.088491 0.563528 0.330251
v -0.241761 0.563528 0.241761
v -0.330252 0.563528 0.088491
v -0.330252 0.563528 -0.088491
v -0.241761 0.563528 -0.241761
v -0.088491 0.563528 -0.330251
v 0.088490 0.563528 -0.330251
v 0.268152 0.700753 -0.268152
v 0.245139 0.670855 -0.245139
v 0.334866 0.670855 -0.089727
v 0.366303 0.700753 -0.098151
v 0.334866 0.670855 0.089727
v 0.366303 0.700753 0.098151
v 0.245139 0.670855 0.245139
v 0.268152 0.700753 0.268153
v 0.089727 0.670855 0.334866
v 0.098150 0.700753 0.366303
v -0.089727 0.670855 0.334866
v -0.098151 0.700753 0.366303
v -0.245139 0.670855 0.245139
v -0.268153 0.700753 0.268153
v -0.334867 0.670855 0.089727
v -0.366303 0.700753 0.098151
v -0.334867 0.670855 -0.089727
v -0.366303 0.700753 -0.098151
v -0.245139 0.670855 -0.245139
v -0.268153 0.700753 -0.268152
v -0.089727 0.670855 -0.334866
v -0.098151 0.700753 -0.366303
v 0.089727 0.670855 -0.334866
v 0.098150 0.700753 -0.366303
v 0.472305 0.700401 -0.126554
v 0.500000 0.670376 -0.133974
v 0.366025 0.670376 -0.366025
v 0.345751 0.700401 -0.345751
v 0.472305 0.700401 0.126554
v 0.500000 0.670376 0.133975
v 0.345751 0.700401 0.345752
v 0.366025 0.670376 0.366026
v 0.126554 0.700401 0.472306
v 0.133974 0.670376 0.500000
v -0.126554 0.700401 0.472306
v -0.133975 0.670376 0.500000
v -0.345752 0.700401 0.345752
v -0.366026 0.670376 0.366025
v -0.472306 0.700401 0.126554
v -0.500000 0.670376 0.133975
v -0.472306 0.700401 -0.126554
v -0.500000 0.670376 -0.133975
v -0.345752 0.700401 -0.345751
v -0.366026 0.670376 -0.366025
v -0.126554 0.700401 -0.472305
v -0.133975 0.670376 -0.500000
v 0.126554 0.700401 -0.472305
v 0.133974 0.670376 -0.500000
vt 0.721936 0.850114
vt 0.722606 0.855676
vt 0.715486 0.855676
vt 0.714996 0.850114
vt 0.703155 0.855676
vt 0.702976 0.850114
vt 0.689095 0.850114
vt 0.688916 0.855676
vt 0.676584 0.855676
vt 0.677075 0.850114
vt 0.669465 0.855676
vt 0.670135 0.850114
vt 0.669465 0.855676
vt 0.670135 0.850114
vt 0.676585 0.855676
vt 0.677075 0.850114
vt 0.688916 0.855676
vt 0.689095 0.850114
vt 0.703155 0.855676
vt 0.702976 0.850114
vt 0.721936 0.850114
vt 0.722606 0.855676
vt 0.701291 0.822649
vt 0.701703 0.847552
vt 0.711519 0.847552
vt 0.710394 0.822649
vt 0.690780 0.822649
vt 0.690368 0.847552
vt 0.681677 0.822649
vt 0.680552 0.847552
vt 0.676422 0.822649
vt 0.674885 0.847552
vt 0.676422 0.822649
vt 0.674885 0.847552
vt 0.681677 0.822649
vt 0.680552 0.847552
vt 0.690780 0.822649
vt 0.690368 0.847552
vt 0.701291 0.822649
vt 0.701703 0.847552
vt 0.710394 0.822649
vt 0.711519 0.847552
vt 0.715649 0.822649
vt 0.717186 0.847552
vt 0.715649 0.822649
vt 0.717186 0.847552
vt 0.708660 0.808249
vt 0.710394 0.811016
vt 0.715649 0.811016
vt 0.713281 0.808249
vt 0.715649 0.811016
vt 0.713281 0.808249
vt 0.710394 0.811016
vt 0.708660 0.808249
vt 0.701291 0.811016
vt 0.700656 0.808249
vt 0.690780 0.811016
vt 0.691415 0.808249
vt 0.681677 0.811016
vt 0.683411 0.808249
vt 0.676422 0.811016
vt 0.678790 0.808249
vt 0.676422 0.811016
vt 0.678790 0.808249
vt 0.681677 0.811016
vt 0.683411 0.808249
vt 0.690780 0.811016
vt 0.691415 0.808249
vt 0.701291 0.811016
vt 0.700656 0.808249
vt 0.701703 0.824286
vt 0.702976 0.826849
vt 0.714996 0.826849
vt 0.711519 0.824286
vt 0.690368 0.824286
vt 0.689095 0.826849
vt 0.680552 0.824286
vt 0.677075 0.826849
vt 0.674885 0.824286
vt 0.670135 0.826849
vt 0.674885 0.824286
vt 0.670135 0.826849
vt 0.680552 0.824286
vt 0.677075 0.826849
vt 0.690368 0.824286
vt 0.689095 0.826849
vt 0.701703 0.824286
vt 0.702976 0.826849
vt 0.711519 0.824286
vt 0.714996 0.826849
vt 0.717186 0.824286
vt 0.721936 0.826849
vt 0.717186 0.824286
vt 0.721936 0.826849
vt 0.715486 0.855676
vt 0.714996 0.850114
vt 0.721134 0.872428
vt 0.721134 0.872428
vt 0.715501 0.872587
vt 0.715501 0.872587
vt 0.714409 0.872428
vt 0.710285 0.872587
vt 0.702761 0.872428
vt 0.701251 0.872587
vt 0.689310 0.872428
vt 0.690820 0.872587
vt 0.677662 0.872428
vt 0.681786 0.872587
vt 0.670937 0.872428
vt 0.676570 0.872587
vt 0.670937 0.872428
vt 0.676570 0.872587
vt 0.677662 0.872428
vt 0.681786 0.872587
vt 0.689310 0.872428
vt 0.690820 0.872587
vt 0.702761 0.872428
vt 0.701251 0.872587
vt 0.709062 0.841107
vt 0.700804 0.841108
vt 0.700738 0.840126
vt 0.708883 0.840126
vt 0.696036 0.796616
vt 0.708660 0.796616
vt 0.713281 0.796616
vt 0.713281 0.796616
vt 0.708660 0.796616
vt 0.700656 0.796616
vt 0.691415 0.796616
vt 0.683411 0.796616
vt 0.678790 0.796616
vt 0.678790 0.796616
vt 0.683411 0.796616
vt 0.691415 0.796616
vt 0.700656 0.796616
vt 0.946036 0.668251
vt 0.963585 0.605751
vt 0.958883 0.605751
vt 0.963585 0.605751
vt 0.958883 0.605751
vt 0.950738 0.605751
vt 0.941333 0.605751
vt 0.933188 0.605751
vt 0.928486 0.605751
vt 0.928486 0.605751
vt 0.933188 0.605751
vt 0.941333 0.605751
vt 0.950738 0.605751
vt 0.713831 0.841108
vt 0.713831 0.841108
vt 0.713585 0.840126
vt 0.713585 0.840126
vt 0.709062 0.841108
vt 0.708883 0.840126
vt 0.700804 0.841108
vt 0.700738 0.840126
vt 0.691267 0.841107
vt 0.691333 0.840126
vt 0.683009 0.841107
vt 0.683188 0.840126
vt 0.678240 0.841107
vt 0.678486 0.840126
vt 0.678240 0.841108
vt 0.678486 0.840126
vt 0.683009 0.841108
vt 0.683188 0.840126
vt 0.691267 0.841108
vt 0.691333 0.840126
vt 0.714409 0.872428
vt 0.710285 0.872587
vt 0.722606 0.886926
vt 0.715487 0.886926
vt 0.715796 0.888008
vt 0.722522 0.888008
vt 0.722606 0.886926
vt 0.722736 0.888008
vt 0.722736 0.888008
vt 0.715486 0.886926
vt 0.722522 0.888008
vt 0.715796 0.888008
vt 0.703155 0.886926
vt 0.715210 0.888008
vt 0.703562 0.888008
vt 0.688916 0.886926
vt 0.702761 0.888008
vt 0.689310 0.888008
vt 0.676584 0.886926
vt 0.688509 0.888008
vt 0.676861 0.888008
vt 0.669465 0.886926
vt 0.676274 0.888008
vt 0.669549 0.888008
vt 0.669465 0.886926
vt 0.669335 0.888008
vt 0.669335 0.888008
vt 0.676585 0.886926
vt 0.669549 0.888008
vt 0.676274 0.888008
vt 0.688916 0.886926
vt 0.676861 0.888008
vt 0.688509 0.888008
vt 0.703155 0.886926
vt 0.689310 0.888008
vt 0.702761 0.888008
vt 0.703562 0.888008
vt 0.715210 0.888008
vt 0.709062 0.872358
vt 0.713831 0.872358
vt 0.713899 0.872632
vt 0.709113 0.872632
vt 0.713831 0.872358
vt 0.713899 0.872632
vt 0.709062 0.872358
vt 0.709113 0.872632
vt 0.700804 0.872358
vt 0.700822 0.872632
vt 0.691267 0.872357
vt 0.691249 0.872632
vt 0.683009 0.872357
vt 0.682958 0.872632
vt 0.678240 0.872357
vt 0.678172 0.872632
vt 0.678240 0.872358
vt 0.678172 0.872632
vt 0.683009 0.872358
vt 0.682958 0.872632
vt 0.691267 0.872358
vt 0.691249 0.872632
vt 0.700804 0.872358
vt 0.700822 0.872632
vn 0.9625 -0.0845 0.2579
vn 0.9174 0.3129 0.2458
vn 0.6716 0.3129 0.6716
vn 0.7046 -0.0845 0.7046
vn 0.2458 0.3129 0.9174
vn 0.2579 -0.0845 0.9625
vn -0.2579 -0.0845 0.9625
vn -0.2458 0.3129 0.9174
vn -0.6716 0.3129 0.6716
vn -0.7046 -0.0845 0.7046
vn -0.9174 0.3129 0.2458
vn -0.9625 -0.0845 0.2579
vn -0.9174 0.3129 -0.2458
vn -0.9625 -0.0845 -0.2579
vn -0.6716 0.3129 -0.6716
vn -0.7046 -0.0845 -0.7046
vn -0.2458 0.3129 -0.9174
vn -0.2579 -0.0845 -0.9625
vn 0.2458 0.3129 -0.9174
vn 0.2579 -0.0845 -0.9625
vn 0.9625 -0.0845 -0.2579
vn 0.9174 0.3129 -0.2458
vn 0.2385 -0.3885 -0.8901
vn 0.2575 -0.0990 -0.9612
vn 0.7036 -0.0990 -0.7036
vn 0.6516 -0.3885 -0.6516
vn -0.2385 -0.3885 -0.8901
vn -0.2575 -0.0990 -0.9612
vn -0.6516 -0.3885 -0.6516
vn -0.7036 -0.0990 -0.7036
vn -0.8901 -0.3885 -0.2385
vn -0.9612 -0.0990 -0.2575
vn -0.8901 -0.3885 0.2385
vn -0.9612 -0.0990 0.2575
vn -0.6516 -0.3885 0.6516
vn -0.7036 -0.0990 0.7036
vn -0.2385 -0.3885 0.8901
vn -0.2575 -0.0990 0.9612
vn 0.2385 -0.3885 0.8901
vn 0.2575 -0.0990 0.9612
vn 0.6516 -0.3885 0.6516
vn 0.7036 -0.0990 0.7036
vn 0.8901 -0.3885 0.2385
vn 0.9612 -0.0990 0.2575
vn 0.8901 -0.3885 -0.2385
vn 0.9612 -0.0990 -0.2575
vn 0.3236 -0.8892 -0.3236
vn 0.4420 -0.8892 -0.1184
vn 0.4420 -0.8892 0.1184
vn 0.3236 -0.8892 0.3236
vn 0.1184 -0.8892 0.4420
vn -0.1184 -0.8892 0.4420
vn -0.3236 -0.8892 0.3236
vn -0.4420 -0.8892 0.1184
vn -0.4420 -0.8892 -0.1184
vn -0.3236 -0.8892 -0.3236
vn -0.1184 -0.8892 -0.4420
vn 0.1184 -0.8892 -0.4420
vn 0.1171 -0.8918 -0.4371
vn 0.3200 -0.8918 -0.3200
vn -0.1171 -0.8918 -0.4371
vn -0.3200 -0.8918 -0.3200
vn -0.4371 -0.8918 -0.1171
vn -0.4371 -0.8918 0.1171
vn -0.3200 -0.8918 0.3200
vn -0.1171 -0.8918 0.4371
vn 0.1171 -0.8918 0.4371
vn 0.3200 -0.8918 0.3200
vn 0.4371 -0.8918 0.1171
vn 0.4371 -0.8918 -0.1171
vn 0.6716 0.3129 -0.6716
vn 0.7046 -0.0845 -0.7046
vn 0.4317 0.8945 0.1157
vn 0.4317 0.8945 -0.1157
vn -0.2961 0.9518 0.0793
vn -0.2961 0.9518 -0.0793
vn 0.3161 0.8945 0.3161
vn -0.2168 0.9518 -0.2168
vn 0.1157 0.8945 0.4317
vn -0.0793 0.9518 -0.2961
vn -0.1157 0.8945 0.4317
vn 0.0793 0.9518 -0.2961
vn -0.3161 0.8945 0.3161
vn 0.2168 0.9518 -0.2168
vn -0.4317 0.8945 0.1157
vn 0.2961 0.9518 -0.0793
vn -0.4317 0.8945 -0.1157
vn 0.2961 0.9518 0.0793
vn -0.3161 0.8945 -0.3161
vn 0.2168 0.9518 0.2168
vn -0.1157 0.8945 -0.4317
vn 0.0793 0.9518 0.2961
vn 0.1157 0.8945 -0.4317
vn -0.0793 0.9518 0.2961
vn -0.6320 0.4486 0.6320
vn -0.2313 0.4486 0.8633
vn -0.2586 0.0445 0.9650
vn -0.7064 0.0445 0.7064
vn 0.0000 -1.0000 -0.0000
vn 0.0000 1.0000 0.0000
vn -0.8633 0.4486 -0.2313
vn -0.8633 0.4486 0.2313
vn -0.9650 0.0445 0.2586
vn -0.9650 0.0445 -0.2586
vn -0.6320 0.4486 -0.6320
vn -0.7064 0.0445 -0.7064
vn -0.2313 0.4486 -0.8633
vn -0.2586 0.0445 -0.9650
vn 0.2313 0.4486 -0.8633
vn 0.2586 0.0445 -0.9650
vn 0.6320 0.4486 -0.6320
vn 0.7064 0.0445 -0.7064
vn 0.8633 0.4486 -0.2313
vn 0.9650 0.0445 -0.2586
vn 0.8633 0.4486 0.2313
vn 0.9650 0.0445 0.2586
vn 0.6320 0.4486 0.6320
vn 0.7064 0.0445 0.7064
vn 0.2313 0.4486 0.8633
vn 0.2586 0.0445 0.9650
vn 0.3161 0.8945 -0.3161
vn -0.2168 0.9518 0.2168
usemtl tiny_treats_1
s 1
f 28/1/1 92/2/2 94/3/3 29/4/4
f 29/4/4 94/3/3 96/5/5 30/6/6
f 31/7/7 98/8/8 100/9/9 32/10/10
f 32/10/10 100/9/9 102/11/11 33/12/12
f 33/12/12 102/11/11 104/13/13 34/14/14
f 34/14/14 104/13/13 106/15/15 35/16/16
f 35/16/16 106/15/15 108/17/17 36/18/18
f 36/18/18 108/17/17 110/19/19 37/20/20
f 27/21/21 88/22/22 92/2/2 28/1/1
f 30/6/6 96/5/5 98/8/8 31/7/7
f 24/23/23 13/24/24 2/25/25 25/26/26
f 23/27/27 12/28/28 13/24/24 24/23/23
f 22/29/29 11/30/30 12/28/28 23/27/27
f 21/31/31 10/32/32 11/30/30 22/29/29
f 20/33/33 9/34/34 10/32/32 21/31/31
f 19/35/35 8/36/36 9/34/34 20/33/33
f 18/37/37 7/38/38 8/36/36 19/35/35
f 17/39/39 6/40/40 7/38/38 18/37/37
f 16/41/41 5/42/42 6/40/40 17/39/39
f 15/43/43 4/44/44 5/42/42 16/41/41
f 14/45/45 3/46/46 4/44/44 15/43/43
f 25/26/26 2/25/25 3/46/46 14/45/45
f 39/47/47 25/48/26 14/49/45 40/50/48
f 40/50/48 14/49/45 15/51/43 41/52/49
f 41/52/49 15/51/43 16/53/41 42/54/50
f 42/54/50 16/53/41 17/55/39 43/56/51
f 43/56/51 17/55/39 18/57/37 44/58/52
f 44/58/52 18/57/37 19/59/35 45/60/53
f 45/60/53 19/59/35 20/61/33 46/62/54
f 46/62/54 20/61/33 21/63/31 47/64/55
f 47/64/55 21/63/31 22/65/29 48/66/56
f 48/66/56 22/65/29 23/67/27 49/68/57
f 49/68/57 23/67/27 24/69/23 50/70/58
f 50/70/58 24/69/23 25/48/26 39/47/47
f 13/71/59 37/72/59 26/73/60 2/74/60
f 12/75/61 36/76/61 37/72/59 13/71/59
f 11/77/62 35/78/62 36/76/61 12/75/61
f 10/79/63 34/80/63 35/78/62 11/77/62
f 9/81/64 33/82/64 34/80/63 10/79/63
f 8/83/65 32/84/65 33/82/64 9/81/64
f 7/85/66 31/86/66 32/84/65 8/83/65
f 6/87/67 30/88/67 31/86/66 7/85/66
f 5/89/68 29/90/68 30/88/67 6/87/67
f 4/91/69 28/92/69 29/90/68 5/89/68
f 3/93/70 27/94/70 28/92/69 4/91/69
f 2/74/60 26/73/60 27/94/70 3/93/70
f 37/20/20 110/19/19 89/95/71 26/96/72
f 91/97/73 87/98/74 66/99/75 68/100/76
f 93/101/77 91/97/73 68/100/76 70/102/78
f 95/103/79 93/101/77 70/102/78 72/104/80
f 97/105/81 95/103/79 72/104/80 74/106/82
f 99/107/83 97/105/81 74/106/82 76/108/84
f 101/109/85 99/107/83 76/108/84 78/110/86
f 103/111/87 101/109/85 78/110/86 80/112/88
f 105/113/89 103/111/87 80/112/88 82/114/90
f 107/115/91 105/113/89 82/114/90 84/116/92
f 109/117/93 107/115/91 84/116/92 86/118/94
f 26/96/72 89/95/71 88/22/22 27/21/21
f 64/119/95 85/120/96 62/121/97 52/122/98
f 1/123/99 39/124/47 40/125/48
f 1/123/99 40/125/48 41/126/49
f 1/123/99 41/126/49 42/127/50
f 1/123/99 42/127/50 43/128/51
f 1/123/99 43/128/51 44/129/52
f 1/123/99 44/129/52 45/130/53
f 1/123/99 45/130/53 46/131/54
f 1/123/99 46/131/54 47/132/55
f 1/123/99 47/132/55 48/133/56
f 1/123/99 48/133/56 49/134/57
f 1/123/99 49/134/57 50/135/58
f 1/123/99 50/135/58 39/124/47
f 38/136/100 51/137/100 52/138/100
f 38/136/100 53/139/100 51/137/100
f 38/136/100 54/140/100 53/139/100
f 38/136/100 55/141/100 54/140/100
f 38/136/100 56/142/100 55/141/100
f 38/136/100 57/143/100 56/142/100
f 38/136/100 58/144/100 57/143/100
f 38/136/100 59/145/100 58/144/100
f 38/136/100 60/146/100 59/145/100
f 38/136/100 61/147/100 60/146/100
f 38/136/100 62/148/100 61/147/100
f 38/136/100 52/138/100 62/148/100
f 67/149/101 65/150/102 51/151/103 53/152/104
f 69/153/105 67/149/101 53/152/104 54/154/106
f 71/155/107 69/153/105 54/154/106 55/156/108
f 73/157/109 71/155/107 55/156/108 56/158/110
f 75/159/111 73/157/109 56/158/110 57/160/112
f 77/161/113 75/159/111 57/160/112 58/162/114
f 79/163/115 77/161/113 58/162/114 59/164/116
f 81/165/117 79/163/115 59/164/116 60/166/118
f 83/167/119 81/165/117 60/166/118 61/168/120
f 85/120/96 83/167/119 61/168/120 62/121/97
f 87/98/74 90/169/121 63/170/122 66/99/75
f 90/169/121 109/117/93 86/118/94 63/170/122
f 88/171/22 89/172/71 90/173/121 87/174/74
f 92/175/2 88/171/22 87/176/74 91/177/73
f 94/178/3 92/175/2 91/179/73 93/180/77
f 96/181/5 94/178/3 93/182/77 95/183/79
f 98/184/8 96/181/5 95/185/79 97/186/81
f 100/187/9 98/184/8 97/188/81 99/189/83
f 102/190/11 100/187/9 99/191/83 101/192/85
f 104/193/13 102/190/11 101/194/85 103/195/87
f 106/196/15 104/193/13 103/197/87 105/198/89
f 108/199/17 106/196/15 105/200/89 107/201/91
f 110/202/19 108/199/17 107/203/91 109/204/93
f 89/172/71 110/202/19 109/205/93 90/206/121
f 64/207/95 65/208/102 66/209/75 63/210/122
f 65/208/102 67/211/101 68/212/76 66/209/75
f 67/211/101 69/213/105 70/214/78 68/212/76
f 69/213/105 71/215/107 72/216/80 70/214/78
f 71/215/107 73/217/109 74/218/82 72/216/80
f 73/217/109 75/219/111 76/220/84 74/218/82
f 75/219/111 77/221/113 78/222/86 76/220/84
f 77/221/113 79/223/115 80/224/88 78/222/86
f 79/223/115 81/225/117 82/226/90 80/224/88
f 81/225/117 83/227/119 84/228/92 82/226/90
f 83/227/119 85/229/96 86/230/94 84/228/92
f 85/229/96 64/207/95 63/210/122 86/230/94
f 65/150/102 64/119/95 52/122/98 51/151/103
