# Blender v3.4.1 OBJ File: 'Tiny_Treats_House_Plants_ASSETS_EXPORT.blend'
# www.blender.org
mtllib pot_B_small.mtl
o pot_B_small
v 0.000000 0.000000 -0.000000
v 0.141435 0.028620 -0.141435
v 0.193204 0.028620 -0.051769
v 0.193204 0.028620 0.051769
v 0.141435 0.028620 0.141435
v 0.051769 0.028620 0.193204
v -0.051769 0.028620 0.193204
v -0.141435 0.028620 0.141435
v -0.141435 0.028620 -0.141435
v -0.051769 0.028620 -0.193204
v 0.051769 0.028620 -0.193204
v 0.000000 0.300000 -0.000000
v 0.120465 0.000000 -0.120465
v 0.164558 0.000000 -0.044093
v 0.164558 -0.000000 0.044093
v 0.120465 -0.000000 0.120465
v 0.044093 -0.000000 0.164558
v -0.044093 -0.000000 0.164558
v -0.120465 -0.000000 0.120465
v -0.164558 -0.000000 0.044093
v -0.164558 0.000000 -0.044093
v -0.120465 0.000000 -0.120465
v -0.044093 0.000000 -0.164558
v 0.044093 0.000000 -0.164558
v 0.172732 0.300000 -0.046283
v 0.126448 0.300000 -0.126448
v 0.172732 0.300000 0.046283
v 0.126448 0.300000 0.126448
v 0.046283 0.300000 0.172731
v -0.046283 0.300000 0.172731
v -0.126448 0.300000 0.126448
v -0.172732 0.300000 0.046283
v -0.172732 0.300000 -0.046283
v -0.126448 0.300000 -0.126448
v -0.046283 0.300000 -0.172732
v 0.046283 0.300000 -0.172732
v -0.184741 0.028620 0.049501
v -0.184741 0.028620 -0.049501
v 0.141089 0.400000 -0.141089
v 0.126448 0.380000 -0.126448
v 0.172732 0.380000 -0.046283
v 0.192732 0.400000 -0.051642
v 0.172732 0.380000 0.046283
v 0.192732 0.400000 0.051642
v 0.126448 0.380000 0.126448
v 0.141089 0.400000 0.141089
v 0.046283 0.380000 0.172731
v 0.051642 0.400000 0.192731
v -0.046283 0.380000 0.172731
v -0.051642 0.400000 0.192731
v -0.126448 0.380000 0.126448
v -0.141089 0.400000 0.141089
v -0.172732 0.380000 0.046283
v -0.192731 0.400000 0.051642
v -0.172732 0.380000 -0.046283
v -0.192732 0.400000 -0.051642
v -0.126448 0.380000 -0.126448
v -0.141089 0.400000 -0.141089
v -0.046283 0.380000 -0.172732
v -0.051642 0.400000 -0.192732
v 0.046283 0.380000 -0.172732
v 0.051642 0.400000 -0.192732
v 0.230000 0.400000 -0.061628
v 0.246981 0.380229 -0.066179
v 0.180803 0.380229 -0.180803
v 0.168372 0.400000 -0.168372
v 0.230000 0.400000 0.061628
v 0.246981 0.380229 0.066178
v 0.168372 0.400000 0.168372
v 0.180803 0.380229 0.180803
v 0.061628 0.400000 0.230000
v 0.066179 0.380229 0.246981
v -0.061628 0.400000 0.230000
v -0.066178 0.380229 0.246981
v -0.168372 0.400000 0.168372
v -0.180803 0.380229 0.180803
v -0.230000 0.400000 0.061628
v -0.246981 0.380229 0.066178
v -0.230000 0.400000 -0.061628
v -0.246981 0.380229 -0.066179
v -0.168372 0.400000 -0.168372
v -0.180803 0.380229 -0.180803
v -0.061628 0.400000 -0.230000
v -0.066178 0.380229 -0.246981
v 0.061628 0.400000 -0.230000
v 0.066178 0.380229 -0.246981
vt 0.308618 0.837467
vt 0.309287 0.853816
vt 0.314607 0.853816
vt 0.312780 0.837467
vt 0.315183 0.837467
vt 0.317679 0.853816
vt 0.314607 0.853816
vt 0.312780 0.837467
vt 0.308618 0.837467
vt 0.309287 0.853816
vt 0.303143 0.853816
vt 0.303812 0.837467
vt 0.297823 0.853816
vt 0.299650 0.837467
vt 0.294751 0.853816
vt 0.297037 0.838843
vt 0.297037 0.838843
vt 0.294751 0.853816
vt 0.297823 0.853816
vt 0.299650 0.837467
vt 0.298577 0.820542
vt 0.298243 0.820868
vt 0.299650 0.821842
vt 0.300623 0.820542
vt 0.303812 0.837467
vt 0.303143 0.853816
vt 0.298400 0.870358
vt 0.303354 0.870358
vt 0.303818 0.870358
vt 0.299666 0.870358
vt 0.308261 0.820542
vt 0.308618 0.821842
vt 0.312780 0.821842
vt 0.311806 0.820542
vt 0.304168 0.820542
vt 0.303812 0.821842
vt 0.298577 0.820542
vt 0.298243 0.820868
vt 0.304168 0.820542
vt 0.303812 0.821842
vt 0.299650 0.821842
vt 0.300623 0.820542
vt 0.308261 0.820542
vt 0.308618 0.821842
vt 0.311806 0.820542
vt 0.312780 0.821842
vt 0.313853 0.820542
vt 0.315183 0.821842
vt 0.313853 0.820542
vt 0.315183 0.821842
vt 0.316891 0.870358
vt 0.316891 0.870358
vt 0.315161 0.870358
vt 0.315161 0.870358
vt 0.309075 0.870358
vt 0.314030 0.870358
vt 0.312764 0.870358
vt 0.308612 0.870358
vt 0.295539 0.870358
vt 0.297269 0.870358
vt 0.295539 0.870358
vt 0.297269 0.870358
vt 0.298400 0.870358
vt 0.299666 0.870358
vt 0.303354 0.870358
vt 0.303818 0.870358
vt 0.309075 0.870358
vt 0.308612 0.870358
vt 0.317679 0.853816
vt 0.315183 0.837467
vt 0.328819 0.878654
vt 0.318350 0.878654
vt 0.318350 0.871689
vt 0.328819 0.871689
vt 0.334864 0.878654
vt 0.334864 0.878654
vt 0.334864 0.871689
vt 0.334864 0.871689
vt 0.328819 0.878654
vt 0.328819 0.871689
vt 0.318350 0.878654
vt 0.318350 0.871689
vt 0.306260 0.878654
vt 0.306260 0.871689
vt 0.295791 0.878654
vt 0.295791 0.871689
vt 0.289746 0.878654
vt 0.289746 0.871689
vt 0.289746 0.878654
vt 0.289746 0.871689
vt 0.295791 0.878654
vt 0.295791 0.871689
vt 0.306260 0.878654
vt 0.306260 0.871689
vt 0.314030 0.870358
vt 0.312764 0.870358
vt 0.306215 0.804917
vt 0.311806 0.804917
vt 0.313853 0.804917
vt 0.313853 0.804917
vt 0.311806 0.804917
vt 0.308261 0.804917
vt 0.304168 0.804917
vt 0.300623 0.804917
vt 0.298577 0.804917
vt 0.298577 0.804917
vt 0.300623 0.804917
vt 0.304168 0.804917
vt 0.308261 0.804917
vt 0.937305 0.715439
vt 0.959864 0.621689
vt 0.953819 0.621689
vt 0.959864 0.621689
vt 0.953819 0.621689
vt 0.943350 0.621689
vt 0.931260 0.621689
vt 0.920791 0.621689
vt 0.914746 0.621689
vt 0.914746 0.621689
vt 0.920791 0.621689
vt 0.931260 0.621689
vt 0.943350 0.621689
vt 0.317679 0.885066
vt 0.314607 0.885066
vt 0.314030 0.885983
vt 0.316891 0.885983
vt 0.317679 0.885066
vt 0.316891 0.885983
vt 0.314607 0.885066
vt 0.314030 0.885983
vt 0.309287 0.885066
vt 0.309075 0.885983
vt 0.303143 0.885066
vt 0.303354 0.885983
vt 0.297823 0.885066
vt 0.298400 0.885983
vt 0.294751 0.885066
vt 0.295539 0.885983
vt 0.294751 0.885066
vt 0.295539 0.885983
vt 0.297823 0.885066
vt 0.298400 0.885983
vt 0.303143 0.885066
vt 0.303354 0.885983
vt 0.309287 0.885066
vt 0.309075 0.885983
vt 0.312084 0.885055
vt 0.314232 0.885055
vt 0.315161 0.885983
vt 0.312764 0.885983
vt 0.314232 0.885055
vt 0.315161 0.885983
vt 0.312084 0.885055
vt 0.312764 0.885983
vt 0.308363 0.885055
vt 0.308612 0.885983
vt 0.304067 0.885055
vt 0.303818 0.885983
vt 0.300346 0.885055
vt 0.299666 0.885983
vt 0.298197 0.885055
vt 0.297269 0.885983
vt 0.298197 0.885055
vt 0.297269 0.885983
vt 0.300346 0.885055
vt 0.299666 0.885983
vt 0.304067 0.885055
vt 0.303818 0.885983
vt 0.308363 0.885055
vt 0.308612 0.885983
vn 0.2322 -0.4417 -0.8666
vn 0.2497 0.2637 -0.9317
vn 0.6821 0.2637 -0.6821
vn 0.6344 -0.4417 -0.6344
vn 0.8666 -0.4417 0.2322
vn 0.9317 0.2637 0.2497
vn 0.6821 0.2637 0.6821
vn 0.6344 -0.4417 0.6344
vn 0.2322 -0.4417 0.8666
vn 0.2497 0.2637 0.9317
vn -0.2497 0.2637 0.9317
vn -0.2322 -0.4417 0.8666
vn -0.6896 0.2614 0.6754
vn -0.6536 -0.4262 0.6255
vn -0.9557 -0.1735 0.2379
vn -0.8903 -0.4001 0.2174
vn -0.8903 -0.4001 -0.2174
vn -0.9557 -0.1735 -0.2379
vn -0.6896 0.2614 -0.6754
vn -0.6536 -0.4262 -0.6255
vn -0.4752 -0.8728 -0.1117
vn -0.3243 -0.8960 -0.3034
vn -0.2322 -0.4417 -0.8666
vn -0.2497 0.2637 -0.9317
vn -0.3275 0.8863 0.3275
vn -0.1199 0.8863 0.4473
vn 0.0825 0.9479 -0.3078
vn 0.2253 0.9479 -0.2253
vn 0.1101 -0.9050 -0.4110
vn 0.3009 -0.9050 -0.3009
vn -0.1101 -0.9050 -0.4110
vn -0.4752 -0.8728 0.1117
vn -0.1101 -0.9050 0.4110
vn -0.3243 -0.8960 0.3034
vn 0.1101 -0.9050 0.4110
vn 0.3009 -0.9050 0.3009
vn 0.4110 -0.9050 0.1101
vn 0.4110 -0.9050 -0.1101
vn 0.8666 -0.4417 -0.2322
vn 0.4473 0.8863 0.1199
vn 0.4473 0.8863 -0.1199
vn -0.3078 0.9479 0.0825
vn -0.3078 0.9479 -0.0825
vn 0.1199 0.8863 0.4473
vn 0.3275 0.8863 0.3275
vn -0.2253 0.9479 -0.2253
vn -0.0825 0.9479 -0.3078
vn -0.4473 0.8863 0.1199
vn 0.3078 0.9479 -0.0825
vn -0.4473 0.8863 -0.1199
vn 0.3078 0.9479 0.0825
vn -0.3275 0.8863 -0.3275
vn 0.2253 0.9479 0.2253
vn -0.1199 0.8863 -0.4473
vn 0.0825 0.9479 0.3078
vn 0.1199 0.8863 -0.4473
vn -0.0825 0.9479 0.3078
vn 0.9317 0.2637 -0.2497
vn -0.6430 0.4159 0.6430
vn -0.2354 0.4159 0.8784
vn -0.2588 -0.0000 0.9659
vn -0.7071 -0.0000 0.7071
vn -0.8784 0.4159 -0.2354
vn -0.8784 0.4159 0.2354
vn -0.9659 0.0000 0.2588
vn -0.9659 -0.0000 -0.2588
vn -0.6430 0.4159 -0.6430
vn -0.7071 0.0000 -0.7071
vn -0.2354 0.4159 -0.8784
vn -0.2588 0.0000 -0.9659
vn 0.2354 0.4159 -0.8784
vn 0.2588 0.0000 -0.9659
vn 0.6430 0.4159 -0.6430
vn 0.7071 0.0000 -0.7071
vn 0.8784 0.4159 -0.2354
vn 0.9659 0.0000 -0.2588
vn 0.8784 0.4159 0.2354
vn 0.9659 0.0000 0.2588
vn 0.6430 0.4159 0.6430
vn 0.7071 -0.0000 0.7071
vn 0.2354 0.4159 0.8784
vn 0.2588 -0.0000 0.9659
vn 0.3275 0.8863 -0.3275
vn -0.2253 0.9479 0.2253
vn -0.0000 -1.0000 -0.0000
vn -0.0000 1.0000 0.0000
vn -0.7218 0.6645 0.1934
vn -0.7218 0.6645 -0.1934
usemtl tiny_treats_1
s 1
f 11/1/1 86/2/2 65/3/3 2/4/4
f 4/5/5 68/6/6 70/7/7 5/8/8
f 6/9/9 72/10/10 74/11/11 7/12/12
f 7/12/12 74/11/11 76/13/13 8/14/14
f 8/14/14 76/13/13 78/15/15 37/16/16
f 38/17/17 80/18/18 82/19/19 9/20/20
f 21/21/21 38/22/17 9/23/20 22/24/22
f 10/25/23 84/26/24 86/2/2 11/1/1
f 75/27/25 73/28/26 50/29/27 52/30/28
f 5/8/8 70/7/7 72/10/10 6/9/9
f 24/31/29 11/32/1 2/33/4 13/34/30
f 23/35/31 10/36/23 11/32/1 24/31/29
f 22/24/22 9/23/20 10/36/23 23/35/31
f 9/20/20 82/19/19 84/26/24 10/25/23
f 37/16/16 78/15/15 80/18/18 38/17/17
f 20/37/32 37/38/16 38/22/17 21/21/21
f 18/39/33 7/40/12 8/41/14 19/42/34
f 17/43/35 6/44/9 7/40/12 18/39/33
f 16/45/36 5/46/8 6/44/9 17/43/35
f 15/47/37 4/48/5 5/46/8 16/45/36
f 14/49/38 3/50/39 4/48/5 15/47/37
f 13/34/30 2/33/4 3/50/39 14/49/38
f 67/51/40 63/52/41 42/53/42 44/54/43
f 71/55/44 69/56/45 46/57/46 48/58/47
f 73/28/26 71/55/44 48/58/47 50/29/27
f 77/59/48 75/27/25 52/30/28 54/60/49
f 79/61/50 77/59/48 54/60/49 56/62/51
f 81/63/52 79/61/50 56/62/51 58/64/53
f 83/65/54 81/63/52 58/64/53 60/66/55
f 85/67/56 83/65/54 60/66/55 62/68/57
f 2/4/4 65/3/3 64/69/58 3/70/39
f 3/70/39 64/69/58 68/6/6 4/5/5
f 69/56/45 67/51/40 44/54/43 46/57/46
f 40/71/59 61/72/60 36/73/61 26/74/62
f 43/75/63 41/76/64 25/77/65 27/78/66
f 45/79/67 43/75/63 27/78/66 28/80/68
f 47/81/69 45/79/67 28/80/68 29/82/70
f 49/83/71 47/81/69 29/82/70 30/84/72
f 51/85/73 49/83/71 30/84/72 31/86/74
f 53/87/75 51/85/73 31/86/74 32/88/76
f 55/89/77 53/87/75 32/88/76 33/90/78
f 57/91/79 55/89/77 33/90/78 34/92/80
f 59/93/81 57/91/79 34/92/80 35/94/82
f 61/72/60 59/93/81 35/94/82 36/73/61
f 63/52/41 66/95/83 39/96/84 42/53/42
f 66/95/83 85/67/56 62/68/57 39/96/84
f 1/97/85 13/98/30 14/99/38
f 1/97/85 14/99/38 15/100/37
f 1/97/85 15/100/37 16/101/36
f 1/97/85 16/101/36 17/102/35
f 1/97/85 17/102/35 18/103/33
f 1/97/85 18/103/33 19/104/34
f 1/97/85 19/104/34 20/105/32
f 1/97/85 20/105/32 21/106/21
f 1/97/85 21/106/21 22/107/22
f 1/97/85 22/107/22 23/108/31
f 1/97/85 23/108/31 24/109/29
f 1/97/85 24/109/29 13/98/30
f 12/110/86 25/111/86 26/112/86
f 12/110/86 27/113/86 25/111/86
f 12/110/86 28/114/86 27/113/86
f 12/110/86 29/115/86 28/114/86
f 12/110/86 30/116/86 29/115/86
f 12/110/86 31/117/86 30/116/86
f 12/110/86 32/118/86 31/117/86
f 12/110/86 33/119/86 32/118/86
f 12/110/86 34/120/86 33/119/86
f 12/110/86 35/121/86 34/120/86
f 12/110/86 36/122/86 35/121/86
f 12/110/86 26/112/86 36/122/86
f 19/42/34 8/41/14 37/38/16 20/37/32
f 64/123/58 65/124/3 66/125/83 63/126/41
f 68/127/6 64/123/58 63/126/41 67/128/40
f 70/129/7 68/127/6 67/128/40 69/130/45
f 72/131/10 70/129/7 69/130/45 71/132/44
f 74/133/11 72/131/10 71/132/44 73/134/26
f 76/135/13 74/133/11 73/134/26 75/136/25
f 78/137/87 76/135/13 75/136/25 77/138/48
f 80/139/88 78/137/87 77/138/48 79/140/50
f 82/141/19 80/139/88 79/140/50 81/142/52
f 84/143/24 82/141/19 81/142/52 83/144/54
f 86/145/2 84/143/24 83/144/54 85/146/56
f 65/124/3 86/145/2 85/146/56 66/125/83
f 40/147/59 41/148/64 42/149/42 39/150/84
f 41/148/64 43/151/63 44/152/43 42/149/42
f 43/151/63 45/153/67 46/154/46 44/152/43
f 45/153/67 47/155/69 48/156/47 46/154/46
f 47/155/69 49/157/71 50/158/27 48/156/47
f 49/157/71 51/159/73 52/160/28 50/158/27
f 51/159/73 53/161/75 54/162/49 52/160/28
f 53/161/75 55/163/77 56/164/51 54/162/49
f 55/163/77 57/165/79 58/166/53 56/164/51
f 57/165/79 59/167/81 60/168/55 58/166/53
f 59/167/81 61/169/60 62/170/57 60/168/55
f 61/169/60 40/147/59 39/150/84 62/170/57
f 41/76/64 40/71/59 26/74/62 25/77/65
