# Blender v3.4.1 OBJ File: 'Tiny_Treats_House_Plants_ASSETS_EXPORT.blend'
# www.blender.org
mtllib pot_C_medium.mtl
o pot_C_medium
v -0.000000 0.000754 -0.000000
v 0.293074 0.602041 -0.293074
v 0.400346 0.602041 -0.107272
v 0.400346 0.602041 0.107273
v 0.293074 0.602041 0.293074
v 0.107272 0.602041 0.400346
v -0.107273 0.602041 0.400346
v -0.293074 0.602041 0.293074
v -0.400347 0.602041 0.107273
v -0.400347 0.602041 -0.107272
v -0.293074 0.602041 -0.293074
v -0.107273 0.602041 -0.400346
v 0.107272 0.602041 -0.400346
v 0.359782 0.049981 -0.096403
v 0.359783 0.049981 0.096403
v 0.263379 0.049981 0.263379
v 0.096403 0.049981 0.359783
v -0.096404 0.049981 0.359783
v -0.263379 0.049981 0.263379
v -0.359783 0.049981 0.096403
v -0.359783 0.049981 -0.096404
v -0.263379 0.049981 -0.263379
v -0.096404 0.049981 -0.359783
v 0.096403 0.049981 -0.359783
v 0.263379 0.049981 -0.263379
v 0.231574 0.000754 -0.231574
v 0.316336 0.000754 -0.084762
v 0.316336 0.000754 0.084762
v 0.231574 0.000754 0.231574
v 0.084762 0.000754 0.316336
v -0.084762 0.000754 0.316336
v -0.231574 0.000754 0.231574
v -0.316336 0.000754 0.084762
v -0.316336 0.000754 -0.084762
v -0.231574 0.000754 -0.231574
v -0.084762 0.000754 -0.316336
v 0.084762 0.000754 -0.316336
v -0.000000 0.564414 0.000000
v 0.376918 0.564414 0.100995
v 0.100995 0.564413 0.376918
v -0.100995 0.564413 0.376918
v -0.376918 0.564414 0.100995
v -0.100995 0.564414 -0.376918
v 0.376918 0.564414 -0.100995
v 0.275923 0.564414 -0.275923
v 0.275923 0.564413 0.275923
v -0.275923 0.564413 0.275923
v -0.376918 0.564414 -0.100995
v -0.275923 0.564414 -0.275923
v 0.100995 0.564414 -0.376918
v 0.270803 0.187996 -0.270803
v 0.278226 0.326011 -0.278227
v 0.285650 0.464026 -0.285650
v 0.390205 0.464026 -0.104555
v 0.380064 0.326011 -0.101838
v 0.369923 0.187996 -0.099121
v 0.390205 0.464026 0.104555
v 0.380064 0.326011 0.101838
v 0.369923 0.187996 0.099121
v 0.285650 0.464026 0.285650
v 0.278226 0.326011 0.278227
v 0.270803 0.187996 0.270803
v 0.104555 0.464026 0.390206
v 0.101838 0.326011 0.380065
v 0.099121 0.187996 0.369924
v -0.104555 0.464026 0.390206
v -0.101838 0.326011 0.380065
v -0.099121 0.187996 0.369924
v -0.285650 0.464026 0.285650
v -0.278227 0.326011 0.278227
v -0.270803 0.187996 0.270803
v -0.390206 0.464026 0.104555
v -0.380065 0.326011 0.101838
v -0.369924 0.187996 0.099121
v -0.390206 0.464026 -0.104555
v -0.380065 0.326011 -0.101838
v -0.369924 0.187996 -0.099121
v -0.285650 0.464026 -0.285650
v -0.278227 0.326011 -0.278227
v -0.270803 0.187996 -0.270803
v -0.104555 0.464026 -0.390205
v -0.101838 0.326011 -0.380064
v -0.099121 0.187996 -0.369924
v 0.104555 0.464026 -0.390205
v 0.101838 0.326011 -0.380065
v 0.099120 0.187996 -0.369924
v 0.500001 0.620855 0.000000
v 0.452058 0.733510 -0.000136
v 0.355211 0.732313 -0.000020
v 0.308661 0.620855 0.000000
v 0.355211 0.509397 0.000020
v 0.452058 0.508200 0.000136
v 0.421908 0.685771 -0.243702
v 0.349408 0.750754 -0.201839
v 0.277839 0.684307 -0.160456
v 0.277879 0.557403 -0.160388
v 0.349502 0.490956 -0.201677
v 0.422007 0.555939 -0.243532
v 0.225911 0.733510 -0.391562
v 0.177588 0.732313 -0.307632
v 0.154330 0.620855 -0.267308
v 0.177623 0.509397 -0.307612
v 0.226147 0.508200 -0.391426
v 0.250000 0.620855 -0.433013
v -0.000094 0.750754 -0.403515
v -0.000040 0.684307 -0.320844
v 0.000040 0.557403 -0.320844
v 0.000094 0.490956 -0.403516
v 0.000098 0.555939 -0.487235
v -0.000098 0.685771 -0.487235
v -0.177623 0.732313 -0.307612
v -0.154330 0.620855 -0.267308
v -0.177588 0.509397 -0.307632
v -0.225911 0.508200 -0.391562
v -0.250000 0.620855 -0.433014
v -0.226147 0.733510 -0.391426
v -0.277879 0.684307 -0.160388
v -0.277839 0.557403 -0.160456
v -0.349408 0.490956 -0.201839
v -0.421908 0.555939 -0.243703
v -0.422007 0.685771 -0.243532
v -0.349502 0.750754 -0.201677
v -0.308661 0.620855 0.000000
v -0.355211 0.509397 -0.000020
v -0.452058 0.508200 -0.000136
v -0.500001 0.620855 0.000000
v -0.452058 0.733510 0.000136
v -0.355211 0.732313 0.000020
v -0.277879 0.557403 0.160388
v -0.349502 0.490956 0.201677
v -0.422007 0.555939 0.243532
v -0.421909 0.685771 0.243702
v -0.349408 0.750754 0.201839
v -0.277839 0.684307 0.160456
v -0.177623 0.509397 0.307612
v -0.226147 0.508200 0.391426
v -0.250000 0.620855 0.433014
v -0.225911 0.733510 0.391562
v -0.177588 0.732313 0.307632
v -0.154330 0.620855 0.267308
v -0.000094 0.490956 0.403516
v -0.000098 0.555939 0.487235
v 0.000098 0.685771 0.487235
v 0.000094 0.750754 0.403516
v 0.000040 0.684307 0.320844
v -0.000040 0.557403 0.320844
v 0.225911 0.508200 0.391562
v 0.250000 0.620855 0.433014
v 0.226147 0.733510 0.391426
v 0.177623 0.732313 0.307612
v 0.154330 0.620855 0.267308
v 0.177588 0.509397 0.307632
v 0.421908 0.555939 0.243703
v 0.422007 0.685771 0.243532
v 0.349502 0.750754 0.201677
v 0.277879 0.684307 0.160388
v 0.277839 0.557403 0.160456
v 0.349408 0.490956 0.201839
vt 0.942912 0.912920
vt 0.943052 0.919323
vt 0.952678 0.888073
vt 0.952293 0.881670
vt 0.932079 0.912920
vt 0.931938 0.919323
vt 0.922698 0.912920
vt 0.922313 0.919323
vt 0.931938 0.888073
vt 0.932079 0.881670
vt 0.917281 0.912920
vt 0.916756 0.919323
vt 0.917281 0.912920
vt 0.916756 0.919323
vt 0.916756 0.888073
vt 0.917281 0.881670
vt 0.922698 0.912920
vt 0.922313 0.919323
vt 0.932079 0.912920
vt 0.931938 0.919323
vt 0.922313 0.888073
vt 0.922698 0.881670
vt 0.942912 0.912920
vt 0.943052 0.919323
vt 0.952293 0.912920
vt 0.952677 0.919323
vt 0.943052 0.888073
vt 0.942912 0.881670
vt 0.957709 0.912920
vt 0.958235 0.919323
vt 0.957709 0.912920
vt 0.958235 0.919323
vt 0.958235 0.888073
vt 0.957709 0.881670
vt 0.952293 0.912920
vt 0.952678 0.919323
vt 0.949492 0.813305
vt 0.951139 0.815589
vt 0.956133 0.815589
vt 0.953883 0.813305
vt 0.956133 0.815589
vt 0.953883 0.813305
vt 0.951139 0.815589
vt 0.949492 0.813305
vt 0.942489 0.815589
vt 0.941886 0.813305
vt 0.932501 0.815589
vt 0.933104 0.813305
vt 0.923851 0.815589
vt 0.925499 0.813305
vt 0.918857 0.815589
vt 0.921108 0.813305
vt 0.918857 0.815589
vt 0.921108 0.813305
vt 0.923851 0.815589
vt 0.925499 0.813305
vt 0.932501 0.815589
vt 0.933104 0.813305
vt 0.942489 0.815589
vt 0.941886 0.813305
vt 0.937495 0.797680
vt 0.949492 0.797680
vt 0.953883 0.797680
vt 0.953883 0.797680
vt 0.949492 0.797680
vt 0.941886 0.797680
vt 0.933104 0.797680
vt 0.925499 0.797680
vt 0.921108 0.797680
vt 0.921108 0.797680
vt 0.925499 0.797680
vt 0.933104 0.797680
vt 0.941886 0.797680
vt 0.930411 0.730751
vt 0.947960 0.668251
vt 0.943258 0.668251
vt 0.947960 0.668251
vt 0.943258 0.668251
vt 0.935113 0.668251
vt 0.925708 0.668251
vt 0.917563 0.668251
vt 0.912861 0.668251
vt 0.912861 0.668251
vt 0.917563 0.668251
vt 0.925708 0.668251
vt 0.935113 0.668251
vt 0.951139 0.846839
vt 0.951524 0.853241
vt 0.956659 0.821991
vt 0.951524 0.868866
vt 0.951908 0.875268
vt 0.957184 0.875268
vt 0.956659 0.868866
vt 0.951908 0.890893
vt 0.952293 0.897295
vt 0.957709 0.866045
vt 0.957184 0.859643
vt 0.956133 0.846839
vt 0.956659 0.853241
vt 0.956659 0.853241
vt 0.956133 0.846839
vt 0.957184 0.844018
vt 0.956659 0.837616
vt 0.957184 0.890893
vt 0.957709 0.897295
vt 0.957709 0.897295
vt 0.957184 0.890893
vt 0.951524 0.821991
vt 0.956659 0.868866
vt 0.957184 0.875268
vt 0.951908 0.875268
vt 0.951524 0.868866
vt 0.952293 0.866045
vt 0.951908 0.859643
vt 0.951139 0.846839
vt 0.951524 0.853241
vt 0.942630 0.853241
vt 0.942489 0.846839
vt 0.942771 0.844018
vt 0.942630 0.837616
vt 0.951908 0.890893
vt 0.952293 0.897295
vt 0.942912 0.897295
vt 0.942771 0.890893
vt 0.932360 0.821991
vt 0.942630 0.868866
vt 0.942771 0.875268
vt 0.932220 0.875268
vt 0.932360 0.868866
vt 0.932079 0.866045
vt 0.932220 0.859643
vt 0.932501 0.846839
vt 0.932360 0.853241
vt 0.923467 0.853241
vt 0.923851 0.846839
vt 0.923082 0.844018
vt 0.923467 0.837616
vt 0.932220 0.890893
vt 0.932079 0.897295
vt 0.922698 0.897295
vt 0.923082 0.890893
vt 0.918332 0.821991
vt 0.923467 0.868866
vt 0.923082 0.875268
vt 0.917807 0.875268
vt 0.918332 0.868866
vt 0.917281 0.866045
vt 0.917807 0.859643
vt 0.918857 0.846839
vt 0.918332 0.853241
vt 0.918332 0.853241
vt 0.918857 0.846839
vt 0.917807 0.844018
vt 0.918332 0.837616
vt 0.917807 0.890893
vt 0.917281 0.897295
vt 0.917281 0.897295
vt 0.917807 0.890893
vt 0.923467 0.821991
vt 0.918332 0.868866
vt 0.917807 0.875268
vt 0.923082 0.875268
vt 0.923467 0.868866
vt 0.922698 0.866045
vt 0.923082 0.859643
vt 0.923851 0.846839
vt 0.923467 0.853241
vt 0.932360 0.853241
vt 0.932501 0.846839
vt 0.932220 0.844018
vt 0.932360 0.837616
vt 0.923082 0.890893
vt 0.922698 0.897295
vt 0.932079 0.897295
vt 0.932220 0.890893
vt 0.942630 0.821991
vt 0.932360 0.868866
vt 0.932220 0.875268
vt 0.942771 0.875268
vt 0.942630 0.868866
vt 0.942912 0.866045
vt 0.942771 0.859643
vt 0.942489 0.846839
vt 0.942630 0.853241
vt 0.951908 0.844018
vt 0.951524 0.837616
vt 0.942771 0.890893
vt 0.942912 0.897295
vt 0.967886 0.918809
vt 0.973511 0.914622
vt 0.970058 0.907357
vt 0.967893 0.910436
vt 0.962665 0.923000
vt 0.970058 0.921888
vt 0.957510 0.918715
vt 0.963083 0.921811
vt 0.957513 0.910530
vt 0.959730 0.914622
vt 0.962672 0.906245
vt 0.963083 0.907434
vt 0.953770 0.921888
vt 0.955505 0.914622
vt 0.950290 0.921811
vt 0.948615 0.914622
vt 0.950293 0.907434
vt 0.953787 0.907357
vt 0.937493 0.923000
vt 0.937493 0.918809
vt 0.937497 0.918715
vt 0.937503 0.910530
vt 0.937507 0.906245
vt 0.937507 0.910436
vt 0.924707 0.921811
vt 0.921213 0.921888
vt 0.926385 0.914622
vt 0.924710 0.907434
vt 0.921230 0.907357
vt 0.919495 0.914622
vt 0.917487 0.918715
vt 0.912329 0.923000
vt 0.917490 0.910530
vt 0.912335 0.906245
vt 0.907114 0.910436
vt 0.907107 0.918809
vt 0.915270 0.914622
vt 0.911917 0.921811
vt 0.911917 0.907434
vt 0.904942 0.907357
vt 0.901489 0.914622
vt 0.904942 0.921888
vt 0.917487 0.910530
vt 0.917490 0.918715
vt 0.912329 0.906245
vt 0.907107 0.910436
vt 0.907114 0.918809
vt 0.912335 0.923000
vt 0.924707 0.907434
vt 0.926385 0.914622
vt 0.921213 0.907357
vt 0.919495 0.914622
vt 0.921230 0.921888
vt 0.924710 0.921811
vt 0.937493 0.906245
vt 0.937497 0.910530
vt 0.937493 0.910436
vt 0.937507 0.918809
vt 0.937507 0.923000
vt 0.937503 0.918715
vt 0.953770 0.907357
vt 0.950290 0.907434
vt 0.955505 0.914622
vt 0.953787 0.921888
vt 0.950293 0.921811
vt 0.948615 0.914622
vt 0.967886 0.910436
vt 0.962665 0.906245
vt 0.967893 0.918809
vt 0.962672 0.923000
vt 0.957513 0.918715
vt 0.957510 0.910530
vn 0.2581 -0.0758 -0.9631
vn 0.7051 -0.0758 -0.7051
vn -0.2581 -0.0758 -0.9631
vn -0.7051 -0.0758 -0.7051
vn -0.9631 -0.0759 -0.2581
vn -0.9631 -0.0758 -0.2581
vn -0.9631 -0.0759 0.2581
vn -0.9631 -0.0758 0.2581
vn -0.7051 -0.0759 0.7051
vn -0.7051 -0.0758 0.7051
vn -0.2581 -0.0758 0.9631
vn 0.2581 -0.0758 0.9631
vn 0.7051 -0.0758 0.7051
vn 0.9631 -0.0758 0.2581
vn 0.9631 -0.0759 0.2581
vn 0.9631 -0.0758 -0.2581
vn 0.3228 -0.8897 -0.3228
vn 0.6545 -0.3785 -0.6545
vn 0.8940 -0.3785 -0.2396
vn 0.4410 -0.8897 -0.1182
vn 0.8940 -0.3785 0.2396
vn 0.4410 -0.8897 0.1182
vn 0.6545 -0.3785 0.6545
vn 0.3228 -0.8897 0.3228
vn 0.2396 -0.3785 0.8940
vn 0.1182 -0.8897 0.4410
vn -0.2396 -0.3785 0.8940
vn -0.1182 -0.8897 0.4410
vn -0.6545 -0.3785 0.6545
vn -0.3228 -0.8897 0.3228
vn -0.8940 -0.3785 0.2396
vn -0.4410 -0.8897 0.1182
vn -0.8940 -0.3785 -0.2396
vn -0.4410 -0.8897 -0.1182
vn -0.6545 -0.3785 -0.6545
vn -0.3228 -0.8897 -0.3228
vn -0.2396 -0.3785 -0.8940
vn -0.1182 -0.8897 -0.4410
vn 0.2396 -0.3785 -0.8940
vn 0.1182 -0.8897 -0.4410
vn 0.0000 -1.0000 -0.0000
vn -0.0000 1.0000 0.0000
vn 0.7995 0.4138 -0.4355
vn 1.0000 -0.0000 -0.0000
vn 0.9031 -0.4295 0.0061
vn 0.7769 -0.4138 -0.4746
vn 0.5159 0.8218 -0.2418
vn 0.9031 0.4295 -0.0061
vn 0.0388 0.9945 0.0971
vn -0.4735 0.8197 0.3222
vn -0.7523 0.4683 0.4635
vn -0.0509 0.9939 0.0980
vn -0.9004 0.4347 -0.0183
vn -0.7775 -0.4683 0.4197
vn -1.0000 -0.0000 0.0000
vn -0.5158 -0.8197 0.2490
vn -0.9004 -0.4347 0.0183
vn -0.0509 -0.9939 -0.0980
vn 0.4674 -0.8218 -0.3259
vn 0.0388 -0.9945 -0.0971
vn 0.4462 0.4295 -0.7851
vn 0.5000 -0.0000 -0.8660
vn 0.1035 0.9945 0.0149
vn 0.0594 0.9939 0.0931
vn -0.4661 0.4347 0.7706
vn -0.5000 -0.0000 0.8660
vn -0.4343 -0.4347 0.7889
vn -0.1104 -0.9939 -0.0049
vn -0.0647 -0.9945 -0.0821
vn 0.4568 -0.4295 -0.7790
vn 0.0485 0.8218 -0.5677
vn 0.0226 0.4138 -0.9101
vn 0.0422 0.8197 0.5712
vn 0.0253 0.4683 0.8832
vn -0.0253 -0.4683 0.8832
vn -0.0422 -0.8197 0.5712
vn -0.0485 -0.8218 -0.5677
vn -0.0226 -0.4138 -0.9101
vn 0.1104 0.9939 -0.0049
vn 0.0647 0.9945 -0.0821
vn 0.4343 0.4347 0.7889
vn 0.5000 -0.0000 0.8660
vn 0.4661 -0.4347 0.7706
vn -0.0594 -0.9939 0.0931
vn -0.1035 -0.9945 0.0149
vn -0.4462 -0.4295 -0.7851
vn -0.5000 0.0000 -0.8660
vn -0.4568 0.4295 -0.7790
vn 0.7775 0.4683 0.4197
vn 0.5158 0.8197 0.2490
vn 0.7523 -0.4683 0.4635
vn 0.4735 -0.8197 0.3222
vn -0.5159 -0.8218 -0.2418
vn -0.7995 -0.4138 -0.4355
vn -0.7769 0.4138 -0.4746
vn -0.4674 0.8218 -0.3259
vn 0.9004 0.4347 0.0183
vn 0.9004 -0.4347 -0.0183
vn 0.0509 -0.9939 0.0980
vn -0.0388 -0.9945 0.0971
vn -0.9031 -0.4295 -0.0061
vn -0.9031 0.4295 0.0061
vn -0.0388 0.9945 -0.0971
vn 0.0509 0.9939 -0.0980
vn 0.7775 -0.4683 -0.4197
vn 0.7523 0.4683 -0.4635
vn 0.5158 -0.8197 -0.2490
vn -0.4674 -0.8218 0.3259
vn -0.7769 -0.4138 0.4746
vn -0.7995 0.4138 0.4355
vn -0.5159 0.8218 0.2418
vn 0.4735 0.8197 -0.3222
vn 0.4343 -0.4347 -0.7889
vn 0.1104 -0.9939 0.0049
vn 0.0647 -0.9945 0.0821
vn -0.4568 -0.4295 0.7790
vn -0.4462 0.4295 0.7851
vn -0.1035 0.9945 -0.0150
vn -0.0594 0.9939 -0.0931
vn 0.4661 0.4347 -0.7706
vn 0.0422 -0.8197 -0.5712
vn 0.0253 -0.4683 -0.8832
vn 0.0485 -0.8218 0.5677
vn 0.0226 -0.4138 0.9101
vn -0.0226 0.4138 0.9101
vn -0.0485 0.8218 0.5677
vn -0.0422 0.8197 -0.5712
vn -0.0253 0.4683 -0.8832
vn 0.1035 -0.9945 -0.0149
vn 0.0594 -0.9939 -0.0931
vn 0.4462 -0.4295 0.7851
vn 0.4568 0.4295 0.7790
vn -0.0647 0.9945 0.0821
vn -0.1104 0.9939 0.0049
vn -0.4343 0.4347 -0.7889
vn -0.4661 -0.4347 -0.7706
vn 0.7995 -0.4138 0.4355
vn 0.5159 -0.8218 0.2418
vn 0.7769 0.4138 0.4746
vn 0.4674 0.8218 0.3259
vn -0.5158 0.8197 -0.2490
vn -0.7775 0.4683 -0.4197
vn -0.7523 -0.4683 -0.4635
vn -0.4735 -0.8197 -0.3222
usemtl tiny_treats_1
s 1
f 84/1/1 13/2/1 2/3/2 53/4/2
f 81/5/3 12/6/3 13/2/1 84/1/1
f 78/7/4 11/8/4 12/9/3 81/10/3
f 75/11/5 10/12/6 11/8/4 78/7/4
f 72/13/7 9/14/8 10/15/6 75/16/5
f 69/17/9 8/18/10 9/14/8 72/13/7
f 66/19/11 7/20/11 8/21/10 69/22/9
f 63/23/12 6/24/12 7/20/11 66/19/11
f 60/25/13 5/26/13 6/27/12 63/28/12
f 57/29/14 4/30/15 5/26/13 60/25/13
f 54/31/16 3/32/16 4/33/15 57/34/14
f 53/35/2 2/36/2 3/32/16 54/31/16
f 26/37/17 25/38/18 14/39/19 27/40/20
f 27/40/20 14/39/19 15/41/21 28/42/22
f 28/42/22 15/41/21 16/43/23 29/44/24
f 29/44/24 16/43/23 17/45/25 30/46/26
f 30/46/26 17/45/25 18/47/27 31/48/28
f 31/48/28 18/47/27 19/49/29 32/50/30
f 32/50/30 19/49/29 20/51/31 33/52/32
f 33/52/32 20/51/31 21/53/33 34/54/34
f 34/54/34 21/53/33 22/55/35 35/56/36
f 35/56/36 22/55/35 23/57/37 36/58/38
f 36/58/38 23/57/37 24/59/39 37/60/40
f 37/60/40 24/59/39 25/38/18 26/37/17
f 1/61/41 26/62/17 27/63/20
f 1/61/41 27/63/20 28/64/22
f 1/61/41 28/64/22 29/65/24
f 1/61/41 29/65/24 30/66/26
f 1/61/41 30/66/26 31/67/28
f 1/61/41 31/67/28 32/68/30
f 1/61/41 32/68/30 33/69/32
f 1/61/41 33/69/32 34/70/34
f 1/61/41 34/70/34 35/71/36
f 1/61/41 35/71/36 36/72/38
f 1/61/41 36/72/38 37/73/40
f 1/61/41 37/73/40 26/62/17
f 38/74/42 44/75/42 45/76/42
f 38/74/42 39/77/42 44/75/42
f 38/74/42 46/78/42 39/77/42
f 38/74/42 40/79/42 46/78/42
f 38/74/42 41/80/42 40/79/42
f 38/74/42 47/81/42 41/80/42
f 38/74/42 42/82/42 47/81/42
f 38/74/42 48/83/42 42/82/42
f 38/74/42 49/84/42 48/83/42
f 38/74/42 43/85/42 49/84/42
f 38/74/42 50/86/42 43/85/42
f 38/74/42 45/76/42 50/86/42
f 25/87/18 51/88/2 56/89/16 14/39/19
f 51/90/2 52/91/2 55/92/16 56/93/16
f 52/94/2 53/95/2 54/96/16 55/97/16
f 14/98/19 56/99/16 59/100/14 15/101/21
f 56/93/16 55/92/16 58/102/14 59/103/14
f 55/104/16 54/105/16 57/106/14 58/107/14
f 15/101/21 59/100/14 62/108/13 16/43/23
f 59/109/14 58/110/14 61/111/13 62/112/13
f 58/107/14 57/106/14 60/113/13 61/114/13
f 16/115/23 62/116/13 65/117/12 17/118/25
f 62/112/13 61/111/13 64/119/12 65/120/12
f 61/121/13 60/122/13 63/123/12 64/124/12
f 17/118/25 65/117/12 68/125/11 18/47/27
f 65/126/12 64/127/12 67/128/11 68/129/11
f 64/124/12 63/123/12 66/130/11 67/131/11
f 18/132/27 68/133/11 71/134/10 19/135/29
f 68/129/11 67/128/11 70/136/10 71/137/10
f 67/138/11 66/139/11 69/140/9 70/141/10
f 19/135/29 71/134/10 74/142/8 20/51/31
f 71/143/10 70/144/10 73/145/7 74/146/8
f 70/141/10 69/140/9 72/147/7 73/148/7
f 20/149/31 74/150/8 77/151/6 21/152/33
f 74/146/8 73/145/7 76/153/6 77/154/6
f 73/155/7 72/156/7 75/157/5 76/158/6
f 21/152/33 77/151/6 80/159/4 22/55/35
f 77/160/6 76/161/6 79/162/4 80/163/4
f 76/158/6 75/157/5 78/164/4 79/165/4
f 22/166/35 80/167/4 83/168/3 23/169/37
f 80/163/4 79/162/4 82/170/3 83/171/3
f 79/172/4 78/173/4 81/174/3 82/175/3
f 23/169/37 83/168/3 86/176/1 24/59/39
f 83/177/3 82/178/3 85/179/1 86/180/1
f 82/175/3 81/174/3 84/181/1 85/182/1
f 24/183/39 86/184/1 51/88/2 25/87/18
f 86/180/1 85/179/1 52/185/2 51/186/2
f 85/187/1 84/188/1 53/95/2 52/94/2
f 93/189/43 87/190/44 92/191/45 98/192/46
f 87/190/44 93/189/43 94/193/47 88/194/48
f 88/194/49 94/193/50 95/195/51 89/196/52
f 89/196/53 95/195/51 96/197/54 90/198/55
f 90/198/55 96/197/54 97/199/56 91/200/57
f 91/200/58 97/199/59 98/192/46 92/191/60
f 99/201/61 93/189/43 98/192/46 104/202/62
f 93/189/43 99/201/63 100/203/64 94/193/47
f 94/193/50 100/203/65 101/204/66 95/195/51
f 95/195/51 101/204/66 102/205/67 96/197/54
f 96/197/54 102/205/68 103/206/69 97/199/56
f 97/199/59 103/206/70 104/202/62 98/192/46
f 105/207/71 99/201/61 104/202/62 110/208/72
f 99/201/63 105/207/73 106/209/74 100/203/64
f 100/203/65 106/209/74 107/210/75 101/204/66
f 101/204/66 107/210/75 108/211/76 102/205/67
f 102/205/68 108/211/77 109/212/78 103/206/69
f 103/206/70 109/212/78 110/208/72 104/202/62
f 111/213/79 105/207/71 110/208/72 116/214/80
f 105/207/73 111/213/81 112/215/82 106/209/74
f 106/209/74 112/215/82 113/216/83 107/210/75
f 107/210/75 113/216/84 114/217/85 108/211/76
f 108/211/77 114/217/86 115/218/87 109/212/78
f 109/212/78 115/218/87 116/214/88 110/208/72
f 117/219/89 111/213/79 116/214/80 122/220/90
f 111/213/81 117/219/89 118/221/91 112/215/82
f 112/215/82 118/221/91 119/222/92 113/216/83
f 113/216/84 119/222/93 120/223/94 114/217/85
f 114/217/86 120/223/94 121/224/95 115/218/87
f 115/218/87 121/224/95 122/220/96 116/214/88
f 123/225/44 117/219/89 122/220/90 128/226/97
f 117/219/89 123/225/44 124/227/98 118/221/91
f 118/221/91 124/227/99 125/228/100 119/222/92
f 119/222/93 125/228/101 126/229/55 120/223/94
f 120/223/94 126/229/55 127/230/102 121/224/95
f 121/224/95 127/230/103 128/226/104 122/220/96
f 129/231/105 123/225/44 128/226/97 134/232/106
f 123/225/44 129/231/105 130/233/107 124/227/98
f 124/227/99 130/233/108 131/234/109 125/228/100
f 125/228/101 131/234/109 132/235/110 126/229/55
f 126/229/55 132/235/110 133/236/111 127/230/102
f 127/230/103 133/236/112 134/232/106 128/226/104
f 135/237/113 129/231/105 134/232/106 140/238/62
f 129/231/105 135/237/114 136/239/115 130/233/107
f 130/233/108 136/239/116 137/240/66 131/234/109
f 131/234/109 137/240/66 138/241/117 132/235/110
f 132/235/110 138/241/118 139/242/119 133/236/111
f 133/236/112 139/242/120 140/238/62 134/232/106
f 141/243/121 135/237/113 140/238/62 146/244/122
f 135/237/114 141/243/123 142/245/124 136/239/115
f 136/239/116 142/245/124 143/246/125 137/240/66
f 137/240/66 143/246/125 144/247/126 138/241/117
f 138/241/118 144/247/127 145/248/128 139/242/119
f 139/242/120 145/248/128 146/244/122 140/238/62
f 147/249/129 141/243/121 146/244/122 152/250/130
f 141/243/123 147/249/131 148/251/82 142/245/124
f 142/245/124 148/251/82 149/252/132 143/246/125
f 143/246/125 149/252/133 150/253/134 144/247/126
f 144/247/127 150/253/135 151/254/87 145/248/128
f 145/248/128 151/254/87 152/250/136 146/244/122
f 153/255/137 147/249/129 152/250/130 158/256/138
f 147/249/131 153/255/137 154/257/139 148/251/82
f 148/251/82 154/257/139 155/258/140 149/252/132
f 149/252/133 155/258/141 156/259/142 150/253/134
f 150/253/135 156/259/142 157/260/143 151/254/87
f 151/254/87 157/260/143 158/256/144 152/250/136
f 87/190/44 153/255/137 158/256/138 92/191/45
f 153/255/137 87/190/44 88/194/48 154/257/139
f 154/257/139 88/194/49 89/196/52 155/258/140
f 155/258/141 89/196/53 90/198/55 156/259/142
f 156/259/142 90/198/55 91/200/57 157/260/143
f 157/260/143 91/200/58 92/191/60 158/256/144
