# Blender v3.4.1 OBJ File: 'Tiny_Treats_House_Plants_ASSETS_EXPORT.blend'
# www.blender.org
mtllib sansevieria_leaf_small_B.mtl
o sansevieria_leaf_small_B
v -0.106411 -0.050000 0.028000
v 0.106411 -0.050000 0.028000
v -0.092080 0.262462 -0.109853
v 0.092080 0.262462 -0.109853
v 0.000000 0.372812 -0.409071
v -0.106411 0.152029 -0.023358
v 0.106411 0.152029 -0.023358
v -0.060717 0.081089 0.007177
v -0.061651 -0.050000 0.028000
v 0.061651 -0.050000 0.028000
v 0.036432 0.313997 -0.179469
v 0.000000 0.360965 -0.294672
v -0.036432 0.313997 -0.179469
v 0.060717 0.081089 0.007177
v 0.000000 -0.050000 0.028000
v 0.000000 0.106281 -0.001925
v 0.000000 0.288958 -0.141916
v -0.048574 0.211830 -0.062762
v 0.048574 0.211830 -0.062762
v -0.099246 0.211830 -0.062762
v 0.099245 0.211830 -0.062762
v 0.000000 0.211830 -0.062762
v -0.106411 -0.050000 -0.028000
v 0.106411 -0.050000 -0.028000
v -0.092080 0.221101 -0.147605
v 0.092080 0.221101 -0.147605
v 0.000000 0.316843 -0.407214
v -0.106411 0.125286 -0.072559
v 0.106411 0.125286 -0.072559
v -0.060717 0.063737 -0.046066
v -0.061651 -0.050000 -0.028000
v 0.061651 -0.050000 -0.028000
v 0.036432 0.265813 -0.208005
v 0.000000 0.306564 -0.307959
v -0.036432 0.265813 -0.208005
v 0.060717 0.063737 -0.046066
v 0.000000 -0.050000 -0.028000
v 0.000000 0.085594 -0.053964
v 0.000000 0.244089 -0.175424
v -0.048574 0.177171 -0.106748
v 0.048574 0.177171 -0.106748
v -0.099246 0.177171 -0.106748
v 0.099245 0.177171 -0.106748
v 0.000000 0.177171 -0.106748
v -0.127411 -0.050000 -0.000000
v 0.127411 -0.050000 -0.000000
v -0.112662 0.243705 -0.132428
v 0.112662 0.243705 -0.132428
v 0.000000 0.352094 -0.427845
v -0.127381 0.139592 -0.048575
v 0.127381 0.139592 -0.048575
v -0.120123 0.196282 -0.086158
v 0.120122 0.196282 -0.086158
vt 0.187837 0.652733
vt 0.193809 0.660934
vt 0.187837 0.683609
vt 0.187837 0.581335
vt 0.197944 0.581335
vt 0.197790 0.543040
vt 0.187837 0.547905
vt 0.195800 0.632606
vt 0.193809 0.598434
vt 0.187837 0.590233
vt 0.187837 0.632606
vt 0.802398 0.324098
vt 0.802398 0.342556
vt 0.797968 0.342556
vt 0.797968 0.324098
vt 0.804180 0.388187
vt 0.799802 0.388703
vt 0.805961 0.433817
vt 0.809044 0.443032
vt 0.809044 0.457001
vt 0.801636 0.434850
vt 0.812126 0.433817
vt 0.816451 0.434850
vt 0.813907 0.388187
vt 0.818285 0.388703
vt 0.815689 0.342556
vt 0.815689 0.324098
vt 0.820119 0.324098
vt 0.820119 0.342556
vt 0.179875 0.632606
vt 0.181865 0.598434
vt 0.177731 0.581335
vt 0.177884 0.543040
vt 0.181865 0.660934
vt 0.177884 0.605540
vt 0.187837 0.610405
vt 0.197790 0.605540
vt 0.187837 0.652733
vt 0.187837 0.683609
vt 0.193809 0.660934
vt 0.187837 0.581335
vt 0.187837 0.547905
vt 0.197790 0.543040
vt 0.197944 0.581335
vt 0.195800 0.632606
vt 0.187837 0.632606
vt 0.187837 0.590233
vt 0.193809 0.598434
vt 0.802398 0.324098
vt 0.797968 0.324098
vt 0.797968 0.342556
vt 0.802398 0.342556
vt 0.804180 0.388187
vt 0.799802 0.388703
vt 0.805961 0.433817
vt 0.801636 0.434850
vt 0.809044 0.457001
vt 0.809044 0.443032
vt 0.816451 0.434850
vt 0.812126 0.433817
vt 0.813907 0.388187
vt 0.818285 0.388703
vt 0.815689 0.342556
vt 0.820119 0.342556
vt 0.820119 0.324098
vt 0.815689 0.324098
vt 0.179875 0.632606
vt 0.181865 0.598434
vt 0.177731 0.581335
vt 0.177884 0.543040
vt 0.181865 0.660934
vt 0.177884 0.605540
vt 0.187837 0.610405
vt 0.197790 0.605540
vt 0.797968 0.324098
vt 0.797968 0.342556
vt 0.801636 0.434850
vt 0.809044 0.457001
vt 0.816451 0.434850
vt 0.799802 0.388703
vt 0.820119 0.342556
vt 0.820119 0.324098
vt 0.818285 0.388703
vn 0.0000 0.7819 0.6234
vn -0.1115 0.8451 0.5228
vn 0.0000 0.9045 0.4264
vn 0.0000 0.1738 0.9848
vn 0.0627 0.1926 0.9793
vn 0.0531 0.2777 0.9592
vn 0.0000 0.3753 0.9269
vn -0.0173 0.6176 0.7863
vn 0.0000 0.6210 0.7838
vn -0.0627 0.1926 0.9793
vn -0.0531 0.2777 0.9592
vn -0.4227 0.4124 0.8070
vn -0.4902 0.1957 0.8494
vn 0.0173 0.6176 0.7863
vn 0.0925 0.6047 0.7910
vn -0.6288 0.7714 0.0978
vn -0.8133 0.5784 -0.0623
vn -0.8212 0.5494 0.1543
vn 0.6288 0.7714 0.0978
vn 0.8212 0.5494 0.1543
vn 0.8133 0.5784 -0.0623
vn -0.0925 0.6047 0.7910
vn -0.0986 0.7218 0.6850
vn 0.4902 0.1957 0.8494
vn 0.4227 0.4124 0.8070
vn 0.1115 0.8451 0.5228
vn 0.0986 0.7218 0.6850
vn 0.0000 -0.7860 -0.6182
vn -0.0000 -0.9863 -0.1651
vn -0.2255 -0.9011 -0.3704
vn -0.0000 -0.1738 -0.9848
vn -0.0000 -0.3704 -0.9289
vn -0.0444 -0.2831 -0.9581
vn -0.0546 -0.1928 -0.9797
vn 0.0151 -0.6176 -0.7863
vn -0.0000 -0.6210 -0.7838
vn 0.0546 -0.1928 -0.9797
vn 0.1404 -0.2101 -0.9675
vn -0.4868 -0.3454 -0.8023
vn 0.0444 -0.2831 -0.9581
vn -0.0151 -0.6176 -0.7863
vn -0.4882 -0.4944 -0.7192
vn 0.2255 -0.9011 -0.3704
vn 0.5744 -0.8121 -0.1030
vn -0.5744 -0.8121 -0.1030
vn 0.5624 -0.5538 -0.6140
vn 0.4882 -0.4944 -0.7192
vn 0.4868 -0.3454 -0.8023
vn -0.1404 -0.2101 -0.9675
vn -0.5624 -0.5538 -0.6140
vn -0.7891 -0.1519 -0.5953
vn -0.7927 -0.2081 -0.5730
vn -0.8105 -0.3468 -0.4720
vn -0.8358 -0.3381 -0.4327
vn 0.8358 -0.3381 -0.4327
vn 0.8105 -0.3468 -0.4720
vn -0.7924 -0.3061 -0.5277
vn 0.7927 -0.2081 -0.5730
vn 0.7891 -0.1519 -0.5953
vn 0.7924 -0.3061 -0.5277
vn 0.7994 0.4361 0.4133
vn 0.8024 0.2730 0.5306
vn 0.7994 0.4364 0.4130
vn -0.7994 0.4361 0.4133
vn -0.8447 0.5194 0.1288
vn -0.7994 0.4364 0.4130
vn 0.8447 0.5194 0.1288
vn 0.7930 0.1507 0.5902
vn -0.8024 0.2730 0.5306
vn 0.8399 0.5348 -0.0925
vn -0.8399 0.5348 -0.0925
vn -0.7930 0.1507 0.5902
usemtl tiny_treats_1
s 1
f 17/1/1 11/2/2 12/3/3
f 15/4/4 10/5/5 14/6/6 16/7/7
f 19/8/8 11/9/2 17/10/1 22/11/9
f 9/12/10 8/13/11 6/14/12 1/15/13
f 18/16/14 20/17/15 6/14/12 8/13/11
f 13/18/16 12/19/16 5/20/17 3/21/18
f 12/19/19 11/22/19 4/23/20 5/20/21
f 19/24/8 21/25/22 4/23/23 11/22/2
f 14/26/6 10/27/5 2/28/24 7/29/25
f 18/30/14 22/11/9 17/10/1 13/31/26
f 9/32/10 15/4/4 16/7/7 8/33/11
f 13/34/26 17/1/1 12/3/3
f 8/35/11 16/36/7 22/11/9 18/30/14
f 14/26/6 7/29/25 21/25/22 19/24/8
f 13/18/26 3/21/27 20/17/15 18/16/14
f 14/37/6 19/8/8 22/11/9 16/36/7
f 39/38/28 34/39/29 33/40/30
f 37/41/31 38/42/32 36/43/33 32/44/34
f 41/45/35 44/46/36 39/47/28 33/48/30
f 31/49/37 23/50/38 28/51/39 30/52/40
f 40/53/41 30/52/40 28/51/39 42/54/42
f 35/55/43 25/56/44 27/57/44 34/58/29
f 34/58/29 27/57/45 26/59/45 33/60/30
f 41/61/35 33/60/30 26/59/46 43/62/47
f 36/63/33 29/64/48 24/65/49 32/66/34
f 40/67/41 35/68/43 39/47/28 44/46/36
f 31/69/37 30/70/40 38/42/32 37/41/31
f 35/71/43 34/39/29 39/38/28
f 30/72/40 40/67/41 44/46/36 38/73/32
f 36/63/33 41/61/35 43/62/47 29/64/48
f 35/55/43 40/53/41 42/54/42 25/56/50
f 36/74/33 38/73/32 44/46/36 41/45/35
f 45/75/51 50/76/52 28/51/39 23/50/51
f 47/77/53 49/78/54 27/57/54 25/56/50
f 49/78/55 48/79/56 26/59/46 27/57/55
f 50/76/52 52/80/57 42/54/42 28/51/39
f 51/81/58 46/82/59 24/65/59 29/64/48
f 48/79/56 53/83/60 43/62/47 26/59/46
f 52/80/57 47/77/53 25/56/50 42/54/42
f 53/83/60 51/81/58 29/64/48 43/62/47
f 21/25/61 7/29/25 51/81/62 53/83/63
f 20/17/64 3/21/18 47/77/65 52/80/66
f 4/23/20 21/25/61 53/83/63 48/79/67
f 7/29/25 2/28/24 46/82/68 51/81/62
f 6/14/12 20/17/64 52/80/66 50/76/69
f 5/20/21 4/23/20 48/79/67 49/78/70
f 3/21/18 5/20/17 49/78/71 47/77/65
f 1/15/13 6/14/12 50/76/69 45/75/72
