# Blender v3.4.1 OBJ File: 'Tiny_Treats_House_Plants_ASSETS_EXPORT.blend'
# www.blender.org
mtllib sansevieria_plant_small.mtl
o sansevieria_plant_small
v -0.097116 -0.043986 -0.081848
v 0.095071 -0.063799 -0.048867
v -0.041295 0.392667 -0.066375
v 0.125008 0.375522 -0.037836
v 0.099917 0.755382 -0.167387
v -0.074283 0.219700 -0.056491
v 0.117904 0.199887 -0.023510
v -0.047159 0.118959 -0.053498
v -0.061474 -0.047660 -0.075731
v 0.059429 -0.060125 -0.054983
v 0.091577 0.484627 -0.064931
v 0.077896 0.631792 -0.113309
v 0.020130 0.491993 -0.077192
v 0.071912 0.106684 -0.033065
v -0.001022 -0.053893 -0.065357
v 0.015511 0.146450 -0.041348
v 0.048423 0.434455 -0.060114
v -0.016060 0.303967 -0.051421
v 0.079199 0.294146 -0.035074
v -0.058053 0.308296 -0.058628
v 0.121192 0.289817 -0.027868
v 0.031570 0.299057 -0.043248
v -0.086805 -0.034115 -0.135998
v 0.105381 -0.053928 -0.103017
v -0.033533 0.376506 -0.121313
v 0.132770 0.359362 -0.092774
v 0.104228 0.717155 -0.215473
v -0.065330 0.213899 -0.112148
v 0.126857 0.194086 -0.079165
v -0.037645 0.118922 -0.108961
v -0.051163 -0.037790 -0.129882
v 0.069739 -0.050254 -0.109134
v 0.098507 0.462273 -0.118742
v 0.083516 0.600910 -0.164609
v 0.027060 0.469639 -0.131003
v 0.081426 0.106647 -0.088527
v 0.009288 -0.044022 -0.119508
v 0.024839 0.144414 -0.096925
v 0.055795 0.415302 -0.114576
v -0.007686 0.292861 -0.106886
v 0.087573 0.283040 -0.090538
v -0.049679 0.297190 -0.114092
v 0.129566 0.278711 -0.083332
v 0.039943 0.287950 -0.098712
v -0.112552 -0.036928 -0.112457
v 0.120817 -0.060987 -0.072408
v -0.057134 0.390615 -0.098315
v 0.149760 0.369286 -0.062810
v 0.105621 0.758961 -0.198476
v -0.090256 0.220028 -0.087890
v 0.143072 0.195974 -0.047848
v -0.074114 0.307094 -0.090037
v 0.146143 0.284387 -0.052239
v 0.076877 -0.050000 -0.074108
v -0.056487 -0.050000 0.091745
v 0.175326 0.262462 0.023446
v 0.059923 0.262462 0.166962
v 0.350805 0.372812 0.282708
v 0.116901 0.152029 -0.041925
v -0.016464 0.152029 0.123928
v 0.064470 0.081089 -0.025450
v 0.048828 -0.050000 -0.039226
v -0.028439 -0.050000 0.056863
v 0.149046 0.313997 0.167220
v 0.261654 0.360964 0.211020
v 0.194706 0.313997 0.110437
v -0.011626 0.081089 0.069184
v 0.010195 -0.050000 0.008818
v 0.033516 0.106281 0.027571
v 0.142611 0.288958 0.115296
v 0.111365 0.211830 0.027840
v 0.050487 0.211830 0.103549
v 0.143118 0.211830 -0.011648
v 0.018734 0.211830 0.143036
v 0.080926 0.211830 0.065694
v 0.120518 -0.050000 -0.039016
v -0.012846 -0.050001 0.126837
v 0.204746 0.221100 0.047103
v 0.089343 0.221100 0.190619
v 0.349358 0.316842 0.281545
v 0.155244 0.125285 -0.011093
v 0.021879 0.125285 0.154760
v 0.105963 0.063736 0.007915
v 0.092469 -0.050000 -0.004134
v 0.015202 -0.050000 0.091955
v 0.171284 0.265813 0.185103
v 0.272008 0.306564 0.219346
v 0.216945 0.265813 0.128319
v 0.029867 0.063736 0.102549
v 0.053836 -0.050000 0.043911
v 0.074069 0.085593 0.060181
v 0.168723 0.244089 0.136294
v 0.145643 0.177171 0.055404
v 0.084765 0.177170 0.131112
v 0.177396 0.177170 0.015915
v 0.053012 0.177170 0.170600
v 0.115204 0.177170 0.093258
v 0.111857 -0.050000 -0.072927
v -0.047826 -0.050001 0.125656
v 0.205816 0.243705 0.021552
v 0.064618 0.243705 0.197148
v 0.365436 0.352093 0.294473
v 0.149693 0.139592 -0.042465
v -0.009953 0.139592 0.156072
v 0.174434 0.196281 -0.013257
v 0.023884 0.196281 0.173967
v -0.034564 -0.050000 0.106454
v -0.084537 -0.050000 -0.083069
v -0.107822 0.384307 0.112121
v -0.151065 0.384306 -0.051877
v -0.310853 0.729731 0.077956
v -0.059862 0.214595 0.113124
v -0.109835 0.214595 -0.076398
v -0.054228 0.118375 0.073081
v -0.043831 -0.050000 0.071306
v -0.075269 -0.050000 -0.047921
v -0.176711 0.483672 0.004908
v -0.235304 0.617573 0.058035
v -0.158133 0.483672 0.075364
v -0.085190 0.118375 -0.044339
v -0.059550 -0.050000 0.011692
v -0.074191 0.151886 0.015553
v -0.146684 0.432531 0.034668
v -0.092452 0.302038 0.070603
v -0.117221 0.302038 -0.023336
v -0.081532 0.302038 0.112014
v -0.128141 0.302038 -0.064746
v -0.104836 0.302038 0.023634
v -0.088713 -0.050000 0.120732
v -0.138686 -0.050000 -0.068791
v -0.157817 0.358494 0.125304
v -0.201060 0.358494 -0.038694
v -0.350066 0.683389 0.088296
v -0.112507 0.198869 0.127006
v -0.162479 0.198869 -0.062517
v -0.107774 0.108368 0.087200
v -0.097981 -0.050000 0.085584
v -0.129418 -0.050000 -0.033643
v -0.224449 0.451954 0.017496
v -0.279007 0.577896 0.069559
v -0.205871 0.451954 0.087952
v -0.138735 0.108368 -0.030220
v -0.113699 -0.050000 0.025970
v -0.127470 0.139887 0.029602
v -0.195655 0.403852 0.047581
v -0.143909 0.281115 0.084171
v -0.168679 0.281115 -0.009767
v -0.132990 0.281115 0.125582
v -0.179598 0.281115 -0.051178
v -0.156294 0.281115 0.037202
v -0.056284 -0.050000 0.133899
v -0.116966 -0.050000 -0.096236
v -0.129240 0.375104 0.139173
v -0.183037 0.375104 -0.064852
v -0.341547 0.727672 0.086050
v -0.081084 0.207817 0.140416
v -0.141754 0.207817 -0.089678
v -0.102504 0.293754 0.139171
v -0.159776 0.293754 -0.078033
vt 0.192396 0.652733
vt 0.198368 0.660934
vt 0.192396 0.683609
vt 0.192396 0.581335
vt 0.202502 0.581335
vt 0.202349 0.543040
vt 0.192396 0.547905
vt 0.200359 0.632606
vt 0.198368 0.598434
vt 0.192396 0.590233
vt 0.192396 0.632606
vt 0.802398 0.324098
vt 0.802398 0.342556
vt 0.797968 0.342556
vt 0.797968 0.324098
vt 0.804180 0.388187
vt 0.799802 0.388703
vt 0.805961 0.433817
vt 0.809044 0.443032
vt 0.809044 0.457001
vt 0.801636 0.434850
vt 0.812126 0.433817
vt 0.816451 0.434850
vt 0.813907 0.388187
vt 0.818285 0.388703
vt 0.815689 0.342556
vt 0.815689 0.324098
vt 0.820119 0.324098
vt 0.820119 0.342556
vt 0.184433 0.632606
vt 0.186424 0.598434
vt 0.182290 0.581335
vt 0.182443 0.543040
vt 0.186424 0.660934
vt 0.182443 0.605540
vt 0.192396 0.610405
vt 0.202349 0.605540
vt 0.192396 0.652733
vt 0.192396 0.683609
vt 0.198368 0.660934
vt 0.192396 0.581335
vt 0.192396 0.547905
vt 0.202349 0.543040
vt 0.202502 0.581335
vt 0.200359 0.632606
vt 0.192396 0.632606
vt 0.192396 0.590233
vt 0.198368 0.598434
vt 0.802398 0.324098
vt 0.797968 0.324098
vt 0.797968 0.342556
vt 0.802398 0.342556
vt 0.804180 0.388187
vt 0.799802 0.388703
vt 0.805961 0.433817
vt 0.801636 0.434850
vt 0.809044 0.457001
vt 0.809044 0.443032
vt 0.816451 0.434850
vt 0.812126 0.433817
vt 0.813907 0.388187
vt 0.818285 0.388703
vt 0.815689 0.342556
vt 0.820119 0.342556
vt 0.820119 0.324098
vt 0.815689 0.324098
vt 0.184433 0.632606
vt 0.186424 0.598434
vt 0.182290 0.581335
vt 0.182443 0.543040
vt 0.186424 0.660934
vt 0.182443 0.605540
vt 0.192396 0.610405
vt 0.202349 0.605540
vt 0.797968 0.324098
vt 0.797968 0.342556
vt 0.801636 0.434850
vt 0.809044 0.457001
vt 0.816451 0.434850
vt 0.799802 0.388703
vt 0.820119 0.342556
vt 0.820119 0.324098
vt 0.818285 0.388703
vt 0.187837 0.652733
vt 0.193809 0.660934
vt 0.187837 0.683609
vt 0.187837 0.581335
vt 0.197944 0.581335
vt 0.197790 0.543040
vt 0.187837 0.547905
vt 0.195800 0.632606
vt 0.193809 0.598434
vt 0.187837 0.590233
vt 0.187837 0.632606
vt 0.802398 0.324098
vt 0.802398 0.342556
vt 0.797968 0.342556
vt 0.797968 0.324098
vt 0.804180 0.388187
vt 0.799802 0.388703
vt 0.805961 0.433817
vt 0.809044 0.443032
vt 0.809044 0.457001
vt 0.801636 0.434850
vt 0.812126 0.433817
vt 0.816451 0.434850
vt 0.813907 0.388187
vt 0.818285 0.388703
vt 0.815689 0.342556
vt 0.815689 0.324098
vt 0.820119 0.324098
vt 0.820119 0.342556
vt 0.179875 0.632606
vt 0.181865 0.598434
vt 0.177731 0.581335
vt 0.177884 0.543040
vt 0.181865 0.660934
vt 0.177884 0.605540
vt 0.187837 0.610405
vt 0.197790 0.605540
vt 0.187837 0.652733
vt 0.187837 0.683609
vt 0.193809 0.660934
vt 0.187837 0.581335
vt 0.187837 0.547905
vt 0.197790 0.543040
vt 0.197944 0.581335
vt 0.195800 0.632606
vt 0.187837 0.632606
vt 0.187837 0.590233
vt 0.193809 0.598434
vt 0.802398 0.324098
vt 0.797968 0.324098
vt 0.797968 0.342556
vt 0.802398 0.342556
vt 0.804180 0.388187
vt 0.799802 0.388703
vt 0.805961 0.433817
vt 0.801636 0.434850
vt 0.809044 0.457001
vt 0.809044 0.443032
vt 0.816451 0.434850
vt 0.812126 0.433817
vt 0.813907 0.388187
vt 0.818285 0.388703
vt 0.815689 0.342556
vt 0.820119 0.342556
vt 0.820119 0.324098
vt 0.815689 0.324098
vt 0.179875 0.632606
vt 0.181865 0.598434
vt 0.177731 0.581335
vt 0.177884 0.543040
vt 0.181865 0.660934
vt 0.177884 0.605540
vt 0.187837 0.610405
vt 0.197790 0.605540
vt 0.797968 0.324098
vt 0.797968 0.342556
vt 0.801636 0.434850
vt 0.809044 0.457001
vt 0.816451 0.434850
vt 0.799802 0.388703
vt 0.820119 0.342556
vt 0.820119 0.324098
vt 0.818285 0.388703
vt 0.192396 0.652733
vt 0.198368 0.660934
vt 0.192396 0.683609
vt 0.192396 0.581335
vt 0.202502 0.581335
vt 0.202349 0.543040
vt 0.192396 0.547905
vt 0.200359 0.632606
vt 0.198368 0.598434
vt 0.192396 0.590233
vt 0.192396 0.632606
vt 0.802398 0.324098
vt 0.802398 0.342556
vt 0.797968 0.342556
vt 0.797968 0.324098
vt 0.804180 0.388187
vt 0.799802 0.388703
vt 0.805961 0.433817
vt 0.809044 0.443032
vt 0.809044 0.457001
vt 0.801636 0.434850
vt 0.812126 0.433817
vt 0.816451 0.434850
vt 0.813907 0.388187
vt 0.818285 0.388703
vt 0.815689 0.342556
vt 0.815689 0.324098
vt 0.820119 0.324098
vt 0.820119 0.342556
vt 0.184433 0.632606
vt 0.186424 0.598434
vt 0.182290 0.581335
vt 0.182443 0.543040
vt 0.186424 0.660934
vt 0.182443 0.605540
vt 0.192396 0.610405
vt 0.202349 0.605540
vt 0.192396 0.652733
vt 0.192396 0.683609
vt 0.198368 0.660934
vt 0.192396 0.581335
vt 0.192396 0.547905
vt 0.202349 0.543040
vt 0.202502 0.581335
vt 0.200359 0.632606
vt 0.192396 0.632606
vt 0.192396 0.590233
vt 0.198368 0.598434
vt 0.802398 0.324098
vt 0.797968 0.324098
vt 0.797968 0.342556
vt 0.802398 0.342556
vt 0.804180 0.388187
vt 0.799802 0.388703
vt 0.805961 0.433817
vt 0.801636 0.434850
vt 0.809044 0.457001
vt 0.809044 0.443032
vt 0.816451 0.434850
vt 0.812126 0.433817
vt 0.813907 0.388187
vt 0.818285 0.388703
vt 0.815689 0.342556
vt 0.820119 0.342556
vt 0.820119 0.324098
vt 0.815689 0.324098
vt 0.184433 0.632606
vt 0.186424 0.598434
vt 0.182290 0.581335
vt 0.182443 0.543040
vt 0.186424 0.660934
vt 0.182443 0.605540
vt 0.192396 0.610405
vt 0.202349 0.605540
vt 0.797968 0.324098
vt 0.797968 0.342556
vt 0.801636 0.434850
vt 0.809044 0.457001
vt 0.816451 0.434850
vt 0.799802 0.388703
vt 0.820119 0.342556
vt 0.820119 0.324098
vt 0.818285 0.388703
vn -0.1486 0.1778 0.9728
vn 0.0554 0.2932 0.9544
vn -0.1144 0.4025 0.9082
vn -0.1790 -0.1082 0.9779
vn -0.1377 -0.1046 0.9849
vn -0.1387 -0.0751 0.9875
vn -0.1712 -0.0212 0.9850
vn -0.1725 0.0888 0.9810
vn -0.1595 0.0895 0.9831
vn -0.2186 -0.0963 0.9710
vn -0.2128 -0.0675 0.9748
vn -0.5774 0.0651 0.8138
vn -0.6276 -0.0282 0.7781
vn -0.1469 0.0862 0.9854
vn -0.1055 0.0772 0.9914
vn -0.3080 0.3307 0.8921
vn -0.8781 0.4245 0.2207
vn -0.6059 0.2849 0.7428
vn 0.3705 0.1843 0.9104
vn 0.8218 0.2492 0.5124
vn -0.2145 0.0884 0.9727
vn 0.3169 -0.1255 0.9401
vn 0.2773 -0.0230 0.9605
vn 0.1485 -0.1789 -0.9726
vn 0.1145 -0.4020 -0.9085
vn -0.0461 -0.2939 -0.9547
vn 0.1790 0.1082 -0.9779
vn 0.1713 0.0222 -0.9850
vn 0.1412 0.0739 -0.9872
vn 0.1401 0.1044 -0.9846
vn 0.1717 -0.0887 -0.9811
vn 0.1595 -0.0895 -0.9831
vn 0.2163 0.0965 -0.9716
vn 0.2699 0.0828 -0.9593
vn 0.1383 -0.0074 -0.9904
vn 0.2102 0.0668 -0.9754
vn 0.1477 -0.0863 -0.9853
vn -0.3190 0.0080 -0.9477
vn 0.2993 -0.3296 -0.8954
vn -0.3625 -0.0229 -0.9317
vn 0.5247 -0.4169 -0.7422
vn -0.3220 -0.3296 -0.8875
vn 0.6374 -0.1259 -0.7601
vn 0.6087 -0.0876 -0.7885
vn 0.1977 -0.0135 -0.9802
vn 0.0839 0.1020 -0.9912
vn -0.6761 0.1282 -0.7256
vn -0.6766 0.1179 -0.7268
vn -0.6766 0.1191 -0.7267
vn -0.9469 0.2549 -0.1959
vn -0.9250 0.3419 -0.1658
vn -0.7609 0.1495 -0.6314
vn 0.9762 0.1459 0.1605
vn 0.9891 0.0553 0.1363
vn 0.9403 -0.0259 -0.3395
vn -0.6789 0.0876 -0.7290
vn 0.8877 -0.0434 -0.4584
vn 0.8888 -0.0332 -0.4571
vn 0.8878 -0.0422 -0.4582
vn 0.8845 -0.0736 -0.4607
vn 0.7043 0.0329 0.7091
vn 0.6891 -0.0627 0.7220
vn 0.7038 0.0310 0.7097
vn -0.8775 0.1960 0.4376
vn -0.8776 0.1941 0.4383
vn 0.6779 -0.1281 0.7239
vn -0.8867 0.0998 0.4515
vn -0.8900 0.0335 0.4548
vn -0.4858 0.7819 -0.3907
vn -0.3376 0.8451 -0.4145
vn -0.3323 0.9045 -0.2672
vn -0.7674 0.1738 -0.6171
vn -0.8024 0.1926 -0.5648
vn -0.7808 0.2777 -0.5597
vn -0.7223 0.3753 -0.5808
vn -0.6019 0.6176 -0.5062
vn -0.6108 0.6210 -0.4912
vn -0.7239 0.1926 -0.6625
vn -0.7142 0.2777 -0.6425
vn -0.3640 0.4124 -0.8351
vn -0.3547 0.1957 -0.9143
vn -0.6236 0.6176 -0.4792
vn -0.6744 0.6047 -0.4236
vn 0.3178 0.7714 -0.5513
vn 0.5582 0.5784 -0.5948
vn 0.3943 0.5494 -0.7366
vn -0.4703 0.7714 0.4288
vn -0.6348 0.5494 0.5432
vn -0.4612 0.5784 0.6729
vn -0.5585 0.6047 -0.5678
vn -0.4720 0.7218 -0.5061
vn -0.9691 0.1957 -0.1502
vn -0.8938 0.4124 -0.1763
vn -0.4773 0.8451 -0.2407
vn -0.5956 0.7218 -0.3524
vn 0.4818 -0.7860 0.3874
vn 0.1287 -0.9863 0.1035
vn 0.4299 -0.9011 0.0564
vn 0.7674 -0.1738 0.6171
vn 0.7239 -0.3704 0.5821
vn 0.7744 -0.2831 0.5658
vn 0.7977 -0.1928 0.5714
vn 0.6033 -0.6176 0.5045
vn 0.6108 -0.6210 0.4912
vn 0.7293 -0.1928 0.6565
vn 0.6660 -0.2101 0.7157
vn 0.9303 -0.3454 0.1234
vn 0.7188 -0.2831 0.6349
vn 0.6222 -0.6176 0.4810
vn 0.8664 -0.4944 0.0702
vn 0.1473 -0.9011 0.4078
vn -0.2797 -0.8121 0.5122
vn 0.4402 -0.8121 -0.3831
vn 0.1261 -0.5538 0.8230
vn 0.2545 -0.4944 0.8311
vn 0.3202 -0.3454 0.8821
vn 0.8420 -0.2101 0.4969
vn 0.8309 -0.5538 -0.0535
vn 0.9583 -0.1519 -0.2419
vn 0.9433 -0.2081 -0.2586
vn 0.8758 -0.3468 -0.3358
vn 0.8609 -0.3381 -0.3802
vn -0.1866 -0.3381 0.9224
vn -0.1401 -0.3468 0.9274
vn 0.9078 -0.3061 -0.2868
vn -0.0502 -0.2081 0.9768
vn -0.0306 -0.1519 0.9879
vn -0.0853 -0.3061 0.9482
vn -0.8230 0.4361 0.3640
vn -0.9164 0.2730 0.2928
vn -0.8228 0.4364 0.3642
vn 0.1789 0.4361 -0.8819
vn 0.4290 0.5194 -0.7390
vn 0.1791 0.4364 -0.8818
vn -0.6297 0.5194 0.5776
vn -0.9569 0.1507 0.2482
vn 0.0893 0.2730 -0.9579
vn -0.4543 0.5348 0.7125
vn 0.5984 0.5348 -0.5966
vn 0.0370 0.1507 -0.9879
vn 0.9057 0.3502 -0.2388
vn 0.7853 0.4736 -0.3987
vn 0.8010 0.5602 -0.2112
vn 0.9646 0.0691 -0.2544
vn 0.9528 0.0768 -0.2939
vn 0.9512 0.1061 -0.2899
vn 0.9551 0.1562 -0.2518
vn 0.9361 0.2630 -0.2334
vn 0.9324 0.2650 -0.2459
vn 0.9738 0.0768 -0.2141
vn 0.9704 0.1061 -0.2168
vn 0.9638 0.1802 0.1966
vn 0.9668 0.0787 0.2431
vn 0.9295 0.2630 -0.2586
vn 0.9184 0.2582 -0.2997
vn 0.8798 0.4736 -0.0404
vn 0.5113 0.3981 0.7616
vn 0.8808 0.3799 0.2827
vn 0.6269 0.3799 -0.6802
vn 0.0693 0.3981 -0.9147
vn 0.9468 0.2582 -0.1921
vn 0.7212 0.0787 -0.6882
vn 0.7416 0.1802 -0.6462
vn -0.9053 -0.3513 0.2387
vn -0.8013 -0.5597 0.2113
vn -0.7894 -0.4737 0.3903
vn -0.9646 -0.0691 0.2544
vn -0.9552 -0.1551 0.2519
vn -0.9518 -0.1070 0.2874
vn -0.9535 -0.0768 0.2916
vn -0.9360 -0.2630 0.2341
vn -0.9324 -0.2650 0.2459
vn -0.9733 -0.0768 0.2165
vn -0.9833 -0.0842 0.1612
vn -0.9417 -0.1874 0.2796
vn -0.9698 -0.1070 0.2193
vn -0.9297 -0.2630 0.2578
vn -0.7101 -0.1953 0.6765
vn -0.8793 -0.4737 0.0497
vn -0.6727 -0.2254 0.7047
vn -0.8264 -0.5146 -0.2286
vn -0.6063 -0.5146 0.6063
vn -0.9327 -0.2254 -0.2814
vn -0.9513 -0.1953 -0.2384
vn -0.9571 -0.1874 0.2211
vn -0.9350 -0.0842 0.3446
vn -0.3765 -0.0594 0.9245
vn -0.3759 -0.0698 0.9240
vn -0.3759 -0.0686 0.9241
vn 0.1937 0.1476 0.9699
vn 0.1986 0.2401 0.9502
vn -0.2592 -0.0264 0.9655
vn -0.2958 0.2401 -0.9246
vn -0.3098 0.1476 -0.9393
vn -0.7016 -0.0264 -0.7121
vn -0.3724 -0.1000 0.9227
vn -0.7826 -0.0698 -0.6186
vn -0.7834 -0.0594 -0.6187
vn -0.7827 -0.0686 -0.6186
vn -0.7789 -0.1000 -0.6191
vn 0.3264 0.2159 -0.9203
vn 0.3582 0.1238 -0.9254
vn 0.3274 0.2142 -0.9203
vn 0.7377 0.2159 0.6397
vn 0.7386 0.2142 0.6392
vn 0.3741 0.0593 -0.9255
vn 0.7679 0.1238 0.6285
vn 0.7818 0.0593 0.6207
usemtl tiny_treats_1
s 1
f 17/1/1 11/2/2 12/3/3
f 15/4/4 10/5/5 14/6/6 16/7/7
f 19/8/8 11/9/2 17/10/1 22/11/9
f 9/12/10 8/13/11 6/14/12 1/15/13
f 18/16/14 20/17/15 6/14/12 8/13/11
f 13/18/16 12/19/3 5/20/17 3/21/18
f 12/19/3 11/22/2 4/23/19 5/20/20
f 19/24/8 21/25/21 4/23/19 11/22/2
f 14/26/6 10/27/5 2/28/22 7/29/23
f 18/30/14 22/11/9 17/10/1 13/31/16
f 9/32/10 15/4/4 16/7/7 8/33/11
f 13/34/16 17/1/1 12/3/3
f 8/35/11 16/36/7 22/11/9 18/30/14
f 14/26/6 7/29/23 21/25/21 19/24/8
f 13/18/16 3/21/18 20/17/15 18/16/14
f 14/37/6 19/8/8 22/11/9 16/36/7
f 39/38/24 34/39/25 33/40/26
f 37/41/27 38/42/28 36/43/29 32/44/30
f 41/45/31 44/46/32 39/47/24 33/48/26
f 31/49/33 23/50/34 28/51/35 30/52/36
f 40/53/37 30/52/36 28/51/35 42/54/38
f 35/55/39 25/56/40 27/57/41 34/58/25
f 34/58/25 27/57/42 26/59/43 33/60/26
f 41/61/31 33/60/26 26/59/43 43/62/44
f 36/63/29 29/64/45 24/65/46 32/66/30
f 40/67/37 35/68/39 39/47/24 44/46/32
f 31/69/33 30/70/36 38/42/28 37/41/27
f 35/71/39 34/39/25 39/38/24
f 30/72/36 40/67/37 44/46/32 38/73/28
f 36/63/29 41/61/31 43/62/44 29/64/45
f 35/55/39 40/53/37 42/54/38 25/56/40
f 36/74/29 38/73/28 44/46/32 41/45/31
f 45/75/47 50/76/48 28/51/49 23/50/47
f 47/77/50 49/78/51 27/57/52 25/56/40
f 49/78/53 48/79/54 26/59/43 27/57/55
f 50/76/48 52/80/56 42/54/38 28/51/49
f 51/81/57 46/82/58 24/65/58 29/64/59
f 48/79/54 53/83/60 43/62/44 26/59/43
f 52/80/56 47/77/50 25/56/40 42/54/38
f 53/83/60 51/81/57 29/64/59 43/62/44
f 21/25/61 7/29/23 51/81/62 53/83/63
f 20/17/64 3/21/18 47/77/50 52/80/65
f 4/23/19 21/25/61 53/83/63 48/79/54
f 7/29/23 2/28/22 46/82/66 51/81/62
f 6/14/12 20/17/64 52/80/65 50/76/67
f 5/20/20 4/23/19 48/79/54 49/78/53
f 3/21/18 5/20/17 49/78/51 47/77/50
f 1/15/13 6/14/12 50/76/67 45/75/68
f 70/84/69 64/85/70 65/86/71
f 68/87/72 63/88/73 67/89/74 69/90/75
f 72/91/76 64/92/70 70/93/69 75/94/77
f 62/95/78 61/96/79 59/97/80 54/98/81
f 71/99/82 73/100/83 59/97/80 61/96/79
f 66/101/84 65/102/84 58/103/85 56/104/86
f 65/102/87 64/105/87 57/106/88 58/103/89
f 72/107/76 74/108/90 57/106/91 64/105/70
f 67/109/74 63/110/73 55/111/92 60/112/93
f 71/113/82 75/94/77 70/93/69 66/114/94
f 62/115/78 68/87/72 69/90/75 61/116/79
f 66/117/94 70/84/69 65/86/71
f 61/118/79 69/119/75 75/94/77 71/113/82
f 67/109/74 60/112/93 74/108/90 72/107/76
f 66/101/94 56/104/95 73/100/83 71/99/82
f 67/120/74 72/91/76 75/94/77 69/119/75
f 92/121/96 87/122/97 86/123/98
f 90/124/99 91/125/100 89/126/101 85/127/102
f 94/128/103 97/129/104 92/130/96 86/131/98
f 84/132/105 76/133/106 81/134/107 83/135/108
f 93/136/109 83/135/108 81/134/107 95/137/110
f 88/138/111 78/139/112 80/140/112 87/141/97
f 87/141/97 80/140/113 79/142/113 86/143/98
f 94/144/103 86/143/98 79/142/114 96/145/115
f 89/146/101 82/147/116 77/148/117 85/149/102
f 93/150/109 88/151/111 92/130/96 97/129/104
f 84/152/105 83/153/108 91/125/100 90/124/99
f 88/154/111 87/122/97 92/121/96
f 83/155/108 93/150/109 97/129/104 91/156/100
f 89/146/101 94/144/103 96/145/115 82/147/116
f 88/138/111 93/136/109 95/137/110 78/139/118
f 89/157/101 91/156/100 97/129/104 94/128/103
f 98/158/119 103/159/120 81/134/107 76/133/119
f 100/160/121 102/161/122 80/140/122 78/139/118
f 102/161/123 101/162/124 79/142/114 80/140/123
f 103/159/120 105/163/125 95/137/110 81/134/107
f 104/164/126 99/165/127 77/148/127 82/147/116
f 101/162/124 106/166/128 96/145/115 79/142/114
f 105/163/125 100/160/121 78/139/118 95/137/110
f 106/166/128 104/164/126 82/147/116 96/145/115
f 74/108/129 60/112/93 104/164/130 106/166/131
f 73/100/132 56/104/86 100/160/133 105/163/134
f 57/106/88 74/108/129 106/166/131 101/162/135
f 60/112/93 55/111/92 99/165/136 104/164/130
f 59/97/80 73/100/132 105/163/134 103/159/137
f 58/103/89 57/106/88 101/162/135 102/161/138
f 56/104/86 58/103/85 102/161/139 100/160/133
f 54/98/81 59/97/80 103/159/137 98/158/140
f 123/167/141 117/168/142 118/169/143
f 121/170/144 116/171/145 120/172/146 122/173/147
f 125/174/148 117/175/142 123/176/141 128/177/149
f 115/178/150 114/179/151 112/180/152 107/181/153
f 124/182/154 126/183/155 112/180/152 114/179/151
f 119/184/156 118/185/143 111/186/157 109/187/158
f 118/185/143 117/188/142 110/189/159 111/186/160
f 125/190/148 127/191/161 110/189/159 117/188/142
f 120/192/146 116/193/145 108/194/162 113/195/163
f 124/196/154 128/177/149 123/176/141 119/197/156
f 115/198/150 121/170/144 122/173/147 114/199/151
f 119/200/156 123/167/141 118/169/143
f 114/201/151 122/202/147 128/177/149 124/196/154
f 120/192/146 113/195/163 127/191/161 125/190/148
f 119/184/156 109/187/158 126/183/155 124/182/154
f 120/203/146 125/174/148 128/177/149 122/202/147
f 145/204/164 140/205/165 139/206/166
f 143/207/167 144/208/168 142/209/169 138/210/170
f 147/211/171 150/212/172 145/213/164 139/214/166
f 137/215/173 129/216/174 134/217/175 136/218/176
f 146/219/177 136/218/176 134/217/175 148/220/178
f 141/221/179 131/222/180 133/223/181 140/224/165
f 140/224/165 133/223/182 132/225/183 139/226/166
f 147/227/171 139/226/166 132/225/183 149/228/184
f 142/229/169 135/230/185 130/231/186 138/232/170
f 146/233/177 141/234/179 145/213/164 150/212/172
f 137/235/173 136/236/176 144/208/168 143/207/167
f 141/237/179 140/205/165 145/204/164
f 136/238/176 146/233/177 150/212/172 144/239/168
f 142/229/169 147/227/171 149/228/184 135/230/185
f 141/221/179 146/219/177 148/220/178 131/222/180
f 142/240/169 144/239/168 150/212/172 147/211/171
f 151/241/187 156/242/188 134/217/189 129/216/187
f 153/243/190 155/244/191 133/223/192 131/222/180
f 155/244/193 154/245/194 132/225/183 133/223/195
f 156/242/188 158/246/196 148/220/178 134/217/189
f 157/247/197 152/248/198 130/231/198 135/230/199
f 154/245/194 159/249/200 149/228/184 132/225/183
f 158/246/196 153/243/190 131/222/180 148/220/178
f 159/249/200 157/247/197 135/230/199 149/228/184
f 127/191/201 113/195/163 157/247/202 159/249/203
f 126/183/204 109/187/158 153/243/190 158/246/205
f 110/189/159 127/191/201 159/249/203 154/245/194
f 113/195/163 108/194/162 152/248/206 157/247/202
f 112/180/152 126/183/204 158/246/205 156/242/207
f 111/186/160 110/189/159 154/245/194 155/244/193
f 109/187/158 111/186/157 155/244/191 153/243/190
f 107/181/153 112/180/152 156/242/207 151/241/208
