# Blender v3.4.1 OBJ File: 'Tiny_Treats_House_Plants_ASSETS_EXPORT.blend'
# www.blender.org
mtllib sansevieria_leaf_medium_C.mtl
o sansevieria_leaf_medium_C
v -0.112000 -0.050000 0.079841
v 0.112000 -0.050000 0.079841
v 0.036410 0.826079 -0.099545
v 0.164030 0.826079 -0.021065
v 0.202763 1.059343 -0.138974
v -0.060704 0.603268 -0.038346
v -0.090932 0.394148 0.013513
v -0.106827 0.162004 0.056644
v 0.115182 0.162004 0.086441
v 0.124375 0.394148 0.075312
v 0.144632 0.603268 0.051171
v -0.072893 0.083466 0.047317
v -0.077280 -0.050000 0.057043
v 0.077280 -0.050000 0.057043
v 0.162045 0.885000 -0.075607
v 0.178493 0.997814 -0.127596
v 0.102418 0.885000 -0.115395
v -0.017194 0.615282 -0.048778
v -0.053006 0.377628 0.004198
v 0.081122 0.083466 0.060283
v 0.095991 0.377628 0.045291
v 0.124017 0.615282 0.014058
v 0.000000 -0.050000 0.032000
v 0.010406 0.159529 0.024210
v 0.029459 0.388963 -0.001245
v 0.059794 0.594378 -0.036607
v 0.110810 0.808518 -0.082072
v -0.147126 -0.050000 0.026343
v 0.147128 -0.050000 0.026345
v 0.031172 0.815738 -0.162334
v 0.220491 0.815738 -0.047605
v 0.240036 1.046000 -0.188322
v -0.073185 0.595032 -0.100093
v -0.110620 0.388350 -0.046721
v -0.134720 0.159236 -0.000705
v 0.156987 0.159236 0.037931
v 0.172510 0.388350 0.033428
v 0.197480 0.595033 0.016242
v -0.095770 0.081576 -0.012344
v -0.104955 -0.050000 -0.000662
v 0.104955 -0.050000 -0.000662
v 0.212770 0.872800 -0.110743
v 0.214200 0.985030 -0.178299
v 0.111103 0.872800 -0.177459
v -0.020577 0.605955 -0.111554
v -0.065088 0.371573 -0.058061
v 0.113420 0.081577 0.005016
v 0.137477 0.371573 -0.003023
v 0.171400 0.605955 -0.027474
v 0.000000 -0.050000 -0.032000
v 0.018508 0.156218 -0.039141
v 0.046034 0.382027 -0.062453
v 0.083209 0.583907 -0.094725
v 0.140302 0.794292 -0.136059
v -0.150392 -0.048550 0.064877
v 0.148694 -0.050781 0.067554
v 0.012405 0.829143 -0.134504
v 0.206330 0.824953 -0.015560
v 0.217207 1.069693 -0.153367
v -0.089814 0.604228 -0.065654
v -0.123428 0.394052 -0.009490
v -0.142334 0.162506 0.038245
v 0.154192 0.160124 0.077926
v 0.164256 0.391245 0.072423
v 0.184517 0.600875 0.053459
vt 0.182298 0.648730
vt 0.184778 0.655637
vt 0.182298 0.666229
vt 0.182298 0.572280
vt 0.187644 0.572280
vt 0.187644 0.583954
vt 0.182298 0.590729
vt 0.182298 0.629356
vt 0.187644 0.630867
vt 0.184778 0.593137
vt 0.182298 0.586230
vt 0.182298 0.611022
vt 0.187644 0.609782
vt 0.802398 0.324098
vt 0.802398 0.342556
vt 0.797968 0.342556
vt 0.797968 0.324098
vt 0.802398 0.397819
vt 0.805961 0.433817
vt 0.801636 0.434850
vt 0.797968 0.397933
vt 0.809044 0.443032
vt 0.809044 0.457001
vt 0.812126 0.433817
vt 0.816451 0.434850
vt 0.802398 0.379474
vt 0.797968 0.379474
vt 0.815689 0.379474
vt 0.815689 0.342556
vt 0.820119 0.342556
vt 0.820119 0.379474
vt 0.815689 0.324098
vt 0.820119 0.324098
vt 0.187644 0.547282
vt 0.182298 0.548522
vt 0.815689 0.397819
vt 0.820119 0.397933
vt 0.176952 0.609782
vt 0.176952 0.630867
vt 0.179818 0.593137
vt 0.176952 0.572280
vt 0.176952 0.583954
vt 0.179818 0.655637
vt 0.176952 0.547282
vt 0.182298 0.648730
vt 0.182298 0.666229
vt 0.184778 0.655637
vt 0.182298 0.572280
vt 0.182298 0.590729
vt 0.187644 0.583954
vt 0.187644 0.572280
vt 0.182298 0.629356
vt 0.182298 0.586230
vt 0.184778 0.593137
vt 0.187644 0.630867
vt 0.182298 0.611022
vt 0.187644 0.609782
vt 0.802398 0.324098
vt 0.797968 0.324098
vt 0.797968 0.342556
vt 0.802398 0.342556
vt 0.802398 0.397819
vt 0.797968 0.397933
vt 0.801636 0.434850
vt 0.805961 0.433817
vt 0.809044 0.457001
vt 0.809044 0.443032
vt 0.816451 0.434850
vt 0.812126 0.433817
vt 0.797968 0.379474
vt 0.802398 0.379474
vt 0.815689 0.379474
vt 0.820119 0.379474
vt 0.820119 0.342556
vt 0.815689 0.342556
vt 0.820119 0.324098
vt 0.815689 0.324098
vt 0.182298 0.548522
vt 0.187644 0.547282
vt 0.815689 0.397819
vt 0.820119 0.397933
vt 0.176952 0.609782
vt 0.176952 0.630867
vt 0.179818 0.593137
vt 0.176952 0.572280
vt 0.176952 0.583954
vt 0.179818 0.655637
vt 0.176952 0.547282
vt 0.797968 0.324098
vt 0.797968 0.342556
vt 0.801636 0.434850
vt 0.809044 0.457001
vt 0.816451 0.434850
vt 0.797968 0.397933
vt 0.797968 0.379474
vt 0.820119 0.342556
vt 0.820119 0.324098
vt 0.820119 0.379474
vt 0.820119 0.397933
vn -0.4245 0.3164 0.8483
vn -0.7460 0.3618 0.5590
vn -0.4183 0.2658 0.8685
vn -0.0420 0.0345 0.9985
vn -0.4710 0.0085 0.8821
vn -0.5002 0.0235 0.8656
vn -0.1518 0.0946 0.9839
vn -0.3629 0.2518 0.8972
vn -0.7531 0.2384 0.6132
vn -0.2627 0.1668 0.9503
vn -0.6491 0.1244 0.7505
vn 0.3857 0.0545 0.9210
vn 0.3571 0.0690 0.9315
vn 0.4118 0.1139 0.9041
vn 0.4869 0.0695 0.8707
vn 0.0303 0.2226 0.9744
vn -0.1007 0.2083 0.9729
vn 0.0989 0.1990 0.9750
vn 0.1987 0.1947 0.9605
vn 0.1106 0.0704 0.9914
vn -0.8784 0.2486 0.4081
vn -0.8069 0.3590 0.4691
vn 0.1971 0.1540 0.9682
vn 0.3081 0.1607 0.9377
vn -0.7012 0.0554 0.7108
vn -0.7742 0.1236 0.6207
vn -0.5709 -0.0118 0.8209
vn -0.8369 0.1867 0.5146
vn 0.4330 -0.3223 -0.8418
vn 0.4288 -0.2242 -0.8752
vn 0.7443 -0.3518 -0.5677
vn 0.0343 -0.0342 -0.9988
vn 0.1436 -0.0908 -0.9855
vn 0.4899 -0.0285 -0.8713
vn 0.4527 -0.0112 -0.8916
vn 0.3637 -0.2543 -0.8962
vn 0.7365 -0.2406 -0.6322
vn 0.2576 -0.1653 -0.9520
vn 0.6340 -0.1283 -0.7626
vn -0.3742 -0.0528 -0.9259
vn -0.4819 -0.0687 -0.8735
vn -0.4034 -0.1113 -0.9082
vn -0.3383 -0.0700 -0.9384
vn -0.0202 -0.2247 -0.9742
vn -0.1874 -0.1967 -0.9624
vn -0.4608 0.1013 -0.8817
vn 0.0918 -0.1635 -0.9823
vn -0.5253 0.3934 -0.7545
vn 0.8052 -0.3433 -0.4835
vn 0.9976 -0.0687 0.0078
vn -0.3023 -0.1584 -0.9400
vn -0.1810 -0.1554 -0.9711
vn 0.7604 -0.1265 -0.6371
vn 0.6841 -0.0567 -0.7272
vn 0.5659 0.0113 -0.8244
vn 0.9887 -0.1207 -0.0886
vn -0.9896 0.0302 -0.1408
vn -0.9795 0.0332 -0.1986
vn -0.9780 0.0336 -0.2057
vn -0.7201 0.3354 -0.6074
vn -0.5926 0.4575 -0.6629
vn 0.8959 0.1806 0.4059
vn 0.9192 0.0898 0.3833
vn -0.8775 0.1299 -0.4618
vn -0.8685 0.1435 -0.4744
vn -0.9457 0.0450 -0.3220
vn -0.9425 0.0463 -0.3311
vn 0.9958 -0.0449 0.0795
vn 0.9992 -0.0373 0.0152
vn 0.9961 -0.0445 0.0767
vn 0.9757 -0.0662 0.2089
vn 0.9757 -0.0662 0.2087
vn 0.9476 -0.0352 0.3176
vn -0.0090 0.3866 0.9222
vn -0.0310 0.2041 0.9785
vn -0.0322 0.2070 0.9778
vn -0.0076 0.3882 0.9215
vn 0.0797 0.0654 0.9947
vn 0.0796 0.0655 0.9947
vn 0.2038 -0.0069 0.9790
vn 0.2051 -0.0077 0.9787
vn 0.2633 -0.0441 0.9637
vn -0.4572 0.1602 0.8748
vn -0.5569 0.2428 0.7943
vn -0.5590 0.2447 0.7922
vn -0.4596 0.1622 0.8732
vn -0.6361 0.3775 0.6730
vn -0.6360 0.3772 0.6732
vn -0.7051 0.5472 0.4509
vn -0.7012 0.5394 0.4661
vn 0.0626 0.4657 0.8827
vn -0.7304 0.6100 0.3073
vn -0.4059 0.1194 0.9061
usemtl tiny_treats_1
s 1
f 27/1/1 15/2/2 16/3/3
f 23/4/4 14/5/5 20/6/6 24/7/7
f 26/8/8 22/9/9 15/10/2 27/11/1
f 25/12/10 21/13/11 22/9/9 26/8/8
f 13/14/12 12/15/13 8/16/14 1/17/15
f 18/18/16 17/19/17 3/20/18 6/21/19
f 17/19/17 16/22/3 5/23/20 3/20/18
f 16/22/3 15/24/2 4/25/21 5/23/22
f 12/15/13 19/26/23 7/27/24 8/16/14
f 19/26/23 18/18/16 6/21/19 7/27/24
f 21/28/11 20/29/6 9/30/25 10/31/26
f 20/29/6 14/32/5 2/33/27 9/30/25
f 20/6/6 21/34/11 25/35/10 24/7/7
f 22/36/9 21/28/11 10/31/26 11/37/28
f 15/24/2 22/36/9 11/37/28 4/25/21
f 19/38/23 25/12/10 26/8/8 18/39/16
f 18/39/16 26/8/8 27/11/1 17/40/17
f 13/41/12 23/4/4 24/7/7 12/42/13
f 17/43/17 27/1/1 16/3/3
f 12/42/13 24/7/7 25/35/10 19/44/23
f 54/45/29 43/46/30 42/47/31
f 50/48/32 51/49/33 47/50/34 41/51/35
f 53/52/36 54/53/29 42/54/31 49/55/37
f 52/56/38 53/52/36 49/55/37 48/57/39
f 40/58/40 28/59/41 35/60/42 39/61/43
f 45/62/44 33/63/45 30/64/46 44/65/47
f 44/65/47 30/64/46 32/66/48 43/67/30
f 43/67/30 32/66/49 31/68/50 42/69/31
f 39/61/43 35/60/42 34/70/51 46/71/52
f 46/71/52 34/70/51 33/63/45 45/62/44
f 48/72/39 37/73/53 36/74/54 47/75/34
f 47/75/34 36/74/54 29/76/55 41/77/35
f 47/50/34 51/49/33 52/78/38 48/79/39
f 49/80/37 38/81/56 37/73/53 48/72/39
f 42/69/31 31/68/50 38/81/56 49/80/37
f 46/82/52 45/83/44 53/52/36 52/56/38
f 45/83/44 44/84/47 54/53/29 53/52/36
f 40/85/40 39/86/43 51/49/33 50/48/32
f 44/87/47 43/46/30 54/45/29
f 39/86/43 46/88/52 52/78/38 51/49/33
f 55/89/57 62/90/58 35/60/59 28/59/57
f 57/91/60 59/92/61 32/66/48 30/64/46
f 59/92/62 58/93/63 31/68/50 32/66/62
f 60/94/64 57/91/60 30/64/46 33/63/65
f 61/95/66 60/94/64 33/63/65 34/70/67
f 62/90/58 61/95/66 34/70/67 35/60/59
f 63/96/68 56/97/69 29/76/69 36/74/70
f 64/98/71 63/96/68 36/74/70 37/73/72
f 65/99/73 64/98/71 37/73/72 38/81/56
f 58/93/63 65/99/73 38/81/56 31/68/50
f 4/25/74 11/37/75 65/99/76 58/93/77
f 11/37/75 10/31/78 64/98/79 65/99/76
f 10/31/78 9/30/80 63/96/81 64/98/79
f 9/30/80 2/33/82 56/97/82 63/96/81
f 8/16/83 7/27/84 61/95/85 62/90/86
f 7/27/84 6/21/87 60/94/88 61/95/85
f 6/21/87 3/20/89 57/91/90 60/94/88
f 5/23/91 4/25/74 58/93/77 59/92/91
f 3/20/89 5/23/92 59/92/92 57/91/90
f 1/17/93 8/16/83 62/90/86 55/89/93
