# Blender v3.4.1 OBJ File: 'Tiny_Treats_House_Plants_ASSETS_EXPORT.blend'
# www.blender.org
mtllib sansevieria_leaf_large_B.mtl
o sansevieria_leaf_large_B
v -0.180000 -0.050000 0.112887
v 0.180000 -0.050000 0.112887
v 0.197022 1.734512 0.302498
v 0.258453 1.734511 0.069684
v 0.313233 2.093250 0.124142
v 0.078679 1.438481 0.351716
v -0.029670 1.144168 0.335228
v -0.107323 0.848426 0.281211
v -0.155070 0.550285 0.219137
v -0.176791 0.250544 0.160257
v 0.174445 0.250544 0.081307
v 0.170392 0.550286 0.065273
v 0.176866 0.848426 0.060220
v 0.200116 1.144168 0.058102
v 0.229469 1.438482 0.059053
v -0.129515 0.141434 0.097273
v -0.124200 -0.050000 0.076248
v 0.124200 -0.050000 0.076247
v 0.181973 1.508696 0.090964
v 0.234899 1.838571 0.110527
v 0.275092 2.007347 0.141770
v 0.214111 1.838571 0.223842
v 0.094063 1.508696 0.285668
v -0.014779 1.174103 0.272772
v -0.088350 0.833988 0.214997
v -0.124198 0.488661 0.150942
v 0.116426 0.141434 0.062404
v 0.104952 0.488661 0.055062
v 0.109347 0.833988 0.064604
v 0.139523 1.174104 0.078110
v 0.000000 -0.050000 0.036000
v -0.018246 0.254514 0.045920
v -0.025334 0.558215 0.073212
v -0.011994 0.860294 0.110851
v 0.027224 1.158110 0.148107
v 0.092641 1.449384 0.172796
v 0.179618 1.732516 0.173676
v -0.219517 -0.050000 0.052702
v 0.219519 -0.050000 0.052705
v 0.135796 1.754793 0.325949
v 0.213483 1.754792 0.012659
v 0.249966 2.127888 0.118145
v 0.011915 1.454460 0.361289
v -0.098382 1.156674 0.329362
v -0.174111 0.857715 0.259724
v -0.216124 0.556492 0.182893
v -0.228562 0.253651 0.110804
v 0.199565 0.253651 0.013545
v 0.179932 0.556492 -0.006559
v 0.170621 0.857715 -0.012149
v 0.179128 1.156674 -0.011656
v 0.195475 1.454460 -0.005501
v -0.169586 0.143555 0.037667
v -0.155334 -0.050000 0.011330
v 0.155334 -0.050000 0.011329
v 0.136201 1.526267 0.035488
v 0.178405 1.862626 0.068310
v 0.211147 2.039825 0.133049
v 0.150366 1.862627 0.238007
v 0.026361 1.526267 0.287395
v -0.082592 1.187688 0.258789
v -0.151571 0.843786 0.183866
v -0.177968 0.494631 0.104107
v 0.137938 0.143555 -0.006422
v 0.108095 0.494632 -0.017065
v 0.094323 0.843786 -0.006005
v 0.108196 1.187688 0.013093
v 0.000000 -0.050000 -0.036000
v -0.034630 0.258231 -0.024093
v -0.056960 0.565641 0.008955
v -0.056729 0.871407 0.055539
v -0.027754 1.172644 0.103951
v 0.030512 1.466950 0.140921
v 0.113355 1.753045 0.154263
v -0.220405 -0.053214 0.099895
v 0.223738 -0.047581 0.094969
v 0.173916 1.750245 0.339549
v 0.254980 1.745695 0.022028
v 0.304769 2.124359 0.122561
v 0.048943 1.445745 0.383245
v -0.066865 1.147294 0.358963
v -0.149406 0.849142 0.295727
v -0.199559 0.549577 0.223809
v -0.221299 0.248643 0.154774
v 0.212227 0.254045 0.056865
v 0.201905 0.554178 0.032990
v 0.200634 0.852425 0.021693
v 0.215375 1.148808 0.015274
v 0.236214 1.445049 0.013998
vt 0.184044 0.667883
vt 0.187104 0.667883
vt 0.184044 0.677033
vt 0.184044 0.650148
vt 0.189718 0.650148
vt 0.187104 0.621008
vt 0.184044 0.621008
vt 0.184044 0.558946
vt 0.190641 0.558946
vt 0.190641 0.577273
vt 0.184044 0.577273
vt 0.190641 0.548726
vt 0.184044 0.548726
vt 0.184044 0.595601
vt 0.190641 0.595601
vt 0.190641 0.613928
vt 0.184044 0.613928
vt 0.190641 0.585267
vt 0.184044 0.585267
vt 0.184044 0.632142
vt 0.190641 0.632142
vt 0.802398 0.324098
vt 0.802398 0.342556
vt 0.797968 0.342556
vt 0.797968 0.324098
vt 0.812126 0.433817
vt 0.814758 0.415954
vt 0.819172 0.416391
vt 0.816451 0.434850
vt 0.805961 0.433817
vt 0.809044 0.443032
vt 0.809044 0.457001
vt 0.801636 0.434850
vt 0.803328 0.415954
vt 0.798915 0.416391
vt 0.802398 0.397819
vt 0.797968 0.397933
vt 0.802398 0.379474
vt 0.797968 0.379474
vt 0.802398 0.361015
vt 0.797968 0.361015
vt 0.815689 0.342556
vt 0.815689 0.324098
vt 0.820119 0.324098
vt 0.820119 0.342556
vt 0.815689 0.361015
vt 0.820119 0.361015
vt 0.815689 0.379474
vt 0.820119 0.379474
vt 0.815689 0.397819
vt 0.820119 0.397933
vt 0.178369 0.650148
vt 0.180983 0.621008
vt 0.177446 0.632142
vt 0.177446 0.613928
vt 0.177446 0.585267
vt 0.177446 0.595601
vt 0.177446 0.577273
vt 0.177446 0.548726
vt 0.177446 0.558946
vt 0.180983 0.667883
vt 0.184044 0.667883
vt 0.184044 0.677033
vt 0.187104 0.667883
vt 0.184044 0.650148
vt 0.184044 0.621008
vt 0.187104 0.621008
vt 0.189718 0.650148
vt 0.184044 0.558946
vt 0.184044 0.577273
vt 0.190641 0.577273
vt 0.190641 0.558946
vt 0.184044 0.548726
vt 0.190641 0.548726
vt 0.184044 0.595601
vt 0.184044 0.613928
vt 0.190641 0.613928
vt 0.190641 0.595601
vt 0.184044 0.585267
vt 0.190641 0.585267
vt 0.184044 0.632142
vt 0.190641 0.632142
vt 0.802398 0.324098
vt 0.797968 0.324098
vt 0.797968 0.342556
vt 0.802398 0.342556
vt 0.812126 0.433817
vt 0.816451 0.434850
vt 0.819172 0.416391
vt 0.814758 0.415954
vt 0.805961 0.433817
vt 0.801636 0.434850
vt 0.809044 0.457001
vt 0.809044 0.443032
vt 0.803328 0.415954
vt 0.798915 0.416391
vt 0.802398 0.397819
vt 0.797968 0.397933
vt 0.802398 0.379474
vt 0.797968 0.379474
vt 0.802398 0.361015
vt 0.797968 0.361015
vt 0.815689 0.342556
vt 0.820119 0.342556
vt 0.820119 0.324098
vt 0.815689 0.324098
vt 0.815689 0.361015
vt 0.820119 0.361015
vt 0.815689 0.379474
vt 0.820119 0.379474
vt 0.815689 0.397819
vt 0.820119 0.397933
vt 0.178369 0.650148
vt 0.180983 0.621008
vt 0.177446 0.632142
vt 0.177446 0.613928
vt 0.177446 0.585267
vt 0.177446 0.595601
vt 0.177446 0.577273
vt 0.177446 0.548726
vt 0.177446 0.558946
vt 0.180983 0.667883
vt 0.797968 0.324098
vt 0.797968 0.342556
vt 0.816451 0.434850
vt 0.819172 0.416391
vt 0.801636 0.434850
vt 0.809044 0.457001
vt 0.798915 0.416391
vt 0.797968 0.397933
vt 0.797968 0.379474
vt 0.797968 0.361015
vt 0.820119 0.342556
vt 0.820119 0.324098
vt 0.820119 0.361015
vt 0.820119 0.379474
vt 0.820119 0.397933
vn 0.9091 -0.2713 0.3160
vn 0.7735 -0.2451 0.5845
vn 0.8877 -0.4218 0.1845
vn 0.8526 -0.2403 0.4641
vn 0.6427 -0.1462 0.7520
vn 0.0742 -0.0220 0.9970
vn -0.3621 0.0336 0.9315
vn -0.3102 0.0249 0.9504
vn 0.2435 -0.0562 0.9683
vn -0.0701 -0.0144 0.9974
vn 0.4442 -0.1054 0.8897
vn 0.1913 -0.0583 0.9798
vn 0.6192 -0.1557 0.7697
vn 0.4341 -0.0973 0.8956
vn 0.7564 -0.2017 0.6223
vn 0.5055 -0.0712 0.8599
vn 0.5520 -0.0846 0.8295
vn 0.3537 -0.1817 0.9175
vn 0.6320 -0.1040 0.7679
vn 0.4278 -0.0761 0.9007
vn 0.5722 -0.1296 0.8098
vn 0.8940 -0.4048 -0.1918
vn 0.7847 -0.4656 -0.4092
vn 0.8779 -0.3912 -0.2762
vn 0.6317 -0.2338 0.7391
vn 0.9385 -0.3429 -0.0393
vn 0.9375 -0.3388 -0.0791
vn 0.9395 -0.2806 0.1963
vn 0.7872 -0.3106 0.5327
vn 0.8663 -0.2082 0.4541
vn 0.6764 -0.2800 0.6812
vn 0.7241 -0.1400 0.6753
vn 0.5291 -0.2328 0.8160
vn -0.4888 0.0671 0.8698
vn -0.3076 0.0355 0.9508
vn -0.1007 0.0029 0.9949
vn 0.0902 -0.0220 0.9957
vn 0.2622 -0.0453 0.9640
vn -0.9170 0.2751 -0.2887
vn -0.8748 0.4497 -0.1803
vn -0.7612 0.2754 -0.5871
vn -0.8623 0.2418 -0.4449
vn -0.6593 0.1495 -0.7368
vn -0.0666 0.0223 -0.9975
vn -0.2394 0.0544 -0.9694
vn 0.2922 -0.0203 -0.9561
vn 0.3547 -0.0305 -0.9345
vn -0.4435 0.1037 -0.8902
vn 0.0475 0.0178 -0.9987
vn -0.6233 0.1547 -0.7665
vn -0.2140 0.0621 -0.9749
vn -0.7644 0.2017 -0.6124
vn -0.4534 0.1013 -0.8855
vn -0.4912 0.0669 -0.8685
vn -0.6271 0.1018 -0.7723
vn -0.7338 0.1341 -0.6660
vn -0.5481 0.0832 -0.8323
vn -0.1914 0.1581 -0.9687
vn -0.4552 0.0826 -0.8865
vn -0.8916 0.4069 0.1986
vn -0.5992 0.4339 0.6728
vn -0.2440 0.5375 0.8072
vn -0.0261 0.2749 -0.9611
vn -0.9398 0.3396 0.0379
vn -0.7838 0.2989 0.5443
vn -0.9393 0.2780 -0.2012
vn -0.9505 0.2879 -0.1168
vn -0.8648 0.2071 -0.4573
vn -0.9219 0.2378 -0.3058
vn -0.7218 0.1395 -0.6779
vn -0.8499 0.1849 -0.4934
vn 0.3020 -0.0340 -0.9527
vn 0.4819 -0.0638 -0.8739
vn 0.0931 -0.0012 -0.9957
vn -0.1015 0.0248 -0.9945
vn -0.2819 0.0496 -0.9582
vn -0.9973 -0.0289 0.0671
vn -0.9844 -0.0181 0.1750
vn -0.9865 -0.0194 0.1626
vn 0.2587 0.1270 -0.9576
vn 0.4338 -0.0043 -0.9010
vn 0.4181 -0.0003 -0.9084
vn -0.2399 0.4108 0.8796
vn -0.1188 0.5199 0.8459
vn 0.1686 0.2425 -0.9554
vn -0.4682 0.2113 0.8580
vn -0.6597 0.1005 0.7448
vn -0.6731 0.0940 0.7335
vn -0.8162 0.0364 0.5767
vn -0.8251 0.0339 0.5640
vn -0.9245 0.0053 0.3812
vn -0.9299 0.0036 0.3679
vn 0.9582 0.0223 -0.2852
vn 0.9806 0.0262 -0.1943
vn 0.9544 0.0218 -0.2976
vn 0.8784 0.0087 -0.4779
vn 0.8708 0.0073 -0.4917
vn 0.7540 -0.0166 -0.6567
vn 0.7426 -0.0191 -0.6695
vn 0.6017 -0.0298 -0.7982
vn 0.5881 -0.0291 -0.8082
vn 0.9873 -0.0819 0.1360
vn 0.9381 -0.0661 0.3399
vn 0.9438 -0.0687 0.3232
vn 0.9898 -0.0817 0.1170
vn 0.8461 -0.0185 0.5328
vn 0.8553 -0.0235 0.5177
vn 0.7067 0.0407 0.7064
vn 0.7184 0.0365 0.6947
vn 0.5367 0.0931 0.8386
vn 0.5485 0.0898 0.8313
vn 0.4514 0.1152 0.8848
vn 0.0966 -0.2273 0.9690
vn -0.1086 -0.1851 0.9767
vn 0.3021 -0.2640 0.9160
vn 0.4916 -0.2795 0.8247
vn 0.6739 -0.2366 0.7000
vn 0.6618 -0.2422 0.7094
vn 0.7729 -0.0612 0.6316
vn 0.7698 -0.0795 0.6334
vn 0.9530 -0.0733 -0.2940
vn 0.9889 -0.0781 -0.1265
vn 0.9860 -0.0776 -0.1477
vn 0.7869 0.0657 0.6136
vn -0.2004 -0.1632 0.9660
usemtl tiny_treats_1
s 1
f 37/1/1 20/2/2 21/3/3
f 36/4/4 19/5/5 20/6/2 37/7/1
f 31/8/6 18/9/7 27/10/8 32/11/9
f 32/11/9 27/10/8 28/12/10 33/13/11
f 33/14/11 28/15/10 29/16/12 34/17/13
f 34/17/13 29/16/12 30/18/14 35/19/15
f 35/20/15 30/21/14 19/5/5 36/4/4
f 17/22/16 16/23/17 10/24/18 1/25/19
f 20/26/2 19/27/5 15/28/20 4/29/21
f 22/30/22 21/31/3 5/32/23 3/33/24
f 21/31/3 20/26/2 4/29/21 5/32/25
f 23/34/26 22/30/22 3/33/24 6/35/27
f 24/36/28 23/34/26 6/35/27 7/37/29
f 25/38/30 24/36/28 7/37/29 8/39/31
f 26/40/32 25/38/30 8/39/31 9/41/33
f 16/23/17 26/40/32 9/41/33 10/24/18
f 27/42/8 18/43/7 2/44/34 11/45/35
f 28/46/10 27/42/8 11/45/35 12/47/36
f 29/48/12 28/46/10 12/47/36 13/49/37
f 30/50/14 29/48/12 13/49/37 14/51/38
f 19/27/5 30/50/14 14/51/38 15/28/20
f 23/52/26 36/4/4 37/7/1 22/53/22
f 24/54/28 35/20/15 36/4/4 23/52/26
f 25/55/30 34/17/13 35/19/15 24/56/28
f 26/57/32 33/14/11 34/17/13 25/55/30
f 16/58/17 32/11/9 33/13/11 26/59/32
f 17/60/16 31/8/6 32/11/9 16/58/17
f 22/61/22 37/1/1 21/3/3
f 74/62/39 58/63/40 57/64/41
f 73/65/42 74/66/39 57/67/41 56/68/43
f 68/69/44 69/70/45 64/71/46 55/72/47
f 69/70/45 70/73/48 65/74/49 64/71/46
f 70/75/48 71/76/50 66/77/51 65/78/49
f 71/76/50 72/79/52 67/80/53 66/77/51
f 72/81/52 73/65/42 56/68/43 67/82/53
f 54/83/54 38/84/55 47/85/56 53/86/57
f 57/87/41 41/88/58 52/89/59 56/90/43
f 59/91/60 40/92/61 42/93/62 58/94/40
f 58/94/40 42/93/63 41/88/58 57/87/41
f 60/95/64 43/96/65 40/92/61 59/91/60
f 61/97/66 44/98/67 43/96/65 60/95/64
f 62/99/68 45/100/69 44/98/67 61/97/66
f 63/101/70 46/102/71 45/100/69 62/99/68
f 53/86/57 47/85/56 46/102/71 63/101/70
f 64/103/46 48/104/72 39/105/73 55/106/47
f 65/107/49 49/108/74 48/104/72 64/103/46
f 66/109/51 50/110/75 49/108/74 65/107/49
f 67/111/53 51/112/76 50/110/75 66/109/51
f 56/90/43 52/89/59 51/112/76 67/111/53
f 60/113/64 59/114/60 74/66/39 73/65/42
f 61/115/66 60/113/64 73/65/42 72/81/52
f 62/116/68 61/117/66 72/79/52 71/76/50
f 63/118/70 62/116/68 71/76/50 70/75/48
f 53/119/57 63/120/70 70/73/48 69/70/45
f 54/121/54 53/119/57 69/70/45 68/69/44
f 59/122/60 58/63/40 74/62/39
f 75/123/77 84/124/78 47/85/79 38/84/77
f 78/125/80 89/126/81 52/89/82 41/88/58
f 77/127/83 79/128/84 42/93/62 40/92/61
f 79/128/85 78/125/80 41/88/58 42/93/63
f 80/129/86 77/127/83 40/92/61 43/96/65
f 81/130/87 80/129/86 43/96/65 44/98/88
f 82/131/89 81/130/87 44/98/88 45/100/90
f 83/132/91 82/131/89 45/100/90 46/102/92
f 84/124/78 83/132/91 46/102/92 47/85/79
f 85/133/93 76/134/94 39/105/94 48/104/95
f 86/135/96 85/133/93 48/104/95 49/108/97
f 87/136/98 86/135/96 49/108/97 50/110/99
f 88/137/100 87/136/98 50/110/99 51/112/101
f 89/126/81 88/137/100 51/112/101 52/89/82
f 15/28/102 14/51/103 88/137/104 89/126/105
f 14/51/103 13/49/106 87/136/107 88/137/104
f 13/49/106 12/47/108 86/135/109 87/136/107
f 12/47/108 11/45/110 85/133/111 86/135/109
f 11/45/110 2/44/112 76/134/112 85/133/111
f 10/24/18 9/41/33 83/132/113 84/124/114
f 9/41/33 8/39/31 82/131/115 83/132/113
f 8/39/31 7/37/29 81/130/116 82/131/115
f 7/37/29 6/35/117 80/129/118 81/130/116
f 6/35/117 3/33/119 77/127/120 80/129/118
f 5/32/121 4/29/122 78/125/123 79/128/121
f 3/33/119 5/32/124 79/128/124 77/127/120
f 4/29/122 15/28/102 89/126/105 78/125/123
f 1/25/125 10/24/18 84/124/114 75/123/125
