# Blender v3.4.1 OBJ File: 'Tiny_Treats_House_Plants_ASSETS_EXPORT.blend'
# www.blender.org
mtllib sansevieria_leaf_large_C.mtl
o sansevieria_leaf_large_C
v -0.180000 -0.050000 0.112887
v 0.180000 -0.050000 0.112887
v 0.067736 1.342190 -0.191599
v 0.267822 1.342190 -0.057652
v 0.294419 1.597567 -0.224874
v -0.049475 1.119618 -0.128623
v -0.115891 0.890063 -0.062670
v -0.148858 0.656989 -0.001991
v -0.168032 0.422253 0.048921
v -0.177060 0.186405 0.087727
v 0.181135 0.186405 0.123729
v 0.184785 0.422253 0.120481
v 0.195108 0.656989 0.104251
v 0.215924 0.890063 0.076969
v 0.240138 1.119618 0.027945
v -0.120638 0.098745 0.065639
v -0.124200 -0.050000 0.076248
v 0.124200 -0.050000 0.076247
v 0.217454 1.158911 -0.042778
v 0.259223 1.404394 -0.140318
v 0.267881 1.528718 -0.212850
v 0.165211 1.404394 -0.206908
v 0.031245 1.158911 -0.147488
v -0.047783 0.901943 -0.078452
v -0.086893 0.637157 -0.016695
v -0.109426 0.368602 0.032542
v 0.127269 0.098745 0.081284
v 0.135076 0.368602 0.076371
v 0.151051 0.637157 0.054613
v 0.180682 0.901943 0.019049
v 0.000000 -0.050000 0.036000
v 0.009597 0.183459 0.029304
v 0.023298 0.416368 0.009644
v 0.045025 0.648179 -0.021725
v 0.078098 0.876938 -0.062505
v 0.124996 1.100956 -0.109646
v 0.187264 1.319060 -0.159752
v -0.219517 -0.050000 0.052702
v 0.219519 -0.050000 0.052705
v 0.063623 1.330502 -0.262346
v 0.332732 1.330503 -0.084115
v 0.337312 1.584806 -0.280435
v -0.058968 1.108911 -0.198614
v -0.130744 0.881079 -0.131902
v -0.169617 0.650093 -0.070053
v -0.195133 0.417646 -0.017260
v -0.210467 0.184099 0.024168
v 0.226411 0.184099 0.067649
v 0.235311 0.417646 0.069172
v 0.250244 0.650093 0.058287
v 0.275144 0.881079 0.037094
v 0.302720 1.108911 -0.005196
v -0.147708 0.097170 -0.000982
v -0.155334 -0.050000 0.011330
v 0.155334 -0.050000 0.011329
v 0.273956 1.146239 -0.084320
v 0.317574 1.390802 -0.177869
v 0.309205 1.515830 -0.269542
v 0.176649 1.390801 -0.276477
v 0.033698 1.146238 -0.217731
v -0.052823 0.891910 -0.148994
v -0.098925 0.629884 -0.086886
v -0.128965 0.364172 -0.036370
v 0.162357 0.097170 0.018378
v 0.176931 0.364172 0.017871
v 0.198940 0.629884 0.001381
v 0.233800 0.891910 -0.028110
v 0.000000 -0.050000 -0.036000
v 0.016503 0.180700 -0.042279
v 0.036932 0.410857 -0.060710
v 0.065039 0.639929 -0.090098
v 0.103929 0.865824 -0.128230
v 0.155887 1.086802 -0.172190
v 0.222410 1.301959 -0.218807
v -0.222991 -0.048663 0.096446
v 0.221548 -0.050779 0.098712
v 0.042600 1.346708 -0.231899
v 0.315015 1.342443 -0.049617
v 0.312577 1.611148 -0.243726
v -0.079677 1.121235 -0.161841
v -0.149289 0.890073 -0.092593
v -0.184909 0.656655 -0.028643
v -0.206502 0.422303 0.025787
v -0.217626 0.186918 0.068402
v 0.224759 0.184717 0.112663
v 0.229285 0.419855 0.113772
v 0.239977 0.653797 0.101995
v 0.260780 0.886700 0.079269
v 0.284652 1.117411 0.034575
vt 0.184044 0.667883
vt 0.187104 0.667883
vt 0.184044 0.677033
vt 0.184044 0.650148
vt 0.189718 0.650148
vt 0.187104 0.621008
vt 0.184044 0.621008
vt 0.184044 0.558946
vt 0.190641 0.558946
vt 0.190641 0.577273
vt 0.184044 0.577273
vt 0.190641 0.548726
vt 0.184044 0.548726
vt 0.184044 0.595601
vt 0.190641 0.595601
vt 0.190641 0.613928
vt 0.184044 0.613928
vt 0.190641 0.585267
vt 0.184044 0.585267
vt 0.184044 0.632142
vt 0.190641 0.632142
vt 0.802398 0.324098
vt 0.802398 0.342556
vt 0.797968 0.342556
vt 0.797968 0.324098
vt 0.812126 0.433817
vt 0.814758 0.415954
vt 0.819172 0.416391
vt 0.816451 0.434850
vt 0.805961 0.433817
vt 0.809044 0.443032
vt 0.809044 0.457001
vt 0.801636 0.434850
vt 0.803328 0.415954
vt 0.798915 0.416391
vt 0.802398 0.397819
vt 0.797968 0.397933
vt 0.802398 0.379474
vt 0.797968 0.379474
vt 0.802398 0.361015
vt 0.797968 0.361015
vt 0.815689 0.342556
vt 0.815689 0.324098
vt 0.820119 0.324098
vt 0.820119 0.342556
vt 0.815689 0.361015
vt 0.820119 0.361015
vt 0.815689 0.379474
vt 0.820119 0.379474
vt 0.815689 0.397819
vt 0.820119 0.397933
vt 0.178369 0.650148
vt 0.180983 0.621008
vt 0.177446 0.632142
vt 0.177446 0.613928
vt 0.177446 0.585267
vt 0.177446 0.595601
vt 0.177446 0.577273
vt 0.177446 0.548726
vt 0.177446 0.558946
vt 0.180983 0.667883
vt 0.184044 0.667883
vt 0.184044 0.677033
vt 0.187104 0.667883
vt 0.184044 0.650148
vt 0.184044 0.621008
vt 0.187104 0.621008
vt 0.189718 0.650148
vt 0.184044 0.558946
vt 0.184044 0.577273
vt 0.190641 0.577273
vt 0.190641 0.558946
vt 0.184044 0.548726
vt 0.190641 0.548726
vt 0.184044 0.595601
vt 0.184044 0.613928
vt 0.190641 0.613928
vt 0.190641 0.595601
vt 0.184044 0.585267
vt 0.190641 0.585267
vt 0.184044 0.632142
vt 0.190641 0.632142
vt 0.802398 0.324098
vt 0.797968 0.324098
vt 0.797968 0.342556
vt 0.802398 0.342556
vt 0.812126 0.433817
vt 0.816451 0.434850
vt 0.819172 0.416391
vt 0.814758 0.415954
vt 0.805961 0.433817
vt 0.801636 0.434850
vt 0.809044 0.457001
vt 0.809044 0.443032
vt 0.803328 0.415954
vt 0.798915 0.416391
vt 0.802398 0.397819
vt 0.797968 0.397933
vt 0.802398 0.379474
vt 0.797968 0.379474
vt 0.802398 0.361015
vt 0.797968 0.361015
vt 0.815689 0.342556
vt 0.820119 0.342556
vt 0.820119 0.324098
vt 0.815689 0.324098
vt 0.815689 0.361015
vt 0.820119 0.361015
vt 0.815689 0.379474
vt 0.820119 0.379474
vt 0.815689 0.397819
vt 0.820119 0.397933
vt 0.178369 0.650148
vt 0.180983 0.621008
vt 0.177446 0.632142
vt 0.177446 0.613928
vt 0.177446 0.585267
vt 0.177446 0.595601
vt 0.177446 0.577273
vt 0.177446 0.548726
vt 0.177446 0.558946
vt 0.180983 0.667883
vt 0.797968 0.324098
vt 0.797968 0.342556
vt 0.816451 0.434850
vt 0.819172 0.416391
vt 0.801636 0.434850
vt 0.809044 0.457001
vt 0.798915 0.416391
vt 0.797968 0.397933
vt 0.797968 0.379474
vt 0.797968 0.361015
vt 0.820119 0.342556
vt 0.820119 0.324098
vt 0.820119 0.361015
vt 0.820119 0.379474
vt 0.820119 0.397933
vn -0.4831 0.3596 0.7983
vn -0.7778 0.3621 0.5137
vn -0.4858 0.2552 0.8360
vn -0.4323 0.3071 0.8479
vn -0.7870 0.2965 0.5411
vn -0.0307 0.0264 0.9992
vn -0.4621 -0.0055 0.8868
vn -0.4879 0.0071 0.8728
vn -0.1036 0.0649 0.9925
vn -0.5815 0.0673 0.8107
vn -0.1958 0.1232 0.9729
vn -0.6689 0.1402 0.7300
vn -0.2849 0.1828 0.9410
vn -0.7431 0.2167 0.6331
vn -0.3650 0.2441 0.8985
vn 0.3986 0.0537 0.9156
vn 0.3730 0.0668 0.9254
vn 0.4495 0.1016 0.8875
vn 0.5056 0.0713 0.8598
vn -0.8663 0.2306 0.4431
vn -0.8864 0.2815 0.3674
vn -0.1440 0.2171 0.9655
vn 0.0516 0.0582 0.9970
vn 0.0593 0.2068 0.9766
vn -0.8574 0.3293 0.3955
vn -0.0552 0.2624 0.9634
vn 0.1293 0.2232 0.9662
vn 0.0556 0.2274 0.9722
vn 0.2039 0.2085 0.9565
vn 0.1626 0.1784 0.9704
vn 0.2812 0.1807 0.9425
vn 0.2751 0.1213 0.9537
vn 0.3657 0.1429 0.9197
vn -0.5701 -0.0276 0.8211
vn -0.6446 0.0160 0.7643
vn -0.7179 0.0715 0.6925
vn -0.7762 0.1273 0.6174
vn -0.8254 0.1797 0.5351
vn 0.4839 -0.3627 -0.7964
vn 0.4905 -0.2172 -0.8439
vn 0.7803 -0.3490 -0.5190
vn 0.4315 -0.3101 -0.8472
vn 0.7762 -0.2978 -0.5557
vn 0.0249 -0.0263 -0.9993
vn 0.0996 -0.0632 -0.9930
vn 0.4787 -0.0103 -0.8779
vn 0.4481 0.0032 -0.8940
vn 0.1915 -0.1217 -0.9739
vn 0.5712 -0.0706 -0.8178
vn 0.2814 -0.1821 -0.9421
vn 0.6573 -0.1427 -0.7400
vn 0.3626 -0.2449 -0.8992
vn 0.7311 -0.2183 -0.6464
vn -0.3897 -0.0522 -0.9195
vn -0.5005 -0.0705 -0.8629
vn -0.4448 -0.0996 -0.8901
vn -0.3597 -0.0666 -0.9307
vn 0.8775 -0.2840 -0.3865
vn 0.8586 -0.2370 -0.4546
vn 0.1368 -0.1783 -0.9744
vn -0.4112 0.1252 -0.9029
vn -0.4384 0.4205 -0.7944
vn 0.8565 -0.3066 -0.4151
vn 0.0603 -0.2646 -0.9625
vn -0.1205 -0.2253 -0.9668
vn -0.0479 -0.2280 -0.9725
vn -0.1980 -0.2090 -0.9577
vn -0.1519 -0.1789 -0.9721
vn -0.2773 -0.1795 -0.9439
vn -0.2621 -0.1219 -0.9573
vn -0.3620 -0.1407 -0.9215
vn 0.6353 -0.0168 -0.7720
vn 0.5647 0.0270 -0.8248
vn 0.7083 -0.0728 -0.7021
vn 0.7679 -0.1297 -0.6273
vn 0.8183 -0.1839 -0.5446
vn -0.9926 0.0159 -0.1207
vn -0.9866 0.0168 -0.1625
vn -0.9857 0.0169 -0.1676
vn 0.9018 0.1430 0.4077
vn 0.9174 -0.0023 0.3981
vn 0.9158 0.0021 0.4015
vn 0.8996 0.1701 0.4023
vn -0.6687 0.3770 -0.6409
vn -0.5247 0.5107 -0.6811
vn 0.8834 0.2780 0.3772
vn -0.8281 0.1808 -0.5307
vn -0.8190 0.1926 -0.5405
vn -0.8972 0.0790 -0.4346
vn -0.8927 0.0863 -0.4424
vn -0.9379 0.0330 -0.3453
vn -0.9352 0.0342 -0.3524
vn -0.9671 0.0217 -0.2535
vn -0.9653 0.0223 -0.2602
vn 0.9988 -0.0253 0.0424
vn 0.9998 -0.0213 -0.0042
vn 0.9989 -0.0250 0.0397
vn 0.9900 -0.0372 0.1361
vn 0.9902 -0.0369 0.1347
vn 0.9708 -0.0563 0.2332
vn 0.9707 -0.0564 0.2334
vn 0.9438 -0.0510 0.3265
vn 0.9431 -0.0501 0.3289
vn -0.1120 0.2873 0.9513
vn -0.0383 0.1566 0.9869
vn -0.0391 0.1575 0.9867
vn -0.1128 0.2896 0.9505
vn 0.0552 0.0805 0.9952
vn 0.1501 0.0282 0.9883
vn 0.1512 0.0276 0.9881
vn 0.2395 -0.0254 0.9706
vn 0.2412 -0.0265 0.9701
vn 0.2823 -0.0529 0.9579
vn -0.4267 0.1393 0.8936
vn -0.5031 0.1988 0.8411
vn -0.5053 0.2006 0.8393
vn -0.4289 0.1410 0.8923
vn -0.5736 0.2576 0.7776
vn -0.5753 0.2592 0.7758
vn -0.6267 0.3359 0.7031
vn -0.6273 0.3372 0.7020
vn -0.6571 0.4526 0.6028
vn -0.6569 0.4510 0.6042
vn -0.6799 0.6056 0.4136
vn -0.6788 0.5955 0.4298
vn 0.0163 0.5670 0.8235
vn -0.0635 0.4695 0.8806
vn -0.0629 0.4703 0.8803
vn -0.6801 0.6747 0.2867
vn -0.3891 0.1099 0.9146
usemtl tiny_treats_1
s 1
f 37/1/1 20/2/2 21/3/3
f 36/4/4 19/5/5 20/6/2 37/7/1
f 31/8/6 18/9/7 27/10/8 32/11/9
f 32/11/9 27/10/8 28/12/10 33/13/11
f 33/14/11 28/15/10 29/16/12 34/17/13
f 34/17/13 29/16/12 30/18/14 35/19/15
f 35/20/15 30/21/14 19/5/5 36/4/4
f 17/22/16 16/23/17 10/24/18 1/25/19
f 20/26/2 19/27/5 15/28/20 4/29/21
f 22/30/22 21/31/3 5/32/23 3/33/24
f 21/31/3 20/26/2 4/29/21 5/32/25
f 23/34/26 22/30/22 3/33/24 6/35/27
f 24/36/28 23/34/26 6/35/27 7/37/29
f 25/38/30 24/36/28 7/37/29 8/39/31
f 26/40/32 25/38/30 8/39/31 9/41/33
f 16/23/17 26/40/32 9/41/33 10/24/18
f 27/42/8 18/43/7 2/44/34 11/45/35
f 28/46/10 27/42/8 11/45/35 12/47/36
f 29/48/12 28/46/10 12/47/36 13/49/37
f 30/50/14 29/48/12 13/49/37 14/51/38
f 19/27/5 30/50/14 14/51/38 15/28/20
f 23/52/26 36/4/4 37/7/1 22/53/22
f 24/54/28 35/20/15 36/4/4 23/52/26
f 25/55/30 34/17/13 35/19/15 24/56/28
f 26/57/32 33/14/11 34/17/13 25/55/30
f 16/58/17 32/11/9 33/13/11 26/59/32
f 17/60/16 31/8/6 32/11/9 16/58/17
f 22/61/22 37/1/1 21/3/3
f 74/62/39 58/63/40 57/64/41
f 73/65/42 74/66/39 57/67/41 56/68/43
f 68/69/44 69/70/45 64/71/46 55/72/47
f 69/70/45 70/73/48 65/74/49 64/71/46
f 70/75/48 71/76/50 66/77/51 65/78/49
f 71/76/50 72/79/52 67/80/53 66/77/51
f 72/81/52 73/65/42 56/68/43 67/82/53
f 54/83/54 38/84/55 47/85/56 53/86/57
f 57/87/41 41/88/58 52/89/59 56/90/43
f 59/91/60 40/92/61 42/93/62 58/94/40
f 58/94/40 42/93/63 41/88/58 57/87/41
f 60/95/64 43/96/65 40/92/61 59/91/60
f 61/97/66 44/98/67 43/96/65 60/95/64
f 62/99/68 45/100/69 44/98/67 61/97/66
f 63/101/70 46/102/71 45/100/69 62/99/68
f 53/86/57 47/85/56 46/102/71 63/101/70
f 64/103/46 48/104/72 39/105/73 55/106/47
f 65/107/49 49/108/74 48/104/72 64/103/46
f 66/109/51 50/110/75 49/108/74 65/107/49
f 67/111/53 51/112/76 50/110/75 66/109/51
f 56/90/43 52/89/59 51/112/76 67/111/53
f 60/113/64 59/114/60 74/66/39 73/65/42
f 61/115/66 60/113/64 73/65/42 72/81/52
f 62/116/68 61/117/66 72/79/52 71/76/50
f 63/118/70 62/116/68 71/76/50 70/75/48
f 53/119/57 63/120/70 70/73/48 69/70/45
f 54/121/54 53/119/57 69/70/45 68/69/44
f 59/122/60 58/63/40 74/62/39
f 75/123/77 84/124/78 47/85/79 38/84/77
f 78/125/80 89/126/81 52/89/82 41/88/83
f 77/127/84 79/128/85 42/93/62 40/92/61
f 79/128/86 78/125/80 41/88/83 42/93/86
f 80/129/87 77/127/84 40/92/61 43/96/88
f 81/130/89 80/129/87 43/96/88 44/98/90
f 82/131/91 81/130/89 44/98/90 45/100/92
f 83/132/93 82/131/91 45/100/92 46/102/94
f 84/124/78 83/132/93 46/102/94 47/85/79
f 85/133/95 76/134/96 39/105/96 48/104/97
f 86/135/98 85/133/95 48/104/97 49/108/99
f 87/136/100 86/135/98 49/108/99 50/110/101
f 88/137/102 87/136/100 50/110/101 51/112/103
f 89/126/81 88/137/102 51/112/103 52/89/82
f 15/28/104 14/51/105 88/137/106 89/126/107
f 14/51/105 13/49/108 87/136/108 88/137/106
f 13/49/108 12/47/109 86/135/110 87/136/108
f 12/47/109 11/45/111 85/133/112 86/135/110
f 11/45/111 2/44/113 76/134/113 85/133/112
f 10/24/114 9/41/115 83/132/116 84/124/117
f 9/41/115 8/39/118 82/131/119 83/132/116
f 8/39/118 7/37/120 81/130/121 82/131/119
f 7/37/120 6/35/122 80/129/123 81/130/121
f 6/35/122 3/33/124 77/127/125 80/129/123
f 5/32/126 4/29/127 78/125/128 79/128/126
f 3/33/124 5/32/129 79/128/129 77/127/125
f 4/29/127 15/28/104 89/126/107 78/125/128
f 1/25/130 10/24/114 84/124/117 75/123/130
