# Blender v3.4.1 OBJ File: 'Tiny_Treats_House_Plants_ASSETS_EXPORT.blend'
# www.blender.org
mtllib sansevieria_leaf_small_C.mtl
o sansevieria_leaf_small_C
v -0.098000 -0.050000 0.028000
v 0.098000 -0.050000 0.028000
v -0.084802 0.261563 0.028000
v 0.084802 0.261563 0.028000
v 0.000000 0.551366 0.028000
v -0.098000 0.136667 0.028000
v 0.098000 0.136667 0.028000
v -0.060717 0.068124 0.028000
v -0.061651 -0.050000 0.028000
v 0.061651 -0.050000 0.028000
v 0.036432 0.338461 0.028000
v 0.000000 0.449121 0.028000
v -0.036432 0.338461 0.028000
v 0.060717 0.068124 0.028000
v 0.000000 -0.050000 0.028000
v 0.000000 0.091867 0.028000
v 0.000000 0.298441 0.028000
v -0.048574 0.200213 0.028000
v 0.048574 0.200213 0.028000
v -0.091401 0.200213 0.028000
v 0.091401 0.200213 0.028000
v 0.000000 0.200213 0.028000
v -0.098000 -0.050000 -0.028000
v 0.098000 -0.050000 -0.028000
v -0.084802 0.261563 -0.028000
v 0.084802 0.261563 -0.028000
v 0.000000 0.551366 -0.028000
v -0.098000 0.136667 -0.028000
v 0.098000 0.136667 -0.027998
v -0.060717 0.068124 -0.028000
v -0.061651 -0.050000 -0.028000
v 0.061651 -0.050000 -0.028000
v 0.036432 0.338461 -0.028000
v 0.000000 0.449121 -0.028000
v -0.036432 0.338461 -0.028000
v 0.060717 0.068124 -0.028000
v 0.000000 -0.050000 -0.028000
v 0.000000 0.091867 -0.028000
v 0.000000 0.298441 -0.028000
v -0.048574 0.200213 -0.028000
v 0.048574 0.200213 -0.028000
v -0.091401 0.200213 -0.028000
v 0.091401 0.200213 -0.028000
v 0.000000 0.200213 -0.028000
v -0.119000 -0.050000 -0.000000
v 0.119000 -0.050000 -0.000000
v -0.105540 0.264205 0.000000
v 0.105540 0.264205 0.000000
v 0.000000 0.568166 0.000000
v -0.118982 0.137363 0.000000
v 0.118982 0.137363 0.000001
v -0.112326 0.201629 0.000000
v 0.112326 0.201629 0.000000
vt 0.192441 0.652733
vt 0.198413 0.660934
vt 0.192441 0.683609
vt 0.192441 0.581335
vt 0.202548 0.581335
vt 0.202394 0.543040
vt 0.192441 0.547905
vt 0.200404 0.632606
vt 0.198413 0.598434
vt 0.192441 0.590233
vt 0.192441 0.632606
vt 0.802398 0.324098
vt 0.802398 0.342556
vt 0.797968 0.342556
vt 0.797968 0.324098
vt 0.804180 0.388187
vt 0.799802 0.388703
vt 0.805961 0.433817
vt 0.809044 0.443032
vt 0.809044 0.457001
vt 0.801636 0.434850
vt 0.812126 0.433817
vt 0.816451 0.434850
vt 0.813907 0.388187
vt 0.818285 0.388703
vt 0.815689 0.342556
vt 0.815689 0.324098
vt 0.820119 0.324098
vt 0.820119 0.342556
vt 0.184478 0.632606
vt 0.186469 0.598434
vt 0.182335 0.581335
vt 0.182488 0.543040
vt 0.186469 0.660934
vt 0.182488 0.605540
vt 0.192441 0.610405
vt 0.202394 0.605540
vt 0.192441 0.652733
vt 0.192441 0.683609
vt 0.198413 0.660934
vt 0.192441 0.581335
vt 0.192441 0.547905
vt 0.202394 0.543040
vt 0.202548 0.581335
vt 0.200404 0.632606
vt 0.192441 0.632606
vt 0.192441 0.590233
vt 0.198413 0.598434
vt 0.802398 0.324098
vt 0.797968 0.324098
vt 0.797968 0.342556
vt 0.802398 0.342556
vt 0.804180 0.388187
vt 0.799802 0.388703
vt 0.805961 0.433817
vt 0.801636 0.434850
vt 0.809044 0.457001
vt 0.809044 0.443032
vt 0.816451 0.434850
vt 0.812126 0.433817
vt 0.813907 0.388187
vt 0.818285 0.388703
vt 0.815689 0.342556
vt 0.820119 0.342556
vt 0.820119 0.324098
vt 0.815689 0.324098
vt 0.184478 0.632606
vt 0.186469 0.598434
vt 0.182335 0.581335
vt 0.182488 0.543040
vt 0.186469 0.660934
vt 0.182488 0.605540
vt 0.192441 0.610405
vt 0.202394 0.605540
vt 0.797968 0.324098
vt 0.797968 0.342556
vt 0.801636 0.434850
vt 0.809044 0.457001
vt 0.816451 0.434850
vt 0.799802 0.388703
vt 0.820119 0.342556
vt 0.820119 0.324098
vt 0.818285 0.388703
vn -0.0000 -0.0000 1.0000
vn -0.0000 0.0000 -1.0000
vn -0.8001 0.0000 -0.5998
vn -0.7990 0.0411 -0.6000
vn -0.7989 0.0416 -0.6000
vn -0.9777 0.2100 -0.0000
vn -0.9523 0.3053 0.0000
vn -0.8656 0.2775 -0.4169
vn -0.8397 0.1859 -0.5103
vn 0.9523 0.3053 0.0000
vn 0.9777 0.2100 -0.0000
vn 0.8397 0.1859 -0.5103
vn 0.8656 0.2775 -0.4169
vn -0.7964 0.0843 -0.5989
vn 0.7990 0.0410 -0.6000
vn 0.8001 0.0000 -0.5998
vn 0.7989 0.0416 -0.6000
vn 0.7964 0.0843 -0.5989
vn 0.7964 0.0843 0.5989
vn 0.7989 0.0416 0.6000
vn 0.7990 0.0411 0.6000
vn -0.7964 0.0843 0.5989
vn -0.8397 0.1859 0.5103
vn 0.8397 0.1859 0.5103
vn 0.8001 0.0000 0.5998
vn -0.7989 0.0416 0.6000
vn -0.7990 0.0411 0.6000
vn 0.8656 0.2775 0.4169
vn -0.8656 0.2775 0.4169
vn -0.8001 0.0000 0.5998
usemtl tiny_treats_1
s 1
f 17/1/1 11/2/1 12/3/1
f 15/4/1 10/5/1 14/6/1 16/7/1
f 19/8/1 11/9/1 17/10/1 22/11/1
f 9/12/1 8/13/1 6/14/1 1/15/1
f 18/16/1 20/17/1 6/14/1 8/13/1
f 13/18/1 12/19/1 5/20/1 3/21/1
f 12/19/1 11/22/1 4/23/1 5/20/1
f 19/24/1 21/25/1 4/23/1 11/22/1
f 14/26/1 10/27/1 2/28/1 7/29/1
f 18/30/1 22/11/1 17/10/1 13/31/1
f 9/32/1 15/4/1 16/7/1 8/33/1
f 13/34/1 17/1/1 12/3/1
f 8/35/1 16/36/1 22/11/1 18/30/1
f 14/26/1 7/29/1 21/25/1 19/24/1
f 13/18/1 3/21/1 20/17/1 18/16/1
f 14/37/1 19/8/1 22/11/1 16/36/1
f 39/38/2 34/39/2 33/40/2
f 37/41/2 38/42/2 36/43/2 32/44/2
f 41/45/2 44/46/2 39/47/2 33/48/2
f 31/49/2 23/50/2 28/51/2 30/52/2
f 40/53/2 30/52/2 28/51/2 42/54/2
f 35/55/2 25/56/2 27/57/2 34/58/2
f 34/58/2 27/57/2 26/59/2 33/60/2
f 41/61/2 33/60/2 26/59/2 43/62/2
f 36/63/2 29/64/2 24/65/2 32/66/2
f 40/67/2 35/68/2 39/47/2 44/46/2
f 31/69/2 30/70/2 38/42/2 37/41/2
f 35/71/2 34/39/2 39/38/2
f 30/72/2 40/67/2 44/46/2 38/73/2
f 36/63/2 41/61/2 43/62/2 29/64/2
f 35/55/2 40/53/2 42/54/2 25/56/2
f 36/74/2 38/73/2 44/46/2 41/45/2
f 45/75/3 50/76/4 28/51/5 23/50/3
f 47/77/6 49/78/7 27/57/8 25/56/9
f 49/78/10 48/79/11 26/59/12 27/57/13
f 50/76/4 52/80/14 42/54/14 28/51/5
f 51/81/15 46/82/16 24/65/16 29/64/17
f 48/79/11 53/83/18 43/62/18 26/59/12
f 52/80/14 47/77/6 25/56/9 42/54/14
f 53/83/18 51/81/15 29/64/17 43/62/18
f 21/25/19 7/29/20 51/81/21 53/83/19
f 20/17/22 3/21/23 47/77/6 52/80/22
f 4/23/24 21/25/19 53/83/19 48/79/11
f 7/29/20 2/28/25 46/82/25 51/81/21
f 6/14/26 20/17/22 52/80/22 50/76/27
f 5/20/28 4/23/24 48/79/11 49/78/10
f 3/21/23 5/20/29 49/78/7 47/77/6
f 1/15/30 6/14/26 50/76/27 45/75/30
