# Blender v3.4.1 OBJ File: 'Tiny_Treats_House_Plants_ASSETS_EXPORT.blend'
# www.blender.org
mtllib saucer_A_small.mtl
o saucer_A_small
v -0.000000 0.000000 -0.000000
v 0.219615 0.100000 -0.219615
v 0.300000 0.100000 -0.080385
v 0.300000 0.100000 0.080385
v 0.219615 0.100000 0.219615
v 0.080385 0.100000 0.300000
v -0.080385 0.100000 0.300000
v -0.219615 0.100000 0.219615
v -0.300000 0.100000 0.080385
v -0.300000 0.100000 -0.080385
v -0.219615 0.100000 -0.219615
v -0.080385 0.100000 -0.300000
v 0.080385 0.100000 -0.300000
v 0.255382 0.080000 -0.068429
v 0.255382 0.080000 0.068429
v 0.186953 0.080000 0.186953
v 0.068429 0.080000 0.255382
v -0.068429 0.080000 0.255382
v -0.186953 0.080000 0.186953
v -0.255382 0.080000 0.068429
v -0.255382 0.080000 -0.068429
v -0.186953 0.080000 -0.186953
v -0.068429 0.080000 -0.255382
v 0.068429 0.080000 -0.255382
v 0.186953 0.080000 -0.186953
v -0.000000 0.100000 0.000000
v 0.237015 0.100000 -0.063508
v 0.173507 0.100000 -0.173507
v 0.237015 0.100000 0.063508
v 0.173507 0.100000 0.173507
v 0.063508 0.100000 0.237015
v -0.063508 0.100000 0.237015
v -0.173507 0.100000 0.173507
v -0.237015 0.100000 0.063508
v -0.237015 0.100000 -0.063508
v -0.173507 0.100000 -0.173507
v -0.063508 0.100000 -0.237015
v 0.063508 0.100000 -0.237015
v 0.175692 0.000000 -0.175692
v 0.240000 0.000000 -0.064308
v 0.240000 -0.000000 0.064308
v 0.175692 -0.000000 0.175692
v 0.064308 -0.000000 0.240000
v -0.064308 -0.000000 0.240000
v -0.175692 -0.000000 0.175692
v -0.240000 -0.000000 0.064308
v -0.240000 0.000000 -0.064308
v -0.175692 0.000000 -0.175692
v -0.064308 0.000000 -0.240000
v 0.064308 0.000000 -0.240000
v 0.180828 0.200000 -0.180828
v 0.173507 0.190000 -0.173507
v 0.237015 0.190000 -0.063508
v 0.247015 0.200000 -0.066188
v 0.237015 0.190000 0.063508
v 0.247015 0.200000 0.066188
v 0.173507 0.190000 0.173507
v 0.180828 0.200000 0.180828
v 0.063508 0.190000 0.237015
v 0.066188 0.200000 0.247015
v -0.063508 0.190000 0.237015
v -0.066188 0.200000 0.247015
v -0.173507 0.190000 0.173507
v -0.180828 0.200000 0.180828
v -0.237015 0.190000 0.063508
v -0.247015 0.200000 0.066188
v -0.237015 0.190000 -0.063508
v -0.247015 0.200000 -0.066188
v -0.173507 0.190000 -0.173507
v -0.180828 0.200000 -0.180828
v -0.063508 0.190000 -0.237015
v -0.066188 0.200000 -0.247015
v 0.063508 0.190000 -0.237015
v 0.066188 0.200000 -0.247015
v 0.290000 0.200000 -0.077705
v 0.300000 0.190000 -0.080385
v 0.219615 0.190000 -0.219615
v 0.212295 0.200000 -0.212295
v 0.290000 0.200000 0.077705
v 0.300000 0.190000 0.080385
v 0.212295 0.200000 0.212295
v 0.219615 0.190000 0.219615
v 0.077705 0.200000 0.290000
v 0.080385 0.190000 0.300000
v -0.077705 0.200000 0.290000
v -0.080385 0.190000 0.300000
v -0.212295 0.200000 0.212295
v -0.219615 0.190000 0.219615
v -0.290000 0.200000 0.077705
v -0.300000 0.190000 0.080385
v -0.290000 0.200000 -0.077705
v -0.300000 0.190000 -0.080385
v -0.212295 0.200000 -0.212295
v -0.219615 0.190000 -0.219615
v -0.077705 0.200000 -0.290000
v -0.080385 0.190000 -0.300000
v 0.077705 0.200000 -0.290000
v 0.080385 0.190000 -0.300000
vt 0.686917 0.848551
vt 0.686917 0.854295
vt 0.695803 0.854295
vt 0.695803 0.848551
vt 0.700932 0.848551
vt 0.700932 0.854295
vt 0.695803 0.854295
vt 0.695803 0.848551
vt 0.686917 0.848551
vt 0.686917 0.854295
vt 0.676658 0.854295
vt 0.676658 0.848551
vt 0.667772 0.854295
vt 0.667772 0.848551
vt 0.662642 0.854295
vt 0.662642 0.848551
vt 0.662642 0.854295
vt 0.662642 0.848551
vt 0.667772 0.854295
vt 0.667772 0.848551
vt 0.676658 0.854295
vt 0.676658 0.848551
vt 0.692860 0.854295
vt 0.685840 0.854295
vt 0.685840 0.848551
vt 0.692860 0.848551
vt 0.686154 0.816025
vt 0.686917 0.817301
vt 0.695803 0.817301
vt 0.693718 0.816025
vt 0.677420 0.816025
vt 0.676658 0.817301
vt 0.669857 0.816025
vt 0.667772 0.817301
vt 0.665490 0.816025
vt 0.662642 0.817301
vt 0.665490 0.816025
vt 0.662642 0.817301
vt 0.669857 0.816025
vt 0.667772 0.817301
vt 0.677420 0.816025
vt 0.676658 0.817301
vt 0.686154 0.816025
vt 0.686917 0.817301
vt 0.693718 0.816025
vt 0.695803 0.817301
vt 0.698085 0.816025
vt 0.700932 0.817301
vt 0.698085 0.816025
vt 0.700932 0.817301
vt 0.692999 0.842169
vt 0.693718 0.847275
vt 0.698085 0.847275
vt 0.697103 0.842169
vt 0.698085 0.847275
vt 0.697103 0.842169
vt 0.693718 0.847275
vt 0.692999 0.842169
vt 0.686154 0.847275
vt 0.685891 0.842169
vt 0.677420 0.847275
vt 0.677683 0.842169
vt 0.669857 0.847275
vt 0.670575 0.842169
vt 0.665490 0.847275
vt 0.666471 0.842169
vt 0.665490 0.847275
vt 0.666471 0.842169
vt 0.669857 0.847275
vt 0.670575 0.842169
vt 0.677420 0.847275
vt 0.677683 0.842169
vt 0.686154 0.847275
vt 0.685891 0.842169
vt 0.695335 0.870558
vt 0.686746 0.870558
vt 0.686011 0.870558
vt 0.693327 0.870558
vt 0.686746 0.870558
vt 0.695335 0.870558
vt 0.693327 0.870558
vt 0.686011 0.870558
vt 0.676829 0.870558
vt 0.677564 0.870558
vt 0.668239 0.870558
vt 0.670248 0.870558
vt 0.663281 0.870558
vt 0.666024 0.870558
vt 0.663281 0.870558
vt 0.666024 0.870558
vt 0.668239 0.870558
vt 0.670248 0.870558
vt 0.676829 0.870558
vt 0.677564 0.870558
vt 0.700932 0.854295
vt 0.700932 0.848551
vt 0.697551 0.870558
vt 0.700294 0.870558
vt 0.681787 0.817301
vt 0.696913 0.817301
vt 0.692860 0.817301
vt 0.696913 0.817301
vt 0.692860 0.817301
vt 0.685840 0.817301
vt 0.677734 0.817301
vt 0.670715 0.817301
vt 0.666662 0.817301
vt 0.666662 0.817301
vt 0.670715 0.817301
vt 0.677734 0.817301
vt 0.685840 0.817301
vt 0.700294 0.870558
vt 0.697551 0.870558
vt 0.696913 0.854295
vt 0.696913 0.854295
vt 0.696913 0.848551
vt 0.696913 0.848551
vt 0.692860 0.854295
vt 0.692860 0.848551
vt 0.685840 0.854295
vt 0.685840 0.848551
vt 0.677734 0.854295
vt 0.677734 0.848551
vt 0.670715 0.854295
vt 0.670715 0.848551
vt 0.666662 0.854295
vt 0.666662 0.848551
vt 0.666662 0.854295
vt 0.666662 0.848551
vt 0.670715 0.854295
vt 0.670715 0.848551
vt 0.677734 0.854295
vt 0.677734 0.848551
vt 0.681787 0.810919
vt 0.692999 0.810919
vt 0.697103 0.810919
vt 0.697103 0.810919
vt 0.692999 0.810919
vt 0.685891 0.810919
vt 0.677683 0.810919
vt 0.670575 0.810919
vt 0.666471 0.810919
vt 0.666471 0.810919
vt 0.670575 0.810919
vt 0.677683 0.810919
vt 0.685891 0.810919
vt 0.700932 0.885545
vt 0.695803 0.885545
vt 0.695335 0.886183
vt 0.700294 0.886183
vt 0.700932 0.885545
vt 0.700294 0.886183
vt 0.695803 0.885545
vt 0.695335 0.886183
vt 0.686917 0.885545
vt 0.686746 0.886183
vt 0.676658 0.885545
vt 0.676829 0.886183
vt 0.667772 0.885545
vt 0.668239 0.886183
vt 0.662642 0.885545
vt 0.663281 0.886183
vt 0.662642 0.885545
vt 0.663281 0.886183
vt 0.667772 0.885545
vt 0.668239 0.886183
vt 0.676658 0.885545
vt 0.676829 0.886183
vt 0.686917 0.885545
vt 0.686746 0.886183
vt 0.692860 0.885545
vt 0.696913 0.885545
vt 0.697551 0.886183
vt 0.693327 0.886183
vt 0.696913 0.885545
vt 0.697551 0.886183
vt 0.692860 0.885545
vt 0.693327 0.886183
vt 0.685840 0.885545
vt 0.686011 0.886183
vt 0.677734 0.885545
vt 0.677564 0.886183
vt 0.670715 0.885545
vt 0.670248 0.886183
vt 0.666662 0.885545
vt 0.666024 0.886183
vt 0.666662 0.885545
vt 0.666024 0.886183
vt 0.670715 0.885545
vt 0.670248 0.886183
vt 0.677734 0.885545
vt 0.677564 0.886183
vt 0.685840 0.885545
vt 0.686011 0.886183
vn 0.2588 0.0000 -0.9659
vn 0.2405 0.3692 -0.8977
vn 0.6571 0.3692 -0.6571
vn 0.7071 0.0000 -0.7071
vn 0.9659 -0.0000 0.2588
vn 0.8977 0.3692 0.2405
vn 0.6571 0.3692 0.6571
vn 0.7071 -0.0000 0.7071
vn 0.2588 -0.0000 0.9659
vn 0.2405 0.3692 0.8977
vn -0.2405 0.3692 0.8977
vn -0.2588 -0.0000 0.9659
vn -0.6571 0.3692 0.6571
vn -0.7071 -0.0000 0.7071
vn -0.8977 0.3692 0.2405
vn -0.9659 0.0000 0.2588
vn -0.8977 0.3692 -0.2405
vn -0.9659 0.0000 -0.2588
vn -0.6571 0.3692 -0.6571
vn -0.7071 0.0000 -0.7071
vn -0.2405 0.3692 -0.8977
vn -0.2588 0.0000 -0.9659
vn -0.6430 0.4159 0.6430
vn -0.2354 0.4159 0.8784
vn 0.1028 -0.9177 -0.3838
vn 0.2810 -0.9177 -0.2810
vn -0.1028 -0.9177 -0.3838
vn -0.2810 -0.9177 -0.2810
vn -0.3838 -0.9177 -0.1028
vn -0.3838 -0.9177 0.1028
vn -0.2810 -0.9177 0.2810
vn -0.1028 -0.9177 0.3838
vn 0.1028 -0.9177 0.3838
vn 0.2810 -0.9177 0.2810
vn 0.3838 -0.9177 0.1028
vn 0.3838 -0.9177 -0.1028
vn 0.6935 -0.1952 -0.6935
vn 0.9473 -0.1952 -0.2538
vn 0.9473 -0.1952 0.2538
vn 0.6935 -0.1952 0.6935
vn 0.2538 -0.1952 0.9473
vn -0.2538 -0.1952 0.9473
vn -0.6935 -0.1952 0.6935
vn -0.9473 -0.1952 0.2538
vn -0.9473 -0.1952 -0.2538
vn -0.6935 -0.1952 -0.6935
vn -0.2538 -0.1952 -0.9473
vn 0.2538 -0.1952 -0.9473
vn 0.3010 0.9049 -0.3010
vn 0.1102 0.9049 -0.4112
vn -0.0825 0.9479 0.3078
vn -0.2253 0.9479 0.2253
vn 0.1102 0.9049 0.4112
vn 0.3010 0.9049 0.3010
vn -0.2253 0.9479 -0.2253
vn -0.0825 0.9479 -0.3078
vn -0.1102 0.9049 0.4112
vn 0.0825 0.9479 -0.3078
vn -0.3010 0.9049 0.3010
vn 0.2253 0.9479 -0.2253
vn -0.4112 0.9049 0.1102
vn 0.3078 0.9479 -0.0825
vn -0.4112 0.9049 -0.1102
vn 0.3078 0.9479 0.0825
vn -0.3010 0.9049 -0.3010
vn 0.2253 0.9479 0.2253
vn -0.1102 0.9049 -0.4112
vn 0.0825 0.9479 0.3078
vn 0.8977 0.3692 -0.2405
vn 0.9659 0.0000 -0.2588
vn -0.3078 0.9479 0.0825
vn 0.4112 0.9049 -0.1102
vn -0.0000 1.0000 0.0000
vn 0.4112 0.9049 0.1102
vn -0.3078 0.9479 -0.0825
vn -0.8784 0.4159 -0.2354
vn -0.8784 0.4159 0.2354
vn -0.6430 0.4159 -0.6430
vn -0.2354 0.4159 -0.8784
vn 0.2354 0.4159 -0.8784
vn 0.6430 0.4159 -0.6430
vn 0.8784 0.4159 -0.2354
vn 0.8784 0.4159 0.2354
vn 0.6430 0.4159 0.6430
vn 0.2354 0.4159 0.8784
vn 0.0000 -1.0000 -0.0000
usemtl tiny_treats_1
s 1
f 13/1/1 98/2/2 77/3/3 2/4/4
f 4/5/5 80/6/6 82/7/7 5/8/8
f 6/9/9 84/10/10 86/11/11 7/12/12
f 7/12/12 86/11/11 88/13/13 8/14/14
f 8/14/14 88/13/13 90/15/15 9/16/16
f 9/16/16 90/15/15 92/17/17 10/18/18
f 10/18/18 92/17/17 94/19/19 11/20/20
f 11/20/20 94/19/19 96/21/21 12/22/22
f 12/22/22 96/21/21 98/2/2 13/1/1
f 52/23/23 73/24/24 38/25/12 28/26/14
f 5/8/8 82/7/7 84/10/10 6/9/9
f 24/27/25 13/28/25 2/29/26 25/30/26
f 23/31/27 12/32/27 13/28/25 24/27/25
f 22/33/28 11/34/28 12/32/27 23/31/27
f 21/35/29 10/36/29 11/34/28 22/33/28
f 20/37/30 9/38/30 10/36/29 21/35/29
f 19/39/31 8/40/31 9/38/30 20/37/30
f 18/41/32 7/42/32 8/40/31 19/39/31
f 17/43/33 6/44/33 7/42/32 18/41/32
f 16/45/34 5/46/34 6/44/33 17/43/33
f 15/47/35 4/48/35 5/46/34 16/45/34
f 14/49/36 3/50/36 4/48/35 15/47/35
f 25/30/26 2/29/26 3/50/36 14/49/36
f 39/51/37 25/52/37 14/53/38 40/54/38
f 40/54/38 14/53/38 15/55/39 41/56/39
f 41/56/39 15/55/39 16/57/40 42/58/40
f 42/58/40 16/57/40 17/59/41 43/60/41
f 43/60/41 17/59/41 18/61/42 44/62/42
f 44/62/42 18/61/42 19/63/43 45/64/43
f 45/64/43 19/63/43 20/65/44 46/66/44
f 46/66/44 20/65/44 21/67/45 47/68/45
f 47/68/45 21/67/45 22/69/46 48/70/46
f 48/70/46 22/69/46 23/71/47 49/72/47
f 49/72/47 23/71/47 24/73/48 50/74/48
f 50/74/48 24/73/48 25/52/37 39/51/37
f 78/75/49 97/76/50 74/77/51 51/78/52
f 83/79/53 81/80/54 58/81/55 60/82/56
f 85/83/57 83/79/53 60/82/56 62/84/58
f 87/85/59 85/83/57 62/84/58 64/86/60
f 89/87/61 87/85/59 64/86/60 66/88/62
f 91/89/63 89/87/61 66/88/62 68/90/64
f 93/91/65 91/89/63 68/90/64 70/92/66
f 95/93/67 93/91/65 70/92/66 72/94/68
f 97/76/50 95/93/67 72/94/68 74/77/51
f 2/4/4 77/3/3 76/95/69 3/96/70
f 3/96/70 76/95/69 80/6/6 4/5/5
f 54/97/71 75/98/72 78/75/49 51/78/52
f 26/99/73 27/100/73 28/101/73
f 26/99/73 29/102/73 27/100/73
f 26/99/73 30/103/73 29/102/73
f 26/99/73 31/104/73 30/103/73
f 26/99/73 32/105/73 31/104/73
f 26/99/73 33/106/73 32/105/73
f 26/99/73 34/107/73 33/106/73
f 26/99/73 35/108/73 34/107/73
f 26/99/73 36/109/73 35/108/73
f 26/99/73 37/110/73 36/109/73
f 26/99/73 38/111/73 37/110/73
f 26/99/73 28/101/73 38/111/73
f 81/80/54 79/112/74 56/113/75 58/81/55
f 55/114/76 53/115/77 27/116/16 29/117/18
f 57/118/78 55/114/76 29/117/18 30/119/20
f 59/120/79 57/118/78 30/119/20 31/121/22
f 61/122/80 59/120/79 31/121/22 32/123/1
f 63/124/81 61/122/80 32/123/1 33/125/4
f 65/126/82 63/124/81 33/125/4 34/127/70
f 67/128/83 65/126/82 34/127/70 35/129/5
f 69/130/84 67/128/83 35/129/5 36/131/8
f 71/132/85 69/130/84 36/131/8 37/133/9
f 73/24/24 71/132/85 37/133/9 38/25/12
f 79/112/74 75/98/72 54/97/71 56/113/75
f 1/134/86 39/135/86 40/136/86
f 1/134/86 40/136/86 41/137/86
f 1/134/86 41/137/86 42/138/86
f 1/134/86 42/138/86 43/139/86
f 1/134/86 43/139/86 44/140/86
f 1/134/86 44/140/86 45/141/86
f 1/134/86 45/141/86 46/142/86
f 1/134/86 46/142/86 47/143/86
f 1/134/86 47/143/86 48/144/86
f 1/134/86 48/144/86 49/145/86
f 1/134/86 49/145/86 50/146/86
f 1/134/86 50/146/86 39/135/86
f 76/147/69 77/148/3 78/149/49 75/150/72
f 80/151/6 76/147/69 75/150/72 79/152/74
f 82/153/7 80/151/6 79/152/74 81/154/54
f 84/155/10 82/153/7 81/154/54 83/156/53
f 86/157/11 84/155/10 83/156/53 85/158/57
f 88/159/13 86/157/11 85/158/57 87/160/59
f 90/161/15 88/159/13 87/160/59 89/162/61
f 92/163/17 90/161/15 89/162/61 91/164/63
f 94/165/19 92/163/17 91/164/63 93/166/65
f 96/167/21 94/165/19 93/166/65 95/168/67
f 98/169/2 96/167/21 95/168/67 97/170/50
f 77/148/3 98/169/2 97/170/50 78/149/49
f 52/171/23 53/172/77 54/173/71 51/174/52
f 53/172/77 55/175/76 56/176/75 54/173/71
f 55/175/76 57/177/78 58/178/55 56/176/75
f 57/177/78 59/179/79 60/180/56 58/178/55
f 59/179/79 61/181/80 62/182/58 60/180/56
f 61/181/80 63/183/81 64/184/60 62/182/58
f 63/183/81 65/185/82 66/186/62 64/184/60
f 65/185/82 67/187/83 68/188/64 66/186/62
f 67/187/83 69/189/84 70/190/66 68/188/64
f 69/189/84 71/191/85 72/192/68 70/190/66
f 71/191/85 73/193/24 74/194/51 72/192/68
f 73/193/24 52/171/23 51/174/52 74/194/51
f 53/115/77 52/23/23 28/26/14 27/116/16
