# Blender v3.4.1 OBJ File: 'Tiny_Treats_House_Plants_ASSETS_EXPORT.blend'
# www.blender.org
mtllib saucer_A_large.mtl
o saucer_A_large
v 0.149184 0.150285 -0.750000
v 0.424841 0.150285 -0.635819
v 0.635819 0.150285 -0.424841
v 0.750000 0.150285 -0.149184
v 0.750000 0.150285 0.149184
v 0.635819 0.150285 0.424841
v 0.424841 0.150285 0.635819
v 0.149184 0.150285 0.750000
v -0.149184 0.150285 0.750000
v -0.424841 0.150285 0.635819
v -0.635819 0.150285 0.424841
v -0.750000 0.150285 0.149184
v -0.750000 0.150285 -0.149184
v -0.635819 0.150285 -0.424841
v -0.424841 0.150285 -0.635819
v -0.149184 0.150285 -0.750000
v -0.000000 0.000570 -0.000000
v 0.382357 0.120228 -0.572237
v 0.572237 0.120228 -0.382357
v 0.675000 0.120228 -0.134266
v 0.675000 0.120228 0.134266
v 0.572237 0.120228 0.382357
v 0.382357 0.120228 0.572237
v 0.134266 0.120228 0.675000
v -0.134266 0.120228 0.675000
v -0.382357 0.120228 0.572237
v -0.572237 0.120228 0.382357
v -0.675000 0.120228 0.134266
v -0.675000 0.120228 -0.134266
v -0.572237 0.120228 -0.382357
v -0.382357 0.120228 -0.572237
v -0.134266 0.120228 -0.675000
v 0.134266 0.120228 -0.675000
v -0.000000 0.200000 -0.000000
v 0.343796 0.200000 -0.514528
v 0.120725 0.200000 -0.606927
v 0.514527 0.200000 -0.343796
v 0.606927 0.200000 -0.120725
v 0.606927 0.200000 0.120725
v 0.514528 0.200000 0.343796
v 0.343796 0.200000 0.514527
v 0.120725 0.200000 0.606927
v -0.120725 0.200000 0.606927
v -0.343796 0.200000 0.514527
v -0.514527 0.200000 0.343796
v -0.606927 0.200000 0.120725
v -0.606927 0.200000 -0.120725
v -0.514527 0.200000 -0.343796
v -0.343796 0.200000 -0.514528
v -0.120725 0.200000 -0.606927
v 0.123283 0.000570 -0.619784
v 0.351079 0.000570 -0.525427
v 0.525427 0.000570 -0.351079
v 0.619784 0.000570 -0.123283
v 0.619784 0.000570 0.123283
v 0.525427 0.000570 0.351079
v 0.351079 0.000570 0.525427
v 0.123283 0.000570 0.619783
v -0.123283 0.000570 0.619783
v -0.351079 0.000570 0.525427
v -0.525427 0.000570 0.351079
v -0.619784 0.000570 0.123283
v -0.619784 0.000570 -0.123283
v -0.525427 0.000570 -0.351079
v -0.351079 0.000570 -0.525427
v -0.123283 0.000570 -0.619784
v 0.130809 0.300000 -0.657619
v 0.125663 0.280880 -0.631751
v 0.357858 0.280880 -0.535573
v 0.372511 0.300000 -0.557503
v 0.535573 0.280880 -0.357858
v 0.557503 0.300000 -0.372511
v 0.631751 0.280880 -0.125663
v 0.657619 0.300000 -0.130809
v 0.631751 0.280880 0.125663
v 0.657619 0.300000 0.130809
v 0.535573 0.280880 0.357858
v 0.557503 0.300000 0.372511
v 0.357858 0.280880 0.535573
v 0.372511 0.300000 0.557503
v 0.125663 0.280880 0.631751
v 0.130809 0.300000 0.657619
v -0.125663 0.280880 0.631751
v -0.130809 0.300000 0.657619
v -0.357858 0.280880 0.535573
v -0.372511 0.300000 0.557503
v -0.535573 0.280880 0.357858
v -0.557503 0.300000 0.372511
v -0.631751 0.280880 0.125663
v -0.657619 0.300000 0.130809
v -0.631751 0.280880 -0.125663
v -0.657619 0.300000 -0.130809
v -0.535573 0.280880 -0.357858
v -0.557503 0.300000 -0.372512
v -0.357858 0.280880 -0.535573
v -0.372512 0.300000 -0.557503
v -0.125663 0.280880 -0.631751
v -0.130809 0.300000 -0.657619
v 0.413512 0.300000 -0.618864
v 0.424841 0.280000 -0.635819
v 0.149184 0.280000 -0.750000
v 0.145206 0.300000 -0.730000
v 0.618864 0.300000 -0.413512
v 0.635819 0.280000 -0.424841
v 0.730000 0.300000 -0.145206
v 0.750000 0.280000 -0.149184
v 0.730000 0.300000 0.145206
v 0.750000 0.280000 0.149184
v 0.618864 0.300000 0.413512
v 0.635819 0.280000 0.424841
v 0.413512 0.300000 0.618864
v 0.424841 0.280000 0.635819
v 0.145206 0.300000 0.730000
v 0.149184 0.280000 0.750000
v -0.145206 0.300000 0.730000
v -0.149184 0.280000 0.750000
v -0.413512 0.300000 0.618864
v -0.424841 0.280000 0.635819
v -0.618864 0.300000 0.413512
v -0.635819 0.280000 0.424841
v -0.730000 0.300000 0.145206
v -0.750000 0.280000 0.149184
v -0.730000 0.300000 -0.145206
v -0.750000 0.280000 -0.149184
v -0.618864 0.300000 -0.413512
v -0.635819 0.280000 -0.424841
v -0.413512 0.300000 -0.618864
v -0.424841 0.280000 -0.635819
v -0.145206 0.300000 -0.730000
v -0.149184 0.280000 -0.750000
vt 0.679552 0.851760
vt 0.679552 0.860038
vt 0.698593 0.860038
vt 0.698593 0.851760
vt 0.729648 0.851760
vt 0.729648 0.860038
vt 0.736935 0.860038
vt 0.736935 0.851760
vt 0.736935 0.851760
vt 0.736935 0.860038
vt 0.729648 0.860038
vt 0.729648 0.851760
vt 0.716184 0.860038
vt 0.716184 0.851760
vt 0.698593 0.860038
vt 0.698593 0.851760
vt 0.679552 0.860038
vt 0.679552 0.851760
vt 0.661961 0.860038
vt 0.661961 0.851760
vt 0.648497 0.860038
vt 0.648497 0.851760
vt 0.641210 0.860038
vt 0.641210 0.851760
vt 0.641210 0.860038
vt 0.641210 0.851760
vt 0.648497 0.860038
vt 0.648497 0.851760
vt 0.661961 0.860038
vt 0.661961 0.851760
vt 0.735659 0.876939
vt 0.735659 0.876939
vt 0.731040 0.876939
vt 0.731040 0.876939
vt 0.736935 0.820510
vt 0.729648 0.820510
vt 0.725591 0.818592
vt 0.732149 0.818592
vt 0.641210 0.820510
vt 0.648497 0.820510
vt 0.652554 0.818592
vt 0.645996 0.818592
vt 0.716184 0.820510
vt 0.713473 0.818592
vt 0.661961 0.820510
vt 0.664672 0.818592
vt 0.698593 0.820510
vt 0.697641 0.818592
vt 0.679552 0.820510
vt 0.680504 0.818592
vt 0.679552 0.820510
vt 0.680504 0.818592
vt 0.698593 0.820510
vt 0.716184 0.820510
vt 0.713473 0.818592
vt 0.697641 0.818592
vt 0.661961 0.820510
vt 0.664672 0.818592
vt 0.729648 0.820510
vt 0.725591 0.818592
vt 0.648497 0.820510
vt 0.652554 0.818592
vt 0.736935 0.820510
vt 0.732149 0.818592
vt 0.641210 0.820510
vt 0.645996 0.818592
vt 0.722604 0.842206
vt 0.711477 0.842206
vt 0.713473 0.849842
vt 0.725591 0.849842
vt 0.689073 0.810956
vt 0.666668 0.810956
vt 0.681205 0.810956
vt 0.655542 0.810956
vt 0.649520 0.810956
vt 0.649520 0.810956
vt 0.655542 0.810956
vt 0.666668 0.810956
vt 0.681205 0.810956
vt 0.696940 0.810956
vt 0.711477 0.810956
vt 0.722604 0.810956
vt 0.728625 0.810956
vt 0.728625 0.810956
vt 0.722604 0.810956
vt 0.711477 0.810956
vt 0.696940 0.810956
vt 0.728566 0.876939
vt 0.715461 0.876939
vt 0.712845 0.876939
vt 0.724651 0.876939
vt 0.728566 0.876939
vt 0.724651 0.876939
vt 0.715461 0.876939
vt 0.712845 0.876939
vt 0.698339 0.876939
vt 0.697420 0.876939
vt 0.679806 0.876939
vt 0.680725 0.876939
vt 0.662684 0.876939
vt 0.665300 0.876939
vt 0.649579 0.876939
vt 0.653495 0.876939
vt 0.642486 0.876939
vt 0.647105 0.876939
vt 0.642486 0.876939
vt 0.647105 0.876939
vt 0.649579 0.876939
vt 0.653495 0.876939
vt 0.662684 0.876939
vt 0.665300 0.876939
vt 0.679806 0.876939
vt 0.680725 0.876939
vt 0.716184 0.860038
vt 0.716184 0.851760
vt 0.697092 0.860094
vt 0.681053 0.860094
vt 0.681368 0.854933
vt 0.696777 0.854933
vt 0.689073 0.823683
vt 0.711012 0.823683
vt 0.696777 0.823683
vt 0.721908 0.823683
vt 0.727805 0.823683
vt 0.727805 0.823683
vt 0.721908 0.823683
vt 0.711012 0.823683
vt 0.696777 0.823683
vt 0.681368 0.823683
vt 0.667133 0.823683
vt 0.656237 0.823683
vt 0.650341 0.823683
vt 0.650341 0.823683
vt 0.656237 0.823683
vt 0.667133 0.823683
vt 0.681368 0.823683
vt 0.728625 0.842206
vt 0.728625 0.842206
vt 0.732149 0.849842
vt 0.732149 0.849842
vt 0.722604 0.842206
vt 0.725591 0.849842
vt 0.711477 0.842206
vt 0.713473 0.849842
vt 0.696940 0.842206
vt 0.697641 0.849842
vt 0.681205 0.842206
vt 0.680504 0.849842
vt 0.666668 0.842206
vt 0.664672 0.849842
vt 0.655542 0.842206
vt 0.652554 0.849842
vt 0.649520 0.842206
vt 0.645996 0.849842
vt 0.649520 0.842206
vt 0.645996 0.849842
vt 0.655542 0.842206
vt 0.652554 0.849842
vt 0.666668 0.842206
vt 0.664672 0.849842
vt 0.681205 0.842206
vt 0.680504 0.849842
vt 0.696940 0.842206
vt 0.697641 0.849842
vt 0.723251 0.860094
vt 0.711910 0.860094
vt 0.711012 0.854933
vt 0.721908 0.854933
vt 0.729389 0.860094
vt 0.727805 0.854933
vt 0.729389 0.860094
vt 0.727805 0.854933
vt 0.723251 0.860094
vt 0.721908 0.854933
vt 0.711910 0.860094
vt 0.711012 0.854933
vt 0.697092 0.860094
vt 0.696777 0.854933
vt 0.681053 0.860094
vt 0.681368 0.854933
vt 0.666235 0.860094
vt 0.667133 0.854933
vt 0.654894 0.860094
vt 0.656237 0.854933
vt 0.648756 0.860094
vt 0.650341 0.854933
vt 0.648756 0.860094
vt 0.650341 0.854933
vt 0.654894 0.860094
vt 0.656237 0.854933
vt 0.666235 0.860094
vt 0.667133 0.854933
vt 0.698339 0.876939
vt 0.697420 0.876939
vt 0.716184 0.891288
vt 0.698593 0.891288
vt 0.698339 0.892564
vt 0.715461 0.892564
vt 0.729648 0.891288
vt 0.728566 0.892564
vt 0.736935 0.891288
vt 0.735659 0.892564
vt 0.736935 0.891288
vt 0.735659 0.892564
vt 0.729648 0.891288
vt 0.728566 0.892564
vt 0.716184 0.891288
vt 0.715461 0.892564
vt 0.698593 0.891288
vt 0.698339 0.892564
vt 0.679552 0.891288
vt 0.679806 0.892564
vt 0.661961 0.891288
vt 0.662684 0.892564
vt 0.648497 0.891288
vt 0.649579 0.892564
vt 0.641210 0.891288
vt 0.642486 0.892564
vt 0.641210 0.891288
vt 0.642486 0.892564
vt 0.648497 0.891288
vt 0.649579 0.892564
vt 0.661961 0.891288
vt 0.662684 0.892564
vt 0.679552 0.891288
vt 0.679806 0.892564
vt 0.697092 0.891344
vt 0.711910 0.891344
vt 0.712845 0.892564
vt 0.697420 0.892564
vt 0.723251 0.891344
vt 0.724651 0.892564
vt 0.729389 0.891344
vt 0.731040 0.892564
vt 0.729389 0.891344
vt 0.731040 0.892564
vt 0.723251 0.891344
vt 0.724651 0.892564
vt 0.711910 0.891344
vt 0.712845 0.892564
vt 0.697092 0.891344
vt 0.697420 0.892564
vt 0.681053 0.891344
vt 0.680725 0.892564
vt 0.666235 0.891344
vt 0.665300 0.892564
vt 0.654894 0.891344
vt 0.653495 0.892564
vt 0.648756 0.891344
vt 0.647105 0.892564
vt 0.648756 0.891344
vt 0.647105 0.892564
vt 0.654894 0.891344
vt 0.653495 0.892564
vt 0.666235 0.891344
vt 0.665300 0.892564
vt 0.681053 0.891344
vt 0.680725 0.892564
vn -0.1951 0.0000 -0.9808
vn -0.1812 0.3710 -0.9108
vn 0.1812 0.3710 -0.9108
vn 0.1951 0.0000 -0.9808
vn 0.8315 0.0000 -0.5556
vn 0.7721 0.3710 -0.5159
vn 0.9108 0.3710 -0.1812
vn 0.9808 0.0000 -0.1951
vn 0.9808 0.0000 0.1951
vn 0.9108 0.3710 0.1812
vn 0.7721 0.3710 0.5159
vn 0.8315 -0.0000 0.5556
vn 0.5159 0.3710 0.7721
vn 0.5556 -0.0000 0.8315
vn 0.1812 0.3710 0.9108
vn 0.1951 -0.0000 0.9808
vn -0.1812 0.3710 0.9108
vn -0.1951 -0.0000 0.9808
vn -0.5159 0.3710 0.7721
vn -0.5556 -0.0000 0.8315
vn -0.7721 0.3710 0.5159
vn -0.8315 0.0000 0.5556
vn -0.9108 0.3710 0.1812
vn -0.9808 0.0000 0.1951
vn -0.9108 0.3710 -0.1812
vn -0.9808 0.0000 -0.1951
vn -0.7721 0.3710 -0.5159
vn -0.8315 0.0000 -0.5556
vn -0.5159 0.3710 -0.7721
vn -0.5556 0.0000 -0.8315
vn 0.4092 0.9088 0.0814
vn 0.4092 0.9088 -0.0814
vn -0.2676 0.9621 0.0532
vn -0.2676 0.9621 -0.0532
vn 0.3588 -0.9307 0.0714
vn 0.3042 -0.9307 0.2032
vn 0.5467 -0.7534 0.3653
vn 0.6449 -0.7534 0.1283
vn -0.3588 -0.9307 -0.0714
vn -0.3042 -0.9307 -0.2032
vn -0.5467 -0.7534 -0.3653
vn -0.6449 -0.7534 -0.1283
vn 0.2032 -0.9307 0.3042
vn 0.3653 -0.7534 0.5467
vn -0.2032 -0.9307 -0.3042
vn -0.3653 -0.7534 -0.5467
vn 0.0714 -0.9307 0.3588
vn 0.1283 -0.7534 0.6449
vn -0.0714 -0.9307 -0.3588
vn -0.1283 -0.7534 -0.6449
vn -0.0714 -0.9307 0.3588
vn -0.1283 -0.7534 0.6449
vn 0.0714 -0.9307 -0.3588
vn 0.2032 -0.9307 -0.3042
vn 0.3653 -0.7534 -0.5467
vn 0.1283 -0.7534 -0.6449
vn -0.2032 -0.9307 0.3042
vn -0.3653 -0.7534 0.5467
vn 0.3042 -0.9307 -0.2032
vn 0.5467 -0.7534 -0.3653
vn -0.3042 -0.9307 0.2032
vn -0.5467 -0.7534 0.3653
vn 0.3588 -0.9307 -0.0714
vn 0.6449 -0.7534 -0.1283
vn -0.3588 -0.9307 0.0714
vn -0.6449 -0.7534 0.1283
vn 0.7524 -0.4257 -0.5027
vn 0.5027 -0.4257 -0.7524
vn -0.0000 -1.0000 -0.0000
vn 0.3469 0.9088 -0.2318
vn 0.2318 0.9088 -0.3469
vn -0.1516 0.9621 0.2269
vn -0.2269 0.9621 0.1516
vn 0.3469 0.9088 0.2318
vn -0.2269 0.9621 -0.1516
vn 0.2318 0.9088 0.3469
vn -0.1516 0.9621 -0.2269
vn 0.0814 0.9088 0.4092
vn -0.0532 0.9621 -0.2676
vn -0.0814 0.9088 0.4092
vn 0.0532 0.9621 -0.2676
vn -0.2318 0.9088 0.3469
vn 0.1516 0.9621 -0.2269
vn -0.3469 0.9088 0.2318
vn 0.2269 0.9621 -0.1516
vn -0.4092 0.9088 0.0814
vn 0.2676 0.9621 -0.0532
vn -0.4092 0.9088 -0.0814
vn 0.2676 0.9621 0.0532
vn -0.3469 0.9088 -0.2318
vn 0.2269 0.9621 0.1516
vn -0.2318 0.9088 -0.3469
vn 0.1516 0.9621 0.2269
vn -0.0814 0.9088 -0.4092
vn 0.0532 0.9621 0.2676
vn 0.5159 0.3710 -0.7721
vn 0.5556 0.0000 -0.8315
vn -0.1556 0.6031 0.7823
vn 0.1556 0.6031 0.7823
vn 0.1862 0.2987 0.9360
vn -0.1862 0.2987 0.9360
vn -0.0000 1.0000 0.0000
vn 0.8875 -0.4257 0.1765
vn 0.8875 -0.4257 -0.1765
vn 0.7524 -0.4257 0.5027
vn 0.5027 -0.4257 0.7524
vn 0.1765 -0.4257 0.8875
vn -0.1765 -0.4257 0.8875
vn -0.5027 -0.4257 0.7524
vn -0.7524 -0.4257 0.5027
vn -0.8875 -0.4257 0.1765
vn -0.8875 -0.4257 -0.1765
vn -0.7524 -0.4257 -0.5027
vn -0.5027 -0.4257 -0.7524
vn -0.1765 -0.4257 -0.8875
vn 0.1765 -0.4257 -0.8875
vn -0.6632 0.6031 0.4432
vn -0.4432 0.6031 0.6632
vn -0.5302 0.2987 0.7935
vn -0.7935 0.2987 0.5302
vn -0.7823 0.6031 0.1556
vn -0.9360 0.2987 0.1862
vn -0.7823 0.6031 -0.1556
vn -0.9360 0.2987 -0.1862
vn -0.6632 0.6031 -0.4432
vn -0.7935 0.2987 -0.5302
vn -0.4432 0.6031 -0.6632
vn -0.5302 0.2987 -0.7935
vn -0.1556 0.6031 -0.7823
vn -0.1862 0.2987 -0.9360
vn 0.1556 0.6031 -0.7823
vn 0.1862 0.2987 -0.9360
vn 0.4432 0.6031 -0.6632
vn 0.5302 0.2987 -0.7935
vn 0.6632 0.6031 -0.4432
vn 0.7935 0.2987 -0.5302
vn 0.7823 0.6031 -0.1556
vn 0.9360 0.2987 -0.1862
vn 0.7823 0.6031 0.1556
vn 0.9360 0.2987 0.1862
vn 0.6632 0.6031 0.4432
vn 0.7935 0.2987 0.5302
vn 0.4432 0.6031 0.6632
vn 0.5302 0.2987 0.7935
vn 0.0814 0.9088 -0.4092
vn -0.0532 0.9621 0.2676
usemtl tiny_treats_1
s 1
f 16/1/1 130/2/2 101/3/3 1/4/4
f 3/5/5 104/6/6 106/7/7 4/8/8
f 5/9/9 108/10/10 110/11/11 6/12/12
f 6/12/12 110/11/11 112/13/13 7/14/14
f 7/14/14 112/13/13 114/15/15 8/16/16
f 8/16/16 114/15/15 116/17/17 9/18/18
f 9/18/18 116/17/17 118/19/19 10/20/20
f 10/20/20 118/19/19 120/21/21 11/22/22
f 11/22/22 120/21/21 122/23/23 12/24/24
f 12/24/24 122/23/23 124/25/25 13/26/26
f 13/26/26 124/25/25 126/27/27 14/28/28
f 14/28/28 126/27/27 128/29/29 15/30/30
f 15/30/30 128/29/29 130/2/2 16/1/1
f 107/31/31 105/32/32 74/33/33 76/34/34
f 4/8/8 106/7/7 108/10/10 5/9/9
f 5/35/35 6/36/36 22/37/37 21/38/38
f 13/39/39 14/40/40 30/41/41 29/42/42
f 6/36/36 7/43/43 23/44/44 22/37/37
f 14/40/40 15/45/45 31/46/46 30/41/41
f 7/43/43 8/47/47 24/48/48 23/44/44
f 15/45/45 16/49/49 32/50/50 31/46/46
f 8/47/47 9/51/51 25/52/52 24/48/48
f 1/53/53 2/54/54 18/55/55 33/56/56
f 16/49/49 1/53/53 33/56/56 32/50/50
f 9/51/51 10/57/57 26/58/58 25/52/52
f 2/54/54 3/59/59 19/60/60 18/55/55
f 10/57/57 11/61/61 27/62/62 26/58/58
f 3/59/59 4/63/63 20/64/64 19/60/60
f 11/61/61 12/65/65 28/66/66 27/62/62
f 4/63/63 5/35/35 21/38/38 20/64/64
f 12/65/65 13/39/39 29/42/42 28/66/66
f 53/67/67 52/68/68 18/69/55 19/70/60
f 17/71/69 65/72/69 66/73/69
f 17/71/69 64/74/69 65/72/69
f 17/71/69 63/75/69 64/74/69
f 17/71/69 62/76/69 63/75/69
f 17/71/69 61/77/69 62/76/69
f 17/71/69 60/78/69 61/77/69
f 17/71/69 59/79/69 60/78/69
f 17/71/69 58/80/69 59/79/69
f 17/71/69 57/81/69 58/80/69
f 17/71/69 56/82/69 57/81/69
f 17/71/69 55/83/69 56/82/69
f 17/71/69 54/84/69 55/83/69
f 17/71/69 53/85/69 54/84/69
f 17/71/69 52/86/69 53/85/69
f 17/71/69 66/73/69 51/87/69
f 103/88/70 99/89/71 70/90/72 72/91/73
f 105/32/32 103/88/70 72/91/73 74/33/33
f 109/92/74 107/31/31 76/34/34 78/93/75
f 111/94/76 109/92/74 78/93/75 80/95/77
f 113/96/78 111/94/76 80/95/77 82/97/79
f 115/98/80 113/96/78 82/97/79 84/99/81
f 117/100/82 115/98/80 84/99/81 86/101/83
f 119/102/84 117/100/82 86/101/83 88/103/85
f 121/104/86 119/102/84 88/103/85 90/105/87
f 123/106/88 121/104/86 90/105/87 92/107/89
f 125/108/90 123/106/88 92/107/89 94/109/91
f 127/110/92 125/108/90 94/109/91 96/111/93
f 129/112/94 127/110/92 96/111/93 98/113/95
f 1/4/4 101/3/3 100/114/96 2/115/97
f 2/115/97 100/114/96 104/6/6 3/5/5
f 68/116/98 97/117/99 50/118/100 36/119/101
f 34/120/102 35/121/102 36/122/102
f 34/120/102 37/123/102 35/121/102
f 34/120/102 38/124/102 37/123/102
f 34/120/102 39/125/102 38/124/102
f 34/120/102 40/126/102 39/125/102
f 34/120/102 41/127/102 40/126/102
f 34/120/102 42/128/102 41/127/102
f 34/120/102 43/129/102 42/128/102
f 34/120/102 44/130/102 43/129/102
f 34/120/102 45/131/102 44/130/102
f 34/120/102 46/132/102 45/131/102
f 34/120/102 47/133/102 46/132/102
f 34/120/102 48/134/102 47/133/102
f 34/120/102 49/135/102 48/134/102
f 34/120/102 50/136/102 49/135/102
f 34/120/102 36/122/102 50/136/102
f 55/137/103 54/138/104 20/139/64 21/140/38
f 56/141/105 55/137/103 21/140/38 22/142/37
f 57/143/106 56/141/105 22/142/37 23/144/44
f 58/145/107 57/143/106 23/144/44 24/146/48
f 59/147/108 58/145/107 24/146/48 25/148/52
f 60/149/109 59/147/108 25/148/52 26/150/58
f 61/151/110 60/149/109 26/150/58 27/152/62
f 62/153/111 61/151/110 27/152/62 28/154/66
f 63/155/112 62/153/111 28/154/66 29/156/42
f 64/157/113 63/155/112 29/156/42 30/158/41
f 65/159/114 64/157/113 30/158/41 31/160/46
f 66/161/115 65/159/114 31/160/46 32/162/50
f 51/163/116 66/161/115 32/162/50 33/164/56
f 54/138/104 53/67/67 19/70/60 20/139/64
f 17/71/69 51/87/69 52/86/69
f 71/165/117 69/166/118 35/167/119 37/168/120
f 73/169/121 71/165/117 37/168/120 38/170/122
f 75/171/123 73/169/121 38/170/122 39/172/124
f 77/173/125 75/171/123 39/172/124 40/174/126
f 79/175/127 77/173/125 40/174/126 41/176/128
f 81/177/129 79/175/127 41/176/128 42/178/130
f 83/179/131 81/177/129 42/178/130 43/180/132
f 85/181/133 83/179/131 43/180/132 44/182/134
f 87/183/135 85/181/133 44/182/134 45/184/136
f 89/185/137 87/183/135 45/184/136 46/186/138
f 91/187/139 89/185/137 46/186/138 47/188/140
f 93/189/141 91/187/139 47/188/140 48/190/142
f 95/191/143 93/189/141 48/190/142 49/192/144
f 97/117/99 95/191/143 49/192/144 50/118/100
f 99/89/71 102/193/145 67/194/146 70/90/72
f 102/193/145 129/112/94 98/113/95 67/194/146
f 52/68/68 51/163/116 33/164/56 18/69/55
f 100/195/96 101/196/3 102/197/145 99/198/71
f 104/199/6 100/195/96 99/198/71 103/200/70
f 106/201/7 104/199/6 103/200/70 105/202/32
f 108/203/10 106/201/7 105/202/32 107/204/31
f 110/205/11 108/203/10 107/204/31 109/206/74
f 112/207/13 110/205/11 109/206/74 111/208/76
f 114/209/15 112/207/13 111/208/76 113/210/78
f 116/211/17 114/209/15 113/210/78 115/212/80
f 118/213/19 116/211/17 115/212/80 117/214/82
f 120/215/21 118/213/19 117/214/82 119/216/84
f 122/217/23 120/215/21 119/216/84 121/218/86
f 124/219/25 122/217/23 121/218/86 123/220/88
f 126/221/27 124/219/25 123/220/88 125/222/90
f 128/223/29 126/221/27 125/222/90 127/224/92
f 130/225/2 128/223/29 127/224/92 129/226/94
f 101/196/3 130/225/2 129/226/94 102/197/145
f 68/227/98 69/228/118 70/229/72 67/230/146
f 69/228/118 71/231/117 72/232/73 70/229/72
f 71/231/117 73/233/121 74/234/33 72/232/73
f 73/233/121 75/235/123 76/236/34 74/234/33
f 75/235/123 77/237/125 78/238/75 76/236/34
f 77/237/125 79/239/127 80/240/77 78/238/75
f 79/239/127 81/241/129 82/242/79 80/240/77
f 81/241/129 83/243/131 84/244/81 82/242/79
f 83/243/131 85/245/133 86/246/83 84/244/81
f 85/245/133 87/247/135 88/248/85 86/246/83
f 87/247/135 89/249/137 90/250/87 88/248/85
f 89/249/137 91/251/139 92/252/89 90/250/87
f 91/251/139 93/253/141 94/254/91 92/252/89
f 93/253/141 95/255/143 96/256/93 94/254/91
f 95/255/143 97/257/99 98/258/95 96/256/93
f 97/257/99 68/227/98 67/230/146 98/258/95
f 69/166/118 68/116/98 36/119/101 35/167/119
