# Blender v3.4.1 OBJ File: 'Tiny_Treats_House_Plants_ASSETS_EXPORT.blend'
# www.blender.org
mtllib shovel.mtl
o shovel
v 0.079986 -0.039644 -0.033131
v 0.079986 -0.039644 0.033131
v 0.033131 -0.039644 0.079985
v -0.033131 -0.039644 0.079985
v -0.079985 -0.039644 0.033131
v -0.079985 -0.039644 -0.033131
v -0.033131 -0.039644 -0.079985
v 0.033131 -0.039644 -0.079985
v 0.064980 -0.108509 0.026915
v 0.026916 -0.108509 0.064979
v -0.026915 -0.108509 0.064979
v -0.064979 -0.108509 0.026915
v -0.064979 -0.108509 -0.026916
v -0.026915 -0.108509 -0.064980
v 0.026916 -0.108509 -0.064980
v 0.064980 -0.108509 -0.026916
v 0.064457 0.099099 -0.026699
v 0.064457 0.099099 0.026699
v 0.026699 0.099099 0.064457
v -0.026698 0.099099 0.064457
v -0.064456 0.099099 0.026699
v -0.064456 0.099099 -0.026699
v -0.026698 0.099099 -0.064456
v 0.026699 0.099099 -0.064456
v 0.091027 0.159300 -0.037704
v 0.091027 0.159300 0.037705
v 0.037705 0.159300 0.091027
v -0.037704 0.159300 0.091027
v -0.091026 0.159300 0.037705
v -0.091026 0.159300 -0.037704
v -0.037704 0.159300 -0.091027
v 0.037705 0.159300 -0.091027
v 0.091027 0.129470 0.037705
v 0.037705 0.129470 0.091027
v -0.037704 0.129470 0.091027
v -0.091026 0.129470 0.037705
v -0.091026 0.129470 -0.037704
v -0.037704 0.129470 -0.091027
v 0.037705 0.129470 -0.091027
v 0.091027 0.129470 -0.037704
v 0.080693 0.039644 0.033424
v 0.033424 0.039644 0.080693
v -0.033424 0.039644 0.080693
v -0.080692 0.039644 0.033424
v -0.080692 0.039644 -0.033424
v -0.033424 0.039644 -0.080693
v 0.033424 0.039644 -0.080693
v 0.080693 0.039644 -0.033424
v 0.000000 -0.153509 -0.000000
v 0.008542 -0.153509 -0.020622
v 0.017657 -0.141782 -0.042629
v 0.042629 -0.141782 -0.017658
v 0.020621 -0.153509 -0.008542
v 0.042629 -0.141782 0.017657
v 0.020622 -0.153509 0.008541
v 0.017657 -0.141782 0.042628
v 0.008542 -0.153509 0.020621
v -0.017657 -0.141782 0.042628
v -0.008542 -0.153509 0.020621
v -0.042628 -0.141782 0.017657
v -0.020621 -0.153509 0.008541
v -0.042628 -0.141782 -0.017658
v -0.020621 -0.153509 -0.008542
v -0.008542 -0.153509 -0.020622
v -0.017657 -0.141782 -0.042629
v 0.037312 0.176998 0.015456
v 0.037312 0.176998 -0.015454
v 0.015455 0.176998 0.037312
v -0.015454 0.176998 0.037312
v -0.037311 0.176998 0.015456
v -0.037311 0.176998 -0.015454
v -0.015454 0.176998 -0.037311
v 0.015455 0.176998 -0.037311
v 0.000002 0.526060 -0.088203
v 0.000002 0.605962 -0.069547
v 0.000002 0.244138 -0.102740
v 0.000003 0.420154 -0.104090
v -0.045135 0.243820 -0.004571
v -0.049945 0.420002 -0.014492
v 0.045140 0.243820 -0.004571
v 0.049951 0.420002 -0.014492
v -0.041456 0.405298 0.006677
v 0.041461 0.405298 0.006677
v 0.058545 0.244298 -0.089548
v -0.058540 0.244298 -0.089548
v 0.000002 0.677542 -0.016764
v 0.000002 0.672312 -0.030096
v 0.000003 0.657502 0.014281
v 0.000003 0.670513 0.007396
v -0.152269 0.245024 -0.016911
v -0.147288 0.245022 -0.030712
v -0.071122 0.615610 -0.030063
v -0.077880 0.614962 -0.016850
v 0.071127 0.615610 -0.030063
v 0.077885 0.614962 -0.016850
v 0.147293 0.245022 -0.030712
v 0.152274 0.245024 -0.016911
v -0.131808 0.244693 0.014117
v -0.143956 0.244848 0.007538
v -0.073646 0.609974 0.007489
v -0.066544 0.602410 0.014287
v 0.073652 0.609974 0.007489
v 0.066549 0.602410 0.014287
v 0.143961 0.244848 0.007538
v 0.131813 0.244693 0.014117
v -0.145433 0.496739 -0.029590
v -0.097674 0.579462 -0.029793
v -0.151551 0.498134 -0.016815
v -0.103440 0.580768 -0.016805
v 0.103445 0.580768 -0.016805
v 0.151557 0.498134 -0.016815
v 0.097679 0.579462 -0.029793
v 0.145438 0.496739 -0.029590
v 0.130288 0.498805 0.013935
v 0.083094 0.581343 0.014295
v 0.143159 0.499222 0.007441
v 0.095622 0.581692 0.007443
v -0.095617 0.581692 0.007443
v -0.143153 0.499222 0.007441
v -0.083089 0.581343 0.014295
v -0.130282 0.498805 0.013935
v -0.164357 0.375359 -0.029728
v -0.154386 0.464710 -0.029650
v -0.170472 0.375321 -0.016922
v -0.160814 0.464721 -0.016860
v 0.154391 0.464710 -0.029650
v 0.164362 0.375359 -0.029728
v 0.160819 0.464721 -0.016860
v 0.170478 0.375321 -0.016922
v -0.152142 0.464689 0.007487
v -0.161157 0.375178 0.007548
v -0.138931 0.464669 0.013648
v -0.147935 0.375116 0.013268
v 0.161163 0.375178 0.007548
v 0.152147 0.464689 0.007487
v 0.147941 0.375116 0.013268
v 0.138937 0.464669 0.013648
v -0.021260 0.485221 -0.010382
v 0.021265 0.485221 -0.010382
v 0.000002 0.544813 -0.001952
v 0.000003 0.505245 -0.009120
v 0.020119 0.243746 0.015479
v -0.020114 0.243746 0.015479
v 0.000002 0.243722 0.022156
v 0.022745 0.405292 0.016533
v -0.022740 0.405292 0.016533
v 0.000003 0.405289 0.021493
v -0.022533 0.445729 0.008301
v 0.022539 0.445729 0.008301
v 0.000003 0.465673 0.009102
vt 0.316709 0.445706
vt 0.308290 0.445706
vt 0.302230 0.440890
vt 0.322769 0.440890
vt 0.322662 0.445706
vt 0.322662 0.445706
vt 0.337293 0.440890
vt 0.337293 0.440890
vt 0.302337 0.445706
vt 0.287706 0.440890
vt 0.302337 0.445706
vt 0.287706 0.440890
vt 0.308290 0.445706
vt 0.302230 0.440890
vt 0.316709 0.445706
vt 0.322769 0.440890
vt 0.319830 0.336767
vt 0.321524 0.355506
vt 0.334285 0.355506
vt 0.330198 0.336767
vt 0.305168 0.336767
vt 0.303475 0.355506
vt 0.294801 0.336767
vt 0.290714 0.355506
vt 0.294801 0.336767
vt 0.290714 0.355506
vt 0.305168 0.336767
vt 0.303475 0.355506
vt 0.319830 0.336767
vt 0.321524 0.355506
vt 0.330198 0.336767
vt 0.334285 0.355506
vt 0.321603 0.377081
vt 0.319772 0.393259
vt 0.330056 0.393259
vt 0.334478 0.377081
vt 0.303396 0.377081
vt 0.305227 0.393259
vt 0.290521 0.377081
vt 0.294943 0.393259
vt 0.290521 0.377081
vt 0.294943 0.393259
vt 0.303396 0.377081
vt 0.305227 0.393259
vt 0.321603 0.377081
vt 0.319772 0.393259
vt 0.334478 0.377081
vt 0.330056 0.393259
vt 0.322769 0.401523
vt 0.322769 0.409640
vt 0.337293 0.409640
vt 0.337293 0.401523
vt 0.302230 0.401523
vt 0.302230 0.409640
vt 0.287706 0.401523
vt 0.287706 0.409640
vt 0.287706 0.401523
vt 0.287706 0.409640
vt 0.302230 0.401523
vt 0.302230 0.409640
vt 0.322769 0.401523
vt 0.322769 0.409640
vt 0.337293 0.401523
vt 0.337293 0.409640
vt 0.330056 0.362009
vt 0.337293 0.370273
vt 0.337293 0.370273
vt 0.330056 0.362009
vt 0.322769 0.370273
vt 0.319772 0.362009
vt 0.302230 0.370273
vt 0.305227 0.362009
vt 0.287706 0.370273
vt 0.294943 0.362009
vt 0.287706 0.370273
vt 0.294943 0.362009
vt 0.302230 0.370273
vt 0.305227 0.362009
vt 0.322769 0.370273
vt 0.319772 0.362009
vt 0.310173 0.293272
vt 0.314826 0.293272
vt 0.312499 0.293272
vt 0.318116 0.293272
vt 0.314826 0.293272
vt 0.310173 0.293272
vt 0.306883 0.293272
vt 0.306883 0.293272
vt 0.324110 0.327714
vt 0.317309 0.327714
vt 0.307690 0.327714
vt 0.324110 0.327714
vt 0.317309 0.327714
vt 0.307690 0.327714
vt 0.300889 0.327714
vt 0.300889 0.327714
vt 0.318116 0.293272
vt 0.317309 0.296464
vt 0.324110 0.296464
vt 0.307690 0.296464
vt 0.324110 0.296464
vt 0.317309 0.296464
vt 0.307690 0.296464
vt 0.300889 0.296464
vt 0.300889 0.296464
vt 0.324794 0.828421
vt 0.322662 0.810239
vt 0.322662 0.810239
vt 0.312500 0.828508
vt 0.316709 0.810239
vt 0.308290 0.810239
vt 0.328445 0.828552
vt 0.300206 0.828421
vt 0.296554 0.828552
vt 0.302337 0.810239
vt 0.306306 0.872359
vt 0.306362 0.883363
vt 0.301208 0.872361
vt 0.354551 0.919778
vt 0.352113 0.928493
vt 0.353779 0.928872
vt 0.356302 0.919781
vt 0.312500 0.945018
vt 0.312500 0.926963
vt 0.293127 0.929589
vt 0.272382 0.797499
vt 0.276598 0.797409
vt 0.273289 0.797451
vt 0.271025 0.797499
vt 0.312500 0.977691
vt 0.312500 0.975778
vt 0.332560 0.959305
vt 0.333713 0.960662
vt 0.318861 0.910918
vt 0.335132 0.920265
vt 0.330626 0.925997
vt 0.348402 0.797409
vt 0.324794 0.797171
vt 0.328445 0.797302
vt 0.352618 0.797499
vt 0.312500 0.876404
vt 0.357267 0.864214
vt 0.352618 0.828749
vt 0.292440 0.959305
vt 0.286456 0.951609
vt 0.289868 0.951515
vt 0.294374 0.957247
vt 0.352795 0.864148
vt 0.326105 0.876362
vt 0.348402 0.828659
vt 0.284325 0.951358
vt 0.291287 0.960662
vt 0.307021 0.828401
vt 0.302337 0.810239
vt 0.289868 0.920265
vt 0.307400 0.912534
vt 0.294374 0.925997
vt 0.271025 0.859999
vt 0.273289 0.859951
vt 0.268604 0.895415
vt 0.266067 0.895454
vt 0.339105 0.951003
vt 0.331872 0.960839
vt 0.340675 0.951358
vt 0.351711 0.797451
vt 0.353975 0.797499
vt 0.318291 0.894109
vt 0.347986 0.897805
vt 0.319679 0.905350
vt 0.276598 0.859909
vt 0.272206 0.895398
vt 0.298895 0.876362
vt 0.312500 0.905221
vt 0.285895 0.919753
vt 0.267733 0.864214
vt 0.272382 0.828749
vt 0.352113 0.897243
vt 0.354551 0.888528
vt 0.353940 0.919772
vt 0.351492 0.929169
vt 0.347986 0.929055
vt 0.350342 0.919766
vt 0.272206 0.864148
vt 0.276598 0.828659
vt 0.331872 0.929589
vt 0.353975 0.859999
vt 0.358933 0.895454
vt 0.356396 0.895415
vt 0.351711 0.859951
vt 0.317979 0.828401
vt 0.314192 0.821090
vt 0.316709 0.810239
vt 0.272382 0.859999
vt 0.267733 0.895464
vt 0.306708 0.894109
vt 0.323792 0.872361
vt 0.318638 0.883363
vt 0.318694 0.872359
vt 0.310807 0.821090
vt 0.308290 0.810239
vt 0.339105 0.919753
vt 0.338544 0.951609
vt 0.330626 0.957247
vt 0.335132 0.951515
vt 0.352618 0.859999
vt 0.357267 0.895464
vt 0.352795 0.895398
vt 0.348402 0.859909
vt 0.312500 0.976268
vt 0.293127 0.960839
vt 0.272887 0.928493
vt 0.270449 0.919777
vt 0.268698 0.919781
vt 0.271221 0.928873
vt 0.272887 0.897243
vt 0.270449 0.888527
vt 0.312500 0.972238
vt 0.273508 0.929169
vt 0.271060 0.919772
vt 0.274658 0.919766
vt 0.277014 0.929055
vt 0.312500 0.914667
vt 0.312500 0.940988
vt 0.317600 0.912534
vt 0.296554 0.797302
vt 0.300206 0.797171
vt 0.277014 0.897805
vt 0.306139 0.910918
vt 0.305321 0.905350
vt 0.274658 0.888516
vt 0.350342 0.888516
vt 0.285895 0.951003
vt 0.310658 0.900312
vt 0.312020 0.896678
vt 0.312500 0.892814
vt 0.312500 0.901000
vt 0.312500 0.872547
vt 0.312500 0.828444
vn 0.1114 0.9567 0.2690
vn -0.1114 0.9567 0.2690
vn 0.2690 0.9567 -0.1114
vn 0.2690 0.9567 0.1114
vn -0.2690 0.9567 0.1114
vn -0.2690 0.9567 -0.1114
vn -0.1114 0.9567 -0.2690
vn 0.1114 0.9567 -0.2690
vn 0.3508 -0.3998 -0.8468
vn 0.3800 -0.1172 -0.9175
vn 0.9175 -0.1172 -0.3800
vn 0.8468 -0.3998 -0.3508
vn -0.3508 -0.3998 -0.8468
vn -0.3800 -0.1172 -0.9175
vn -0.8468 -0.3998 -0.3508
vn -0.9175 -0.1172 -0.3800
vn -0.8468 -0.3998 0.3508
vn -0.9175 -0.1172 0.3800
vn -0.3508 -0.3998 0.8468
vn -0.3800 -0.1172 0.9175
vn 0.3508 -0.3998 0.8468
vn 0.3800 -0.1172 0.9175
vn 0.8468 -0.3998 0.3508
vn 0.9175 -0.1172 0.3800
vn 0.3792 0.1337 -0.9156
vn 0.3670 0.2835 -0.8860
vn 0.8860 0.2835 -0.3670
vn 0.9156 0.1337 -0.3792
vn -0.3792 0.1337 -0.9156
vn -0.3670 0.2835 -0.8860
vn -0.9156 0.1337 -0.3792
vn -0.8860 0.2835 -0.3670
vn -0.9156 0.1337 0.3792
vn -0.8860 0.2835 0.3670
vn -0.3792 0.1337 0.9156
vn -0.3670 0.2835 0.8860
vn 0.3792 0.1337 0.9156
vn 0.3670 0.2835 0.8860
vn 0.9156 0.1337 0.3792
vn 0.8860 0.2835 0.3670
vn 0.3596 -0.3422 -0.8681
vn 0.3827 0.0000 -0.9239
vn 0.9239 0.0000 -0.3827
vn 0.8681 -0.3422 -0.3596
vn -0.3596 -0.3422 -0.8681
vn -0.3827 0.0000 -0.9239
vn -0.8681 -0.3422 -0.3596
vn -0.9239 0.0000 -0.3827
vn -0.8681 -0.3422 0.3596
vn -0.9239 -0.0000 0.3827
vn -0.3596 -0.3422 0.8681
vn -0.3827 -0.0000 0.9239
vn 0.3596 -0.3422 0.8681
vn 0.3827 -0.0000 0.9239
vn 0.8681 -0.3422 0.3596
vn 0.9239 -0.0000 0.3827
vn 0.6708 -0.6876 -0.2779
vn 0.6708 -0.6876 0.2779
vn 0.2779 -0.6876 0.6708
vn -0.2779 -0.6876 0.6708
vn -0.6708 -0.6876 0.2779
vn -0.6708 -0.6876 -0.2779
vn -0.2779 -0.6876 -0.6708
vn 0.2779 -0.6876 -0.6708
vn -0.1068 -0.9603 -0.2577
vn 0.1068 -0.9603 -0.2577
vn 0.0000 -1.0000 0.0000
vn 0.2577 -0.9603 0.1068
vn 0.1068 -0.9603 0.2577
vn -0.1068 -0.9603 0.2577
vn -0.2577 -0.9603 0.1068
vn -0.2577 -0.9603 -0.1068
vn 0.6248 -0.7367 -0.2588
vn 0.2588 -0.7367 -0.6248
vn -0.2588 -0.7367 -0.6248
vn 0.6248 -0.7367 0.2588
vn 0.2588 -0.7367 0.6248
vn -0.2588 -0.7367 0.6248
vn -0.6248 -0.7367 0.2588
vn -0.6248 -0.7367 -0.2588
vn 0.2577 -0.9603 -0.1068
vn 0.9840 -0.1344 0.1172
vn 0.9932 -0.1163 0.0000
vn 0.9900 -0.1263 0.0633
vn 0.0000 -0.3532 -0.9356
vn 0.2593 -0.7209 -0.6427
vn -0.2593 -0.7209 -0.6427
vn 0.3494 -0.2339 -0.9073
vn -0.9840 -0.1343 0.1172
vn -0.9782 -0.1395 0.1535
vn -0.9900 -0.1262 0.0633
vn -0.3784 0.0866 0.9216
vn -0.5074 0.2861 0.8129
vn -0.7459 0.0932 0.6595
vn 0.6934 0.1426 -0.7063
vn 0.6648 0.2807 -0.6923
vn 0.9239 0.3762 -0.0702
vn 0.9816 0.1821 -0.0570
vn -0.0000 0.8127 -0.5826
vn -0.0000 0.3653 -0.9309
vn -0.5784 0.5372 -0.6140
vn -0.0108 -0.9999 -0.0038
vn -0.0107 -0.9999 -0.0036
vn 0.6277 0.7783 -0.0161
vn 0.0000 0.8163 0.5776
vn 0.5927 0.5748 0.5642
vn 0.7273 0.6844 -0.0501
vn 0.0000 -0.1507 0.9886
vn 0.1709 0.1226 0.9776
vn 0.1620 0.1570 0.9742
vn 0.0108 -0.9999 -0.0038
vn 0.0000 0.0749 -0.9972
vn 0.7338 0.0103 -0.6792
vn 0.7245 -0.0481 -0.6876
vn -0.5927 0.5748 0.5642
vn -0.6753 0.4491 0.5851
vn -0.1709 0.1226 0.9776
vn -0.1620 0.1570 0.9742
vn 0.1150 0.0059 0.9933
vn -0.2408 -0.0450 0.9695
vn -0.2324 0.0500 0.9713
vn 0.0799 0.0028 0.9968
vn -0.8353 0.5447 -0.0741
vn -0.7273 0.6844 -0.0501
vn -0.4635 0.1025 0.8802
vn -0.6114 0.0553 0.7894
vn -0.6768 0.1741 0.7153
vn -0.9907 -0.1336 -0.0245
vn -0.7246 -0.0948 0.6826
vn -0.7498 -0.0119 0.6615
vn -0.9992 -0.0139 -0.0370
vn -0.3494 -0.2339 -0.9073
vn 0.6293 0.3969 -0.6682
vn 0.5784 0.5372 -0.6140
vn 0.8353 0.5447 -0.0741
vn 0.0107 -0.9999 -0.0036
vn 0.1228 0.0831 0.9889
vn 0.1571 0.0485 0.9864
vn -0.0799 0.0028 0.9968
vn -0.1150 0.0059 0.9933
vn -0.8337 0.2125 0.5097
vn -0.0000 0.2036 -0.9791
vn -0.6293 0.3969 -0.6682
vn -0.7338 0.0103 -0.6792
vn -0.7245 -0.0481 -0.6876
vn 0.7385 0.1346 0.6606
vn 0.7255 0.3012 0.6188
vn 0.1093 -0.0018 0.9940
vn 0.2408 -0.0450 0.9695
vn 0.2324 0.0500 0.9713
vn 0.9907 -0.1336 -0.0245
vn 0.9992 -0.0139 -0.0370
vn 0.7499 -0.0119 0.6615
vn 0.7246 -0.0948 0.6826
vn -0.6277 0.7783 -0.0161
vn 0.4635 0.1025 0.8802
vn 0.0000 0.1437 0.9896
vn 0.3615 0.2232 0.9053
vn -0.1228 0.0831 0.9889
vn 0.7459 0.0932 0.6595
vn 0.5074 0.2861 0.8129
vn 0.3784 0.0866 0.9216
vn -0.4996 -0.7076 -0.4996
vn 0.4996 -0.7077 -0.4996
vn 0.6114 0.0552 0.7894
vn -0.3615 0.2232 0.9053
vn 0.6753 0.4491 0.5851
vn 0.9782 -0.1396 0.1535
vn -0.9932 -0.1163 0.0000
vn -0.6648 0.2807 -0.6923
vn -0.6934 0.1426 -0.7063
vn -0.9816 0.1821 -0.0570
vn -0.9239 0.3762 -0.0702
vn 0.0000 0.2890 0.9573
vn -0.7255 0.3012 0.6188
vn -0.7385 0.1346 0.6606
vn -0.1093 -0.0018 0.9940
vn -0.1571 0.0485 0.9864
vn 0.8337 0.2125 0.5097
vn -0.0000 -0.0160 0.9999
vn -0.0000 0.3633 0.9317
vn 0.0000 0.0985 0.9951
vn 0.6768 0.1741 0.7153
usemtl tiny_treats_1
s 1
f 68/1/1 69/2/2 28/3/2 27/4/1
f 67/5/3 66/6/4 26/7/4 25/8/3
f 69/2/2 70/9/5 29/10/5 28/3/2
f 70/9/5 71/11/6 30/12/6 29/10/5
f 71/11/6 72/13/7 31/14/7 30/12/6
f 72/13/7 73/15/8 32/16/8 31/14/7
f 66/6/4 68/1/1 27/4/1 26/7/4
f 15/17/9 8/18/10 1/19/11 16/20/12
f 14/21/13 7/22/14 8/18/10 15/17/9
f 13/23/15 6/24/16 7/22/14 14/21/13
f 12/25/17 5/26/18 6/24/16 13/23/15
f 11/27/19 4/28/20 5/26/18 12/25/17
f 10/29/21 3/30/22 4/28/20 11/27/19
f 9/31/23 2/32/24 3/30/22 10/29/21
f 16/20/12 1/19/11 2/32/24 9/31/23
f 47/33/25 24/34/26 17/35/27 48/36/28
f 46/37/29 23/38/30 24/34/26 47/33/25
f 45/39/31 22/40/32 23/38/30 46/37/29
f 44/41/33 21/42/34 22/40/32 45/39/31
f 43/43/35 20/44/36 21/42/34 44/41/33
f 42/45/37 19/46/38 20/44/36 43/43/35
f 41/47/39 18/48/40 19/46/38 42/45/37
f 48/36/28 17/35/27 18/48/40 41/47/39
f 39/49/41 32/50/42 25/51/43 40/52/44
f 38/53/45 31/54/46 32/50/42 39/49/41
f 37/55/47 30/56/48 31/54/46 38/53/45
f 36/57/49 29/58/50 30/56/48 37/55/47
f 35/59/51 28/60/52 29/58/50 36/57/49
f 34/61/53 27/62/54 28/60/52 35/59/51
f 33/63/55 26/64/56 27/62/54 34/61/53
f 40/52/44 25/51/43 26/64/56 33/63/55
f 17/65/57 40/66/44 33/67/55 18/68/58
f 18/68/58 33/67/55 34/69/53 19/70/59
f 19/70/59 34/69/53 35/71/51 20/72/60
f 20/72/60 35/71/51 36/73/49 21/74/61
f 21/74/61 36/73/49 37/75/47 22/76/62
f 22/76/62 37/75/47 38/77/45 23/78/63
f 23/78/63 38/77/45 39/79/41 24/80/64
f 24/80/64 39/79/41 40/66/44 17/65/57
f 1/19/11 48/36/28 41/47/39 2/32/24
f 2/32/24 41/47/39 42/45/37 3/30/22
f 3/30/22 42/45/37 43/43/35 4/28/20
f 4/28/20 43/43/35 44/41/33 5/26/18
f 5/26/18 44/41/33 45/39/31 6/24/16
f 6/24/16 45/39/31 46/37/29 7/22/14
f 7/22/14 46/37/29 47/33/25 8/18/10
f 8/18/10 47/33/25 48/36/28 1/19/11
f 64/81/65 50/82/66 49/83/67
f 55/84/68 57/85/69 49/83/67
f 57/85/69 59/86/70 49/83/67
f 59/86/70 61/87/71 49/83/67
f 61/87/71 63/88/72 49/83/67
f 63/88/72 64/81/65 49/83/67
f 15/17/9 16/20/12 52/89/73 51/90/74
f 14/21/13 15/17/9 51/90/74 65/91/75
f 16/20/12 9/31/23 54/92/76 52/89/73
f 9/31/23 10/29/21 56/93/77 54/92/76
f 10/29/21 11/27/19 58/94/78 56/93/77
f 11/27/19 12/25/17 60/95/79 58/94/78
f 12/25/17 13/23/15 62/96/80 60/95/79
f 13/23/15 14/21/13 65/91/75 62/96/80
f 53/97/81 55/84/68 49/83/67
f 51/98/74 52/99/73 53/97/81 50/82/66
f 65/100/75 51/98/74 50/82/66 64/81/65
f 52/99/73 54/101/76 55/84/68 53/97/81
f 54/101/76 56/102/77 57/85/69 55/84/68
f 56/102/77 58/103/78 59/86/70 57/85/69
f 58/103/78 60/104/79 61/87/71 59/86/70
f 60/104/79 62/105/80 63/88/72 61/87/71
f 62/105/80 65/100/75 64/81/65 63/88/72
f 50/82/66 53/97/81 49/83/67
f 80/106/82 66/107/83 67/108/84
f 76/109/85 73/110/86 72/111/87
f 76/109/85 84/112/88 73/110/86
f 78/113/89 85/114/90 71/115/91
f 146/116/92 148/117/93 82/118/94
f 126/119/95 113/120/96 111/121/97 128/122/98
f 87/123/99 75/124/100 92/125/101
f 91/126/102 98/127/102 99/128/103 90/129/103
f 86/130/104 89/131/105 102/132/106 95/133/107
f 140/134/108 115/135/109 103/136/110
f 105/137/111 80/138/111 84/139/111 96/140/111
f 77/141/112 127/142/113 96/143/114 84/112/88
f 100/144/115 118/145/116 120/146/117 101/147/118
f 136/148/119 81/149/120 80/106/121 105/150/122
f 109/151/123 118/145/116 100/144/115 93/152/124
f 143/153/125 78/113/126 70/154/127
f 120/155/117 140/156/108 101/157/118
f 90/158/128 99/159/129 131/160/130 124/161/131
f 85/114/132 77/141/112 76/109/85
f 112/162/133 94/163/134 95/133/107 110/164/135
f 104/165/136 105/137/111 96/140/111 97/166/136
f 139/167/137 114/168/138 140/169/108
f 99/159/129 98/170/139 133/171/140 131/160/130
f 79/172/141 78/113/126 82/118/94
f 74/173/142 107/174/143 92/125/101 75/124/100
f 122/175/144 77/141/112 85/114/132 91/176/145
f 77/141/112 74/173/142 113/177/96 126/178/95
f 135/179/146 116/180/147 114/181/138 137/182/148
f 79/172/149 133/183/140 98/184/139 78/113/150
f 87/123/99 94/185/134 75/124/100
f 97/186/151 129/187/152 134/188/153 104/189/154
f 93/152/124 100/144/115 89/131/105 86/130/155
f 142/190/156 144/191/157 68/192/158
f 91/193/145 90/158/128 124/161/131 122/194/144
f 138/195/159 79/172/141 82/118/94 148/117/93
f 143/153/125 146/116/92 82/118/94 78/113/126
f 83/196/160 149/197/161 145/198/162
f 76/109/85 77/141/112 84/112/88
f 76/109/85 72/111/87 85/114/132
f 72/111/87 71/115/163 85/114/132
f 84/112/88 67/108/164 73/110/86
f 83/196/160 145/198/162 142/190/156 80/106/165
f 144/199/157 69/200/166 68/192/158
f 112/201/133 74/173/142 75/124/100 94/185/134
f 117/202/167 102/132/106 103/203/110 115/204/109
f 96/205/114 127/206/113 129/187/152 97/186/151
f 84/112/168 80/106/82 67/108/84
f 70/154/169 78/113/89 71/115/91
f 104/189/154 134/188/153 136/207/119 105/208/122
f 87/209/99 92/210/101 93/152/124 86/130/155
f 106/211/170 123/212/171 125/213/172 108/214/173
f 95/133/107 102/132/106 117/202/167 110/164/135
f 94/163/134 87/209/99 86/130/104 95/133/107
f 106/215/170 74/173/142 77/141/112 123/216/171
f 116/180/147 135/179/146 128/122/98 111/121/97
f 89/131/105 100/144/115 101/147/118 88/217/174
f 119/218/175 130/219/176 132/220/177 121/221/178
f 114/168/138 115/135/109 140/169/108
f 102/132/106 89/131/105 88/217/174 103/203/110
f 140/222/108 88/223/174 101/157/118
f 103/136/110 88/223/174 140/224/108
f 108/214/173 125/213/172 130/219/176 119/218/175
f 85/225/102 78/226/102 98/127/102 91/126/102
f 106/215/170 107/174/143 74/173/142
f 112/201/133 113/177/96 74/173/142
f 120/155/117 121/227/178 140/228/108
f 138/195/159 140/229/108 121/227/178
f 122/175/144 123/216/171 77/141/112
f 126/178/95 127/142/113 77/141/112
f 132/230/177 133/183/140 79/172/149
f 136/148/119 137/231/148 81/149/120
f 106/211/170 108/214/173 109/151/123 107/232/143
f 111/121/97 113/120/96 112/162/133 110/164/135
f 122/194/144 124/161/131 125/213/172 123/212/171
f 126/119/95 128/122/98 129/187/152 127/206/113
f 119/218/175 121/221/178 120/146/117 118/145/116
f 114/181/138 116/180/147 117/202/167 115/204/109
f 131/160/130 133/171/140 132/220/177 130/219/176
f 135/179/146 137/182/148 136/207/119 134/188/153
f 108/214/173 119/218/175 118/145/116 109/151/123
f 124/161/131 131/160/130 130/219/176 125/213/172
f 116/180/147 111/121/97 110/164/135 117/202/167
f 134/188/153 129/187/152 128/122/98 135/179/146
f 92/210/101 107/232/143 109/151/123 93/152/124
f 73/15/8 67/5/3 25/8/3 32/16/8
f 81/149/179 83/196/160 80/106/165
f 141/233/180 139/234/137 140/229/108
f 144/199/157 143/153/125 69/200/166
f 138/195/159 148/117/93 150/235/181 141/236/180
f 141/236/180 150/235/181 149/197/161 139/167/137
f 142/190/156 145/198/162 147/237/182 144/238/157
f 144/238/157 147/237/182 146/116/92 143/153/125
f 145/198/162 149/197/161 150/235/181 147/237/182
f 147/237/182 150/235/181 148/117/93 146/116/92
f 81/149/179 139/167/137 149/197/161 83/196/160
f 143/153/125 70/154/127 69/200/166
f 138/195/159 141/233/180 140/229/108
f 81/149/120 137/231/148 114/168/138 139/167/137
f 79/172/149 138/195/159 121/227/178 132/230/177
f 142/190/156 68/192/158 66/107/183
f 80/106/165 142/190/156 66/107/183
